<svg xmlns="http://www.w3.org/2000/svg" viewBox="0 0 45 45"><defs><clipPath id="a"><path d="M0 36h36V0H0v36z"/></clipPath></defs><g clip-path="url(#a)" transform="matrix(1.25 0 0 -1.25 0 45)"><path d="M36 35C16.118 35 1 19.882 1 0h17.042c0 9.917 8.041 17.958 17.958 17.958V35z" fill="#8767ac"/><path d="M0 .001h3.042c0 18.188 14.733 32.935 32.917 32.958V36C16.095 35.978 0 19.87 0 .001" fill="#eb2027"/><path d="M3.083 0h3c0 16.532 13.391 29.935 29.917 29.958v3C17.816 32.935 3.083 18.188 3.083 0" fill="#f19020"/><path d="M6.083 0h3c0 14.875 12.048 26.935 26.917 26.958v3C19.474 29.935 6.083 16.532 6.083 0" fill="#ffcb4c"/><path d="M9.083 0h3c0 13.218 10.705 23.935 23.917 23.958v3C21.131 26.935 9.083 14.875 9.083 0" fill="#5c903f"/><path d="M12.083 0h3c0 11.561 9.362 20.934 20.917 20.957v3.001C22.788 23.935 12.083 13.218 12.083 0" fill="#226798"/></g></svg>