<svg xmlns="http://www.w3.org/2000/svg" viewBox="0 0 45 45"><defs><clipPath id="a"><path d="M0 36h36V0H0v36z"/></clipPath></defs><g clip-path="url(#a)" transform="matrix(1.25 0 0 -1.25 0 45)"><path d="M12 0v20s-1.17-1.053-2.354-1.929c-.313-.231-1.977-.79-2.313-1.04-1.762-1.315-2.552-3.841-2.791-4.167C4.083 12.24 0 0 0 0h12z" fill="#292f33"/><path d="M32 0l-5.5 17.75-8.5 5.656-6.458-2.208C11.135 20.417 10 17.75 10 17.75L8.75 14 0 0h32z" fill="#4b545d"/><path d="M18.135 10.274c-.145.513-.026.97-.177 1.476-.148.5-.566 1.047-.693 1.478-.265.9-.454 1.582-.445 1.772.023.468.893.401 1.102-.469.293-1.224.687-1.594.687-1.594s.084 3.381-.632 4.068c.145.232.288.476.42.745.623 1.291.645 2.104.645 2.104S16.522 16.792 15.82 15c-.702-1.792 1-8 1-8l-4-7h4.466s-.474 1.468-.466 1.968c.007.5 1.898 3.688 2 5.032.04.545-.285 1.86-.685 3.274M33.875 10.25c-.515.586-1.841 1.42-3.128 2.153 0 0-2.336 5.597-3.622 7.264-1.286 1.666-3.667 3-3.667 3l-2.646-1.479s1.706-1.447 2.646-3.063c.941-1.616.689-3.52.745-3.907.068-.468.06-.973.589-1.76 1.044-1.553 1.726-1.54 2.183-2.275.049-.146.099-.291.15-.433.14-.386.681-.655.792-1.021.175-.577.877-2.284.682-3.09-.107-.438-.225-1.521-.307-2.014C27.95 1.583 29.057 0 29.057 0H36s-1 8.969-2.125 10.25" fill="#292f33"/><path d="M26.098 13.744c-.771.754-1.187 1.897-1.23 3.294.174 1.667-4.662 4.923-4.662 4.923l-1.914-.316s4.113-1.68 4.708-4.453c.297-1.38-.106-3.27-.208-4.11-.135-1.118.66-1.768.875-2.832.11-.55.007-1.693-.14-2.878-.075-.603-.348-1.176-.422-1.727-.193-1.423-.12-2.47.228-1.812.422.797.654 1.923 1.263 3.606.293.81.312 1.743.239 2.811-.031.461.11 1.01.06 1.52-.05.53-.293 1.021-.332 1.605-.011.166.03.738.092 1.443.073-.012.145-.053.216-.17.938-1.563.764-3.026 1.276-2.582.412.357.494 1.147-.05 1.678" fill="#ffac33"/><path d="M8.77 11.003S4.333 7.917 3.166 6.458C2 5 0 0 0 0h4.5s.041 1.896-.156 2.688c-.198.792.312 2.455.906 2.875 1.416 1 2.381 2.31 2.52 2.149.521-.605.521-1.21.521-1.21s.499 1.38.521 2.543a22.331 22.331 0 0 1-.042 1.958" fill="#292f33"/><path d="M18 23.406s-3.844 1.094-6.458-1.25C10.351 21.09 10.479 20.104 10 17.75c-.479-2.355-1.861-3.086-2.063-4.02-.395-1.835-1.852-3.23-2.416-4.105-.329-.509-.758-1.336-1.038-1.803-.587-.978-1.014-1.805-1.066-2.239-.125-1.04 1.833 1.21 1.833 1.21l3.281 4.034c-.107-2.3-.925-4.738-.031-4.515.75.188 1.362 1.136 1.016 2.156-.454 1.336-.338 2.483-.095 3.457.05.088 2.252 4.006 2.787 7.116.542 3.146 5.381 3.977 5.381 3.977l2.244-.862.417 1.066-2.25.184z" fill="#ffac33"/><path d="M27.953 19c-1.328 1.75-3.286 3.686-4.233 3.988-.824.263-.428-.815-.428-.815s2.833-1.236 4.27-6.736c.687-2.624 2.766-3.71 3.344-5.343 1.938-5.469 4.166-6.463 2.943-4.747C32.625 7.062 29.281 17.25 27.953 19M17.981 17.465c-.108.167-.205.306-.294.437a212.156 212.156 0 0 0 2.751 4.036s-2.912.293-3-.032c-.875-3.218-1.67-4.237-2.313-6.281C13.25 9.667 16.336 5.755 16.82 7c.389 1-.211 3.746-.672 5.373-.46 1.627-.266 2.002-.169 2.669.034.234.594 1.152 1.304 2.243a.952.952 0 0 0 .243-.29c.446-.8.653-2.26.753-3.251.115-1.138 1.134-1.652 1.697-1.25.562.403-.189 2.42-1.411 3.726-.29.31-.393.95-.584 1.245" fill="#e95f28"/><path d="M23.969 22.875s.594-1.156-1.636-1.135c-.584.005-.86-.512-1.625-.576-.635-.054-1.51.242-2.23.242s-1.55-.491-2.185-.438c-.765.064-1.66.834-2.23.959-1.062.232-1.792.289-1.792.646 0 .357 1.207.788 2.27 1.021.572.124 1.059-.285 1.823-.221.636.053 1.29.102 2.01.102.722 0 1.416.43 2.052.377.766-.064 1.403-.432 1.98-.535.683-.123 1.087-.245 1.314-.329.184-.069.249-.113.249-.113" fill="#e95f28"/><path d="M25.531 29.094s-3.455 1.365-6.764 1.365-7.392-1.886-7.392-1.886c3.25-2.764 3.12-5.698 3.12-5.698h7.686s1.162 4.053 3.35 6.219" fill="#ffac33"/><path d="M22.182 22.875s-.056-.21-.4-.312c-.091-.027-.307.047-.454 0-.173-.057-.486-.201-.64-.219-.166-.02-.546.094-.735.078-.343-.028-.52-.16-.921-.172-.274-.008-.402.098-.694.098-.11 0-.341.097-.525.09-.303-.013-.583-.13-.75-.125-.453.013-.545.216-.922.25-.365.032-.625-.141-.891-.094-.502.089-.755.406-.755.406 0 .291 1.72.527 3.843.527a14.6 14.6 0 0 0 3.844-.527" fill="#ffac33"/><path d="M17.145 22.318s-.07.575-.301 1.367c-.615 2.107-.594 3.628-.594 3.628l-1.396-.667s.729-1.396 1.305-4.093c0 0 .199-.005.429-.13.23-.124.557-.105.557-.105M18.843 22.255c.004.228.01.714.074 1.214.063.492.322 1.677.416 2.26.163.996.117 1.696.334 2.084l-2.23-.084s.47-.931.584-2.041c.088-.866 0-2.24.195-3.327 0 0 .063-.017.149-.023.043-.004.14-.003.192-.012.157-.028.286-.071.286-.071M21.055 22.455s.462 1.455.62 2.446c.257 1.613 1.714 3.985 2.107 4.38l-2.83.094s.07-2.11-.056-3.49c-.096-1.044-.6-1.993-.52-3.505 0 0 .135-.05.312-.036.154.011.367.111.367.111" fill="#e95f28"/><path d="M30.375 33.96c-.045 0-.088-.01-.132-.013-.193.446-.636.76-1.152.76a1.21 1.21 0 0 1-.631-.195 2.533 2.533 0 0 1-2.152 1.204c-.815 0-1.532-.39-1.996-.985a3.061 3.061 0 0 1-4.404-1.051 1.726 1.726 0 0 1-1.583 1.041 1.713 1.713 0 0 1-1.351-.664A2.869 2.869 0 0 1 14.266 36a2.871 2.871 0 0 1-2.415-1.322c-.142.021-.283.043-.43.043a2.865 2.865 0 0 1-2.048-.859c-.067.005-.132.02-.201.02-.034 0-.066-.008-.099-.009a1.67 1.67 0 0 1-1.322.656c-.526 0-.989-.247-1.296-.627-.171.05-.348.085-.534.085a1.92 1.92 0 1 1 0-3.842c.055 0 .106.011.16.016.217-.27.536-.456.911-.456.045 0 .084.021.129.026a2.573 2.573 0 0 1 2.051-1.026c.19 0 .374.024.552.062a2.86 2.86 0 0 1 1.213-.576 3.715 3.715 0 0 1 3.225-1.884c1.311 0 2.459.678 3.124 1.701a2.99 2.99 0 0 1 2.323-1.118c1.393 0 2.553.95 2.897 2.233.026 0 .05-.008.076-.008.367 0 .714.075 1.041.194a3.01 3.01 0 0 1 1.862-.653 3.04 3.04 0 0 1 2.539 1.37c.194-.139.419-.238.676-.238.482 0 .894.291 1.077.705.188-.067.387-.11.598-.11a1.79 1.79 0 0 1 0 3.577" fill="#ccd6dd"/><path d="M16.274 31.297a2.024 2.024 0 1 0-4.047 0 2.024 2.024 0 0 0 4.047 0" fill="#aab8c2"/><path d="M13.752 31.463a2.001 2.001 0 1 0-4.003 0 2.001 2.001 0 0 0 4.002 0" fill="#aab8c2"/><path d="M10.894 31.373a1.11 1.11 0 1 0-2.22 0 1.11 1.11 0 0 0 2.22 0M24.769 32.33a1.109 1.109 0 1 0-2.218 0 1.109 1.109 0 0 0 2.218 0" fill="#aab8c2"/><path d="M27.703 32.713a1.495 1.495 0 1 0-2.989 0 1.495 1.495 0 0 0 2.99 0M17.608 31.737a1.632 1.632 0 1 0-3.264 0 1.632 1.632 0 0 0 3.264 0" fill="#aab8c2"/><path d="M27.338 31.837a1.783 1.783 0 1 0-3.567-.001 1.783 1.783 0 0 0 3.567 0M18.953 31.16a1.532 1.532 0 1 0-3.064 0 1.532 1.532 0 0 0 3.064 0M15.903 32.469a1.7 1.7 0 1 0-3.401 0 1.7 1.7 0 0 0 3.4 0" fill="#aab8c2"/><path d="M17.021 30.727a2.86 2.86 0 1 0-5.718-.002 2.86 2.86 0 0 0 5.718.002" fill="#aab8c2"/></g></svg>