<svg xmlns="http://www.w3.org/2000/svg" viewBox="0 0 45 45"><defs><clipPath id="a"><path d="M0 36h36V0H0v36z"/></clipPath></defs><g clip-path="url(#a)" transform="matrix(1.25 0 0 -1.25 0 45)"><path d="M12 0v20l-2.4-2c-.3-.2-2-.7-2.3-1-1.7-1.3-2.5-3.8-2.8-4.1C4.1 12.2 0 0 0 0h12z" fill="#292f33"/><path d="M32 0l-5.5 17.8-8.5 5.6-6.5-2.2-1.5-3.5L8.7 14 0 0h32z" fill="#4b545d"/><path d="M18.1 10.3l-.1 1.4-.7 1.5a11 11 0 0 0-.5 1.8c0 .5 1 .4 1.1-.5.3-1.2.7-1.6.7-1.6s0 3.4-.6 4.1l.4.7c.6 1.3.6 2.1.6 2.1s-2.5-3-3.2-4.8c-.7-1.8 1-8 1-8l-4-7h4.5s-.5 1.5-.5 2 2 3.7 2 5c0 .6-.3 1.9-.7 3.3m15.8 0a15 15 0 0 1-3.2 2.1s-2.3 5.6-3.6 7.3c-1.3 1.6-3.6 3-3.6 3l-2.7-1.5s1.7-1.5 2.7-3c.9-1.7.6-3.6.7-4 0-.4 0-1 .6-1.7 1-1.6 1.7-1.6 2.2-2.3l.1-.4c.2-.4.7-.7.8-1 .2-.6.9-2.3.7-3.2l-.3-2a5 5 0 0 1 .8-3.6H36s-1 9-2.1 10.3" fill="#292f33"/><path d="M26.1 13.7a4.7 4.7 0 0 0-1.2 3.3c.1 1.7-4.7 5-4.7 5l-2-.4s4.2-1.6 4.8-4.4c.3-1.4-.1-3.3-.2-4.1-.1-1.1.7-1.8.9-2.8 0-.6 0-1.7-.2-3 0-.5-.3-1-.4-1.6-.2-1.5-.1-2.5.2-1.8.5.7.7 1.9 1.3 3.6.3.8.3 1.7.2 2.8l.1 1.5c0 .5-.3 1-.3 1.6v1.4l.3-.1c1-1.6.7-3 1.3-2.6.4.3.5 1.1-.1 1.7" fill="#ffac33"/><path d="M8.8 11S4.3 8 3.2 6.5C2 5 0 0 0 0h4.5s0 1.9-.2 2.7.4 2.4 1 2.9c1.4 1 2.3 2.3 2.5 2.1.5-.6.5-1.2.5-1.2s.5 1.4.5 2.6a22.3 22.3 0 0 1 0 1.9" fill="#292f33"/><path d="M18 23.4s-3.8 1.1-6.5-1.2c-1.2-1.1-1-2.1-1.5-4.4s-1.9-3.1-2-4c-.5-1.9-2-3.3-2.5-4.2l-1-1.8a7.9 7.9 0 0 1-1-2.2c-.2-1 1.8 1.2 1.8 1.2l3.2 4c0-2.3-.9-4.7 0-4.5.8.2 1.4 1.2 1 2.2a5.9 5.9 0 0 0 0 3.4c0 .1 2.2 4 2.7 7.1.6 3.2 5.4 4 5.4 4l2.2-.8.4 1-2.2.2z" fill="#ffac33"/><path d="M28 19a13.9 13.9 0 0 1-4.3 4c-.8.3-.4-.8-.4-.8s2.8-1.3 4.3-6.8c.6-2.6 2.7-3.7 3.3-5.3 2-5.5 4.2-6.5 3-4.7-1.3 1.7-4.6 11.9-6 13.6m-10-1.5l-.2.4a212.2 212.2 0 0 0 2.7 4s-2.9.3-3 0c-.8-3.2-1.6-4.2-2.3-6.3-1.8-6 1.2-9.9 1.7-8.6.4 1-.2 3.7-.6 5.4-.5 1.6-.3 2-.2 2.6 0 .3.6 1.2 1.3 2.3a1 1 0 0 0 .2-.3c.5-.8.7-2.3.8-3.3 0-1 1.1-1.6 1.7-1.2.5.4-.2 2.4-1.4 3.7-.3.3-.4 1-.6 1.3" fill="#e95f28"/><path d="M24 22.9s.6-1.2-1.7-1.2c-.6 0-.8-.5-1.6-.5l-2.2.2c-.7 0-1.6-.5-2.2-.4-.8 0-1.7.8-2.2 1-1.1.2-1.8.2-1.8.6 0 .3 1.2.8 2.2 1 .6.1 1.1-.3 1.9-.2h2c.7 0 1.4.5 2 .5.8-.1 1.4-.5 2-.6a7.9 7.9 0 0 0 1.3-.3l.3-.1" fill="#e95f28"/><path d="M25.5 29.1s-3.4 1.4-6.7 1.4-7.4-2-7.4-2c3.2-2.7 3.1-5.6 3.1-5.6h7.7s1.1 4 3.3 6.2" fill="#ffac33"/><path d="M22.2 22.9s0-.2-.4-.3h-.5l-.6-.3-.7.1-1-.2-.7.1-.5.1h-.7l-1 .2c-.3 0-.6-.2-.9-.1-.4 0-.7.4-.7.4 0 .3 1.7.5 3.8.5a14.6 14.6 0 0 0 3.9-.5" fill="#ffac33"/><path d="M17.1 22.3l-.3 1.4c-.6 2-.6 3.6-.6 3.6l-1.3-.6s.7-1.4 1.2-4.1l.5-.2h.5m1.7-.1l.1 1.2.4 2.2c.2 1 .1 1.7.4 2.1h-2.3s.5-1 .6-2.1c.1-.9 0-2.2.2-3.3h.4l.2-.1m2.2.2l.7 2.4a12 12 0 0 0 2 4.4H21v-3.4c-.1-1-.6-2-.5-3.5h.6" fill="#e95f28"/><path d="M30.4 34h-.2c-.2.4-.6.7-1.1.7a1.2 1.2 0 0 1-.6-.2 2.5 2.5 0 0 1-2.2 1.2c-.8 0-1.5-.4-2-1a3 3 0 0 1-4.4-1 1.7 1.7 0 0 1-1.6 1 1.7 1.7 0 0 1-1.3-.6 2.9 2.9 0 0 1-2.7 1.9 2.9 2.9 0 0 1-2.4-1.3h-.5a2.9 2.9 0 0 1-2-.8H9a1.7 1.7 0 0 1-1.3.6c-.6 0-1-.2-1.3-.6a1.9 1.9 0 0 1-.6 0 2 2 0 1 1 0-3.8H6c.2-.2.5-.4.9-.4H7a2.6 2.6 0 0 1 2-1h.6a2.9 2.9 0 0 1 1.2-.5 3.7 3.7 0 0 1 3.3-1.9c1.3 0 2.4.7 3 1.7a3 3 0 0 1 2.4-1.1 3 3 0 0 1 3 2.2c.4 0 .7 0 1 .2a3 3 0 0 1 1.9-.6A3 3 0 0 1 28 30l.7-.2c.5 0 .9.3 1 .7l.7-.1a1.8 1.8 0 0 1 0 3.6" fill="#ccd6dd"/><path d="M16.3 31.3a2 2 0 1 0-4 0 2 2 0 0 0 4 0" fill="#aab8c2"/><path d="M13.8 31.5a2 2 0 1 0-4 0 2 2 0 0 0 4 0" fill="#aab8c2"/><path d="M10.9 31.4a1.1 1.1 0 1 0-2.2 0 1.1 1.1 0 0 0 2.2 0m13.9 1a1.1 1.1 0 1 0-2.2 0 1.1 1.1 0 0 0 2.2 0" fill="#aab8c2"/><path d="M27.7 32.7a1.5 1.5 0 1 0-3 0 1.5 1.5 0 0 0 3 0m-10-1a1.6 1.6 0 1 0-3.4 0 1.6 1.6 0 0 0 3.3 0" fill="#aab8c2"/><path d="M27.3 31.8a1.8 1.8 0 1 0-3.5 0 1.8 1.8 0 0 0 3.5 0m-8.4-.6a1.5 1.5 0 1 0-3 0 1.5 1.5 0 0 0 3 0m-3 1.3a1.7 1.7 0 1 0-3.4 0 1.7 1.7 0 0 0 3.4 0" fill="#aab8c2"/><path d="M17 30.7a2.9 2.9 0 1 0-5.7 0 2.9 2.9 0 0 0 5.7 0" fill="#aab8c2"/></g></svg>