<svg xmlns="http://www.w3.org/2000/svg" viewBox="0 0 45 45"><defs><clipPath id="a"><path d="M0 36h36V0H0v36z"/></clipPath></defs><g clip-path="url(#a)" transform="matrix(1.25 0 0 -1.25 0 45)"><path d="M36 35C16.1 35 1 19.9 1 0h17c0 10 8 18 18 18v17z" fill="#8767ac"/><path d="M0 0h3a33 33 0 0 0 33 33v3A36 36 0 0 1 0 0" fill="#eb2027"/><path d="M3 0h3a30 30 0 0 0 30 30v3A33 33 0 0 1 3 0" fill="#f19020"/><path d="M6 0h3a27 27 0 0 0 27 27v3A30 30 0 0 1 6 0" fill="#ffcb4c"/><path d="M9 0h3a24 24 0 0 0 24 24v3A27 27 0 0 1 9 0" fill="#5c903f"/><path d="M12 0h3a21 21 0 0 0 21 21v3A24 24 0 0 1 12 0" fill="#226798"/></g></svg>