<svg xmlns="http://www.w3.org/2000/svg" viewBox="0 0 45 45"><defs><clipPath id="a"><path d="M0 36h36V0H0v36z"/></clipPath></defs><g clip-path="url(#a)" transform="matrix(1.25 0 0 -1.25 0 45)"><path d="M11 23c0 5 2 9.5 5 12.9A18 18 0 0 1 18 0a18 18 0 0 1 11.3 4A19 19 0 0 0 13 14.5c-.6 1.2 2.8 1.2 3 3.5.1 2.1-5 2.7-5 5" fill="#ccd6dd"/><path d="M14 7.5A3.5 3.5 0 0 0 10.5 4 3.5 3.5 0 0 0 7 7.5a3.5 3.5 0 1 0 7 0M8 29a1 1 0 1 1 2 0 1 1 0 0 1-2 0m9-25a1 1 0 1 1 2 0 1 1 0 1 1-2 0M5 16a2 2 0 1 0-4 0 2 2 0 0 0 4 0" fill="#b8c5cd"/><path d="M16.2 10a19.4 19.4 0 0 0-2.1 2.6c-5.5-1.2-7.6.3-7.3-.8.3-1.1 4.8-3 9.4-1.8M10 21.5a2.5 2.5 0 1 0-5 0 2.5 2.5 0 0 0 5 0" fill="#4f585d"/></g></svg>