<svg xmlns="http://www.w3.org/2000/svg" viewBox="0 0 45 45"><defs><clipPath id="a"><path d="M0 36h36V0H0v36z"/></clipPath></defs><g clip-path="url(#a)" transform="matrix(1.25 0 0 -1.25 0 45)"><path d="M28.8 18.4a6.2 6.2 0 0 1-1.4-4.5l.9-6.5c.2-1.4-.7-2-2-1.4l-5.9 2.8c-1.3.6-3.4.6-4.7 0l-5.8-3c-1.3-.5-2.2.1-2 1.5l.9 6.5a6.2 6.2 0 0 1-1.5 4.5L2.8 23c-1 1-.7 2 .8 2.3l6.3 1.2a6.2 6.2 0 0 1 3.8 2.8l3 5.7c.7 1.3 1.9 1.3 2.5 0l3.1-5.6a6.2 6.2 0 0 1 3.8-2.8l6.4-1.2c1.4-.2 1.8-1.3.8-2.3l-4.5-4.7z" fill="#ffac33"/><path d="M9.8 33.8c1-1.4 2.4-4.9 1.7-5.4-.7-.6-3.6 1.9-4.6 3.3-1 1.4-1 2.7-.2 3.3.8.5 2 .2 3-1.2m19.4-2.1c-1-1.4-3.9-3.9-4.6-3.3-.7.5.7 4 1.7 5.4 1 1.4 2.3 1.7 3 1.2.9-.6 1-1.9 0-3.3m-12.6-29c0 1.8 1 5.4 1.8 5.4s1.8-3.6 1.8-5.4c0-1.7-.8-2.7-1.8-2.7s-1.8 1-1.8 2.7M32.8 12c-1.6.5-4.8 2.5-4.6 3.4.3.8 4 .6 5.7 0 1.7-.5 2.3-1.6 2-2.6-.3-.9-1.4-1.4-3.1-.8M2.1 15.4c1.6.5 5.4.8 5.7 0 .2-.9-3-2.9-4.6-3.4-1.7-.6-2.8-.1-3.1.8-.3 1 .3 2 2 2.6" fill="#ffd983"/></g></svg>