<svg xmlns="http://www.w3.org/2000/svg" viewBox="0 0 45 45"><defs><clipPath id="a"><path d="M0 36h36V0H0v36z"/></clipPath></defs><g clip-path="url(#a)" transform="matrix(1.25 0 0 -1.25 0 45)"><path d="M18 .2a1 1 0 0 0-1 .6l-1.7 3.5-3-2.6a1 1 0 0 0-.7-.2 1 1 0 0 0-.4 0 1 1 0 0 0-.7 1l-.3 3.9-3.7-1.2a1 1 0 0 0-1.3 1.3l1.2 3.8-4 .3a1 1 0 0 0-.9.6c0 .4 0 .8.2 1l2.6 3-3.5 1.9a1 1 0 0 0 0 1.8l3.5 1.8-2.6 3a1 1 0 1 0 .7 1.7l4 .3-1.2 3.8c-.2.4 0 .8.2 1a1 1 0 0 0 1 .3l3.9-1.2.3 4a1 1 0 0 0 1.7.7l3-2.6 1.8 3.5a1 1 0 0 0 1.8 0l1.8-3.5 3 2.6a1 1 0 0 0 1.1.1c.4-.1.6-.4.6-.8l.3-4 3.8 1.2a1 1 0 0 0 1.3-1.3l-1.2-3.8 4-.3a1 1 0 0 0 .7-1.7l-2.6-3 3.5-1.8a1 1 0 0 0 0-1.8l-3.5-1.8 2.6-3a1 1 0 0 0-.7-1.7l-4-.3 1.2-3.8a1 1 0 0 0-.2-1 1 1 0 0 0-1-.3l-3.9 1.2-.2-4a1 1 0 0 0-1.8-.7l-3 2.6L19 .8a1 1 0 0 0-.9-.6" fill="#f4900c"/><path d="M31 18a13 13 0 1 0-26 0 13 13 0 0 0 26 0" fill="#ffcc4d"/><path d="M18 12.5c-6.2 0-8 2.4-8 1.3s3.6-4 8-4 8 2.9 8 4-1.8-1.3-8-1.3m8 8.8a2.7 2.7 0 1 0-5.3 0 2.7 2.7 0 0 0 5.3 0m-10.7 0a2.7 2.7 0 1 0-5.3 0 2.7 2.7 0 0 0 5.3 0" fill="#f4900c"/></g></svg>