<svg xmlns="http://www.w3.org/2000/svg" viewBox="0 0 45 45"><defs><clipPath id="a"><path d="M0 36h36V0H0v36z"/></clipPath></defs><g clip-path="url(#a)" transform="matrix(1.25 0 0 -1.25 0 45)"><path d="M33.5 33.5a5 5 0 0 1-7 0l-1.2-1.2 2.8-2.8a1 1 0 0 0-1.4-1.4l-2.8 2.8-2.1-2 2.8-3a1 1 0 1 0-1.4-1.3l-2.9 2.8-2-2.1 2.8-2.9a1 1 0 1 0-1.5-1.4l-2.8 3-2.1-2.2 2.8-2.8a1 1 0 1 0-1.4-1.4l-2.8 2.8-2.1-2.1 2.8-2.8a1 1 0 1 0-1.4-1.5l-2.9 2.9L8 15A7 7 0 0 1 8 1a7 7 0 0 1 7 6.9l18.5 18.6a5 5 0 0 1 0 7" fill="#ccd6dd"/><path d="M31 30.9a2 2 0 0 1-2.9 0l-19-19a4 4 0 0 1-4-1 4 4 0 1 1 5.7-5.7 4 4 0 0 1 1 3.8L31 28a2 2 0 0 1 0 3" fill="#dd2e44"/><path d="M13.3 13.7a1 1 0 0 1 .7 1.7l-3 2.8-1.4-1.4 2.9-2.8a1 1 0 0 1 .7-.3m3.5 3.5a1 1 0 0 1 .7 1.7l-2.8 2.8-1.4-1.4 2.8-2.8a1 1 0 0 1 .7-.3m3.5 3.5a1 1 0 0 1 .7 1.7l-2.8 2.9-1.4-1.4 2.8-2.9a1 1 0 0 1 .7-.3m3.6 3.6a1 1 0 0 1 .7 1.7l-2.9 2.8-1.4-1.4 2.9-2.8a1 1 0 0 1 .7-.3m3.5 3.5a1 1 0 0 1 .7 1.7l-2.8 2.8-1.5-1.4 2.9-2.8a1 1 0 0 1 .7-.3" fill="#292f33"/></g></svg>