<svg xmlns="http://www.w3.org/2000/svg" viewBox="0 0 45 45"><defs><clipPath id="a"><path d="M0 36h36V0H0v36z"/></clipPath></defs><g clip-path="url(#a)" transform="matrix(1.25 0 0 -1.25 0 45)"><path d="M31.4 4.5a9 9 0 0 0-12.7 0L4.6 18.7a9 9 0 0 0 0 12.7 9 9 0 0 0 12.7 0l14.1-14.1a9 9 0 0 0 0-12.8" fill="#d99e82"/><path d="M29.3 15.1C32.8 11.6 34 7 31.8 4.8c-2.1-2-6.7-1-10.2 2.5L7.4 21.5C4 25 2.8 29.5 5 31.7c2.2 2.1 6.8 1 10.3-2.5l14.1-14.1z" fill="#f7bba6"/><path d="M33.2 7c1.4-1.4 1.6-3.5.4-4.7-1.2-1.1-3.3-1-4.7.5L2.7 29c-1.4 1.4-1.6 3.5-.4 4.7 1.2 1.1 3.3 1 4.7-.5L33.2 7z" fill="#dd2e44"/><path d="M5.3 32.1c2.2-2.2.8-3.6 3-5.9 2.3-2.2 3.7-.8 6-3 2.1-2.3.7-3.7 3-6 2.2-2.2 3.6-.8 5.9-3 2.2-2.2.8-3.6 3-5.9 2.3-2.2 3.7-.8 6-3" fill="none" stroke="#ffcc4d" stroke-width="2" stroke-linecap="round" stroke-miterlimit="10"/></g></svg>