<svg xmlns="http://www.w3.org/2000/svg" viewBox="0 0 45 45"><defs><clipPath id="a"><path d="M0 36h36V0H0v36z"/></clipPath></defs><g clip-path="url(#a)" transform="matrix(1.25 0 0 -1.25 0 45)"><path d="M12 29C5.4 29 0 21.8 0 13h6V7h17.1c.6 1.9.9 3.9.9 6 0 8.8-5.4 16-12 16" fill="#ffe8b6"/><path d="M29 15h4.9c-.7 7.9-5.8 14-11.9 14-6.6 0-12-7.2-12-16 0-2.1.3-4.1.9-6H29v8z" fill="#ffe8b6"/><path d="M36 13c0 8.8-5.4 16-12 16s-12-7.2-12-16c0-2.1.3-4.1.9-6H30a6 6 0 0 1 6 6" fill="#ffac33"/><path d="M16 13H6V7h10v6z" fill="#ffac33"/><path d="M0 13a6 6 0 1 0 12 0 6 6 0 0 0-12 0" fill="#ffe8b6"/><path d="M14 29C7.4 29 2 21.8 2 13a4 4 0 0 1 8 0c0 7 3.3 12.9 8 15a9.2 9.2 0 0 1-4 1" fill="#ffac33"/><path d="M5 13a1 1 0 1 0-2 0 1 1 0 0 0 2 0" fill="#d99e82"/><path d="M10 12.8A1.5 1.5 0 0 1 8.5 14l-.5-.1v.1a2 2 0 1 1-4 0c0-.5.2-1 .5-1.4a1.5 1.5 0 0 1-.5-1.1c0-.7.5-1.2 1-1.4a1.5 1.5 0 0 1 1.3-1 4 4 0 0 1 3.7 3.7" fill="#c1694f"/><path d="M9.5 15a1.5 1.5 0 1 1 0-3h.4l.1 1 .1 1.9a1.5 1.5 0 0 1-.6.1" fill="#d99e82"/><path d="M8 16c0-.6-.7-1-1.5-1S5 15.4 5 16s.7 1 1.5 1S8 16.6 8 16" fill="#ffcc4d"/><path d="M8 15a1 1 0 1 0-2 0 1 1 0 0 0 2 0" fill="#ffcc4d"/><path d="M10 15a1 1 0 1 0-2 0 1 1 0 0 0 2 0" fill="#c1694f"/><path d="M6 14a1 1 0 1 0-2 0 1 1 0 0 0 2 0m2 0a1 1 0 1 0-2 0 1 1 0 0 0 2 0" fill="#d99e82"/><path d="M9 16a1 1 0 1 0-2 0 1 1 0 0 0 2 0" fill="#ffd983"/><path d="M8 18a1 1 0 1 0-2 0 1 1 0 0 0 2 0m-1-2a1 1 0 1 0-2 0 1 1 0 0 0 2 0" fill="#ffe8b6"/><path d="M10 18a1 1 0 1 0-2 0 1 1 0 0 0 2 0" fill="#ffd983"/><path d="M10 16a1 1 0 1 0-2 0 1 1 0 0 0 2 0" fill="#ffd983"/><path d="M10 17a1 1 0 1 0-2 0 1 1 0 0 0 2 0" fill="#ffd983"/><path d="M10 17a1 1 0 1 0-2 0 1 1 0 0 0 2 0" fill="#ffe8b6"/><path d="M10.6 23.6a1.5 1.5 0 0 1-2.6-.8l-.7.2c-.7 0-1.3-.4-1.3-1 0-.2 0-.4.2-.5A.8.8 0 0 1 6 21a1 1 0 0 1-1-1c0-.2 0-.4.2-.5A.8.8 0 0 1 5 19c0-.6.7-1 1.5-1 .4 0 .8.1 1 .3a1.5 1.5 0 0 1 1.6-.2 1.5 1.5 0 0 1 1.3-1c.5 2.5 1.4 4.7 2.7 6.6a2.5 2.5 0 0 1-1.1.3c-.6 0-1-.2-1.4-.5" fill="#77b255"/><path d="M9 21a1 1 0 1 0-2 0 1 1 0 0 0 2 0m1 1.5a.5.5 0 1 0-1 0 .5.5 0 0 0 1 0m-3-3a.5.5 0 1 0-1 0 .5.5 0 0 0 1 0m3 0a.5.5 0 1 0-1 0 .5.5 0 0 0 1 0" fill="#a6d388"/><path d="M11 21a1 1 0 1 0-2 0 1 1 0 0 0 2 0" fill="#a6d388"/><path d="M10 24a1 1 0 1 0-2 0 1 1 0 0 0 2 0" fill="#dd2e44"/><path d="M12 24a1 1 0 1 0-2 0 1 1 0 0 0 2 0m1 2a1 1 0 1 0-2 0 1 1 0 0 0 2 0m-3-4a1 1 0 1 0-2 0 1 1 0 0 0 2 0" fill="#ffd983"/><path d="M15 27a1 1 0 0 1-1-1v-.1l-.5.1a1.5 1.5 0 0 1-1.5-1.5c0-.6.3-1 .8-1.3a13.8 13.8 0 0 0 3 3.4 1 1 0 0 1-.8.4" fill="#a6d388"/><path d="M13 25a1 1 0 1 0-2 0 1 1 0 0 0 2 0m2 2a1 1 0 1 0-2 0 1 1 0 0 0 2 0" fill="#dd2e44"/><path d="M18 11a1 1 0 1 0-2 0 1 1 0 0 0 2 0m-4-3a1 1 0 1 0-2 0 1 1 0 0 0 2 0m6 0a1 1 0 1 0-2 0 1 1 0 0 0 2 0m3 1a1 1 0 1 0-2 0 1 1 0 1 0 2 0m4 0a1 1 0 1 0-2 0 1 1 0 1 0 2 0m3-1a1 1 0 1 0-2 0 1 1 0 1 0 2 0m2 2a1 1 0 1 0-2 0 1 1 0 1 0 2 0m-10 4a1 1 0 1 0-2 0 1 1 0 0 0 2 0m-6 0a1 1 0 1 0-2 0 1 1 0 0 0 2 0m19-2a1 1 0 1 0-2 0 1 1 0 1 0 2 0m-17 6a1 1 0 1 0-2 0 1 1 0 0 0 2 0m5 2a1 1 0 1 0-2 0 1 1 0 0 0 2 0m-3 4a1 1 0 1 0-2 0 1 1 0 0 0 2 0m8-1a1 1 0 1 0-2 0 1 1 0 0 0 2 0m-3 3a1 1 0 1 0-2 0 1 1 0 0 0 2 0m7-9a1 1 0 1 0-2 0 1 1 0 1 0 2 0m-5 0a1 1 0 1 0-2 0 1 1 0 1 0 2 0m-2-4a1 1 0 1 0-2 0 1 1 0 1 0 2 0m5 1a1 1 0 1 0-2 0 1 1 0 1 0 2 0" fill="#f4900c"/></g></svg>