<svg xmlns="http://www.w3.org/2000/svg" viewBox="0 0 45 45"><defs><clipPath id="a"><path d="M0 36h36V0H0v36z"/></clipPath><clipPath id="b"><path d="M21 36c-9.4 0-13.6-2.2-14.8-4-.9-1.5-.6-4.7 2.5-9 2.7-3.6 5.4-4.5 6-8.6 1-5.3-2.6-11-2.6-11s-.9-3 2.7-1.4c4.4 2 9.3 7.5 13.7 16 2.7 5 3.3 12.4 2.2 14.6C29.8 34.4 27 36 21 36z"/></clipPath><clipPath id="c"><path d="M3.1 42.8H33V29.6H3v13z"/></clipPath><clipPath id="d"><path d="M0 36h36V0H0v36z"/></clipPath></defs><g clip-path="url(#a)" transform="matrix(1.25 0 0 -1.25 0 45)"><path d="M12.1 3.3s3.6 5.8 2.7 11.1c-.7 4.1-3.4 5-6 8.6-3.2 4.3-3.5 7.5-2.6 9 1.2 1.8 5.4 4 14.8 4 6 0 8.8-1.6 9.7-3.4 1.1-2.2.5-9.6-2.2-14.7C24.1 9.6 19.2 4 14.7 2c-3.5-1.6-2.6 1.3-2.6 1.3" fill="#8899a6"/></g><g clip-path="url(#b)" transform="matrix(1.25 0 0 -1.25 0 45)"><g clip-path="url(#c)" opacity=".2"><path d="M33 33.6s-1-1-3.3.2c-3.3 1.8-11.3 2.1-17.5.3-5.2-1.6-1.8-4.2 8.8-2.7 2.6.4 2.5 1.7-3.3 1.5l8.4.5-2.4-3.3L7 29.7l-3.9 2 25.1 11 4.8-9z" fill="#66757f"/></g><path d="M13.8 27.9c-5.3 0-8.4.9-9.4 2.6a2.6 2.6 0 0 0 0 2.6 1 1 0 0 0 1.7-1 .6.6 0 0 1 0-.6c.4-.5 2-2 11-1.5 4.5.2 7.8 1.3 7.7 2 0 .8-2.7 1.2-7.8.8-1.5-.1-3.9-.3-4 .2 0 .6 2.2.9 3.8 1 5.6.7 8.9.4 9.8-1a1.7 1.7 0 0 0 .1-1.7c-.8-1.7-4.7-3-9.6-3.3a62.5 62.5 0 0 0-3.3-.1m1.5-7.7c-7.4 0-9.5 3.4-9.6 3.6a1 1 0 0 0 1.8 1c0-.1 2.8-4.3 13.7-2.2.6.1 3 .8 3.2.2.1-.6-1.7-1.3-2.3-1.5a24.7 24.7 0 0 0-6.8-1.1" fill="#66757f"/><path d="M13.4 25c0 .6 2 .7 2.7.8 10.8 1 13.3 3.5 14.3 5a2.9 2.9 0 0 1 .4 2.5 1 1 0 0 0 .5 1.3 1 1 0 0 0 1.3-.5c0-.1.9-2-.5-4.3-2-3.3-7-5-16-5.4 0 0-2.6-.3-2.7.6m5.4-12c-6.3 0-6.8 3.1-6.9 3.5a1 1 0 0 0 1 1.1 1 1 0 0 0 1-.8c0-.1.7-2.2 7.4-2.2.6 0 2.1.2 2.2-.3 0-.6-1.2-1-2-1.1a25 25 0 0 0-2.7-.2m-.4 5.2c0 .6 1.7.7 2.2.7 8 .7 10.1 4.8 10.2 5a1 1 0 0 0 1.4.4 1 1 0 0 0 .4-1.3c-.2-.3-3-5.2-12-5.6 0 0-2.3-.1-2.2.8M17.1 5.9c-1.6 0-2.8.4-3.6 1.3-1.2 1.4-1 3-1 3.2a1 1 0 0 0 1 .9 1 1 0 0 0 1-1.1s-.1-1 .5-1.7a2.9 2.9 0 0 1 2.2-1.1c1.2-.1 1.6-.2 1.7-.6 0-.8-1.3-1-1.8-.9m2.6 3.5h-1c-.5 0-1.7.4-1.7.9 0 .6 1.3.6 1.9.6 6.1.5 7.7 3.3 7.8 3.4a1 1 0 0 0 1.3.5 1 1 0 0 0 .5-1.4c-.1-.1-2.1-4-8.8-4" fill="#66757f"/></g><g clip-path="url(#d)" transform="matrix(1.25 0 0 -1.25 0 45)"><path d="M28.6 0v.3c0 1-.6 1.8-1.5 2a3.9 3.9 0 0 1-3.8 3.5A3.9 3.9 0 0 1 20 3.9a2.9 2.9 0 0 1-1.6.5A2.9 2.9 0 0 1 16 2.8a2.9 2.9 0 0 1-2.1 1 2.8 2.8 0 0 1-.8-.2 2.7 2.7 0 0 1-1.2.5A4.1 4.1 0 0 1 4 3.5h-.3A2.5 2.5 0 0 1 1.2 1c0-.3 0-.7.2-1h27.2z" fill="#ccd6dd"/></g></svg>