<svg xmlns="http://www.w3.org/2000/svg" viewBox="0 0 45 45"><defs><clipPath id="a"><path d="M0 36h36V0H0v36z"/></clipPath></defs><g clip-path="url(#a)" transform="matrix(1.25 0 0 -1.25 0 45)"><path d="M26.3 22.5l-.2.2-9.2 9.1c2.9-3.3 2.2-7.8-1.6-10.3A11 11 0 0 0 3 22l5.3-5.3 2.4-2.5a6.5 6.5 0 0 1 4.6-1.7c1 0 1.8.4 1.8 1 0 .4.2.7.5 1 1 .7 3.6.7 5.1.4a3.4 3.4 0 0 1 1.4 0 4.7 4.7 0 0 1 3 2.6c.7 1.3.9 2.8.5 3.7l-1.2 1.3z" fill="#ffcc4d"/><path d="M19 18.5c-.4.4-1.1.5-1.6.3-.5-.3-.6-.9-.2-1.2a1.5 1.5 0 0 1 1.6-.3c.5.3.6.8.2 1.2" fill="#ffac33"/><path d="M24.5 19.7c-.4.4-1 .3-1.2-.3a1.6 1.6 0 0 1 .3-1.6c.4-.4.9-.3 1.1.2a1.6 1.6 0 0 1-.2 1.7" fill="#d99e82"/><path d="M21.9 24.1c-.3-.5-.8-.6-1.2-.2a1.5 1.5 0 0 0-.2 1.6c.3.5.8.6 1.2.2.4-.4.5-1.1.2-1.6" fill="#ffac33"/><path d="M12.8 15c-.6-.3-1.4-.1-1.8.3-.4.4-.2.8.3 1 .6.2 1.4 0 1.8-.3.4-.4.2-.9-.3-1" fill="#d99e82"/><path d="M24 15a3.4 3.4 0 0 0-1.4 0c-1.5.2-4 .1-5.1-.6l13-13a8.4 8.4 0 0 1 4 3L24 15zm9.9 0l-3.5 3.5c-1 2 .7 3.4 0 4-.6.8-2.7 0-4.1 0l1.2-1.2c.4-1 .2-2.5-.5-3.7l9-9a8.5 8.5 0 0 1-2.1 6.3" fill="#bdbdbd"/><path d="M15.2 12.5c-1.4 0-3.3.5-4.6 1.7L9 16c-.2-.5 0-1.4.3-1.8.7-.7-.7-3.5 2.1-4.9 2-1 4.3 0 5.7-1.4l4.9-5a8.9 8.9 0 0 1 4.9-2L15.2 12.5z" fill="#808285"/><path d="M17.5 14.4a1 1 0 0 1-.5-.9c0-.6-.8-1-1.8-1L26.8 1c2.2-.2 3.6.5 3.7.5l-13 13z" fill="#a6a6a6"/><path d="M27 17.6a4.7 4.7 0 0 0-3-2.7L34.5 4.6c1.3 1.9 1.5 4 1.5 4.1l-9 9z" fill="#d8d8d8"/><path d="M3.1 28.6l.5.8c.6.7 1.5 1.3 2.6 1.3.7 0 1.5 0 2.5-.6l7-.1a6 6 0 0 1-.9 1.2 8.3 8.3 0 0 1-10 .9 5.5 5.5 0 0 1-2.5-3.7c.2.2.6.3.9.2M3 26.2h-.1a1 1 0 0 0-.2.5 1 1 0 0 0-.4.2 4.8 4.8 0 0 0 0 1.5 5 5 0 0 1 .6-3.3v1" fill="#ffac33"/><path d="M15.7 30c1.5-2.4.8-5.3-1.8-7a8.1 8.1 0 0 0-10 .8 6 6 0 0 0-1 1.3 5 5 0 0 0-.6 3.3A5.5 5.5 0 0 0 4.8 32c3 2 7.5 1.6 10-1a6 6 0 0 0 1-1.1m1.1 1.8l-.4.5a10.8 10.8 0 0 1-13.1 1.2 6.8 6.8 0 0 1-1.2-10.7 9.4 9.4 0 0 1 .7-.7 11 11 0 0 1 12.4-.5c3.8 2.5 4.5 7 1.6 10.3" fill="#ffe8b6"/><path d="M14 23c2.5 1.7 3.2 4.6 1.8 7H8.6a4.4 4.4 0 0 1-2.5.7c-1.1 0-2-.6-2.6-1.3a1.7 1.7 0 0 1-.4-.8 1 1 0 0 1-1-.2 4.8 4.8 0 0 1 0-1.5l.4-.2a1 1 0 0 1 .3-.5 1.5 1.5 0 0 1 0-1c.2-.5.5-1 1-1.4 2.5-2.5 7-3 10-.9" fill="#c1694f"/><path d="M8.7 29.9l7.3-.3a4.7 4.7 0 0 1-.5.8 8.4 8.4 0 0 1-9.3.3 6 6 0 0 0 2.5-.8" fill="#f4900c"/><path d="M6.4 27A1 1 0 1 0 5 28.2 1 1 0 0 0 6.4 27m1.8-2.4a1.5 1.5 0 1 0-2.1 2 1.5 1.5 0 0 0 2-2m2.5-.4a1 1 0 1 0-1.4 1.4 1 1 0 0 0 1.4-1.4m-6 3.9a.5.5 0 1 0-.6.7.5.5 0 1 0 .7-.7m3.8-6a1 1 0 1 0-1.4 1.4A1 1 0 0 0 8.5 22" fill="#d99e82"/><path d="M7.5 29.4a1.5 1.5 0 1 0-2.1 2 1.5 1.5 0 0 0 2-2" fill="#ffd983"/><path d="M10.6 22.7a1 1 0 1 1-1.6-1 8.7 8.7 0 0 1 1.9 0 1 1 0 0 1-.3 1" fill="#d99e82"/><path d="M16.3 28.3a1 1 0 0 1-1.4 0 1 1 0 0 1-.3-.4 1 1 0 0 1-.4-.3 1 1 0 0 1 0 1.4 1 1 0 0 1 0 1.4 1 1 0 0 1-1.4 0 1 1 0 0 1-.5.3 1 1 0 0 1-.3.4 1 1 0 0 1-.8.3c0 .4-.2.8-.6 1.1a2 2 0 0 1-2.8 0 2 2 0 0 1 0-2.8 2 2 0 0 1 2-.5l.1-.2a1 1 0 0 1 0-1.4 1 1 0 0 1 .9-.3 1.4 1.4 0 0 1 .3-.5 1.4 1.4 0 0 1 1.4-.3 1 1 0 0 1 .2-.3 1 1 0 0 1 1.5-1.4 1 1 0 0 1 .2-.2 1 1 0 0 1 1.2 1.6 1 1 0 0 1 .2.3v.1a1 1 0 0 1 .5 1.7" fill="#77b255"/><path d="M15.2 27.3a.5.5 0 1 0-.7.7.5.5 0 1 0 .7-.7" fill="#a6d388"/><path d="M13.4 22.7A1 1 0 1 0 12 24a1 1 0 0 0 1.4-1.4m-1 4a1.5 1.5 0 0 1-1.8.2 1.5 1.5 0 0 1-.8.8 1.5 1.5 0 0 1-.2 1.8A1.5 1.5 0 1 1 7.9 27a1.5 1.5 0 0 1 .3-1.9A1.5 1.5 0 0 1 10 25a1.5 1.5 0 1 1 2.4 1.7" fill="#ffd983"/><path d="M11.3 24.8a1.3 1.3 0 1 0-1.7 1.8 1.3 1.3 0 0 0 1.7-1.8m-1.7 2.5a.8.8 0 1 0-1 1 .8.8 0 0 0 1-1m-1.4 1.4a.8.8 0 1 0-1 1 .8.8 0 0 0 1-1" fill="#ffe8b6"/><path d="M8.9 30.8a.5.5 0 1 0-.7.7.5.5 0 1 0 .7-.7" fill="#a6d388"/><path d="M15.6 29a1 1 0 1 0-1.4 1.4 1 1 0 0 0 1.4-1.4" fill="#77b255"/><path d="M14.9 27a1 1 0 1 0-1.5 1.3A1 1 0 0 0 15 27" fill="#a6d388"/><path d="M13.1 30a1.5 1.5 0 0 1-.8.5 1 1 0 0 1-1.7.6 1 1 0 1 1 0-1.4h.1A1.5 1.5 0 0 1 11 28a1.5 1.5 0 1 1 2 2" fill="#a6d388"/><path d="M11 31.5a.8.8 0 1 0-1 1 .8.8 0 0 0 1-1m4.2-2.8a.8.8 0 1 0-1 1 .8.8 0 0 0 1-1m-.3-3.2a1 1 0 1 0-1.4 1.4 1 1 0 0 0 1.4-1.4" fill="#dd2e44"/><path d="M13.4 32.5a1 1 0 0 1-1.4-1.4 1 1 0 1 1 1.4 0 1 1 0 0 1 0 1.4" fill="#77b255"/><path d="M12.8 29a1 1 0 1 0-1.5 1.4 1 1 0 0 0 1.4-1.4m1.1 2.5a.5.5 0 1 0-.7.7.5.5 0 1 0 .7-.7" fill="#dd2e44"/></g></svg>