<svg xmlns="http://www.w3.org/2000/svg" viewBox="0 0 45 45"><defs><clipPath id="a"><path d="M0 36h36V0H0v36z"/></clipPath></defs><g clip-path="url(#a)" transform="matrix(1.25 0 0 -1.25 0 45)"><path d="M33 15.8a3.2 3.2 0 0 0-3.2-3.3 3.2 3.2 0 0 0-3.2 3.2 3.2 3.2 0 0 0 3.2 3.3c1.8 0 3.2-1.5 3.2-3.2" fill="#bbddf5"/><path d="M35.8 13.4a2.8 2.8 0 1 0-5.5 0 2.8 2.8 0 0 0 5.5 0" fill="#bbddf5"/><path d="M34.6 9a3.2 3.2 0 1 0-6.4 0 3.2 3.2 0 0 0 6.4 0" fill="#bbddf5"/><path d="M30.3 8.7c0-.9-1-1.6-2.3-1.6-1.2 0-2.2.7-2.2 1.6 0 .9 1 1.6 2.2 1.6 1.3 0 2.3-.7 2.3-1.6M29 14.5s-3-1-5.8-.5c2.5-1.9 6.9-1 6.9-1l-1 1.5z" fill="#bbddf5"/><path d="M29.2 12.7s-3-.6-7-.2c1.2-1.2 6.5-1.3 7.4-1 1 .3-.4 1.2-.4 1.2m.7-4s-2.4 1-6.7 2c3 .8 7.4-.2 7.9-1 .4-.6-1.2-1-1.2-1" fill="#bbddf5"/><path d="M32.5 11.7c0-2.3-1-4.1-2.3-4.1S28 9.4 28 11.7s1 4.1 2.2 4.1 2.3-1.8 2.3-4.1" fill="#bbddf5"/><path d="M1.9 27.9s2.8-2 5.4-.2c4.2 3 8.7 3.2 11.1 1.9 2.7-1.5 4.6-5 3.1-7.6-1.8-3.2-.5-4 .6-4.6 1.2-.5-.3-1.8-1-2-.7-.2.3-1.5 1-1.5-.2-1-.6-1.4-1-1.5.6-.4.9-1.5.5-1.6-.8-.2-1.5-.5-1.8-1.2-1.7-3.8-3.5 1.5-8-1.2-4.9-3-9.8 2.4-7.3 6.4-3.3.6-4 4.1-1.8 6-2.5 1.4-3.2 5.6-.8 7" fill="#ccd6dd"/><path d="M1.6 19.4s-1.5-3.7 3-4.6c3.4-.7 5.6 1.9 5.6 1.9s-2.8-1.9-5.8-.7-2.8 3.4-2.8 3.4m.3 8.5S0 27 .2 24.4C.4 21.8 2.4 20 4.7 21 1 21.5-.5 25.5 2 28" fill="#99aab5"/><path d="M4.5 14.8s-1.8-2.2 0-5.2 5-2.2 5.8-1.9c-5-.8-6.7 5.2-4.5 7 2.2 1.6-1.3 0-1.3 0m17.6-.8s-.4-.9-1.6-1c-.6 0 0-.6.6-.5.4 0 .8.4 1 1.5m-.4-3c.1 0-.6.5-1.2.2-.6-.2-.7-2-1.4-2.6 1 1.1.8 1.6 1.7 2l.9.3m.8 6s0-1-1.6-1.5-1 .5 0 .6c1.4 0 1.6 1 1.6 1m-2.3 1.6s0 .8-.2 1.3c-.1.4 0-.6-1-1-.9-.5-2-.5-2-.5s2-.9 3.2.2M22 24s.3-3.6-3.7-3.8c-4-.1-7.4 3.8-7.4 3.8s3.7-3.3 7.5-3c3.8.3 3.6 3 3.6 3" fill="#99aab5"/><path d="M16.8 20.8s-1.4-2.5-5.5-2.6c-4.1 0-4.5 3.6-4.5 3.6s1-3.4 5.3-2.9c2.9.4 3.7 2.1 3.7 2.1l1-.3z" fill="#99aab5"/></g></svg>