<svg xmlns="http://www.w3.org/2000/svg" viewBox="0 0 45 45"><defs><clipPath id="a"><path d="M0 36h36V0H0v36z"/></clipPath></defs><g clip-path="url(#a)" transform="matrix(1.25 0 0 -1.25 0 45)"><path d="M30 32a4 4 0 0 1-4-4v-9.1c0-1.1-.9-2-2-2.5V30a6 6 0 0 1-12 0V12.4c-1.1.4-2 1.3-2 2.5V20a4 4 0 0 1-8 0v-7c0-2.2 1.8-3.9 3.4-4.8C6.6 7.5 10 6.6 12 6.5V3C12-.3 24-.3 24 3v7.5c2 .2 5.3 1 6.5 1.7 1.6 1 3.5 2.6 3.5 4.8v11a4 4 0 0 1-4 4" fill="#77b255"/><path d="M13 30a1 1 0 1 0-2 0 1 1 0 0 0 2 0m11 3a1 1 0 1 0-2 0 1 1 0 0 0 2 0m-2-6a1 1 0 1 0-2 0 1 1 0 0 0 2 0m-7-7a1 1 0 1 0-2 0 1 1 0 0 0 2 0m6-4a1 1 0 1 0-2 0 1 1 0 1 0 2 0m-7-6a1 1 0 1 0-2 0 1 1 0 1 0 2 0M6 9a1 1 0 1 0-2 0 1 1 0 1 0 2 0m4 7a1 1 0 1 0-2 0 1 1 0 1 0 2 0m-7 2a1 1 0 1 0-2 0 1 1 0 1 0 2 0m32 10a1 1 0 1 0-2 0 1 1 0 1 0 2 0m-6-3a1 1 0 1 0-2 0 1 1 0 1 0 2 0m4-5a1 1 0 1 0-2 0 1 1 0 1 0 2 0m-3-8a1 1 0 1 0-2 0 1 1 0 1 0 2 0m-7-6a1 1 0 1 0-2 0 1 1 0 1 0 2 0" fill="#3e721d"/></g></svg>