<svg xmlns="http://www.w3.org/2000/svg" viewBox="0 0 45 45"><defs><clipPath id="a"><path d="M0 36h36V0H0v36z"/></clipPath><clipPath id="b"><path d="M8.5 26.8c.9-2.9 2.7-3.9 6.5-5.9 2 3.8 3 5.6 2.1 8.5a8.3 8.3 0 0 1-6.5 5.9 8.3 8.3 0 0 1-2.1-8.5"/></clipPath><clipPath id="c"><path d="M3 22.5a5.8 5.8 0 0 1 .8-6.1c1.4-1.7 2.9-1.8 5.8-2.1.3 3 .5 4.5-.9 6A5.9 5.9 0 0 1 3 22.6"/></clipPath><clipPath id="d"><path d="M14.6 18.4c2.4-3 3.6-4.6 6.3-5a7.5 7.5 0 0 1 7.3 3.3 7.5 7.5 0 0 1-6.3 5 7 7 0 0 1-.8 0c-2.2 0-3.8-1.2-6.5-3.3"/></clipPath><clipPath id="e"><path d="M8.9 9c2.3-2.8 3.5-4.1 6-4.3A7 7 0 0 1 21.7 8a7 7 0 0 1-6 4.2 6.6 6.6 0 0 1-.6 0c-2.2 0-3.6-1.1-6.1-3.3"/></clipPath><clipPath id="f"><path d="M26.8 33.1c-2.4-1-3.2-2.7-4.6-6.2 3.5-1.4 5.2-2 7.6-1a7.3 7.3 0 0 1 4.6 6.1 7 7 0 0 1-4.6 1.7 7.8 7.8 0 0 1-3-.6"/></clipPath><clipPath id="g"><path d="M0 36h36V0H0v36z"/></clipPath></defs><g clip-path="url(#a)" transform="matrix(1.25 0 0 -1.25 0 45)"><path d="M21 13.5c-2.8.3-4 1.9-6.4 4.9 3 2.4 4.6 3.6 7.3 3.2a7.5 7.5 0 0 0 6.3-4.9 7.5 7.5 0 0 0-7.3-3.2m-6-8.8c-2.5.2-3.7 1.5-6 4.3 2.7 2.3 4 3.5 6.6 3.3A7 7 0 0 0 21.6 8 7 7 0 0 0 15 4.7M8.7 20.4c1.4-1.6 1.2-3.1 1-6-3 .2-4.5.3-5.9 2a5.8 5.8 0 0 0-.9 6 5.8 5.8 0 0 0 5.8-2m21.1 5.5c-2.4-1-4.1-.4-7.5 1 1.3 3.5 2 5.2 4.5 6.3a7.3 7.3 0 0 0 7.6-1.2 7.3 7.3 0 0 0-4.5-6.2M17 29.4c.9-2.9-.1-4.7-2.1-8.5-3.8 2-5.6 3-6.5 5.9a8.3 8.3 0 0 0 2.1 8.5c3.3-.6 5.6-3 6.5-6" fill="#77b255"/></g><g clip-path="url(#b)" transform="matrix(1.25 0 0 -1.25 0 45)"><path d="M14.8 21c.1-3-8.9 3.8-9.1 5.7-.3 2-.5 5.7 1 7.4C8 35.8 9 37.4 9.8 36.5a57.2 57.2 0 0 0 5-15.5" fill="#a6d388"/></g><g clip-path="url(#c)" transform="matrix(1.25 0 0 -1.25 0 45)"><path d="M2.3 22.8c1.4-1 6.2-6.3 7.3-8.5 1.2-2.2-3.2-2.3-5.1-.7-2 1.6-4.8 3-4.2 5.2a13.2 13.2 0 0 0 2 4" fill="#a6d388"/></g><g clip-path="url(#d)" transform="matrix(1.25 0 0 -1.25 0 45)"><path d="M15 18.8c2-.2 11.2-1 15-2.8 3.7-1.7 1.8 5.2-1.9 6.4-3.7 1.3-7.4 3.3-10 1.4-2.7-1.8-3-5-3-5" fill="#5c913b"/></g><g clip-path="url(#e)" transform="matrix(1.25 0 0 -1.25 0 45)"><path d="M8.1 9c2.6.3 9 1.3 14.5-1.4s-1 6.8-4.3 7c-3.3.1-4.6 1.7-7-.4A11.8 11.8 0 0 1 8.1 9" fill="#5c913b"/></g><g clip-path="url(#f)" transform="matrix(1.25 0 0 -1.25 0 45)"><path d="M22.3 26.8c1.5 1 10.4 5.6 13.8 5.3 3.4-.3-4.1-9.8-12.2-7.6-2.3.7-1.6 2.3-1.6 2.3" fill="#a6d388"/></g><g clip-path="url(#g)" transform="matrix(1.25 0 0 -1.25 0 45)"><path d="M4.8 1c-.6 0-1.4.8-1.3 1.4C4 5.9 6.3 14.5 21.8 27c.4.4 1 .7 1.3.2.4-.4 0-1-.5-1.3C9.3 14.4 7.1 5.2 6.6 2c0-.7-1.3-1.1-1.8-1" fill="#a06253"/></g></svg>