<svg xmlns="http://www.w3.org/2000/svg" viewBox="0 0 45 45"><defs><clipPath id="a"><path d="M0 36h36V0H0v36z"/></clipPath><clipPath id="b"><path d="M18 28c-2.2 0-3 .2-3-2L14 4c0-2.2 1.8-3 4-3s4 .8 4 3l-1 22c0 1.9-.6 2-2 2h-1"/></clipPath><clipPath id="c"><path d="M0 36h36V0H0v36z"/></clipPath></defs><g clip-path="url(#a)" transform="matrix(1.25 0 0 -1.25 0 45)"><path d="M21 33.5a12.1 12.1 0 0 1-3-2.2 12.2 12.2 0 0 1-3 2.2c-5.6 3.1-9.8.6-9.7-.7.2-1.3 3.7 1.8 7.8-3.5 1.6-2 2.8-3.6 4-4.2.2-.2.5-.3.8-.3h.2l.9.3c1 .6 2.3 2.1 4 4.2 4 5.3 7.5 2.2 7.6 3.5.2 1.3-4 3.8-9.7.7" fill="#3e721d"/><path d="M22 4c0-2.2-1.8-3-4-3s-4 .8-4 3l1 22c0 2.2.8 2 3 2s3 .2 3-2l1-22z" fill="#d99e82"/></g><g clip-path="url(#b)" transform="matrix(1.25 0 0 -1.25 0 45)"><path d="M18 3c-2.9 0-6 .9-6 2.9a1 1 0 0 0 2 0c.2-.3 1.6-.9 4-.9s3.8.7 4 1a1 1 0 0 0 2-.1c0-2-3.1-2.9-6-2.9m0 5c-2.9 0-6 .9-6 2.9a1 1 0 0 0 2 0c.2-.3 1.6-.9 4-.9s3.8.7 4 1a1 1 0 0 0 2-.1c0-2-3.1-2.9-6-2.9m0 5c-2.9 0-6 .9-6 2.9a1 1 0 0 0 2 0c.2-.3 1.6-.9 4-.9s3.8.7 4 1a1 1 0 0 0 2-.1c0-2-3.1-2.9-6-2.9m0 5c-2.9 0-6 .9-6 2.9a1 1 0 0 0 2 0c.2-.2 1.6-.9 4-.9s3.8.7 4 1a1 1 0 0 0 2-.1c0-2-3.1-2.9-6-2.9m0 5c-2.9 0-6 .9-6 2.9a1 1 0 0 0 2 0c.2-.2 1.6-.9 4-.9s3.8.7 4 1a1 1 0 0 0 2-.1c0-2-3.1-2.9-6-2.9" fill="#c1694f"/></g><g clip-path="url(#c)" transform="matrix(1.25 0 0 -1.25 0 45)"><path d="M27 32c-4.5.6-8.2-.9-8.9-3.2H18c-.8 2.2-4.5 3.8-9 3.2-7-1-9-6-8-7s2 4 9 2l-.4-.3c-5.7-4.3-5-9.6-3.7-10 1.4-.4-.1 4.4 7 6 2.2.6 4 1 5.1 1.6a25 25 0 0 1 5.1-1.6c7.1-1.6 5.6-6.4 7-6 1.3.4 2 5.7-3.7 10l-.5.3h.1c7 2 8-3 9-2s-1 6-8 7" fill="#5c913b"/></g></svg>