<svg xmlns="http://www.w3.org/2000/svg" viewBox="0 0 45 45"><defs><clipPath id="a"><path d="M0 36h36V0H0v36z"/></clipPath><clipPath id="b"><path d="M5.4 13.3c-.6-3 0-4.6.8-5.7l.5-.5.4-.4c1.1-.8 3-1.6 6-1C29.6 9 32.2 28 32.2 29.7c0 0-.1 1.7-.8 2.2-.4.6-2 .6-2 .6-1.7 0-20.8-2.5-24.1-19.2"/></clipPath><clipPath id="c"><path d="M0 36h36V0H0v36z"/></clipPath></defs><g clip-path="url(#a)" transform="matrix(1.25 0 0 -1.25 0 45)"><path d="M15.4 35c-1.7-1.7-6.7-8.3-4.2-14.2 2.5-5.8 6-2.2 7.5 2.5.8 2.5.8 5.9-.8 10.8-.9 2.5-2.5.9-2.5.9m19.3-19.3C33 14 26.4 9 20.5 11.5c-5.8 2.5-2.2 6 2.5 7.5 2.5.8 5.9.8 10.8-.8 2.6-.9.9-2.5.9-2.5" fill="#5c913b"/><path d="M32.3 29.7s-.1 1.7-.8 2.2c-.4.6-2 .6-2 .6C28 32.5 8.7 30 5.4 13.3c-.6-3 0-4.6.8-5.7l.5-.5.4-.4c1.1-.8 3-1.6 6-1C29.6 9 32.2 28 32.2 29.7" fill="#f4900c"/></g><g clip-path="url(#b)" transform="matrix(1.25 0 0 -1.25 0 45)"><path d="M24.8 25.6a1.1 1.1 0 0 0-1.7 0l-1.6 1.6a1.1 1.1 0 1 0 1.6 1.6l1.7-1.6a1.1 1.1 0 0 0 0-1.6m-8.1 0a1.1 1.1 0 0 0-1.6 0l-1.7 1.6a1.1 1.1 0 0 0 1.7 1.6l1.6-1.6a1.1 1.1 0 0 0 0-1.6M19 28a1.1 1.1 0 0 0-1.6 0l-1.6 1.6a1.1 1.1 0 1 0 1.6 1.6l1.6-1.6a1.1 1.1 0 0 0 0-1.6m-4.7-5a1.1 1.1 0 0 0-1.7 0L11 24.8a1.1 1.1 0 1 0 1.6 1.6l1.7-1.6a1.1 1.1 0 0 0 0-1.7M27.2 28a1.1 1.1 0 0 0-1.6 0L24 29.6a1.1 1.1 0 1 0 1.6 1.6l1.6-1.6a1.1 1.1 0 0 0 0-1.6m2.4 2.4a1.1 1.1 0 0 0-1.6 0L26.4 32a1.1 1.1 0 0 0 0 1.6 1.1 1.1 0 0 0 1.6 0l1.6-1.6a1.1 1.1 0 0 0 0-1.6M22.3 23a1.1 1.1 0 0 0-1.6 0l-1.6 1.7a1.1 1.1 0 1 0 1.6 1.6l1.6-1.6a1.1 1.1 0 0 0 0-1.7M20 20.7a1.1 1.1 0 0 0-1.6 0l-1.6 1.6a1.1 1.1 0 0 0 1.6 1.7l1.6-1.7a1.1 1.1 0 0 0 0-1.6M15.1 16a1.1 1.1 0 0 0-1.6 0l-1.7 1.6a1.1 1.1 0 1 0 1.7 1.6l1.6-1.6a1.1 1.1 0 0 0 0-1.6m2.4 2.4a1.1 1.1 0 0 0-1.6 0L14.3 20a1.1 1.1 0 0 0 0 1.6c.4.5 1.1.5 1.6 0l1.6-1.6a1.1 1.1 0 0 0 0-1.6" fill="#f7b82d"/></g><g clip-path="url(#c)" transform="matrix(1.25 0 0 -1.25 0 45)"><path d="M27.9 12.4c-7.2 2.4-15.1-.6-19.4-3.6 2.9 4.4 5.9 12.3 3.5 19.5-1 2.8-5.6 5.6-8.4 2.8-1-1-1.8-1.9 0-1.9s4.7-2.8 3.8-5.6c-.9-2.5-7-8.7-4.2-15.4a2.4 2.4 0 0 1-.7-.5L1.7 7a2.4 2.4 0 0 1 0-3.3l.8-.7a2.4 2.4 0 0 1 3.3 0l.7.7.3.4c7-3.9 13.8 2.8 16.4 3.7 2.8.9 5.6-2 5.6-3.8 0-1.9 1-1 1.9 0 2.8 2.8 0 7.5-2.8 8.4" fill="#77b255"/></g></svg>