<svg xmlns="http://www.w3.org/2000/svg" viewBox="0 0 45 45"><defs><clipPath id="a"><path d="M0 36h36V0H0v36z"/></clipPath></defs><g clip-path="url(#a)" transform="matrix(1.25 0 0 -1.25 0 45)"><path d="M34.8 14c-3.4 0-12-3.5-15.8-7.2V19a1 1 0 1 1-2 0V6.7A32.4 32.4 0 0 1 1 14C.2 14 12 0 17 1.4V1a1 1 0 1 1 2 0v.4C24.2.4 35.7 14 34.8 14" fill="#77b255"/><path d="M25 22.6c0-6.4-1.7-9.6-7-9.6s-7 3.2-7 9.6S16 36 18 36s7-7 7-13.4" fill="#ea596e"/><path d="M22.8 34A126 126 0 0 1 18 14.7 133 133 0 0 1 13 34c-1 0-6-9-6-13s5.7-8 11-8 10.8 4 10.8 8-5 13-6 13" fill="#f4abba"/></g></svg>