<svg xmlns="http://www.w3.org/2000/svg" viewBox="0 0 45 45"><defs><clipPath id="a"><path d="M0 36h36V0H0v36z"/></clipPath></defs><g clip-path="url(#a)" transform="matrix(1.25 0 0 -1.25 0 45)"><path d="M19.3 10.6H19v.5c4.8.4 8.6 4.2 8.6 7.3 0 3.2 0-1.5-9.6-1.5s-9.6 4.7-9.6 1.5c0-3 3.8-6.9 8.6-7.3v-.5h-.3c-2.6 0-6.6 2-6.6 1.4 0-.7 4.2-4 6.9-4.8V1a1 1 0 1 1 2 0v6.2c2.7.7 7 4.1 7 4.8 0 .7-4.1-1.4-6.7-1.4" fill="#3e721d"/><path d="M26.5 28.6c-3.9 4.4 1.5 6-2.6 6-.7 0-1.9-.5-3.2-1.3C19.8 35 19 36 18 36c-2 0-3.7-4.3-3.9-8.3a8.7 8.7 0 0 1-1.8-5c0-6 2.6-8.8 6.4-8.8 7.8 0 13.7 8 7.8 14.7" fill="#a0041e"/><path d="M23.7 22.8c0-6.1-2.6-8.9-6.4-8.9-7.8 0-13.7 8-7.8 14.7 3.9 4.5-1.5 6 2.6 6 2.6 0 11.6-5.7 11.6-11.8" fill="#be1931"/></g></svg>