<svg xmlns="http://www.w3.org/2000/svg" viewBox="0 0 45 45"><defs><clipPath id="a"><path d="M0 36h36V0H0v36z"/></clipPath></defs><g clip-path="url(#a)" transform="matrix(1.25 0 0 -1.25 0 45)"><path d="M22 3c0-2.2-1.8-3-4-3s-4 .8-4 3l1 9c0 2.2.8 2 3 2s3 .2 3-2l1-9z" fill="#662113"/><path d="M31.4 8.7c-7 6-9.8 14.5-13.4 14.5-3.6 0-6.4-8.5-13.4-14.5-3-2.5-1.5-4 2.5-3.7 3.6.3 6.9 1.1 10.9 1.1s7.3-.8 11-1c4-.4 5.3 1 2.4 3.6" fill="#5c913b"/><path d="M29.1 11c-5.3 5-8.3 12-11.1 12-2.8 0-5.8-7-11.1-12-4.3-3.8 5.5-4.7 11.1 0 5.6-4.7 15.4-3.8 11.1 0" fill="#3e721d"/><path d="M29.1 15c-5.3 4.6-8.3 11.2-11.1 11.2-2.8 0-5.8-6.6-11.1-11.2-4.3-3.6 5.5-4.4 11.1 0 5.6-4.4 15.4-3.6 11.1 0" fill="#5c913b"/><path d="M26.7 18.3C22.5 21.9 20.2 27 18 27c-2.2 0-4.5-5.1-8.7-8.7-3.3-2.9 4.3-3.5 8.7 0 4.3-3.5 12-2.9 8.7 0" fill="#3e721d"/><path d="M26.7 21.3C22.5 24.8 20.2 30 18 30c-2.2 0-4.5-5.2-8.7-8.7-3.3-2.9 4.3-3.5 8.7 0 4.3-3.5 12-2.9 8.7 0" fill="#5c913b"/><path d="M25 24c-3.4 2.8-5.2 7-7 7-1.8 0-3.6-4.2-7-7-2.7-2.4 3.5-2.9 7 0 3.5-2.9 9.7-2.4 7 0" fill="#3e721d"/><path d="M25 26.2c-3.4 2.9-5.2 7-7 7-1.8 0-3.6-4.2-7-7-2.7-2.3 3.5-2.8 7 0 3.5-2.8 9.7-2.3 7 0" fill="#5c913b"/><path d="M23.3 29.5c-2.5 2.2-4 5.3-5.3 5.3-1.3 0-2.8-3.1-5.3-5.3-2-1.8 2.6-2.2 5.3 0 2.7-2.2 7.4-1.8 5.3 0" fill="#3e721d"/><path d="M23.3 30.7c-2.5 2.2-4 5.3-5.3 5.3-1.3 0-2.8-3.1-5.3-5.3-2-1.8 2.6-2.2 5.3 0 2.7-2.2 7.4-1.8 5.3 0" fill="#5c913b"/></g></svg>