<svg xmlns="http://www.w3.org/2000/svg" viewBox="0 0 45 45"><defs><clipPath id="a"><path d="M0 36h36V0H0v36z"/></clipPath></defs><g clip-path="url(#a)" transform="matrix(1.25 0 0 -1.25 0 45)"><path d="M4 8c5-.5 9.5 1.7 13.5 6 4.8 5.2 5 13 5 14s11.3 3 11-5c-.4-11.2-7.4-21-19.9-21.9-6-.5-9.7 1-11.4 2.4C-.5 5.7 1.5 8.4 4 8" fill="#da2f47"/><path d="M21.3 27.4c.5 1.6 3.3 3.8 7.2 3 4.3-1 6-3 6-6.7 0-3.6-3.6-.4-4 .7-.6 1.1-2.7-2.3-4.5 1.3-.6 1.2-5.5-1-4.7 1.7" fill="#77b255"/><path d="M26.2 34.5c1.2-1.2 3-2.7 2.2-5.3-.8-2.5 1.3-2.5 1.8-1 .6 1.6.7 5-.4 6.4-1.1 1.5-4.4.8-3.6-.1" fill="#77b255"/></g></svg>