<svg xmlns="http://www.w3.org/2000/svg" viewBox="0 0 45 45"><defs><clipPath id="a"><path d="M0 36h36V0H0v36z"/></clipPath></defs><g clip-path="url(#a)" transform="matrix(1.25 0 0 -1.25 0 45)"><path d="M19.6 3.7c6.5-6.5 17.3 7.6 15.7 7.6-7.6 0-22.2-1.1-15.7-7.6" fill="#77b255"/><path d="M15.6 2.6C9.6-3.4 0 9.7 1.4 9.7c3.8 0 9.3.4 12.8-.8 3-1 4.3-3.5 1.5-6.3" fill="#77b255"/><path d="M34.6 20.3c0 .8-.2 2.5-1.4 4.2-1.2 1.5-3.8 3.3-5.5 2.6.5 1.6-.3 4-1.2 5.4a8 8 0 0 1-8.2 3c-1.7-.3-4.1-2-4.6-3.8-1.2 1.5-4.2 1.7-6 1.2A7 7 0 0 1 4 30.5h-.1a7.1 7.1 0 0 1-1.8-4.2c-.2-2.1.7-5.8 3-6h.5C3.3 20 2 16.5 2 14.3a7 7 0 0 1 1.4-4.2A7 7 0 0 1 7 7.2c2-.6 5.6-.6 6.6 1.3-.3-2.3 3-4 5.1-4.5a7.4 7.4 0 0 1 4.6.8c1 .4 2.5 1.2 3.5 3a8.2 8.2 0 0 1 1 5.1l.2-.1c1.8-1.3 4.6 1 5.7 3 1 1.7 1 4.3 1 4.3" fill="#f4abba"/><path d="M27.5 22.5c-1.7 1-4.8.4-6.8-.3a3.9 3.9 0 0 1-1 1.2c1.4 1.6 3.5 4.5 1.5 6.3-2.2 1.9-3.8-2.1-3.6-5.6h-.2c-1 0-2-.4-2.6-1-1.4 2.3-4 4.2-5.4 2.4-1.4-2 1.2-3.2 4.3-4.2a3.9 3.9 0 0 1-.2-1l.2-1.3c-2.5-.8-6.2-2.8-4.2-5 2.2-2.2 4.5 1.3 5.6 3a3.9 3.9 0 0 1 2.3-.6h.6c0-4.8 1.5-7 4-5.9 2.4 1 0 5.3-1.7 7.2.3.4.6.8.7 1.3 7-2.6 8.6 2.3 6.5 3.4" fill="#ea596e"/><path d="M17.7 18.5c-.7 0-.7.6-.8 1.3a28.5 28.5 0 0 1-4.6 9.1 1.5 1.5 0 0 0 2.3 1.9c2.5-3.1 3.3-7.4 4-10.4.2-.8.3-1.6-.5-1.8a1.5 1.5 0 0 0-.4 0" fill="#be1931"/><path d="M15.9 30.7c.5-.7 0-1.9-1-2.6l-.4-.3c-1-.8-2.3-.8-2.8-.1L9 31.5c-.5.7-.1 1.8 1 2.5l.4.4c1 .7 2.2.8 2.7 0l2.8-3.7z" fill="#ffcc4d"/></g></svg>