<svg xmlns="http://www.w3.org/2000/svg" viewBox="0 0 45 45"><defs><clipPath id="a"><path d="M0 36h36V0H0v36z"/></clipPath></defs><g clip-path="url(#a)" transform="matrix(1.25 0 0 -1.25 0 45)"><path d="M22 3c0-2.2-1.8-3-4-3s-4 .8-4 3l1 9c0 2.2.8 2 3 2s3 .2 3-2l1-9z" fill="#662113"/><path d="M34 19c0-8.8-7.2-12-16-12S2 10.2 2 19s9 17 16 17 16-8.2 16-17" fill="#5c913b"/><path d="M8 15c0 .6-.9 1-2 1s-2-.5-2-1 .9-1 2-1 2 .5 2 1m24 0c0 .6-.9 1-2 1s-2-.5-2-1 .9-1 2-1 2 .5 2 1m-20-4c0 .6-.9 1-2 1s-2-.5-2-1 .9-1 2-1 2 .5 2 1m4 3c0 .6-.9 1-2 1s-2-.5-2-1 .9-1 2-1 2 .5 2 1m-4 6c0 .6-.9 1-2 1s-2-.5-2-1 .9-1 2-1 2 .5 2 1m-3 4c0 .6-.9 1-2 1s-2-.5-2-1 .9-1 2-1 2 .5 2 1m22 0c0 .6-.9 1-2 1s-2-.5-2-1 .9-1 2-1 2 .5 2 1m-15 2c0 .6-.9 1-2 1s-2-.5-2-1 .9-1 2-1 2 .5 2 1m8 0c0 .6-.9 1-2 1s-2-.5-2-1 .9-1 2-1 2 .5 2 1m4-6c0 .6-.9 1-2 1s-2-.5-2-1 .9-1 2-1 2 .5 2 1m-8-1c0 .6-.9 1-2 1s-2-.5-2-1 .9-1 2-1 2 .5 2 1m4-5c0 .6-.9 1-2 1s-2-.5-2-1 .9-1 2-1 2 .5 2 1m-4-4c0 .6-.9 1-2 1s-2-.5-2-1 .9-1 2-1 2 .5 2 1m8 1c0 .6-.9 1-2 1s-2-.5-2-1 .9-1 2-1 2 .5 2 1" fill="#3e721d"/></g></svg>