<svg xmlns="http://www.w3.org/2000/svg" viewBox="0 0 45 45"><defs><clipPath id="a"><path d="M0 36h36V0H0v36z"/></clipPath></defs><g clip-path="url(#a)" transform="matrix(1.25 0 0 -1.25 0 45)"><path d="M18 15.7a2 2 0 0 1-.6.7 2 2 0 0 1-.8.3c.2.3.4.5.4.8l.1 1 .9-.3c.3 0 .6 0 .9.2v-1c0-.3.3-.4.5-.7a2.2 2.2 0 0 1-.8-.3 2.2 2.2 0 0 1-.6-.7m13.3-.5c4.2 1.4 5 3.2 4.2 6.4-1-.3-2.1 0-2.3.5-.2.5.6 1.5 1.5 1.8-1.2 3-3 4-7.1 2.7-1.6-.5-3.3-1.5-4.7-2.6.7 1.7 1.1 3.5 1.1 5.2 0 4.4-1.5 5.8-4.8 6 0-1-.7-2-1.2-2s-1.2 1-1.2 2c-3.3-.2-4.8-1.6-4.8-6 0-1.7.4-3.5 1-5.2a15.2 15.2 0 0 1-4.6 2.6C4.2 28 2.4 27 1.2 24c1-.3 1.7-1.3 1.6-1.8-.2-.5-1.3-.8-2.3-.5-.8-3.2 0-5 4.2-6.4a15 15 0 0 1 5.3-.6A15.4 15.4 0 0 1 6 11c-2.4-3.6-2-5.6.5-7.7.6.8 1.7 1.3 2.2 1 .4-.4.4-1.6-.2-2.4C11.2.1 13.2.3 15.8 4A15.1 15.1 0 0 1 18 8.8a15.2 15.2 0 0 1 2.2-4.9C22.8.3 24.8.1 27.6 2c-.6.8-.6 2-.2 2.3.4.4 1.6 0 2.1-.9 2.6 2.1 3 4.1.4 7.7-1 1.3-2.4 2.6-4 3.6a15 15 0 0 1 5.4.6" fill="#f4abba"/><path d="M16.8 17.3a1 1 0 0 0-1.2-.8l-5.8 1.3a1 1 0 1 0 .4 2l5.8-1.3a1 1 0 0 0 .8-1.2m1-.2a1 1 0 0 0 1.2.8l5.8-1.3a1 1 0 1 0-.4-2l-5.9 1.3a1 1 0 0 0-.7 1.2" fill="#fff"/><path d="M17.8 17.1a1 1 0 0 0-1.4.3l-3.2 5a1 1 0 0 0 1.7 1.1l3.2-5a1 1 0 0 0-.3-1.4m.8-1.3a1 1 0 0 0 1.3-.3l3.3-5a1 1 0 1 0-1.7-1.1l-3.2 5a1 1 0 0 0 .3 1.4" fill="#fff"/><path d="M18 18a1 1 0 0 0-.8 1.3l1.3 5.8a1 1 0 1 0 2-.4l-1.3-5.9a1 1 0 0 0-1.2-.7m-.2-1a1 1 0 0 0 .7-1.2L17.2 10a1 1 0 1 0-2 .5l1.4 5.8a1 1 0 0 0 1.2.8" fill="#fff"/><path d="M17.8 17.1a1 1 0 0 0 .3 1.4l5 3.2a1 1 0 1 0 1.1-1.7l-5-3.2a1 1 0 0 0-1.4.3" fill="#fff"/><path d="M17.8 17.1a1 1 0 0 0-.3-1.4l-5.1-3.2a1 1 0 0 0-1 1.7l5 3.2a1 1 0 0 0 1.4-.3" fill="#fff"/><path d="M22 10.4a2 2 0 1 0-.6-2.7 2 2 0 0 0 .6 2.7m-7.4 11.8a2 2 0 1 0-2.2 3.3 2 2 0 0 0 2.1-3.3m2-11A2 2 0 0 0 18 9a2 2 0 1 0-1.5 2.3m3 13.7a2 2 0 1 0 .9 4 2 2 0 0 0-.9-4m-6-10.5a2 2 0 1 0-2.8.6 2 2 0 0 0 2.8-.6m9.3 6a2 2 0 1 0 3.4 2 2 2 0 0 0-3.4-2m-11.8-2a2 2 0 1 0-3.9.9 2 2 0 0 0 4-.9" fill="#ea596e"/><path d="M22 17.2a4 4 0 1 0-8 0 4 4 0 0 0 8 0" fill="#ffcc4d"/></g></svg>