<svg xmlns="http://www.w3.org/2000/svg" viewBox="0 0 45 45"><defs><clipPath id="a"><path d="M0 36h36V0H0v36z"/></clipPath><clipPath id="b"><path d="M11.6 34.3L10 31l-3-1.3a2.6 2.6 0 0 1-1.5-3.4L6.7 23l-1.3-3.2a2.4 2.4 0 0 1 1.3-3.2l3.2-1.4 1.3-3.3a2.7 2.7 0 0 1 1.4-1.5 2.7 2.7 0 0 1 2 0l3.3 1.4 3.3-1.5a2.4 2.4 0 0 1 3.2 1.3l1.4 3.2 3.3 1.3a2.6 2.6 0 0 1 1.5 3.4l-1.4 3.3 1.5 3.4a2.4 2.4 0 0 1-1.3 3.2L26 30.8l-1.2 3.3a2.7 2.7 0 0 1-1.4 1.5 2.7 2.7 0 0 1-2 0L18 34.3l-3.3 1.4a2.7 2.7 0 0 1-1 .2c-1 0-1.8-.6-2.2-1.6"/></clipPath><clipPath id="c"><path d="M0 36h36V0H0v36z"/></clipPath></defs><g clip-path="url(#a)" transform="matrix(1.25 0 0 -1.25 0 45)"><path d="M29 8.6c-2.6.9-8.2.4-10-1.4V19a1 1 0 1 1-2 0V7.2C15.2 9 9.6 9.5 7 8.6c-.7-.3 5.3-8.8 9.6-4.5l.4.4V1a1 1 0 0 1 2 0v3.5l.4-.4C23.7-.3 29.7 8.3 29 8.6" fill="#77b255"/><path d="M12.6 10.3c-.7.3-1.1.9-1.4 1.6l-1.3 3.3-3.2 1.4a2.4 2.4 0 0 0-1.3 3.2L6.7 23l-1.4 3.3a2.6 2.6 0 0 0 1.5 3.4l3.3 1.3 1.5 3.3a2.4 2.4 0 0 0 3.2 1.3l3.3-1.4 3.3 1.4c.6.3 1.4.3 2 0a2.7 2.7 0 0 0 1.4-1.5l1.2-3.3 3.3-1.4a2.4 2.4 0 0 0 1.4-3.2l-1.5-3.4 1.4-3.3a2.6 2.6 0 0 0-1.5-3.4l-3.3-1.3-1.4-3.2a2.4 2.4 0 0 0-3.2-1.3l-3.3 1.5-3.3-1.4a2.7 2.7 0 0 0-2 0" fill="#ccd6dd"/></g><g clip-path="url(#b)" transform="matrix(1.25 0 0 -1.25 0 45)"><path d="M18 35.7V27l-3-1-5.8 6-1 3.8 5.6 1 4.2-1zM6.2 23h7.9l1-2L8 13l-5 3.4s0 5.7.2 5.6c.2-.1 3 1 3 1M18 18.1v-7.8s4.8-2.5 5-2.4c.3 0 4.5 3.1 4.6 3.3.2 0 .7 1.4.7 1.4L19 20.8l-.9-2.7zm8.7 13.5l-6-5s.2-3.1.4-3.2l9.7-1 2.4 7.5a52.1 52.1 0 0 0-4.7 1.6l-1.8.1" fill="#e1e8ed"/></g><g clip-path="url(#c)" transform="matrix(1.25 0 0 -1.25 0 45)"><path d="M23 23a5 5 0 1 0-10 0 5 5 0 0 0 10 0" fill="#f4900c"/></g></svg>