<svg xmlns="http://www.w3.org/2000/svg" viewBox="0 0 45 45"><defs><clipPath id="a"><path d="M0 36h36V0H0v36z"/></clipPath></defs><g clip-path="url(#a)" transform="matrix(1.25 0 0 -1.25 0 45)"><path d="M21.4 35.4c-1.9 0-4.2-1.9-6.2-4.8-2.3-3.5-1.1-6 0-8a1 1 0 0 1 1.6-.2 225 225 0 0 0 6.9 8.9 1 1 0 0 1 .3.7c0 2.5-1.3 3.4-2.6 3.4m2.4-9c-1.2 0-2.6-1.1-4.6-3.8-2.1-2.8-2.5-5.3-1.1-8a1 1 0 0 1 1.7-.2c1.7 2 5.1 6.1 6 6.9a1 1 0 0 1 .2.7c0 1 0 4.4-2.2 4.4" fill="#ffcc4d"/><path d="M29.9 24.5a1 1 0 0 1-1.4.4A49.3 49.3 0 0 1 12.2 5.3a45 45 0 0 0 13.5 28 1 1 0 1 1-1.4 1.4c-8-8-12.8-17.7-14-27.9-.7 5.7-1 14 1.6 19.8a1 1 0 1 1-1.8.8c-1.3-3-2-6.5-2.2-10C7 19.3 6 21 4.5 21c-1 0-1.8-.5-2.4-1.7-.2-.5 0-1 .4-1.2a1 1 0 0 1 1.4.5c.3.6.5.7.5.7.6-.1 1.8-2.6 2.2-3.6l.5-1.1a1 1 0 0 1 .7-.6c0-5 .7-9.5 1.2-12v-.2a1 1 0 0 1 1.2-.8 1 1 0 0 1 .3.1A1 1 0 0 1 11 1a1 1 0 0 1 .5.1A1 1 0 0 1 12 1c.5 0 1 .4 1 1 0 1 2.5 6 6.1 11a1 1 0 0 1 .3.1l.9.4c.9.6 2.4 1.4 3 1 .2 0 .7-.5.7-2.5a1 1 0 1 1 2 0c0 2.2-.5 3.6-1.6 4.3-.8.4-1.7.4-2.6.1 2.4 2.8 5 5.2 7.7 6.7a1 1 0 0 1 .4 1.4" fill="#77b255"/></g></svg>