<svg xmlns="http://www.w3.org/2000/svg" viewBox="0 0 45 45"><defs><clipPath id="a"><path d="M0 36h36V0H0v36z"/></clipPath></defs><g clip-path="url(#a)" transform="matrix(1.25 0 0 -1.25 0 45)"><path d="M36 15c0 .8-2.9.6-3.1 1-.3.6 3.2 4.7 2.7 5.6-.5.9-5.1-1.2-5.4-.7-.3.4.3 3.5-.2 3.9s-5.3-5-6-4.4c-.6.7 1.6 10.6 1.2 10.8-.5.1-3.5-1.4-3.8-1.3-.4 0-2.7 6.1-3.4 6.1-.7 0-3-6-3.4-6.1-.3-.1-3.3 1.5-3.8 1.3-.4-.2 1.8-10.1 1.1-10.7-.6-.7-5.4 4.6-5.9 4.3s0-3.5-.2-4c-.3-.4-4.9 1.7-5.4.8-.5-1 3-5 2.7-5.5-.2-.5-3.1-.3-3.1-1s8.4-5.2 9-5.8c.6-.5-3-2.8-2.4-3.2.6-.5 3.8.8 10.4 1V1a1 1 0 1 1 2 0v6c6.6 0 9.8-1.4 10.4-1 .5.5-3 2.8-2.4 3.3.6.5 9 5.1 9 5.8" fill="#dd2e44"/></g></svg>