<svg xmlns="http://www.w3.org/2000/svg" viewBox="0 0 45 45"><defs><clipPath id="a"><path d="M0 36h36V0H0v36z"/></clipPath></defs><g clip-path="url(#a)" transform="matrix(1.25 0 0 -1.25 0 45)"><path d="M32.5 17.1A23.7 23.7 0 0 1 22.4 21c3.5.6 8 2 10.1 3.8 2 1.8 3 3 2.2 4.7-.6 1.3-2.9 1.4-4.2 2.5-1.3 1.2-1.4 3.2-2.8 3.7-2 .7-3.3 0-5.4-1.9a18.3 18.3 0 0 1-4.3-9c-.7 3.1-2.3 7.2-4.4 9-2 1.8-3.3 2.6-5.3 2-1.4-.6-1.5-2.6-2.8-3.8-1.3-1.1-3.6-1.2-4.2-2.5-.8-1.7.1-2.9 2.1-4.7 2.1-1.8 6.7-3.2 10.2-3.8-3.5-.6-8-2-10.2-3.9-2-1.7-3-2.9-2.1-4.7.6-1.2 2.8-1.3 4.2-2.5 1.3-1.1 1.4-3.1 2.8-3.6 2-.8 3.3 0 5.3 1.8 1.7 1.5 3 4.3 3.8 7-.2-4.5.6-10.6 4-14.3C22.6-.7 23.6.3 24 .6c.4.4 1.6 1.5.2 2.9a18.3 18.3 0 0 0-5.6 11.1c.8-2.5 2.1-5 3.7-6.4 2-1.8 3.3-2.7 5.3-2 1.4.6 1.5 2.6 2.8 3.7 1.3 1.2 3.6 1.3 4.2 2.5.8 1.8-.1 3-2.1 4.8" fill="#77b255"/></g></svg>