<svg xmlns="http://www.w3.org/2000/svg" viewBox="0 0 45 45"><defs><clipPath id="a"><path d="M0 36h36V0H0v36z"/></clipPath></defs><g clip-path="url(#a)" transform="matrix(1.25 0 0 -1.25 0 45)"><path d="M3 16.5a16.5 16.5 0 1 0 33 0 16.5 16.5 0 0 0-33 0" fill="#f4900c"/><path d="M11.4 28.4c-.3.3-.8.2-1.3-.1A21.6 21.6 0 0 1 1 32a1 1 0 1 1-.3-2s5-.8 7.9-3.2c-.3-.5-.4-1-.1-1.2.4-.4 1.3-.1 2.1.7.8.8 1.1 1.7.7 2.1" fill="#662113"/><path d="M21 35s-3.1-4.3-7-5.3c-3-.7-7-.8-7.3.2-.4.9 1.5 3.9 5 5.4C15 36.6 21 35 21 35" fill="#5c913b"/></g></svg>