<svg xmlns="http://www.w3.org/2000/svg" viewBox="0 0 45 45"><defs><clipPath id="a"><path d="M0 36h36V0H0v36z"/></clipPath></defs><g clip-path="url(#a)" transform="matrix(1.25 0 0 -1.25 0 45)"><path d="M24 29c-3 0-3-1-6-1s-3 1-6 1c-4 0-9-2-9-9C3 9 9 0 13 0c3 0 3 1 5 1s2-1 5-1c4 0 10 9 10 20 0 7-5 9-9 9" fill="#77b255"/><path d="M17.3 28.1s-1.8 4.7-6.6 6C7 35.4 4.4 34 4.4 34s3-4 6-4.8c2.8-.8 7-1 7-1" fill="#3e721d"/><path d="M18 26a1 1 0 0 0-1 1c0 3.4 1.2 6.6 3.3 8.7a1 1 0 1 0 1.4-1.4A10.4 10.4 0 0 1 19 27a1 1 0 0 0-1-1" fill="#662113"/></g></svg>