<svg xmlns="http://www.w3.org/2000/svg" viewBox="0 0 45 45"><defs><clipPath id="a"><path d="M0 36h36V0H0v36z"/></clipPath></defs><g clip-path="url(#a)" transform="matrix(1.25 0 0 -1.25 0 45)"><path d="M10 24a1 1 0 0 0-.5.1 20 20 0 0 0-8.4 10.6 1 1 0 1 0 1.9.6 18 18 0 0 1 7.5-9.4A1 1 0 0 0 10 24" fill="#77b255"/><path d="M26 7a7 7 0 1 0-14 0 7 7 0 0 0 14 0" fill="#553788"/><path d="M17 21a7 7 0 1 0-14 0 7 7 0 0 0 14 0" fill="#9266cc"/><path d="M26 24a7 7 0 1 0-14 0 7 7 0 0 0 14 0" fill="#aa8dd8"/><path d="M34 18a7 7 0 1 0-14 0 7 7 0 0 0 14 0m-18-8a7 7 0 1 0-14 0 7 7 0 0 0 14 0" fill="#744eaa"/><path d="M25 15a7 7 0 1 0-14 0 7 7 0 0 0 14 0" fill="#9266cc"/><path d="M36 7a7 7 0 1 0-14 0 7 7 0 0 0 14 0" fill="#9266cc"/></g></svg>