<svg xmlns="http://www.w3.org/2000/svg" viewBox="0 0 45 45"><defs><clipPath id="a"><path d="M0 36h36V0H0v36z"/></clipPath></defs><g clip-path="url(#a)" transform="matrix(1.25 0 0 -1.25 0 45)"><path d="M2.5 29.4A17 17 0 0 1 1 22.5C1 12.8 9 5 19 5a18 18 0 0 1 16.9 11.4l-33.4 13z" fill="#5c913b"/><path d="M4.3 28.7A15.1 15.1 0 0 1 3 22.5c0-8.6 7.2-15.6 16-15.6a16 16 0 0 1 15 10.3L4.3 28.7z" fill="#ffe8b6"/><path d="M6.2 28A13.2 13.2 0 0 1 5 22.5C5 15 11.3 8.9 19 8.9a14 14 0 0 1 13.2 9l-26 10z" fill="#dd2e44"/><path d="M10 21.7c-.4-.4-.8-.7-1-.5-.3.1-.2.6 0 1 .4.5.8.8 1 .6.3-.1.2-.6 0-1m6-1c-.4-.5-.8-.8-1-.6-.3.1-.2.6 0 1 .4.5.8.8 1 .6.3-.1.2-.6 0-1m5-4.8c0-.5-.1-1-.4-1-.3 0-.6.4-.6 1 0 .5.1 1 .4 1 .3 0 .6-.4.6-1m-9 2c0-.5-.1-1-.4-1-.3 0-.6.4-.6 1 0 .5.1 1 .4 1 .3 0 .5-.4.6-1m3.9-5.3c-.3-.5-.8-.7-1-.5-.2.2-.1.6.2 1 .3.5.8.7 1 .6.2-.2.1-.7-.2-1.1m8-.5c.3-.5.3-1 .1-1-.3-.2-.7 0-1 .5-.2.5-.2 1 0 1.2.3.1.7-.2 1-.7m-7 5c.2-.4.3-.9 0-1-.2-.2-.6 0-1 .5-.2.5-.3 1 0 1.1.2.2.6 0 1-.5m8.9-1.6c-.3-.5-.8-.7-1-.5-.2.2-.1.6.2 1 .3.5.8.7 1 .6.2-.2.1-.7-.2-1.1"/></g></svg>