<svg xmlns="http://www.w3.org/2000/svg" viewBox="0 0 45 45"><defs><clipPath id="a"><path d="M0 36h36V0H0v36z"/></clipPath></defs><g clip-path="url(#a)" transform="matrix(1.25 0 0 -1.25 0 45)"><path d="M22.5 30.7l-2-.2-3.6.2C8.4 30.7 1 27.5 1 16.4 1 7.4 8 .1 18 .1s18 7.3 18 16.3c0 11.3-9.4 14.3-13.5 14.3" fill="#dd2e44"/><path d="M8.4 35.9c1.7-1.6 2.8-2.3 3.3-4.9.3-1.6 2.3-1.5 2.3-1.5s-4-1.8-5.6-3.4c0 0 5 1.6 6.6 1.6 0 0 3.3-1.6 3.3-3.3 0 0 0 3.3-1.7 3.3 0 0 5 0 5-3.3 0 0 0 5-1.7 5 0 0 4.9 1.6 6.5 0 0 0-1.6 1.7-4.9 1.6 0 0 1.7 1.6 5 1.6 0 0-5.3 1.5-7-1.7 0 0-1.4 1.4 1.4 4.1 0 0-4.3-.7-4.3-4 0 0-1.5 0-2.6 1.3a16 16 0 0 1-5.6 3.6" fill="#77b255"/></g></svg>