<svg xmlns="http://www.w3.org/2000/svg" viewBox="0 0 45 45"><defs><clipPath id="a"><path d="M0 36h36V0H0v36z"/></clipPath></defs><g clip-path="url(#a)" transform="matrix(1.25 0 0 -1.25 0 45)"><path d="M6.4 7.5c5-5 16.5-12 29.5 0-7.3 1.4-8.6 10.8-13.6 15.8s-12 6.2-17 1.1-4-12 1.1-17" fill="#a6d388"/><path d="M24.7 6.2c6.1-1.6 10.6.7 11 1.2 0 0-3.7-1.8-10.3 1.4 1 1.2 3.9 3 3.9 3-.6.3-4.1.2-6.5-1.5A37.2 37.2 0 0 0 19 13l.8.9c3.3 3.3 7 2.5 7 2.5-.7.7-5.6 3.5-9.6-.7l-.6-.6-1.3 1.3-1.9 1.8 1.1 1a13 13 0 0 0 8.2 3.5c-.6.6-6.8 2.7-10.9-1.4l-.7-.7-8.3 8.3c-.6.6-1.7.5-2.3 0-.7-.7-.7-1.8 0-2.4l8.2-8.3C4.7 14 6.4 7.4 7 6.8c0 0 .5 5.2 3.8 8.5l.4.4 3.5-3.5.2-.1C12.3 7.4 16 1.8 16.8 1.4c0 0-1.5 4.7.5 8.6a22.5 22.5 0 0 1 4.4-2.7c.1-3 2.7-5.7 3.4-6 0 0-1 3-.5 4.5v.4z" fill="#77b255"/><path d="M22 26a1 1 0 0 0-.3 2c.2 0 4 1.6 4.4 6a1 1 0 0 0 2 0c-.5-5.8-5.4-7.8-5.7-8a1 1 0 0 0-.3 0m5-4a1 1 0 0 0-.4 2c.2 0 4.6 1.7 5.4 8.1a1 1 0 0 0 1.1.9 1 1 0 0 0 1-1.1C33 24 27.5 22 27.3 22a1 1 0 0 0-.3-.1m3-6a1 1 0 0 0-.5 1.9s2.7 1.5 3.6 3.5a1 1 0 0 0 1.8-.8c-1-2.6-4.3-4.4-4.4-4.5a1 1 0 0 0-.5-.1" fill="#55acee"/></g></svg>