<svg xmlns="http://www.w3.org/2000/svg" viewBox="0 0 45 45"><defs><clipPath id="a"><path d="M0 36h36V0H0v36z"/></clipPath></defs><g clip-path="url(#a)" transform="matrix(1.25 0 0 -1.25 0 45)"><path d="M11.4 32.7c6.5 1.2 8.5-1.3 11.7-.1 3.2 1.2 0-2.8-.8-3.5-.8-.7-8.1-4.8-11.3-3.3-3.2 1.5-3.2 6.2.4 6.9" fill="#5c913b"/><path d="M15 20a1 1 0 0 0-.8.4l-2 3C10 27.4 7.4 31.7.8 33a1 1 0 1 0 .4 2c7.5-1.7 10.4-6.6 12.8-10.5a33.7 33.7 0 0 1 1.8-2.9A1 1 0 0 0 15 20" fill="#77b255"/><path d="M34.3 4.5a19.3 19.3 0 0 1-3.4 21.1 18.2 18.2 0 0 1-18.7 4c-1.6-.5-3 0-3.8-.9-1-.9-.4-2.7-.8-3.8-3.1-5.2-3.4-13 2.7-19.1 5-5 10.5-6.9 20-4.9 1.2.2 3-.5 3.6.1 1 1.1.3 2.4.4 3.5" fill="#ffcc4d"/><path d="M8.2 29.4s-4.3.6-6.8-4.6c-2.6-5.2.5-9.1.2-12.6-.3-3.6 1.6-1.3 2.7.4s4.2 5 4.9 9.3c.7 4.4 0 6.4-1 7.5" fill="#77b255"/></g></svg>