<svg xmlns="http://www.w3.org/2000/svg" viewBox="0 0 45 45"><defs><clipPath id="a"><path d="M0 36h36V0H0v36z"/></clipPath></defs><g clip-path="url(#a)" transform="matrix(1.25 0 0 -1.25 0 45)"><path d="M28 34c2.7 1.3 5-4 3-13-1.1-5-5-9-9-12s-11 1-7 5 8 7 10 13c1.3 4 1 6 3 7" fill="#ffe8b6"/><path d="M31 28c0-3-1-9-4-13s-7-5-4-1 5 7 6 11 2 7 2 3" fill="#ffd983"/><path d="M22 16c-.3-.6 1.2 3.8-3 6-2 1-10-1-4-1 3 0 4-2 2-4a3 3 0 0 1-.6-1L15 15A229 229 0 0 0 5 8C2 6 1 5 1 4c0-3 9-3 14-1s10 7 10 7l4 4c-3 4-7 2-7 2" fill="#ffcc4d"/><path d="M22 16s1.8 4.7-3 7c-4 2-8 1-11-1s-2-4-3-5 1-2 3 0 8.3 4.9 11 4c3-1 2-3 3-5" fill="#ffe8b6"/><path d="M26 1h-4c-2 0-3-1-4-1s-2 2 0 2 4 0 5 1 5-2 3-2" fill="#a6d388"/><path d="M19 1a1 1 0 1 0-2 0 1 1 0 0 0 2 0" fill="#3e721d"/><path d="M32.2 8S28 1 26 1h-4c-2 0 0 1 1 2s5 0 5 6c0 3 4.2-1 4.2-1" fill="#ffcc4d"/><path d="M26 17c3 0 8-3 7-9s-5-7-7-7h-2c-2 0-1 1 0 2s4 0 4 6c0 3-4 7-6 7 0 0 2 1 4 1" fill="#ffe8b6"/><path d="M17 15c3 0 5-1 3-3-1.6-1.6-6-5-10-6S2 5 5 7s9.8 8 12 8" fill="#ffd983"/><path d="M2 5c1 0 1 0 1-.7C3 3.7 3 3 2 3S1 4.3 1 4.3 1 5 2 5" fill="#c1694f"/></g></svg>