<svg xmlns="http://www.w3.org/2000/svg" viewBox="0 0 45 45"><defs><clipPath id="a"><path d="M0 36h36V0H0v36z"/></clipPath><clipPath id="b"><path d="M18 36C8 36 0 28 0 18a4 4 0 0 1 4-4h28a4 4 0 0 1 4 4c0 10-8 18-18 18z"/></clipPath></defs><g clip-path="url(#a)" transform="matrix(1.25 0 0 -1.25 0 45)"><path d="M27 3c0-2.2-1.8-3-4-3H13c-2.2 0-4 .8-4 3s3 7 3 13 12 6 12 0 3-10.8 3-13" fill="#99aab5"/></g><g clip-path="url(#b)" transform="matrix(1.25 0 0 -1.25 0 45)"><path d="M18 36.6C7.5 36.6-1 28-1 17.4-1 15.1.9 13 3.2 13h29.6c2.3 0 4.2 2 4.2 4.4 0 10.6-8.5 19.2-19 19.2" fill="#dd2e44"/><path d="M7.7 19.5a6.2 6.2 0 0 0-6.2 6.2A6.2 6.2 0 0 0 7.7 32a6.2 6.2 0 0 0 0-12.4" fill="#f4abba"/><path d="M7.7 32a6.3 6.3 0 1 1 0-12.6 6.3 6.3 0 0 1 0 12.6m0-.3a6 6 0 0 0 6-6 6 6 0 0 0-6-6 6 6 0 0 0-6 6 6 6 0 0 0 6 6m27-6.9a18 18 0 0 1-4.2 6.2 4.5 4.5 0 1 1 4.2-6.2M26 20a4.5 4.5 0 1 0-9 0 4.5 4.5 0 0 0 9 0m-3 11a3 3 0 1 0-6 0 3 3 0 0 0 6 0" fill="#f4abba"/></g></svg>