<svg xmlns="http://www.w3.org/2000/svg" viewBox="0 0 45 45"><defs><clipPath id="a"><path d="M0 36h36V0H0v36z"/></clipPath></defs><g clip-path="url(#a)" transform="matrix(1.25 0 0 -1.25 0 45)"><path d="M32 25c4.3-7.6 2-17.3-5.5-21.6a15 15 0 0 0-21 5.2c-5 8.7-2.4 18.2 5 22.5 7.4 4.3 18 0 21.4-6" fill="#a6d388"/><path d="M24 30c3-1 6-4 8-7 .8-1.3.7 0-.3 2.4-3.7 5.8-14 10-21.2 5.7a14.8 14.8 0 0 1-6.4-7.4c.7.8 1.4 1.3 1.9 1.3 1 0-1.9-3.3 1-11 3-8 3-4 3-4s-2 9-1 12 2 5 3 4 5-9 7-14c2.3-5.7 2 1-1 8-2.8 6.6-3 8-2 8s3.5-1.5 7-5c2-2 3-5 4-6s1 1 0 4c-.7 2.1-3 6-6 8-2.5 1.7 0 2 3 1" fill="#77b255"/><path d="M12 29.6a1 1 0 0 0-1.4.4 11.3 11.3 0 0 0-1.3 4.4 1 1 0 0 0 1 1 1 1 0 0 0 1-.9s.1-2 1-3.5a1 1 0 0 0-.4-1.4" fill="#5c913b"/><path d="M12 5.5c-1 .5-1.8 2-2.4 3.2-.7 1.2.2 1.3.8.2.7-1.3 1.2-1.7 2-3 .6-1.2.1-.7-.4-.4m9.5-.4c-.9 2-.8 3-1.7 5.1-.9 2-.7 4 .1 2 1-2 1.8-4.1 1.7-5.1l-.1-2M27 17c1-3 0-2 1-5s1-5 1 0c0 3.2-1 6-2 7-1.6 1.6 0-2 0-2" fill="#77b255"/></g></svg>