<svg xmlns="http://www.w3.org/2000/svg" viewBox="0 0 45 45"><defs><clipPath id="a"><path d="M0 36h36V0H0v36z"/></clipPath></defs><g clip-path="url(#a)" transform="matrix(1.25 0 0 -1.25 0 45)"><path d="M18.2 26.4a5 5 0 0 0 2.2 4.7 6.4 6.4 0 0 1-4.9-2.8c-.7 1.3 1 4 2.2 4.7-3.2-.1-3.7-2.1-3.7-2.1-1.5 2.6-1 4.6-1 4.6-1.1-.7-1.8-2.1-2.2-3.5l-2.3 2.6c-.2-1 .2-3.2.6-5-3 1.9-5.9.2-5.9.2 4-1.2 5.4-3.8 5.4-3.8S4.7 27.2 3 24.5c2.6.1 4.5-.5 5.9-1.2-1.2-.3-3.2.2-4.4-1.4 0 0 3.2.1 3.8-1-2.1-.7-3.5-2.3-3.5-2.3 4.4.8 9.1-1.7 9.1-1.7l6.1 3.6a6.2 6.2 0 0 0 2.7 6.7c-2.8 1.9-4.5-.8-4.5-.8" fill="#5c913b"/><path d="M29.6 13.1c2.4-4.3 1.2-9.7-2.9-12-4-2.4-9.3-.8-11.8 3.5l-1.6 2.8c-2.5 4.3-1.2 9.7 2.8 12 4 2.4 9.4.8 11.9-3.5l1.6-2.8z" fill="#ffac33"/><path d="M27.7 9.5l-2 .9.9 2 2-1-.9-1.9zm-1.6-3.9l-2 .9.8 2 2-1-.8-1.9zm-1.7-3.9l-2 .9.9 2 2-1-.9-1.9zm-4.2 6.4l.8 2 2-.9-.8-2-2 1zm.3-4.7l-2 .8.9 2 2-.9-.9-2zm-4.2 6.4l.8 2 2-.9-.8-2-2 .9zm.3-4.8l-2 .9.9 2 2-.9-.9-2zm-4.2 6.4l.8 2 2-.8-.8-2-2 .8zm2.5 5.9l2-.8-.9-2-2 .8.9 2zm3.9-1.7l2-.8-.9-2-2 .9.9 2zm1.7 4l1.9-.9-.8-2-2 .9.9 2zm4.2-6.5l-.9-1.9-2 .8.9 2 2-.9zm-.3 4.8l1.9-.8-.8-2-2 .8.9 2zm6.2-7.3a9.5 9.5 0 0 1-1 2.5l-.2.3-2 .9.7 1.4-.1.2a9 9 0 0 1-9.5 4.4l-.8-1.9-2 .8a8.7 8.7 0 0 1-3.2-10.1l1-.4-.4-1 .2-.3 1.6-2.8a9.4 9.4 0 0 1 2.6-2.9l.2.6 2-.9-.4-.7a8.8 8.8 0 0 1 2.1-.6l.2.5L23 0a8 8 0 0 1 3.4.9l.8 2 1.2-.5A8.2 8.2 0 0 1 29.7 4l-1.7.7.8 2 1.7-.7a9 9 0 0 1 .3 2.1l-1.1.5.8 2z" fill="#ffcc4d"/></g></svg>