<svg xmlns="http://www.w3.org/2000/svg" viewBox="0 0 45 45"><defs><clipPath id="a"><path d="M0 36h36V0H0v36z"/></clipPath></defs><g clip-path="url(#a)" transform="matrix(1.25 0 0 -1.25 0 45)"><path d="M26 12a1 1 0 0 0-.6.2A64.5 64.5 0 0 0 10 29.6c1.7-10.5 1-16.4 1-16.7a1 1 0 1 0-2 .2c0 .1 1 8-2 21.7a1 1 0 0 0 1.9.7c0-.2 8-14.9 17.7-21.7A1 1 0 0 0 26 12" fill="#77b255"/><path d="M26.6 27.2c-3.5-1-5.1-2.6-10.8-.7-4.7 1.6-7 4.2-6.3 6.3.7 2.1 3.1 3.2 7.9 1.6 4.7-1.5 4-3.4 9.2-7.2" fill="#5c913b"/><path d="M34 8a8 8 0 1 0-16 0 8 8 0 0 0 16 0" fill="#be1931"/><path d="M19 8A8 8 0 1 0 3 8a8 8 0 0 0 16 0" fill="#be1931"/></g></svg>