<svg xmlns="http://www.w3.org/2000/svg" viewBox="0 0 45 45"><defs><clipPath id="a"><path d="M0 36h36V0H0v36z"/></clipPath></defs><g clip-path="url(#a)" transform="matrix(1.25 0 0 -1.25 0 45)"><path d="M18 0C3 0 1 14 1 18h34c0-2-2-18-17-18" fill="#ccd6dd"/><path d="M35 19c0-5.3-7.6-9.5-17-9.5S1 13.7 1 18.9c0 5.3 7.6 8.5 17 8.5s17-3.2 17-8.5" fill="#99aab5"/><path d="M19.5 3H17a.5.5 0 0 0 0 1h2v3h-4V6h3a.5.5 0 0 0 0-1h-3.5a.5.5 0 0 0-.5.5v2a.5.5 0 0 0 .5.5h5a.5.5 0 0 0 .5-.5v-4a.5.5 0 0 0-.5-.5M25 4a.5.5 0 0 0-.2 1l2.2.8v2.3l-4-1v-1l2.9.9a.5.5 0 0 0 .2-1 294.6 294.6 0 0 0-3.5-1 .5.5 0 0 0-.6.5v2c0 .2.2.4.4.5l4.9 1.2a.5.5 0 0 0 .6-.5l.1-3.2a.5.5 0 0 0-.3-.5l-2.5-1a.5.5 0 0 0-.2 0m4.6 2.7a.6.6 0 0 0-.3 0 .6.6 0 0 0-.3.6v2.5a.5.5 0 0 0 .3.5 40 40 0 0 1 1.8 1l1 .6a.5.5 0 0 0 .4 0 .5.5 0 0 0 .2-.4l-.1-1.8a.5.5 0 0 0-.2-.4l-1.2-.7a.5.5 0 0 0-.7.3.5.5 0 0 0 .2.6l1 .6v.4l-1.7-1V8l.7.4.4-.3.2-.5c-1-.6-1.4-.8-1.7-.8m-17.7-3a.5.5 0 0 0-.2 0l-3.2 1a.5.5 0 0 0-.3.7.5.5 0 0 0 .6.3l2.6-.8v2.3l-2.8.9v-.7l1.6-.6a.5.5 0 0 0-.4-1L8 6.6a.5.5 0 0 0-.3.5v1.8a.5.5 0 0 0 .7.4L12 8.1a.5.5 0 0 0 .4-.5l-.1-3.4a.5.5 0 0 0-.5-.5m-6 2.8a.5.5 0 0 0-.3 0l-1.4 1A.5.5 0 0 0 4 8a.5.5 0 0 0 .7.2l.6-.4v1.6l-1.3.8v-.5l.7-.4a.5.5 0 1 0-.5-.9l-1 .6a.5.5 0 0 0-.2.5V11a.5.5 0 0 0 .8.5L6 10.3a.5.5 0 0 0 .2-.5V7a.5.5 0 0 0-.5-.5" fill="#ea596e"/><path d="M33 18c0-3.9-6.7-7-15-7S3 14.1 3 18s6.7 7 15 7 15-3.1 15-7" fill="#ffac33"/><path d="M22 12c-1.2 0-2.1.2-2.8.6a2.2 2.2 0 0 0-1.2 2c0 1.8 2.3 3.4 5 3.4a1 1 0 1 0 0-2c-1.9 0-3-1-3-1.5l.2-.2A4 4 0 0 1 22 14c2.4 0 5 1.5 5 4 0 .7-1 1.2-1.3 1.4-2 .8-5.3.5-7-1.1-1.4-1.5-3.8-2-6.3-1.4-1.5.5-3.3 1.4-3.7 2.8a2 2 0 0 0 .6 2C11.6 24 15.9 24 19 24a1 1 0 1 0 0-2c-2.8 0-6.6 0-8.3-1.7 0-.2.5-.8 1.7-1.3 1.6-.5 3.7-.5 4.9.6 2.3 2.4 6.4 2.7 9.1 1.6 1.7-.7 2.6-1.8 2.6-3.2 0-3.7-3.6-6-7-6m-7 0c-7.6 0-10 5.5-10 7a1 1 0 0 0 2 0c0-.7 1.7-5 8-5a1 1 0 1 0 0-2" fill="#ffd983"/><path d="M35.1 33l-23-1a1 1 0 0 0-.2 2l23 2a1 1 0 0 0 1-1c0-.5-.3-2-.8-2m-.1-5l-23 1a1 1 0 0 0 0 2h23a1 1 0 0 0 1-1c0-.6-.5-2-1-2" fill="#aa695b"/><path d="M14 21a1 1 0 0 0-1 1v12a1 1 0 0 0 2 0V22a1 1 0 0 0-1-1m4-2a1 1 0 0 0-1 1v15a1 1 0 0 0 2 0V20a1 1 0 0 0-1-1" fill="#ffd983"/></g></svg>