<svg xmlns="http://www.w3.org/2000/svg" viewBox="0 0 45 45"><defs><clipPath id="a"><path d="M0 36h36V0H0v36z"/></clipPath></defs><g clip-path="url(#a)" transform="matrix(1.25 0 0 -1.25 0 45)"><path d="M18 15.589c-9.371 0-16.967.225-16.967-6.427C1.033 2.512 8.629 1 18 1c9.371 0 16.967 1.513 16.967 8.162 0 6.652-7.596 6.427-16.967 6.427" fill="#d99e82"/><path d="M34.47 15.084s-8.219.984-16.47 1.026c-8.25-.042-16.47-1.026-16.47-1.026C.717 8.61 7.467 5.943 18 5.943c10.533 0 17.282 2.667 16.47 9.14" fill="#662113"/><path d="M33.886 17.672L2.03 17.026c-1.1 0-2.021-2.229-.854-2.812 8.708-2.709 15.708-5.449 15.708-5.449.963-.532 1.287-.534 2.25-.003 0 0 9.667 3.868 15.876 5.493.88.231-.025 3.417-1.125 3.417" fill="#ffcc4d"/><path d="M34.725 17.588c-1.9 1.75-1.79.819-3.246 1.23-.553.156-4.509 5.272-13.528 5.272l-.01-.001h-.01c-9.02 0-12.976-5.115-13.529-5.271-1.456-.411-1.346.52-3.246-1.23-.872-.804-1.108-1.222-.188-1.43 1.386-.314 1.26-1.152 2.253-1.444 1.202-.353 1.696.292 3.635.028 1.653-.224 1.76-2.37 3.428-2.37s1.668.8 3.336.8c1.667 0 2.653-2.145 4.321-2.145 1.667 0 2.653 2.146 4.32 2.146 1.668 0 1.668-.8 3.336-.8s1.776 2.145 3.43 2.369c1.937.264 2.432-.381 3.633-.028.993.292.867 1.13 2.253 1.444.92.208.684.626-.188 1.43" fill="#77b255"/><path d="M34.077 19.48c0-2.984-7.198-4.393-16.077-4.393-8.879 0-16.077 1.409-16.077 4.393 0 5.403.966 5.403 16.077 5.403 15.111 0 16.077 0 16.077-5.403" fill="#dd2e44"/><path d="M18 35.476c-9.371 0-16.967-4.39-16.967-11.042 0-6.125 7.596-6.375 16.967-6.375 9.371 0 16.967.25 16.967 6.375 0 6.651-7.596 11.042-16.967 11.042" fill="#d99e82"/><path d="M10.784 32.305a1.069 1.069 0 1 1-1.152-1.802c.498-.319 1.76-.557 2.08-.059.317.498-.43 1.543-.928 1.861M20.518 33.34c-.562-.182-1.55-1.006-1.366-1.568.182-.562 1.464-.649 2.026-.466a1.07 1.07 0 1 1-.66 2.034M31.427 26.305c-.452.38-1.585-.225-1.966-.677a1.07 1.07 0 1 1 1.638-1.376c.38.452.78 1.673.328 2.053M27.784 31.305a1.07 1.07 0 0 1-1.478-.326 1.068 1.068 0 0 1 .327-1.476c.498-.319 1.76-.557 2.078-.059.318.498-.429 1.543-.927 1.861M12.784 24.305a1.07 1.07 0 0 1-1.478-.326 1.068 1.068 0 0 1 .327-1.476c.498-.319 1.76-.557 2.078-.058.318.497-.429 1.542-.927 1.86M15.83 29.113c-.336-.486-.62-1.74-.133-2.075.486-.336 1.557.374 1.893.86a1.069 1.069 0 1 1-1.76 1.215M23.784 24.305a1.07 1.07 0 0 1-1.478-.326 1.068 1.068 0 0 1 .327-1.476c.498-.319 1.76-.557 2.078-.058.318.497-.429 1.542-.927 1.86M4.948 28.192c-.395-.44-.833-1.648-.392-2.042.44-.394 1.591.175 1.985.615a1.07 1.07 0 1 1-1.593 1.427" fill="#ffe8b6"/></g></svg>