<svg xmlns="http://www.w3.org/2000/svg" viewBox="0 0 45 45"><defs><clipPath id="a"><path d="M0 36h36V0H0v36z"/></clipPath></defs><g clip-path="url(#a)" transform="matrix(1.25 0 0 -1.25 0 45)"><path d="M7.7 26.9c1.6 3.1 7.7 2 12-2.2 2.6-2.6 8-1.5 11.4-4.8 3.5-3.3 3.3-9.3-3-15.7C23-1 16-1 11.8 2.6c-4.4 3.8-2.4 8.6-4.4 13.6-1.9 5-4.3 10.4.3 10.7" fill="#a6d388"/><path d="M8.2 26.5a1 1 0 0 0-1.5-.1c-3.3 3-4 7.5-4 7.7 0 .6.3 1.2 1 1.3a1 1 0 0 0 1.1-.8s.7-4 3.4-6.6c.4-.4.4-1 0-1.5" fill="#662113"/></g></svg>