<svg xmlns="http://www.w3.org/2000/svg" viewBox="0 0 45 45"><defs><clipPath id="a"><path d="M0 36h36V0H0v36z"/></clipPath></defs><g clip-path="url(#a)" transform="matrix(1.25 0 0 -1.25 0 45)"><path d="M36 13c0-5.5-8-10-18-10S0 7.5 0 13s8 10 18 10 18-4.5 18-10" fill="#939598"/><path d="M36 15c0-5.5-8-10-18-10S0 9.5 0 15s8 10 18 10 18-4.5 18-10" fill="#f1f2f2"/><path d="M32.8 15.4c0-4.2-6.6-7.6-14.8-7.6S3.2 11.2 3.2 15.4C3.2 19.6 9.8 23 18 23s14.8-3.4 14.8-7.6" fill="#f4900c"/><path d="M13 12c-3.8 0-10 2-10 5.5 0 4.1 3.8 9 10 9s10-5.6 10-9c0-3.4-5.6-5.5-10-5.5" fill="#eee"/><path d="M4.6 17.2a.7.7 0 1 0 .6 1.2l1.2-.5a.7.7 0 0 0-.5-1.2l-1.3.5zm3.7 3.4a.7.7 0 0 0-.7 1.1l1 .8a.7.7 0 1 0 .9-1.1l-1.2-.8zm9-5a.7.7 0 0 0-.7 1.1l1.1.8a.7.7 0 1 0 .8-1.1l-1.2-.8zm-5.6 1.8a1 1 0 1 0 .8 2l1.8-.8a1 1 0 1 0-.8-1.9l-1.8.7zm5 3.8a.7.7 0 0 0 .4 1.2l1.3-.5a.7.7 0 0 0-.5-1.2l-1.3.5zm-5.8-5.8a.7.7 0 1 0 .5-1.2l-1.3-.5a.7.7 0 0 0-.8.4.7.7 0 0 0 .4.8l1.2.5z" fill="#ccd6dd"/><path d="M30 17a2 2 0 0 0-2-2h-1a2 2 0 0 0 0 4h1a2 2 0 0 0 2-2m-3-4.5a1.5 1.5 0 0 0-1.5-1.5h-1a1.5 1.5 0 0 0 0 3h1a1.5 1.5 0 0 0 1.5-1.5M21 10a1 1 0 0 0-1-1h-1a1 1 0 1 0 0 2h1a1 1 0 0 0 1-1" fill="#ffd983"/></g></svg>