<svg xmlns="http://www.w3.org/2000/svg" viewBox="0 0 45 45"><defs><clipPath id="a"><path d="M0 36h36V0H0v36z"/></clipPath><clipPath id="b"><path d="M3 21.5v-.8l.3-2.4L5 5a4 4 0 0 1 4-4h18a4 4 0 0 1 4 4l1.8 14.7.1.7.1.6v.5c0 8-6.7 12.5-15 12.5S3 29.5 3 21.5"/></clipPath><clipPath id="c"><path d="M2 35V19c0 1.1.9 1 2 1s3 .1 3-1c0-2.8 4.4-5 11-5s11 2.2 11 5c0 1.1 1.9 1 3 1s2 .1 2-1h1v16H2z"/></clipPath><clipPath id="d"><path d="M0 36h36V0H0v36z"/></clipPath></defs><g clip-path="url(#a)" transform="matrix(1.25 0 0 -1.25 0 45)"><path d="M33 21v.5c0 8-6.7 12.5-15 12.5S3 29.5 3 21.5v-.8l.3-2.4L5 5a4 4 0 0 1 4-4h18a4 4 0 0 1 4 4l1.8 14.7.1.7.1.6z" fill="#dd2e44"/></g><g clip-path="url(#b)" transform="matrix(1.25 0 0 -1.25 0 45)"><path d="M2 35V19c0 1.1.9 1 2 1s3 .1 3-1c0-2.8 4.4-5 11-5s11 2.2 11 5c0 1.1 1.9 1 3 1s2 .1 2-1h1v16H2z" fill="#be1931"/></g><g clip-path="url(#c)" transform="matrix(1.25 0 0 -1.25 0 45)"><path d="M10 4.5a1.5 1.5 0 0 0-1.5 1.9l5 21a1.5 1.5 0 0 0 3-.7l-5-21A1.5 1.5 0 0 0 10 4.5M25 26c-1-1-4-4-2-6s-1-8 2-6 4 5 4 7 1 5-1 5h-3z" fill="#f4900c"/><path d="M17 27c-1 0-3-2-3-3s0-6 3-5 3 3 2 5-2 3-2 3" fill="#f4900c"/><path d="M20 5.5a1.5 1.5 0 0 0-1.5 1.4l-2 20a1.5 1.5 0 0 0 1.4 1.6 1.5 1.5 0 0 0 1.6-1.3l2-20A1.5 1.5 0 0 0 20 5.5" fill="#f4900c"/><path d="M21 5.5a1.5 1.5 0 0 0-1.5 1.7l3 22c.1.8.9 1.4 1.7 1.3a1.5 1.5 0 0 0 1.3-1.7l-3-22A1.5 1.5 0 0 0 21 5.5m-3-1a1.5 1.5 0 0 0-1.4 1l-8 22a1.5 1.5 0 0 0 2.8 1l8-22a1.5 1.5 0 0 0-1.4-2" fill="#f4900c"/><path d="M22 7.5a1.5 1.5 0 0 0-1.4 2l6 18a1.5 1.5 0 1 0 2.8-1l-6-18a1.5 1.5 0 0 0-1.4-1m-3 2a1.5 1.5 0 0 0-1.4 1l-4 11a1.5 1.5 0 0 0 2.8 1l4-11a1.5 1.5 0 0 0-1.4-2m-10 0a1.5 1.5 0 0 0-1.5 1.3l-2 12a1.5 1.5 0 0 0 3 .4l2-12A1.5 1.5 0 0 0 9 9.6m20 3a1.5 1.5 0 0 0-1.5 1.7l1 9a1.5 1.5 0 0 0 3-.4l-1-9a1.5 1.5 0 0 0-1.5-1.3" fill="#f4900c"/><path d="M29 4.5a1.5 1.5 0 0 0-1.5 1.3l-3 22a1.5 1.5 0 0 0 1.3 1.7 1.5 1.5 0 0 0 1.7-1.3l3-22A1.5 1.5 0 0 0 29 4.5m-7 6c-.8 0-1.4.6-1.5 1.4l-1 14a1.5 1.5 0 0 0 1.4 1.6 1.5 1.5 0 0 0 1.6-1.4l1-14a1.5 1.5 0 0 0-1.5-1.6m-13-2a1.5 1.5 0 0 0-1.5 1.7l1.6 13.2a1.5 1.5 0 0 0 3-.4L10.4 9.8A1.5 1.5 0 0 0 9 8.5m9 0a1.5 1.5 0 0 0-1.5 1.2l-4 20a1.5 1.5 0 1 0 3 .6l4-20A1.5 1.5 0 0 0 18 8.5" fill="#ffcc4d"/></g><g clip-path="url(#d)" transform="matrix(1.25 0 0 -1.25 0 45)"><path d="M22 8a4 4 0 1 0-8 0 4 4 0 0 0 8 0" fill="#be1931"/></g></svg>