<svg xmlns="http://www.w3.org/2000/svg" viewBox="0 0 45 45"><defs><clipPath id="a"><path d="M0 36h36V0H0v36z"/></clipPath></defs><g clip-path="url(#a)" transform="matrix(1.25 0 0 -1.25 0 45)"><path d="M36 22.5c0 4.6-4.4 8.3-10 8.5H10c-5.6-.2-10-4-10-8.5 0-1.9.8-3.6 2-5V5a4 4 0 0 1 4-4h24a4 4 0 0 1 4 4v12.5c1.3 1.4 2 3.1 2 5" fill="#d99e82"/><path d="M34 16H19v1.5h15V16z" fill="#cc927a"/><path d="M21 22.5c0 3.5-3.5 6.3-8 6.5h-2.5C5.8 29 2 26 2 22.5c0-1.6.8-3 2-4.2V6a3 3 0 0 1 3-3h9a3 3 0 0 1 3 3v12.3a5.7 5.7 0 0 1 2 4.2" fill="#ffe8b6"/></g></svg>