<svg xmlns="http://www.w3.org/2000/svg" viewBox="0 0 45 45"><defs><clipPath id="a"><path d="M0 36h36V0H0v36z"/></clipPath></defs><g clip-path="url(#a)" transform="matrix(1.25 0 0 -1.25 0 45)"><path d="M22.6 1.2c3.5 1.1 6.1 3 6.1 9.3 0 4 4.3 8.5 4.3 12.6 0 3.9-4.6 10.4-15.1 9.3C7.1 31.2 3 28 3 20.9c0-4.9 5.3-8.3 8.1-13.5C13 4 18.6-2.2 22.6 1.2" fill="#be1931"/><path d="M26.3 32.4a9.6 9.6 0 0 1-5.4 1.7l.8.1c1 0 3.6 1.2 1.4 1-1 0-1.9-.2-2.8-.3l.7.4c0 .7-4 .7-6-1-.5.1-1 .7-4 .7-2 0-4.7-1-3-1 1 0 2 0 1.9-.4C9.2 33.6 6 33 6 32c0-.3 2.8.2 3 0-1.7-.6-3-2-3-3 0-.4 2.2.8 3 1-1-1-1.4-1.7-1.3-2.4 0-.5 2.3 0 2.6.1.8.3 3.7 1.3 4.6 2.8.1-.3 3-1.4 4.1-1.5.5 0 2.6-.3 2.1.7C21 30 20 31 19.7 32c.5 0 8.3-1 6.6.4" fill="#77b255"/><path d="M9.3 18.7c-.1 1.4-2.5 3.3-2.3 1 .1-1.5 2.5-3.3 2.3-1m7.5-.6a3 3 0 0 1-.7 1.7c-.5.6-1 .4-1.2-.3-.2-.8 0-1.7.6-2.4l-.6 1.6v-.1c0-.6.4-1.7 1.1-1.9.8-.2.8 1 .8 1.4m5.7 4.9c.5 1 .2 4-.8 2-.5-1-.2-4 .8-2m7.3 1.4c0 .4-.1.8-.4 1-1.2 1-2.4-2.3-1.4-3l-.3.9a.4.4 0 0 1 0-.1c0-.6.4-1.4 1-1 .8.5 1.1 1.5 1 2.2M28.5 16c1 1.5-.5 3.4-1.8 1.5-1-1.5.6-3.4 1.8-1.5m-5.7-3c.1 2-2.3 2.8-2.5.6-.2-2 2.3-2.8 2.5-.5m-10 1.2l1.4-.7c-.3.3-1.4 1-1.8.6-.5-.5.5-1.4.8-1.7.3-.3 1-.8 1.4-.7 1.4 0-.8 2.6-1.7 2.5m13.2-6c1 1.1.7 4.1-.8 2.5-1-1.1-.7-4 .8-2.4m-13.4 14h.3c.7 0 1 1.4 1 2 0 .5 0 1.4-.8 1.3h-.3c-.7 0-1-1.5-1-2s0-1.4.8-1.4M20.4 7c.4-.8.3-1.6-.3-2-.6-.2-1.3.2-1.7 1-.4.7-.3 1.5.3 1.8.6.3 1.3 0 1.7-.8" fill="#f4abba"/></g></svg>