<svg xmlns="http://www.w3.org/2000/svg" viewBox="0 0 45 45"><defs><clipPath id="a"><path d="M0 36h36V0H0v36z"/></clipPath></defs><g clip-path="url(#a)" transform="matrix(1.25 0 0 -1.25 0 45)"><path d="M18 15.6c-9.4 0-17 .2-17-6.4C1 2.5 8.6 1 18 1s17 1.5 17 8.2-7.6 6.4-17 6.4" fill="#d99e82"/><path d="M34.5 15s-8.3 1-16.5 1.1c-8.3 0-16.5-1-16.5-1-.8-6.5 6-9.2 16.5-9.2s17.3 2.7 16.5 9.2" fill="#662113"/><path d="M33.9 17.7L2 17c-1 0-2-2.2-.8-2.8 8.7-2.7 15.7-5.4 15.7-5.4 1-.6 1.3-.6 2.2 0 0 0 9.7 3.8 16 5.5.8.2-.1 3.4-1.2 3.4" fill="#ffcc4d"/><path d="M34.7 17.6c-1.9 1.7-1.8.8-3.2 1.2-.6.2-4.5 5.3-13.6 5.3C9 24 5 19 4.4 18.8c-1.5-.4-1.3.5-3.2-1.2-1-.8-1.2-1.2-.2-1.4 1.4-.4 1.2-1.2 2.2-1.5 1.2-.3 1.7.3 3.7 0 1.6-.2 1.7-2.3 3.4-2.3s1.6.8 3.3.8S16.3 11 18 11c1.7 0 2.7 2.2 4.4 2.2 1.6 0 1.6-.8 3.3-.8s1.8 2.1 3.4 2.3c2 .3 2.5-.3 3.7 0 1 .3.8 1.1 2.2 1.5 1 .2.7.6-.2 1.4" fill="#77b255"/><path d="M34 19.5c0-3-7.1-4.4-16-4.4S2 16.5 2 19.5c0 5.4.9 5.4 16 5.4s16 0 16-5.4" fill="#dd2e44"/><path d="M18 35.5c-9.4 0-17-4.4-17-11C1 18.2 8.6 18 18 18s17 .2 17 6.3c0 6.7-7.6 11-17 11" fill="#d99e82"/><path d="M10.8 32.3a1 1 0 1 1-1.2-1.8c.5-.3 1.8-.6 2.1 0 .3.4-.4 1.5-1 1.8m9.8 1c-.5-.1-1.5-1-1.4-1.5.2-.6 1.5-.7 2-.5a1 1 0 1 1-.6 2m11-7c-.5.4-1.7-.2-2-.7a1 1 0 1 1 1.6-1.4c.4.5.8 1.7.3 2.1m-3.6 5a1 1 0 0 1-1.5-.3 1 1 0 0 1 .3-1.5c.5-.3 1.8-.6 2.1 0 .3.4-.4 1.5-1 1.8m-15-7a1 1 0 0 1-1.4-.3 1 1 0 0 1 .3-1.5c.5-.3 1.8-.6 2.1 0 .3.4-.4 1.5-1 1.8m3.1 4.8c-.3-.5-.6-1.7-.1-2 .5-.4 1.6.3 1.9.8a1 1 0 1 1-1.8 1.2m8-4.8a1 1 0 0 1-1.5-.3 1 1 0 0 1 .3-1.5c.5-.3 1.8-.6 2.1 0 .3.4-.4 1.5-1 1.8M5 28.2c-.4-.5-.8-1.7-.4-2 .5-.5 1.6.1 2 .6A1 1 0 1 1 5 28.1" fill="#ffe8b6"/></g></svg>