<svg xmlns="http://www.w3.org/2000/svg" viewBox="0 0 45 45"><defs><clipPath id="a"><path d="M0 36h36V0H0v36z"/></clipPath><clipPath id="b"><path d="M1 18a17 17 0 1 1 34 0 17 17 0 0 1-34 0"/></clipPath></defs><g clip-path="url(#a)" transform="matrix(1.25 0 0 -1.25 0 45)"><path d="M35 18a17 17 0 1 0-34 0 17 17 0 0 0 34 0" fill="#c1694f"/><path d="M27.3 8.4A1 1 0 0 0 26 10l1.7 1.2a1 1 0 0 0 1.1-1.7l-1.6-1.1zm2.4 7a1 1 0 0 0-.5 1.4 1 1 0 0 0 1.3.5l1.8-.8a1 1 0 1 0-.7-1.8l-1.9.7zm-4.5 5.3a1 1 0 1 0 .8 1.9l1.8-.8a1 1 0 0 0-.7-1.9l-1.9.8zm-21-7a1 1 0 0 0 .8 1.9l1.8-.8a1 1 0 0 0-.7-1.8l-1.9.7zM7.8 20a1 1 0 1 0-1.2 1.6l1.7 1.2A1 1 0 0 0 9.4 21l-1.6-1.1zm9-3.8a1.5 1.5 0 1 0 1.1 2.8l2.8-1.1a1.5 1.5 0 1 0-1.1-2.8l-2.8.9zm-6.2-6a1 1 0 1 0 .7-2l-1.9-.6a1 1 0 0 0-1.3.5 1 1 0 0 0 .6 1.3l1.9.8z" fill="#e29386"/></g><g clip-path="url(#b)" transform="matrix(1.25 0 0 -1.25 0 45)"><path d="M26 3a2 2 0 0 0-2-2H12a2 2 0 0 0-2 2v12a2 2 0 0 0 2 2h12a2 2 0 0 0 2-2V3z" fill="#292f33"/></g></svg>