<svg xmlns="http://www.w3.org/2000/svg" viewBox="0 0 45 45"><defs><clipPath id="a"><path d="M0 36h36V0H0v36z"/></clipPath></defs><g clip-path="url(#a)" transform="matrix(1.25 0 0 -1.25 0 45)"><path d="M1 30.9s5 5 10 5c6.2 0 8-5 8-5s.6 4 5 4 7-3 7-3-3.6-2.2-4.7-2.6A33 33 0 0 0 11 26.6c-4 1-9.8 4.2-9.8 4.2" fill="#5c913b"/><path d="M18 30s1 .9 6 .9c6.5 0 12-4.8 12-13C36 6.5 21 .2 21 .2S1 1 1 18c0 10 6.8 13 11 13 5 0 6-1 6-1" fill="#ff886c"/><path d="M1 30.9s5 5 10 5c6.2 0 8-5 8-5s-4-5.2-8-4.2-10 4.2-10 4.2" fill="#77b255"/><path d="M23 6a1 1 0 0 0-.8 1.6S24 10.4 24 17a14 14 0 0 1-4.6 10.2 1 1 0 0 0 1.2 1.6c.2-.2 5.4-4.4 5.4-11.8 0-7.2-2-10.4-2.2-10.6A1 1 0 0 0 23 6" fill="#dd2e44"/></g></svg>