<svg xmlns="http://www.w3.org/2000/svg" viewBox="0 0 45 45"><defs><clipPath id="a"><path d="M0 36h36V0H0v36z"/></clipPath></defs><g clip-path="url(#a)" transform="matrix(1.25 0 0 -1.25 0 45)"><path d="M14 25.6l-5.8 5.9A2.6 2.6 0 0 1 4.4 35a2.6 2.6 0 0 1-.8-2.3 2.6 2.6 0 0 1-2.2-.7 2.6 2.6 0 0 1 0-3.7 2.6 2.6 0 0 1 3.4-.2l5.9-5.8 3.3 3.3z" fill="#ffd983"/><path d="M33 3.4c1.6 1.6 5.8 8.8 0 14.6-4 4-7.3 3.8-13.4 5.3A24 24 0 0 0 13 28c-.8-.8-.5-3.9-.5-3.9S8.8 23.8 8 23c.8-.8 4.7-4.5 5.4-6.2C15.2 11 15 8.1 19 4c6.7-6.6 12.3-2.3 14-.6" fill="#c1694f"/></g></svg>