<svg xmlns="http://www.w3.org/2000/svg" viewBox="0 0 45 45"><defs><clipPath id="a"><path d="M0 36h36V0H0v36z"/></clipPath><clipPath id="b"><path d="M5.7 30.4c-.4-.2-.5-.9-.4-1.3L16 2s1-2 2-2c1.1 0 2 2 2 2l10.7 27.2s.2.9-.6 1.2A28.3 28.3 0 0 1 18 33a28.6 28.6 0 0 1-12.3-2.6"/></clipPath></defs><g clip-path="url(#a)" transform="matrix(1.25 0 0 -1.25 0 45)"><path d="M18 32c7.3 0 13-4 14.7-2 .2.3.3.7.3 1 0 2-6.7 5-15 5S3 33 3 31c0-.3.1-.7.3-1 1.7-2 7.4 2 14.7 2" fill="#f4900c"/><path d="M18 33a28.6 28.6 0 0 1-12.3-2.6c-.4-.2-.5-.9-.4-1.3L16 2s.9-2 2-2 2 2 2 2l10.7 27.2s.2.9-.6 1.2A28.2 28.2 0 0 1 18 33" fill="#ffcc4d"/></g><g clip-path="url(#b)" transform="matrix(1.25 0 0 -1.25 0 45)"><path d="M18 5a4 4 0 1 0-8 0 4 4 0 0 0 8 0m-1 11a4 4 0 1 0-8 0 4 4 0 0 0 8 0m3 12a4 4 0 1 0-8 0 4 4 0 0 0 8 0m9-5a4 4 0 1 0-8 0 4 4 0 0 0 8 0m-2-12a4 4 0 1 0-8 0 4 4 0 0 0 8 0M10 24a4 4 0 1 0-8 0 4 4 0 0 0 8 0" fill="#be1931"/></g></svg>