<svg xmlns="http://www.w3.org/2000/svg" viewBox="0 0 45 45"><defs><clipPath id="a"><path d="M0 36h36V0H0v36z"/></clipPath></defs><g clip-path="url(#a)" transform="matrix(1.25 0 0 -1.25 0 45)"><path d="M36 12c0-5.5-8-10-18-10S0 6.5 0 12s8 10 18 10 18-4.5 18-10" fill="#939598"/><path d="M36 14c0-5.5-8-10-18-10S0 8.5 0 14s8 10 18 10 18-4.5 18-10" fill="#f1f2f2"/><path d="M32.8 14.4c0-4.2-6.6-7.6-14.8-7.6S3.2 10.2 3.2 14.4C3.2 18.6 9.8 22 18 22s14.8-3.4 14.8-7.6" fill="#ffcc4d"/><path d="M11 9a1 1 0 1 0 0 2c1.9 0 3 1 3.2 1.8 0 .8-1 1.1-1.4 1.2-1 .3-1.6 0-2.4-.3-1-.4-2.5-1-4.1.6-.7.7-.9 1.6-.5 2.5.7 1.8 3.4 3.2 5.2 3.2a1 1 0 0 0 0-2c-1.1 0-3-1.1-3.4-2l.1-.3c.6-.6 1-.5 2-.1.8.3 2 .8 3.5.4 2.4-.6 3.1-2.2 3-3.4C15.9 10.8 14 9 11 9m6-1a1 1 0 1 0 0 2c5.7 0 9.8 1.3 12.3 3.7a1 1 0 1 0 1.4-1.4C27.9 9.4 23.3 8 17 8" fill="#ffe8b6"/><path d="M21.4 11.8l-1.6.2c-.6.2-2.2.6-2.3 2 0 1 .7 2 6 3.9A6 6 0 0 1 20 19c-2.5 0-3.8-.2-4.3-.7a1 1 0 1 0-1.4 1.4c1 1 2.4 1.3 5.7 1.3 2.4 0 5.4-1.3 5.7-3 0-.7-.2-1.6-1.4-2-2.6-.8-3.9-1.5-4.5-2h.4c3.3-.8 7.4 2.3 7.8 3.2a1 1 0 0 0 2-.2c0-.7-.6-1.6-1.9-2.5a11.7 11.7 0 0 0-6.8-2.7" fill="#ffe8b6"/><path d="M27 15.5c0-2.5-2-5.5-7-5.5s-4 2-12 5c-3.4 1.3 5 5 10 5s9-2 9-4.5" fill="#dd2e44"/><path d="M16 12a1 1 0 0 0-.7 1.7c.3.3.1.5 0 .6-.6.5-2.3.6-3.9-.2a1 1 0 1 0-.8 1.8c2 1 4.7 1.2 6.1-.2 1.3-1.2.7-2.7 0-3.4a1 1 0 0 0-.7-.3m4 4c-2.4 0-3.7 1.3-4.7 2.3a1 1 0 1 0 1.4 1.4c1-1 1.7-1.7 3.3-1.7.8 0 2.6 0 3.3.7a1 1 0 1 0 1.4-1.4C23.4 16 21.1 16 20 16m0-4a1 1 0 1 0 0 2c1.9 0 4.5 1 5.3 1.7a1 1 0 1 0 1.4-1.4A11.5 11.5 0 0 0 20 12" fill="#ea596e"/><path d="M17 16a1 1 0 0 0-.9.6c-1 2-3 6.1-4.1 14.3a1 1 0 1 0 2 .2c1-7.8 3-11.8 3.9-13.7A1 1 0 0 0 17 16" fill="#ffac33"/><path d="M35.1 25L20 29.5c-3.4 5.3-7.6 4.4-9.9 4.5-.3 0-.8-.2-.8-.6 0-.4 1-.4 1.2-.4 1.6 0 3.9-.1 6-2.5-2.6 1-6.7 1.6-7.4 1.5-.5 0-.5-.4 0-.6L16 29c-1.4-.5-3.3-.7-6.5.9-.5.2-1.2.6-1.4.1-.3-.5.5-.8 1-1 2.2-1 3.4-2.3 4.8-2.3 1.7 0 2.9.5 3.8.9l1 .3 14.8-6.6c.5-.3 1.5.8 1.8 1.3.3.4.3 2.1 0 2.4" fill="#99aab5"/><path d="M13 17a1 1 0 0 0-.7.3c-1.3 1.3-4.5 8.9 0 14.3a1 1 0 0 0 1.5-1.2c-3.7-4.6-.8-11 0-11.7A1 1 0 0 0 13 17" fill="#ffac33"/></g></svg>