<svg xmlns="http://www.w3.org/2000/svg" viewBox="0 0 45 45"><defs><clipPath id="a"><path d="M0 36h36V0H0v36z"/></clipPath></defs><g clip-path="url(#a)" transform="matrix(1.25 0 0 -1.25 0 45)"><path d="M9.4 21.4c.5 1.4 7.4 7.5 13.3 10.2 1.5.7 6.6 2.9 8.4 3.3 3.6.9 5 1 4.6-2.6A67.3 67.3 0 0 0 27 12.4C24.3 8.2 22.7 6 16.6 9c-6.1 3.1-9.2 6.2-7.2 12.3" fill="#b90053"/><path d="M22.5 21.2C26.3 17.5 27 12 24 9s-8.5-2.4-12.3 1.3c-3.8 3.8-4.5 9.3-1.5 12.3s8.5 2.4 12.3-1.4" fill="#ffcc4d"/><path d="M27 29.6c1.1-.6 2.7-3.6 2.7-4.5 0-.9-1 1-2.7 2.7-1.8 1.8-1.8 2.7 0 1.8m.1-8c.6-.6 1-2.8.9-3.4-.2-.5-.4.8-1.2 2.3-.8 1.4-.6 2 .3 1" fill="#8e0042"/><path d="M21 4c0-2.2-4.5-4-10-4S1 2 1 4c0 .4-.2 2.6 0 3 1.3 1.5 5.5 1 10 1 4.9 0 9.1.9 10-1V4" fill="#b90053"/><path d="M21 7c0-2.2-4.5-4-10-4S1 4.8 1 7s4.5 4 10 4 10-1.8 10-4" fill="#ffd671"/></g></svg>