<svg xmlns="http://www.w3.org/2000/svg" viewBox="0 0 45 45"><defs><clipPath id="a"><path d="M0 36h36V0H0v36z"/></clipPath></defs><g clip-path="url(#a)" transform="matrix(1.25 0 0 -1.25 0 45)"><path d="M31 14C28 3 26 0 18 0S8 3 5 14c-2 7.5 2 14 13 14s15-6.5 13-14" fill="#f4900c"/><path d="M29 25c2-4-3-8-11-8S5 21 7 25c1.5 3 4.4 6 11 6s9.5-3 11-6" fill="#be1931"/><path d="M30 25c0-4-5.4-6-12-6S6 21 6 25c0 3.3 5.4 6 12 6s12-2.7 12-6" fill="#ffac33"/><path d="M27 26c1-1 2-2 2-3s-1-3-2-2c0 0 3-1.1 2-4-1-3-4-2-4 0s-1.6 3.3-2 2c-1-3-3-3-4-2s-1 2-1 2-3 0-2 2 0 2 0 2 0 1 1 1 7 1 8 2 2 0 2 0" fill="#ffe8b6"/><path d="M28 26.7c0-2.6-4.5-4.7-10-4.7S8 24.1 8 26.7 12.5 31 18 31s10-1.7 10-4.3" fill="#662113"/><path d="M18 22c4.5 0 8.4 1.4 9.6 3.4l-.6.6s-2 2-3 1-6-1-7-1-2-1-2-1 1.6-2 1.4-3a20.9 20.9 0 0 1 1.6 0" fill="#f4900c"/><path d="M26 27.5c0-2-3.6-3.5-8-3.5s-8 1.6-8 3.5 3.6 5.5 8 5.5 8-3.6 8-5.5" fill="#ffcc4d"/><path d="M20 33.5c0-.8-.9-1.5-2-1.5s-2 .7-2 1.5.9 1.5 2 1.5 2-.7 2-1.5" fill="#f4900c"/><path d="M5.7 11.6a38.3 38.3 0 0 1 2.2-6C11 3 16 3 18 3s7 0 10.1 2.6a38.1 38.1 0 0 1 2.2 6C27.6 10 23.1 9 18 9s-9.6 1-12.3 2.6" fill="#ffcc4d"/></g></svg>