<svg xmlns="http://www.w3.org/2000/svg" viewBox="0 0 45 45"><defs><clipPath id="a"><path d="M0 36h36V0H0v36z"/></clipPath></defs><g clip-path="url(#a)" transform="matrix(1.25 0 0 -1.25 0 45)"><path d="M35 18a17 17 0 1 0-34 0 17 17 0 0 0 34 0" fill="#d99e82"/><path d="M22.6 19a2.3 2.3 0 1 0 1.4-4.2c-1.2-.4-3.9-.2-4.2 1-.4 1.1 1.7 2.9 2.8 3.3m8.6.6a1 1 0 1 0-1.6 1.4c.3.5 1.5 1 2 .7.4-.4 0-1.6-.4-2m-22 7A1 1 0 1 0 7.6 28c.4.5 1.5 1 2 .7.4-.4 0-1.6-.4-2m12.1 1.8a1.6 1.6 0 1 0 1.7 2.7c.8-.4 1.9-2 1.4-2.8-.4-.7-2.3-.4-3.1.1m-8-6.2a2.1 2.1 0 1 0 4 1.9c.5-1.1.6-3.7-.4-4.2-1.1-.5-3 1.2-3.5 2.3m1-14.1a2 2 0 0 0 2.7.5 2 2 0 0 0 .5-2.7c-.6-.7-2.6-2-3.4-1.4-1 .6-.4 2.8.2 3.7m10 .4a1.5 1.5 0 1 0 1.6 2.5c.7-.4 1.7-1.9 1.3-2.6-.5-.7-2.2-.3-2.9.1M5.5 17.6a2 2 0 1 0 3.1-2.8c-.7-.8-3-2-3.8-1.2-.9.8 0 3.1.7 4" fill="#8a4b38"/></g></svg>