<svg xmlns="http://www.w3.org/2000/svg" viewBox="0 0 45 45"><defs><clipPath id="a"><path d="M0 36h36V0H0v36z"/></clipPath><clipPath id="b"><path d="M17.2 13H9.8s1.4-6.5 2.4-9.8C13.2 0 16.8 0 17.6 0 19.2 0 22 0 23 3.3l3.2 9.7h-9z"/></clipPath><clipPath id="c"><path d="M0 36h36V0H0v36z"/></clipPath><clipPath id="d"><path d="M19.6 31.4l-7.9-3a3.5 3.5 0 0 1-2.3-3.2c0-1.9 1.7-3.4 3.7-3.4 4.8 0 9.6 3 9.6 3 1.8 1.1 2.6 3 1.8 4.7a3.8 3.8 0 0 1-3.5 2.2 4 4 0 0 1-1.4-.3"/></clipPath><clipPath id="e"><path d="M20.3 27.7l-10.2-4A4.8 4.8 0 0 1 7 19.3c0-2.7 2.2-4.8 4.9-4.8 6.1 0 12.4 4.2 12.4 4.2 2.4 1.4 3.4 3.9 2.3 6.3a4.9 4.9 0 0 1-4.5 3 5 5 0 0 1-1.8-.3"/></clipPath><clipPath id="f"><path d="M13.1 32a2.2 2.2 0 0 1 .9-4.2 11.7 11.7 0 0 1 7.7 3.8s.8 1.7-1.6 1.7a23.1 23.1 0 0 1-7-1.3"/></clipPath></defs><g clip-path="url(#a)" transform="matrix(1.25 0 0 -1.25 0 45)"><path d="M27 16c0-1.7-4-3-9-3s-9 1.3-9 3 4 3 9 3 9-1.3 9-3m-9.8-3H9.8s1.4-6.5 2.4-9.8C13.2 0 16.8 0 17.6 0 19.2 0 22 0 23 3.3l3.2 9.7h-9z" fill="#ffcc4d"/></g><g clip-path="url(#b)" transform="matrix(1.25 0 0 -1.25 0 45)"><path d="M26.2 11.5C26.2 9.8 23.4 8 18 8s-8.2 1.8-8.2 3.5 2.8 3 8.2 3 8.2-1.3 8.2-3" fill="#ffac33"/></g><g clip-path="url(#c)" transform="matrix(1.25 0 0 -1.25 0 45)"><path d="M9 16v-3c0-1.7 4-3 9-3s9 1.3 9 3v3H9z" fill="#ffcc4d"/><path d="M26.2 15.5c0-1.4-3.7-2.5-8.2-2.5s-8.2 1.1-8.2 2.5S13.5 18 18 18s8.2-1.1 8.2-2.5" fill="#f4900c"/><path d="M28.4 18.9a4.3 4.3 0 0 1-4.4 4.3c-2.4 0-14.2-4.8-14.2-7.2 0-2.4 8.1-2.3 13.8-1.4 2.4.4 4.8 1.8 4.8 4.2" fill="#ffe8b6"/><path d="M26.6 25a5 5 0 0 1-6.3 2.7l-10.2-4A4.8 4.8 0 0 1 7 19.3c0-2.7 2.2-4.8 4.9-4.8 6.1 0 12.4 4.2 12.4 4.2 2.4 1.4 3.4 3.9 2.3 6.3" fill="#ffe8b6"/><path d="M24.5 29.5c-.8 1.8-3 2.6-4.9 2l-7.9-3a3.5 3.5 0 0 1-2.3-3.3c0-1.9 1.7-3.4 3.7-3.4 4.8 0 9.6 3 9.6 3 1.8 1.1 2.6 3 1.8 4.7" fill="#ffe8b6"/><path d="M20.7 31s.6 1.9-1.8 1.9c-3.5 0-5.8-.9-5.8-.9a2.2 2.2 0 0 1 .9-4.2c2.7 0 5.6 2 5.6 2 1 .6 1 1.3 1 1.3" fill="#ffe8b6"/><path d="M17 35.9c1.8-2.4 4.1-1.2 4.7-3 .6-1.7-1.2-2.4-1.2-2.4h-4.7S14 34.1 17 36" fill="#ffe8b6"/></g><g clip-path="url(#d)" transform="matrix(1.25 0 0 -1.25 0 45)"><path d="M9.2 23.6c3.4 0 9.7 1.1 16.5 5.8 2 1.5 3.6-.8 2-2.4-1.7-1.6-14.1-7.4-18.4-6.6-4.2.8-.1 3.2-.1 3.2" fill="#ffd983"/></g><g clip-path="url(#e)" transform="matrix(1.25 0 0 -1.25 0 45)"><path d="M6.8 17.7c1.5-.7 5.5-.6 8 0s11.2 3.6 12.5 6.8c1.3 3 2.8.5 2.4-1.8S18.6 11.2 13.4 12.3c-5 1-8.3.8-8.6 2.6-.3 1.8 2 2.8 2 2.8" fill="#ffd983"/></g><g clip-path="url(#f)" transform="matrix(1.25 0 0 -1.25 0 45)"><path d="M11.5 29.4c2.4-.2 10.3 2.4 10.5 4.4.2 2.1 1.6-1.7 1.1-2.4s-10-5.7-13.4-3.5c-3.4 2.2 1.8 1.5 1.8 1.5" fill="#ffd983"/></g></svg>