<svg xmlns="http://www.w3.org/2000/svg" viewBox="0 0 45 45"><defs><clipPath id="a"><path d="M0 36h36V0H0v36z"/></clipPath><clipPath id="b"><path d="M22.8 7.4l.4-3c.5-4.1 5.6-4.3 6.2-2.2l1 4 4 1c2.2.6 2 5.7-2.1 6.3l-3 .4h-1c-3.6 0-6-2.7-5.5-6.5"/></clipPath><clipPath id="c"><path d="M7 34.6l-.9-4-4-1C-.1 29 0 24 4.2 23.4l3-.4c4.1-.6 7 2.3 6.5 6.4l-.4 3A3.9 3.9 0 0 1 9.4 36c-1.1 0-2.1-.5-2.4-1.4"/></clipPath><clipPath id="d"><path d="M0 36h36V0H0v36z"/></clipPath><clipPath id="e"><path d="M11.3 26.2a10.7 10.7 0 1 1 15 0 10.6 10.6 0 0 1-7.5 3.1 10.6 10.6 0 0 1-7.5-3"/></clipPath></defs><g clip-path="url(#a)" transform="matrix(1.25 0 0 -1.25 0 45)"><path d="M13.3 32.5c-.5 4-5.6 4.3-6.3 2l-.9-4-4-.9C-.1 29 0 24 4.2 23.4l3-.4c4.1-.6 7 2.3 6.5 6.4l-.4 3zm19-19c4-.6 4.3-5.7 2.1-6.3l-4-1-1-4c-.6-2-5.7-1.8-6.2 2.3l-.4 3c-.5 4.1 2.4 7 6.5 6.5l3-.4z" fill="#dd2e44"/></g><g clip-path="url(#b)" transform="matrix(1.25 0 0 -1.25 0 45)"><path d="M21.6 15.9c-2.9-2.8-3.8-6.6-2-8.3s5.4-.9 8.3 2c2.8 2.8 3.7 6.5 2 8.3-1.8 1.7-5.5.9-8.3-2" fill="#be1931"/></g><g clip-path="url(#c)" transform="matrix(1.25 0 0 -1.25 0 45)"><path d="M9.7 27.8c-2.9-2.9-3.8-6.6-2-8.3s5.5-.9 8.3 2c2.9 2.8 3.7 6.5 2 8.3-1.8 1.7-5.5.8-8.3-2" fill="#be1931"/></g><g clip-path="url(#d)" transform="matrix(1.25 0 0 -1.25 0 45)"><path d="M26.3 11.2a10.7 10.7 0 1 0-15 15 10.7 10.7 0 0 0 15-15" fill="#dd2e44"/></g><g clip-path="url(#e)" transform="matrix(1.25 0 0 -1.25 0 45)"><path d="M18.7 19c-4.2-2.6-11.3-3.2-12.5 1.6-1.1-2.7-1.2-5.4.3-7.1 1.4-1.7 8.2-1.5 12.2 5.5" fill="#f5f8fa"/><path d="M18.8 19c.6-4.8-2.6-12-7.5-11.2 2-2.2 4.5-3.3 6.6-2.7 2.2.7 5.6 7.4.8 13.9" fill="#f5f8fa"/><path d="M18.8 19c4.6-.9 8.2-5.5 6.3-10.1 2.6 1.5 5.1 2.5 5 4.8A7.7 7.7 0 0 1 18.7 19" fill="#f5f8fa"/><path d="M18.8 19c1.5 3.3 8.2 6.3 12.1 3.1-.7 2.9-.7 5.4-2.9 5.9s-10.2-1-9.3-9" fill="#f5f8fa"/><path d="M18.8 19c-3.9 2-5.8 8-1.8 11-3 0-6 0-7-2s.8-8 8.8-9" fill="#f5f8fa"/><path d="M26.3 11.2a10.7 10.7 0 1 0-15 15 10.7 10.7 0 0 0 15-15z" fill="none" stroke="#dd2e44" stroke-width="3" stroke-miterlimit="10"/></g></svg>