<svg xmlns="http://www.w3.org/2000/svg" viewBox="0 0 45 45"><defs><clipPath id="a"><path d="M0 36h36V0H0v36z"/></clipPath><clipPath id="b"><path d="M2.4 21a1 1 0 0 1-.4-.3C.7 19-.6 12.5 3 9s6.8-4.3 8.8-4.5h.1c2.5 0 18.3 10.8 19.5 13.2 1.4 2.9 1.3 8.4-2 10.3-.3.3-.9.4-1.6.4A141 141 0 0 1 2.4 21"/></clipPath><clipPath id="c"><path d="M0 36h36V0H0v36z"/></clipPath></defs><g clip-path="url(#a)" transform="matrix(1.25 0 0 -1.25 0 45)"><path d="M12 4.5a2.1 2.1 0 0 0-.2 0c-2 .2-6 1.4-8.8 5.5-2 3-2.3 9-1 10.7a1 1 0 0 0 .4.3c.8.3 19.8 7.4 25.4 7.4a3 3 0 0 0 1.7-.4c3.2-1.9 3.3-7.4 2-10.3A67.7 67.7 0 0 0 11.8 4.5" fill="#eee"/></g><g clip-path="url(#b)" transform="matrix(1.25 0 0 -1.25 0 45)"><path d="M13 17c-1-3-3-14 2-16s24 12 22 17.5S30 29 26 26s-13-9-13-9" fill="#ccd6dd"/></g><g clip-path="url(#c)" transform="matrix(1.25 0 0 -1.25 0 45)"><path d="M32 29.5a1 1 0 0 1-.8.2L1.8 25a1 1 0 0 1-.8-1v-4.1a1 1 0 0 1 .3-.8c2-1.7 8.7-6.1 10.3-6.9a1 1 0 0 1 1 .1c2.6 2 16.5 10 18.7 10.9a1 1 0 0 1 .6.8l.4 4.7a1 1 0 0 1-.3.9" fill="#a0041e"/><path d="M32 29.4c-2 2.3-9.5 5.6-10.8 5.6a1 1 0 0 1-.3 0A41 41 0 0 1 1.7 25l-.4-.3a1 1 0 0 1 0-1.6c.4-.2 8.4-6 10.3-7a1 1 0 0 1 1.2 0c4 3.6 17 11 18.9 11.7a1 1 0 0 1 .4 1.6" fill="#dd2e44"/><path d="M7.4 27.4c.9-2.6 1.3-5.4 1.8-7.8M13 30.8a59 59 0 0 0 2.2-11M19 33c1-3 1.6-7.8 1.8-9.4m4.7 8.4a21 21 0 0 0 1-5" fill="none" stroke="#ea596e" stroke-width="2" stroke-linecap="round" stroke-linejoin="round" stroke-miterlimit="10"/><path d="M32.1 13c-1.7 1.2-4 2-6.6 2s-5-.8-6.6-2H16V8c0-3.9 4.3-7 9.5-7S35 4.1 35 8v5h-2.9z" fill="#292f33"/><path d="M25.5 20c-5.2 0-9.5-3.1-9.5-7s4.3-7 9.5-7S35 9.1 35 13s-4.3 7-9.5 7" fill="#292f33"/><path d="M32.6 13c0-2.8-3.2-5-7.1-5s-7 2.2-7 5 3 5 7 5 7-2.2 7-5" fill="#e1e8ed"/><path d="M32.6 13c0-2.8-3.2-5-7.1-5s-7 2.2-7 5 3 5 7 5 7-2.2 7-5z" fill="none" stroke="#e1e8ed" stroke-width="1.7" stroke-linecap="round" stroke-linejoin="round" stroke-miterlimit="10"/><path d="M21.2 13.5c0 .4 1.8.3 4.3.3s4.2.5 4.2.1c0-1.8-1.7-3.5-4.2-3.5s-4.3 1.3-4.3 3" fill="#77b255"/><path d="M21.2 13.5c0 .4 1.8.3 4.3.3s4.2.5 4.2.1c0-1.8-1.7-3.5-4.2-3.5s-4.3 1.3-4.3 3z" fill="none" stroke="#77b255" stroke-miterlimit="10"/><path d="M30 14s-2 1-5 0c-2.4-.8-4-2.6-4-.8s2 3.2 4.5 3.2S30 15 30 14" fill="#f4900c"/><path d="M30 14s-2 1-5 0c-2.4-.8-4-2.6-4-.8s2 3.2 4.5 3.2S30 15 30 14z" fill="none" stroke="#f4900c" stroke-linecap="round" stroke-linejoin="round" stroke-miterlimit="10"/></g></svg>