<svg xmlns="http://www.w3.org/2000/svg" viewBox="0 0 45 45"><defs><clipPath id="a"><path d="M0 36h36V0H0v36z"/></clipPath><clipPath id="b"><path d="M10 34.3l-8.4-8.5c-1.6-1.5-1.6-2.6 0-4.2l19-19.1a4 4 0 0 1 5.7 0l7.1 7a4 4 0 0 1 0 5.7l-19 19.1c-.9.8-1.5 1.2-2.2 1.2-.7 0-1.3-.4-2.1-1.2"/></clipPath><clipPath id="c"><path d="M0 36h36V0H0v36z"/></clipPath><clipPath id="d"><path d="M19.3 25.1l-8.5-8.5a4 4 0 0 1 0-5.6l9.9-10a4 4 0 0 1 2-1h1.6a4 4 0 0 1 2 1l8.5 8.6a4 4 0 0 1 0 5.6l-9.9 10a4 4 0 0 1-2.8 1.1 4 4 0 0 1-2.8-1.2"/></clipPath><clipPath id="e"><path d="M0 36h36V0H0v36z"/></clipPath></defs><g clip-path="url(#a)" transform="matrix(1.25 0 0 -1.25 0 45)"><path d="M26.3 2.5a4 4 0 0 0-5.6 0L1.6 21.6c-1.6 1.6-1.6 2.7 0 4.2l8.5 8.5c1.6 1.6 2.7 1.6 4.2 0l19.1-19a4 4 0 0 0 0-5.7l-7-7.1z" fill="#c1694f"/></g><g clip-path="url(#b)" transform="matrix(1.25 0 0 -1.25 0 45)"><path d="M32 5.3L11.7 25.6l5.9 5.9-1.5 1.4-5.8-5.8-4.5 4.4-1.4-1.4L9 25.6l-7.6-7.5 1.4-1.4 7.6 7.5L30.6 4 32 5.3z" fill="#8a4b38"/></g><g clip-path="url(#c)" transform="matrix(1.25 0 0 -1.25 0 45)"><path d="M26.3 1a4 4 0 0 0-5.6 0l-10 10a4 4 0 0 0 0 5.7l8.6 8.4a4 4 0 0 0 5.6 0l10-9.9a4 4 0 0 0 0-5.6L26.2 1z" fill="#dd2e44"/></g><g clip-path="url(#d)" transform="matrix(1.25 0 0 -1.25 0 45)"><path d="M26 26L17 3l-6 3 13 21 2-1z" fill="#be1931"/></g><g clip-path="url(#e)" transform="matrix(1.25 0 0 -1.25 0 45)"><path d="M22.8 27.3l2.1-2.2c-.7-2-8.5-15.5-9.9-18.4 0 0-.7-2-2.4-.3l-5.3 5.3c-.7.7-.7 2.1 0 2.8L20 27.3c1.4 1.4 2.8 0 2.8 0" fill="#ccd6dd"/></g></svg>