<svg xmlns="http://www.w3.org/2000/svg" viewBox="0 0 45 45"><defs><clipPath id="a"><path d="M0 36h36V0H0v36z"/></clipPath></defs><g clip-path="url(#a)" transform="matrix(1.25 0 0 -1.25 0 45)"><path d="M35 1a2 2 0 0 0-2.7 0L12.2 21a2 2 0 1 0 2.8 2.8L35 3.7a2 2 0 0 0 0-2.8" fill="#ffac33"/><path d="M27.8 22A13.7 13.7 0 1 0 .4 22a13.7 13.7 0 0 0 27.4 0" fill="#dd2e44"/><path d="M16 21.2a1 1 0 0 1 .5.3 1.8 1.8 0 0 0-1-1.3 1.3 1.3 0 0 0-1-.1 1.3 1.3 0 0 0-.7.6.8.8 0 0 0 .4 1 .5.5 0 0 0 .6-.1 1 1 0 0 1 1.3-.4m1.3-12.6a12.3 12.3 0 0 0-4.4.5 12.3 12.3 0 0 0-7.3 6 9.6 9.6 0 0 0-.7 7.4 9.6 9.6 0 0 0 4.7 5.7 7.5 7.5 0 0 0 5.8.6 7.5 7.5 0 0 0 4.4-3.7 5.8 5.8 0 0 0 .5-4.4 5.8 5.8 0 0 0-2.9-3.5 4.5 4.5 0 0 0-3.4-.3 4.5 4.5 0 0 0-2.6 2.2 3.4 3.4 0 0 0 1.4 4.5 2.5 2.5 0 0 0 1.9.2l.6-.3a2.4 2.4 0 0 1-2.2 0 2.8 2.8 0 0 1-1.1-3.7 3.2 3.2 0 0 1 1.9-1.6 3.2 3.2 0 0 1 2.4.2 3.8 3.8 0 0 1 1.6 5.1 4.4 4.4 0 0 1-2.7 2.2 4.5 4.5 0 0 1-3.4-.3A5.3 5.3 0 0 1 9.7 18a6.4 6.4 0 0 1 3.8-3 6.4 6.4 0 0 1 5 .4 7.8 7.8 0 0 1 3.7 4.6 7.8 7.8 0 0 1-.5 6 9.4 9.4 0 0 1-5.7 4.6 9.4 9.4 0 0 1-7.2-.7A11.6 11.6 0 0 1 3 23a11.6 11.6 0 0 1 .9-8.8 14.3 14.3 0 0 1 3.6-4.4A13.7 13.7 0 0 1 14 8.2a13.7 13.7 0 0 1 3.3.4" fill="#f4900c"/><path d="M14.7 21.5a.6.6 0 0 0-.3-.3 1.1 1.1 0 0 1 0-2 2.2 2.2 0 0 0-.6.1 2 2 0 0 0-1.2 1.1 1.5 1.5 0 0 0 0 1.2c0 .4.4.7.7.8a1 1 0 0 0 .8 0 1 1 0 0 0 .5-.5.6.6 0 0 0 0-.4m10 6a15.2 15.2 0 0 1-11.9 8h-.6a13.7 13.7 0 0 1-8.9-5.2 12.1 12.1 0 0 0 9.3 3c4.8-.6 8.7-3.8 10-6.7 2-4.5 0-9.7-4.4-11.7a6.8 6.8 0 0 0-5.3-.2A6.8 6.8 0 0 0 9 18.3a5.3 5.3 0 0 0 2.6 7 4 4 0 0 0 5.3-2 3 3 0 0 0-.8-3.5c.3.2.5.6.6 1a2.8 2.8 0 0 1 0 2 3.2 3.2 0 0 1-1.8 1.7 3.2 3.2 0 0 1-2.5 0 3.7 3.7 0 0 1-2-2.1 3.7 3.7 0 0 1 .2-2.9 4.3 4.3 0 0 1 2.4-2.3 4.3 4.3 0 0 1 3.3.1 5.2 5.2 0 0 1 2.6 6.9 6.2 6.2 0 0 1-8.2 3A7.5 7.5 0 0 1 7 17.5a9 9 0 0 1 5-4.7 9 9 0 0 1 3.3-.6 9 9 0 0 1 3.7.8 11 11 0 0 1 5.5 14.6" fill="#ffcc4d"/></g></svg>