<svg xmlns="http://www.w3.org/2000/svg" viewBox="0 0 45 45"><defs><clipPath id="a"><path d="M0 36h36V0H0v36z"/></clipPath></defs><g clip-path="url(#a)" transform="matrix(1.25 0 0 -1.25 0 45)"><path d="M35.3 12.4C34.3 6.2 27.6 2 18.1 2S1.9 6.2.8 12.4A26 26 0 0 0 2 21.9c2.6 3.7 3.5-10.3 16.2-10.3 13.8 0 13.6 14 16.2 10.4a25 25 0 0 0 1-9.4" fill="#ffac33"/><path d="M18.1 16.6c-3.2 0-5.8.7-5.8 1.6s2.6 1.6 5.8 1.6 5.7-.7 5.7-1.6-2.5-1.6-5.7-1.6M18 30C8.8 30 1.2 25.4 1.2 19.8 1.2 14 8.8 9.5 18.1 9.5c9.3 0 16.9 4.6 16.9 10.3C35 25.4 27.4 30 18.1 30" fill="#8a4b38"/><path d="M1.7 21.4c-.6-1-.9-5.5.5-7.6 2.1-3.2 3.2-1.6 4.8-2 2.3-.8 2.5-2.6 4.3-3.5 2-1 3.3-.8 6.3 0 4.1 1 6.8-1.1 9.4 0 2 .9 3.3 4.1 4.5 4.5 3.7 1.2 4.5 7.1 1.7 9.5-.9-1.8-5.1-8.4-7.9-8.7-2.7-.3-11-1-14.4.8A44 44 0 0 0 3.4 19l-1.7 2.4" fill="#8a4b38"/><path d="M18.1 22.1c-3.8 0-6.8-1.2-6.8-2.7 0-.6.5-1.2 1.2-1.6l-.2.4c0 .9 2.6 1.6 5.8 1.6 3.2 0 5.7-.7 5.7-1.6 0-.1 0-.3-.2-.4.8.4 1.3 1 1.3 1.6 0 1.5-3 2.7-6.8 2.7" fill="#f4900c"/><path d="M4.4 17.9a1 1 0 0 0-.5 2L6.2 21a1 1 0 0 0 1.4-.4 1 1 0 0 0-.4-1.4L5 18a1 1 0 0 0-.5-.2m12-7.8a1 1 0 0 0-1 .7l-.8 1.8a1 1 0 1 0 2 .8l.7-1.8a1 1 0 0 0-1-1.4" fill="#f4abba"/><path d="M28.1 14.2a1 1 0 0 0-.9 1.6l1.2 2a1 1 0 1 0 1.8-1.1l-1.1-2a1 1 0 0 0-1-.5" fill="#55acee"/><path d="M29.9 22a1 1 0 0 0 0 2.1l1.2.1c.6 0 1-.4 1-1a1 1 0 0 0-1-1.1L30 22zm-10.1 4.1a1 1 0 0 0-.3 2l.8.3a1 1 0 1 0 .6-2l-.8-.2a1 1 0 0 0-.3 0" fill="#f4abba"/><path d="M14 24.4l-.5.1-.8.4a1 1 0 0 0 1 1.9l.8-.4a1 1 0 0 0-.5-2m9.1-13.2a1 1 0 0 0-.5 0l-.8.5a1 1 0 1 0 1 1.8l.8-.4a1 1 0 0 0-.5-2" fill="#88c9f9"/><path d="M9.4 13.4a1 1 0 0 0-1 1.5l.5 1a1 1 0 1 0 1.9-.9l-.4-1a1 1 0 0 0-1-.6m15.6 10a1 1 0 0 0-.4 2l.7.2a1 1 0 0 0 1.4-.5 1 1 0 0 0-.6-1.4l-.7-.3a1 1 0 0 0-.4 0m-17 0h-.2l-.6.1a1 1 0 0 0 .5 2h.6a1 1 0 0 0-.3-2.1" fill="#55acee"/></g></svg>