<svg xmlns="http://www.w3.org/2000/svg" viewBox="0 0 45 45"><defs><clipPath id="a"><path d="M0 36h36V0H0v36z"/></clipPath><clipPath id="b"><path d="M9 23a3.8 3.8 0 0 1-3.8-4l.6-14c.1-2.2 2-4 4.2-4h16c2.2 0 4 1.8 4.2 4l.6 14a3.8 3.8 0 0 1-3.8 4H9z"/></clipPath><clipPath id="c"><path d="M5 19h26v-2H5v2z"/></clipPath><clipPath id="d"><path d="M0 36h36V0H0v36z"/></clipPath></defs><g clip-path="url(#a)" transform="matrix(1.25 0 0 -1.25 0 45)"><path d="M7 22.5a2.5 2.5 0 1 0-5 0 2.5 2.5 0 0 0 5 0m27 0a2.5 2.5 0 1 0-5 0 2.5 2.5 0 0 0 5 0" fill="#e1e8ed"/><path d="M31.6 19H4.4v4h27.2v-4z" fill="#e1e8ed"/><path d="M31 21H4.9v4h26.7l-.6-4z" fill="#e1e8ed"/><path d="M12 26.5a3.5 3.5 0 1 0-7 0 3.5 3.5 0 0 0 7 0" fill="#ffd983"/><path d="M14 29.5a2.5 2.5 0 1 0-5 0 2.5 2.5 0 0 0 5 0" fill="#ffd983"/><path d="M16 27.5a2.5 2.5 0 1 0-5 0 2.5 2.5 0 0 0 5 0" fill="#ffd983"/><path d="M20 29.5a2.5 2.5 0 1 0-5 0 2.5 2.5 0 0 0 5 0" fill="#ffd983"/><path d="M20 27.5a2.5 2.5 0 1 0-5 0 2.5 2.5 0 0 0 5 0m6 5a2.5 2.5 0 1 0-5 0 2.5 2.5 0 0 0 5 0" fill="#ffd983"/><path d="M26 27.5a2.5 2.5 0 1 0-5 0 2.5 2.5 0 0 0 5 0" fill="#ffd983"/><path d="M27 24.5a2.5 2.5 0 1 0-5 0 2.5 2.5 0 0 0 5 0" fill="#ffd983"/><path d="M23 24.5a2.5 2.5 0 1 0-5 0 2.5 2.5 0 0 0 5 0" fill="#ffd983"/><path d="M20 23.5a2.5 2.5 0 1 0-5 0 2.5 2.5 0 0 0 5 0" fill="#ffd983"/><path d="M18 24.5a2.5 2.5 0 1 0-5 0 2.5 2.5 0 0 0 5 0" fill="#ffd983"/><path d="M16 24.5a2.5 2.5 0 1 0-5 0 2.5 2.5 0 0 0 5 0" fill="#ffd983"/><path d="M14 23.5a2.5 2.5 0 1 0-5 0 2.5 2.5 0 0 0 5 0" fill="#ffd983"/><path d="M11 23.5a2.5 2.5 0 1 0-5 0 2.5 2.5 0 0 0 5 0m19-1a2.5 2.5 0 1 0-5 0 2.5 2.5 0 0 0 5 0m-2 6a2.5 2.5 0 1 0-5 0 2.5 2.5 0 0 0 5 0" fill="#ffd983"/><path d="M31 25.5a2.5 2.5 0 1 0-5 0 2.5 2.5 0 0 0 5 0m-7 4a2.5 2.5 0 1 0-5 0 2.5 2.5 0 0 0 5 0" fill="#ffd983"/><path d="M23 27.5a2.5 2.5 0 1 0-5 0 2.5 2.5 0 0 0 5 0m5 4a1.5 1.5 0 1 0-3 0 1.5 1.5 0 0 0 3 0m3-3a1.5 1.5 0 1 0-3 0 1.5 1.5 0 0 0 3 0m1-5a1.5 1.5 0 1 0-3 0 1.5 1.5 0 0 0 3 0m-25 0a1.5 1.5 0 1 0-3 0 1.5 1.5 0 0 0 3 0" fill="#ffd983"/><path d="M29 29.5a1.5 1.5 0 1 0-3 0 1.5 1.5 0 0 0 3 0" fill="#ffd983"/><path d="M26 30.5a1.5 1.5 0 1 0-3 0 1.5 1.5 0 0 0 3 0m-14-5a1.5 1.5 0 1 0-3 0 1.5 1.5 0 0 0 3 0" fill="#ffac33"/><path d="M14 24.5a1.5 1.5 0 1 0-3 0 1.5 1.5 0 0 0 3 0" fill="#ffac33"/><path d="M12 23.5a1.5 1.5 0 1 0-3 0 1.5 1.5 0 0 0 3 0" fill="#ffac33"/><path d="M11 23.5a1.5 1.5 0 1 0-3 0 1.5 1.5 0 0 0 3 0" fill="#ffac33"/><path d="M9 23.5a1.5 1.5 0 1 0-3 0 1.5 1.5 0 0 0 3 0m7-1a1.5 1.5 0 1 0-3 0 1.5 1.5 0 0 0 3 0m4 4a1.5 1.5 0 1 0-3 0 1.5 1.5 0 0 0 3 0m11-3a1.5 1.5 0 1 0-3 0 1.5 1.5 0 0 0 3 0" fill="#ffac33"/><path d="M19 24.5a1.5 1.5 0 1 0-3 0 1.5 1.5 0 0 0 3 0" fill="#ffac33"/><path d="M18 22.5a1.5 1.5 0 1 0-3 0 1.5 1.5 0 0 0 3 0M29 28a1 1 0 1 0-2 0 1 1 0 0 0 2 0m0-5a1 1 0 1 0-2 0 1 1 0 0 0 2 0m-16 6a1 1 0 1 0-2 0 1 1 0 0 0 2 0m13-4a2 2 0 1 0-4 0 2 2 0 0 0 4 0" fill="#ffac33"/><path d="M23 24a2 2 0 1 0-4 0 2 2 0 0 0 4 0" fill="#ffac33"/><path d="M26 22a2 2 0 1 0-4 0 2 2 0 0 0 4 0m-3 5a2 2 0 1 0-4 0 2 2 0 0 0 4 0" fill="#ffac33"/><path d="M22 25.5a1.5 1.5 0 1 0-3 0 1.5 1.5 0 0 0 3 0m-9-2a1.5 1.5 0 1 0-3 0 1.5 1.5 0 0 0 3 0" fill="#ffd983"/><path d="M11 22.5a1.5 1.5 0 1 0-3 0 1.5 1.5 0 0 0 3 0m9 1a1.5 1.5 0 1 0-3 0 1.5 1.5 0 0 0 3 0m3 0a1.5 1.5 0 1 0-3 0 1.5 1.5 0 0 0 3 0" fill="#ffd983"/><path d="M22 23.5a1.5 1.5 0 1 0-3 0 1.5 1.5 0 0 0 3 0" fill="#ffd983"/><path d="M30.2 5c-.1-2.2-2-4-4.2-4H10C7.8 1 6 2.8 5.8 5l-.6 14A3.8 3.8 0 0 0 9 23h18a3.8 3.8 0 0 0 3.8-4l-.6-14z" fill="#e1e8ed"/></g><g clip-path="url(#b)" transform="matrix(1.25 0 0 -1.25 0 45)"><path d="M17.7 20h1c-.5 0-2 .7-2-1V1h3v18c0 1.7-1.5 1-2 1m6 0h1c-.5 0-2 .7-2-1V1h3v18c0 1.7-1.5 1-2 1m6 0h1c-.5 0-2 .7-2-1V1h3v18c0 1.7-1.5 1-2 1m-18 0h1c-.5 0-2 .7-2-1V1h3v18c0 1.7-1.5 1-2 1m-6 0h1c-.5 0-2 .7-2-1V1h3v18c0 1.7-1.5 1-2 1" fill="#da2f47"/><g clip-path="url(#c)" opacity=".6"><path d="M31 17H5v2h26v-2z" fill="#99aab5"/></g></g><g clip-path="url(#d)" transform="matrix(1.25 0 0 -1.25 0 45)"><path d="M34 21c0-1.1-1.1-2-2.5-2s-2.5.9-2.5 2 1.1 2 2.5 2 2.5-.9 2.5-2M7 21c0-1.1-1.1-2-2.5-2S2 19.9 2 21s1.1 2 2.5 2S7 22.1 7 21" fill="#e1e8ed"/><path d="M31.6 19H4.4v4h27.2v-4z" fill="#e1e8ed"/><path d="M32 22a1 1 0 0 0-1-1H5a1 1 0 0 0 0 2h26a1 1 0 0 0 1-1" fill="#fff"/><path d="M33.3 24.3c.3-.4 2.1-2.5 0-4.7-.3.2-.7 4-.5 4.2.1.3.5.4.5.4m-30.6 0c-.2-.3-2.2-2.4 0-4.5.3 0 .8 3.8.6 4a1.8 1.8 0 0 1-.6.5" fill="#e1e8ed"/></g></svg>