<svg xmlns="http://www.w3.org/2000/svg" viewBox="0 0 45 45"><defs><clipPath id="a"><path d="M0 36h36V0H0v36z"/></clipPath><clipPath id="b"><path d="M6 34a2 2 0 0 1-2-2V2a2 2 0 0 1 2-2h18a2 2 0 0 1 2 2v30a2 2 0 0 1-2 2H6z"/></clipPath><clipPath id="c"><path d="M0 36h36V0H0v36z"/></clipPath></defs><g clip-path="url(#a)" transform="matrix(1.25 0 0 -1.25 0 45)"><path d="M23 26V10h6s2 0 2 2v12c0 2-2 2-2 2h-6zm8-20h-8a4 4 0 0 0-4 4v16a4 4 0 0 0 4 4h8a4 4 0 0 0 4-4V10a4 4 0 0 0-4-4" fill="#ffac33"/><path d="M26 28a4 4 0 0 1-4 4H8a4 4 0 0 1-4-4V4a4 4 0 0 1 4-4h14a4 4 0 0 1 4 4v24z" fill="#ffcc4d"/><path d="M9 3a1 1 0 0 0-1 1v16a1 1 0 0 0 2 0V4a1 1 0 0 0-1-1m6 0a1 1 0 0 0-1 1v16a1 1 0 0 0 2 0V4a1 1 0 0 0-1-1m6 0a1 1 0 0 0-1 1v16a1 1 0 1 0 2 0V4a1 1 0 0 0-1-1" fill="#f4900c"/></g><g clip-path="url(#b)" transform="matrix(1.25 0 0 -1.25 0 45)"><path d="M25 30a3 3 0 0 1-2.9-2.1 2.5 2.5 0 0 1-.6.1c-.6 0-1.1-.2-1.6-.6A4 4 0 0 1 16 31a4 4 0 0 1-4-3.3 2 2 0 0 1-1 .3 2 2 0 0 1-1.3-.5A4 4 0 0 1 6 30c-2.2 0-4 5-4-4a4 4 0 1 1 7.7-1.5 2 2 0 0 1 3 .3A4 4 0 0 1 16 23a4 4 0 0 1 3.2 1.6 2.5 2.5 0 0 1 2.3-1.6c1 0 1.8.5 2.2 1.3A3 3 0 0 1 25 24a3 3 0 0 1 3 3c0 5-1.3 3-3 3" fill="#ffac33"/></g><g clip-path="url(#c)" transform="matrix(1.25 0 0 -1.25 0 45)"><path d="M28 32c0 2-2 4-4 4H6c-2 0-4-2-4-4v-2.3A48.7 48.7 0 0 1 2 28a4 4 0 1 1 7.7-1.5 2 2 0 0 1 3 .3A4 4 0 0 1 16 25a4 4 0 0 1 3.2 1.6 2.5 2.5 0 0 1 2.3-1.6c1 0 1.8.5 2.2 1.3A3 3 0 0 1 25 26a3 3 0 0 1 3 3v3z" fill="#e1e8ed"/></g></svg>