<svg xmlns="http://www.w3.org/2000/svg" viewBox="0 0 45 45"><defs><clipPath id="a"><path d="M0 36h36V0H0v36z"/></clipPath><clipPath id="b"><path d="M18.5 16.6c-.4-.8.6-2 1.5-.5.9 1.4 6.7 13.7 6.7 13.7l-2 1.3-6.2-14.6"/></clipPath><clipPath id="c"><path d="M0 36h36V0H0v36z"/></clipPath><clipPath id="d"><path d="M16.5 33.7c-.4-1.5 1.5-4.3 7.9-7.3 4.2-2 6.6-2.5 8-2.5 1.4 0 2 .6 2.2 1 .2.5.1 1-.2 1.5l-5.6 8a1 1 0 0 1-.8.3 1927.8 1927.8 0 0 0-10.2 0c-.7 0-1.2-.3-1.3-1"/></clipPath><clipPath id="e"><path d="M0 36h36V0H0v36z"/></clipPath></defs><g clip-path="url(#a)" transform="matrix(1.25 0 0 -1.25 0 45)"><path d="M19 8.7s8 .3 9.7 4.1c1 2.5-.7 9.6-.7 14 0 1.4-1.1 2.2-3.4 2.2H10.1c-1.1 0-3.3.3-3.3-2.1 0-4.3-1.8-11.4-.6-13.8C8 9 16 8.7 16 8.7v-3l-5.5-3c-1-.5-.3-1.4 0-1.6.7-.2 2.3-1 6.9-1C22 0 23.6.8 24 1c.2 0 1.4 1 0 1.8-2.3 1.5-5 2.8-5 2.8v3.2z" fill="#8899a6"/><path d="M28 27.6c0-1.7-2.5-3-10.6-3S6.8 26 6.8 27.6s2.5 2.9 10.6 2.9c8 0 10.6-1.3 10.6-3" fill="#ccd6dd"/><path d="M8.5 27.4c2-9.5-2.5-13.6 2-15.1 5.5-2 8.6-1.6 13.5 0 4.5 1.4 1.5 6.8 2.1 14.8.2 2-17.6.3-17.6.3" fill="#ccd6dd"/><path d="M9 21.4c0-1-1-6.1-.6-7.3.5-1.2 1.8-3.2 9-3.2 5.2 0 8.5 1.6 9 3.6.5 1.7-.2 5.5-.3 7" fill="#f4900c"/><path d="M26 21.5c0-.8-3.8-1.5-8.5-1.5S9 20.7 9 21.5s3.8 1.5 8.5 1.5 8.5-.7 8.5-1.5" fill="#ffcc4d"/><path d="M24.8 31.1l-6.3-14.6c-.4-.7.6-1.8 1.5-.4.8 1.4 6.7 13.7 6.7 13.7l-2 1.3z" fill="#c1694f"/><path d="M17.3 24.3c-4.3 0-7.7 1-9 1.6a1 1 0 0 0-.4 1.4 1 1 0 0 0 1.3.4s7.7-3.2 16.6.2a1 1 0 1 0 .7-2 25.6 25.6 0 0 0-9.2-1.6" fill="#fff"/><path d="M28 34.8H17.8c-1 0-.3-3 7-6.5 7.1-3.4 9.5-2.3 8.8-1.5a399.5 399.5 0 0 1-5.6 8" fill="#77b255"/></g><g clip-path="url(#b)" transform="matrix(1.25 0 0 -1.25 0 45)"><path d="M20.4 21.8c1-.6 1.9-.7 2.8-.6.9.2.7-.6-.3-.8-1-.2-2.8-.4-4-.3-1.2 0 1.5 1.7 1.5 1.7" fill="#ffac33"/><path d="M18.5 20l4.4.3c.7.2.4-6.2-1.9-6.1-2.3 0-4.8-1-4.3 1.2.5 2 1.8 4.6 1.8 4.6" fill="#cc6f00"/></g><g clip-path="url(#c)" transform="matrix(1.25 0 0 -1.25 0 45)"><path d="M32.3 24c-1.3 0-3.7.4-8 2.4-6.3 3-8.2 5.9-7.8 7.3a1.3 1.3 0 0 0 1.3 1H28a1 1 0 0 0 .8-.4c.2-.2 4.6-6.3 5.6-8 .3-.3.4-.9.2-1.3-.2-.5-.8-1-2.3-1" fill="#77b255"/></g><g clip-path="url(#d)" transform="matrix(1.25 0 0 -1.25 0 45)"><path d="M29.6 34c.9-1.8 3.5-8.7-4.3-8.4 3.4-3.3 2.9-8.6 7.3-5.4 4.4 3 6.9 8.6 4.4 10.6S29.6 34 29.6 34" fill="#5c913b"/></g><g clip-path="url(#e)" transform="matrix(1.25 0 0 -1.25 0 45)"><path d="M29.9 34.3a1.7 1.7 0 1 0-3.4 0 1.7 1.7 0 0 0 3.4 0" fill="#3e721d"/></g></svg>