<svg xmlns="http://www.w3.org/2000/svg" viewBox="0 0 45 45"><defs><clipPath id="a"><path d="M0 36h36V0H0v36z"/></clipPath></defs><g clip-path="url(#a)" transform="matrix(1.25 0 0 -1.25 0 45)"><path d="M36 11c0-5.5-8-10-18-10S0 5.5 0 11s8 10 18 10 18-4.5 18-10" fill="#939598"/><path d="M36 13c0-5.5-8-10-18-10S0 7.5 0 13s8 10 18 10 18-4.5 18-10" fill="#f1f2f2"/><path d="M32.8 13.4c0-4.2-6.6-7.6-14.8-7.6S3.2 9.2 3.2 13.4C3.2 17.6 9.8 21 18 21s14.8-3.4 14.8-7.6" fill="#fff"/><path d="M8 8c0 3 .4 7.2 0 13.9.6 1.4 6.2 2.5 6.7 3.8 1.3 3.5-1.2 5.9 1.3 8.3 2 2 5 2 6-1 2 2 6 1 6-2 4 1 6-3 3-6 0-1-1-9-1-11s-.2-1.8-5.2-2.8L8 8" fill="#e1e8ed"/><path d="M8 9v12s21 7 21 2.5V13L8 9z" fill="#ffac33"/><path d="M8 10v10s12.4 4.2 20 4V14L8 10z" fill="#ffd983"/><path d="M8 15v1l21 4v-1L8 15z" fill="#ffac33"/><path d="M8 22l9 9c2 0 8-1 11-5L8 22" fill="#e1e8ed"/><path d="M30 26c1 1 1 5-3 4 0 1-2 4-5 2 0 1-5 2-6 0 10-3 14-6 14-6" fill="#fff"/><path d="M18 25.5c-1.9.2-4.5 1.1-4 3.5s2.5 5 3.8 5.6c1.1.6 2.3.1 3.2-3.3.6-2.2 2.8-5-1.7-5.7H18" fill="#dd2e44"/><path d="M18.4 31a.5.5 0 0 0-.4.2l-.5.6a.5.5 0 1 0 .8.6l.5-.6a.5.5 0 0 0-.4-.8M16 27.5a.5.5 0 0 0-.5.6l.2 1a.5.5 0 0 0 1-.3l-.3-1a.5.5 0 0 0-.4-.3m4.3-.1a.5.5 0 0 0-.2 0l-.8.5a.5.5 0 0 0-.1.7.5.5 0 0 0 .6.2l.8-.5a.5.5 0 1 0-.3-1" fill="#f4abba"/></g></svg>