<svg xmlns="http://www.w3.org/2000/svg" viewBox="0 0 45 45"><defs><clipPath id="a"><path d="M0 36h36V0H0v36z"/></clipPath></defs><g clip-path="url(#a)" transform="matrix(1.25 0 0 -1.25 0 45)"><path d="M19 15.7l12.6 12c1.1 1-.7 2.3-3 2.3H6.1c-1.1 0-4.5-.7-2.8-2.4L16 15.7v-10l-5.5-3c-1-.5-.3-1.4 0-1.6.7-.3 2.3-1 6.9-1C22 0 23.6.8 24 1c.2 0 1.4 1 0 1.7-2.3 1.6-5 2.9-5 2.9v10.2z" fill="#8899a6"/><path d="M32 28.6c0-1.7-6.5-3-14.6-3S2.8 27 2.8 28.6s6.5 2.9 14.6 2.9 14.6-1.3 14.6-3" fill="#ccd6dd"/><path d="M4.5 28.4c1.2-1.2 8.5-7.2 11.7-9.8.9-.8 2-.6 2.8-.1L30 28l-25.6.4z" fill="#ccd6dd"/><path d="M16.9 19.5c-.3 0 0 .8.2 1.3l7.5 14.5a1.1 1.1 0 1 0 1.9-1l-8.7-14c-.1-.2-.7-1-1-.8" fill="#662113"/><path d="M21.8 28.1c1-.6 2-2.6 1.1-4-.7-1.4-3-1.7-4-1-1.2.6-2.1 2.5-1.2 4 .8 1.5 3 1.7 4 1" fill="#5c913b"/><path d="M16.8 25.2c-3.8 0-7.4.5-10.7 1.5h-.2a1 1 0 0 0 .6 2h.1c6.6-2 14-2 22 0a1 1 0 0 0 1.2-.7 1 1 0 0 0-.7-1.2 51.7 51.7 0 0 0-12.3-1.6" fill="#fff"/></g></svg>