<svg xmlns="http://www.w3.org/2000/svg" viewBox="0 0 45 45"><defs><clipPath id="a"><path d="M0 36h36V0H0v36z"/></clipPath></defs><g clip-path="url(#a)" transform="matrix(1.25 0 0 -1.25 0 45)"><path d="M33 15a43 43 0 0 1-3.7 10c1.8 1.3 3.4 3.7 3.4 8.5-.7.5-1.3.5-2.7.5-1.4 0-3.8 1-3.8 1H25s-2.2-1-2.9-1-3 0-3.5-.4c0-4.7 1.6-7.2 3.3-8.5A54.1 54.1 0 0 1 18 15c-1-4 0-9.3 0-9.5.3-1.6 2.3-3.5 7.5-3.5s7 2 7.5 3.5c0 .2 1 4.5 0 9.5" fill="#55acee"/><path d="M32.6 33.7c0-1-2.1-1.8-7-1.8s-7.1.8-7.1 1.8 2.1 1.8 7 1.8 7.1-.8 7.1-1.8" fill="#3b88c3"/><path d="M25.4 31.4a17 17 0 0 0-6.1 1 1 1 0 1 0 .8 1.8c.8-.4 5.6-1.7 11 0a1 1 0 1 0 .7-1.8 20.3 20.3 0 0 0-6.4-1" fill="#88c9f9"/><path d="M19.6 11.6c0 1.1-.8 1.4-2.5 1.4H4.8c-.8 0-2.4.5-2.4-1.3C2.4 1.5 8.6-.2 10.7-.2c3 0 9 1.6 9 11.8" fill="#ccd6dd"/><path d="M19.6 12.3c0-1.2-2.6-2.2-8.6-2.2s-8.7 1-8.7 2.2c0 1.2 2.7 2.2 8.7 2.2s8.6-1 8.6-2.2" fill="#8899a6"/><path d="M10.8 9.7c-3.8 0-6.6.8-7.4 1.2a1 1 0 0 0 .9 1.8c.9-.4 6.9-2.1 13.6 0a1 1 0 0 0 1.3-.6 1 1 0 0 0-.7-1.2 24.6 24.6 0 0 0-7.7-1.2" fill="#fff"/><path d="M28.7 19.6c0-1-.8-1.7-1.8-1.7s-1.8.8-1.8 1.7.8 1.7 1.8 1.7 1.8-.7 1.8-1.7" fill="#88c9f9"/><path d="M30.7 17.6c0-1-.8-1.7-1.8-1.7s-1.8.8-1.8 1.7.8 1.7 1.8 1.7 1.8-.7 1.8-1.7" fill="#88c9f9"/><path d="M28.7 16.6c0-1-.8-1.7-1.8-1.7s-1.8.8-1.8 1.7.8 1.7 1.8 1.7 1.8-.7 1.8-1.7M22 10a1.3 1.3 0 0 0 .7-1.7 1.3 1.3 0 0 0-1.7-.7 1.3 1.3 0 0 0-.7 1.7c.3.7 1 1 1.7.7" fill="#88c9f9"/><path d="M24 10.9a1.3 1.3 0 0 0 .7-1.7 1.3 1.3 0 0 0-1.7-.8 1.3 1.3 0 0 0-.7 1.7c.3.7 1 1 1.7.8" fill="#88c9f9"/><path d="M24.1 9.2a1.3 1.3 0 0 0 .7-1.7 1.3 1.3 0 0 0-1.6-.7 1.3 1.3 0 0 0-.7 1.7c.2.7 1 1 1.6.7" fill="#88c9f9"/><path d="M28.8 17.9a1.1 1.1 0 1 0-2.3 0 1.1 1.1 0 0 0 2.3 0m-5-9a.8.8 0 1 0-1.6 0 .8.8 0 0 0 1.6 0" fill="#bbddf5"/></g></svg>