<svg xmlns="http://www.w3.org/2000/svg" viewBox="0 0 45 45"><defs><clipPath id="a"><path d="M0 36h36V0H0v36z"/></clipPath></defs><g clip-path="url(#a)" transform="matrix(1.25 0 0 -1.25 0 45)"><path d="M36 10c0-5.5-8-10-18-10S0 4.5 0 10s8 10 18 10 18-4.5 18-10" fill="#292f33"/><path d="M36 12c0-5.5-8-10-18-10S0 6.5 0 12s8 10 18 10 18-4.5 18-10" fill="#66757f"/><path d="M18 5C3 5 1 20 1 24h34c0-2-2-19-17-19" fill="#e1e8ed"/><path d="M35 24c0-5.3-7.6-9.5-17-9.5S1 18.7 1 23.9c0 5.3 7.6 8.5 17 8.5s17-3.2 17-8.5" fill="#77b255"/><path d="M33 23c0-3.9-6.7-7-15-7S3 19.1 3 23s6.7 7 15 7 15-3.1 15-7" fill="#a6d388"/><path d="M21 19a1 1 0 0 0-.7.3c-2.3 2.3-2.4 4.9-.1 8.3.7 1 .9 2.2.5 3.3-.5 1.3-1.5 2-1.8 2.1a1 1 0 0 0-1 1c0 .6.6 1 1.1 1 1 0 2.4-1.1 3.2-2.6a5.6 5.6 0 0 0-.4-6c-2-2.9-1.5-4.3 0-5.7A1 1 0 0 0 21 19m-6 2a1 1 0 0 0-.7.3c-2.3 2.3-2.4 4.9-.1 8.3.7 1 .9 2 .5 2.9A3 3 0 0 1 13 34a1 1 0 0 0-1 1 1 1 0 0 0 1 1c1 0 2.6-1 3.4-2.4.4-1 1-2.8-.6-5.2-2-2.9-1.5-4.3 0-5.7A1 1 0 0 0 15 21" fill="#5c913b"/></g></svg>