<svg xmlns="http://www.w3.org/2000/svg" viewBox="0 0 45 45"><defs><clipPath id="a"><path d="M0 36h36V0H0v36z"/></clipPath></defs><g clip-path="url(#a)" transform="matrix(1.25 0 0 -1.25 0 45)"><path d="M19 15.7s10 2.3 10 16c0 1.5-1.1 2.3-3.4 2.3H9.1c-1.1 0-3.3.3-3.3-2.1C5.8 18.2 16 15.8 16 15.8V5.6l-5.5-2.9c-1-.5-.3-1.4 0-1.6.7-.2 2.3-1 6.9-1C22 0 23.6.8 24 1c.2.1 1.4 1 0 1.8-2.3 1.5-5 2.8-5 2.8v10.2z" fill="#8899a6"/><path d="M29 32.6c0-1.7-3.5-3-11.6-3S5.8 31 5.8 32.6s3.5 2.9 11.6 2.9c8 0 11.6-1.3 11.6-3" fill="#ccd6dd"/><path d="M7.5 32.4c2-9.5 5.4-12.8 8.7-13.8 1-.4 2-.4 2.8-.1 3.5 1.3 7.5 5.5 8 13.5.2 2-19.6.4-19.6.4" fill="#ccd6dd"/><path d="M9 26.5C9 23 12.3 18 17.3 18s8.7 5.5 8.7 8.5H9" fill="#a0041e"/><path d="M26 26.5c0-.8-3.8-1.5-8.5-1.5S9 25.7 9 26.5s3.8 1.5 8.5 1.5 8.5-.7 8.5-1.5" fill="#dd2e44"/><path d="M17.2 29.3c-5 0-8.8 1.1-9.8 1.6a1 1 0 0 0 .8 1.8c1.3-.5 9.5-2.9 18.6.2a1 1 0 1 0 .6-2 32.8 32.8 0 0 0-10.2-1.6" fill="#fff"/></g></svg>