<svg xmlns="http://www.w3.org/2000/svg" viewBox="0 0 45 45"><defs><clipPath id="a"><path d="M0 36h36V0H0v36z"/></clipPath></defs><g clip-path="url(#a)" transform="matrix(1.25 0 0 -1.25 0 45)"><path d="M34.2 8c-.7.8-3.8 2.7-6.9 4.4A15 15 0 0 1 30 21a15 15 0 1 1-6.5-12.3c1.7-3.1 3.7-6.3 4.4-7A5.9 5.9 0 0 1 32 0c1.2 0 4 2.9 4 4a6.1 6.1 0 0 1-1.8 4" fill="#292f33"/><path d="M27 21a12 12 0 1 0-24 0 12 12 0 0 0 24 0" fill="#66757f"/><path d="M16 11c4.9 1.5 4 5 4 9s4 6.7.3 9.8a11.1 11.1 0 0 1-8.8 1.6c-2-.8-4.5-2.2-4.5-5.2s0-3-1.7-5.7C2.7 16.2 9.1 8.8 16 11" fill="#f5f8fa"/><path d="M17 18a4 4 0 1 0-8 0 4 4 0 0 0 8 0" fill="#ffac33"/></g></svg>