<svg xmlns="http://www.w3.org/2000/svg" viewBox="0 0 45 45"><defs><clipPath id="a"><path d="M0 36h36V0H0v36z"/></clipPath></defs><g clip-path="url(#a)" transform="matrix(1.25 0 0 -1.25 0 45)"><path d="M31 36H5a4 4 0 0 1-4-4V4a4 4 0 0 1 4-4h26a4 4 0 0 1 4 4v28a4 4 0 0 1-4 4" fill="#292f33"/><path d="M14 25a4 4 0 0 0-4-4H9a4 4 0 0 0-4 4v2a4 4 0 0 0 4 4h1a4 4 0 0 0 4-4v-2z" fill="#292f33"/><path d="M22 9a2 2 0 0 0-2-2H5a2 2 0 0 0-2 2v8a2 2 0 0 0 2 2h15a2 2 0 0 0 2-2V9zm11 8a2 2 0 0 1-2 2h-5a2 2 0 0 1-2-2V9a2 2 0 0 1 2-2h5a2 2 0 0 1 2 2v8zM16 32a2 2 0 0 0 2 2h13a2 2 0 0 0 2-2v-9a2 2 0 0 0-2-2H18a2 2 0 0 0-2 2v9zm-2-9a2 2 0 0 0-2-2H5a2 2 0 0 0-2 2v9a2 2 0 0 0 2 2h7a2 2 0 0 0 2-2v-9z" fill="#be1931"/><path d="M14 23a2 2 0 0 0-2-2H5a2 2 0 0 0-2 2v6a2 2 0 0 0 2 2h7a2 2 0 0 0 2-2v-6zm19 0a2 2 0 0 0-2-2H18a2 2 0 0 0-2 2v6a2 2 0 0 0 2 2h13a2 2 0 0 0 2-2v-6z" fill="#dd2e44"/><path d="M22 9a2 2 0 0 0-2-2H5a2 2 0 0 0-2 2v5a2 2 0 0 0 2 2h15a2 2 0 0 0 2-2V9z" fill="#e1e8ed"/><path d="M33 9a2 2 0 0 0-2-2h-5a2 2 0 0 0-2 2v5a2 2 0 0 0 2 2h5a2 2 0 0 0 2-2V9z" fill="#dd2e44"/><path d="M27 26.8c1.3-1.5 2-3.1 1.3-3.7l-1-.9c-.6-.5-2.1.3-3.5 1.7l-3.5 4c-1.4 1.5-2 3.2-1.4 3.7l1.1 1c.6.4 2.1-.4 3.4-1.8l3.6-4z" fill="#ffac33"/><path d="M22.3 25c-.6-1.6-1.5-2.7-2-2.5l-.9.3c-.4.2-.3 1.6.2 3.1l1.7 4.2c.6 1.6 1.4 2.7 2 2.5l.8-.4c.5-.2.4-1.6-.2-3.1l-1.6-4.2z" fill="#ffd983"/><path d="M23.1 24.5c-1.6-.6-3-.6-3.1-.1l-.3.9c-.2.5 1 1.3 2.5 1.8l4.2 1.5c1.6.5 3 .5 3.2 0l.3-.8c.1-.5-1-1.4-2.6-1.9l-4.2-1.4z" fill="#ffd983"/><path d="M6.4 28.1c.4 4.1 5 1 7.2-1-1.4-1.5-7.6-4-7.2 1" fill="#5c913b"/><path d="M6.6 28.2c3.7 1.7 3.3-3.8 2.7-6.7-2 .4-7.2 4.6-2.7 6.7" fill="#5c913b"/><path d="M5 28c-1.2 1.6 1 5 6 5 1-1-3-9-6-5" fill="#77b255"/><path d="M6 9a1 1 0 0 0-.7 1.7l1 1a1 1 0 1 0 1.4-1.4l-1-1A1 1 0 0 0 6 9m12.4-.5a1 1 0 0 0-.7.3l-1 1a1 1 0 0 0 1.4 1.4l1-1a1 1 0 0 0-.7-1.7m-6.1 4.3a1 1 0 0 0-.7.3l-.5.4a1 1 0 1 0 1.4 1.5l.5-.5a1 1 0 0 0-.7-1.7" fill="#b2c2cc"/><path d="M32.1 12.6a2 2 0 0 0-.2-2.8l-2.3-2a2 2 0 0 0-2.8.3l-2 2.3a2 2 0 0 0 .3 2.8l2.3 2a2 2 0 0 0 2.8-.3l2-2.3z" fill="#b26304"/><path d="M32.1 14.6a2 2 0 0 0-.2-2.8l-2.3-2a2 2 0 0 0-2.8.3l-2 2.3a2 2 0 0 0 .3 2.8l2.3 2a2 2 0 0 0 2.8-.3l2-2.3z" fill="#f4900c"/><path d="M13 10a1 1 0 1 0-2 0 1 1 0 0 0 2 0m8 4a1 1 0 1 0-2 0 1 1 0 1 0 2 0" fill="#ccd6dd"/></g></svg>