<svg xmlns="http://www.w3.org/2000/svg" viewBox="0 0 45 45"><defs><clipPath id="a"><path d="M0 36h36V0H0v36z"/></clipPath><clipPath id="b"><path d="M11 25c-5 1-7.5-2.8-7-5 1-4 6-2 7-1 5-2 9 1 10 3 1.6 3.2-2 5-4 5-3.2 0-5-1-6-2"/></clipPath><clipPath id="c"><path d="M0 36h36V0H0v36z"/></clipPath><clipPath id="d"><path d="M5 20c-2-5 8-8 12-8s5 1 4 2c-1.4 1.4-5 2-6 3-2.7 3.3-5.3 4.3-7.2 4.3-1.5 0-2.6-.7-2.8-1.3"/></clipPath><clipPath id="e"><path d="M0 36h36V0H0v36z"/></clipPath></defs><g clip-path="url(#a)" transform="matrix(1.25 0 0 -1.25 0 45)"><path d="M13 1.2C.8 3 1 15.2 1 19h34c0-2 0-15.8-13.1-18a38.4 38.4 0 0 0-8.9.2" fill="#292f33"/><path d="M33.4 22.8c2.5 5.5-8.3 5.2-11 4.3a37.9 37.9 0 0 1-4.4.3c-9.4 0-17-3.2-17-8.5 0-1 .3-2 .8-2.8-4.3-5.8 4.3-6.8 9.2-5.8a28.8 28.8 0 0 1 7-.8c9.4 0 17 4.2 17 9.4 0 1.5-.6 2.7-1.6 3.9" fill="#66757f"/><path d="M33 18c0-3.9-6.7-7-15-7S3 14.1 3 18s6.7 7 15 7 15-3.1 15-7" fill="#ffcc4d"/><path d="M4 20c-.5 2.2 2 6 7 5 1 1 2.8 2 6 2 2 0 5.6-1.8 4-5-1-2-5-5-10-3-1-1-6-3-7 1" fill="#77b255"/></g><g clip-path="url(#b)" transform="matrix(1.25 0 0 -1.25 0 45)"><path d="M19 27c1-1 0-7-7-8s3-3 6-2 9 5 7 7-6 3-6 3" fill="#5c913b"/></g><g clip-path="url(#c)" transform="matrix(1.25 0 0 -1.25 0 45)"><path d="M5 20c.5 1.3 5 3 10-3 1-1 4.6-1.6 6-3 1-1 0-2-4-2S3 15 5 20" fill="#d99e82"/></g><g clip-path="url(#d)" transform="matrix(1.25 0 0 -1.25 0 45)"><path d="M6 16c2-1 11-3 14-1s3-1 3-2-3-5-8-3-9 3-9 4v2z" fill="#b27962"/></g><g clip-path="url(#e)" transform="matrix(1.25 0 0 -1.25 0 45)"><path d="M27 17a2 2 0 0 0-.6.1l-3 1a2 2 0 0 0-1.3 2.5 2 2 0 0 0 2.5 1.3l3-1A2 2 0 0 0 27 17m-1-3h-2a1 1 0 1 0 0 2h2a1 1 0 1 0 0-2" fill="#ffe8b6"/></g></svg>