<svg xmlns="http://www.w3.org/2000/svg" viewBox="0 0 45 45"><defs><clipPath id="a"><path d="M0 36h36V0H0v36z"/></clipPath></defs><g clip-path="url(#a)" transform="matrix(1.25 0 0 -1.25 0 45)"><path d="M36 18a18 18 0 1 0-36 0 18 18 0 0 0 36 0" fill="#e1e8ed"/><path d="M30 18a12 12 0 1 0-24 0 12 12 0 0 0 24 0" fill="#ccd6dd"/><path d="M29 18a11 11 0 1 0-22 0 11 11 0 0 0 22 0" fill="#e1e8ed"/><path d="M2 35a1 1 0 1 0-2 0 1 1 0 0 0 2 0" fill="#99aab5"/><path d="M2 28H0v7h2v-7zm4 7a1 1 0 1 0-2 0 1 1 0 0 0 2 0" fill="#99aab5"/><path d="M6 28H4v7h2v-7zm4 7a1 1 0 1 0-2 0 1 1 0 0 0 2 0" fill="#99aab5"/><path d="M10 28H8v7h2v-7zM7 2H3v20h4V2z" fill="#99aab5"/><path d="M7 2a2 2 0 1 1-4 0 2 2 0 0 1 4 0m1 26a1 1 0 0 0-2 0H4a1 1 0 0 0-2 0H0c0-3.9 1-7 5-7s5 3.1 5 7H8z" fill="#99aab5"/><path d="M2 28a1 1 0 1 0-2 0 1 1 0 0 0 2 0m4 0a1 1 0 1 0-2 0 1 1 0 0 0 2 0m4 0a1 1 0 1 0-2 0 1 1 0 0 0 2 0M34 2h-4v20h4V2z" fill="#99aab5"/><path d="M34 2a2 2 0 1 1-4 0 2 2 0 0 1 4 0m-2 34c1 0 2-1 2-3V17s-7-2-7 8c0 6 3 11 5 11" fill="#99aab5"/></g></svg>