<svg xmlns="http://www.w3.org/2000/svg" viewBox="0 0 45 45"><defs><clipPath id="a"><path d="M0 36h36V0H0v36z"/></clipPath></defs><g clip-path="url(#a)" transform="matrix(1.25 0 0 -1.25 0 45)"><path d="M19 34.5a1.5 1.5 0 1 1-3 0V25a1 1 0 0 0-2 0v9.5a1.5 1.5 0 1 1-3 0V25a1 1 0 0 0-2 0v9.5a1.5 1.5 0 1 1-3 0v-9.4a4.4 4.4 0 0 1 0-.6c0-2.3 1.8-6 4-6.4V2.5a2.5 2.5 0 1 1 5 0v15.6c2.3.4 4 4 4 6.4v10zm8.5 1.5H27c-2.2 0-5-5.5-5-11 0-4.7 1.3-8.6 3-9.7V2.5a2.5 2.5 0 1 1 5 0v31a2.5 2.5 0 0 1-2.5 2.5" fill="#99aab5"/></g></svg>