<svg xmlns="http://www.w3.org/2000/svg" viewBox="0 0 45 45"><defs><clipPath id="a"><path d="M0 36h36V0H0v36z"/></clipPath><clipPath id="b"><path d="M3.2 34.2l-.7-.7a2 2 0 0 1 0-2.9l.7-.7A2 2 0 0 1 6 30l.7.7a2 2 0 0 1 0 2.8l-.7.8a2 2 0 0 1-1.4.5 2 2 0 0 1-1.4-.5"/></clipPath><clipPath id="c"><path d="M0 36h36V0H0v36z"/></clipPath></defs><g clip-path="url(#a)" transform="matrix(1.25 0 0 -1.25 0 45)"><path d="M8.7 8.5a1.5 1.5 0 1 0-3 0 1.5 1.5 0 0 0 3 0m1 14.3A3.5 3.5 0 0 1 6.1 27a3.5 3.5 0 0 1-3.5-3 2 2 0 0 1 0-4 1.5 1.5 0 0 1 0-.5c0-.5.2-.9.5-1.1a2 2 0 0 1-.5-1.4 2 2 0 0 1 2-2c0-.4 0-.7.3-1a1.5 1.5 0 0 1 .2-3 1.5 1.5 0 0 1 1.5 1.5l-.1.5a2 2 0 0 1 2 2 2 2 0 0 1-.6 1.5 2 2 0 0 1 .4 2.5h.3a2 2 0 0 1 2 2 2 2 0 0 1-1 1.8" fill="#ccd6dd"/><path d="M6.7 17a1 1 0 1 0-2 0 1 1 0 0 0 2 0m2 6a2 2 0 1 1-4 0v-.1a1.5 1.5 0 0 1-.5.1 1.5 1.5 0 1 1 .6-2.9A1.5 1.5 0 0 1 6.2 19a1.5 1.5 0 0 1 1.5 1.5c0 .3 0 .5-.2.7A2 2 0 0 1 8.7 23" fill="#e4ebef"/><path d="M7.3 33a2 2 0 0 0 0-2.9l-.7-.7a2 2 0 0 0-2.8 0L3 30a2 2 0 0 0 0 2.8l.7.7a2 2 0 0 0 2.8 0l.7-.7z" fill="#c1694f"/></g><g clip-path="url(#b)" transform="matrix(1.25 0 0 -1.25 0 45)"><path d="M7 34.6c.6-.7.5-1.8-.3-2.6l-2.1-2c-.8-.8-2-.9-2.5-.3l-.6.6c-.6.6-.5 1.7.3 2.5l2.1 2.1c.8.8 2 1 2.5.3l.6-.5z" fill="#a95233"/></g><g clip-path="url(#c)" transform="matrix(1.25 0 0 -1.25 0 45)"><path d="M6.2 35.5c.6-.7.5-1.8-.3-2.6l-2.1-2.1c-.8-.8-2-.9-2.6-.3-.6.6-.5 1.8.3 2.5l2.1 2.2c.8.7 2 .9 2.6.2z" fill="#c1694f"/><path d="M34.9 12.2l-5 5c-3.7 3.7-7.4 4.2-14.4 7l-2-1.9-1.2-1.2c3.3-6.6 3.3-10.8 7-14.4l5-5c1-1 1.8-1.9 2.8-1l8.4 8.5c1 1 .4 2-.6 3" fill="#264612"/><path d="M16.2 23.8s1.7-.6-.6-3c-2-2-2.9-.6-2.9-.6l-3.4 3.5 3.5 3.5 3.4-3.3z" fill="#ffe8b6"/><path d="M13.1 27l-1 1-3.5-3.6 1-1c1-1 .8-1 2.6.8l.6.6c1.5 1.4 1.3 1.1.3 2.1" fill="#ffd983"/><path d="M12.5 29a1.5 1.5 0 0 0 0-2.1L9.6 24a1.5 1.5 0 1 0-2 2.2l2.7 2.8a1.5 1.5 0 0 0 2.2 0" fill="#264612"/><path d="M28.4 16a2 2 0 0 1-2.9 0l-4.9-5a2 2 0 0 1 0-2.9L24.8 4a2 2 0 0 1 2.9 0l5 5a2 2 0 0 1 0 2.8L28.4 16z" fill="#ffe8b6"/></g></svg>