<svg xmlns="http://www.w3.org/2000/svg" viewBox="0 0 45 45"><defs><clipPath id="a"><path d="M0 36h36V0H0v36z"/></clipPath><clipPath id="b"><path d="M3.5 32A1.5 1.5 0 0 1 2 30.5V8c0-.8 1.2-2 2-2h13.5c.8 0 1.5.7 1.5 1.5v23c0 .8-.7 1.5-1.5 1.5h-14z"/></clipPath><clipPath id="c"><path d="M0 36h36V0H0v36z"/></clipPath><clipPath id="d"><path d="M14.5 26c-.8 0-1.5-.7-1.5-1.5v-23c0-.8.7-1.5 1.5-1.5h14c.8 0 1.5.7 1.5 1.5v23c0 .8-.7 1.5-1.5 1.5h-14z"/></clipPath><clipPath id="e"><path d="M0 36h36V0H0v36z"/></clipPath></defs><g clip-path="url(#a)" transform="matrix(1.25 0 0 -1.25 0 45)"><path d="M19 7.5c0-.8-.7-1.5-1.5-1.5H4c-1 0-2 .7-2 1.9v22.9c0 .5.7 1.2 1.5 1.2h14c.8 0 1.5-.7 1.5-1.5v-23z" fill="#ffcc4d"/></g><g clip-path="url(#b)" transform="matrix(1.25 0 0 -1.25 0 45)"><path d="M17.5 29.4a2.3 2.3 0 0 1-2.2-1.6 1.9 1.9 0 0 1-.5.1 1.9 1.9 0 0 1-1.1-.4 3 3 0 0 1-3 2.7 3 3 0 0 1-3-2.5 1.5 1.5 0 0 1-.8.2c-.4 0-.8-.1-1-.4a3 3 0 0 1-2.8 2c-1.7 0-3.1 3.7-3.1-3.1a3 3 0 1 1 5.9-1.2 1.5 1.5 0 0 1 2.2.3 3 3 0 0 1 2.6-1.4 3 3 0 0 1 2.4 1.2 1.9 1.9 0 0 1 1.8-1.2c.7 0 1.3.4 1.6 1 .3-.2.7-.2 1-.2a2.3 2.3 0 0 1 2.3 2.2c0 3.8-1 2.3-2.3 2.3" fill="#ffac33"/></g><g clip-path="url(#c)" transform="matrix(1.25 0 0 -1.25 0 45)"><path d="M11 9a1 1 0 0 0-1 1v11a1 1 0 0 0 2 0V10a1 1 0 0 0-1-1M6 9a1 1 0 0 0-1 1v11a1 1 0 0 0 2 0V10a1 1 0 0 0-1-1" fill="#ffac33"/><path d="M20 31c0 2-1 3-3 3H3c-2 0-3-1-3-3v-1.8A38.8 38.8 0 0 1 0 28a3 3 0 1 1 5.9-1.1A1.5 1.5 0 0 1 8 27a3 3 0 0 1 2.6-1.4c1 0 1.8.5 2.4 1.2a1.9 1.9 0 0 1 1.8-1.2c.7 0 1.3.4 1.6 1a2.3 2.3 0 0 1 1-.2c1.3 0 2.5 1.3 2.5 2.6 0 .2 0-.2 0 0v2z" fill="#ccd6dd"/><path d="M27 20V8h4.6s1.4.2 1.4 1.7V18c0 1 0 2-2 2h-4zm9-12a3 3 0 0 0-3-3h-6a3 3 0 0 0-3 3v12a3 3 0 0 0 3 3h6a3 3 0 0 0 3-3V8z" fill="#ffac33"/><path d="M30 2c0-1-1-2-2-2H15c-1 0-2 1-2 2v22.5c0 .8.7 1.5 1.5 1.5h14c.8 0 1.5-.7 1.5-1.5V2z" fill="#ffcc4d"/></g><g clip-path="url(#d)" transform="matrix(1.25 0 0 -1.25 0 45)"><path d="M28.5 23.4a2.3 2.3 0 0 1-2.2-1.6 1.9 1.9 0 0 1-.5.1 1.9 1.9 0 0 1-1.1-.4 3 3 0 0 1-3 2.7 3 3 0 0 1-3-2.5 1.5 1.5 0 0 1-.8.2c-.4 0-.8-.1-1-.4a3 3 0 0 1-2.8 2c-1.7 0-3.1 3.7-3.1-3.1a3 3 0 1 1 5.9-1.2 1.5 1.5 0 0 1 2.2.3 3 3 0 0 1 2.6-1.4c1 0 1.8.5 2.4 1.2a1.9 1.9 0 0 1 1.7-1.2c.8 0 1.4.4 1.7 1 .3-.2.6-.2 1-.2a2.3 2.3 0 0 1 2.3 2.2c0 3.8-1 2.3-2.3 2.3" fill="#ffac33"/></g><g clip-path="url(#e)" transform="matrix(1.25 0 0 -1.25 0 45)"><path d="M31 25c0 2-1 3-3 3H14c-2 0-3-1-3-3v-1.8a38.8 38.8 0 0 1 0-1.3 3 3 0 1 1 5.9-1.1 1.5 1.5 0 0 1 2.2.2 3 3 0 0 1 2.6-1.4c1 0 1.8.5 2.4 1.2a1.9 1.9 0 0 1 1.7-1.2c.8 0 1.4.4 1.7 1l1-.2c1.3 0 2.5 1.3 2.5 2.6 0 .2 0-.2 0 0v2z" fill="#e1e8ed"/><path d="M16 3a1 1 0 0 0-1 1v11a1 1 0 1 0 2 0V4a1 1 0 0 0-1-1m10 0a1 1 0 0 0-1 1v11a1 1 0 1 0 2 0V4a1 1 0 0 0-1-1m-5 0a1 1 0 0 0-1 1v11a1 1 0 1 0 2 0V4a1 1 0 0 0-1-1" fill="#ffac33"/><path d="M22 30a1 1 0 0 0-1 1v3a1 1 0 1 0 2 0v-3a1 1 0 0 0-1-1m3-1a1 1 0 0 0-.7 1.7l4 4a1 1 0 1 0 1.4-1.4l-4-4a1 1 0 0 0-.7-.3" fill="#f4900c"/></g></svg>