<svg xmlns="http://www.w3.org/2000/svg" viewBox="0 0 45 45"><defs><clipPath id="a"><path d="M0 36h36V0H0v36z"/></clipPath></defs><g clip-path="url(#a)" transform="matrix(1.25 0 0 -1.25 0 45)"><path d="M33 28.8c0 1.4.7.7 1.4 1.4 1.4 1.4 2.2 3.5.7 5-1.4 1.4-3.5.6-5-.8-.6-.7 0-1.4-1.3-1.4H23l.7-.7s3.6-5 4.3-4.2c-.7-.7 4.2-4.3 4.2-4.3l.7-.7v5.7z" fill="#ffac33"/><path d="M30.9 21l-5 5-4.9 4.9c-.7-.7-4.2 0-5.7-1.4l-.7-.7-2-2.1-11-11a4 4 0 0 1 0-5.6l8.5-8.5a4 4 0 0 1 5.7 0l9.9 10 3 3 .8.7c1.4 1.5.7 5 1.4 5.7" fill="#ccd6dd"/><path d="M32.7 21.4c-1-1-1.9-1.7-2.9-.7l-9.2 9.1c-1 1-.2 1.9.8 2.9a2.5 2.5 0 0 0 3.5 0l7.8-7.8a2.5 2.5 0 0 0 0-3.5" fill="#55acee"/><path d="M13 4a1 1 0 0 0-.7 1.7l12 12a1 1 0 0 0 1.4-1.4l-12-12A1 1 0 0 0 13 4M9 8a1 1 0 0 0-.7 1.7l12 12a1 1 0 0 0 1.4-1.4l-12-12A1 1 0 0 0 9 8m-4 4a1 1 0 0 0-.7 1.7l12 12a1 1 0 0 0 1.4-1.4l-12-12A1 1 0 0 0 5 12" fill="#99aab5"/></g></svg>