<svg xmlns="http://www.w3.org/2000/svg" viewBox="0 0 45 45"><defs><clipPath id="a"><path d="M0 36h36V0H0v36z"/></clipPath><clipPath id="b"><path d="M27 17h-4c-1.6 0-4-3.6-4-7V4a3 3 0 0 1 3-3h10a3 3 0 0 1 3 3v6c0 3.4-2.4 7-4 7h-4z"/></clipPath><clipPath id="c"><path d="M0 36h36V0H0v36z"/></clipPath><clipPath id="d"><path d="M9 17H5c-1.6 0-4-3.6-4-7V4a3 3 0 0 1 3-3h10a3 3 0 0 1 3 3v6c0 3.4-2.4 7-4 7H9z"/></clipPath><clipPath id="e"><path d="M0 36h36V0H0v36z"/></clipPath></defs><g clip-path="url(#a)" transform="matrix(1.25 0 0 -1.25 0 45)"><path d="M31 17h-8c-1.6 0-4-3.6-4-7V4a3 3 0 0 1 3-3h10a3 3 0 0 1 3 3v6c0 3.4-2.4 7-4 7" fill="#f26522"/></g><g clip-path="url(#b)" transform="matrix(1.25 0 0 -1.25 0 45)"><path d="M23 16c0-2-.2-4 3-5V7c0-2.2-2.3-4-7-4V1h16v2c-4.7 0-7 1.8-7 4v4c3.2 1 3 3 3 5h-8z" fill="#d14a15"/></g><g clip-path="url(#c)" transform="matrix(1.25 0 0 -1.25 0 45)"><path d="M13 17H5c-1.6 0-4-3.6-4-7V4a3 3 0 0 1 3-3h10a3 3 0 0 1 3 3v6c0 3.4-2.4 7-4 7" fill="#27aae1"/></g><g clip-path="url(#d)" transform="matrix(1.25 0 0 -1.25 0 45)"><path d="M5 16c0-2-.2-4 3-5V7c0-2.2-2.3-4-7-4V1h16v2c-4.7 0-7 1.8-7 4v4c3.2 1 3 3 3 5H5z" fill="#005792"/></g><g clip-path="url(#e)" transform="matrix(1.25 0 0 -1.25 0 45)"><path d="M27 14c-4.5 0-6-3-6-3l6-4 6 4s-1.5 3-6 3" fill="#ffcc4d"/><path d="M35 24v-6c0-3-5.7 0-7.5 0-2 0-8.5-3-8.5 0v6a8 8 0 0 0 16 0" fill="#292f33"/><path d="M33 22c0-3-.4-7-6-7s-6 3-6 7c3 0 6 2 6 2s3-2 6-2" fill="#f5f8fa"/><path d="M31.6 19.6c-.9.2-2.5.5-3.3-.3-.4-.2-.1-1 .6-.7.6.3 2.1.4 2.8.5.6 0 .6.4-.1.5m-9.2 0c1 .2 2.5.5 3.4-.3.3-.2 0-1-.6-.7-.7.3-2.2.4-2.8.5-.6 0-.6.4 0 .5" fill="#292f33"/><path d="M32 29.7c0 1.3-2.2 2.3-5 2.3s-5-1-5-2.3c0-.6 2.9-1.1 5-1.5 2.1.4 5 1 5 1.5" fill="#f26522"/><path d="M27 30a1 1 0 0 0-1 1v3a1 1 0 1 0 2 0v-3a1 1 0 0 0-1-1m-3 0a1 1 0 0 0-.7.3l-2 2a1 1 0 1 0 1.4 1.4l2-2A1 1 0 0 0 24 30m6 0a1 1 0 0 0-.7 1.7l2 2a1 1 0 1 0 1.4-1.4l-2-2a1 1 0 0 0-.7-.3" fill="#d14a15"/><path d="M25.5 16.7c0-.3.7-.5 1.5-.5s1.5.2 1.5.5-.7.5-1.5.5-1.5-.2-1.5-.5" fill="#a0041e"/><path d="M17 23v-3c0-3-6.2-3-8-3-2 0-8 0-8 3v3c0 4.4 3.6 6 8 6s8-1.6 8-6" fill="#292f33"/><path d="M3 23v-1c0-4 .4-7 6-7s6 4 6 7v1H3z" fill="#f5f8fa"/><path d="M13.6 19.6c-.9.2-2.5.5-3.3-.3-.4-.2-.1-1 .6-.7.6.3 2.1.4 2.7.5.6 0 .7.4 0 .5m-9.2 0c1 .2 2.5.5 3.3-.3.4-.2.1-1-.5-.7-.7.3-2.2.4-2.8.5-.6 0-.6.4 0 .5" fill="#292f33"/><path d="M7.5 16.7c0-.3.7-.5 1.5-.5s1.5.2 1.5.5-.7.5-1.5.5-1.5-.2-1.5-.5" fill="#a0041e"/><path d="M28.6 34a1.6 1.6 0 1 0-3.2 0 1.6 1.6 0 0 0 3.2 0m-5-1a1.6 1.6 0 1 0-3.2 0 1.6 1.6 0 0 0 3.2 0m10 0a1.6 1.6 0 1 0-3.2 0 1.6 1.6 0 0 0 3.2 0" fill="#d14a15"/><path d="M5 9a1 1 0 1 0-2 0 1 1 0 0 0 2 0m10-3a1 1 0 1 0-2 0 1 1 0 0 0 2 0" fill="#bbddf5"/><path d="M23 6a1 1 0 1 0-2 0 1 1 0 0 0 2 0m10 0a1 1 0 1 0-2 0 1 1 0 0 0 2 0" fill="#ffb699"/><path d="M10.2 14.1H7.8c-.5 0-1-.3-.8-1L8 3c.1-.5.4-.8.9-.8s.8.3.9.8L11 13c.1.7-.3 1-.8 1" fill="#ffcc4d"/><path d="M16 23.9c0-1-3.1-1.9-7-1.9s-7 .8-7 1.9c0 1 3.1 1.8 7 1.8s7-.8 7-1.8" fill="#292f33"/><path d="M12.1 28.1c0-3.4-6.2-3.4-6.2 0S7.3 35 9 35s3.1-3.4 3.1-6.9" fill="#26aae1"/></g></svg>