<svg xmlns="http://www.w3.org/2000/svg" viewBox="0 0 45 45"><defs><clipPath id="a"><path d="M0 36h36V0H0v36z"/></clipPath></defs><g clip-path="url(#a)" transform="matrix(1.25 0 0 -1.25 0 45)"><path d="M22 3.2c0-2-1.5-2.7-3.5-2.7s-3.6.7-3.6 2.7l.9 8.1c0 2 .7 1.8 2.7 1.8s2.7.2 2.7-1.8l.9-8.1z" fill="#662113"/><path d="M30.6 8.3c-6.3 5.4-8.9 13.1-12.1 13.1-3.3 0-5.9-7.7-12.2-13C3.7 6 5 4.6 8.6 5c3.2.2 6.3 1 9.9 1s6.6-.8 9.8-1c3.7-.3 5 1 2.3 3.3" fill="#5c913b"/><path d="M28.6 10.5c-4.9 4.4-7.6 10.8-10.1 10.8s-5.3-6.4-10.1-10.8c-3.8-3.6 5-4.3 10 0 5.1-4.3 14-3.6 10.2 0" fill="#3e721d"/><path d="M28.6 14c-4.9 4.2-7.6 10.1-10.1 10.1s-5.3-5.9-10.1-10c-3.8-3.3 5-4 10 0 5.1-4 14-3.3 10.2 0" fill="#5c913b"/><path d="M26.3 17c-3.7 3.2-5.9 7.9-7.8 7.9-2 0-4.1-4.7-7.9-7.9-3-2.6 4-3.1 7.9 0 3.9-3.1 10.8-2.6 7.8 0" fill="#3e721d"/><path d="M26.3 19.7c-3.7 3.2-5.9 7.9-7.8 7.9-2 0-4.1-4.7-7.9-8-3-2.5 4-3 7.9 0 3.9-3 10.8-2.5 7.8 0" fill="#5c913b"/><path d="M24.8 22c-3 2.7-4.7 6.4-6.3 6.4-1.6 0-3.3-3.7-6.4-6.3-2.4-2 3.2-2.6 6.4 0 3.1-2.6 8.7-2 6.3 0" fill="#3e721d"/><path d="M24.8 24.1c-3 2.6-4.7 6.4-6.3 6.4-1.6 0-3.3-3.8-6.4-6.4-2.4-2 3.2-2.5 6.4 0 3.1-2.5 8.7-2 6.3 0" fill="#5c913b"/><path d="M23.3 27c-2.3 2-3.6 5-4.8 5-1.2 0-2.5-3-4.9-5-1.8-1.5 2.5-1.8 4.9 0 2.4-1.8 6.6-1.5 4.8 0" fill="#3e721d"/><path d="M23.3 28.2c-2.3 2-3.6 4.8-4.8 4.8-1.2 0-2.5-2.9-4.9-4.8-1.8-1.6 2.5-2 4.9 0 2.4-2 6.6-1.6 4.8 0" fill="#5c913b"/><path d="M18 24a1.5 1.5 0 1 0-3 0 1.5 1.5 0 0 0 3 0m4-13a2 2 0 1 0-4 0 2 2 0 0 0 4 0" fill="#ffcc4d"/><path d="M25 20.5a2.5 2.5 0 1 0-5 0 2.5 2.5 0 0 0 5 0M12 10a2 2 0 1 0-4 0 2 2 0 0 0 4 0" fill="#dd2e44"/><path d="M16 17a2 2 0 1 0-4 0 2 2 0 0 0 4 0m12-4a2 2 0 1 0-4 0 2 2 0 0 0 4 0" fill="#a6d388"/><path d="M19.4 34.3c.1-.2.5-.5.8-.6l1.4-.3c.3 0 .3-.3.1-.5l-1-1a1.3 1.3 0 0 1-.3-1l.2-1.3c0-.3-.2-.5-.4-.3l-1.3.6a1.3 1.3 0 0 1-1 0l-1.3-.6c-.3-.1-.5 0-.4.3l.2 1.4c0 .3-.1.8-.3 1l-1 1c-.2.2-.1.5.2.5l1.4.2.8.6.7 1.3c.1.2.4.2.5 0l.7-1.3z" fill="#ffac33"/></g></svg>