<svg xmlns="http://www.w3.org/2000/svg" viewBox="0 0 45 45"><defs><clipPath id="a"><path d="M0 36h36V0H0v36z"/></clipPath></defs><g clip-path="url(#a)" transform="matrix(1.25 0 0 -1.25 0 45)"><path d="M28 0a1 1 0 0 0-1 .8s-.9 3.4-4.2 4.2C18 6.2 18 12.7 18 13a1 1 0 0 0 1 1c.6 0 1-.5 1-1 0 0 0-5.2 3.2-6A8.3 8.3 0 0 0 29 1.2 1 1 0 0 0 28 0" fill="#fcab40"/><path d="M18 11c-1.1 0-1.6.8-1.1 1.8l1.2 2.4c.5 1 1.3 1 1.8 0l1.2-2.4c.5-1 0-1.8-1.1-1.8h-2z" fill="#bb1a34"/><path d="M28 27c0-6-7-12-9-12s-9 6-9 12c0 5.8 4.6 9 9 9s9-3.2 9-9" fill="#bb1a34"/><path d="M20 14h-2a1 1 0 1 0 0 2h2a1 1 0 1 0 0-2" fill="#fcab40"/></g></svg>