<svg xmlns="http://www.w3.org/2000/svg" viewBox="0 0 45 45"><defs><clipPath id="a"><path d="M0 36h36V0H0v36z"/></clipPath></defs><g clip-path="url(#a)" transform="matrix(1.25 0 0 -1.25 0 45)"><path d="M11.6 28.5a1.4 1.4 0 0 1-.2-.4L0 3c-.2-.4.2-1.3.9-2s1.5-1 2-.8l25.2 11.2.4.2c1.6 1.6-1 6.7-5.7 11.4-4.6 4.6-9.7 7.2-11.3 5.6" fill="#dd2e44"/><path d="M13 24L.4 3.5l-.3-.6c-.2-.4.2-1.3.9-2a4 4 0 0 1 .7-.6L17 19l-4 5z" fill="#ea596e"/><path d="M23 23c4.7-4.7 7.3-9.7 5.8-11.2s-6.4 1.1-11.1 5.8c-4.7 4.7-7.3 9.7-5.8 11.1 1.5 1.5 6.4-1.1 11.1-5.8" fill="#a0041e"/><path d="M18.6 22.4a1 1 0 0 0-.7-.2c-1 0-1.6.4-2.1.9-.6.4-.9 1.1-.8 1.8.1 1.2 1.3 2.3 3.4 2 .8 0 1.1.3 1.1.4 0 0-.2.4-1 .5-.9.1-1.6.4-2.1.9-.6.5-.9 1.2-.8 1.8.1 1.2 1.3 2.3 3.4 2.1l1 .1.1.2c0 .1-.2.4-1 .5a1 1 0 0 0 .2 2c2-.2 3-1.5 2.8-2.7-.1-1.2-1.3-2.3-3.3-2-.6 0-1-.1-1-.2l-.2-.2c0-.1.3-.4 1-.5 2.1-.2 3-1.6 3-2.8-.2-1.1-1.4-2.2-3.4-2-.6 0-1 0-1-.2l-.2-.1c0-.1.3-.5 1-.5a1 1 0 0 0 .6-1.8" fill="#aa8dd8"/><path d="M30.7 13.1c2 .6 3.3-.3 3.6-1.4.3-1.2-.4-2.6-2.3-3.2-.8-.2-1-.6-1-.7 0-.1.4-.3 1.2-.1 2 .6 3.3-.3 3.6-1.5.4-1.1-.3-2.6-2.3-3.1-.8-.3-1-.6-1-.7 0-.2.5-.4 1.2-.1a1 1 0 1 0 .6-2c-2-.5-3.4.4-3.7 1.5-.3 1.1.4 2.6 2.4 3.2.7.2 1 .5 1 .7-.1 0-.5.3-1.3 0-2-.5-3.3.4-3.6 1.5-.4 1.2.3 2.7 2.3 3.2.8.2 1 .6 1 .7 0 .1-.4.3-1.2.1a1 1 0 1 0-.5 2" fill="#77b255"/><path d="M23 15.8a1 1 0 0 0-.6 1.8c.2.2 5.4 4.3 12.7 3.2a1 1 0 0 0 .9-1.1 1 1 0 0 0-1.1-.8A15.9 15.9 0 0 1 23.6 16a1 1 0 0 0-.6-.2" fill="#aa8dd8"/><path d="M5.8 20a1 1 0 0 0-1 1.3C5.9 25 7 31 5.7 32.6c-.1.2-.4.4-.8.4-1-.1-.9-2-.9-2.1a1 1 0 1 0-2-.1c0 1.3.3 4 2.7 4.2a2.9 2.9 0 0 0 2.5-1.1c2.4-3 0-11.5-.5-13.2a1 1 0 0 0-1-.7" fill="#77b255"/><path d="M27 26.5a1.5 1.5 0 1 0-3 0 1.5 1.5 0 0 0 3 0" fill="#5c913b"/><path d="M4 18a2 2 0 1 0-4 0 2 2 0 0 0 4 0" fill="#9266cc"/><path d="M34 16.5a1.5 1.5 0 1 0-3 0 1.5 1.5 0 0 0 3 0m-9-12a1.5 1.5 0 1 0-3 0 1.5 1.5 0 0 0 3 0" fill="#5c913b"/><path d="M30 32a2 2 0 1 0-4 0 2 2 0 0 0 4 0m4-4.5a1.5 1.5 0 1 0-3 0 1.5 1.5 0 0 0 3 0m-3-4a1.5 1.5 0 1 0-3 0 1.5 1.5 0 0 0 3 0m-22-11a1.5 1.5 0 1 0-3 0 1.5 1.5 0 0 0 3 0" fill="#ffcc4d"/></g></svg>