<svg xmlns="http://www.w3.org/2000/svg" viewBox="0 0 45 45"><defs><clipPath id="a"><path d="M0 36h36V0H0v36z"/></clipPath></defs><g clip-path="url(#a)" transform="matrix(1.25 0 0 -1.25 0 45)"><path d="M32 5.5a4.5 4.5 0 0 0-9 0v12c0 2.4 2 5.5 4.5 5.5s4.5-3.1 4.5-5.6v-12z" fill="#77b255"/><path d="M21.5 30.4c0-2.2-1.4-4-3-4-1.7 0-3 1.8-3 4s1.3 4 3 4 3-1.8 3-4" fill="#ffe8b6"/><path d="M23 5.5a4.5 4.5 0 0 0-9 0v25c0 2.4 2 5.5 4.5 5.5s4.5-3.1 4.5-5.6v-25z" fill="#77b255"/><path d="M21.5 30.4c0-2.2-1.4-4-3-4-1.7 0-3 1.8-3 4s1.3 4 3 4 3-1.8 3-4m9-13c0-2.2-1.4-4-3-4-1.7 0-3 1.8-3 4s1.3 4 3 4 3-1.8 3-4" fill="#ffe8b6"/><path d="M14 5.5a4.5 4.5 0 0 0-9 0v19C5 26.8 7 30 9.5 30s4.5-3.1 4.5-5.6v-19z" fill="#77b255"/><path d="M12.5 24.4c0-2.2-1.4-4-3-4-1.7 0-3 1.8-3 4s1.3 4 3 4c1.6 0 3-1.8 3-4" fill="#ffe8b6"/><path d="M24 14a1 1 0 0 0-1-1h-9a1 1 0 1 0 0 2h9a1 1 0 0 0 1-1m0 8a1 1 0 0 0-1-1h-9a1 1 0 0 0 0 2h9a1 1 0 0 0 1-1m-9-4a1 1 0 0 0-1-1H5a1 1 0 1 0 0 2h9a1 1 0 0 0 1-1" fill="#5c913b"/><path d="M35 3.5A2.5 2.5 0 0 0 32.5 1h-28a2.5 2.5 0 1 0 0 5h28A2.5 2.5 0 0 0 35 3.5" fill="#d99e82"/><path d="M31 9s-1.2.6-3.3 1.2l-1.5-3.4c-.5-1.3-1.2-1-1 .1l.8 3.7c-2 .5-4.5 1-7.2 1-.1-1.7-.4-3.2-.5-4.1 0-1.4-1.5-1.3-1.6 0l-.2 4.1a27.2 27.2 0 0 1-6.4-1l.4-3.5c.2-1.5-.5-1.1-.8-.3A70.3 70.3 0 0 1 8.4 10 24.2 24.2 0 0 1 6 9C4 8 2 6 2 5V4h33v1c0 1-2 3-4 4" fill="#5c913b"/></g></svg>