<svg xmlns="http://www.w3.org/2000/svg" viewBox="0 0 45 45"><defs><clipPath id="a"><path d="M0 36h36V0H0v36z"/></clipPath><clipPath id="b"><path d="M18.5 18.7s3-13 9.3-16.7c1-.6 2-1 2.1 0 0 .7 0 3-.2 3.7.7-.3 2.4-.6 3.6-.5s2.5 1.6 1 1.7C28 6.5 25.8 20.3 25.2 22l-6.6-3.3"/></clipPath><clipPath id="c"><path d="M0 36h36V0H0v36z"/></clipPath></defs><g clip-path="url(#a)" transform="matrix(1.25 0 0 -1.25 0 45)"><path d="M21.3 20.5a1 1 0 0 0-.9.6c-1 1.8-1.4 3.7-1.7 5.3l-.2 1.2a1 1 0 0 0 2 .5l.2-1.3c.3-1.5.6-3.2 1.5-4.8a1 1 0 0 0-1-1.5"/><path d="M18.5 18.7a81 81 0 0 0 6.6 3.3c.6-1.7 3-15.4 9.3-15.1 1.4-.1 0-1.5-1.1-1.7a8.6 8.6 0 0 0-3.6.5c.2-.7.3-3 .2-3.7 0-1-1.1-.6-2.1 0-6.3 3.8-9.3 16.7-9.3 16.7" fill="#be1931"/></g><g clip-path="url(#b)" transform="matrix(1.25 0 0 -1.25 0 45)"><path d="M18.2 16.8l8.4 3.8-1.2 2.2-8-3.3.8-2.7" fill="#a0041e"/></g><g clip-path="url(#c)" transform="matrix(1.25 0 0 -1.25 0 45)"><path d="M18.2 18.6c1.2.4 6.2 2.7 7.2 3.2s.7 2.4-.5 2l-7.2-3.3c-1.1-.5-.4-2.3.5-2" fill="#ffac33"/><path d="M6.2 22c-1.9 1.6 4.2 5 7.8 6-.3-1-5-8.4-7.8-6m19.3 9.6c1 2.3 6.1-2.5 8.3-5.5-1.1-.1-9.6 2.2-8.3 5.5" fill="#a6d388"/><path d="M3 .4a1.5 1.5 0 0 0-1.4 1.5v.7c-.1 4.2-.1 16.5 8.4 30.8.4.7 1 1.3 1.8.8.7-.4.3-1.3-.1-2-8-13.6-7.2-25.6-7.1-29.5v-.8A1.5 1.5 0 0 0 3 .4" fill="#5c913b"/><path d="M2 3a1.5 1.5 0 0 0 0 3h2a1.5 1.5 0 0 0 1.7-1.3A1.5 1.5 0 0 0 4.3 3H2.2A1.4 1.4 0 0 0 2 3" fill="#3e721d"/><path d="M7.7.4a1.5 1.5 0 0 0-1.5 1.8l.2.8c3.4 21.3 13.5 28.3 21.8 30.8.8.3 2 .4 2.3-.4.3-.8-.6-1.3-1.4-1.5-7.4-2.3-16.6-9.6-19.8-29.4a34 34 0 0 0-.1-.9A1.5 1.5 0 0 0 7.7.4" fill="#5c913b"/><path d="M10 27.4l-.7.1-2.1 1a1.5 1.5 0 1 0 1.2 2.7l2.1-1a1.5 1.5 0 0 0-.6-2.8M5.5 15H5l-2.3.6a1.5 1.5 0 0 0 .8 3l2.2-.7a1.5 1.5 0 0 0-.3-3m17.2 12.2a1.5 1.5 0 0 0-1.3.7l-1.3 2a1.5 1.5 0 0 0 2.5 1.6l1.3-2a1.5 1.5 0 0 0-1.2-2.3m-8-9.5c-.3 0-.5 0-.7.2l-2.6 1.3a1.5 1.5 0 1 0 1.4 2.7l2.6-1.4a1.5 1.5 0 0 0-.7-2.8M9.9 6a1.5 1.5 0 0 0-.4 0l-2.2.7a1.5 1.5 0 1 0 .8 2.9l2.2-.6a1.5 1.5 0 0 0-.4-3" fill="#3e721d"/><path d="M5 20.8c-2.3-1-2.9 5.9-2.5 9.6 1-.6 5.7-8 2.5-9.6" fill="#a6d388"/></g></svg>