<svg xmlns="http://www.w3.org/2000/svg" viewBox="0 0 45 45"><defs><clipPath id="a"><path d="M0 36h36V0H0v36z"/></clipPath></defs><g clip-path="url(#a)" transform="matrix(1.25 0 0 -1.25 0 45)"><path d="M33 5a4 4 0 0 0-4-4H7a4 4 0 0 0-4 4v17a4 4 0 0 0 4 4h22a4 4 0 0 0 4-4V5z" fill="#fdd888"/><path d="M36 25a4 4 0 0 0-4-4H4c-2.2 0-4 1.8-4 4s1.8 4 4 4h28a4 4 0 0 0 4-4" fill="#fdd888"/><path d="M33 19H3v2h30v-2z" fill="#fcab40"/><path d="M19 33h-2a3 3 0 0 1-3-3V1h8v29a3 3 0 0 1-3 3" fill="#da2f47"/><path d="M16 29c1.1 0 1.3.5.4 1.1l-6.8 4.7a1.8 1.8 0 0 1-2.6-.5l-2-3.6c-.5-1-.1-1.7 1-1.7h10zm4 0c-1.1 0-1.3.5-.4 1.1l6.8 4.7a1.8 1.8 0 0 0 2.6-.5l2-3.6c.5-1 .1-1.7-1-1.7H20z" fill="#da2f47"/></g></svg>