<svg xmlns="http://www.w3.org/2000/svg" viewBox="0 0 45 45"><defs><clipPath id="a"><path d="M0 36h36V0H0v36z"/></clipPath></defs><g clip-path="url(#a)" transform="matrix(1.25 0 0 -1.25 0 45)"><path d="M5 15c0-2.2-1.1-4-2.5-4S0 12.8 0 15s1.1 4 2.5 4S5 17.2 5 15" fill="#ffdc5d"/><path d="M3 17.4C3 26 8.4 33 15 33s12-7 12-15.5S21.6 2 15 2 3 9 3 17.4" fill="#ffdc5d"/><path d="M20 36h-1C9 36 2 31.4 2 27s6.4-4 13-4h10l6-15h2l1 7c1 6 .5 21-14 21" fill="#dd2e44"/><path d="M30 15c0-2.2-1.1-4-2.5-4S25 12.8 25 15s1.1 4 2.5 4 2.5-1.8 2.5-4" fill="#ffdc5d"/><path d="M10 15a1 1 0 0 0-1 1v2a1 1 0 0 0 2 0v-2a1 1 0 0 0-1-1m10 0a1 1 0 0 0-1 1v2a1 1 0 1 0 2 0v-2a1 1 0 0 0-1-1" fill="#662113"/><path d="M16 10h-2a1 1 0 1 0 0 2h2a1 1 0 1 0 0-2" fill="#b7755e"/><path d="M27 11c0 2-2.3.7-3 0-1-1-3-3-5-2-2.8 1.4-4 1-4 1s-1.2.4-4-1c-2-1-4 1-5 2-.7.7-3 2-3 0s1-2 1-2C3 7 5 6 5 6c0-3 3-3 3-3 0-3 4-2 4-2 1-1 3-1 3-1s2 0 3 1c0 0 4-1 4 2 0 0 3 0 3 3 0 0 2 1 1 3 0 0 1 0 1 2" fill="#e6e7e8"/><path d="M15 8c7 0 4-2 0-2s-7 2 0 2" fill="#ffdc5d"/><path d="M1 22c0 2.2.9 4 2 4s2-1.8 2-4-.9-4-2-4-2 1.8-2 4m23 0c0 2.2.9 4 2 4s2-1.8 2-4-.9-4-2-4-2 1.8-2 4" fill="#d1d3d4"/><path d="M28 7a4 4 0 1 1 8 0 4 4 0 0 1-8 0m1 17a2 2 0 0 0-2-2H2a2 2 0 0 0-2 2v1a2 2 0 0 0 2 2h25a2 2 0 0 0 2-2v-1z" fill="#f1f2f2"/></g></svg>