<svg xmlns="http://www.w3.org/2000/svg" viewBox="0 0 45 45"><defs><clipPath id="a"><path d="M0 36h36V0H0v36z"/></clipPath></defs><g clip-path="url(#a)" transform="matrix(1.25 0 0 -1.25 0 45)"><path d="M36 10c0-5.522-8.059-10-18-10S0 4.478 0 10s8.059 10 18 10 18-4.478 18-10" fill="#8899a6"/><path d="M36 11.75c0-5.522-8.059-10-18-10s-18 4.478-18 10 8.059 10 18 10 18-4.478 18-10" fill="#ccd6dd"/><path d="M32.675 12.315c0-4.26-6.57-7.712-14.675-7.712S3.325 8.055 3.325 12.315c0 4.258 6.57 7.711 14.675 7.711s14.675-3.453 14.675-7.71" fill="#dd2e44"/><path d="M32.233 13.457c0-9.854-28.467-9.854-28.467 0v8.759h28.467v-8.759z" fill="#f4abba"/><path d="M17.984 17.834c-8.984 0-14.218 4.132-14.218 4.132s-.016-.925-.016-1.685c0 0 .032-4.899 2.571-4.899 2.46 0 2.281-2.346 3.835-2.59 1.541-.242 1.712.938 3.625.938 1.912 0 2.25-2.105 4.203-2.105 2.29 0 2.477 2.105 4.39 2.105 1.912 0 2.131-1.224 3.385-.885 1.507.408.815 2.537 3.887 2.537 2.54 0 2.604 4.65 2.604 4.65 0 .76-.017 1.934-.017 1.934s-5.265-4.132-14.249-4.132" fill="#dd2e44"/><path d="M32.675 23.263c0-4.258-6.57-7.71-14.675-7.71s-14.675 3.452-14.675 7.71c0 4.26 6.57 7.712 14.675 7.712s14.675-3.453 14.675-7.712" fill="#ea596e"/><path d="M25.664 22.216c-.605 0-1.095.49-1.095 1.095v7.664a1.095 1.095 0 0 0 2.19 0v-7.664c0-.605-.49-1.095-1.095-1.095" fill="#fff8e8"/><path d="M25.664 29.332c-1.162 0-2.076.532-2.445 1.423-.32.773-.479 2.45 2.058 4.986.214.214.56.214.774 0 2.537-2.536 2.378-4.213 2.058-4.986-.369-.89-1.283-1.423-2.445-1.423" fill="#faaa35"/><path d="M18 18.932c-.604 0-1.095.49-1.095 1.095v7.664a1.096 1.096 0 0 0 2.19 0v-7.664c0-.605-.491-1.095-1.095-1.095" fill="#fff8e8"/><path d="M18 26.048c-1.162 0-2.076.532-2.445 1.422-.321.773-.479 2.45 2.058 4.987.214.214.56.214.774 0 2.537-2.537 2.378-4.214 2.058-4.987-.369-.89-1.283-1.422-2.445-1.422" fill="#faaa35"/><path d="M10.336 22.216c-.604 0-1.095.49-1.095 1.095v7.664a1.096 1.096 0 0 0 2.19 0v-7.664c0-.605-.491-1.095-1.095-1.095" fill="#fff8e8"/><path d="M10.336 29.332c-1.162 0-2.076.532-2.445 1.423-.321.773-.48 2.45 2.058 4.986.214.214.56.214.774 0 2.537-2.536 2.379-4.213 2.058-4.986-.37-.89-1.283-1.423-2.445-1.423" fill="#faaa35"/></g></svg>