<svg xmlns="http://www.w3.org/2000/svg" viewBox="0 0 45 45"><defs><clipPath id="a"><path d="M0 36h36V0H0v36z"/></clipPath></defs><g clip-path="url(#a)" transform="matrix(1.25 0 0 -1.25 0 45)"><path d="M36 10c0-5.5-8-10-18-10S0 4.5 0 10s8 10 18 10 18-4.5 18-10" fill="#8899a6"/><path d="M36 11.8c0-5.6-8-10-18-10S0 6.2 0 11.8s8 10 18 10 18-4.5 18-10" fill="#ccd6dd"/><path d="M32.7 12.3C32.7 8 26 4.6 18 4.6S3.3 8 3.3 12.3 10 20 18 20s14.7-3.4 14.7-7.7" fill="#dd2e44"/><path d="M32.2 13.5c0-9.9-28.4-9.9-28.4 0v8.7h28.4v-8.7z" fill="#f4abba"/><path d="M18 17.8C9 17.8 3.8 22 3.8 22v-1.7s0-5 2.5-5 2.3-2.3 3.9-2.5c1.5-.3 1.7 1 3.6 1 1.9 0 2.2-2.2 4.2-2.2 2.3 0 2.5 2.1 4.4 2.1 1.9 0 2.1-1.2 3.4-.9 1.5.4.8 2.6 3.9 2.6 2.5 0 2.6 4.6 2.6 4.6v2S27 17.8 18 17.8" fill="#dd2e44"/><path d="M32.7 23.3c0-4.3-6.6-7.7-14.7-7.7S3.3 19 3.3 23.3C3.3 27.4 10 31 18 31s14.7-3.5 14.7-7.7" fill="#ea596e"/><path d="M25.7 22.2c-.6 0-1.1.5-1.1 1.1V31a1.1 1.1 0 0 0 2.2 0v-7.7c0-.6-.5-1-1.1-1" fill="#fff8e8"/><path d="M25.7 29.3c-1.2 0-2.1.6-2.5 1.5-.3.7-.5 2.4 2 5 .3.1.6.1.8 0 2.6-2.6 2.4-4.3 2.1-5-.4-1-1.3-1.5-2.4-1.5" fill="#faaa35"/><path d="M18 19c-.6 0-1.1.4-1.1 1v7.7a1.1 1.1 0 0 0 2.2 0V20c0-.6-.5-1-1.1-1" fill="#fff8e8"/><path d="M18 26c-1.2 0-2 .6-2.4 1.5-.4.7-.5 2.4 2 5 .2.2.6.2.8 0 2.5-2.6 2.4-4.3 2-5-.3-1-1.2-1.5-2.4-1.5" fill="#faaa35"/><path d="M10.3 22.2c-.6 0-1 .5-1 1.1V31a1.1 1.1 0 0 0 2.1 0v-7.7c0-.6-.5-1-1-1" fill="#fff8e8"/><path d="M10.3 29.3c-1.1 0-2 .6-2.4 1.5-.3.7-.5 2.4 2 5 .3.1.6.1.8 0 2.6-2.6 2.4-4.3 2-5-.3-1-1.2-1.5-2.4-1.5" fill="#faaa35"/></g></svg>