<svg xmlns="http://www.w3.org/2000/svg" viewBox="0 0 45 45"><defs><clipPath id="a"><path d="M0 36h36V0H0v36z"/></clipPath><clipPath id="b"><path d="M18 36a9 9 0 0 1-9-9v-8a9 9 0 0 1 9-9 9 9 0 0 1 9 9v8a9 9 0 0 1-9 9z"/></clipPath><clipPath id="c"><path d="M0 36h36V0H0v36z"/></clipPath></defs><path d="M37.5 21.3h-30v-2.6h30v2.6z" fill="#292f33"/><g clip-path="url(#a)" transform="matrix(1.25 0 0 -1.25 0 45)"><path d="M21 6c0-2.2-.8-4-3-4s-3 1.8-3 4 .8 2 3 2 3 .2 3-2" fill="#292f33"/><path d="M18 5C11.4 5 8 3.7 8 2V0h20v2c0 1.7-3.4 3-10 3" fill="#66757f"/><path d="M27 19a9 9 0 0 0-9-9 9 9 0 0 0-9 9v8a9 9 0 0 0 9 9 9 9 0 0 0 9-9v-8z" fill="#99aab5"/></g><g clip-path="url(#b)" transform="matrix(1.25 0 0 -1.25 0 45)"><path d="M17 33.5a1.5 1.5 0 1 0-3 0 1.5 1.5 0 0 0 3 0m5 0a1.5 1.5 0 1 0-3 0 1.5 1.5 0 0 0 3 0m-3-4a1.5 1.5 0 1 0-3 0 1.5 1.5 0 0 0 3 0m5 0a1.5 1.5 0 1 0-3 0 1.5 1.5 0 0 0 3 0m-10 0a1.5 1.5 0 1 0-3 0 1.5 1.5 0 0 0 3 0m3-4a1.5 1.5 0 1 0-3 0 1.5 1.5 0 0 0 3 0m-5 0a1.5 1.5 0 1 0-3 0 1.5 1.5 0 0 0 3 0m10 0a1.5 1.5 0 1 0-3 0 1.5 1.5 0 0 0 3 0m5 0a1.5 1.5 0 1 0-3 0 1.5 1.5 0 0 0 3 0m-8-4a1.5 1.5 0 1 0-3 0 1.5 1.5 0 0 0 3 0m5 0a1.5 1.5 0 1 0-3 0 1.5 1.5 0 0 0 3 0m-10 0a1.5 1.5 0 1 0-3 0 1.5 1.5 0 0 0 3 0" fill="#292f33"/><path d="M27 10H9v11h18V10z" fill="#66757f"/></g><g clip-path="url(#c)" transform="matrix(1.25 0 0 -1.25 0 45)" fill="#66757f"><path d="M7 21a1 1 0 1 0-2 0 1 1 0 0 0 2 0m24 0a1 1 0 1 0-2 0 1 1 0 0 0 2 0"/><path d="M29 21v-2a11 11 0 0 0-22 0v2H5v-2a13 13 0 1 1 26 0v2h-2z"/></g></svg>