<svg xmlns="http://www.w3.org/2000/svg" viewBox="0 0 45 45"><defs><clipPath id="a"><path d="M0 36h36V0H0v36z"/></clipPath><clipPath id="b"><path d="M1 35.3h34V8.6H1v26.6z"/></clipPath></defs><g clip-path="url(#a)" transform="matrix(1.25 0 0 -1.25 0 45)"><path d="M24 22H12s-5-6-5-10S18 1 18 1s11 7 11 11-5 10-5 10" fill="#292f33"/><path d="M19.6 34.7c-.9.7-2.3.7-3.2 0L1.6 23.2c-.9-.7-.9-1.8 0-2.5L16.4 9.2c.9-.7 2.3-.7 3.2 0l14.8 11.5c.9.7.9 1.8 0 2.5L19.6 34.7z" fill="#292f33"/><g clip-path="url(#b)" opacity=".3"><path d="M19.6 34.7c-.9.7-2.3.7-3.2 0L1.6 23.2c-.9-.7-.9-1.8 0-2.5L16.4 9.2c.9-.7 2.3-.7 3.2 0l14.8 11.5c.9.7.9 1.8 0 2.5L19.6 34.7z" fill="#67757f"/></g><path d="M8 11S6 9 6 8V2s0-2 2-2 2 2 2 2v6c0 1-2 3-2 3" fill="#fcab40"/><path d="M11 10a3 3 0 1 0-6 0 3 3 0 1 0 6 0" fill="#fdd888"/><path d="M8 9a1 1 0 0 0-1 1v4c0 .6.2 2 1.3 2.8l9 8a1 1 0 1 0 1.4-1.6l-9.1-8C9 14.9 9 14 9 14v-4a1 1 0 0 0-1-1" fill="#fcab40"/><path d="M21 23a3 3 0 1 0-6 0 3 3 0 0 0 6 0" fill="#292f33"/></g></svg>