<svg xmlns="http://www.w3.org/2000/svg" viewBox="0 0 45 45"><defs><clipPath id="a"><path d="M0 36h36V0H0v36z"/></clipPath><clipPath id="b"><path d="M4.8 36c-3.8 0-9-11 1-28l1-1c.3-.2-.2 1 0 1H11c.6 0 1.4.5 1 1-14.2 21-2.6 25-2.6 25.1a1 1 0 0 1 .6 1.1 1 1 0 0 1-1 .8H5z"/></clipPath><clipPath id="c"><path d="M0 36h36V0H0v36z"/></clipPath><clipPath id="d"><path d="M27.2 36a1 1 0 0 1-1-.8 1 1 0 0 1 .6-1c0-.1 11.4-4.3-2.6-25.2-.3-.5.5-1 1-1h4c.3 0-.2-1.2 0-1l1 1A36.7 36.7 0 0 1 36 26v.2c0 6.2-2.6 9.8-4.8 9.8h-4z"/></clipPath><clipPath id="e"><path d="M0 36h36V0H0v36z"/></clipPath></defs><g clip-path="url(#a)" transform="matrix(1.25 0 0 -1.25 0 45)"><path d="M11 8c.5 0 1.3.5 1 1-14.3 21-2.7 25-2.7 25.1a1 1 0 0 1 .6 1.1 1 1 0 0 1-1 .8h-4C1 36-4.3 25 5.8 8l1-1c.2-.2-.3 1 0 1h4z" fill="#c1694f"/></g><g clip-path="url(#b)" transform="matrix(1.25 0 0 -1.25 0 45)"><path d="M13 6c.5 0 1.3.5 1 1-14.2 21-2.6 25-2.6 25.1a1 1 0 0 1-.5 1.9H5C1 34-3.3 23 6.8 7.2c.1-.3 0-.6.2-.8A1 1 0 0 1 8 6h5z" fill="#662113"/></g><g clip-path="url(#c)" transform="matrix(1.25 0 0 -1.25 0 45)"><path d="M10 28a1 1 0 0 0-1 1c0 3.3-2.1 5-4.1 5-.5 0-.1.8 0 1.2a1 1 0 0 0 1 .8h5c3.8 0 5-6.1 5-6.8a1 1 0 0 0-.1-.8 1 1 0 0 0-.8-.4h-5zM25.1 8c-.5 0-1.3.5-1 1 14 21 2.6 25 2.6 25.1a1 1 0 1 0 .4 1.9h4c3.8 0 9-11-1-28-.1-.3-.8-.8-1-1-.2-.2.3 1 0 1h-4z" fill="#c1694f"/></g><g clip-path="url(#d)" transform="matrix(1.25 0 0 -1.25 0 45)"><path d="M23.2 6c-.5 0-1.3.5-1 1 14 21 2.6 25 2.6 25.1a1 1 0 1 0 .4 1.9h6c3.8 0 8-11-2-26.8-.1-.3 0-.6-.2-.8a1 1 0 0 0-.8-.4h-5z" fill="#662113"/></g><g clip-path="url(#e)" transform="matrix(1.25 0 0 -1.25 0 45)"><path d="M26.2 28a1 1 0 0 1 1 1c0 3.3 2 5 4 5 .5 0 .1.8 0 1.2a1 1 0 0 1-1 .8h-5c-3.7 0-4.8-6.1-5-6.8a1 1 0 0 1 1-1.2h5z" fill="#c1694f"/><path d="M6 4s0-4 4-4h16s4 0 4 4v22s0 4-4 4H10c-4 0-4-4-4-4V4z" fill="#be1931"/><path d="M24 8H12c-2.2 0-3 1.8-3 3v14a1 1 0 0 0 2 0V11c0-.5.2-1 1-1h12c.5 0 1 .2 1 1v14a1 1 0 1 0 2 0V11c0-2.2-1.8-3-3-3" fill="#a0041e"/><path d="M16 11s0 1 1 1h2s1 0 1-1V6s0-1-1-1h-2s-1 0-1 1v5z" fill="#fff"/></g></svg>