<svg xmlns="http://www.w3.org/2000/svg" viewBox="0 0 45 45"><defs><clipPath id="a"><path d="M0 36h36V0H0v36z"/></clipPath></defs><g clip-path="url(#a)" transform="matrix(1.25 0 0 -1.25 0 45)"><path d="M24.4 19.7s2.2 4 4.8 4.1c2.5.2 3.9-.9 4.1-3.4.3-3.3-.9-3.8 0-7.5 0 0-3.6 2.4-2.4 6C32 22.7 26 22 27 18.6l-2.6 1z" fill="#dd2e44"/><path d="M14.3 15.6a1 1 0 0 1-1-1V1.1a1 1 0 1 1 2 0v13.5a1 1 0 0 1-1 1" fill="#ffcc4d"/><path d="M15.3 10.2l-2-1V6.9l2 1v2.3zm-2-8l2 1v2.3l-2-1V2.1z" fill="#f4900c"/><path d="M4 14c-1.3.2-2-1.6-2-1.6l.6-2.7c.3-1.2 2.1-3.1 3.3-2.8 1.1.3.8 1.5.4 2.6-.3 1.2-2.4-.6-1.8 2 .2.6 1 .7 1.5.7 2.4-.3 3 .2 3.8 1.3 1 1.3-4.7.5-5.9.6m25.2-6.7c0-2.4 1.2-3.6 3.5-3.6 2.4 0 1.2 0 0 2.4a8.9 8.9 0 0 1-3.5 3.5V7.4z" fill="#8899a6"/><path d="M35 5c-1.2 1.2-2.4 0-2.4 2.3 0 2.4-1.2 3.6-2.4 3.6S29 15.7 29 17c0 1.1-2.3 5.9-5.9 5.9-3.6 0-6-1.2-8.3-1.2-2.4 0-3.6 0-4.7 4.7C9 30 5.3 31.1 1.8 30c0 0-2.6 1-1.4-.2 1.1-1.2-.2-1-.2-3.4l.1-.7V22c.1-.7.4-.9 1.2-1.2 1.1-.5 1.8.3 1.8.7.2.8 0 1.6 0 1.6s1.2.5 2 1.2c0-.1.6-1.2 0-2.7-.4-1.1-1.2-2.4 1.2-6 0 0-3.6 0-4.8-1.1C.6 13.3.3 10.9.3 9.7.3 8.1 1.8 6.2 3 6.2c1 0 1 1.2 1 2.3 0 1.2-2.3 0-1.2 2.4s1.2 1.2 2.4 1.2 3.6 1.2 4.8 1.2c1.2 0 3.5-1.2 5.9-1.2 2.4 0 4.8 2.4 7.1 0s6-2.4 7.1-3.5c1.2-1.2 1.2-2.4 1.2-3.6s2.4-2.4 3.6-2.4c1.2 0 1.2 1.2 0 2.4" fill="#ccd6dd"/><path d="M10.7 24.2c1-2.6 2.2-2.6 4.1-2.6 2 0 4 .8 6.7 1.1l.4-1.1c1.2-3.6 0-6-5.9-6a6 6 0 0 0-6 6c0 1 .3 1.8.7 2.6" fill="#3b94d9"/><path d="M5.6 16.3l.7.1c.2.1 4.2 2.2 6 6 .2.5-1.3 1.7-1.5 1.6a1.2 1.2 0 0 1-.7-.7c-1.4-3-4.8-4.7-4.9-4.8a1.2 1.2 0 0 1 .4-2.2" fill="#f4900c"/><path d="M15.8 20.8c0-.7-.7-1.2-1.5-1.2s-1.5.5-1.5 1.1c0 .7.7 1.2 1.5 1.2s1.5-.5 1.5-1.1" fill="#1c6399"/><path d="M14.3 35.8a1 1 0 0 1-1-1V21.1a1 1 0 0 1 2 0v13.6a1 1 0 0 1-1 1" fill="#ffcc4d"/><path d="M15.3 34l-2-1v-2.3l2 1V34zm0-4.8l-2-1v-2.3l2 1v2.3zm-2-8l2 1v2.3l-2-1v-2.3z" fill="#f4900c"/><path d="M3.3 22.8a.5.5 0 0 0-.3 0 5.1 5.1 0 0 1-2.3.7.5.5 0 0 0 0 1s1 0 2.3-.6c.3.9.8 2.7.5 5a.5.5 0 0 0 1 .1c.4-3.4-.7-5.9-.8-6a.5.5 0 0 0-.4-.3" fill="#1c6399"/><path d="M2.1 27.6c.2-.1.3-.4.1-.7-.2-.2-.5-.3-.7-.2-.2.1-.2.4 0 .7.2.2.5.3.6.2" fill="#292f33"/><path d="M12.4 22.8c-2.3 2.4-1 5.2-3.3 7.6-2 1.9-5 1.9-7.3-.5 0 0 1-1 4-1.4 1.5-.1 2.7-1.7 3.4-2.8 2.2-4.3 5-4.7 3.2-3" fill="#dd2e44"/></g></svg>