<svg xmlns="http://www.w3.org/2000/svg" viewBox="0 0 45 45"><defs><clipPath id="a"><path d="M0 36h36V0H0v36z"/></clipPath></defs><path d="M38.5 19.2H24L34.3 8.9l-1-.9-10.2 10.3V3.8H22v14.5L11.6 8l-.9 1L21 19.1H6.5v1.2H21L10.7 30.7l1 .9 10.2-10.3v14.5H23V21.3l10.3 10.3.9-.9L24 20.4h14.5v-1.2z" fill="#ccd6dd"/><g clip-path="url(#a)" transform="matrix(1.25 0 0 -1.25 0 45)"><path d="M18 8a12.2 12.2 0 1 0 0 24.4 12.2 12.2 0 0 0 0-24.5m0 26.7a14.4 14.4 0 1 1 0-28.9 14.4 14.4 0 0 1 0 28.9" fill="#aab8c2"/><path d="M18 26.2a6 6 0 0 1-6-6 6 6 0 0 1 6-6 6 6 0 0 1 6 6 6 6 0 0 1-6 6m0-13.6a7.5 7.5 0 1 0 0 15.1 7.5 7.5 0 0 0 0-15" fill="#aab8c2"/><path d="M27.3 1.6l-8.4 18.3v.1l-.2.2a.7.7 0 0 1-.2.1v.1h-.3l-.2.1h-.4l-.1-.2-.2-.1a.5.5 0 0 1-.1-.2H17L8.7 1.5a1 1 0 1 1 1.8-.9L18 17.1 25.5.7a1 1 0 0 1 1.8.9" fill="#8899a6"/><path d="M12.9 0H7.1a1 1 0 1 0 0 2h5.8a1 1 0 1 0 0-2m16 0h-5.8a1 1 0 1 0 0 2h5.8a1 1 0 1 0 0-2" fill="#553788"/><path d="M21.3 6.2a2.8 2.8 0 0 0-2.8-2.8h-1.1a2.8 2.8 0 1 0 0 5.6h1.1a2.8 2.8 0 0 0 2.8-2.8" fill="#744eaa"/><path d="M21.2 6.7A2.8 2.8 0 0 1 18.5 9h-1.1a2.8 2.8 0 0 1-2.7-2.3h6.5z" fill="#cbb7ea"/><path d="M11 9.5a2.8 2.8 0 0 0-2.8-2.8h-1a2.8 2.8 0 1 0 0 5.6h1A2.8 2.8 0 0 0 11 9.5" fill="#5c913b"/><path d="M11 10a2.8 2.8 0 0 1-2.8 2.2h-1A2.8 2.8 0 0 1 4.3 10H11z" fill="#c6e5b3"/><path d="M35 18.4a2.8 2.8 0 0 0-2.8-2.8h-1.1a2.8 2.8 0 1 0 0 5.6h1a2.8 2.8 0 0 0 2.9-2.8" fill="#3b94d9"/><path d="M35 19a2.8 2.8 0 0 1-2.8 2.2h-1.1a2.8 2.8 0 0 1-2.7-2.3h6.5z" fill="#bbddf5"/><path d="M31.6 28.1a2.8 2.8 0 0 0-2.7-2.8h-1.1a2.8 2.8 0 1 0 0 5.6h1a2.8 2.8 0 0 0 2.8-2.8" fill="#5c913b"/><path d="M31.6 28.7a2.8 2.8 0 0 1-2.7 2.2h-1.1a2.8 2.8 0 0 1-2.8-2.2h6.6z" fill="#c6e5b3"/><path d="M31.6 9.5A2.8 2.8 0 0 0 29 6.7h-1.1a2.8 2.8 0 1 0 0 5.6h1a2.8 2.8 0 0 0 2.8-2.8" fill="#be1931"/><path d="M31.6 10a2.8 2.8 0 0 1-2.7 2.2h-1.1A2.8 2.8 0 0 1 25 10h6.6z" fill="#f4abba"/><path d="M11 28.1a2.8 2.8 0 0 0-2.8-2.8h-1a2.8 2.8 0 1 0 0 5.6h1A2.8 2.8 0 0 0 11 28" fill="#be1931"/><path d="M11 28.7a2.8 2.8 0 0 1-2.8 2.2h-1a2.8 2.8 0 0 1-2.8-2.2H11z" fill="#f4abba"/><path d="M21.3 33.1a2.8 2.8 0 0 0-2.8-2.8h-1.1a2.8 2.8 0 1 0 0 5.6h1.1a2.8 2.8 0 0 0 2.8-2.8" fill="#744eaa"/><path d="M21.2 33.7a2.8 2.8 0 0 1-2.7 2.2h-1.1a2.8 2.8 0 0 1-2.7-2.2h6.5z" fill="#cbb7ea"/><path d="M7.7 18.4a2.8 2.8 0 0 0-2.8-2.8H3.8a2.8 2.8 0 1 0 0 5.6h1.1a2.8 2.8 0 0 0 2.8-2.8" fill="#3b94d9"/><path d="M7.6 19A2.8 2.8 0 0 1 5 21.1H3.8a2.8 2.8 0 0 1-2.7-2.3h6.5z" fill="#bbddf5"/><path d="M15 20.1a3 3 0 1 0 6 0 3 3 0 0 0-6 0" fill="#553788"/></g></svg>