<svg xmlns="http://www.w3.org/2000/svg" viewBox="0 0 45 45"><defs><clipPath id="a"><path d="M0 36h36V0H0v36z"/></clipPath></defs><g clip-path="url(#a)" transform="matrix(1.25 0 0 -1.25 0 45)"><path d="M35.8 4a4 4 0 0 0-4-4h-26a4 4 0 0 0-4 4v13a4 4 0 0 0 4 4h26a4 4 0 0 0 4-4V4z" fill="#3f7123"/><path d="M35.8 15h-34v6h34v-6z" fill="#3f7123"/><path d="M35.8 14h-34v7h34v-7z" fill="#ccd6dd"/><path d="M26.8 21l-4-7h7l4 7h-7zm-14 0l-4-7h7l4 7h-7zm-11 0h4l-4-7v7z" fill="#292f33"/><path d="M34.8 29.2L1.8 21 .2 27.8l33 8.2 1.6-6.8z" fill="#ccd6dd"/><path d="M32.9 28.7l-5.6 5.9-6.8-1.7 5.6-5.9 6.8 1.7zm-13.6-3.3l-5.6 5.8L7 29.5l5.6-5.8 6.8 1.7zM.2 27.8L5.7 22l-3.9-1-1.7 6.8z" fill="#292f33"/></g></svg>