<svg xmlns="http://www.w3.org/2000/svg" viewBox="0 0 45 45"><defs><clipPath id="a"><path d="M0 36h36V0H0v36z"/></clipPath></defs><g clip-path="url(#a)" transform="matrix(1.25 0 0 -1.25 0 45)"><path d="M20.9 8.4c-.4-1.3-2.5-2-4.7-1.3-2.1.7-3.5 2.3-3.1 3.6.4 1.4 2.4 2 4.6 1.3 2.1-.6 3.5-2.2 3.2-3.6M18 33C8 33 0 26 0 17.5c0-1 .1-2 .4-3 1.8-3.1 3-1.2 8.6 1.6 5.7 2.9 0-4-2-8-.6-1.2-.3-2.3.6-3.1A20 20 0 0 1 18 2c10 0 18 6.9 18 15.4S28 33 18 33" fill="#d99e82"/><path d="M13 25a3 3 0 1 0-6 0 3 3 0 0 0 6 0" fill="#5c913b"/><path d="M23 27a3 3 0 1 0-6 0 3 3 0 0 0 6 0" fill="#269"/><path d="M32 21a3 3 0 1 0-6 0 3 3 0 0 0 6 0" fill="#dd2e44"/><path d="M31 12a3 3 0 0 0-6 0 3 3 0 0 0 6 0" fill="#ffcc4d"/></g></svg>