<svg xmlns="http://www.w3.org/2000/svg" viewBox="0 0 45 45"><defs><clipPath id="a"><path d="M0 36h36V0H0v36z"/></clipPath></defs><path d="M38.507 19.184H24.002L34.258 8.926l-.883-.883-10.258 10.256V3.794h-1.25V18.3L11.61 8.043l-.884.884 10.257 10.257H6.477v1.25h14.506L10.726 30.692l.884.883 10.257-10.257v14.506h1.25V21.319l10.258 10.256.883-.884-10.256-10.257h14.505v-1.25z" fill="#ccd6dd"/><g clip-path="url(#a)" transform="matrix(1.25 0 0 -1.25 0 45)"><path d="M17.994 7.923c-6.755 0-12.23 5.476-12.23 12.23 0 6.754 5.475 12.229 12.23 12.229 6.754 0 12.23-5.475 12.23-12.23 0-6.753-5.476-12.23-12.23-12.23m0 26.684c-7.983 0-14.454-6.471-14.454-14.453 0-7.983 6.471-14.454 14.454-14.454 7.982 0 14.453 6.47 14.453 14.454 0 7.982-6.47 14.453-14.453 14.453" fill="#aab8c2"/><path d="M17.993 26.18a6.033 6.033 0 0 1-6.026-6.027 6.033 6.033 0 0 1 6.026-6.027 6.034 6.034 0 0 1 6.028 6.027 6.034 6.034 0 0 1-6.028 6.026m0-13.553c-4.15 0-7.526 3.377-7.526 7.527s3.376 7.526 7.526 7.526c4.151 0 7.528-3.376 7.528-7.526s-3.377-7.527-7.528-7.527" fill="#aab8c2"/><path d="M27.28 1.571l-8.377 18.344c-.02.046-.059.076-.085.117-.038.06-.072.12-.122.17-.05.05-.11.084-.17.122-.04.027-.07.064-.117.085-.012.006-.024.004-.035.01-.065.025-.133.033-.2.046-.062.011-.122.03-.183.03-.054 0-.106-.018-.16-.027-.075-.013-.15-.022-.219-.05-.012-.005-.023-.004-.034-.009-.045-.02-.074-.056-.114-.082-.06-.039-.12-.074-.173-.126-.05-.05-.086-.11-.124-.17-.026-.04-.063-.07-.083-.116L8.71 1.571a1 1 0 1 1 1.82-.83l7.464 16.351L25.46.742a1 1 0 0 1 1.82.83" fill="#8899a6"/><path d="M12.9 0H7.079a1 1 0 1 0 0 2h5.82a1 1 0 1 0 0-2M28.9 0h-5.82a1 1 0 1 0 0 2h5.82a1 1 0 1 0 0-2" fill="#553788"/><path d="M21.283 6.18a2.779 2.779 0 0 0-2.779-2.778h-1.112a2.779 2.779 0 1 0 0 5.558h1.112a2.779 2.779 0 0 0 2.78-2.78" fill="#744eaa"/><path d="M21.227 6.736a2.779 2.779 0 0 1-2.724 2.224h-1.11a2.78 2.78 0 0 1-2.725-2.224h6.56z" fill="#cbb7ea"/><path d="M11.017 9.473a2.78 2.78 0 0 0-2.78-2.78H7.125a2.779 2.779 0 1 0 0 5.559h1.112a2.78 2.78 0 0 0 2.78-2.78" fill="#5c913b"/><path d="M10.96 10.03a2.778 2.778 0 0 1-2.723 2.222H7.125a2.78 2.78 0 0 1-2.724-2.223h6.56z" fill="#c6e5b3"/><path d="M34.977 18.367a2.779 2.779 0 0 0-2.78-2.779h-1.111a2.779 2.779 0 1 0 0 5.56h1.112a2.78 2.78 0 0 0 2.779-2.78" fill="#3b94d9"/><path d="M34.92 18.923a2.78 2.78 0 0 1-2.723 2.224h-1.111a2.78 2.78 0 0 1-2.724-2.224h6.559z" fill="#bbddf5"/><path d="M31.645 28.113a2.779 2.779 0 0 0-2.78-2.78h-1.112a2.779 2.779 0 1 0 0 5.56h1.111a2.78 2.78 0 0 0 2.78-2.78" fill="#5c913b"/><path d="M31.588 28.669a2.78 2.78 0 0 1-2.724 2.224h-1.111a2.779 2.779 0 0 1-2.723-2.224h6.558z" fill="#c6e5b3"/><path d="M31.645 9.473a2.78 2.78 0 0 0-2.78-2.78h-1.112a2.779 2.779 0 1 0 0 5.559h1.111a2.78 2.78 0 0 0 2.78-2.78" fill="#be1931"/><path d="M31.588 10.03a2.78 2.78 0 0 1-2.724 2.222h-1.111a2.778 2.778 0 0 1-2.723-2.223h6.558z" fill="#f4abba"/><path d="M11.017 28.113a2.78 2.78 0 0 0-2.78-2.78H7.125a2.779 2.779 0 1 0 0 5.56h1.112a2.78 2.78 0 0 0 2.78-2.78" fill="#be1931"/><path d="M10.96 28.669a2.779 2.779 0 0 1-2.723 2.224H7.125a2.78 2.78 0 0 1-2.724-2.224h6.56z" fill="#f4abba"/><path d="M21.283 33.124a2.779 2.779 0 0 0-2.779-2.779h-1.112a2.779 2.779 0 1 0 0 5.558h1.112a2.779 2.779 0 0 0 2.78-2.779" fill="#744eaa"/><path d="M21.227 33.68a2.779 2.779 0 0 1-2.724 2.224h-1.11a2.78 2.78 0 0 1-2.725-2.224h6.56z" fill="#cbb7ea"/><path d="M7.682 18.367a2.78 2.78 0 0 0-2.78-2.779H3.79a2.779 2.779 0 1 0 0 5.56h1.112a2.78 2.78 0 0 0 2.78-2.78" fill="#3b94d9"/><path d="M7.625 18.923a2.779 2.779 0 0 1-2.723 2.224H3.79a2.782 2.782 0 0 1-2.724-2.224h6.559z" fill="#bbddf5"/><path d="M14.952 20.153a3.042 3.042 0 1 0 6.084-.002 3.042 3.042 0 0 0-6.084.002" fill="#553788"/></g></svg>