<svg xmlns="http://www.w3.org/2000/svg" viewBox="0 0 45 45"><defs><clipPath id="a"><path d="M0 36h36V0H0v36z"/></clipPath><clipPath id="b"><path d="M6 17a2 2 0 0 1-2-2L3 3a2 2 0 0 1 2-2h26a2 2 0 0 1 2 2l-1 12c0-1.6-.9 2-2 2H6z"/></clipPath><clipPath id="c"><path d="M3 17c0-4.8 0-3 2-3h26c2 0 2-1 2 3s-8 2-15 13C11 19 3 21 3 17"/></clipPath><clipPath id="d"><path d="M0 36h36V0H0v36z"/></clipPath></defs><g clip-path="url(#a)" transform="matrix(1.25 0 0 -1.25 0 45)"><path d="M33 3a2 2 0 0 0-2-2H5a2 2 0 0 0-2 2l1 12a2 2 0 0 0 2 2h24c1.1 0 2-3.6 2-2l1-12z" fill="#dd2e44"/><path d="M19 27a1 1 0 0 0-2 0v7a1 1 0 0 0 1 1c.6 0 1-.4 1-1v-7z"/><path d="M18.8 35.8c-1.1.2-1.8-.1-1.8-1.2v-1c0-1.1.9-1.8 2-1.5l5 1c1.8.3 1.6 1.5.2 1.8l-5.4.9z" fill="#55acee"/><path d="M18 30C11 19 3 21 3 17c0-2 0-3 2-3h26c2 0 2 1 2 3 0 4-8 2-15 13" fill="#f5f8fa"/></g><g clip-path="url(#b)" transform="matrix(1.25 0 0 -1.25 0 45)"><path d="M13 1a12 12 0 0 1-3.4 4.7C11.3 7 14 11.2 14.8 14c.7 2.7 2.8-8.2 2-10.7C16.3.8 13 1 13 1m10.3 0a11.3 11.3 0 0 0 3.4 4.7 20.4 20.4 0 0 0-5.2 8.3c-.7 2.7-2.8-8.2-2-10.7C20 .8 23.2 1 23.2 1" fill="#ea596e"/><path d="M8 13.5a2.5 2.5 0 1 0-5 0 2.5 2.5 0 0 0 5 0m25 0a2.5 2.5 0 1 0-5 0 2.5 2.5 0 0 0 5 0M16 13a2 2 0 1 0-4 0 2 2 0 0 0 4 0m8 0a2 2 0 1 0-4 0 2 2 0 0 0 4 0m-12 0a2 2 0 1 0-4 0 2 2 0 0 0 4 0m16 0a2 2 0 1 0-4 0 2 2 0 0 0 4 0" fill="#be1931"/><path d="M23 1H13s2 6 2 13h6c0-7 2-13 2-13"/></g><g clip-path="url(#c)" transform="matrix(1.25 0 0 -1.25 0 45)" fill="#ccd6dd"><path d="M8 18c3 2 10 7 10 13S7 32 4 30s-5-8-4-11 3-6 8-6v5z"/><path d="M28 18c-3 2-10.1 7-10.1 13s10.9 1 13.9-1 5.1-8 4.1-11-2.9-6-7.9-6v5z"/><path d="M18 30c0 2 0-10-2-12v-5c0-1-4-2-4 0v5c1 1 6 7 6 12m0 0c0 2 0-10 2-12v-5c0-1 4-2 4 0v5c-1 1-6 7-6 12"/></g><g clip-path="url(#d)" transform="matrix(1.25 0 0 -1.25 0 45)"><path d="M8 14.5a2.5 2.5 0 1 0-5 0 2.5 2.5 0 0 0 5 0m25 0a2.5 2.5 0 1 0-5 0 2.5 2.5 0 0 0 5 0M16 14a2 2 0 1 0-4 0 2 2 0 0 0 4 0m8 0a2 2 0 1 0-4 0 2 2 0 0 0 4 0" fill="#ccd6dd"/><path d="M20 14a2 2 0 1 0-4 0 2 2 0 0 0 4 0m-8 0a2 2 0 1 0-4 0 2 2 0 0 0 4 0m16 0a2 2 0 1 0-4 0 2 2 0 0 0 4 0" fill="#f5f8fa"/></g></svg>