<svg xmlns="http://www.w3.org/2000/svg" viewBox="0 0 45 45"><defs><clipPath id="a"><path d="M0 36h36V0H0v36z"/></clipPath></defs><path d="M34.4 10.4v9.2h-3.9v1.2h4v5H23.1v-5.7h-1.3v5.7H16v1.3h6v5H10.7v-4H9.5v4H2.8v1.2h6.7v5H2.8v1.3h6.7V45h1.3v-5.4h11.1V45h1.3v-5.4h11.2V45h1.3v-5.4h5v-1.3h-5v-5h5V32h-5v-5h5v-1.2h-5v-5h5v-1.3h-5v-9h-1.3zM23.2 27.1h11.2v5H23.2v-5zm0 6.2h11.2v5H23.2v-5zm-12.4 0h11.1v5H10.8v-5z" fill="#e1e8ed"/><path d="M38.8 45h5V8.2h-5V45z" fill="#ccd6dd"/><path d="M42.6 45h1.2V8.2h-1.2V45z" fill="#8899a6"/><path d="M26.3 15.8V45h5V12.8l-5 3zM13.8 45h5V26.1h-5V45zM1.3 45h5V32.1h-5V45z" fill="#ccd6dd"/><path d="M5 45h1.3V32.1H5.1V45zm12.6 0h1.2V26.1h-1.2V45zM30 45h1.2V12.8H30V45z" fill="#8899a6"/><g clip-path="url(#a)" transform="matrix(1.25 0 0 -1.25 0 45)"><path d="M18.8 19.6A66.6 66.6 0 0 0 0 7V5.2a71.8 71.8 0 0 1 20.4 13.7c4.8 4 9.3 8 11.7 8 1.5 0 2.8-.6 3.9-1.4v1.8a7.5 7.5 0 0 1-3.9 1c-3 0-8-4.2-13.3-8.7" fill="#ccd6dd"/><path d="M32.1 31.3C28 31.3 22.8 27 17 22c-5.5-4.6-11.3-9.6-17-11.8V7c6.5 2.2 13 7.7 18.8 12.6 5.3 4.5 10.3 8.7 13.3 8.7a7.5 7.5 0 0 0 3.9-1v3.3a10.8 10.8 0 0 1-3.9.7" fill="#dd2e44"/><path d="M11 21.6l-.5-.3a.3.3 0 0 0-.4 0l-1 1.2a.3.3 0 0 0 .1.5l.4.3a.3.3 0 0 0 .5-.1L11 22a.3.3 0 0 0 0-.4m3.4 2.6L14 24a.3.3 0 0 0-.5 0l-.9 1.2a.3.3 0 0 0 0 .5l.4.3a.3.3 0 0 0 .5 0l.9-1.2a.3.3 0 0 0 0-.5m6.5 5.2l-.4-.3a.3.3 0 0 0-.5 0l-.9 1.2a.3.3 0 0 0 0 .5l.4.3a.3.3 0 0 0 .5 0l1-1.2a.3.3 0 0 0-.1-.5m3.4 2.7l-.3-.3a.3.3 0 0 0-.5 0l-.9 1.2a.3.3 0 0 0 0 .5l.4.3a.3.3 0 0 0 .5-.1l.9-1.2a.3.3 0 0 0 0-.4m-8.6-9.7a.8.8 0 0 0-.5 1.3l1.4 1.2a.8.8 0 1 0 1-1.2l-1.4-1.1a.8.8 0 0 0-.5-.2" fill="#1c6399"/><path d="M8.2 21.5l-2.6 1.7a.3.3 0 1 1-.3-.4L7.9 21a.3.3 0 0 1 .4.1.3.3 0 0 1 0 .3m3.3 2.7l-2.6 2a.3.3 0 1 1-.3-.5l2.7-1.9a.3.3 0 0 1 .2.4m6.6 5.2l-2.7 1.5a.3.3 0 0 1-.4 0 .3.3 0 0 1 .1-.4l2.8-1.5a.3.3 0 1 1 .2.4m3.3 2.8l-2.6 1.4a.3.3 0 1 1-.3-.5l2.7-1.3a.3.3 0 0 1 .3 0 .3.3 0 0 1 0 .4" fill="#ffe8b6"/><path d="M10.3 21c.9-1.1.7-1.8.2-2.2-.5-.4-1.2-.4-2 .6-.9 1-1.1 2.3-.6 2.7.5.4 1.6-.1 2.5-1.2" fill="#be1931"/><path d="M13.7 23.6c.9-1 .7-1.7.2-2.1-.5-.4-1.2-.4-2 .6-.9 1-1.1 2.2-.6 2.6.5.5 1.6 0 2.4-1.1" fill="#5c913b"/><path d="M13.6 24.3l-5.9-4.6c-1.5-1.2-.6-4-.3-4.3a.8.8 0 0 1 1.2-.2l7.4 5.9c.8.5.9 1.6.3 2.4l-.4.5c-.6.7-1.6.9-2.3.3" fill="#3b94d9"/><path d="M20.2 28.9c.8-1 .7-1.7.1-2.1-.5-.5-1.2-.4-2 .6s-1 2.2-.6 2.6c.6.4 1.7 0 2.5-1.1" fill="#fa743e"/><path d="M23.6 31.6c.8-1 .7-1.7.2-2.1-.5-.4-1.2-.4-2 .6-.9 1-1.1 2.2-.6 2.7.5.4 1.6-.1 2.4-1.2" fill="#744eaa"/><path d="M23.4 32.3l-5.9-4.6c-1.5-1.2-.6-4-.3-4.4a.8.8 0 0 1 1.2-.1l7.5 5.8c.7.6.8 1.7.3 2.4l-.5.5c-.5.8-1.6 1-2.3.4" fill="#3b94d9"/><path d="M9.1 15.2a.5.5 0 0 0-.3.9l7 5.5a.5.5 0 0 0 .7-.8l-7.1-5.5a.5.5 0 0 0-.3-.1m9.8 7.9a.5.5 0 0 0-.3.9l7 5.5a.5.5 0 1 0 .6-.8l-7-5.5a.5.5 0 0 0-.3-.1" fill="#e1e8ed"/><path d="M21.3 34c.4-.4.4-1 0-1.3-.4-.4-1.2-.2-1.6.2l-.3.3c-.4.6.1.8.5 1 .4.4 1 .3 1.4-.1" fill="#ffdc5d"/><path d="M21 34.6s-.3.3 0 .6c.4.3.7 0 1 .1.3 0 .5.3.6.5l-.1-.7a1 1 0 0 0-.9-.6.8.8 0 0 0-.6.1" fill="#ffac33"/><path d="M19.3 34.1c0 .3.5.7 1 .9.5 0 .9-.2 1.1-.6.2-.4.2-1 .2-1l-.5.3s0 .4-.2.4-.2-.1-.1-.2l.1-.4-.4.3c-.2 0-.8-.7-1-.6-.2.1-.3.5-.2 1" fill="#ffac33"/><path d="M7.9 23.2c.4-.4.4-1 0-1.4-.3-.3-1.1-.3-1.5.1l-.3.3c-.4.6 0 .8.4 1.1.3.4 1 .4 1.4 0" fill="#ffdc5d"/><path d="M7.5 23.8s-.3.2 0 .6c.3.3.7 0 1 .2.3 0 .5.2.5.5v-.7a1.4 1.4 0 0 0-.8-.7h-.7" fill="#ffac33"/><path d="M5.8 23.1c0 .3.5.8 1 1 .5.1.9-.1 1.2-.5.2-.4.2-1 .2-1l-.5.2c.1.1-.1.5-.2.4-.2 0-.2-.1-.1-.2l.2-.4-.4.3c-.3 0-.8-.8-1-.7-.2.1-.4.5-.4 1" fill="#ffac33"/><path d="M17.8 31.3c.4-.4.4-1 0-1.4-.4-.3-1.2-.2-1.6.2l-.2.4c-.4.6 0 .7.4 1 .4.3 1 .2 1.4-.2" fill="#ffdc5d"/><path d="M15.8 31.4c0 .3.5.7 1 .8.5.1.9-.2 1.1-.6.3-.4.2-1 .2-1l-.5.3c.1.1 0 .4-.2.4s-.2 0-.1-.2V31l-.5.2c-.3 0-.6-.8-.8-.6-.2 0-.3.5-.2.9" fill="#ffac33"/><path d="M11.4 26c.4-.5.4-1.1 0-1.5-.4-.3-1.2-.2-1.6.3l-.2.3c-.4.6 0 .8.4 1 .4.4 1 .3 1.4-.2" fill="#ffdc5d"/><path d="M9.4 26c0 .3.5.7 1 .8.5.1.9-.1 1.1-.5.3-.4.2-1 .2-1l-.5.3c.1 0 0 .4-.2.4s-.2-.1-.1-.2v-.3l-.5.2c-.3 0-.6-.8-.8-.6-.2.1-.3.5-.2.9" fill="#ffac33"/><path d="M21.8 32.4L19 34.8a.3.3 0 0 1-.3-.4l2.7-2.4a.3.3 0 0 1 .4 0 .3.3 0 0 1 0 .3m-3.5-2.6l-2.6 2.1a.3.3 0 1 1-.3-.4l2.6-2a.3.3 0 0 1 .3 0 .3.3 0 0 1 0 .3m-9.8-8l-2.8 2.5a.3.3 0 0 1-.3-.4L8 21.3a.2.2 0 0 1 .2 0 .3.3 0 0 1 .2.4m3.4 2.7l-2.6 2.4a.3.3 0 0 1-.4-.3l2.7-2.5a.3.3 0 0 1 .3.4" fill="#ffe8b6"/></g></svg>