<svg xmlns="http://www.w3.org/2000/svg" viewBox="0 0 45 45"><defs><clipPath id="a"><path d="M0 36h36V0H0v36z"/></clipPath></defs><path d="M34.411 10.416v9.14h-3.887v1.25h3.887v5H23.188V20.05h-1.25v5.754H16v1.25h5.938v5H10.765v-4.007h-1.25v4.007H2.756v1.25h6.76v5h-6.76v1.251h6.76V45h1.25v-5.444h11.172V45h1.25v-5.444H34.41V45h1.25v-5.444h5.104v-1.25h-5.104v-5h5.104v-1.25h-5.104v-5h5.104v-1.25h-5.104v-5h5.104v-1.25h-5.104v-9.14h-1.25zm-11.223 16.64H34.41v5H23.188v-5zm0 6.25H34.41v5H23.188v-5zm-12.423 0h11.173v5H10.765v-5z" fill="#e1e8ed"/><path d="M38.813 45h5V8.242h-5V45z" fill="#ccd6dd"/><path d="M42.563 45h1.25V8.242h-1.25V45z" fill="#8899a6"/><path d="M26.313 15.782V45h5V12.76l-5 3.022zM13.813 45h5V26.146h-5V45zM1.313 45h5V32.135h-5V45z" fill="#ccd6dd"/><path d="M5.063 45h1.25V32.135h-1.25V45zM17.563 45h1.25V26.146h-1.25V45zM30.063 45h1.25V12.761h-1.25V45z" fill="#8899a6"/><g clip-path="url(#a)" transform="matrix(1.25 0 0 -1.25 0 45)"><path d="M18.804 19.622C12.948 14.673 6.49 9.23 0 6.965V5.148c7.387 2.665 14.422 8.661 20.364 13.725 4.789 4.083 9.313 7.94 11.763 7.94 1.46 0 2.746-.514 3.873-1.338v1.787a7.521 7.521 0 0 1-3.873 1.05c-3.041 0-8.035-4.22-13.323-8.69" fill="#ccd6dd"/><path d="M32.127 31.313c-4.139 0-9.292-4.355-15.26-9.4C11.523 17.396 5.653 12.443 0 10.16V6.964c6.491 2.265 12.948 7.708 18.804 12.658 5.288 4.47 10.282 8.69 13.323 8.69A7.524 7.524 0 0 0 36 27.262v3.36a10.833 10.833 0 0 1-3.873.69" fill="#dd2e44"/><path d="M10.912 21.578l-.368-.29a.328.328 0 0 0-.46.055l-.917 1.164a.328.328 0 0 0 .054.46l.368.29a.328.328 0 0 0 .46-.055l.917-1.165a.326.326 0 0 0-.054-.46M14.35 24.21l-.368-.29a.328.328 0 0 0-.46.054l-.917 1.165a.326.326 0 0 0 .054.459l.368.29a.328.328 0 0 0 .46-.054l.917-1.165a.326.326 0 0 0-.054-.459M20.87 29.419l-.368-.29a.326.326 0 0 0-.459.055l-.918 1.164a.327.327 0 0 0 .055.459l.368.29a.326.326 0 0 0 .46-.054l.917-1.165a.326.326 0 0 0-.055-.46M24.34 32.083l-.367-.29a.327.327 0 0 0-.46.054l-.917 1.165a.326.326 0 0 0 .055.459l.368.29a.326.326 0 0 0 .459-.054l.918-1.165a.327.327 0 0 0-.055-.46M15.81 22.404a.75.75 0 0 0-.476 1.331l1.41 1.152a.75.75 0 1 0 .949-1.161l-1.409-1.153a.755.755 0 0 0-.475-.169" fill="#1c6399"/><path d="M8.207 21.457l-2.65 1.751a.25.25 0 1 1-.276-.417l2.652-1.75a.25.25 0 0 1 .346.071.25.25 0 0 1-.072.345M11.64 24.135l-2.67 1.912a.25.25 0 1 1-.291-.406l2.67-1.912a.25.25 0 0 1 .291.406M18.212 29.352l-2.748 1.476a.25.25 0 0 1-.339-.102.25.25 0 0 1 .103-.338l2.748-1.476a.25.25 0 1 1 .236.44M21.493 32.134l-2.633 1.347a.25.25 0 1 1-.229-.445l2.633-1.347a.248.248 0 0 1 .337.109.25.25 0 0 1-.108.336" fill="#ffe8b6"/><path d="M10.35 20.931c.82-1.043.675-1.73.153-2.14-.522-.41-1.224-.388-2.044.656-.819 1.043-1.062 2.221-.54 2.631.523.411 1.61-.104 2.43-1.147" fill="#be1931"/><path d="M13.745 23.6c.82-1.044.676-1.73.154-2.142-.522-.41-1.224-.387-2.044.657-.82 1.043-1.061 2.221-.54 2.631.523.411 1.61-.104 2.43-1.147" fill="#5c913b"/><path d="M13.6 24.33l-5.893-4.628c-1.522-1.196-.604-4.01-.332-4.356a.855.855 0 0 1 1.2-.144l7.46 5.86c.741.583.87 1.657.287 2.399l-.406.517c-.583.742-1.62.9-2.317.353" fill="#3b94d9"/><path d="M20.178 28.892c.82-1.043.677-1.73.154-2.14-.522-.41-1.223-.388-2.043.656-.82 1.044-1.062 2.221-.54 2.631.522.411 1.61-.103 2.429-1.147" fill="#fa743e"/><path d="M23.629 31.613c.819-1.044.676-1.73.153-2.14-.522-.41-1.223-.388-2.044.656-.82 1.043-1.061 2.221-.54 2.631.524.411 1.61-.104 2.43-1.147" fill="#744eaa"/><path d="M23.429 32.291l-5.893-4.628c-1.522-1.196-.604-4.01-.332-4.356a.854.854 0 0 1 1.2-.144l7.46 5.859c.742.582.87 1.657.288 2.399l-.407.517c-.583.742-1.62.9-2.316.353" fill="#3b94d9"/><path d="M9.096 15.162a.5.5 0 0 0-.308.894l7.06 5.515a.5.5 0 0 0 .614-.788l-7.058-5.516a.5.5 0 0 0-.308-.105M18.882 23.068a.5.5 0 0 0-.308.894l7.06 5.515a.5.5 0 1 0 .615-.788l-7.059-5.515a.5.5 0 0 0-.308-.106" fill="#e1e8ed"/><path d="M21.292 34.065c.381-.448.371-1.082-.021-1.415-.392-.333-1.213-.194-1.595.253-.097.113-.172.234-.233.327-.396.606.11.755.451 1.044.391.332 1.018.238 1.398-.21" fill="#ffdc5d"/><path d="M20.982 34.633s-.29.236.074.602c.301.302.687.021 1.03.093.256.055.46.223.521.438 0 0 .006-.399-.136-.674-.184-.356-.596-.577-.838-.629a.783.783 0 0 0-.65.17" fill="#ffac33"/><path d="M19.256 34.11c.058.297.514.745.982.848.53.117.92-.16 1.17-.577.23-.383.158-.957.158-.957s-.502.195-.456.244c.084.09-.104.426-.25.437-.15.01-.161-.138-.112-.237l.19-.375s-.233.309-.392.326c-.263.028-.87-.77-1.103-.59-.145.112-.26.515-.187.882" fill="#ffac33"/><path d="M7.887 23.243c.42-.413.466-1.044.105-1.41-.36-.368-1.19-.304-1.61.108-.107.104-.193.217-.262.303-.449.57.041.763.354 1.082.361.366.994.33 1.413-.083" fill="#ffdc5d"/><path d="M7.527 23.782s-.311.209.02.606c.272.328.682.082 1.016.185.252.078.44.264.48.483 0 0 .043-.397-.074-.683-.151-.371-.542-.628-.778-.702-.37-.115-.664.11-.664.11" fill="#ffac33"/><path d="M5.854 23.106c.032.301.446.787.903.932.516.164.932-.077 1.217-.47.262-.36.243-.939.243-.939s-.518.15-.477.203c.076.097-.141.415-.285.412-.152-.003-.15-.152-.093-.245.057-.094.222-.357.222-.357s-.258.287-.418.289c-.265.005-.797-.845-1.046-.686-.155.098-.305.489-.266.861" fill="#ffac33"/><path d="M17.818 31.304c.38-.448.37-1.082-.021-1.415-.393-.333-1.214-.194-1.596.253-.096.113-.172.234-.232.327-.396.606.11.755.45 1.044.392.333 1.019.239 1.399-.21" fill="#ffdc5d"/><path d="M15.781 31.35c.058.297.514.744.982.848.53.116.922-.161 1.171-.577.23-.384.157-.958.157-.958s-.503.196-.456.245c.084.09-.104.426-.248.436-.15.01-.162-.138-.114-.236.05-.098.065-.162.018-.217-.047-.055-.327.187-.487.204-.262.027-.602-.807-.836-.626-.145.11-.259.514-.187.88" fill="#ffac33"/><path d="M11.412 25.944c.38-.448.37-1.082-.021-1.415-.393-.333-1.214-.194-1.596.253-.096.113-.172.234-.232.327-.396.606.11.755.45 1.044.392.333 1.019.24 1.399-.209" fill="#ffdc5d"/><path d="M9.375 25.99c.058.297.514.744.982.848.529.116.922-.16 1.171-.577.229-.384.157-.958.157-.958s-.503.196-.456.245c.084.09-.104.426-.248.436-.151.011-.162-.138-.114-.236.049-.098.065-.162.018-.217-.047-.055-.327.187-.487.204-.262.027-.602-.807-.836-.626-.145.111-.259.514-.187.881" fill="#ffac33"/><path d="M21.768 32.35L19 34.745a.25.25 0 0 1-.327-.378l2.767-2.395a.251.251 0 0 1 .353.025.251.251 0 0 1-.026.353M18.294 29.736l-2.572 2.07a.25.25 0 1 1-.315-.39l2.575-2.07a.248.248 0 0 1 .35.038.25.25 0 0 1-.038.352M8.463 21.684l-2.77 2.472a.25.25 0 0 1-.332-.373l2.77-2.472a.244.244 0 0 1 .166-.064.25.25 0 0 1 .166.437M11.893 24.362L9.25 26.844a.25.25 0 0 1-.341-.364l2.643-2.482a.25.25 0 0 1 .342.364" fill="#ffe8b6"/></g></svg>