<svg xmlns="http://www.w3.org/2000/svg" viewBox="0 0 45 45"><defs><clipPath id="a"><path d="M0 36h36V0H0v36z"/></clipPath></defs><g clip-path="url(#a)" transform="matrix(1.25 0 0 -1.25 0 45)"><path d="M18 36A15 15 0 0 1 3 21v-9h3v9c0 7 5.3 12.2 12 12.2S30 28 30 21V11l3 1v9a15 15 0 0 1-15 15" fill="#66757f"/><path d="M6 9a2 2 0 0 0-2-2H2a2 2 0 0 0-2 2v9a2 2 0 0 0 2 2h2a2 2 0 0 0 2-2V9zm30 0a2 2 0 0 0-2-2h-2a2 2 0 0 0-2 2v9a2 2 0 0 0 2 2h2a2 2 0 0 0 2-2V9z" fill="#292f33"/><path d="M19.2 26l-6.4-1.3a1 1 0 0 1-.8-1V7.5a6.2 6.2 0 0 1-2 .3C7 7.8 4.8 6.1 4.8 4 4.9 1.8 7 .1 9.9.1S15 2 15 4v15.6l4.2.9c.5 0 .8.5.8 1v3.8c0 .5-.4.8-.8.7m8-3.2l-4.3-.8c-.5-.1-.9-.6-.9-1V9.6l-1.4.2c-2 0-3.6-1.3-3.6-2.9s1.6-2.8 3.7-2.8 3.6 1.3 3.6 2.9v11.2l2.9.6c.4.1.8.6.8 1v2.4c0 .4-.4.7-.8.6" fill="#55acee"/></g></svg>