<svg xmlns="http://www.w3.org/2000/svg" viewBox="0 0 45 45"><defs><clipPath id="a"><path d="M0 36h36V0H0v36z"/></clipPath></defs><g clip-path="url(#a)" transform="matrix(1.25 0 0 -1.25 0 45)"><path d="M8 20a1 1 0 0 0-1 1v11a1 1 0 0 0 2 0V21a1 1 0 0 0-1-1" fill="#ccd6dd"/><path d="M2 3c0 2.2 4 6 7 6V4C8 4 5 3 4 2S2 2 2 3m14 0c0 2.2-4 6-7 6V4c1 0 4-1 5-2s2 0 2 1" fill="#3b88c3"/><path d="M15 22c2 0 4-1 4-2 0-3-3.2-11.5-8.2-12.5S15 22 15 22M3 16c-1-1-2-3-2-5s2.8 2 4 1c1.7-1.4-2 4-2 4" fill="#3b88c3"/><path d="M5.6 23.8c1.5-.6 2.6-.2 3.7.7s1.2-2.5-.3-3.7-4.1-3.7-4-1.4c0 2.3.6 4.3.6 4.3"/><path d="M9 25a12.5 12.5 0 0 1-2.5-4.4c-.8-.5-.8 1.2-.7 1.7.3 1 .5 1 .4 1.6-.2.5-.8.3-1.1.1C3.4 23 2 21.2 2 18 2 12.5 7 5 9 5s7 7.5 7 13-4 7-7 7" fill="#55acee"/><path d="M13 20.5a1.5 1.5 0 1 0-3 0 1.5 1.5 0 0 0 3 0"/><path d="M9 13.2c-1.6 0-2.9.5-4 1.1a1 1 0 0 0 .9 1.8c1.9-1 3.6-1.4 5.7-.1a1 1 0 0 0 1-1.7A7.1 7.1 0 0 0 9 13.2" fill="#269"/><path d="M29.8.8c-.5.2-1 1-.7 1.6a47.7 47.7 0 0 1 1.6 24.8 10.6 10.6 0 0 1-4 4.9c-6.4 3.9-15.9 1.7-17.2 1-.5-.2-2-.7-2.3-.2-.2.5.6 1 1.1 1.3a24 24 0 0 0 19.7-.8 10 10 0 0 0 4.7-5.3 46 46 0 0 0-.8-26.8c-.6-1.1-2-.6-2-.5" fill="#662113"/><path d="M32 11a4 4 0 1 0-8 0 4 4 0 0 0 8 0" fill="#99aab5"/><path d="M30 11a2 2 0 1 0-4 0 2 2 0 0 0 4 0" fill="#66757f"/></g></svg>