<svg xmlns="http://www.w3.org/2000/svg" viewBox="0 0 45 45"><defs><clipPath id="a"><path d="M0 36h36V0H0v36z"/></clipPath></defs><g clip-path="url(#a)" transform="matrix(1.25 0 0 -1.25 0 45)"><path d="M24 14a2 2 0 1 0 0 4 2 2 0 0 0 0-4m-4 4a2 2 0 1 0 0 4 2 2 0 0 0 0-4m-4 4a2 2 0 1 0 0 4 2 2 0 0 0 0-4m18.8 3.2L32 27.9 28 32l-2.8 2.8a3.9 3.9 0 0 1-5.5 0L13.8 29l.2-.9a2 2 0 0 0-2-2 2 2 0 0 0-.9.2l-9.9-10a3.9 3.9 0 0 1 0-5.4L4 8.1A7947.5 7947.5 0 0 1 8 4l2.8-2.8a3.9 3.9 0 0 1 5.5 0l9.9 10a2 2 0 0 0-.2.8 2 2 0 0 0 2 2c.3 0 .6 0 .9-.2l5.9 6a3.9 3.9 0 0 1 0 5.4" fill="#ccd6dd"/><path d="M11 6a1 1 0 0 0-.7 1.7l4 4a1 1 0 1 0 1.4-1.4l-4-4A1 1 0 0 0 11 6M8 9a1 1 0 0 0-.7 1.7l7 7a1 1 0 1 0 1.4-1.4l-7-7A1 1 0 0 0 8 9m-3 3a1 1 0 0 0-.7 1.7l7 7a1 1 0 1 0 1.4-1.4l-7-7A1 1 0 0 0 5 12m18.6 14.2l1.6 1.6-3.3 1.7 1.7-3.3zm-3.2 3c-.3.5-.2 1.2.2 1.6.4.5 1 .5 1.6.2l6.3-3 .4-.2a.8.8 0 0 0 0-1.1c-.4-.4-.8-.4-1.1-.2l-1 .6-2.4-2.4.5-1c.2-.4.2-.8-.2-1.1a.9.9 0 0 0-1.4.3l-2.9 6.3z" fill="#99aab5"/></g></svg>