<svg xmlns="http://www.w3.org/2000/svg" viewBox="0 0 45 45"><defs><clipPath id="a"><path d="M0 36h36V0H0v36z"/></clipPath></defs><g clip-path="url(#a)" transform="matrix(1.25 0 0 -1.25 0 45)"><path d="M24.357 19.664s2.248 3.958 4.806 4.169c2.556.21 3.928-.935 4.143-3.432.287-3.334-.878-3.802-.033-7.53 0 0-3.546 2.414-2.42 6.07 1.171 3.806-4.81 3.095-3.837-.316l-2.659 1.039z" fill="#dd2e44"/><path d="M14.31 15.625a1 1 0 0 1-1-1V1.062a1 1 0 1 1 2 0v13.563a1 1 0 0 1-1 1" fill="#ffcc4d"/><path d="M15.31 10.23l-2-1.047V6.925l2 1.047v2.258zM13.31 2.176l2 1.047V5.48l-2-1.047V2.176z" fill="#f4900c"/><path d="M3.912 14.065c-1.18.117-1.918-1.621-1.918-1.621.114-.815.447-2.256.597-2.778.327-1.14 2.121-3.096 3.262-2.769 1.141.327.814 1.468.487 2.608-.327 1.141-2.428-.622-1.794 1.955.15.606.865.755 1.482.694 2.362-.233 2.882.224 3.788 1.327 1.065 1.296-4.723.467-5.904.584M29.054 7.364c0-2.373 1.187-3.56 3.56-3.56 2.374 0 1.187 0 0 2.373-1.187 2.374-3.56 3.561-3.56 3.561V7.364z" fill="#8899a6"/><path d="M34.987 4.991c-1.187 1.187-2.373 0-2.373 2.374 0 2.373-1.187 3.56-2.374 3.56s-1.187 4.746-1.187 5.932c0 1.187-2.373 5.933-5.932 5.933-3.56 0-5.933-1.187-8.306-1.187-2.373 0-3.56 0-4.746 4.746-.91 3.641-4.747 4.747-8.307 3.56 0 0-2.58.995-1.395-.19 1.187-1.188-.18-.996-.18-3.37 0-.275.067-.515.175-.73C.353 24.512.343 22.48.37 22c.036-.667.294-.883 1.131-1.209 1.125-.437 1.781.32 1.853.71.147.79.022 1.655.022 1.655s1.166.47 1.896 1.135c.097-.08.625-1.145.051-2.688-.413-1.112-1.186-2.373 1.187-5.932 0 0-3.56 0-4.747-1.187C.576 13.298.287 10.924.31 9.738c.033-1.648 1.452-3.56 2.64-3.56 1.186 0 1.186 1.187 1.186 2.374 0 1.186-2.374 0-1.187 2.373s1.187 1.186 2.373 1.186c1.187 0 3.56 1.187 4.747 1.187 1.186 0 3.56-1.187 5.933-1.187 2.373 0 4.746 2.373 7.12 0 2.372-2.373 5.931-2.373 7.118-3.559 1.187-1.187 1.187-2.374 1.187-3.56 0-1.188 2.373-2.374 3.56-2.374 1.187 0 1.187 1.186 0 2.373" fill="#ccd6dd"/><path d="M10.712 24.239c1.006-2.63 2.154-2.635 4.104-2.635 2 0 4.007.835 6.718 1.1.142-.36.276-.728.4-1.1 1.187-3.56 0-5.933-5.932-5.933a5.933 5.933 0 0 0-5.933 5.933c0 .95.245 1.838.643 2.635" fill="#3b94d9"/><path d="M5.629 16.295c.225-.025.458.013.674.124.17.087 4.187 2.185 5.92 5.914.276.594-1.172 1.719-1.447 1.628-.3-.1-.56-.318-.705-.628-1.384-2.98-4.82-4.786-4.854-4.805a1.186 1.186 0 0 1 .412-2.233" fill="#f4900c"/><path d="M15.765 20.755c0-.642-.651-1.163-1.455-1.163s-1.455.52-1.455 1.163c0 .642.65 1.163 1.455 1.163.804 0 1.455-.521 1.455-1.163" fill="#1c6399"/><path d="M14.31 35.75a1 1 0 0 1-1-1V21.177l.005.001-.003-.001a1 1 0 0 1 1.998.01V34.75a1 1 0 0 1-1 1" fill="#ffcc4d"/><path d="M15.31 33.98l-2-1.047v-2.257l2 1.047v2.257zM15.31 29.23l-2-1.047v-2.257l2 1.047v2.257zM13.31 21.188l.01-.006 1.99 1.04v2.257l-2-1.045v-2.246z" fill="#f4900c"/><path d="M3.274 22.745a.502.502 0 0 0-.262.074 5.133 5.133 0 0 1-2.353.72.5.5 0 0 0 .004 1c.057-.01 1.13-.003 2.35-.585.287.84.764 2.667.465 4.923a.5.5 0 0 0 .991.132c.452-3.41-.695-5.875-.743-5.978a.498.498 0 0 0-.452-.286" fill="#1c6399"/><path d="M2.153 27.601c.195-.129.216-.44.046-.697-.169-.256-.464-.358-.66-.229-.195.13-.216.442-.046.697.17.256.465.358.66.23" fill="#292f33"/><path d="M12.442 22.79c-2.373 2.373-1.006 5.256-3.38 7.629-1.875 1.876-4.926 1.864-7.3-.509 0 0 1.122-1.087 4.082-1.379 1.43-.141 2.648-1.693 3.337-2.782 2.21-4.311 5.056-4.753 3.26-2.959" fill="#dd2e44"/></g></svg>