<svg xmlns="http://www.w3.org/2000/svg" viewBox="0 0 45 45"><defs><clipPath id="a"><path d="M0 36h36V0H0v36z"/></clipPath></defs><g clip-path="url(#a)" transform="matrix(1.25 0 0 -1.25 0 45)" fill="#5dadec"><path d="M14.2 35.8l-6.4-1.3a1 1 0 0 1-.8-1V17.7a6.2 6.2 0 0 1-2 .3c-2.8 0-5-1.7-5-3.9 0-2.1 2.2-3.9 5-3.9 2.7 0 5 1.7 5 3.8v15.5l4.2.9c.4 0 .8.5.8 1v3.8c0 .4-.4.7-.8.6m21-4l-6.4-1.3a1 1 0 0 1-.8-1V13.7a6.2 6.2 0 0 1-2 .3c-2.8 0-5-1.7-5-3.9 0-2.1 2.2-3.9 5-3.9 2.7 0 5 1.7 5 3.8v15.5l4.2.9c.4 0 .8.5.8 1v3.8c0 .4-.4.7-.8.6"/><path d="M23.2 25.8l-6.4-1.3a1 1 0 0 1-.8-1V7.7a6.2 6.2 0 0 1-2 .3c-2.8 0-5-1.7-5-3.9C9 2 11.2.2 14 .2 16.7.2 19 2 19 4v15.5l4.2.9c.4 0 .8.5.8 1v3.8c0 .4-.4.7-.8.6"/></g></svg>