<svg xmlns="http://www.w3.org/2000/svg" viewBox="0 0 45 45"><defs><clipPath id="a"><path d="M0 36h36V0H0v36z"/></clipPath></defs><g clip-path="url(#a)" transform="matrix(1.25 0 0 -1.25 0 45)"><path d="M25 17.8c-2.5-.9-3.3 3.1-3.3 3.1s1.1 1.1.3 2.1c1.3 1.3.5 2 .5 2a5.6 5.6 0 0 1-8 0 4.8 4.8 0 0 1-.6-.8 6 6 0 0 1-.2-.3 5.6 5.6 0 0 1-.6-1.8 4.3 4.3 0 0 0-1-1.2c-1.5-1.6-5.5.8-8.7-2.3v-.2l-.4-.3C-.8 14.4-.4 8 3.8 3.8c4-4 10-4.5 13.8-1.3l.1.1.3.2.1.2a7.7 7.7 0 0 1 2.4 6.5c0 1.2-.2 2 .4 2.7.8.8 3.2 0 4.8 1.6 2.4 2.4.7 4.5-.8 4" fill="#f18f26"/><path d="M32 30L20 17.7l-2.1 2.1L30 32l2.1-2.2z" fill="#642116"/><path d="M35.2 32.8a1.1 1.1 0 0 0 0-1.6L32 28a1.1 1.1 0 0 0-1.6 0L28 30.4a1.1 1.1 0 0 0 0 1.6l3.2 3.2a1.1 1.1 0 0 0 1.6 0l2.4-2.4z" fill="#f18f26"/><path d="M20 16.5L18.6 15 15 18.6l1.5 1.4 3.5-3.5zm-3.5-3.6L15 11.5l-3.6 3.6 1.4 1.4 3.6-3.6z" fill="#ccd6dd"/><path d="M13 10.8a1 1 0 0 0 0-1.4 1 1 0 0 0-1.5 0l-2.1 2.1a1 1 0 0 0 0 1.4 1 1 0 0 0 1.4 0l2.1-2.1z" fill="#642116"/></g></svg>