<svg xmlns="http://www.w3.org/2000/svg" viewBox="0 0 45 45"><defs><clipPath id="a"><path d="M0 36h36V0H0v36z"/></clipPath></defs><path d="M7.5 3.8H0v37.5h45v-2.5H7.5v-6.3H45V30H7.5v-6.3H45v-2.4H7.5V15H45v-2.5H7.5V6.2H45V3.8H7.5z" fill="#8899a6"/><g clip-path="url(#a)" transform="matrix(1.25 0 0 -1.25 0 45)"><path d="M18.6 17.4c.7 1 1.4 1.9 2.4 2.7l.4-1.7a4.7 4.7 0 0 1-1.8-1.6 5 5 0 0 1-.9-2.7 4 4 0 0 1 .9-2.5 4 4 0 0 1 2.1-1.4h.2c.6.2.7.5.7.6 0 .4-.2.6-.6.7a1.7 1.7 0 0 0-.8.8l-.3 1c0 .5.1 1 .5 1.3l.6.6 1.1-5.5a7.4 7.4 0 0 0-1-.2c-1.4 0-2.5.5-3.4 1.4a4.4 4.4 0 0 0-1.3 3 6.3 6.3 0 0 0 1.2 3.5m5 11.5a8.2 8.2 0 0 0-.8-1.6 9.8 9.8 0 0 0-1-1.3 6.8 6.8 0 0 0-.2-.4 7 7 0 0 0-.2 1.2 8.9 8.9 0 0 0 .3 2 7 7 0 0 0 .7 1.8c.3.5.6.7 1 .7a.4.4 0 0 0 .2 0l.2-.5v-.5c0-.4 0-.9-.2-1.4m1.1-18.6l-1 5.1a2.5 2.5 0 0 0 1.6-1.2c.3-.4.4-.8.5-1.3 0-1.2-.4-2.1-1-2.6m3 5.1a5.6 5.6 0 0 1-1 1.8 4.6 4.6 0 0 1-1.4 1.2 4.3 4.3 0 0 1-2 .5H23l-.5 2.5a10.9 10.9 0 0 1 2.7 4.8c.3 1 .4 2 .4 3 0 2-.5 4-1.6 5.5a4 4 0 0 1-.4.4c-.4.3-.8.4-1.7-.3a4.4 4.4 0 0 1-1.2-1.5 8 8 0 0 1-.8-2.2 12.7 12.7 0 0 1-.3-2.7 18.1 18.1 0 0 1 .6-4 104.3 104.3 0 0 1-1.9-2 18.7 18.7 0 0 1-1.5-1.9c-.5-.7-1-1.5-1.3-2.3a8 8 0 0 1-.5-2.6 7.9 7.9 0 0 1 .6-3 8.1 8.1 0 0 1 1.5-2.4 7.4 7.4 0 0 1 2.3-1.7 6.8 6.8 0 0 1 4-.5l.3-1a40.4 40.4 0 0 0 .5-2.7L24 3a1.3 1.3 0 0 0-.4-.6 2.5 2.5 0 0 0-.9-.5 2.6 2.6 0 0 0-1.3-.2 2.2 2.2 0 0 1 1.2 2c0 .5 0 .9-.3 1.3a2.7 2.7 0 0 1-.9 1 2.4 2.4 0 0 1-1.2.3 2.3 2.3 0 0 1-1.3-.5 2.8 2.8 0 0 1-.9-1 3.6 3.6 0 0 1-.3-1.4A3.2 3.2 0 0 1 19 .9a4.6 4.6 0 0 1 2.7-.9 4.4 4.4 0 0 1 2 .5 3.9 3.9 0 0 1 1.6 1.4c.4.6.6 1.3.6 2l-.1 1.5-.4 1.8-.3 1.4a5 5 0 0 1 2.2 1.8 5.5 5.5 0 0 1 .9 3c0 .7-.1 1.4-.4 2" fill="#292f33"/></g></svg>