<svg xmlns="http://www.w3.org/2000/svg" viewBox="0 0 45 45"><defs><clipPath id="a"><path d="M0 36h36V0H0v36z"/></clipPath></defs><g clip-path="url(#a)" transform="matrix(1.25 0 0 -1.25 0 45)"><path d="M14 20L9 10s-1-2 1-2c1 0 2 2 2 2l14 19s2 4 8 1v-2c-3 1-4-1-4-1L15 3s-2-3-7-3C2 0 1 5 1 8c0 2 1 4 2 6s-2 6-2 6h13z" fill="#fcab40" fill-rule="evenodd"/><path d="M7.5 16C4 16 0 17 0 20s4 4 7.5 4 7.5-1 7.5-4-4-4-7.5-4" fill="#fdcb58"/><path d="M21 19a2 2 0 1 0-4 0 2 2 0 0 0 4 0m3 4a2 2 0 1 0-4 0 2 2 0 0 0 4 0m3 4a2 2 0 1 0-4 0 2 2 0 0 0 4 0" fill="#ccd6dd"/><path d="M34 26c-.3 0-.6 0-.9.2l-2 1a2 2 0 0 0 1.8 3.6l2-1A2 2 0 0 0 34 26" fill="#9aaab4"/><path d="M16.3 10.8L15 9.2l-6.2 5 1.3 1.6 6.2-5z" fill="#fcab40" fill-rule="evenodd"/></g></svg>