<svg xmlns="http://www.w3.org/2000/svg" viewBox="0 0 45 45"><defs><clipPath id="a"><path d="M0 36h36V0H0v36z"/></clipPath><clipPath id="b"><path d="M20 36s-1 0-2-1-1-2-1-4 1-4 1-5c0-3-4-5-4-9 0-3.4 2-10 3-12h6c1 2 3 8.6 3 12 0 4-4 6-4 9 0 1 1 3 1 5s0 3-1 4-2 1-2 1z"/></clipPath><clipPath id="c"><path d="M0 36h36V0H0v36z"/></clipPath><clipPath id="d"><path d="M28 32c-1-1-1-2-1-4s1-4 1-5c0-3-4-5-4-9 0-3.4 2-10 3-12h6c1 2 3 8.6 3 12 0 4-4 6-4 9 0 1 1 3 1 5s0 3-1 4-2 1-2 1-1 0-2-1"/></clipPath><clipPath id="e"><path d="M0 36h36V0H0v36z"/></clipPath></defs><g clip-path="url(#a)" transform="matrix(1.25 0 0 -1.25 0 45)"><path d="M22 26c0 1 1 3 1 5s0 3-1 4-2 1-2 1-1 0-2-1-1-2-1-4 1-4 1-5c0-3-4-5-4-9 0-3.4 2-10 3-12h6c1 2 3 8.6 3 12 0 4-4 6-4 9" fill="#ccd6dd"/></g><g clip-path="url(#b)" fill="#be1931" transform="matrix(1.25 0 0 -1.25 0 45)"><path d="M23 26h-6v2h6v-2zm1-4h-8v2h8v-2z"/></g><g clip-path="url(#c)" transform="matrix(1.25 0 0 -1.25 0 45)"><path d="M32 23c0 1 1 3 1 5s0 3-1 4-2 1-2 1-1 0-2-1-1-2-1-4 1-4 1-5c0-3-4-5-4-9 0-3.4 2-10 3-12h6c1 2 3 8.6 3 12 0 4-4 6-4 9" fill="#ccd6dd"/></g><g clip-path="url(#d)" fill="#be1931" transform="matrix(1.25 0 0 -1.25 0 45)"><path d="M33 23h-6v2h6v-2zm1-4h-8v2h8v-2z"/></g><g clip-path="url(#e)" transform="matrix(1.25 0 0 -1.25 0 45)"><path d="M12.6 0a12.6 12.6 0 1 0 0 25.1 12.6 12.6 0 0 0 0-25.1" fill="#3a4449"/><path d="M15.2 17.2a2.3 2.3 0 1 0-4.6 0 2.3 2.3 0 0 0 4.6 0m-6.4-2.1a2.3 2.3 0 1 0-4.6 0 2.3 2.3 0 0 0 4.6 0m5-7.1A2.3 2.3 0 1 0 9 8a2.3 2.3 0 0 0 4.6 0"/></g></svg>