<svg xmlns="http://www.w3.org/2000/svg" viewBox="0 0 45 45"><defs><clipPath id="a"><path d="M0 36h36V0H0v36z"/></clipPath></defs><g clip-path="url(#a)" transform="matrix(1.25 0 0 -1.25 0 45)"><path d="M5.6 3L3 5.6 23.3 26c3.4 3.3 1.4 8 2 8.7.7.7 1.4 0 1.4 0l8-8c.7-.7 0-1.4 0-1.4-.7-.6-5.8 1-8.7-2L5.6 3z" fill="#fcab40"/><path d="M5.5 2.1A2.4 2.4 0 0 1 2 5.5v-.1a1 1 0 0 1-1.2 0A1 1 0 0 1 .9 4L4 1a1 1 0 1 1 1.4 1.3z" fill="#ccd6dd"/><path d="M24 20.6a2 2 0 0 1-1.3-.6L12 9.3a1.9 1.9 0 0 1-.6-1.3c0-.5.2-1 .6-1.4a1.9 1.9 0 0 1 1.3-.5c.5 0 1 .2 1.3.5l10.8 10.7a1.9 1.9 0 0 1 0 2.7 1.9 1.9 0 0 1-1.4.6M13.3 2.3c-1.5 0-3 .6-4 1.6a5.6 5.6 0 0 0-1.7 4c0 1.6.6 3 1.7 4L20 22.8a5.6 5.6 0 0 0 4 1.6c1.5 0 3-.6 4-1.6a5.7 5.7 0 0 0 0-8L17.3 4a5.6 5.6 0 0 0-4-1.7" fill="#fcab40"/><path d="M25.3 12a1.9 1.9 0 0 1 2.7 2.7l-8 8a1.9 1.9 0 0 1-2.7-2.7l8-8zm-4-4a1.9 1.9 0 0 1 2.7 2.6l-8 8a1.9 1.9 0 1 1-2.7-2.6l8-8zm-4-4A1.9 1.9 0 1 1 20 6.6l-8 8A1.9 1.9 0 1 1 9.3 12l8-8z" fill="#fcab40"/><path d="M14.7 22.7a1 1 0 0 1 1.3 0l1.3 1.3a1 1 0 0 1-1.3 1.3L14.7 24a1 1 0 0 1 0-1.3m-4-4a1 1 0 0 1 1.3 0l1.3 1.3c.4.4.4 1 0 1.3a1 1 0 0 1-1.3 0L10.6 20a1 1 0 0 1 0-1.3m-4-4a1 1 0 0 1 1.4 0L9.3 16A1 1 0 1 1 8 17.3L6.6 16a1 1 0 0 1 0-1.3" fill="#ccd6dd"/></g></svg>