<svg xmlns="http://www.w3.org/2000/svg" viewBox="0 0 45 45"><defs><clipPath id="a"><path d="M0 36h36V0H0v36z"/></clipPath></defs><g clip-path="url(#a)" transform="matrix(1.25 0 0 -1.25 0 45)"><path d="M24 24a7.9 7.9 0 0 1-5.6 2.5 6.2 6.2 0 0 1-4.4-1.9c-1.5-1.5-1.7-2.4-1.9-3 0-.2 0-.4-.2-.5a.5.5 0 0 1 0-.8s.4-.2.4-.6c0-.4 0-1.1-1.1-2.1-.6-.7-1.3-1-1.9-1-1 0-1.6.9-1.6.9a.5.5 0 0 1-.9-.2c-.2-.6-.3-.6-.5-.7-.6 0-1.6-.2-3.7-2.2a6.1 6.1 0 0 1-1.7-6C1.3 6.6 2.3 5 3.6 3.5A11 11 0 0 1 10 .8a6 6 0 0 1 4.5 2c2 2 2.2 3 2.2 3.6 0 .2 0 .3.7.5a.5.5 0 0 1 .2.9s-.8.6-.9 1.5c0 .6.3 1.3 1 2 1 1 1.6 1.2 2 1.2a1 1 0 0 0 .7-.4.5.5 0 0 1 .8-.1l.6.3c.5 0 1.4.3 3 1.8 2.2 2.3 2.9 6.3-.8 10" fill="#f18f26"/><path d="M32 31L18.1 16 16 18.1 31 32l1-1z" fill="#292f33"/><path d="M34.7 33.3a1.1 1.1 0 0 0 0-1.6l-3.2-3.2a1.1 1.1 0 0 0-1.6 0L28.5 30a1.1 1.1 0 0 0 0 1.6l3.2 3.2a1.1 1.1 0 0 0 1.6 0l1.4-1.4z" fill="#f18f26"/><path d="M34 28a1 1 0 1 0-2 0 1 1 0 0 0 2 0m2 2a1 1 0 1 0-2 0 1 1 0 1 0 2 0m-7 3a1 1 0 1 0-2 0 1 1 0 1 0 2 0m2 2a1 1 0 1 0-2 0 1 1 0 1 0 2 0" fill="#642116"/><path d="M2 4l4 5s1 0 2-1 1-2 1-2L4 2 2 4z" fill="#292f33"/><path d="M13 9a1 1 0 0 0-.7.3l-3 3a1 1 0 1 0 1.4 1.4l3-3A1 1 0 0 0 13 9" fill="#fee7b8"/></g></svg>