<svg xmlns="http://www.w3.org/2000/svg" viewBox="0 0 45 45"><defs><clipPath id="a"><path d="M0 36h36V0H0v36z"/></clipPath></defs><g clip-path="url(#a)" transform="matrix(1.25 0 0 -1.25 0 45)"><path d="M4 25v-.1.1zm9.8-19c-1 0-2 1-2.3 2.3-.3 1.2.3 2.2 1.3 2.2s2-1 2.3-2.3C15.4 7 14.8 6 13.8 6m-5.6 7.5c-1 0-2 1-2.3 2.3-.3 1.2.3 2.2 1.3 2.2s2-1 2.3-2.3c.3-1.2-.3-2.2-1.3-2.2m8.8.4a2 2 0 0 0-.4.2l-12 9.7c-.4.3-.6.7-.6 1V12.7c0-2 1.1-2.5 1.1-2.5l11.6-9 .5-.4a1.1 1.1 0 0 0-.2.6V14z" fill="#a0041e"/><path d="M30.6 17.5c-.3-1.1-1.2-2-2-2-1 0-1.4.9-1.2 2 .3 1.1 1.2 2 2 2 1 0 1.4-.9 1.2-2m-3-5.1c-.3-1.2-1.3-2.1-2.2-2.1-.8 0-1.3 1-1 2 .2 1.3 1.1 2.2 2 2.2.9 0 1.4-1 1.1-2.1M24 7c-.3-1.1-1.1-2-2-2-.8 0-1.3.9-1 2s1 2 1.9 2c.8 0 1.3-.9 1-2m7.5 16.7l-12-9.7a2 2 0 0 0-.4-.2V1.3c0-.2 0-.4-.2-.6l.6.3 11.5 9.1s1.1.5 1.1 2.5V25c0-.4-.2-.8-.6-1.2M32 25z" fill="#dd2e44"/><path d="M18.5 27.3c1.6 0 3-1 3-2.3s-1.4-2.3-3-2.3-3 1-3 2.3 1.4 2.3 3 2.3m13-1.2l-12.2 9.4c-.8.6-2 .6-2.8 0L4.5 26a1.4 1.4 0 0 1-.5-1v-.1c0-.4.2-.8.6-1.1l12-9.7.4-.2V1.3c0-.2 0-.4.2-.6a1 1 0 0 1 .8-.4c.3 0 .6.1.8.4l.2.6V14l.3.2 12.1 9.7c.4.3.6.7.6 1.1v.1c0 .4-.2.8-.6 1" fill="#ea596e"/><path d="M18.5 22.7c1.6 0 3 1 3 2.3s-1.4 2.3-3 2.3-3-1-3-2.3 1.4-2.3 3-2.3m11-3.2c-1 0-1.8-.9-2-2-.3-1.1.2-2 1-2s1.8.9 2 2c.3 1.1-.2 2-1 2m-3.1-5c-.9 0-1.8-1-2-2.1-.3-1.2.2-2.1 1-2.1 1 0 1.9 1 2.1 2 .3 1.2-.2 2.2-1.1 2.2m-3.5-5.3c-.8 0-1.7-1-2-2C20.7 6 21.2 5 22 5c.9 0 1.7 1 2 2.1.2 1.1-.3 2-1.1 2" fill="#fff"/><path d="M7.2 18c-1 0-1.6-1-1.3-2.3.3-1.2 1.3-2.2 2.3-2.2s1.6 1 1.3 2.3C9.2 17 8.2 18 7.2 18m5.6-7.5c-1 0-1.6-1-1.3-2.3C11.8 7 12.8 6 13.8 6c1 0 1.6 1 1.3 2.3-.3 1.2-1.3 2.2-2.3 2.2" fill="#e1e8ed"/></g></svg>