<svg xmlns="http://www.w3.org/2000/svg" viewBox="0 0 45 45"><defs><clipPath id="a"><path d="M0 36h36V0H0v36z"/></clipPath><clipPath id="b"><path d="M19 32.3l-7-4.8a.9.9 0 0 1-.2-1.1l5-8.4a59.3 59.3 0 0 1-5-4.6.9.9 0 0 1-.3-.6c0-.6.1-1.3.4-2.3a.9.9 0 0 1 .4-.6.9.9 0 0 1 .7 0l14.3 5.8a.9.9 0 0 1 .6.8c0 1-1 4.9-1 4.9a.9.9 0 0 1-.1.2l-2.4 4c-1.8 3-3.5 5.7-4.2 6.5a.9.9 0 0 1-1.1.2"/></clipPath><clipPath id="c"><path d="M0 36h36V0H0v36z"/></clipPath></defs><g clip-path="url(#a)" transform="matrix(1.25 0 0 -1.25 0 45)"><path d="M36 21V4s0-4-4-4H4C0 0 0 4 0 4v2s16 6.9 36 15" fill="#e1e8ed"/><path d="M12.7 9.8a.9.9 0 0 0-.8.7c-.3 1-.4 1.7-.4 2.3 0 .3 0 .5.2.6a59.4 59.4 0 0 0 5.1 4.6 1240 1240 0 0 1-5 8.4.9.9 0 0 0 .2 1.1l7 4.8a.9.9 0 0 0 1.2-.2c.7-.8 2.4-3.6 4.2-6.6a379.2 379.2 0 0 1 2.4-3.9.8.8 0 0 0 0-.2s1.1-4 1.1-4.9a.9.9 0 0 0-.6-.8L13 10a.9.9 0 0 0-.3-.1" fill="#55acee"/><path d="M11.8 8.6a.9.9 0 0 0-.4 1.7l7.2 3a.9.9 0 1 0 .7-1.6l-7.2-3a.9.9 0 0 0-.3 0m12 5a.9.9 0 0 0-.3 1.7l4.8 2A.9.9 0 1 0 29 16l-4.8-2.1a.9.9 0 0 0-.4 0" fill="#269"/><path d="M5.6 4.3a4.4 4.4 0 0 0-.6 0 3.7 3.7 0 0 0-3 2.4 1 1 0 1 0 1.8.9c.6-1.3 1.9-1.5 3.6-.6L22 13l11.6 5a1 1 0 1 0 .8-2l-11.6-4.8A568.3 568.3 0 0 1 8.4 5.1a6.4 6.4 0 0 0-2.8-.8" fill="#be1931"/></g><g clip-path="url(#b)" transform="matrix(1.25 0 0 -1.25 0 45)"><path d="M22.7 33.8a1 1 0 0 1-1.2.3c-1.2-.4-1.2-1.5-1.3-2.3 0-1.1 0-2.6-3-4.7-.8-.5-.6-1.4 1-5 1-1.9 2-4 2.6-4.8a1 1 0 0 1 1.1-.4c1.4.4 3.2 1.1 4.8 1.8l3 1.1c.4.1.7.4.8.8.5 1.4-2.2 5.8-7.8 13.2" fill="#3b88c3"/></g><g clip-path="url(#c)" transform="matrix(1.25 0 0 -1.25 0 45)"><path d="M16.7 21.5a.9.9 0 0 0-.5 1.6l2.5 1.6a.9.9 0 1 0 1-1.5l-2.5-1.6a.9.9 0 0 0-.5-.1m2-3.1a.9.9 0 0 0-.2 1.7l3 .5a.9.9 0 1 0 .3-1.7l-3-.5a.8.8 0 0 0-.1 0m.8-4.5a.9.9 0 0 0-.4.1l-1.7 1a.9.9 0 0 0 .8 1.5l1.8-1a.9.9 0 0 0 .3-1.1.9.9 0 0 0-.8-.5" fill="#269"/><path d="M23.5 30.5a.9.9 0 0 0-.4 1.6l5.6 3.2a.9.9 0 1 0 .9-1.6L24 30.6a.9.9 0 0 0-.5-.1m2.5-3.7a.9.9 0 0 0-.4 1.6l3.3 1.9a.9.9 0 1 0 .9-1.6L26.5 27a.9.9 0 0 0-.5-.1m2-4a.9.9 0 0 0-.4 1.6l2.2 1.2a.9.9 0 0 0 .9-1.5L28.5 23a.9.9 0 0 0-.5-.1" fill="#bbddf5"/></g></svg>