<svg xmlns="http://www.w3.org/2000/svg" viewBox="0 0 45 45"><defs><clipPath id="a"><path d="M0 36h36V0H0v36z"/></clipPath><clipPath id="b"><path d="M18 36a18 18 0 1 1 0-36 18 18 0 0 1 0 36z"/></clipPath></defs><g clip-path="url(#a)" transform="matrix(1.25 0 0 -1.25 0 45)"><path d="M18 0a18 18 0 1 0 0 36 18 18 0 0 0 0-36" fill="#77b255"/></g><g clip-path="url(#b)" transform="matrix(1.25 0 0 -1.25 0 45)"><path d="M34 32c4.3 0 9-3.7 9-14S38.4 4 34 4s-9 3.7-9 14 4.7 14 9 14" fill="#a6d388"/><path d="M34 6c4.3 0 7 4.6 7 12s-2.7 12-7 12-7-4.6-7-12 2.7-12 7-12m0 26c4.3 0 9-3.7 9-14S38.4 4 34 4s-9 3.7-9 14 4.7 14 9 14" fill="#fff"/><path d="M2 32c4.3 0 9-3.7 9-14S6.3 4 2 4s-9 3.7-9 14 4.7 14 9 14" fill="#a6d388"/><path d="M2 6c4.3 0 7 4.6 7 12S6.3 30 2 30s-7-4.6-7-12S-2.3 6 2 6m0 26c4.3 0 9-3.7 9-14S6.3 4 2 4s-9 3.7-9 14 4.7 14 9 14" fill="#fff"/></g></svg>