<svg xmlns="http://www.w3.org/2000/svg" viewBox="0 0 45 45"><defs><clipPath id="a"><path d="M0 36h36V0H0v36z"/></clipPath></defs><g clip-path="url(#a)" transform="matrix(1.25 0 0 -1.25 0 45)"><path d="M18 0a18 18 0 1 0 0 36 18 18 0 0 0 0-36" fill="#292f33"/><path d="M27 18a9 9 0 0 0-9-9 9 9 0 0 0-9 9 9 9 0 0 0 9 9 9 9 0 0 0 9-9" fill="#e1e8ed"/><path d="M16.8 21c0-.7.4-1.3 1.2-1.3.9 0 1.3.6 1.3 1.4 0 .7-.4 1.3-1.2 1.3-.9 0-1.3-.6-1.3-1.3m-.3-5.1c0-1 .5-1.8 1.6-1.8 1 0 1.6.9 1.6 1.8 0 1-.7 1.7-1.6 1.7-1 0-1.6-.7-1.6-1.7m-2.8-.2c0 1.4.8 2.4 1.9 3a3 3 0 0 0-1.3 2.5c0 2.1 1.7 3.4 3.8 3.4 2 0 3.7-1.3 3.7-3.3a3 3 0 0 0-1.3-2.6 3.3 3.3 0 0 0 1.9-3c0-2.4-2-4-4.3-4-2.5 0-4.4 1.6-4.4 4" fill="#292f33"/></g></svg>