<svg xmlns="http://www.w3.org/2000/svg" viewBox="0 0 45 45"><defs><clipPath id="a"><path d="M0 36h36V0H0v36z"/></clipPath></defs><g clip-path="url(#a)" transform="matrix(1.25 0 0 -1.25 0 45)"><path d="M36 20V4s0-4-4-4H4C0 0 0 4 0 4v2s17 10 36 14" fill="#e1e8ed"/><path d="M32.8 15a2 2 0 0 0-1-2.6L8.2 1.4a2 2 0 0 0-2.6 1l-.9 1.9a2 2 0 0 0 1 2.6l23.6 11a2 2 0 0 0 2.7-1l.8-1.9z" fill="#ea596e"/><path d="M25.4 10a2 2 0 0 0-.9.2l-2 1a2 2 0 0 0-1 1L20 16.6 15.7 18a2 2 0 0 0-1.2 2.6 2 2 0 0 0 2.6 1.2l5-2a2 2 0 0 0 1.2-1.2l1.7-4.3 1.3-.6a2 2 0 0 0-.9-3.8" fill="#67757f"/><path d="M16.4 6a2 2 0 0 0-1.8 1.1l-1 2a2 2 0 0 0-.1 1.3l.8 4.2-2.6 4.4a2 2 0 1 0 3.4 2l3-5a2 2 0 0 0 .3-1.4l-.9-4.3.7-1.4A2 2 0 0 0 16.4 6" fill="#67757f"/><path d="M24.4 20c-3.9 0-7.2 4.3-7.6 4.8a2 2 0 0 0 3.2 2.4c1-1.3 3-3.2 4.4-3.2a2 2 0 0 0 0-4m-17-4a2 2 0 0 0-1.9 1.4 8 8 0 0 0 1.7 8.3 9.8 9.8 0 0 0 3.6 2.2 2 2 0 0 0 1.2-3.8c-1-.3-4-1.7-2.7-5.5A2 2 0 0 0 7.4 16" fill="#bbddf5"/><path d="M18.4 20.5a3.5 3.5 0 1 0-7 0v4a3.5 3.5 0 1 0 7 0v-4z" fill="#67757f"/><path d="M20.4 26a2 2 0 0 0-2-2h-7a2 2 0 0 0 0 4h7a2 2 0 0 0 2-2" fill="#bbddf5"/><path d="M11 17.5a.5.5 0 0 0-.5.5v7c0 2.5 2.7 2.5 4.5 2.5 1.8 0 4.5 0 4.5-2.5v-4a.5.5 0 0 0-.3-.5l-8-3a.5.5 0 0 0-.2 0" fill="#bbddf5"/><path d="M31.5 32.2l-1 3a.5.5 0 0 1-.5.3c-.1 0-3.2 0-7.3-3.1-3.9-2.9-4.8-2.9-6.7-2.9h-3a.5.5 0 0 1-.3-.1 1.8 1.8 0 0 1-.4-2c.4-1 1.5-1.9 3.7-1.9 1.4 0 3.5 1.2 6 2.5 3 1.6 6.3 3.5 9 3.5a.5.5 0 0 1 .5.7" fill="#1c6399"/><path d="M18.4 32a4 4 0 0 0-8 0c0 2.2 1.8 3 4 3s4-.8 4-3" fill="#ffdc5d"/><path d="M12 32c2 0 4 1 4 0s0-3 2-3 3 7-3 7-6-4-3-4" fill="#9aaab4"/><path d="M13 31.5a1.5 1.5 0 1 0-3 0 1.5 1.5 0 0 0 3 0" fill="#bdddf4"/><path d="M11.5 32.5a1 1 0 1 1 0-2 1 1 0 0 1 0 2m0-3a2 2 0 1 0 0 4 2 2 0 0 0 0-4" fill="#67757f"/><path d="M16 31.5a1.5 1.5 0 1 0-3 0 1.5 1.5 0 0 0 3 0" fill="#bdddf4"/><path d="M14.5 32.5a1 1 0 1 1 0-2 1 1 0 0 1 0 2m0-3a2 2 0 1 0 0 4 2 2 0 0 0 0-4" fill="#67757f"/></g></svg>