<svg xmlns="http://www.w3.org/2000/svg" viewBox="0 0 45 45"><defs><clipPath id="a"><path d="M0 36h36V0H0v36z"/></clipPath></defs><g clip-path="url(#a)" transform="matrix(1.25 0 0 -1.25 0 45)"><path d="M5.1 31h6c1.1 0 1.9.1 1.9-1v2c0 1.1-.8 2-1.9 2h-8c-2 0-3.6-2.1-3-5l2-10c.3-1.5 2-3 4-3h7c1 0-.1 1.9-.1 3v2c0-1.1-.8-2-1.9-2h-4c-1 0-1.8 1-2 2-.1 1-1.6 7.3-1.6 7.3-.3 2 .5 2.7 1.6 2.7M31 31h-6c-1 0-2.9.1-2.9-1v2c0 1.1 1.8 2 3 2h8c2 0 3.5-2.1 3-5l-1.8-10c-.4-1.5-2-3-4-3H23c-1 0-1 1.9-1 3v2c0-1.1 1.8-2 3-2h4c1 0 1.8 1 2 2 .1 1 1.5 7.3 1.5 7.3.3 2-.5 2.7-1.6 2.7M21 14c0 7-2.8 0-2.8 0s-3 7-3 0-3.3-10-3.3-10h12.3s-3.3 3-3.3 10" fill="#ffac33"/><path d="M29.1 29.4c0-6.7-6.8-18.2-11-18.2s-11 11.5-11 18.2c0 5.2 1 6.3 3 6.3h15c3 0 4-.6 4-6.3" fill="#ffcc4d"/><path d="M27 3c0-1.1.2-2-.9-2h-16C9.1 1 9 1.9 9 3v1c0 1.1 1.2 2 2.2 2h14c1 0 1.8-.9 1.8-2V3z" fill="#c1694f"/><path d="M29 1.4c0-.8.2-1.4-1.3-1.4H8.6C7.2 0 7 .6 7 1.4v.2C7 2.4 7.7 3 8.5 3h19.3c.7 0 1.2-.6 1.2-1.4v-.2z" fill="#c1694f"/></g></svg>