<svg xmlns="http://www.w3.org/2000/svg" viewBox="0 0 45 45"><defs><clipPath id="a"><path d="M0 36h36V0H0v36z"/></clipPath><clipPath id="b"><path d="M18 36a18 18 0 1 1 0-36 18 18 0 0 1 0 36z"/></clipPath></defs><g clip-path="url(#a)" transform="matrix(1.25 0 0 -1.25 0 45)"><path d="M36 18a18 18 0 1 0-36 0 18 18 0 0 0 36 0" fill="#f4900c"/><path d="M19 0h-2v36h2V0z" fill="#231f20"/><path d="M0 19h36v-2H0v2z" fill="#231f20"/></g><g clip-path="url(#b)" transform="matrix(1.25 0 0 -1.25 0 45)"><path d="M2 30c-4.3 0-7-4.6-7-12S-2.3 6 2 6s7 4.6 7 12-2.7 12-7 12M2 4c-4.3 0-9 3.7-9 14s4.7 14 9 14 9-3.7 9-14S6.3 4 2 4m32 26c-4.3 0-7-4.6-7-12s2.7-12 7-12 7 4.6 7 12-2.7 12-7 12m0-26c-4.3 0-9 3.7-9 14s4.7 14 9 14 9-3.7 9-14-4.7-14-9-14" fill="#231f20"/></g></svg>