<svg xmlns="http://www.w3.org/2000/svg" viewBox="0 0 45 45"><defs><clipPath id="a"><path d="M0 36h36V0H0v36z"/></clipPath><clipPath id="b"><path d="M8.3 27.8C1 20.6-2 8.6 2.8 2.9c5.7-4.8 17.7-1.8 24.9 5.3C34.9 15.4 39 25.4 33 33.1a11.1 11.1 0 0 1-7.4 2.3c-5.8 0-12.7-2.9-17.4-7.7"/></clipPath></defs><g clip-path="url(#a)" transform="matrix(1.25 0 0 -1.25 0 45)"><path d="M27.8 8.3C20.6 1 8.6-2 2.9 2.8c-4.8 5.7-1.8 17.7 5.3 24.9 7.2 7.1 19.2 10.1 24.9 5.3 5.9-7.8 1.8-17.7-5.4-24.9" fill="#3b88c3"/></g><g clip-path="url(#b)" transform="matrix(1.25 0 0 -1.25 0 45)"><path d="M35.8 28.7c-.3-4.4-9.3-19.2-24.4-24.8-1.1-.5-1-2 .9-2.1 1.9-.2 13.5.1 17.5 2.4s10.7 18.9 9 20.2c-1.8 1.4 4.4 7.8 3 6.4-1.5-1.3-6-2.1-6-2.1" fill="#ccd6dd"/><path d="M8 8.2c8 1.9 26.8 10.4 25.3 24.5C33 34 25.2 39 12 28A21.6 21.6 0 0 1 3.7 9c.2-1.7 2.5-1.3 4.4-.8" fill="#e1e8ed"/></g></svg>