<svg xmlns="http://www.w3.org/2000/svg" viewBox="0 0 45 45"><defs><clipPath id="a"><path d="M0 36h36V0H0v36z"/></clipPath></defs><g clip-path="url(#a)" transform="matrix(1.25 0 0 -1.25 0 45)"><path d="M6.5 3a3.5 3.5 0 1 0 0 7 3.5 3.5 0 0 0 0-7m0 9a5.5 5.5 0 1 1 0-11 5.5 5.5 0 0 1 0 11m23-9a3.5 3.5 0 1 0 0 7 3.5 3.5 0 1 0 0-7m0 9a5.5 5.5 0 1 1 0-11 5.5 5.5 0 0 1 0 11" fill="#99aab5"/><path d="M6.5 2a4.5 4.5 0 1 0 0 9 4.5 4.5 0 0 0 0-9m0 11a6.5 6.5 0 1 1 0-13 6.5 6.5 0 0 1 0 13m23-11a4.5 4.5 0 1 0 0 9 4.5 4.5 0 0 0 0-9m0 11a6.5 6.5 0 1 1 0-13 6.5 6.5 0 0 1 0 13" fill="#292f33"/><path d="M7 9c-2-4 1-2.6 2-.6.9 1.8 3.4 2.4 4.7.3A7.5 7.5 0 0 1 6.5 14a7.5 7.5 0 0 1-3.8-1c2.9-.2 5.4-1.8 4.3-4" fill="#77b255"/><path d="M30 7a1 1 0 0 0-1-1h-9a1 1 0 1 0 0 2h9a1 1 0 0 0 1-1" fill="#99aab5"/><path d="M30 5.7a1 1 0 0 0-1.5.1L23 13a1 1 0 1 0 1.6 1.2l5.6-7a1 1 0 0 0-.2-1.4" fill="#99aab5"/><path d="M12.5 15.6a1 1 0 0 0 .3-1.3L7.9 6.7a1 1 0 1 0-1.7 1l4.9 7.6a1 1 0 0 0 1.4.3" fill="#ccd6dd"/><path d="M10.5 18.6C9.7 18 6 17 9 15s5.1-4.1 5.1-6c0-2.7-.7-4 .9-4h7s-1 4 2 7 5 2 8 3c1.9.6 4 2 4 3s0 2-2 1-1-1.6-3-.6-3.2-.4-4.2-.4-7.6-1.7-8.6 0a4.1 4.1 0 0 1-3.6 2 8.1 8.1 0 0 1-4-1.4" fill="#77b255"/><path d="M21 7a2 2 0 1 0-4 0 2 2 0 0 0 4 0" fill="#66757f"/><path d="M36.2 9l-9.3-3.8L25.8 8l9.3 3.8L36.2 9z" fill="#ccd6dd"/><path d="M35.8 9.9l-9.2-3.7-.4.9 9.2 3.7.4-.9z" fill="#fff"/><path d="M36.2 9l-9.3-3.8-.3 1 9.2 3.7.4-1z" fill="#66757f"/><path d="M19 17.9c1.4-.4 5.6 0 6.8 0 1.2.2 1.6-.4 0-1.2-1.8-.9-5.6-3.1-6.8-3.6-1-.4-4.5 1.2-5 1.7-.3.5 3.8 3.4 5 3M34 19h-4c-1 0-1.2-1.1 1.6-1.1S34 19 34 19" fill="#292f33"/><path d="M3.7 19c0 1.5 4.5 5.2 4 4.5C6.6 22 7.2 20 9.2 20s2.7-6.5-.2-5c-2.9 1.5-5.3 3.3-5.3 4" fill="#77b255"/><path d="M8.6 25.4c.7-.6.3-1.7-1-3.4-1.4-1.9-3.6-2.6-2.4-.6a24.2 24.2 0 0 0 3.4 4" fill="#ccd6dd"/><path d="M10.5 18.6a1 1 0 0 0-1.2-.5h-.1a1 1 0 0 0-.5 1.3l.8 2a1 1 0 0 0 1.2.5h.1a1 1 0 0 0 .5-1.3l-.8-2z" fill="#66757f"/><path d="M13 22a.5.5 0 0 0-.4-.6l-1.9-.7a.5.5 0 0 0-.3 1l1.9.6a.5.5 0 0 0 .6-.3" fill="#292f33"/></g></svg>