<svg xmlns="http://www.w3.org/2000/svg" viewBox="0 0 45 45"><defs><clipPath id="a"><path d="M0 36h36V0H0v36z"/></clipPath></defs><g clip-path="url(#a)" transform="matrix(1.25 0 0 -1.25 0 45)"><path d="M5 0a2 2 0 0 0-2 2v31a2 2 0 0 0 4 0V2a2 2 0 0 0-2-2" fill="#8899a6"/><path d="M5 35a2 2 0 0 1-2-2V2a.5.5 0 0 1 1 0v29.6c0 .8.6 1.4 1.4 1.4H7a2 2 0 0 1-2 2" fill="#aab8c2"/><path d="M5 0a2 2 0 0 0-2 2v31a2 2 0 0 0 4 0V2a2 2 0 0 0-2-2" fill="#8899a6"/><path d="M5 35a2 2 0 0 1-2-2V2a.5.5 0 0 1 1 0v29.6c0 .8.6 1.4 1.4 1.4H7a2 2 0 0 1-2 2" fill="#aab8c2"/><path d="M32.4 33a14 14 0 0 1-5.4 1l-1.4-.3L21 33l-1 .1-.7-.1c-2.2-.5-4.2-1-6.3-1l-1-1-6 1V13h6l1-2c2.3.1 4.5.6 6.7 1h.3l.7.7 5.4.7.9-.4a12 12 0 0 0 4.6-1 1 1 0 0 1 1.4 1v19a1 1 0 0 1-.6 1" fill="#292f33"/><path d="M13 32h-.7a12 12 0 0 0-4.9 1A1 1 0 0 1 6 32v-6s3.3-1 7-1v7zm7-6s-3.8-1-7-1v-7c3 0 7 1 7 1v7zm7 1v7h-.3a30 30 0 0 1-6.7-.9V26s2.2 1 7 1M6.6 12c1.5-.6 3.1-1 4.8-1H13v7c-4.2 0-7 1-7 1v-6a1 1 0 0 1 .6-1M20 19v-7c2.3.6 4.5 1 6.7 1h.3v7c-4.5 0-7-1-7-1m7 1c2.7 0 4.8-.6 6-1v7c-1.1.5-3.2 1-6 1v-7z" fill="#e1e8ed"/></g></svg>