<svg xmlns="http://www.w3.org/2000/svg" viewBox="0 0 45 45"><defs><clipPath id="a"><path d="M0 36h36V0H0v36z"/></clipPath></defs><g clip-path="url(#a)" transform="matrix(1.25 0 0 -1.25 0 45)"><path d="M28.72 23.15s3.81-1.642 5.533-.45c1.723 1.195 2.11 2.774 1.159 4.738-.951 1.96-3.624 2.732-3.712 5.292 0 0-.297-4.141 1.513-5.504 2.562-1.933-.446-4.21-3.522-3.828-3.078.38-.97-.247-.97-.247" fill="#292f33"/><path d="M23.875 16.625s-.628-2.542.187-5.03c.145-.34.048-.556-.208-.678-.256-.123-4.294-1.542-4.729-1.771-.396-.208-1.143-1.78-1.208-2.854.843-.218 1.625-.105 1.625-.105s.025 1.916.208 2.042c.183.127 5.687 1.047 6.062 1.771.376.724 1.612 3.888.813 5.292-.225.395-.637 1.149-.637 1.149l-2.113.184z" fill="#8a4b38"/><path d="M17.916 6.292s-.616-1.993.01-2.139c.605-.141 1.694.388 1.755.646.08.343.215 1.179.097 1.366-.118.188-1.862.127-1.862.127" fill="#292f33"/><path d="M11.813 14.125l-.75 2.563s-2.767-2.106-3.939-3.594c-.345-.438-1.847-3.198-1.722-4.413.05-.488.473-2.583.473-2.583l1.652.465s-1.313 1.895-1.02 2.562c1.427 3.262 5.306 5 5.306 5" fill="#8a4b38"/><path d="M7.68 6.576c-.173.14-1.804-.479-1.804-.479s.057-2.084.695-2.022c.618.061 1.48.912 1.454 1.176-.034.35-.174 1.185-.346 1.325" fill="#292f33"/><path d="M27.188 24.813c-3.438-.156-7.207-.437-9.5-.437-3.655 0-5.22 1.427-6.562 2.624-2.288 2.036-2.96 4.221-5.126 3.5 0 0-.633.41-1.248.776-.088.053-.175.103-.26.153a7.053 7.053 0 0 1-.657.346c-.164.072-.257.087-.228.011.02-.05.093-.143.237-.287.472-.472.675-.95.728-1.394-2.01-1.202-2.093-2.276-2.87-3.552-.494-.807-1.36-2.054-1.56-2.515-.413-.948 1.023-2.053 1.705-1.407.893.846.961 1.122 2.031 1.744.984.016 1.976.416 2.31 1.02 0 0 .937-2.083 1.937-3.583s2.5-3.125 2.5-3.125c-.13-1.228.12-2.176.548-2.922-.385-.757-.923-1.807-1.417-2.745-.656-1.245-1.473-3.224-1.209-3.618.534-.797 2.72-2.926 4.137-3.31 1.03-.28 2.14-.437 2.14-.437l-.192 1.574s-1.342-.214-1.875.083c-1.427.795-2.667 2.248-2.71 2.542-.068.486 3.843 2.868 5.142 3.645 2.266-.097 6.02.37 8.626 1.702.958-1.86 2.977-2.514 2.977-2.514s.667-2.208 1.375-4.125C27.15 8.03 23.7 5.308 23.193 4.708c-.456-.54-.857-2.49-.857-2.49.82-.375 1.57-.187 1.57-.187s.04 1.562.386 2.073c.346.511 4.7 2.56 5.959 3.458.492.352.404.902.262 1.552-.322 1.47-.971 4.781-.971 4.781 5.146 2.98 6.459 11.318-2.354 10.918" fill="#c1694f"/><path d="M22.336 2.218S21.72.226 22.345.08c.604-.141 1.694.388 1.755.646.08.343.215 1.179.097 1.366-.118.188-1.861.126-1.861.126M14.66 7.514c-.166-.146.165-1.858.165-1.858s2.064-.3 2.11.34c.046.62-.646 1.614-.91 1.633-.351.028-1.197.03-1.364-.115" fill="#292f33"/><path d="M25.102 24.718c-3.295-.135-9.103-.5-10.399.079.063-1.922-.676-3.605.3-6.865.46-.101 8.121-.244 10.934.912-.672 2.862-.389 3.993-.835 5.874" fill="#ffac33"/><path d="M15.89 24.563s-.758-3.543 2.409-3.63c3.167-.087 2.79 2.247 3.045 2.505.254.258 2.718.39 2.718 1.064 0 .233-1.27.127-1.873.099-.304-.015-3.59-.205-6.298-.038" fill="#623120"/><path d="M4.321 27.533a.46.46 0 0 0-.46.459.46.46 0 0 0 .92 0 .46.46 0 0 0-.46-.46m1.773 2.762c-.683-.47-1.67-.286-1.67-.286-.595-.25-1.524-1.156-1.93-1.937-.406-.781-1.526-2.664-1.526-2.664s1.094-.865 1.72-1.907c0 0 .53.532 1.191.876 1.942.063 2.308 1.02 2.308 1.02s.032 2.992-.093 4.898" fill="#5c913b"/><path d="M4.599 27.953a.35.35 0 1 0-.699 0 .35.35 0 0 0 .699 0" fill="#292f33"/><path d="M4.321 27.533a.46.46 0 0 0-.46.459.46.46 0 0 0 .92 0 .46.46 0 0 0-.46-.46m0 1.369a.91.91 0 0 1 0-1.818.91.91 0 0 1 0 1.818M2.536 23.348L.766 25.1l.251.389L2.86 23.67l-.323-.323zM6.198 25.403L6.104 30.3l.45.009.093-4.898-.449-.01z" fill="#f5f8fa"/><path d="M12.655 26.93c1.773-1.446 3.147-.322 3.147-.322-1.294.271-2.056.867-2.708 1.562a2.242 2.242 0 0 1 1.288.666c-1.06.013-1.824.3-2.485.7-.565.613-1.233 1.201-2.254 1.63a5.058 5.058 0 0 1-.923.276c-.086.025-.178.063-.258.073a4.134 4.134 0 0 1-2.737-.603c-.322-.2-.214-.64.118-.623 1.74.084 2.865-.583 3.47-1.633 2.168-3.77 5.343-3.875 5.343-3.875s-1.29.688-2 2.15M17.765 13.6l-.361 7.566 1.028-.228.45-7.208c-.376-.07-1.117-.13-1.117-.13" fill="#292f33"/><path d="M2.354 23.25a.5.5 0 0 0-.203.957c6.14 2.735 11.218 2.734 11.477 2.746a.5.5 0 0 0-.002-1h-.005c-.104 0-5.15-.025-11.064-2.66a.5.5 0 0 0-.203-.043" fill="#623120"/><path d="M18.875 30.484c-.438 1.47-3.256 1.23-3.077 2.591l-.12-.243a2.217 2.217 0 0 1-.172.62c-.449.997-1.522 1.486-2.394 1.092-.756-.34-1.737-.35-1.34-1.636.061-.197.134-.45.248-.703.452-.995 1.85-1.665 2.722-1.27.05.022.091.054.137.081.208-.123.84-.506 1.865-1.205 1.206-.824 2.567-.797 2.132.673" fill="#ffdc5d"/><path d="M11.89 34.58c.256.5 1.3 1.066 2.192 1.01 1.005-.062 1.564-.76 1.795-1.632.114-.43.045-.914-.043-1.27 0 0-.965.087-.858.15.198.118.034.815-.218.908-.265.096-.361-.164-.325-.364.037-.201.032-.324-.08-.398-.112-.074-.488.502-.764.614-.455.185-1.491-1.132-1.817-.69-.202.276-.2 1.054.118 1.673" fill="#ffac33"/><path d="M13.164 33.15s1.582.754 1.987.87c.407.114.604.166.67.251.069.086-.102.225-.177.316-.075.092-.44.975-1.274 1.243-.696.225-1.203.111-1.583-.044-.381-.156-1.184-.512-1.366-1.842-.096-.745.037-1.146.037-1.146s-.476-.135-.523-.143c-.047-.008-.042-.126.179-.182.22-.055 1.293.068 1.64.231.348.163.319.371.41.446" fill="#9266cc"/><path d="M20.828 21.828c-.187.532-.248.716-.554 1.524-.099.264-.219.585-.368.994l-1.935-.746c.175-.383.313-.688.425-.946a8.36 8.36 0 0 0 .592-1.878l-.8-.29c-.388-.169-.812-.333-.859-.933-.036-.462.341-.424.636-.389.433.053 3.093.507 3.222.79.12.256-.137 1.242-.359 1.874"/><path d="M17.971 23.6s-.2.506-.395 1.17c-.376 1.281-.565 2.313 3.451 3.334a1.826 1.826 0 0 1-.098.152c-1.325 1.858-4.254 3.697-3.492 3.816 3.832.6 5.007.007 6.685-2.349.827-1.162.935-1.593.784-2.192-.59-2.328-5.149-1.272-5-3.185l-1.935-.746z" fill="#ccd6dd"/><path d="M17.439 28.914c1.535-1.055 2.338.154 3.588-.81l3.278 1.323c-1.281 2.465-4.879 4.552-7.861 3.024-.693-.355-1.185-1.023-1.041-1.804.289-1.56 1.406-1.299 2.036-1.733" fill="#5c913b"/><path d="M17.937 30.847c-.03.08-.117.288-.179.355-.3.42-.842.61-1.341.406a1.14 1.14 0 0 1-.626-1.486c.924-2.413 1.142-2.65 1.033-2.839-.03-.029-.348-.284-2.323-.09L14 27v-1l.306-.797c1.923-.189 3.358-.115 4.106.865.879 1.152.428 2.421-.475 4.78" fill="#a6d388"/><path d="M14.502 27.193c-1.894 1.191-2.036-.25-2.09-.8-.054-.549-.098-.995 1.893-1.19l.197 1.99z" fill="#ffdc5d"/><path d="M18.273 20.521l.447.16c-.488 1.216-1.03 1.02-1.071 1.005-.2-.077-.926-1.053-.317-2.516a.25.25 0 0 1 .328-.135.25.25 0 0 1 .134.326c-.373.897-.142 1.651.031 1.726.173.074.412-.3.447-.566" fill="#aab8c2"/></g></svg>