<svg xmlns="http://www.w3.org/2000/svg" viewBox="0 0 45 45"><defs><clipPath id="a"><path d="M0 36h36V0H0v36z"/></clipPath></defs><g clip-path="url(#a)" transform="matrix(1.25 0 0 -1.25 0 45)"><path d="M7.8 28.3a25.1 25.1 0 0 1-7-13.6L14.7.8c5 .8 10 3.3 13.6 7a25.1 25.1 0 0 1 7 13.5l-14 13.9a25.2 25.2 0 0 1-13.6-7m25.7 5.2a17.6 17.6 0 0 1-9 2l11-11c0 3.2-.6 6.3-2 9M2.6 2.6a17.6 17.6 0 0 1 9-2l-11 11c0-3.2.6-6.3 2-9" fill="#662113"/><path d="M22.8 24.2l-2.4-2.4-.7.7a1 1 0 1 1-1.4-1.4l.7-.7-3.4-3.4-.7.7a1 1 0 1 1-1.4-1.4l.7-.7-2.4-2.4-.8.7a1 1 0 1 1-1.4-1.4l.7-.7-1-1a1 1 0 1 1 1.5-1.5l1 1 .7-.7a1 1 0 1 1 1.4 1.4l-.7.7 2.4 2.5.7-.7a1 1 0 0 1 1.4 0 1 1 0 0 1 0 1.4l-.7.7 3.4 3.4.7-.7a1 1 0 0 1 1.4 1.4l-.7.7 2.4 2.4.7-.7a1 1 0 0 1 1.5 1.4l-.7.7 1 1a1 1 0 0 1-1.5 1.5l-1-1-.7.7a1 1 0 1 1-1.4-1.5l.7-.7zM.6 11.5l11-11a22.3 22.3 0 0 1 3 .3L.9 14.7a22.3 22.3 0 0 1-.3-3.2m24 24a22.3 22.3 0 0 1-3.2-.3l13.9-13.9.2 3.2-11 11z" fill="#e1e8ed"/></g></svg>