<svg xmlns="http://www.w3.org/2000/svg" viewBox="0 0 45 45"><defs><clipPath id="a"><path d="M0 36h36V0H0v36z"/></clipPath></defs><path d="M37.5 28.8h3.8l2.5-7.6H40l-2.5 7.6z" fill="#414042"/><g clip-path="url(#a)" transform="matrix(1.25 0 0 -1.25 0 45)"><path d="M29 17s-3 4-4 4h-9l-6-5-6-1.8c-.7-.2-1.5-.6-1.6-1.2L0 3c-.1-.7.5-1 1-1h34a1 1 0 0 1 1 1v12c0 2-7 2-7 2" fill="#f4900c"/><path d="M16.1 16L11 2h12l5 14H16.1z" fill="#3b88c3"/><path d="M12 5a4 4 0 1 0-8 0 4 4 0 0 0 8 0" fill="#292f33"/><path d="M10 5a2 2 0 1 0-4 0 2 2 0 0 0 4 0" fill="#58595b"/><path d="M33 5a4 4 0 1 0-8 0 4 4 0 0 0 8 0" fill="#292f33"/><path d="M31 5a2 2 0 1 0-4 0 2 2 0 0 0 4 0" fill="#58595b"/><path d="M16 9.5a3.5 3.5 0 1 0 7 0 3.5 3.5 0 1 0-7 0" fill="#fff"/><path d="M21 10.8c0-.5-.1-.9-.5-1.1.5-.2.8-.7.8-1.3 0-.8-.7-1.5-1.7-1.5s-1.7.7-1.7 1.3c0 .3.3.5.5.5.5 0 .4-.8 1.2-.8.3 0 .6.2.6.6 0 1-1.2.3-1.2 1 0 .8 1 .3 1 1.1 0 .3-.2.5-.5.5-.6 0-.5-.7-1-.7-.3 0-.5.2-.5.5 0 .6.8 1.1 1.6 1.1 1 0 1.5-.7 1.5-1.2" fill="#231f20"/><path d="M30 18l1 1 5 1v-2h-6z" fill="#f4900c"/><path d="M17 20h8v-4H12l5 4z" fill="#88c9f9"/><path d="M6 12a1 1 0 0 0-1-1H3a1 1 0 1 0 0 2h2a1 1 0 0 0 1-1" fill="#ffcc4d"/><path d="M36 14h-1a1 1 0 0 1-1-1v-1a1 1 0 0 1 1-1h1v3z" fill="#dd2e44"/></g></svg>