<svg xmlns="http://www.w3.org/2000/svg" viewBox="0 0 45 45"><defs><clipPath id="a"><path d="M0 36h36V0H0v36z"/></clipPath><clipPath id="b"><path d="M16.5 16.9c.4-3 1.2-8.8 1.4-9.4.2-.5 2.5-4 3.4-5 .5-.5 3 1.3 2.6 2a32 32 0 0 0-2.7 4.1c-.3.7-.5 6-.3 8.5 0 0-2 1.2-3.3 1.2-.8 0-1.3-.4-1.1-1.4"/></clipPath><clipPath id="c"><path d="M13 17.8L12 8c0-.9.4-4.6.8-5.9 0-.4 3.9-.6 3.7.4 0 .6-.6 4.5-.5 4.9 0 .5.5 2.9 1.4 4.4.6 1.1 4.4 2.3 3.5 6.1-.2 1-1.1 1.3-2.2 1.3-2.4 0-5.7-1.4-5.7-1.4"/></clipPath><clipPath id="d"><path d="M0 36h36V0H0v36z"/></clipPath></defs><g clip-path="url(#a)" transform="matrix(1.25 0 0 -1.25 0 45)"><path d="M13.2 32.5c-.1-.3-.6-.3-1 0l-2.7 1.4c-.5.2 0 1.3.5 1l2.7-1.4c.4-.3.5-1 .5-1" fill="#66757f"/><path d="M16.5 2.3c-.7.8-4.7-.3-6.1-1C9.4.8 9.7 0 9.7 0h7s.5 1.4-.2 2.3" fill="#ccd6dd"/><path d="M20.4 27c-2.2 1.2-5 2.8-7.3 5.8-.3.3-2.1-1-2-1.2 2.1-3 4.4-5.5 11-7.4h.3c.2.2-1.1 2.4-2 2.9" fill="#ffcc4d"/><path d="M21 17.1c-.3-2.6 0-7.8.2-8.5.2-.7 2.2-3.5 2.7-4.2.4-.6-2-2.4-2.6-1.8-.9 1-3.2 4.4-3.4 5-.2.5-1 6.2-1.4 9.3-.5 3 4.4.2 4.4.2" fill="#2a6797"/><path d="M13 17.8L12 8c0-.9.4-4.6.8-5.9 0-.4 3.9-.6 3.7.4 0 .6-.6 4.4-.5 4.9 0 .5.5 2.9 1.4 4.4.6 1.1 4.4 2.3 3.5 6.1-.6 2.9-7.9 0-7.9 0" fill="#4289c1"/></g><g clip-path="url(#b)" transform="matrix(1.25 0 0 -1.25 0 45)" fill="#4289c1"><path d="M17.3 11l-.8.7c1.2 1.5 3 2.2 5.3 2.2v-1a5.6 5.6 0 0 1-4.6-1.8m0-3.1l-.7.5a6.5 6.5 0 0 0 5 2.8l.1-1A5.6 5.6 0 0 1 17.3 8m1-2.5l-.8.6a6.5 6.5 0 0 0 5 2.8V8a5.6 5.6 0 0 1-4.2-2.4m1.5-2l-.9.5c1 1.6 2.8 2.6 5 2.8l.1-1a5.6 5.6 0 0 1-4.2-2.4"/><path d="M23.9 1.9L20 7.7c-.5.8-1 4.8-.9 7.2 0 .5-.3 2.2-.6 2.8l.8.5a8 8 0 0 0 .8-3.4c-.2-2.3.5-6 .8-6.6.5-1 3.7-5.7 3.7-5.7l-.8-.6z"/><path d="M22 1.7l-3.8 5.8c-.4.8-1 4.8-.8 7.2a8.8 8.8 0 0 1-.7 2.9l.9.4c.3-.7.8-2.6.7-3.4-.2-2.3.5-6 .8-6.6l3.7-5.7-.8-.6z"/></g><g clip-path="url(#c)" transform="matrix(1.25 0 0 -1.25 0 45)"><path d="M17.6 13.3c-2.8 0-5 .8-6.2 1.3l.4 1a15 15 0 0 1 9.7-.7l.3-1a16 16 0 0 0-4.2-.6M16.4 10a17 17 0 0 0-5.6 1l.3 1c1.7-.6 5.3-1.8 9.8-.3l.3-1a15.5 15.5 0 0 0-4.8-.7m-.9-3c-2.1 0-3.8.4-4.9.7l.3 1a15 15 0 0 1 9.7.2L21 8a15.4 15.4 0 0 0-5.5-1m-1-2.8c-1.5 0-2.7.2-3.5.3l.1 1c1.8-.3 5.5-1 9.7 1.2l.5-1a15.3 15.3 0 0 0-6.8-1.5" fill="#88c9f9"/><path d="M13.4 1l-.9 6.8c0 1.1 1.5 8.6 1.7 9.5l1-.2c-.7-3.3-1.7-8.5-1.7-9.3l.9-6.7-1-.2z" fill="#55acee"/><path d="M15 1l-.8 6.8c0 .4.3 1.4.9 3.2l1.3 4.2.3 2.4 1-.2-.3-2.4a38.8 38.8 0 0 0-1.4-4.4 18 18 0 0 1-.8-2.8c0-1 .8-6.7.8-6.7l-1-.2z" fill="#55acee"/><path d="M17.2.4l-.8 6.8c0 1 1.1 4.8 2.4 6.9.2.4.6 2.1.6 2.9h1a9 9 0 0 0-.8-3.4c-1.2-2-2.3-5.7-2.2-6.3 0-1.1.8-6.7.8-6.8l-1-.1z" fill="#55acee"/></g><g clip-path="url(#d)" transform="matrix(1.25 0 0 -1.25 0 45)"><path d="M25.4 30.8a3.6 3.6 0 1 0-7.2 0 3.6 3.6 0 0 0 7.2 0" fill="#ffdc5d"/><path d="M20 30.8c-1.8 1.3-2.7 3.8-2 4.5 1.2 1.3 3.7.1 4.3-1 .7-1-1.8-3.9-2.4-3.5" fill="#4289c1"/><path d="M13 17.8s.2 6.4 3.3 8.8c2.3 1.7 6.1.4 7.2-1.6 1-2-2.5-3.2-2.5-8.3 0-1-8-.9-8 1.1" fill="#77b255"/><path d="M20.2 30.2a17.6 17.6 0 0 1-1-2.8c.6-.3 1-1.3 1.7-1.5 1-.4 1.2.2 1.2.4a9.9 9.9 0 0 0 1.3 3.2c.5.8-2.6 2-3.2.7" fill="#ffdc5d"/><path d="M19 33c0-1.2 1.6-4.6 5-4.5 1.6 0 2 1.9 2 3.1 0 1.1-1.2 3-2.9 3.5-1.6.4-4.2-.7-4.2-2.2" fill="#50a5e6"/><path d="M22.9 4.5c1.5.3 1.3-1.3 1.2-2 0-1.3-.3-2.5-1.3-2.5h-3.4s-.1 1.5 1.7 1.9c.3 0-.4 2.3 1.8 2.6" fill="#ccd6dd"/><path d="M13.8 32.7c0-.9-.7-1.6-1.7-1.6s-1.7.7-1.7 1.6c0 1 .8 1.7 1.7 1.7 1 0 1.7-.7 1.7-1.7" fill="#ffdc5d"/><path d="M18 26.3c-2 0-3.5.5-4.4 1.5-.7.9-1 2-.8 3.6v.7a2.4 2.4 0 0 1-1.5.5c-.5 0-.7-.1-.8-.5-.8-7 4.1-7.8 5.8-8a9 9 0 0 0 .2 0l1.7 2.2a10.9 10.9 0 0 0-.3 0" fill="#ffdc5d"/><path d="M14.4 27.6a9.6 9.6 0 0 0-1.6-2.7 7 7 0 0 1 3.9-1.7s1.8 2 2.1 3.3c-1.5-.5-4.4 1.1-4.4 1.1" fill="#77b255"/><path d="M29.6 24c1-.4.8-4.5 0-4.5-.9 0-2.2.8-2 1.6.2.8.9 3.5 2 3" fill="#66757f"/><path d="M30 23.3c-.2-.3-.7-.4-1.2-.1l-15.3 8.5c-.4.2-.2 1.4.3 1.2l15.6-8.7c.5-.3.7-.7.5-1" fill="#66757f"/></g></svg>