<svg xmlns="http://www.w3.org/2000/svg" viewBox="0 0 45 45"><defs><clipPath id="a"><path d="M0 36h36V0H0v36z"/></clipPath></defs><g clip-path="url(#a)" transform="matrix(1.25 0 0 -1.25 0 45)"><path d="M28.7 23.1s3.8-1.6 5.5-.4c1.8 1.2 2.2 2.8 1.2 4.7-1 2-3.6 2.8-3.7 5.3 0 0-.3-4.1 1.5-5.5 2.6-2-.4-4.2-3.5-3.8-3 .4-1-.3-1-.3" fill="#292f33"/><path d="M23.9 16.6s-.6-2.5.2-5c.1-.4 0-.6-.2-.7-.3-.1-4.3-1.5-4.8-1.8C18.7 9 18 7.4 18 6.3c.9-.2 1.6-.1 1.6-.1s0 1.9.2 2c.2.2 5.7 1 6.1 1.8.4.7 1.6 3.9.8 5.3l-.6 1.1-2.1.2z" fill="#8a4b38"/><path d="M18 6.3s-.7-2 0-2.1c.5-.2 1.6.4 1.7.6 0 .3.2 1.2 0 1.4 0 .2-1.8 0-1.8 0" fill="#292f33"/><path d="M11.8 14.1l-.7 2.6S8.3 14.6 7 13c-.3-.4-1.8-3.2-1.7-4.4L5.9 6l1.6.5s-1.3 2-1 2.5c1.4 3.3 5.3 5 5.3 5" fill="#8a4b38"/><path d="M7.7 6.6c-.2.1-1.8-.5-1.8-.5s0-2 .7-2C7.2 4 8 5 8 5.3l-.3 1.3" fill="#292f33"/><path d="M27.2 24.8l-9.5-.4c-3.7 0-5.2 1.4-6.6 2.6-2.3 2-3 4.2-5.1 3.5l-1.2.8-.3.1a7 7 0 0 1-.7.4h-.2l.2-.3c.5-.5.7-1 .8-1.4-2-1.2-2.1-2.3-2.9-3.6-.5-.8-1.4-2-1.6-2.5-.4-1 1-2 1.7-1.4 1 .9 1 1.1 2 1.8 1 0 2 .4 2.4 1l2-3.6c1-1.6 2.4-3.1 2.4-3.1a4.7 4.7 0 0 1 .6-3L9.8 13C9 11.8 8.3 9.8 8.5 9.4c.6-.8 2.8-3 4.2-3.3a20.2 20.2 0 0 1 2.1-.4l-.2 1.5s-1.3-.2-1.8.1A7.5 7.5 0 0 0 10 9.8c0 .5 3.9 3 5.2 3.7 2.3-.1 6 .4 8.6 1.7 1-1.9 3-2.5 3-2.5l1.4-4.1a36 36 0 0 1-5-3.9 9 9 0 0 1-.9-2.5C23.2 1.8 24 2 24 2s0 1.6.4 2c.3.6 4.7 2.7 6 3.6.4.3.3.9.2 1.5a344.6 344.6 0 0 0-1 4.8c5.2 3 6.5 11.3-2.3 10.9" fill="#c1694f"/><path d="M22.3 2.2s-.6-2 0-2.1c.6-.2 1.7.4 1.8.6 0 .4.2 1.2.1 1.4-.1.2-1.9.1-1.9.1m-7.6 5.3c-.2-.1.1-1.8.1-1.8s2-.3 2.1.3c0 .6-.6 1.6-.9 1.6h-1.3" fill="#292f33"/><path d="M25.1 24.7c-3.3-.1-9.1-.5-10.4.1 0-2-.7-3.6.3-6.9.5 0 8.1-.2 11 1-.7 2.8-.5 4-.9 5.8" fill="#ffac33"/><path d="M15.9 24.6s-.8-3.6 2.4-3.7c3.2 0 2.8 2.3 3 2.5.3.3 2.8.4 2.8 1.1 0 .2-1.3.1-2 .1-.2 0-3.5-.2-6.2 0" fill="#623120"/><path d="M4.3 27.5a.5.5 0 0 0-.4.5.5.5 0 0 0 .9 0 .5.5 0 0 0-.5-.5m1.8 2.8c-.7-.5-1.7-.3-1.7-.3a5 5 0 0 1-1.9-2L1 25.5s1-.9 1.7-1.9l1.2.9c2 0 2.3 1 2.3 1L6 30.3" fill="#5c913b"/><path d="M4.6 28a.3.3 0 1 0-.7 0 .3.3 0 0 0 .7 0" fill="#292f33"/><path d="M4.3 27.5a.5.5 0 0 0-.4.5.5.5 0 0 0 .9 0 .5.5 0 0 0-.5-.5m0 1.4a1 1 0 0 1 0-1.8 1 1 0 0 1 0 1.8m-1.8-5.5L.8 25l.2.4 2-1.7-.4-.3zm3.7 2l-.1 4.9h.5v-4.9h-.4z" fill="#f5f8fa"/><path d="M12.7 27c1.7-1.5 3.1-.4 3.1-.4a4.8 4.8 0 0 0-2.7 1.6 2.2 2.2 0 0 1 1.3.6c-1 0-1.8.3-2.5.7a6.2 6.2 0 0 1-2.3 1.7 5 5 0 0 1-.9.2l-.2.1a4.1 4.1 0 0 1-2.8-.6c-.3-.2-.2-.6.1-.6 1.8 0 3-.6 3.5-1.6 2.2-3.8 5.4-4 5.4-4s-1.3.8-2 2.2m5-13.3l-.3 7.6 1-.3.5-7.2-1.1-.1" fill="#292f33"/><path d="M2.4 23.3a.5.5 0 0 0-.2 1c6 2.6 11.2 2.6 11.4 2.7a.5.5 0 0 0 0-1s-5.1 0-11-2.7a.5.5 0 0 0-.2 0" fill="#623120"/><path d="M18.9 30.5c-.5 1.5-3.3 1.2-3.1 2.6l-.1-.3a2.2 2.2 0 0 1-.2.7c-.4 1-1.5 1.4-2.4 1-.7-.3-1.7-.3-1.3-1.6l.2-.7c.5-1 1.9-1.7 2.7-1.3l.2.1 1.8-1.2c1.3-.8 2.6-.8 2.2.7" fill="#ffdc5d"/><path d="M11.9 34.6c.3.5 1.3 1 2.2 1 1 0 1.6-.8 1.8-1.6v-1.3l-1 .1c.3.2.1.8-.1 1-.3 0-.4-.2-.4-.4V33c-.2 0-.5.5-.8.6-.5.2-1.5-1.1-1.8-.7-.2.3-.2 1 0 1.7" fill="#ffac33"/><path d="M13.2 33.1a29 29 0 0 0 2.6 1.2s0 .2-.2.3c0 0-.4 1-1.2 1.2-.7.3-1.2.1-1.6 0-.4-.2-1.2-.5-1.4-1.9v-1.1l-.5-.1s0-.2.2-.2a4.8 4.8 0 0 1 1.7.2l.4.4" fill="#9266cc"/><path d="M20.8 21.8l-.5 1.5-.4 1-2-.7.5-1a8.4 8.4 0 0 0 .6-1.8l-.8-.3c-.4-.2-.8-.4-.9-1 0-.4.4-.4.7-.3.4 0 3 .5 3.2.8.1.2-.2 1.2-.4 1.8"/><path d="M18 23.6l-.4 1.2C17.2 26 17 27 21 28a1.8 1.8 0 0 1 0 .2C19.5 30 16.6 32 17.3 32c3.9.6 5 0 6.7-2.4.8-1.1 1-1.6.8-2.2-.6-2.3-5.1-1.2-5-3.2l-2-.7z" fill="#ccd6dd"/><path d="M17.4 29c1.6-1.1 2.4 0 3.6-.9l3.3 1.3c-1.3 2.5-4.9 4.6-7.9 3-.6-.3-1.1-1-1-1.7.3-1.6 1.4-1.3 2-1.8" fill="#5c913b"/><path d="M18 30.9l-.2.3c-.3.4-.9.6-1.4.4a1.1 1.1 0 0 1-.6-1.5c1-2.4 1.1-2.6 1-2.8 0 0-.3-.3-2.3-.1L14 27v-1l.3-.8c2-.2 3.4-.1 4.1.9.9 1.1.4 2.4-.5 4.7" fill="#a6d388"/><path d="M14.5 27.2c-1.9 1.2-2-.3-2-.8-.1-.6-.2-1 1.8-1.2l.2 2z" fill="#ffdc5d"/><path d="M18.3 20.5l.4.2c-.5 1.2-1 1-1 1-.3 0-1-1-.4-2.5a.3.3 0 0 1 .4-.2.3.3 0 0 1 0 .4c-.3.9 0 1.6.1 1.7.2 0 .4-.3.5-.6" fill="#aab8c2"/></g></svg>