<svg xmlns="http://www.w3.org/2000/svg" viewBox="0 0 45 45"><defs><clipPath id="a"><path d="M0 36h36V0H0v36z"/></clipPath></defs><g clip-path="url(#a)" transform="matrix(1.25 0 0 -1.25 0 45)"><path d="M14.8.8a1 1 0 1 1 2 .4L15.1 7a1 1 0 0 1-1.2.8 1 1 0 0 1-.7-1.3L14.8.8zm4.5.4a1 1 0 1 1 2-.4l1.5 5.8a1 1 0 1 1-2 .5l-1.5-5.8zm-5.1 20.1c.2-.5-.2-2.3-.2-2.3-1 0-1.5 1.2-1.7 1.7L9 31.2a1 1 0 1 0 2 .6l3.2-10.5zm7.6 0c-.2-.5.2-2.3.2-2.3 1 0 1.5 1.2 1.7 1.7l3.2 10.5a1 1 0 0 1-1.9.6l-3.2-10.5z" fill="#ffdc5d"/><path d="M18.4 33c-1 0-1.8-.3-2.4-.8a2.7 2.7 0 0 1-2.6-2.6c0-1.2 0-2.7 1.6-3.3a4.2 4.2 0 0 1 3.4-1.7 4.2 4.2 0 1 1 0 8.4" fill="#ffac33"/><path d="M19 13h-2l-3-2-1-5h3l1 3h2l1-3h3l-1 5-3 2zM13 0v1s0 1 2 1 2-1 2-1V0h-4zm6 0v1s0 1 2 1 2-1 2-1V0h-4z" fill="#4289c1"/><path d="M22 22h-8V12h8v10z" fill="#4289c1"/><path d="M16.5 24.6v-3a1.5 1.5 0 1 1 3 0v3h-3z" fill="#ffdc5d"/><path d="M21.8 30.7h-7.6v-4.6a3.8 3.8 0 0 1 7.6 0v4.6z" fill="#ffdc5d"/><path d="M16.4 30.8H14v-3.2c1.9 0 2.3 2 2.4 2.8 0-.9.6-2.8 5.6-2.8v3.2h-5.6z" fill="#ffac33"/><path d="M19.5 23.8h-3s0-.7 1.5-.7 1.5.7 1.5.7" fill="#c1694f"/><path d="M16.5 26.5a.4.4 0 1 0-.8 0 .4.4 0 0 0 .8 0m3.8 0a.4.4 0 1 0-.8 0 .4.4 0 0 0 .8 0" fill="#662113"/><path d="M17.2 25.4h1.6s0-.8-.8-.8-.8.7-.8.7" fill="#c1694f"/><path d="M22 11h-8v2h8v-2z" fill="#662113"/><path d="M33.5 32.5a.5.5 0 0 0-.5-.5H3a.5.5 0 0 0 0 1h30a.5.5 0 0 0 .5-.5" fill="#99aab5"/><path d="M32 36a1 1 0 0 1-1-1 1 1 0 1 1-2 0v-5a1 1 0 1 1 2 0 1 1 0 1 1 2 0v5a1 1 0 0 1-1 1M6 36a1 1 0 0 1-1-1 1 1 0 1 1-2 0v-5a1 1 0 1 1 2 0 1 1 0 1 1 2 0v5a1 1 0 0 1-1 1" fill="#292f33"/></g></svg>