<svg xmlns="http://www.w3.org/2000/svg" viewBox="0 0 45 45"><defs><clipPath id="a"><path d="M0 36h36V0H0v36z"/></clipPath></defs><g clip-path="url(#a)" transform="matrix(1.25 0 0 -1.25 0 45)"><path d="M36 31V4s0-4-4-4H4C0 0 0 4 0 4v5s25 2 36 22" fill="#4289c1"/><path d="M30.6 15.6s2.3 2.1 2 3c-.5 1-11.8-.8-17.2-3.3C7 11.7 3.3 5.6 4 3.7c.8-1.8 8-3 16.1.7 5.5 2.4 14.4 9.6 14 10.6-.5.9-3.6.6-3.6.6" fill="#a7d28b"/><path d="M34.1 15c-.4.9-3.5.6-3.5.6s2.2 2 2 3L4.5 6.2c-.6-1-.7-2-.5-2.5.2-.5.9-1 1.8-1.3L34.1 15" fill="#f5f8fa"/><path d="M24.4 21c-3.4 0-6.5 4-6.8 4.4a1 1 0 0 0 1.6 1.2c.8-1 3.2-3.6 5.2-3.6a1 1 0 1 0 0-2m-17-4a1 1 0 0 0-1 .7c-1.1 3.6.2 6 1.6 7.3a8.9 8.9 0 0 0 3 2 1 1 0 0 0 .7-2c-.5-.1-5-1.8-3.3-6.7a1 1 0 0 0-1-1.3" fill="#ffdc5d"/><path d="M25.4 10a2 2 0 0 0-.9.2l-2 1a2 2 0 0 0-1 1L20 16.6 15.7 18a2 2 0 0 0-1.2 2.6 2 2 0 0 0 2.6 1.2l5-2a2 2 0 0 0 1.2-1.2l1.7-4.3 1.3-.6a2 2 0 0 0-.9-3.8" fill="#67757f"/><path d="M16.4 6a2 2 0 0 0-1.8 1.1l-1 2a2 2 0 0 0-.1 1.3l.8 4.2-2.6 4.4a2 2 0 1 0 3.4 2l3-5a2 2 0 0 0 .3-1.4l-.9-4.3.7-1.4A2 2 0 0 0 16.4 6" fill="#67757f"/><path d="M14.8 35.2c-1.7.7-4.3-.2-4.6-2.1-.3-2 .2-5 2-4.8 1.7.2 3.6.5 4.3 2.4.7 1.9 0 3.9-1.7 4.5" fill="#ffdc5d"/><path d="M16 30.2c2.4 2.9-3.4 2.6-3.4 2.6-1.1 0-.4-1.9-1-2.9-.3-.7 1.2-1 1.2-1s.7 0 .8-.9a2.5 2.5 0 0 0-.1-.8c-.5-1.7 1.7-2.7 2.2-1 .2.6.1 1.2 0 1.7v.1c-.1.8-.3 1.5.3 2.2" fill="#ffdc5d"/><path d="M18.4 28h-2.7l-.7-.8-1.4.8h-2.2a2 2 0 0 1 0-4v-3.5a3.5 3.5 0 1 1 7 0V24a2 2 0 0 1 0 4" fill="#67757f"/><path d="M16.7 34.6c-1.1 1.3-2.7 1.8-5.3.8-2.3-.9-1.4-2.9-1-2.4.6.7 1.5.5 1.5.5l.7-2s.3-.2.5.5 1 .7 1.4.2c.4-1-.2-1-.2-1.6C14 29 15.9 29 15.9 29s.4-.1 1 1c.6 1.3.9 3.3-.2 4.6" fill="#ffac33"/></g></svg>