<svg xmlns="http://www.w3.org/2000/svg" viewBox="0 0 45 45"><defs><clipPath id="a"><path d="M0 36h36V0H0v36z"/></clipPath></defs><g clip-path="url(#a)" transform="matrix(1.25 0 0 -1.25 0 45)"><path d="M35.5 9.3S37 7.1 33 3.1 26.7.5 26.7.5L7.2 20s1 2.7 3.5 5.3a16 16 0 0 0 5.3 3.5L35.5 9.3z" fill="#d99e82"/><path d="M13.4 26.2c1-1 4.5-6.1 3.5-7.1s-6 2.5-7 3.5l-9 8.9A2.5 2.5 0 0 0 4.6 35l8.9-8.8z" fill="#c1694f"/><path d="M9.8 29.7l-3.5-3.5L1 31.5 4.5 35l5.3-5.3z" fill="#292f33"/><path d="M24 5a5 5 0 0 0-5-5 5 5 0 0 0-5 5 5 5 0 0 0 5 5 5 5 0 0 0 5-5" fill="#be1931"/><path d="M19 0a1 1 0 0 0-1 1v8a1 1 0 1 0 2 0V1a1 1 0 0 0-1-1" fill="#662113"/></g></svg>