<svg xmlns="http://www.w3.org/2000/svg" viewBox="0 0 45 45"><defs><clipPath id="a"><path d="M0 36h36V0H0v36z"/></clipPath></defs><g clip-path="url(#a)" transform="matrix(1.25 0 0 -1.25 0 45)"><path d="M36 15.6c-1.4.5-3.8 3.4-6 3.4-3 0-3 7-4 9s-3 4-3 5-3 2-8 0-8-2-10-2-3-2-4-4 0-2 0-2c1-1 2 2 4 3s3-1 5 0c1.5.8 4.7-.2 7 .1.8.1 1.5.4 2 .9 0 0 0-8 2-11 0 0-1-1-2-4s-2 0-2 2-1 5-5 7c-1.8.9-5.7.7-7-2-2-4 0-8 2-9s3-2 7-2c2 0 17.8-.5 22-.4v6z" fill="#ffdc5d"/><path d="M8.2 19.6c2.2 2 5.6 1.7 8-.5A9.1 9.1 0 0 1 12 23c-1.8.9-5.7.7-7-2-2-4 0-8 2-9l.7-.4c-1.8 2.7-1.7 6 .5 8" fill="#4289c1"/><path d="M12 17.5a.5.5 0 0 0-.3.8 3.6 3.6 0 0 0 2.3 1.2.5.5 0 0 0 0-1s-.8 0-1.6-.8a.5.5 0 0 0-.4-.2m-4-3a.5.5 0 0 0-.3.8 3.6 3.6 0 0 0 2.3 1.2.5.5 0 0 0 0-1s-.8 0-1.6-.8a.5.5 0 0 0-.4-.2" fill="#ef9645"/><path d="M36 12H0V0h36v12z" fill="#55acee"/><path d="M6 12c3 2 7 5 6 3s-1-3 1-2 5 2 4 0 2-1 3 0 4 0 3-1-9-2-12-2-5 2-5 2" fill="#55acee"/></g></svg>