<svg xmlns="http://www.w3.org/2000/svg" viewBox="0 0 45 45"><defs><clipPath id="a"><path d="M0 36h36V0H0v36z"/></clipPath></defs><g clip-path="url(#a)" transform="matrix(1.25 0 0 -1.25 0 45)"><path d="M36 33l-4.4-5.7c-3.8-5.2-7.2-6.4-10.3-7.6-3.2-1.2-10.4-1-13.9-.9-3.5.2-5.7.6-6.4-.4-2.1-3-.6-6.4 2.4-7 2.4-.3 9.6.4 13 .7 3.3.3 7 1.3 8.2 1.8 1.3.5 2.3.9 2.6 1.6.3.8 1.9 2.8 3.8 6 1 1.7 4 5 5 6.5v5z" fill="#f4900c"/><path d="M7 11.4c3 .1 7 .5 9.3.7 2.3.2 4.7.7 6.4 1.2l-.4 6.8-1-.4c-3.2-1.2-10.4-1-13.9-.9H7v-7.4z" fill="#292f33"/><path d="M17 8V4c0-1.1 3.1-2 7-2s7 .9 7 2v4H17z" fill="#231f20"/><path d="M31 8c0-1.1-3.1-2-7-2s-7 .9-7 2 3.1 2 7 2 7-.9 7-2" fill="#58595b"/></g></svg>