<svg xmlns="http://www.w3.org/2000/svg" viewBox="0 0 45 45"><defs><clipPath id="a"><path d="M0 36h36V0H0v36z"/></clipPath></defs><g clip-path="url(#a)" transform="matrix(1.25 0 0 -1.25 0 45)"><path d="M19 .5l-6.8 23.2-2.6-1.6c-.3-.3-2-2.8-2.3-3a34.8 34.8 0 0 1-3.8-3.2C3.1 15.2 0 0 0 0l19 .5z" fill="#292f33"/><path d="M32 1l-5.5 19.8L18 31.4l-5.4-4.1-1-1.2c-.4-.8-1.6-5.4-1.6-5.4L8.7 16 3.3 6 .9 1.1 32 1z" fill="#4b545d"/><path d="M3.3 6s7.8 10.7 7.9 11.3c0 .6-1.2 3.5-1.2 3.5L8.7 16 3.3 6z" fill="#fff"/><path d="M12 2h2l2 15.8 1.2 1.7 3.6 5.3.1 1.5-3.3-4.5-2.6-3.6-2.4-7.3L12 9l-1.8-3.1L8 2h4zm12 17.6l-2-5.9-1-3.7 2.8-7.6h3.5S23 9.4 23 10l.6 2.7 1.1 4.5.3 1.5-1 1z" fill="#292f33"/><path d="M24 19.6l-1.7.7-1.6-.9-1.3 1-2.2-.8 3.6 5.2 3.3-5.2zm3-7.4l-1.8 1.4-1.6-1 1.1 4.6 1.5-2.3.7-2.7z" fill="#f1f1f1"/><path d="M22.1 13.7L21 10l-.3 2.4 1.4 1.3zM12 9l-1.8-3.1.4 2.4.9.9a59.6 59.6 0 0 1 1.1 1.7L12 9zm3.2 11l2.4 1.8-2.6-3.6.2 1.8z" fill="#fff"/><path d="M36 0l-.8 7c-.4 2.6-2.8 6.4-4.2 7.2l-1.2 3.5-2 5.1-2.3 2.3-1.8 1.6-.5.7-5.2 4 2.3-5 .5-1.6 3.3-5.2.6-2.4 1.5-2.3.7-2.7L28 8.5 26 2l10-2z" fill="#292f33"/><path d="M33.7 3.6c-1.3 0-5-.6-5.5-.6-2 0-4.2 1.8-5.2 1.8S19.4 3 17.4 3c-1.7 0-2.4.8-4.7.8-.8 0-4.1-.9-4.8-.8C6 3.3 5 4 4.7 4 2 4 0 0 0 0h36s-.9 3.6-2.3 3.6" fill="#5c903f"/><path d="M12.6 27.3l2.2.4.6-1.8 2.1.9 2.8-.3-2.3 7.3-5.4-6.5z" fill="#f1f1f1"/><path d="M23.2 27.4l-1.5.2-1.4-1.2-2.3 7.4 5.2-6.4zM28 23l1.8-5.3-1.7 2.9-1.6 1.6-1 3L28 23zm7-16s-.1 4-1.2 5.3a8.6 8.6 0 0 1-2.9 2l1.4-3.3L34 9.5l1.3-2.4z" fill="#a8b6c0"/></g></svg>