<svg xmlns="http://www.w3.org/2000/svg" viewBox="0 0 45 45"><defs><clipPath id="a"><path d="M4 36a4 4 0 0 1-4-4V4a4 4 0 0 1 4-4h28a4 4 0 0 1 4 4v28a4 4 0 0 1-4 4H4z"/></clipPath><clipPath id="b"><path d="M0 36h36V0H0v36z"/></clipPath></defs><g clip-path="url(#a)" transform="matrix(1.25 0 0 -1.25 0 45)"><path d="M38 10H-1V-3h39v13z" fill="#3b88c3"/><path d="M39 8H-2v30h41V8z" fill="#88c9f9"/></g><g clip-path="url(#b)" transform="matrix(1.25 0 0 -1.25 0 45)"><path d="M7 7c0 1 1 5 11 5 12 0 15-4 15-5s0-2-14-2C7 5 7 6 7 7" fill="#f4900c"/><path d="M24.6 26.6s-2.4 2.3-6 2.9c-3.4.6-5.4-.9-5.4-.9s2.5 4.9 6.9 4.1c5.2-1 4.5-6 4.5-6" fill="#3e721d"/><path d="M24 27.5s1.8 2.8 5 4.2c3.2 1.5 5.4.5 5.4.5s-3 4.2-7 2.4c-5-2.2-3.4-7-3.4-7" fill="#3e721d"/><path d="M21 11.4c0-.3.3-1 2-1.4 2.7-.7 3 .4 3 .4s1 3 1 9c0 5.5-2.3 9.5-2.3 9.5l-2.5-.4s1.3-2.7 1.4-8.1c0-4-2.6-8.6-2.6-9" fill="#662113"/><path d="M15.7 16.2s-3 5.6.4 10c4 5.3 9.2 3 9.2 3s-3.2-2.7-5.7-5.6a22 22 0 0 1-3.9-7.4" fill="#5c913b"/><path d="M34.6 21s1.5 6-3.6 8.7c-5 2.7-8.2-1.3-8.2-1.3s3.3-.1 6.5-2a13.8 13.8 0 0 0 5.3-5.4" fill="#5c913b"/><path d="M12 29a5 5 0 0 0-5-5 5 5 0 0 0-5 5 5 5 0 0 0 5 5 5 5 0 0 0 5-5" fill="#ffcc4d"/><path d="M11 29a4 4 0 1 0-8 0 4 4 0 0 0 8 0" fill="#ffac33"/></g></svg>