<svg xmlns="http://www.w3.org/2000/svg" viewBox="0 0 45 45"><defs><clipPath id="a"><path d="M0 36h36V0H0v36z"/></clipPath></defs><g clip-path="url(#a)" transform="matrix(1.25 0 0 -1.25 0 45)"><path d="M35.9 18.6L0 19V7.1c0-1 1-2.1 2.5-3L5 3a25 25 0 0 1 2.4-.8l3.6-.8a46 46 0 0 1 2.4-.3h9.4l2.5.2 3.5.7c1 .2 1.7.5 2.4.8l2.4 1c1.5 1 2.3 2 2.3 3v11.8z" fill="#ccd6dc"/><path d="M22.9 5.2c0 4.3-2.2 5.4-4.8 5.5-2.7 0-4.8-1.1-4.8-5.5l.1-4a50.2 50.2 0 0 1 4.7-.3 48.8 48.8 0 0 1 4.7.1v4.2M11 7.2v-.9 1c0 2.1-3.6 3.2-3.6 1v-.9l.1-5.2a35.6 35.6 0 0 1 3.6-.8v5.8m17.8 1v-.9c0-.1 0-.1 0 0v.9c0 2.1-3.6 1-3.6-1.1V1.3L29 2l-.1 6.1zM5 9.4c0 2.1-2.4 3.3-2.4 1L2.7 4A15 15 0 0 1 5 3v6.5m26.2-.3V2.8c1 .3 1.7.7 2.4 1v6.5c0 2.2-2.5 1.1-2.4-1M3 30.7a.5.5 0 0 1-.5-.5V17.9a.5.5 0 0 1 1 0v12.4a.5.5 0 0 1-.5.5" fill="#66757f"/><path d="M3.2 30c1.5-.2 3.7-1 4.3-1.4.5-.3.2-.5-.4-.7a43 43 0 0 0-3.8-1c-.5-.2 0 3.2 0 3.2" fill="#dd2f45"/><path d="M12 33a.5.5 0 0 1-.5-.5V20.1a.5.5 0 0 1 1 0v12.4a.5.5 0 0 1-.5.5" fill="#66757f"/><path d="M12.2 32.3a19.4 19.4 0 0 0 4.3-1.4c.5-.3.2-.5-.4-.7a43 43 0 0 0-3.8-1.1c-.5-.1-.1 3.2-.1 3.2" fill="#226798"/><path d="M21.3 33a.5.5 0 0 1-.5-.5V20.1a.5.5 0 0 1 1 0v12.4a.5.5 0 0 1-.5.5" fill="#66757f"/><path d="M21.6 32.3a19.4 19.4 0 0 0 4.2-1.4c.6-.3.2-.5-.3-.7a43.1 43.1 0 0 0-3.9-1.1c-.4-.1 0 3.2 0 3.2" fill="#dd2f45"/><path d="M30.3 30.8a.5.5 0 0 1-.5-.5V17.9a.5.5 0 0 1 1 0v12.4a.5.5 0 0 1-.5.5" fill="#66757f"/><path d="M30.6 30a19.2 19.2 0 0 0 4.2-1.4c.6-.3.2-.5-.3-.7a43 43 0 0 0-3.9-1c-.4-.2 0 3.2 0 3.2" fill="#226798"/><path d="M35.9 18.6c0-3.4-8-6-17.9-5.9C8.2 12.8.1 15.6 0 19c0 3.3 8 5.9 18 5.8 9.8 0 17.8-2.8 17.9-6.1" fill="#e9eff3"/><path d="M33.3 17.8c0-3-6.8-5.4-15.3-5.3-8.4 0-15.3 2.6-15.3 5.6 0 3 6.8 5.3 15.2 5.2 8.5 0 15.3-2.5 15.4-5.5" fill="#7450a0"/><path d="M26.8 16.6l5.8 4-1.8 1-4.8-4.5c-.9.5-2.1.9-3.5 1.1l2.4 5.3-2.4.3-1.1-5.4a27 27 0 0 1-3.4.3 27.6 27.6 0 0 1-2.7-.2L14.1 24l-2.4-.2 2.5-5.3a14 14 0 0 1-4-1 695.8 695.8 0 0 1-5 4.5l-1.7-1 5.8-4c-.5-.5-.8-.9-.8-1.4 0-1.7 4.3-3.2 9.5-3.3 5.3 0 9.6 1.4 9.5 3.2 0 .4-.2.8-.7 1.2" fill="#e9eff3"/><path d="M26.4 15.1c0-1.3-3.7-2.3-8.3-2.3-4.7 0-8.4 1.2-8.4 2.5s3.7 2.4 8.3 2.3c4.7 0 8.4-1.1 8.4-2.5" fill="#5c903f"/></g></svg>