<svg xmlns="http://www.w3.org/2000/svg" viewBox="0 0 45 45"><defs><clipPath id="a"><path d="M0 36h36V0H0v36z"/></clipPath><clipPath id="b"><path d="M18 36a18 18 0 1 1 0-36 18 18 0 0 1 0 36z"/></clipPath></defs><g clip-path="url(#a)" transform="matrix(1.25 0 0 -1.25 0 45)"><path d="M36 18a18 18 0 1 0-36 0 18 18 0 0 0 36 0" fill="#e1e8ed"/></g><g clip-path="url(#b)" transform="matrix(1.25 0 0 -1.25 0 45)" fill="#99aab5"><path d="M20 17.1c-7.6 0-13 1.7-16.3 5.1A9.7 9.7 0 0 0 .8 29a1 1 0 0 0 1 1 1 1 0 0 0 1-1.1c0-.1 0-2.8 2.4-5.2 2.8-3 8-4.5 14.8-4.5a1 1 0 1 0 0-2M19.2 9C-.1 9-4.2 23-4.2 23.3a1 1 0 0 0 1.9.5c.1-.6 4-13.7 23.3-12.8a1 1 0 0 0 1-1 1 1 0 0 0-1-1 42.2 42.2 0 0 0-1.8 0"/><path d="M20 2C.5 2-3.4 14.1-3.5 14.6A1 1 0 0 0-3 16a1 1 0 0 0 1.3-.7C-1.6 14.8 2 4.3 20 4c.5 0 1-.4 1-1 0-.5-.5-.9-1-.9m0 15.6a1 1 0 0 0-1 1.3c4.3 11.8 16.3 9 16.4 9a1 1 0 0 0-.5-2c-.4 0-10.4 2.4-14-7.7a1 1 0 0 0-.9-.6"/><path d="M11.6 18.9a1 1 0 0 0-1 1.3c5.9 17.5 21.4 13 21.6 13a1 1 0 0 0 .6-1.2 1 1 0 0 0-1.2-.7c-.6.2-13.9 3.9-19-11.7a1 1 0 0 0-1-.7m5-23.6a1 1 0 0 0-.7 1.7c.3.3 7.5 7.3 3.5 20.6-.2.6 1.5 1.8 1.7 1.3l.2-.8c4.4-14.5-3.7-22.2-4-22.5a1 1 0 0 0-.7-.3"/><path d="M23-4.6a1 1 0 0 0-.7 1.6c0 .2 9.7 13.6 1.9 27.9a1 1 0 0 0 1.7 1c8.5-15.5-2-30-2-30a1 1 0 0 0-.8-.5"/><path d="M27-4.6a1 1 0 0 0-.8 1.6c.2.2 12 17.3 4.3 29.1a1 1 0 0 0 1.7 1.1c3.5-5.4 3.8-12.6 1-20.7a47.9 47.9 0 0 0-5.3-10.7 1 1 0 0 0-.8-.4M5.3 22.3a1 1 0 0 0-1 1.3 21.2 21.2 0 0 0 17.4 14.2 1 1 0 0 0 .1-2c-.4 0-11.7-1.2-15.5-12.8a1 1 0 0 0-1-.7"/></g></svg>