<svg xmlns="http://www.w3.org/2000/svg" viewBox="0 0 45 45"><defs><clipPath id="a"><path d="M0 36h36V0H0v36z"/></clipPath><clipPath id="b"><path d="M13 8H0V4a4 4 0 0 1 1-2.5A4 4 0 0 1 4 0h28a4 4 0 0 1 4 4v4H13z"/></clipPath></defs><g clip-path="url(#a)" transform="matrix(1.25 0 0 -1.25 0 45)"><path d="M32 36H4a4 4 0 0 1-4-4V7h36v25a4 4 0 0 1-4 4" fill="#88c9f9"/><path d="M13 8c-.6-1.2-4.6-4.3-12-6.5A4 4 0 0 1 4 0h28a4 4 0 0 1 4 4v4H13z" fill="#ffac33"/><path d="M13 8H0V4a4 4 0 0 1 1-2.5C8.3 3.7 12.3 6.8 13 8" fill="#3b88c3"/><path d="M19 3.9a1.3 1.3 0 0 0-2.5.5l5 26a1.3 1.3 0 1 0 2.5-.6l-5-26z" fill="#66757f"/><path d="M22.7 29.7C15.1 31.3 8 27.8 6.6 21.8c0 0-.4-1.7.4-1.8.9-.2 2.9 1 2.9 1l20.9-4.5s1.3-2 2.1-2.2c.9-.2 1.2 1.5 1.2 1.5 1.3 6-3.8 12.2-11.4 13.9" fill="#dd2e44"/><path d="M22.7 29.7A11 11 0 0 1 10 21s-.4-1.7 1.3-2c1.7-.4 4.6.7 4.6.7l9.1-2s2.2-2.2 3.9-2.6c1.6-.3 2 1.3 2 1.3a11 11 0 0 1-8 13.2" fill="#fff"/><path d="M22.7 29.7c-3 .6-5.6-3.9-7-9.9 0 0 2.2-2.2 3.9-2.6l.8-.1c1.7-.4 4.6.7 4.6.7 1.2 6 .7 11.2-2.3 11.9" fill="#dd2e44"/></g><g clip-path="url(#b)" transform="matrix(1.25 0 0 -1.25 0 45)"><path d="M15.2 8s-.7-.9-2.2-.9c-.8 0-1.3-1.1 1-1.1 2.4 0 1.1-1-1-1-4.3 0-1.6-2-5-2H7C5.2 3 4 2 6 2c3.7 0-.3-2-3-2H2c-3 0-3.8 3 0 3 1.9 0 2.6 1.6 5 1.6C9.1 4.6 9.9 7 11 7s2 1 2 1h2.2z" fill="#f2f9ff"/></g></svg>