<svg xmlns="http://www.w3.org/2000/svg" viewBox="0 0 45 45"><defs><clipPath id="a"><path d="M0 36h36V0H0v36z"/></clipPath></defs><g clip-path="url(#a)" transform="matrix(1.25 0 0 -1.25 0 45)"><path d="M35.857 18.624L.08 18.947V7.126C.09 6.042 1.087 5.007 2.6 4.099l2.396-1.133A24.924 24.924 0 0 1 7.388 2.2l3.584-.763a45.943 45.943 0 0 1 2.46-.32l9.328-.088c.868.074 1.714.167 2.524.285l3.57.707c.857.219 1.652.463 2.378.731l2.374 1.098c1.507.893 2.262 1.923 2.251 3.013v11.761z" fill="#ccd6dc"/><path d="M22.885 5.151c-.043 4.36-2.19 5.47-4.825 5.493-2.633.025-4.76-1.047-4.716-5.407.016-1.606.047-2.959.089-4.12a50.159 50.159 0 0 1 4.713-.269 48.78 48.78 0 0 1 4.615.181c.097 1.002.142 2.34.124 4.122M10.917 7.11l.001-.107.004-.365.002-.27.001-.065c0-.05 0-.044 0 0l-.001.065-.002.27-.004.365-.001.107-.001.122c-.021 2.18-3.61 3.303-3.589 1.121l.001-.037.002-.204.001-.157.005-.47v-.068L7.388 2.2a35.57 35.57 0 0 1 3.585-.763l-.056 5.753v-.08M28.795 8.102l.005-.507V7.57l.003-.27c0-.119 0-.15 0 0l-.003.27v.026l-.005.507-.001.058c-.021 2.18-3.59 1.123-3.566-1.058v-.035l.056-5.753c1.28.186 2.47.427 3.57.707l-.06 6.1v-.019zM4.931 9.466c-.022 2.18-2.417 3.292-2.396 1.112v-.041L2.6 4.099c.676-.407 1.482-.786 2.396-1.133l-.052 5.32-.012 1.18M31.168 9.23l.012-1.138v.047-.046l.052-5.342c.908.334 1.706.702 2.374 1.098l-.064 6.448c-.02 2.181-2.395 1.112-2.374-1.068M2.972 30.775a.5.5 0 0 1-.5-.5v-12.37a.5.5 0 0 1 1 0v12.37a.5.5 0 0 1-.5.5" fill="#66757f"/><path d="M3.207 30.064c1.478-.269 3.682-1.102 4.247-1.425.564-.322.214-.484-.323-.725-.537-.243-3.441-1.02-3.87-1.102-.431-.08-.054 3.252-.054 3.252" fill="#dd2f45"/><path d="M11.969 33.024a.5.5 0 0 1-.5-.5v-12.37a.5.5 0 0 1 1 0v12.37a.5.5 0 0 1-.5.5" fill="#66757f"/><path d="M12.203 32.313c1.478-.269 3.682-1.102 4.247-1.425.564-.322.215-.484-.323-.725-.537-.243-3.44-1.02-3.87-1.102-.43-.08-.054 3.252-.054 3.252" fill="#226798"/><path d="M21.339 33.024a.5.5 0 0 1-.5-.5v-12.37a.5.5 0 0 1 1 0v12.37a.5.5 0 0 1-.5.5" fill="#66757f"/><path d="M21.574 32.313c1.48-.269 3.681-1.102 4.245-1.425.565-.322.216-.484-.32-.725-.538-.243-3.442-1.02-3.872-1.102-.43-.08-.053 3.252-.053 3.252" fill="#dd2f45"/><path d="M30.335 30.775a.5.5 0 0 1-.5-.5v-12.37a.5.5 0 0 1 1 0v12.37a.5.5 0 0 1-.5.5" fill="#66757f"/><path d="M30.57 30.064c1.48-.269 3.681-1.102 4.246-1.425.564-.322.215-.484-.322-.725-.537-.243-3.44-1.02-3.87-1.102-.432-.08-.054 3.252-.054 3.252" fill="#226798"/><path d="M35.857 18.557c.033-3.313-7.949-5.925-17.829-5.835C8.148 12.81.112 15.569.08 18.879c-.033 3.312 7.951 5.924 17.83 5.835 9.88-.09 17.916-2.846 17.948-6.157" fill="#e9eff3"/><path d="M33.257 17.79c.029-2.994-6.788-5.36-15.227-5.285-8.44.078-15.304 2.568-15.334 5.562-.03 2.995 6.788 5.36 15.228 5.284 8.437-.076 15.304-2.565 15.333-5.56" fill="#7450a0"/><path d="M26.767 16.622l5.829 3.94-1.8 1.105s-3.63-3.395-4.821-4.547c-.877.455-2.073.836-3.486 1.104l2.439 5.302-2.463.294-1.094-5.419a26.965 26.965 0 0 1-3.401.244 27.63 27.63 0 0 1-2.67-.106l-1.183 5.357-2.457-.25 2.49-5.235c-1.64-.227-3.036-.605-4.035-1.086a695.748 695.748 0 0 1-4.848 4.573l-1.778-1.074 5.814-3.98c-.54-.397-.847-.84-.843-1.31.018-1.766 4.304-3.238 9.573-3.286 5.269-.047 9.527 1.347 9.509 3.113-.004.446-.281.871-.775 1.261" fill="#e9eff3"/><path d="M26.427 15.139c.013-1.321-3.731-2.357-8.363-2.315-4.631.042-8.395 1.145-8.408 2.466-.013 1.32 3.73 2.356 8.36 2.314 4.632-.041 8.397-1.146 8.41-2.465" fill="#5c903f"/></g></svg>