<svg xmlns="http://www.w3.org/2000/svg" viewBox="0 0 45 45"><defs><clipPath id="a"><path d="M0 36h36V0H0v36z"/></clipPath><clipPath id="b"><path d="M4 36s-4 0-4-4V4c0-4 4-4 4-4h28c4 0 4 4 4 4v28s0 4-4 4H4z"/></clipPath><clipPath id="c"><path d="M0 17V4c0-4 4-4 4-4h28c4 0 4 4 4 4v11h-8c-1.4 0-7.8 5-9 5-1 0-4-2-5-2-2 0-4.3 4-6 4-1.8 0-5.2-3.6-8-5"/></clipPath><clipPath id="d"><path d="M0 36h36V0H0v36z"/></clipPath></defs><g clip-path="url(#a)" transform="matrix(1.25 0 0 -1.25 0 45)"><path d="M36 4s0-4-4-4H4S0 0 0 4v28c0 4 4 4 4 4h28c4 0 4-4 4-4V4z" fill="#88c9f9"/></g><g clip-path="url(#b)" transform="matrix(1.25 0 0 -1.25 0 45)"><path d="M8 22c1.6 0 4-4 6-4 1 0 4 2 5 2 1.2 0 7.6-5 9-5h8c2 0 0-21 0-21H0s-7.5 21.1-1 22.7c3 .8 7 5.3 9 5.3" fill="#f4900c"/></g><g clip-path="url(#c)" transform="matrix(1.25 0 0 -1.25 0 45)"><path d="M-2 15h38l1-20H-1l-1 20z" fill="#ffd983"/></g><g clip-path="url(#d)" transform="matrix(1.25 0 0 -1.25 0 45)"><path d="M31.5 21.5a2.5 2.5 0 0 1-2.5-2.6v-5.7c0-.7-1-1.3-1-1.6v10.6c0 2.1-1.9 3.8-4 3.8s-4-1.7-4-3.8V9c-1 .3-1 .9-1 1.6V14c0 1.4-1.1 2.5-2.5 2.5S14 15.3 14 13.9V9.4c0-1.4 1-2.4 2-3a12.4 12.4 0 0 1 4-1V3c0-2 8-2 8 0v4.9c1 0 3.2.6 4 1 1 .6 2 1.7 2 3v7a2.5 2.5 0 0 1-2.5 2.6" fill="#77b255"/><path d="M20.6 20.2a.6.6 0 1 0-1.3 0 .6.6 0 0 0 1.3 0m7 3.9a.6.6 0 1 0-1.3 0 .6.6 0 0 0 1.3 0m-1.3-5.8a.6.6 0 1 0-1.3 0 .6.6 0 0 0 1.3 0M22 13.9a.6.6 0 1 0-1.3 0 .6.6 0 0 0 1.3 0m3.8-2.6a.6.6 0 1 0-1.3 0 .6.6 0 0 0 1.3 0m-4.5-3.8a.6.6 0 1 0-1.2 0 .6.6 0 0 0 1.2 0m-5-.6a.6.6 0 1 0-1.3 0 .6.6 0 0 0 1.3 0m2.5 4.4a.6.6 0 1 0-1.3 0 .6.6 0 0 0 1.3 0m-4.4 1.3a.6.6 0 1 0-1.3 0 .6.6 0 0 0 1.3 0m20.2 6.3a.6.6 0 1 0-1.2 0 .6.6 0 0 0 1.2 0M30.7 17a.6.6 0 1 0-1.2 0 .6.6 0 0 0 1.2 0m2.6-3.1a.6.6 0 1 0-1.3 0 .6.6 0 0 0 1.3 0m-2-5.1a.6.6 0 1 0-.6.6.6.6 0 0 0 .7-.6M26.9 5a.6.6 0 1 0-1.2 0 .6.6 0 0 0 1.2 0" fill="#3e721d"/><path d="M17 29a5 5 0 0 0-5-5 5 5 0 0 0-5 5 5 5 0 0 0 5 5 5 5 0 0 0 5-5" fill="#ffcc4d"/><path d="M16 29a4 4 0 1 0-8 0 4 4 0 0 0 8 0" fill="#ffac33"/></g></svg>