<svg xmlns="http://www.w3.org/2000/svg" viewBox="0 0 45 45"><defs><clipPath id="a"><path d="M0 36h36V0H0v36z"/></clipPath></defs><g clip-path="url(#a)" transform="matrix(1.25 0 0 -1.25 0 45)"><path d="M19.083.5L12.25 23.708s-1.42-.761-2.604-1.637c-.313-.231-1.977-2.79-2.313-3.04-1.762-1.315-3.552-2.841-3.792-3.167C3.083 15.24 0 0 0 0l19.083.5z" fill="#292f33"/><path d="M32 1l-5.5 19.75L18 31.458l-5.373-4.192-.971-1.172C11.25 25.312 10 20.75 10 20.75L8.75 16 3.251 5.945.917 1.208 32 1z" fill="#4b545d"/><path d="M3.252 5.945s7.873 10.784 7.894 11.388c.02.604-1.146 3.417-1.146 3.417L8.75 16 3.251 5.945z" fill="#fff"/><path d="M12 2h2l2 15.75 1.234 1.797 3.579 5.234.093 1.469-3.287-4.454L15 18.248l-2.388-7.362L12 9l-1.791-3.134L8 2h4zM24.059 19.616l-1.965-5.897L21 10l2.792-7.625 3.552.062S23 9.375 23 10c0 .12.625 2.687.625 2.687l1.094 4.532.28 1.531-.94.866z" fill="#292f33"/><path d="M24.059 19.616l-1.777.665-1.532-.875-1.328 1.063-2.187-.922 3.578 5.234 3.246-5.165zM26.93 12.236l-1.711 1.39-1.594-.939 1.094 4.531 1.438-2.28.773-2.702z" fill="#f1f1f1"/><path d="M22.094 13.719L21 9.999l-.25 2.418 1.344 1.302zM12 9l-1.791-3.134.354 2.431s.682.578.937.911c.255.334 1.112 1.678 1.112 1.678L12 9zM15.209 20l2.41 1.796-2.618-3.548.208 1.752z" fill="#fff"/><path d="M36 0s-.385 3.845-.854 7.083c-.369 2.543-2.757 6.304-4.1 7.115l-1.233 3.536-2.024 5.102-2.258 2.289-1.844 1.625-.504.622L18 31.458l2.289-5.007.523-1.67 3.247-5.165.66-2.397 1.437-2.281.774-2.702L28 8.5 26 2l10-2z" fill="#292f33"/><path d="M33.708 3.563C32.362 3.563 28.75 3 28.25 3 26.25 3 24 4.75 23 4.75S19.406 3 17.406 3c-1.687 0-2.406.812-4.719.812-.748 0-4.095-.87-4.812-.78-1.823.226-2.761.967-3.219.967C2 4 0 0 0 0h36s-.875 3.563-2.292 3.563" fill="#5c903f"/><path d="M12.627 27.266l2.123.484.656-1.843 2.125.875 2.758-.33L18 33.75l-5.373-6.484z" fill="#f1f1f1"/><path d="M23.183 27.372l-1.443.243-1.451-1.163-2.29 7.298 5.184-6.378zM27.953 23l1.86-5.266-1.73 2.828-1.614 1.626-.938 2.937L27.953 23zM35.145 7.083s-.146 3.886-1.27 5.167c-1.126 1.281-2.876 1.979-2.876 1.979l1.438-3.271 1.459-1.416 1.25-2.459z" fill="#a8b6c0"/></g></svg>