<svg xmlns="http://www.w3.org/2000/svg" viewBox="0 0 45 45"><defs><clipPath id="a"><path d="M4 36a4 4 0 0 1-4-4V4a4 4 0 0 1 4-4h28a4 4 0 0 1 4 4v28a4 4 0 0 1-4 4H4z"/></clipPath><clipPath id="b"><path d="M0 36h36V0H0v36z"/></clipPath></defs><g clip-path="url(#a)" transform="matrix(1.25 0 0 -1.25 0 45)"><path d="M38 10H-1V-3h39v13z" fill="#78b159"/><path d="M39 8H-2v30h41V8z" fill="#88c9f9"/></g><g clip-path="url(#b)" transform="matrix(1.25 0 0 -1.25 0 45)"><path d="M29.1 8.4c0-1.9-1-2.6-2.2-2.6s-2.1.7-2.1 2.6l.5 7.9c0 1.9.4 1.7 1.6 1.7 1.2 0 1.7.2 1.7-1.7l.5-7.9z" fill="#662113"/><path d="M35.6 22.7c0-6.4-3.9-8.7-8.7-8.7s-8.6 2.3-8.6 8.7S23 35 26.9 35s8.7-6 8.7-12.3" fill="#5c913b"/><path d="M21.5 19.8c0 .4-.4.7-1 .7s-1.1-.3-1.1-.7c0-.4.5-.7 1-.7.7 0 1.1.3 1.1.7m13 0c0 .4-.5.7-1 .7-.7 0-1.2-.3-1.2-.7 0-.4.5-.7 1.1-.7.6 0 1.1.3 1.1.7m-10.8-3c0 .5-.5.8-1 .8-.7 0-1.2-.3-1.2-.7 0-.4.5-.7 1.1-.7.6 0 1 .3 1 .7M26 19c0 .4-.5.7-1.1.7-.6 0-1.1-.3-1.1-.7 0-.4.5-.8 1-.8.7 0 1.2.4 1.2.8m-2.2 4.3c0 .4-.5.7-1 .7-.7 0-1.2-.3-1.2-.7 0-.4.5-.7 1.1-.7.6 0 1.1.3 1.1.7m-1.6 2.9c0 .4-.5.7-1.1.7-.6 0-1-.3-1-.7 0-.4.4-.7 1-.7s1 .3 1 .7m12 0c0 .4-.5.7-1.1.7-.6 0-1-.3-1-.7 0-.4.4-.7 1-.7s1 .3 1 .7m-8 1.4c0 .4-.5.8-1.1.8-.6 0-1.1-.4-1.1-.8s.5-.7 1-.7c.7 0 1.2.3 1.2.7m4.3 0c0 .4-.5.8-1 .8-.7 0-1.2-.4-1.2-.8s.5-.7 1.1-.7c.6 0 1 .3 1 .7m2.2-4.3c0 .4-.4.7-1 .7s-1.1-.3-1.1-.7c0-.4.5-.7 1-.7.7 0 1.1.3 1.1.7m-4.3-.7c0 .4-.5.7-1 .7-.7 0-1.1-.3-1.1-.7 0-.4.4-.7 1-.7s1.1.3 1.1.7m2.2-3.6c0 .3-.5.7-1 .7-.7 0-1.2-.3-1.2-.7 0-.4.5-.8 1.1-.8.6 0 1 .4 1 .8m-2-3c0 .5-.6.8-1.2.8s-1-.3-1-.7c0-.4.4-.8 1-.8s1.1.4 1.1.8m4.3.7c0 .4-.4.7-1 .7s-1.1-.3-1.1-.7c0-.4.5-.7 1-.7.7 0 1.1.3 1.1.7" fill="#3e721d"/><path d="M14 3a1 1 0 0 0-1 .7l-5 14a1 1 0 0 0 .2.9 1 1 0 0 0 .8.4h12a1 1 0 0 0 1-.6l6-14a1 1 0 0 0-.1-1 1 1 0 0 0-.8-.4H14z" fill="#f4900c"/><path d="M3 3a1 1 0 0 0-1 1.4l6.1 14a1 1 0 0 0 1.8 0l6-14A1 1 0 0 0 15 3H3z" fill="#ffcc4d"/><path d="M9 18L7 3h4L9 18z" fill="#292f33"/><path d="M13 30a2.5 2.5 0 0 1-2.5 3 2.5 2.5 0 0 1-2.1-1.2 2.5 2.5 0 0 1-.9.2A2.5 2.5 0 0 1 5 29.8a2.4 2.4 0 0 1-.9.2 2.5 2.5 0 1 1 0-5H13a2.5 2.5 0 1 1 0 5" fill="#fff"/></g></svg>