<svg xmlns="http://www.w3.org/2000/svg" viewBox="0 0 45 45"><defs><clipPath id="a"><path d="M0 36h36V0H0v36z"/></clipPath></defs><g clip-path="url(#a)" transform="matrix(1.25 0 0 -1.25 0 45)"><path d="M23.1 30c-5.5 5.5-14.7 6.5-19.8 1.4-5-5-4-14.3 1.4-19.8 3.6-3.5 7.8-4.3 11.7-3h.1a24.3 24.3 0 0 0 3.8 1.1c1.8.4 3.5-1.6 5-3C26.5 5.3 29.4 1 30.1.3c.7-.7 1.4 0 2.1.7l.7.7.7.8c.7.7 1.4 1.4.7 2-.7.8-5 3.6-6.3 5-1.4 1.4-3.4 3.1-3 5 .1 1 .4 1.8.6 2.5 2 4.2 1.5 9-2.6 13" fill="#dd2e44"/><path d="M15.6 8.3l.8.3h.1l.8.3a24.2 24.2 0 0 0 3 .8c1.8.4 3.5-1.6 5-3C26.5 5.3 29.4 1 30.1.3c.7-.7 1.4 0 2.1.7l.7.7.7.8c.7.7 1.4 1.4.7 2-.7.8-5 3.6-6.3 5-1.5 1.4-3.4 3.1-3 5a26.2 26.2 0 0 0 1.4 4.8l-11-11z" fill="#d99e82"/><path d="M33.7 2.5L32.3 1l-12 12 1.4 1.5 12-12z" fill="#ffcc4d"/><path d="M35 29.5a3.5 3.5 0 1 0-7 0 3.5 3.5 0 0 0 7 0" fill="#ccd6dd"/></g></svg>