<svg xmlns="http://www.w3.org/2000/svg" viewBox="0 0 45 45"><defs><clipPath id="a"><path d="M0 36h36V0H0v36z"/></clipPath></defs><path d="M36.3 36.3H8.8V13.8h27.4v22.4z" fill="#292f33"/><g clip-path="url(#a)" transform="matrix(1.25 0 0 -1.25 0 45)"><path d="M8 7c0-1.1-.6-2-1.3-2H5.3C4.6 5 4 5.9 4 7v18c0 1.1.6 2 1.3 2h1.4c.7 0 1.3-.9 1.3-2V7zm24 0c0-1.1-.6-2-1.3-2h-1.4c-.7 0-1.3.9-1.3 2v18c0 1.1.6 2 1.3 2h1.4c.7 0 1.3-.9 1.3-2V7zM16 7c0-1.1-.6-2-1.3-2h-1.4c-.7 0-1.3.9-1.3 2v18c0 1.1.6 2 1.3 2h1.4c.7 0 1.3-.9 1.3-2V7zm8 0c0-1.1-.6-2-1.3-2h-1.4c-.7 0-1.3.9-1.3 2v18c0 1.1.6 2 1.3 2h1.4c.7 0 1.3-.9 1.3-2V7z" fill="#ccd6dd"/><path d="M33 6a2 2 0 0 0-2-2H5a2 2 0 0 0 0 4h26a2 2 0 0 0 2-2" fill="#9aaab4"/><path d="M35 4a2 2 0 0 0-2-2H3a2 2 0 0 0 0 4h30a2 2 0 0 0 2-2" fill="#ccd6dd"/><path d="M36 2.5A1.5 1.5 0 0 0 34.5 1h-33a1.5 1.5 0 1 0 0 3h33A1.5 1.5 0 0 0 36 2.5" fill="#e1e8ed"/><path d="M33 26c0 1.1-1 2-2.1 2H5a2 2 0 0 1-2-2 2 2 0 0 1 1-1.7V23h4v1h4v-1h4v1h4v-1h4v1h4v-1h4v1.3c.6.4 1 1 1 1.7" fill="#9aaab4"/><path d="M2 27.6c0 1 1 1.4 1 1.4l15 7 15-7s1-.2 1-1.4V27H2v.6z" fill="#ccd6dd"/><path d="M18 33.5L6.7 28.2c-1-.5-.7-1.2 0-1.2h22.6c1 0 .8.8 0 1.3L18 33.4" fill="#9aaab4"/><path d="M34 27a1 1 0 0 0-1-1H3a1 1 0 0 0 0 2h30a1 1 0 0 0 1-1" fill="#ccd6dd"/></g></svg>