<svg xmlns="http://www.w3.org/2000/svg" viewBox="0 0 45 45"><defs><clipPath id="a"><path d="M0 36h36V0H0v36z"/></clipPath></defs><path d="M6.3 22.5L22.4 6.2l16.3 16.3v20H6.3v-20z" fill="#ffe8b6"/><path d="M6.3 42.5h1.2v-20H6.2v20zm31.2 0h1.3v-20h-1.3v20z" fill="#ffcc4d"/><g clip-path="url(#a)" transform="matrix(1.25 0 0 -1.25 0 45)"><path d="M31 17a1 1 0 0 0-.7.3L18 29.6 5.7 17.3a1 1 0 1 0-1.4 1.4l13 13a1 1 0 0 0 1.4 0l13-13A1 1 0 0 0 31 17" fill="#66757f"/><path d="M20 2h-4v8h4V2z" fill="#c1694f"/><path d="M13 14H9v4h4v-4zm14 0h-4v4h4v-4zm-7 0h-4v4h4v-4zm-7-8H9v4h4V6zm14 0h-4v4h4V6z" fill="#55acee"/><path d="M33 1a1 1 0 0 0-1-1H4a1 1 0 1 0 0 2h28a1 1 0 0 0 1-1" fill="#bcbec0"/></g></svg>