<svg xmlns="http://www.w3.org/2000/svg" viewBox="0 0 45 45"><defs><clipPath id="a"><path d="M0 36h36V0H0v36z"/></clipPath></defs><g clip-path="url(#a)" transform="matrix(1.25 0 0 -1.25 0 45)"><path d="M34 23a2 2 0 0 0-2-2h-6a2 2 0 0 0-2 2v2a2 2 0 0 0 2 2h6a2 2 0 0 0 2-2v-2zm-22 0a2 2 0 0 0-2-2H4a2 2 0 0 0-2 2v2a2 2 0 0 0 2 2h6a2 2 0 0 0 2-2v-2z" fill="#dac8b1"/><path d="M36 2a2 2 0 0 0-2-2H2a2 2 0 0 0-2 2v21a2 2 0 0 0 2 2h32a2 2 0 0 0 2-2V2z" fill="#f1dcc1"/><path d="M22 27v2a2 2 0 0 1-1 1.7v.3a2 2 0 0 1-2 2h-2a2 2 0 0 1-2-2v-.3a2 2 0 0 1-1-1.7v-2h-1V0h10v27h-1z" fill="#dac8b1"/><path d="M16 27h-2v2h2v-2zm4 0h2v2h-2v-2zm-1 0h-2v2h2v-2z" fill="#55acee"/><path d="M17 7h-2v14h2V7zm4 0h-2v14h2V7z" fill="#3b88c3"/><path d="M26 7h-2v12h2V7zm4 0h-2v12h2V7zm4 0h-2v12h2V7zM4 7H2v12h2V7zm4 0H6v12h2V7zm4 0h-2v12h2V7zM4 4H2v2h2V4zm4 0H6v2h2V4zm4 0h-2v2h2V4z" fill="#55acee"/><path d="M17 4h-2v2h2V4zm4 0h-2v2h2V4z" fill="#3b88c3"/><path d="M26 4h-2v2h2V4zm4 0h-2v2h2V4zm4 0h-2v2h2V4z" fill="#55acee"/><path d="M4 0H2v3h2V0zm4 0H6v3h2V0zm4 0h-2v3h2V0zm5 0h-2v3h2V0zm4 0h-2v3h2V0zm5 0h-2v3h2V0zm2 0h2v3h-2V0zm6 0h-2v3h2V0z" fill="#66757f"/></g></svg>