<svg xmlns="http://www.w3.org/2000/svg" viewBox="0 0 45 45"><defs><clipPath id="a"><path d="M0 36h36V0H0v36z"/></clipPath></defs><g clip-path="url(#a)" transform="matrix(1.25 0 0 -1.25 0 45)"><path d="M17 2a2 2 0 0 1 2-2h14a2 2 0 0 1 2 2v16a2 2 0 0 1-2 2H19a2 2 0 0 1-2-2V2z" fill="#aab8c2"/><path d="M33 20H23v-2h12a2 2 0 0 1-2 2" fill="#292f33"/><path d="M33 2H3v4h30V2z" fill="#3b88c3"/><path d="M3 20a2 2 0 0 1-2-2V2a2 2 0 0 1 2-2h20v20H3z" fill="#ccd6dd"/><path d="M3 20a2 2 0 0 1-2-2h22v2H3z" fill="#66757f"/><path d="M3 12h4v4H3v-4zm14 0h4v4h-4v-4zm-7 0h4v4h-4v-4z" fill="#55acee"/><path d="M33 12h-4v4h4v-4zm-6 0h-4v4h4v-4z" fill="#3b88c3"/><path d="M21 0H3v6h18V0z" fill="#55acee"/><path d="M17 0H7v6h10V0z" fill="#3b88c3"/><path d="M23 10H1V6h22v4z" fill="#dd2e44"/><path d="M17 7H7v2h10V7z" fill="#f4abba"/><path d="M15 7H9v2h6V7z" fill="#fff"/><path d="M35 6H23v4h12V6z" fill="#a0041e"/><path d="M7 20H5v2h2v-2zm10 0h2v2h-2v-2z" fill="#292f33"/><path d="M21 24a2 2 0 0 0-2-2H5a2 2 0 0 0-2 2v10a2 2 0 0 0 2 2h14a2 2 0 0 0 2-2V24z" fill="#dd2e44"/><path d="M10.6 25.9c.6 0 1-.3 1-1 0-.6-.4-.9-1-.9H6c-.7 0-1.1.3-1.1 1l.3.6c1.2 1.4 2.4 2.7 3.5 4.2.2.4.5.8.5 1.3 0 .6-.5 1.1-1 1.1-1.6 0-.9-2.3-2.2-2.3-.7 0-1 .5-1 1a3.3 3.3 0 0 0 3.3 3.2c1.7 0 3-1 3-2.9 0-2-2.1-3.8-3.3-5.3h2.6zm5.7 6l-2-3.8h2V32zm-3.4-5.7c-.7 0-1 .5-1 .8l.2.6 3.2 5.7c.3.6.7.8 1.4.8.8 0 1.6-.5 1.6-1.8v-4.2h.3c.5 0 1-.4 1-1 0-.5-.5-.9-1-.9h-.3V25c0-.7-.3-1-1-1s-1 .3-1 1v1.2h-3.4z" fill="#fff"/></g></svg>