<svg xmlns="http://www.w3.org/2000/svg" viewBox="0 0 45 45"><defs><clipPath id="a"><path d="M0 36h36V0H0v36z"/></clipPath></defs><g clip-path="url(#a)" transform="matrix(1.25 0 0 -1.25 0 45)"><path d="M29 2a2 2 0 0 0-2-2H9a2 2 0 0 0-2 2v32a2 2 0 0 0 2 2h18a2 2 0 0 0 2-2V2z" fill="#292f33"/><path d="M6.7 4h22.6c4 3.3 5.7 8.3 5.7 14s-1.6 10.7-5.7 14H6.7C2.7 28.7 1 23.7 1 18S2.6 7.3 6.7 4" fill="#be1931"/><path d="M1.3 14l.4-2h32.6l.4 2H1.3zm-.2 2h33.8l.1 2H1v-2m31.7-8l1 2H2.3c.2-.7.6-1.4 1-2h29.3zM2.4 26a17.8 17.8 0 0 1-.7-2h32.6l-.7 2H2.4zm-1.1-4a24 24 0 0 1-.2-2h33.8a23.5 23.5 0 0 1-.2 2H1.3zm30-16H4.7a13.8 13.8 0 0 1 2-2h22.6a13.9 13.9 0 0 1 2 2M4.7 30a14.2 14.2 0 0 1-1.4-2h29.4a14.2 14.2 0 0 1-1.4 2H4.7z" fill="#dd2e44"/></g></svg>