<svg xmlns="http://www.w3.org/2000/svg" viewBox="0 0 45 45"><defs><clipPath id="a"><path d="M0 36h36V0H0v36z"/></clipPath></defs><path d="M31.3 31.3H13.6V12.4h17.6v18.8z" fill="#edbb9f"/><g clip-path="url(#a)" transform="matrix(1.25 0 0 -1.25 0 45)"><path d="M1 18V2a2 2 0 0 1 2-2h30a2 2 0 0 1 2 2v16H1z" fill="#be1931"/><path d="M35 19H1v3h34v-3z" fill="#ffe8b6"/><path d="M35 18H1v2h34v-2z" fill="#c1694f"/><path d="M18 9a3 3 0 0 1-3-3V0h6v6a3 3 0 0 1-3 3" fill="#ccd6dd"/><path d="M28 9a3 3 0 0 1-3-3V2h6v4a3 3 0 0 1-3 3M8 9a3 3 0 0 1-3-3V2h6v4a3 3 0 0 1-3 3" fill="#aab8c2"/><path d="M22 32a4 4 0 1 0-8 0 4 4 0 0 0 8 0" fill="#d99e82"/><path d="M22 28h-8v4h8v-4z" fill="#edbb9f"/><path d="M33 24H3a2 2 0 0 1-2-2h34a2 2 0 0 1-2 2m-10 4H13a2 2 0 0 1-2-2h14a2 2 0 0 1-2 2" fill="#d99e82"/><path d="M21.7 14.8c-.2-.2 0-.4 0-.4l-1-1-1.4-1.4a2.2 2.2 0 1 0-3.2 3 2.2 2.2 0 0 0 3.1 0c.5-.5.7-1.2.6-1.8l1 .9a3.1 3.1 0 0 1-5.4 1.6 3.1 3.1 0 1 1 4.4-4.5l.1.1 2.4 2.4s.2-.2.4 0 0 .4 0 .4l-.6.6s-.2.2-.4 0" fill="#ffac33"/><path d="M14.2 12.4a3.7 3.7 0 0 0-.1 1.5c-1 .9-.4 2-.6 2.2h-.3l-2-2v-.3c.2-.2 1.4.3 2.1-.5l1-.9" fill="#ffac33"/></g></svg>