<svg xmlns="http://www.w3.org/2000/svg" viewBox="0 0 45 45"><defs><clipPath id="a"><path d="M0 36h36V0H0v36z"/></clipPath></defs><path d="M12.9 11.3H7v2.4h6.2l-.2-2.4zm-.4-5h-5l-.2 2.5h5.4l-.2-2.6zm.8 10H6.7l-.2 2.4h7l-.2-2.4zm-7 5v1.2h7.5l-.2-1.3H6.5zm19.5-5h-6.6l-.2 2.4h7l-.2-2.4zm-7 5v1.2h7.4v-1.3h-7.4zm6.6-10h-5.8l-.2 2.4h6.2l-.2-2.4zm-.4-5h-5l-.2 2.5h5.4L25 6.2zm12.9 5H32l-.2 2.4H38l-.2-2.4zm-6.5 10l-.1 1.2h7.4v-1.3h-7.4zm6.9-5h-6.6l-.2 2.4h7l-.2-2.4zm-.8-10h-5l-.2 2.5h5.4l-.2-2.6z" fill="#be1931"/><path d="M13 13.8H7l-.3 2.4h6.6l-.2-2.4zm-.3-5H7.3l-.2 2.4H13l-.2-2.4zm-6.2 10l-.2 2.4h7.3l-.1-2.4h-7zm19-5h-6l-.3 2.4h6.6l-.2-2.4zm-.3-5h-5.4l-.2 2.4h5.8l-.2-2.4zm-6.2 10l-.2 2.4h7.3l-.1-2.4h-7zm19-5h-6l-.3 2.4h6.6l-.2-2.4zm.5 5h-7l-.2 2.4h7.3l-.1-2.4zm-.8-10h-5.4l-.2 2.4H38l-.2-2.4z" fill="#e6e7e8"/><g clip-path="url(#a)" transform="matrix(1.25 0 0 -1.25 0 45)"><path d="M35 2a2 2 0 0 0-2-2H3a2 2 0 0 0-2 2v14a2 2 0 0 0 2 2h30a2 2 0 0 0 2-2V2z" fill="#a0041e"/><path d="M35 14H1v2h34v-2z" fill="#c1694f"/><path d="M10 8H6v4h4V8zm10 0h-4v4h4V8zm10 0h-4v4h4V8zM10 2H6v4h4V2zm10 0h-4v4h4V2zm10 0h-4v4h4V2z" fill="#aab8c2"/><path d="M9 36a2 2 0 0 1-2-2c0-.5.2-.9.4-1.2A1 1 0 0 1 7 32a1 1 0 0 1 2 0 2 2 0 0 1 0 4m10 0a2 2 0 0 1-2-2c0-.5.2-.9.4-1.2a1 1 0 0 1-.4-.8 1 1 0 0 1 2 0 2 2 0 0 1 0 4m10 0a2 2 0 0 1-2-2c0-.5.2-.9.4-1.2a1 1 0 0 1-.4-.8 1 1 0 1 1 2 0 2 2 0 0 1 0 4" fill="#d1d3d4"/></g></svg>