<svg xmlns="http://www.w3.org/2000/svg" viewBox="0 0 45 45"><defs><clipPath id="a"><path d="M0 36h36V0H0v36z"/></clipPath></defs><g clip-path="url(#a)" transform="matrix(1.25 0 0 -1.25 0 45)"><path d="M30.4 7A1 1 0 0 0 29 5.6L15.5 19.1a1 1 0 0 0 1.4 1.4L30.4 7z" fill="#55acee"/><path d="M35.6 2.6A1.5 1.5 0 1 0 33.4.4l-5.6 5.7a1.5 1.5 0 1 0 2.1 2.1l5.7-5.6z" fill="#292f33"/><path d="M15.2 19.5l-.7-.7-12 12 .6.7 12-12zM4.6 34.3l-.7-.7L16.6 21l.7.7L4.6 34.3z" fill="#99aab5"/><path d="M10.2 34.3L1.7 26l-.7.7L9.5 35l.7-.7zm2.9-1.4L2.5 22.3l-.7.7 10.6 10.6.7-.7zm2.8-1.4L4.6 20.2l-.7.7 11.3 11.3.7-.7zm1.4-2.8l-9.9-10-.7.8 9.9 9.9.7-.7zm1.4-2.8l-8.5-8.5-.7.7 8.5 8.5.7-.7z" fill="#99aab5"/><path d="M12.3 18l-.7-.6L1 28l.7.7L12.3 18zM8.1 35l-.7-.7L18 23.7l.7.7L8.1 35z" fill="#99aab5"/><path d="M15.3 20.7c-2.7-2.7-7.5-2.4-10.7.8-3.2 3.2-3.6 8-.8 10.7 2.7 2.8 7.5 2.4 10.7-.8 3.2-3.2 3.6-8 .8-10.7M2.5 33.5c-3.5-3.4-3.1-9.4.8-13.3 3.9-4 9.8-4.3 13.3-.8s3.1 9.4-.8 13.3c-3.9 4-9.9 4.3-13.3.8" fill="#55acee"/><path d="M17.3 21.6a1 1 0 0 0 0-1.4l-1.4-1.4a1 1 0 0 0-1.4 0 1 1 0 0 0 0 1.4l1.4 1.4a1 1 0 0 0 1.4 0" fill="#269"/><path d="M18 19.5a1 1 0 1 0-1.4-1.4l-.7.7a1 1 0 1 0 1.4 1.4l.7-.7zm11.6-11c.5-.5-.2-.8-.7-1.3-.6-.6-.9-1.3-1.5-.8a1.5 1.5 0 1 0 2.2 2.2" fill="#269"/><path d="M21.8 32.8a2 2 0 0 1 0-2.8l.7-.7.7.7 1.4 1.4.7.7-.7.7a2 2 0 0 1-2.8 0" fill="#be1931"/><path d="M26 31.4l-2.8-2.8-.7.7 2.8 2.8.8-.7z" fill="#99aab5"/><path d="M23.2 28.6l2.9 2.8c1.4-.5 9-5 8.8-5.3-.7-.8-1.9-.2-1.9-.2s.8-.8.1-1.6c-.7-.7-1.5.1-1.5.1s1-.7.1-1.5c-.8-.8-1.5.1-1.5.1s.7-1 0-1.6c-.6-.6-1.4.2-1.4.2s.4-1-.4-1.7c-.3-.4-4.6 7.3-5.2 8.7" fill="#e1e8ed"/><path d="M26.4 28.2c.6.7 5.5-3.7 4.6-4.6-.9-.8-5.3 3.8-4.6 4.6m1.7-7.5c.7.5-3 5.8-3.5 5.5V26a82 82 0 0 1 2.8-4.8c.3-.4.6-.6.7-.5m.3 9.3c-.4-.5 5-4.2 5.4-3.6.1.2-.1.6-.6 1a91.6 91.6 0 0 1-4.3 2.6h-.5m-3-2.9c.4.4 4.6-4.6 4-5-.6-.6-4.5 4.5-4 5m2 2c-.4-.4 4.6-4.6 5.1-4 .5.7-4.5 4.6-5 4" fill="#ccd6dd"/></g></svg>