<svg xmlns="http://www.w3.org/2000/svg" viewBox="0 0 45 45"><defs><clipPath id="a"><path d="M0 36h36V0H0v36z"/></clipPath></defs><g clip-path="url(#a)" transform="matrix(1.25 0 0 -1.25 0 45)"><path d="M8.4 24.6a1.5 1.5 0 1 0-2.1 2.1 1.5 1.5 0 0 0 2.1-2.1M32 15.8L17.3 30.2c-.6.7-1.5.8-2.3.8H4.9C3 31 2 30 2 28.1v-10c0-1 0-1.8.8-2.4L17.3 1A3.3 3.3 0 0 1 22 1l10 10a3.4 3.4 0 0 1 0 4.8" fill="#ffd983"/><path d="M8.4 24.6a1.5 1.5 0 1 0-2.1 2.1 1.5 1.5 0 0 0 2.1-2.1m1.5 3.6a3.7 3.7 0 0 1-5.1 0 3.7 3.7 0 1 1 5.1 0" fill="#d99e82"/><path d="M8.5 25.5a1 1 0 1 0-1.4 1.4l8.5 8.5A1 1 0 1 0 17 34l-8.5-8.5z" fill="#c1694f"/></g></svg>