<svg xmlns="http://www.w3.org/2000/svg" viewBox="0 0 45 45"><defs><clipPath id="a"><path d="M0 36h36V0H0v36z"/></clipPath></defs><g clip-path="url(#a)" transform="matrix(1.25 0 0 -1.25 0 45)"><path d="M21.3 31.7c-9 0-10.5-1.5-13-4s-4-4-4-13c0-11.2-2-14-1-14s3 2 3 4-2 13 5 20 18 5 20 5 4 2 4 3-2.8-1-14-1" fill="#c1694f"/><path d="M29.5 6.2a.5.5 0 0 0-.5-.5H3.8a.5.5 0 1 0 0 1H29a.5.5 0 0 0 .5-.5m.3.3a.5.5 0 0 0-.5.5v25.2a.5.5 0 1 0 1 0V7a.5.5 0 0 0-.5-.5" fill="#d99e82"/><path d="M0 36l2.8-8.5L4.9 31l3.5 2.1L0 36z" fill="#99aab5"/><path d="M26 8.6c.4-1.9 0-3.6-.7-3.7C24.5 4.7 23.5 6 23 8c-.3 2 0 3.6.8 3.8.9.1 1.8-1.3 2.2-3.2" fill="#dd2e44"/><path d="M26.6 7.5c.3-1.9 0-3.5-.8-3.7-.9-.1-1.8 1.3-2.2 3.2-.3 1.9 0 3.5.8 3.7.9.2 1.8-1.3 2.2-3.2" fill="#f4900c"/><path d="M28 6.2c.3-2 0-3.6-.8-3.8-.9-.1-1.8 1.3-2.2 3.2-.3 1.9 0 3.5.8 3.7.8.2 1.8-1.3 2.2-3.1" fill="#a0041e"/><path d="M29.4 4.7c.3-1.9 0-3.5-.8-3.7-.8-.1-1.8 1.3-2.2 3.2-.3 1.9 0 3.5.8 3.7.9.1 1.8-1.3 2.2-3.2m-2 5.2c1.9-.4 3.6 0 3.7.8.2.8-1.2 1.8-3.1 2.2-2 .3-3.6 0-3.8-.9-.1-.8 1.3-1.7 3.2-2" fill="#dd2e44"/><path d="M28.5 9.4c1.9-.3 3.5 0 3.7.8.1.9-1.3 1.8-3.2 2.2-1.9.3-3.5 0-3.7-.8-.1-.8 1.3-1.8 3.2-2.2" fill="#f4900c"/><path d="M29.9 8c1.9-.3 3.5 0 3.7.8.1.9-1.3 1.8-3.2 2.2-1.9.4-3.5 0-3.7-.8-.2-.8 1.3-1.8 3.2-2.2" fill="#a0041e"/><path d="M31.3 6.6c1.9-.3 3.5 0 3.7.8.1.8-1.3 1.8-3.2 2.2-1.9.3-3.5 0-3.7-.8-.1-.9 1.3-1.8 3.2-2.2" fill="#dd2e44"/><path d="M30.4 7A1 1 0 0 0 29 5.6L4.1 30.5a1 1 0 0 0 1.4 1.4L30.4 7z" fill="#ccd6dd"/></g></svg>