<svg xmlns="http://www.w3.org/2000/svg" viewBox="0 0 45 45"><defs><clipPath id="a"><path d="M0 36h36V0H0v36z"/></clipPath><clipPath id="b"><path d="M17.7 33h-4.2c1-1-1-5.2-2-6.2s-6.2-2-6.2-8.3 8.2-13.3 9.3-15.4c1-1 3-1 3-1s2.1 0 3.1 1c1 2 9.3 9.3 9.3 15.4s-5.1 7.3-6.2 8.3c-1 1-3 5.2-2 6.2h-4.1z"/></clipPath><clipPath id="c"><path d="M0 36h36V0H0v36z"/></clipPath></defs><g clip-path="url(#a)" transform="matrix(1.25 0 0 -1.25 0 45)"><path d="M11.6 23.8c-1.1-.4-2.5.6-3.1 2.2-.6 1.6-.2 3.3.8 3.7 1.1.4 2.5-.6 3.1-2.2.6-1.6.3-3.3-.8-3.7m2.7 4.4c-1.2 3.2-3.9 5.1-6 4.3-2.2-.8-2.9-4-1.7-7.2s4-5.1 6-4.3c2.2.8 3 4 1.7 7.2M26.5 26c-.6-1.6-2-2.6-3-2.2-1.2.4-1.5 2-1 3.7.7 1.6 2 2.6 3.2 2.2 1-.4 1.4-2 .8-3.7m.2 6.5c-2.1.8-4.8-1.1-6-4.3-1.2-3.2-.5-6.4 1.7-7.2 2-.8 4.8 1.1 6 4.3 1.2 3.2.5 6.4-1.7 7.2" fill="#c1694f"/><path d="M16.6 4.3c-2 0-5.1-1-5.1-3 0-1.1 4-1.2 6-1.2s.2 4.2.2 4.2h-1z" fill="#272b2b"/><path d="M18.6 4.3c2 0 5-1 5-3 0-1.1-3.9-1.2-6-1.2s0 4.2 0 4.2h1z" fill="#272b2b"/><path d="M23.8 26.8c-1 1-3 5.2-2 6.2h-8.3c1-1-1-5.2-2-6.2s-6.2-2-6.2-8.3 8.2-13.3 9.3-15.4c1-1 3-1 3-1s2.1 0 3.1 1c1 2 9.3 9.3 9.3 15.4s-5.1 7.3-6.2 8.3" fill="#c1694f"/></g><g clip-path="url(#b)" transform="matrix(1.25 0 0 -1.25 0 45)"><path d="M32 14H4v10h28V14z" fill="#272b2b"/></g><g clip-path="url(#c)" transform="matrix(1.25 0 0 -1.25 0 45)"><path d="M18 33h-4.5c0-4-.8-5.1-1.8-6.2" fill="#c1694f"/><path d="M17.7 31.6c2 0 6 1 6 3 0 1-4 1.2-6.1 1.2-2.1 0 0-4.2 0-4.2z" fill="#272b2b"/><path d="M17.7 31.6c-2.1 0-6 1-6 3 0 1 3.9 1.2 6 1.2 2.2 0 .1-4.2.1-4.2h-.1z" fill="#272b2b"/><path d="M13 16h-2.5a.5.5 0 0 0-.6.5c0 .3.3.5.6.5H13v4H9v-1h2.5a.5.5 0 0 0 .5-.5.5.5 0 0 0-.5-.5H9c-.6 0-1.1.1-1.1.8V21c0 .7.6.9.9.9H13c.7 0 1-.5 1-1v-4a1 1 0 0 0-1-1m14 0h-2.5a.5.5 0 0 0-.5.5c0 .3.2.5.5.5H27v4h-4v-1h2.5a.5.5 0 0 0 .5-.5.5.5 0 0 0-.5-.5H23c-.6 0-1.1.1-1.1.8V21c0 .7.6.9.9.9H27c.7 0 1-.5 1-1v-4a1 1 0 0 0-1-1m-7 0h-2.5a.5.5 0 0 0-.5.5c0 .3.2.5.5.5H20v4h-4v-1h2.5a.5.5 0 0 0 .5-.5.5.5 0 0 0-.5-.5H16c-.6 0-1.1.1-1.1.8V21c0 .7.6.9.9.9H20c.7 0 1-.5 1-1v-4a1 1 0 0 0-1-1" fill="#c1694f"/></g></svg>