<svg xmlns="http://www.w3.org/2000/svg" viewBox="0 0 45 45"><defs><clipPath id="a"><path d="M0 36h36V0H0v36z"/></clipPath></defs><path d="M5 45h35V21.2H5V45z" fill="#ccd6dd"/><path d="M36.3 22.5H7.4v-6.3h28.8v6.3z" fill="#269"/><g clip-path="url(#a)" transform="matrix(1.25 0 0 -1.25 0 45)"><path d="M1 24V2a2 2 0 0 1 2-2h4v24H1zm28 0V0h4a2 2 0 0 1 2 2v22h-6z" fill="#aab8c2"/><path d="M22 3h-8v11h8V3z" fill="#f2f9ff"/><path d="M22 17c-.3 0-.6-.4-.7-1h-6.6c-.1.6-.4 1-.7 1-.5 0-1-1.3-1-3s.5-3 1-3 1 1.3 1 3h6c0-1.7.5-3 1-3s1 1.3 1 3-.5 3-1 3" fill="#269"/><path d="M5 17H3v2h2v-2zm6-3H9v2h2v-2zm16 0h-2v2h2v-2zm-16-4H9v2h2v-2zm16 0h-2v2h2v-2zM5 13H3v2h2v-2zm28 4h-2v2h2v-2zm0-4h-2v2h2v-2z" fill="#66757f"/><path d="M23 10H13v4h10v-4z" fill="#f2f9ff"/><path d="M18 10a2 2 0 0 1-2-2V3h4v5a2 2 0 0 1-2 2" fill="#66757f"/><path d="M24 0H12v3h12V0z" fill="#8899a6"/><path d="M1 24h6s-2 8-3 8-3-8-3-8m28 0h6s-2 8-3 8-3-8-3-8" fill="#269"/><path d="M8 22a1 1 0 0 0-1-1H1a1 1 0 0 0 0 2h6a1 1 0 0 0 1-1m28 0a1 1 0 0 0-1-1h-6a1 1 0 1 0 0 2h6a1 1 0 0 0 1-1" fill="#ccd6dd"/></g></svg>