<svg xmlns="http://www.w3.org/2000/svg" viewBox="0 0 45 45"><defs><clipPath id="a"><path d="M0 36h36V0H0v36z"/></clipPath></defs><g clip-path="url(#a)" transform="matrix(1.25 0 0 -1.25 0 45)"><path d="M30.1 19.5a7.1 7.1 0 0 0-10.6 0c-3 3-3.3 7.3 0 10.6 3.4 3.4 9.9 3.8 12.1 1.5 2.3-2.2 1.9-8.7-1.5-12M16.5 5.8C13 2.5 6.6 2 4.4 4.4 2 6.6 2.5 13 5.9 16.4c3.3 3.4 7.7 3 10.6 0 3-2.8 3.3-7.2 0-10.5" fill="#553788"/><path d="M19.5 5.9a7.1 7.1 0 0 0 0 10.6c3 3 7.3 3.3 10.6 0C33.5 13 34 6.6 31.6 4.4 29.4 2 23 2.5 19.6 5.9M5.8 19.5C2.5 23 2 29.4 4.4 31.6c2.2 2.3 8.7 1.9 12-1.5 3.4-3.3 3-7.7 0-10.6-2.8-3-7.2-3.3-10.5 0" fill="#553788"/><path d="M27 11c-4.4 0-7 3.1-7 7s2.6 7 7 7 9-4 9-7-4.6-7-9-7M9 11c-4.4 0-9 4-9 7s4.6 7 9 7 7-3.1 7-7-2.6-7-7-7" fill="#55acee"/><path d="M11 9c0 4.4 3.1 7 7 7s7-2.6 7-7-4-9-7-9-7 4.6-7 9m0 18c0 4.4 4 9 7 9s7-4.6 7-9-3.1-7-7-7-7 2.6-7 7" fill="#55acee"/><path d="M23.7 12.3a8 8 0 0 0-11.4 0 8 8 0 0 0 0 11.4 8 8 0 1 0 11.4-11.4" fill="#88c9f9"/><path d="M21.7 14.3a5.2 5.2 0 1 0-7.4 7.4 5.2 5.2 0 0 0 7.4-7.4" fill="#bbddf5"/></g></svg>