<svg xmlns="http://www.w3.org/2000/svg" viewBox="0 0 45 45"><defs><clipPath id="a"><path d="M0 36h36V0H0v36z"/></clipPath></defs><g clip-path="url(#a)" transform="matrix(1.25 0 0 -1.25 0 45)"><path d="M12.4 6.2c.7 6.7-4.4 7.5-6.4 6-1-.7-1.3-2.3-.5-1.5 1.6 1.4 2.1.4 1-.3-1.2-.8-1.4-2.2-.1-1.2 1.3 1 1.6.3.6-1-.6-.7 0-1.4 1.2.1 1 1.3 3.2 1.3 2.7-3-.3-1.7 1.4-.6 1.5.9m8 21c-.6 3.5-1.1 5.2-4.6 5.8a9 9 0 0 1-6.5-1.7s.6 3.5 2.4 4.6c.7.5 1.1-1.7 1.7-1.7.6 0 1.2 1.7 3 1.7.5 0 .5-1.7 1.1-1.7s2.2.6 2.3 0c.2-.8-.1-1.7.3-2.1.5-.4 1.6.1 2-.5.3-.6-.7-1.6-.6-2 0-.4.7-.6.5-1.4-.2-.8-.6-.8-.7-1.4 0-.6 1-1 .7-1.7-.2-.6-.6-.6-.8-1.4-.2-.8.5-.7.3-1.5s-1-1-1.2-1.7c-.3-.8.7-1 .2-1.7s-1.3-.9-1.3-1.3c0-.5.2-.9 0-1.6-.2-.7-1.1-.4-1.2-1l.2-1.5c0-.7-.7-.9-.6-1.6 0-.7.7-.1 1.1-1 .5-.8-.2-1.6.2-2 .5-.6 1.1.6 1.8.2.6-.4.6-1.3 1.3-1.4.7-.1 1 1.3 1.4 1.3.5 0 1.6-.7 2.2-.4.6.3.6 1.4 1 2 .5.4 1 0 1.5.5.4.5-.2 1.2 0 2 0 .8.8 1.2.7 1.8 0 .7-.6.7-.9 1.3s.5 1.3.2 1.9-1.3.8-1.3 1.5c0 .6.5 1.3.3 2s-1.1 1.2-1 1.7c0 .5.4 1.3.5 1.6.1.4-.7.9-.6 1.5 0 .7.6.6.8 1.3.2.6-.8.9-.3 1.6.5.8.8.3 1.2.7.4.4 0 1.3.4 1.6.4.2 1.3 0 1.7.3.4.3.4.7.9.9.4.1 1-.6 1.4-.6s1 .7 1.5.6c.5-.2 1.6-1.4 1-1.7-.7-.4-5.8-.6-5.9-3 0-2.3 2.8-12.9 2-15.5-.8-2.7-4.3-8.4-8.2-7.3-4 1-8.7 3.5-7.6 7.2 1.1 3.7 4.8 11.3 5.5 14.8" fill="#3e721d"/><path d="M21 28.1c0-4-2.4-8.1-5.8-7.6-5.4 1-5.6 2.6-6.4 1.6-3-3.8-4.7.5-5.4 1.2-.1.1-3.4 1.1-3.4 3 0 1.2 1.8 2.4 3 1.2 1.6 0 8 6.1 12.2 6.1a5.5 5.5 0 0 0 5.8-5.5" fill="#77b255"/><path d="M14.6 29a1.2 1.2 0 1 0-2.3 0 1.2 1.2 0 0 0 2.3 0" fill="#292f33"/><path d="M3 25.7c0-.4-.5-.3-1-.3s-.8-.1-.8.3a.9.9 0 0 0 1.7 0" fill="#3e721d"/><path d="M11 24.9c0-.7-.3-.6-.8-.6s-.9 0-.9.6.4 2.3 1 2.3.8-1.7.8-2.3m-2.3-.6c0-.7-.5-.6-1-.6s-.8 0-.8.6.4 2.3.9 2.3.8-1.7.8-2.3" fill="#fff"/><path d="M11 24.9a70.8 70.8 0 0 1-7.6-1.6l.8-1c1.4.3 4.2 1 7 1.4a.6.6 0 1 1-.2 1.2" fill="#3e721d"/><path d="M21 27c0-4.3-1.8-8.1-3-11.1-1.3-3.2-1-9 4-9s6.5 3.2 7 5c1.4 5-2 8-2 13 0 9 8 7 8 6s-7-1.4-3-9S36 0 22 0 8 8.9 10 12.9c1.4 2.8 4 7.1.5 9-2.3 1.3 10.4 5.2 10.4 5.2" fill="#77b255"/><path d="M11.3 28.2a1 1 0 0 0-.7 1.7 8 8 0 0 0 5.4 2 1 1 0 0 0 0-2 6 6 0 0 1-4-1.4 1 1 0 0 0-.7-.3" fill="#3e721d"/><path d="M10.7 10.7c.6 6.7-5.4 7.5-7.4 6-1.1-.7-1.4-2.3-.5-1.5 1.5 1.4 2.1.4 1-.3s-1.5-2.2-.2-1.2c1.3 1 1.7.3.7-1-.6-.7 0-1.4 1.2.1.9 1.3 4.2 1.3 3.6-3-.2-1.7 1.5-.6 1.6.9" fill="#5c913b"/></g></svg>