<svg xmlns="http://www.w3.org/2000/svg" viewBox="0 0 45 45"><defs><clipPath id="a"><path d="M0 36h36V0H0v36z"/></clipPath></defs><g clip-path="url(#a)" transform="matrix(1.25 0 0 -1.25 0 45)"><path d="M36 24c0 4.3-3.1 7-8 7a1 1 0 1 1 0-2c1.8 0 6-.5 6-5 0-2.9-1.9-4.2-4-4.7l-.6.2C26 20.4 25 19 19 19c-4.2 0-5.4 4.4-6.8 7.1-.4 2-1.4 5.9-2.2 5.9-.6 0-1.4-2-2-4-.6 1.5-1.5 3-2 3-.7 0-1.4-2.5-1.8-4.7C2.4 25 1 23.2 1 21c0-3 7-5 7-5 2.1-1.1 2.7-2.8 3.3-4.3C13.3 5.3 13.1 0 14.5 0 15.9 0 17 3.4 17 7.5v.6c3.1.1 6.7 1.1 9.8.3C28 4 28.5 0 29.5 0c1 0 1.8 3.8 2.2 7.5V8l.2 1 .5 5.6a6.4 6.4 0 0 1-.8 3.1A6.3 6.3 0 0 1 36 24" fill="#c1694f"/><path d="M8 23a1 1 0 1 0-2 0 1 1 0 0 0 2 0m-5-.4C2 22 2 20 1.5 20S0 21.2 0 22.6s4.2.8 3 0" fill="#292f33"/><path d="M3 19.5a.5.5 0 0 0-.2 1c2.1 1 6.2 0 6.3 0a.5.5 0 1 0-.2-1s-3.9 1-5.7 0a.5.5 0 0 0-.2 0" fill="#662113"/><path d="M8 17.5a.5.5 0 0 0-.3 0c0 .1-2.9 2-4.7 2a.5.5 0 0 0 0 1c2.1 0 5.2-2 5.3-2a.5.5 0 0 0-.3-1" fill="#662113"/></g></svg>