<svg xmlns="http://www.w3.org/2000/svg" viewBox="0 0 45 45"><defs><clipPath id="a"><path d="M0 36h36V0H0v36z"/></clipPath></defs><g clip-path="url(#a)" transform="matrix(1.25 0 0 -1.25 0 45)"><path d="M11.8 28.4c-.7 0-2.3-2.3-3.5-1-.5.4 1.8 1.2 1.7 2 0 .6-2.8 1.5-1.9 2 1 .6 2.4-.8 3.5-.8a9.9 9.9 0 0 1 4.3.9 1 1 0 0 0 1.4-.5 1.1 1.1 0 0 0-.5-1.5s-2.2-1.1-5-1.1" fill="#dd2e44"/><path d="M27.8 0a8 8 0 0 0-8.2 8.3c0 1.4-.9 1.7-1.6 1.7-.8 0-1.6-.3-1.6-1.7C16.4 3 12.2 0 8.2 0S0 2.8 0 8.3c0 13.3 14.2 15.1 14.2 13.3S6.5 22.7 6.5 9.4c0-2.2 1-2.8 1.7-2.8s1.6.3 1.6 1.7a8 8 0 0 0 8.2 8.3 8 8 0 0 0 8.2-8.3c0-1.4.9-1.7 1.6-1.7s1.6.3 1.6 1.7V25c0 3.9-3.4 4.4-5.4 4.4 0 0-3.3-1-6.5-1S13 30.7 13 32.6 17.4 36 24 36c6.5 0 12-4.5 12-11V8.2A8 8 0 0 0 27.8 0" fill="#77b255"/><path d="M20 33a1 1 0 1 0-2 0 1 1 0 0 0 2 0" fill="#292f33"/></g></svg>