<svg xmlns="http://www.w3.org/2000/svg" viewBox="0 0 45 45"><defs><clipPath id="a"><path d="M0 36h36V0H0v36z"/></clipPath></defs><g clip-path="url(#a)" transform="matrix(1.25 0 0 -1.25 0 45)"><path d="M34 21.6a4.1 4.1 0 0 1-4 3.4H11c-.2 0-.5-.1-.8-.4a4 4 0 0 1-1.6.4c-1 0-4.8-.4-5.6-2L.7 18.7c-.7-2 .3-4.8 2.3-4.8h2.7c1.6-.3 3.6-1.5 5.4-2.8C13.3 6.7 14.1 0 15 0c1 0 2.5 4.4 3 7h9c.2-2.5.8-7 2-7 1 0 3.2 4.9 4.3 12.2A40.9 40.9 0 0 1 34 18V6a1 1 0 1 1 2 0v12c0 1.8-.8 3-2 3.6" fill="#292f33"/><path d="M7 20a1 1 0 1 0-2 0 1 1 0 0 0 2 0" fill="#fff"/><path d="M10 21c3 0 6.7 1.6 6.7 5.6 0 2-1.5 4.1-4.5 4.2-4 .1-5.8-2.8-5.2-3.2.5-.3 2 1.9 4.5 1.4 1.9-.4 2-1.6 1.7-2.3-.5-1-2.2-1.7-4.2-1.7s-1-4 1-4" fill="#99aab5"/></g></svg>