<svg xmlns="http://www.w3.org/2000/svg" viewBox="0 0 45 45"><defs><clipPath id="a"><path d="M0 36h36V0H0v36z"/></clipPath></defs><g clip-path="url(#a)" transform="matrix(1.25 0 0 -1.25 0 45)"><path d="M25 1c-2.8 0-2 6-2 6 0 1.1 2.6 2 3.8 2s3.2.1 3.2-1c0 0-2.3-7-5-7" fill="#292f33"/><path d="M28 0c-2.8 0-2 6-2 6 0 1.1 2.6 2 3.8 2s3.2.1 3.2-1c0 0-2.3-7-5-7" fill="#66757f"/><path d="M14 1c-2.8 0-4 6-4 6 0 1.1 2.6 2 3.8 2s3.2.1 3.2-1c0 0-.3-7-3-7" fill="#292f33"/><path d="M17 0c-2.8 0-4 6-4 6 0 1.1 2.6 2 3.8 2s3.2.1 3.2-1c0 0-.3-7-3-7" fill="#66757f"/><path d="M35.8 14.6c0-7.8-4.5-11.4-14.6-11.4S7.8 6.8 7.8 14.6c0 7.8 3.4 11.4 13.4 11.4s14.6-3.6 14.6-11.4" fill="#e1e8ed"/><path d="M17 18.3C17 9 12.3 7 8 7s-7 6.6-7 11.3C1 23 3.7 24 8 24s9-1 9-5.7" fill="#99aab5"/><path d="M6 15.5a1.5 1.5 0 1 0-3 0 1.5 1.5 0 0 0 3 0" fill="#292f33"/><path d="M15.8 23.3c-1.8-3.3-2.2-2.7-7.2-4.7-3-1.2-8.6-.9-8.6 3.9 0 2 3.7 2.5 7 2.5s10.4 1.3 8.8-1.8" fill="#e1e8ed"/><path d="M16 22.3c3.4-2.4 5.4-6.1 3.7-11-1.3-4-6.8-3.2-9.6-1.2s-2.6 4.8-1.7 6.3c.9 1.5 4.1 1.2 6-.1 1-.7.3-1.6-.7-1-2.3 1-3-1.5-1.3-3 1.3-1 3.3-1 3.7 1 .7 3.7-3.5 6.3-7.5 5.3 2.4 1.4 4.6 5.8 7.4 3.7" fill="#ffcc4d"/></g></svg>