<svg xmlns="http://www.w3.org/2000/svg" viewBox="0 0 45 45"><defs><clipPath id="a"><path d="M0 36h36V0H0v36z"/></clipPath></defs><g clip-path="url(#a)" transform="matrix(1.25 0 0 -1.25 0 45)"><path d="M34 21.6a4.1 4.1 0 0 1-4 3.4H9c-1 0-5.3 0-6-2L.7 16.7c-.7-2 .3-4.8 2.3-4.8h4C10 8 13 0 14 0c.8 0 1.6 3.4 1.9 6H27c.2-2.5.9-6 1.9-6 1 0 3 4.3 4.1 11 .5 1.8.8 4.3.9 7.6a4 4 0 0 0 0-.6V9a1 1 0 1 1 2 0v9c0 1.8-.8 3-2 3.6" fill="#c1694f"/><path d="M10 24c-2-2-4.8 1-7 1s-3 .4-3 1c0 .5 1.8 1 4 1s8-1 6-3" fill="#ccd6dd"/><path d="M7 20a1 1 0 1 0-2 0 1 1 0 0 0 2 0" fill="#292f33"/></g></svg>