<svg xmlns="http://www.w3.org/2000/svg" viewBox="0 0 45 45"><defs><clipPath id="a"><path d="M0 36h36V0H0v36z"/></clipPath></defs><g clip-path="url(#a)" transform="matrix(1.25 0 0 -1.25 0 45)"><path d="M19 4c0-1-1.7-3-3.3-3S14 2.3 14 4s1.3 3 3 3c1.5 0 2-1.3 2-3m11 0c0-1-1.7-3-3.3-3S25 2.3 25 4s1.3 3 3 3c1.5 0 2-1.3 2-3" fill="#3e721d"/><path d="M36 11c0 6-3.2 9.2-6 12-1 1-1.4-.3-1-1 .5-.9 3-8-2-8h-2c-5 0-6.2 1.2-9 4-4.5 4.5-7 0-9 0-6 0-7 1.8-7-2 0-3 3-4 6-4s3-1 5-4a11.8 11.8 0 0 1 5-4.2c.3-1 2.8-3.8 4.3-3.8C22 0 22 1.3 22 3h6c0-1 1.7-3 3.3-3S33 1.3 33 3l-.1.9c1.7 1 3.1 2.9 3.1 7.1" fill="#5c913b"/><path d="M10 17.9a1.5 1.5 0 1 1 3 0c0 .8-.7 0-1.5 0s-1.5.8-1.5 0" fill="#292f33"/><path d="M26 12c0-.6.7-1 1.5-1s1.5.5 1.5 1-.7 1-1.5 1-1.5-.5-1.5-1m-4 0c0-.6.7-1 1.5-1s1.5.5 1.5 1-.7 1-1.5 1-1.5-.5-1.5-1m-4 0c0-.6.7-1 1.5-1s1.5.5 1.5 1-.7 1-1.5 1-1.5-.5-1.5-1m2-2c0-.6.7-1 1.5-1s1.5.5 1.5 1-.7 1-1.5 1-1.5-.5-1.5-1m4 0c0-.6.7-1 1.5-1s1.5.5 1.5 1-.7 1-1.5 1-1.5-.5-1.5-1" fill="#77b255"/><path d="M6 14c-.4 0-1 1-1 1h2s-.6-1-1-1m-2-.5c-.4 0-1 1.5-1 1.5h2s-.6-1.5-1-1.5M2 13c-.4 0-1 2-1 2h2s-.6-2-1-2" fill="#fff"/></g></svg>