<svg xmlns="http://www.w3.org/2000/svg" viewBox="0 0 45 45"><defs><clipPath id="a"><path d="M0 36h36V0H0v36z"/></clipPath></defs><g clip-path="url(#a)" transform="matrix(1.25 0 0 -1.25 0 45)"><path d="M30 0H6a1 1 0 1 0 0 2h24c2.5 0 4 1.4 4 3.8C34 7.3 32.4 9 30 9h-7a1 1 0 1 0 0 2h7c3.6 0 6-2.7 6-5.3C36 2.3 33.6 0 30 0" fill="#ea596e"/><path d="M12 11.5c0 3 3.6 6 1 7.5-3.4 2-6.9-4.3-9-5-3-1-4-3.4-4-5 0-1.8 2-1.7 5-2 1.9-.2 5.6-.1 9-1 3-.8-2 2.5-2 5.5" fill="#66757f"/><path d="M33 12.5C33 21 29.2 25 24 25c-10 0-14-7-14-14 0-5.3 6.8-6 12-6s11 2.3 11 7.5" fill="#66757f"/><path d="M9.8 18.2c0 2.6-2.4 3.2-1.2 5 .7 1 2.6.6 3 .6 0-1.4 1.7-2 2.1-1l1-1.4c.9-2-.5-4.5-2-5.2-1.5-.7-3-.2-3 2" fill="#66757f"/><path d="M13.6 19.9c.1-1.3-.4-2.7-1.4-3-.9-.2-1.2.8-1.6 2-.3 1.2-1 2.7 0 3 1 .2 3-.4 3-2" fill="#e6aaaa"/><path d="M9 13a1 1 0 1 0-2 0 1 1 0 0 0 2 0" fill="#292f33"/><path d="M10.6 17.7c-1.3 1.7-2.8 2-4.5 2-.7 0-.7-.5-.1-.6 1 0 2-.4 2-.6.2-.2-.6 0-1.3 0-1.2 0-1.1-.3-.2-.5 1.9-.5 1.8-1.2 2.9-1.2 1 0 1.2.9 1.2.9m15.8 7c-1.6.6-3.9 2.2-6.2 2-.7-.1-.4-.6 0-.7.7-.1 1.5-.7 1.8-.9.3-.2-2.3.6-4-.1-1-.3-.6-.6 0-.5.8.1 1.5-.2 2.6-.8s7 .6 5.8 1" fill="#66757f"/></g></svg>