<svg xmlns="http://www.w3.org/2000/svg" viewBox="0 0 45 45"><defs><clipPath id="a"><path d="M0 36h36V0H0v36z"/></clipPath></defs><g clip-path="url(#a)" transform="matrix(1.25 0 0 -1.25 0 45)"><path d="M34 21c0 2-2.1 4.7-4 4-8-3-19 2-19 2-2.2 0-6.9-9.3-5-10l.8-.3c-2.1-.8-2.5-2.5-.8-2.7 9-1 6.9-14 8-14 1.3 0 2.7 2.6 3.4 5h9.8c.3-2.4.9-5 1.8-5s2.6 3.5 3.8 9.1c.7 2.7 1.2 6.6 1.2 11.9" fill="#ccd6dd"/><path d="M10 14H3C1 14-.6 17.3.7 18.6 2 20 6 21 5 25c-.5 2.2 4 3 6 2 4.8-2.4 5-10-2-10 0 0 3-3 1-3m20 11a18.6 18.6 0 0 0-8.2-.8A8.3 8.3 0 0 1 20 19c0-4.4 3.4-8 7.5-8 2.6 0 4.9 1.4 6.2 3.5.2 1.9.3 4 .3 6.5 0 2-2.1 4.7-4 4m-9-13.5a3.5 3.5 0 1 0-7 0 3.5 3.5 0 0 0 7 0M32 8a2 2 0 1 0-4 0 2 2 0 0 0 4 0" fill="#292f33"/><path d="M11 27c0-.6-.7-1-1.5-1S5 28.4 5 29s2.2.3 3 0c2.5-1 3-1.4 3-2m-2-4a1 1 0 1 0-2 0 1 1 0 0 0 2 0" fill="#ccd6dd"/><path d="M35 12a1 1 0 0 0-1 1v5c0 1.4-.6 2-2 2a1 1 0 1 0 0 2c2.5 0 4-1.5 4-4v-5a1 1 0 0 0-1-1" fill="#292f33"/></g></svg>