<svg xmlns="http://www.w3.org/2000/svg" viewBox="0 0 45 45"><defs><clipPath id="a"><path d="M0 36h36V0H0v36z"/></clipPath></defs><g clip-path="url(#a)" transform="matrix(1.25 0 0 -1.25 0 45)"><path d="M9 20.4c0 4 2 8 0 10s-3-2-2-2c1.4 0 2-2 1-5s1-4 1-3m-3.9 0c0 4 2 8 0 10s-3-2-2-2c1.4 0 2-2 1-5s1-4 1-3" fill="#9266cc"/><path d="M36 1c0-1-1-1-2-1H11C6 0 3.7 3.3 3 6c-1 4 2 11 0 12s-3 1-3 3 4.5 5.3 7 4c4-2 2.8-6.9 2-10-.9-3.5 1.1-3.5 5-5l14-5c3-1 8-3 8-4" fill="#aa8dd8"/><path d="M11 11c2.8-1 3.8-9 13.4-9 6.4 0 8.7 5.5 8.7 11 0 5.6-5.2 10-11.6 10C15.1 23 10 11.5 11 11" fill="#ffcc4d"/><path d="M25 2c1.6 0 3.3.5 4.8 1.5a9.8 9.8 0 0 1 4.4 6A12 12 0 0 1 25.8 24C18.4 26 11 21.2 9.1 13.6a2 2 0 0 1 1.4-2.5 2 2 0 0 1 2.3 1.5 10 10 0 0 0 12 7.5 8 8 0 0 0 5.6-9.6A5.9 5.9 0 0 0 27.8 7a5.5 5.5 0 0 0-4.3-.7 4.2 4.2 0 0 0-2.5 2 4.5 4.5 0 0 0-.5 3.3 3 3 0 0 0 1.3 1.9c.7.4 1.6.7 2.3.3 1.3-.6 1.3-2.6.3-3.6-.8-.8 1.6-1.1 2.9 0a3.7 3.7 0 0 1 1 4.2 5 5 0 0 1-3.3 3.3 6.5 6.5 0 0 1-5.1-.8 7 7 0 0 1-3.1-4.3 8.6 8.6 0 0 1 .9-6.3 8 8 0 0 1 4.9-3.8 9.3 9.3 0 0 1 2.3-.3" fill="#ffac33"/></g></svg>