<svg xmlns="http://www.w3.org/2000/svg" viewBox="0 0 45 45"><defs><clipPath id="a"><path d="M0 36h36V0H0v36z"/></clipPath></defs><g clip-path="url(#a)" transform="matrix(1.25 0 0 -1.25 0 45)"><path d="M9 25c0 4.1-2 11-1 11s7-4 5-11c-1.1-4-.9-4-2-4s-2-.1-2 4" fill="#99aab5"/><path d="M9.6 24.3c0 3.4-1.3 9-.7 9s4.5-3.2 3.2-9c-.7-3.3-.5-3.3-1.3-3.3-.7 0-1.3-.1-1.3 3.3" fill="#f4abba"/><path d="M4.8 23.6C3.8 27.6 0 33.7 1 34c1 .3 7.8-2 7.7-9.3-.1-4.2.1-4.2-1-4.4-1-.3-1.9-.7-3 3.3" fill="#99aab5"/><path d="M5.5 23c-.9 3.4-3.6 8.5-3 8.7.7.1 5.3-2 5.5-8 .1-3.3.3-3.3-.4-3.5-.7-.2-1.2-.4-2.1 2.9" fill="#f4abba"/><path d="M36 7.5a3.5 3.5 0 1 0-7 0 3.5 3.5 0 0 0 7 0" fill="#ccd6dd"/><path d="M30.7 4.3C32.2 5.7 33 7.8 33 11c0 7.2-6.8 11-14 11-2 0-3.8-.2-5.3-.5-1.1 1-2.9 1.5-5.3 1.5C4.1 23 0 19 0 14.7 0 10.5 3.9 10 8 10c3-5 1-10 3-10 1.6 0 2 2.2 2 4.4a14.9 14.9 0 0 1 3.5-1.6c-.9-.5-1.5-1-1.5-1.3C15 .1 17 0 20 0c5.5 0 13 0 11 4a.7.7 0 0 1-.3.3" fill="#99aab5"/><path d="M7 18a1 1 0 1 0-2 0 1 1 0 0 0 2 0" fill="#292f33"/><path d="M2 15c0-1.1-.5-2-1-2s-1 .9-1 2 .5 1 1 1 1 .1 1-1" fill="#f4abba"/></g></svg>