<svg xmlns="http://www.w3.org/2000/svg" viewBox="0 0 45 45"><defs><clipPath id="a"><path d="M0 36h36V0H0v36z"/></clipPath></defs><g clip-path="url(#a)" transform="matrix(1.25 0 0 -1.25 0 45)"><path d="M36 29c-2-3-2 1-5-2-3 2-3-3-6 0a7.5 7.5 0 0 1 6.1-5c-.3-1.7.2-3.9-2.1-6-2-1.9-3-.3-8 3-3 2-5 4-10 3-5.9-1.2-11-6-11-8S3 0 21 0c2 0 5.2.7 8 3 6 5 5.9 15.3 4.6 19.5 1.8 1 2.4 4.1 2.4 6.5" fill="#3b88c3"/><path d="M30.2 4.2l.4.5c2 2.4 3 5.4 3.4 8.3-2-5-3-10-14-10S5 16 0 14C0 12 3 0 21 0c2 0 5.2.7 8 3a11.8 11.8 0 0 1 1.2 1.2" fill="#55acee"/><path d="M8 14.5a1.5 1.5 0 1 0-3 0 1.5 1.5 0 0 0 3 0" fill="#292f33"/></g></svg>