<svg xmlns="http://www.w3.org/2000/svg" viewBox="0 0 45 45"><defs><clipPath id="a"><path d="M0 36h36V0H0v36z"/></clipPath></defs><g clip-path="url(#a)" transform="matrix(1.25 0 0 -1.25 0 45)"><path d="M32.9 19.5a8.4 8.4 0 0 1-.9.5c-2 1-5 0-9 0-2 0-4.9 3-10 3-.8 0-2.3-.6-4.3-.9 0 1-.7 1.9-1.4 1.9S6 23.1 6 22v-.1c-2.8-.8-6-4.5-6-6.3 0-2 2-3.6 2-3.6s1 0 3 2c1.6 1.6 5 1 5 1l1-12s-1-1-2-1-1-2-1-2h6l1 9h3c2 0 7 1 7 1 2-3 4-4 4-4V3l-2-1c-2-1-1-2-1-2h6s1 8 2 13V8a1 1 0 1 1 2 0v7c0 2.7-1.4 4-3.1 4.5" fill="#ffcc4d"/><path d="M5 19a1 1 0 1 0-2 0 1 1 0 0 0 2 0m-5-3s0-2 1-2c0 2 1 2 1 2s-1 1-2 0" fill="#292f33"/><path d="M12 19.5a1.5 1.5 0 1 0-3 0 1.5 1.5 0 0 0 3 0" fill="#ffac33"/><path d="M10.5 20.5a1 1 0 1 1 0-2 1 1 0 0 1 0 2m0-3a2 2 0 1 0 0 4 2 2 0 0 0 0-4" fill="#f4900c"/><path d="M19 19.5a1.5 1.5 0 1 0-3 0 1.5 1.5 0 0 0 3 0" fill="#ffac33"/><path d="M17.5 20.5a1 1 0 0 1-1-1 1 1 0 1 1 1 1m0-3a2 2 0 1 0 0 4 2 2 0 0 0 0-4" fill="#f4900c"/><path d="M16 14.5a1.5 1.5 0 1 0-3 0 1.5 1.5 0 0 0 3 0" fill="#ffac33"/><path d="M14.5 15.5a1 1 0 0 1 0-2 1 1 0 0 1 0 2m0-3a2 2 0 1 0 0 4 2 2 0 0 0 0-4" fill="#f4900c"/><path d="M23 12.5a1.5 1.5 0 1 0-3 0 1.5 1.5 0 0 0 3 0" fill="#ffac33"/><path d="M21.5 13.5a1 1 0 1 1 0-2 1 1 0 0 1 0 2m0-3a2 2 0 1 0 0 4 2 2 0 0 0 0-4" fill="#f4900c"/><path d="M26 17.5a1.5 1.5 0 1 0-3 0 1.5 1.5 0 0 0 3 0" fill="#ffac33"/><path d="M24.5 18.5a1 1 0 0 1 0-2 1 1 0 0 1 0 2m0-3a2 2 0 1 0 0 4 2 2 0 0 0 0-4" fill="#f4900c"/><path d="M30 12.5a1.5 1.5 0 1 0-3 0 1.5 1.5 0 0 0 3 0" fill="#ffac33"/><path d="M28.5 13.5a1 1 0 1 1 0-2 1 1 0 0 1 0 2m0-3a2 2 0 1 0 0 4 2 2 0 0 0 0-4" fill="#f4900c"/><path d="M33 17.5a1.5 1.5 0 1 0-3 0 1.5 1.5 0 0 0 3 0" fill="#ffac33"/><path d="M31.5 18.5a1 1 0 0 1 0-2 1 1 0 0 1 0 2m0-3a2 2 0 1 0 0 4 2 2 0 0 0 0-4" fill="#f4900c"/></g></svg>