<svg xmlns="http://www.w3.org/2000/svg" viewBox="0 0 45 45"><defs><clipPath id="a"><path d="M0 36h36V0H0v36z"/></clipPath><clipPath id="b"><path d="M7 22c-3 0-7-4.4-7-6.4S2 12 2 12s2.2 1 5 1h3l1-10s-1-1-2-1-1-2-1-2h6l1 8h3c2 0 6 1 6 1 2-3 4-4 4-4V3l-2-1c-2-1-1-2-1-2h6s1 8 2 13 0 6-2 7-5 0-9 0c-2 0-3.9 3-9 3-1 0-3-1-6-1"/></clipPath></defs><g clip-path="url(#a)" transform="matrix(1.25 0 0 -1.25 0 45)"><path d="M32.3 19.1a6 6 0 0 1-1.3.9c-2 1-5 0-9 0-2 0-3.9 3-9 3-.8 0-2.3-.6-4.3-.9 0 1-.7 1.9-1.4 1.9S6 23.1 6 22v-.1c-2.8-.8-6-4.5-6-6.3 0-2 2-3.6 2-3.6s2.2 1 5 1h3l1-10s-1-1-2-1-1-2-1-2h6l1 8h3c2 0 6 1 6 1 2-3 4-4 4-4V3l-2-1c-2-1-1-2-1-2h6a231.5 231.5 0 0 0 2.4 15.9A3.2 3.2 0 0 0 34 14c0-3 0-5.7-1.8-8.4a1 1 0 1 1 1.6-1.1C36 7.7 36 10.9 36 14c0 2.3-1.4 4.1-3.7 5.2" fill="#ffac33"/><path d="M6 19a1 1 0 1 0-2 0 1 1 0 0 0 2 0m-6-3s0-2 1-2c0 2 1 2 1 2s-1 1-2 0" fill="#292f33"/></g><g clip-path="url(#b)" transform="matrix(1.25 0 0 -1.25 0 45)"><path d="M16 23s2-6 0-12c3 4 3 12 3 12s-2 1-3 0m3-1s2-4 1-9c2 3 2 9 2 9s-2 1-3 0m3 1s2-4 1-9c2 3 2 9 2 9s-2 1-3 0m3 1s2-4 1-9c2 3 2 9 2 9s-2 1-3 0m3-2.4s2-4 1-9c2 3 2 9 2 9s-2 1-3 0M12 24s2-4 1-9c2 3 2 9 2 9s-2 1-3 0" fill="#292f33"/></g></svg>