<svg xmlns="http://www.w3.org/2000/svg" viewBox="0 0 45 45"><defs><clipPath id="a"><path d="M0 36h36V0H0v36z"/></clipPath></defs><g clip-path="url(#a)" transform="matrix(1.25 0 0 -1.25 0 45)"><path d="M29 20.1s6 0 4 6c-1 3 1 1 2-1s2-8-5-7-1 2-1 2" fill="#662113"/><path d="M33 16.2v.8c0 .7 0 1-.2 1.1-.9 3-5.5 3-10.8 2.9-3 0-5 4.1-5 5 0 5-4.9 6.2-7.5 3C7 26 2 29 2 26c0-5 3.4-8 7.5-8 .7 0 1.7.1 3 .4A16 16 0 0 0 14 14v-.3C14.6 9 16.9 0 18 0c1 0 1.7 2.5 1.9 5.4A11 11 0 0 1 23 5a7.6 7.6 0 0 1 3 .7c.3-3 .9-5.7 2-5.7 1.3 0 4.5 11.5 5 16.1" fill="#d99e82"/><path d="M4 25.5c0-.8-1.2-1.5-2-1.5S.5 25.2.5 26s.7 1 1.5 1c2 0 2-.7 2-1.5M18 24c0-3-1.3-3.5-3-3.5s-3 .5-3 3.5.3 7 2 7 4-4 4-7" fill="#662113"/><path d="M11 27a1 1 0 1 0-2 0 1 1 0 0 0 2 0" fill="#292f33"/><path d="M31 16.5c0-1.4-1.3-2.5-3-2.5s-3 1.1-3 2.5 1.3 2.5 3 2.5 3-1.1 3-2.5m-7 1a1.5 1.5 0 1 0-3 0 1.5 1.5 0 0 0 3 0m2-5a1.5 1.5 0 1 0-3 0 1.5 1.5 0 0 0 3 0" fill="#c1694f"/></g></svg>