<svg xmlns="http://www.w3.org/2000/svg" viewBox="0 0 45 45"><defs><clipPath id="a"><path d="M0 36h36V0H0v36z"/></clipPath></defs><g clip-path="url(#a)" transform="matrix(1.25 0 0 -1.25 0 45)" fill="#292f33"><path d="M7.5 11.5a1 1 0 0 0-.7 1.7l16 16a1 1 0 1 0 1.4-1.4l-16-16a1 1 0 0 0-.7-.3m8.3 11.7a1 1 0 0 0-.8 1.6c.1.2 2.6 3.4 1 7.6a1 1 0 0 0 1.8.7 10 10 0 0 0-1.2-9.5 1 1 0 0 0-.8-.4m3.9-3.9a1 1 0 0 0-.8 1.7c.1.1 3.4 4.2 9.3 2.7a1 1 0 1 0-.5-2 7.2 7.2 0 0 1-7.2-2 1 1 0 0 0-.8-.4M6.4 17.5a10 10 0 0 0-3.5.7 1 1 0 0 0 .7 1.8 8 8 0 0 1 7.6 1 1 1 0 0 0 1.4-.1 1 1 0 0 0-.2-1.4 10 10 0 0 0-6-2m1.6 8A10 10 0 0 0 .5 29 1 1 0 0 0 2 30.2a8 8 0 0 1 7.2-2.6 1 1 0 1 0 .3-2 8.3 8.3 0 0 0-1.5 0"/><path d="M9.3 25.7a1 1 0 0 0-1 1.2c0 .1.8 4.1-2.5 7.1A1 1 0 0 0 7 35.5a10.1 10.1 0 0 0 3.2-9 1 1 0 0 0-1-.8m4-18.7a1 1 0 0 0-1 .8A9.1 9.1 0 0 0 15 17a1 1 0 0 0 1.3-1.6 7.2 7.2 0 0 1-2-7.2 1 1 0 0 0-1-1.3"/><path d="M29.8 16.8c-3 3-6 3.6-8.9 2.1a9.2 9.2 0 0 1-2.5 5.4c-1.5 1.5-3 1.6-4.4 1 1 2.5.6 5.4-.8 6.9-1.9 1.8-4.6.4-7.2-2.2s-4-5.3-2.2-7.2c1.5-1.4 4.4-1.9 6.9-.8-.6-1.4-.4-3 1-4.4a9.2 9.2 0 0 1 5.4-2.5c-1.5-2.9-.9-6 2-9C23 2.5 31.5.7 33.5 2.7s.2 10.5-3.6 14.2"/></g></svg>