<svg xmlns="http://www.w3.org/2000/svg" viewBox="0 0 45 45"><defs><clipPath id="a"><path d="M0 36h36V0H0v36z"/></clipPath></defs><g clip-path="url(#a)" transform="matrix(1.25 0 0 -1.25 0 45)"><path d="M12 32.4c4.5.3 7.8-1.6 8-6.8.3-4.2-5.1-6.8-8-6.9-2.4 0-1.3 1.9.6 2.4 1.6.4 4.2 2.4 3.6 4.4-.6 2.3-4.3 2.7-6.3-.3-.8-1.1-3.6-.9-4.1.5-1 2.3 1.2 6.5 6.2 6.7" fill="#ffac33"/><path d="M35.8 14.6c0 7.8-4.5 11.4-14.6 11.4l-3-.1c-1.3 2.4-4.8 2.8-8.2 2.8-4.3 0-10-6.1-10-10.8C0 13.3 3.6 13 7.8 13 8 9.8 9 7.3 11.1 5.7 11.3 4.6 12.6 0 15 0c1.4 0 2.1 1.7 2.5 3.4a31 31 0 0 1 3.7-.2c1.8 0 3.3.1 4.7.3C26 2 26.5 0 28 0c2.3 0 4.3 5 4.8 6.5 2 1.9 3 4.6 3 8.1" fill="#e1e8ed"/><path d="M6 20.2a1.5 1.5 0 1 0-3 0 1.5 1.5 0 0 0 3 0" fill="#292f33"/><path d="M17.6 31.7c4.3-1.5 5.7-4.2 4-9.1-1.4-4-7.4-4.4-10-3.4-2.4.8-.6 2.2 1.4 2 1.6-.3 4.7.6 5 2.7.3 2.4-3 4.1-6 2.1-1.2-.8-5.8-.4-5.5 1 .6 3.2 6.3 6.3 11 4.7" fill="#ffcc4d"/></g></svg>