<svg xmlns="http://www.w3.org/2000/svg" viewBox="0 0 45 45"><defs><clipPath id="a"><path d="M0 36h36V0H0v36z"/></clipPath></defs><g clip-path="url(#a)" transform="matrix(1.25 0 0 -1.25 0 45)"><path d="M24.9 30a6 6 0 0 1 2.1-8.2c2.9-1.7 4.3-2.7 6 .2 1.7 2.9 2.5 12.2 1.6 12.8-.8.5-8-1.9-9.7-4.7" fill="#c1694f"/><path d="M24.6 26.6c-1.7-2.8-1.2-6.3 1.2-7.6 2.3-1.4 4.5-.2 6.2 2.7 1.7 2.8 2.1 9.8 1.4 10.2-.7.4-7.1-2.4-8.8-5.3" fill="#662113"/><path d="M11.1 30A6 6 0 0 0 9 21.9c-2.9-1.7-4.3-2.7-6 .2C1.3 24.9.5 34.2 1.4 34.8c.8.5 8-1.9 9.7-4.7" fill="#c1694f"/><path d="M11.4 26.6c1.7-2.8 1.1-6.3-1.2-7.6s-4.5-.2-6.2 2.6C2.3 24.5 1.9 31.5 2.6 32c.7.4 7.1-2.4 8.8-5.3" fill="#662113"/><path d="M35 14.5C35 4.5 34 0 18 0S1 4.5 1 14.5 8 34 18 34s17-9.5 17-19.5" fill="#c1694f"/><path d="M7.7 7S4 10 3 18.5c-.2 2 1.7 2 2 0C6 12 11.4 8 14 6c2.3-1.7-6.3 1-6.3 1m20.6 0S32 10 33 18.5c.2 2-1.7 2-2 0C30 12 24.6 8 22 6c-2.3-1.7 6.3 1 6.3 1" fill="#e1e8ed"/><path d="M29 7c0-1.1-3.8-3-11-3S7 5.9 7 7s3.8-1 11-1 11 2.1 11 1"/><path d="M28 12.9c0-4.5-3.1-9.4-10-9.4S8 8.4 8 12.9s3.1 5.6 10 5.6 10-1.1 10-5.6" fill="#662113"/><path d="M15 11.4c0-1.9-.3-2.4-1.5-2.4s-1.5.5-1.5 2.4.3 2.4 1.5 2.4 1.5-.5 1.5-2.4m9 0c0-1.9-.3-2.4-1.5-2.4s-1.5.5-1.5 2.4.3 2.4 1.5 2.4 1.5-.5 1.5-2.4" fill="#c1694f"/><path d="M13 21a2 2 0 1 0-4 0 2 2 0 0 0 4 0m14 0a2 2 0 1 0-4 0 2 2 0 0 0 4 0" fill="#292f33"/></g></svg>