<svg xmlns="http://www.w3.org/2000/svg" viewBox="0 0 45 45"><defs><clipPath id="a"><path d="M0 36h36V0H0v36z"/></clipPath></defs><g clip-path="url(#a)" transform="matrix(1.25 0 0 -1.25 0 45)"><path d="M7.4 32c1 1 .3 4-1.4 4s-1.6-2-.6-2 1-2 1-3 1 1 1 1m-4.2-1.7c1 1 .3 4-1.4 4s-1.6-2-.6-2 1-2 1-3 1 1 1 1" fill="#aa8dd8"/><path d="M29.6 3.1c.2-.8 1.2-2.2 2-2 .8.2 1.1 2 1 2.7a1.5 1.5 0 0 1-3-.7m-5.4-.6c0-.8.6-2.5 1.5-2.5.8 0 1.5 1.7 1.5 2.5a1.5 1.5 0 0 1-3 0m-5.3 2.4c-.3-.7-.4-2.5.4-2.9.8-.3 2 1 2.4 1.8a1.5 1.5 0 0 1-.8 2 1.5 1.5 0 0 1-2-.9m-5 11c-.8 0-2.3-1-2.2-1.9.2-.8 2-1.1 2.8-1a1.5 1.5 0 0 1 1.1 1.8A1.5 1.5 0 0 1 14 16m-2 5c-.9-.2-2.4-1.2-2.2-2 .2-.8 2-1.1 2.7-1a1.5 1.5 0 0 1 1.2 1.8 1.5 1.5 0 0 1-1.8 1.2" fill="#744eaa"/><path d="M27.2 2c2.9 0 5 .9 5.3 1a4.5 4.5 0 0 1 2.3 6 4.5 4.5 0 0 1-5.9 2.3 4.7 4.7 0 0 0-3.3 0c-1.9 1-3 3.4-3.7 5.3 0 .4-.3 1.2-.6 2.3a28 28 0 0 1-4 9.8c-3.7 5-9.6 5.3-12.5 4.7a4.5 4.5 0 0 1 1.8-8.8c.1 0 2.2.3 3.4-1.2a61.6 61.6 0 0 0 2.6-7l.8-2.7c1.8-5.3 4.7-8.9 8.6-10.6A12.9 12.9 0 0 1 27.2 2" fill="#9266cc"/><path d="M5.7 31a1 1 0 1 1 2 0 1 1 0 0 1-2 0" fill="#fff"/><path d="M31 3a1 1 0 0 0-1 1.3 5.2 5.2 0 0 1-.8 4.6 1 1 0 0 0 1.5 1.3c0-.1 2.2-2.7 1.2-6.4a1 1 0 0 0-1-.8m-7.2.6a1 1 0 0 0-.7 1.7 7 7 0 0 1 1.5 4.2 1 1 0 0 0 1 1 1 1 0 0 0 1-1s0-3.4-2-5.6a1 1 0 0 0-.8-.3m-8.5 8.7a1 1 0 0 0-.2 2c3.1.5 4.8 2.4 4.8 2.4a1 1 0 1 0 1.5-1.3c0-.2-2.1-2.5-6-3a1 1 0 0 0-.1-.1m3-4.9a1 1 0 0 0-.4 2c2.7.8 3.9 2.8 4 2.8a1 1 0 1 0 1.6-1 9.3 9.3 0 0 0-5-3.7 1 1 0 0 0-.3 0M13.5 18a1 1 0 0 0-.1 2 9 9 0 0 1 4.6 2 1 1 0 0 0 1.3-1.6s-2.4-2-5.7-2.4a.9.9 0 0 0-.1 0m-1.8 4.8a1 1 0 0 0-.3 2c3 .9 4.2 2.6 4.3 2.7a1 1 0 0 0 1.3.3 1 1 0 0 0 .4-1.4c-.1 0-1.5-2.4-5.4-3.6a1 1 0 0 0-.3 0" fill="#744eaa"/></g></svg>