<svg xmlns="http://www.w3.org/2000/svg" viewBox="0 0 45 45"><defs><clipPath id="a"><path d="M0 36h36V0H0v36z"/></clipPath></defs><g clip-path="url(#a)" transform="matrix(1.25 0 0 -1.25 0 45)"><path d="M20.1 3.8a2.1 2.1 0 1 0-4.2 0 2.1 2.1 0 0 0 4.2 0" fill="#e1e8ed"/><path d="M27.6 20.4a9.6 9.6 0 0 1-19.2 0C8.4 15 7.3 3.8 7.3 3.8a2.1 2.1 0 0 1 4.3 0 2.1 2.1 0 0 1 4.3 0H20a2.1 2.1 0 0 1 4.3 0 2.1 2.1 0 0 1 4.3 0s-1 11.2-1 16.6" fill="#e1e8ed"/><path d="M20 33c0-2.2-1.4-6-2-6s-2 3.8-2 6 1.4 3 2 3 2-.8 2-3M15.6 3c0 2.6 1.7 8 2.4 8s2.4-5.4 2.4-8-1.8-3-2.4-3c-.7 0-2.4.4-2.4 3" fill="#dd2e44"/><path d="M25 13.5C25 12 20.2 9 18 9s-7 3-7 4.5 4.8 4.5 7 4.5 7-3 7-4.5" fill="#f4900c"/><path d="M25 13.5c0-1.5-14-1.5-14 0s4.8 4.5 7 4.5 7-3 7-4.5" fill="#ffac33"/><path d="M13 17.5a1.5 1.5 0 1 0-3 0 1.5 1.5 0 0 0 3 0m13 0a1.5 1.5 0 1 0-3 0 1.5 1.5 0 0 0 3 0" fill="#292f33"/></g></svg>