<svg xmlns="http://www.w3.org/2000/svg" viewBox="0 0 45 45"><defs><clipPath id="a"><path d="M0 36h36V0H0v36z"/></clipPath></defs><g clip-path="url(#a)" transform="matrix(1.25 0 0 -1.25 0 45)"><path d="M35 15H1a1 1 0 1 0 0 2h34a1 1 0 1 0 0-2m-22.2 2c-.1 0-9.3.7-10.8 8.2a1 1 0 0 0 2 .4c1.2-6 8.8-6.6 8.9-6.6a1 1 0 0 0 0-2M3 5a1 1 0 0 0-.9 1.4c3.2 6.8 11 7.7 11.4 7.8a1 1 0 0 0 1-.9 1 1 0 0 0-.8-1.1s-7.1-.9-9.8-6.6A1 1 0 0 0 3 5" fill="#292f33"/><path d="M22.8 17a1 1 0 0 0-.1 2s8.1.6 9.3 6.6a1 1 0 0 0 1.2.8 1 1 0 0 0 .8-1.2C32.5 17.7 23.2 17 22.8 17M33 5a1 1 0 0 0-.9.6c-2.7 5.7-10.1 6.6-10.2 6.6a1 1 0 0 0-.9 1 1 1 0 0 0 1.1 1c.4 0 8.6-1 11.8-7.8A1 1 0 0 0 33 5" fill="#292f33"/><path d="M25 28.2c0 2.7-1.3 4.3-3.1 5l.1.8c0 1.1-.7 2-1.5 2s-1.5-.9-1.5-2a13.2 13.2 0 0 1-1 0h-1c0 1.1-.7 2-1.5 2s-1.5-.9-1.5-2l.1-.7c-1.8-.8-3-2.4-3-5C8 26.3 6 23.2 6 19c0-7.2 5.4-17 12-17s12 9.8 12 17c0 4.3-2 7.5-5 9.2" fill="#292f33"/><path d="M16 1C9.6 1.6 4.5 8 4.5 15.6c0 7.7 5 10.8 11.5 11.4.3 0 1 0 1-2.3V2.2C17 1 16.3 1 16 1m4 0c6.4.6 11.5 7 11.5 14.6S26.5 26.4 20 27c-.3 0-1 0-1-2.3V2.2C19 1 19.7 1 20 1" fill="#dd2e44"/><path d="M15 21a2 2 0 1 0-4 0 2 2 0 0 0 4 0m-2-7a3 3 0 1 0-6 0 3 3 0 0 0 6 0m2-7a2 2 0 1 0-4 0 2 2 0 0 0 4 0m12 14.5a2.5 2.5 0 1 0-5 0 2.5 2.5 0 0 0 5 0m-3-6a1.5 1.5 0 1 0-3 0 1.5 1.5 0 0 0 3 0m6-2.5a2 2 0 1 0-4 0 2 2 0 0 0 4 0m-3-6a3 3 0 1 0-6 0 3 3 0 0 0 6 0" fill="#292f33"/></g></svg>