<svg xmlns="http://www.w3.org/2000/svg" viewBox="0 0 45 45"><defs><clipPath id="a"><path d="M0 36h36V0H0v36z"/></clipPath></defs><g clip-path="url(#a)" transform="matrix(1.25 0 0 -1.25 0 45)"><path d="M10 24c3-5 0-10.7-3-9.7s-4-2-1-3 9.5.5 13 4c1 1 2 1 2 1L10 24z" fill="#553788"/><path d="M26 24c-3-5 0-10.7 3-9.7s4-2 1-3-9.5.5-13 4c-1 1-2 1-2 1L26 24z" fill="#553788"/><path d="M30.2 20c-3-5 0-10.7 3-9.7s4-2 1-3-9.5.5-13 4c-1 1-2 1-2 1l11 7.7zM5.8 20c3-5 0-10.7-3-9.7s-4-2-1-3 9.5.5 13 4c1 1 2 1 2 1L5.8 20z" fill="#744eaa"/><path d="M33.2 4.6c-2.7-.9-6.4 5.7-4.8 10.6A23 23 0 0 1 31 25c0 7.2-5.8 11-13 11S5 32.2 5 25c0-3 1-6.5 2.6-9.8 1.6-5-2-11.5-4.8-10.6-3 1-4-3-1-4s8.3.6 12 4c2.2 2 4.2 2 4.2 2s2 0 4.2-2c3.7-3.4 9-5 12-4s2 5-1 4" fill="#9266cc"/><path d="M16 15a2 2 0 1 0-4 0 2 2 0 0 0 4 0m8 0a2 2 0 1 0-4 0 2 2 0 0 0 4 0" fill="#292f33"/></g></svg>