<svg xmlns="http://www.w3.org/2000/svg" viewBox="0 0 45 45"><defs><clipPath id="a"><path d="M0 36h36V0H0v36z"/></clipPath></defs><g clip-path="url(#a)" transform="matrix(1.25 0 0 -1.25 0 45)"><path d="M29 35a6 6 0 0 1-6-6c0-2.6 2.4-5 5-5a3.7 3.7 0 0 1 3.8 3.1 3.4 3.4 0 0 1-2.5 3.8 1 1 0 1 1-.6-1.8c1.2-.4 1.2-1.3 1-1.7A1.7 1.7 0 0 0 28 26c-1.5 0-3 1.5-3 3 0 1.3 1 4 4 4 2.9 0 5-2.5 5-6V12c0-3.6-1.4-5.7-4.3-6.5L30 9a19 19 0 0 1-1.8 10.9 10.6 10.6 0 0 1-10 5.7c-.3 5.1-3 9.3-8.8 9.3-6 0-6.2-7-9.2-11.4-1.4-2 5.4-7 9.2-7h1.4a9.2 9.2 0 0 1 1.7.6c2.8.8 4.4.9 5.3.4-.7-3.4-3.8-6.2-5.8-9.6-3-5 1-8 3-8 3 0 3 3 2 3-2 0-2.6 3.1-2 5 .7 2 2.6 3.5 3.9 6-.3-1.6-.9-3.5-.9-5 0-4.6 1.2-6 6-6h.5a3.1 3.1 0 0 0-.5 0c-4.7 0-5.5-.9-5.5-2 0-.8.5-1 1.5-1h7c.7 0 1.7 0 2.4 3.3 4.4 1 6.6 3.9 6.6 8.7v15c0 4.6-3 8-7 8" fill="#bf6952"/><path d="M11.2 28.2A3.8 3.8 0 0 1 7.4 32a3.8 3.8 0 0 1-3.8-3.8v-.8A4.9 4.9 0 0 1 1 25a14.2 14.2 0 0 0-.8-1.4c-.7-1 .8-3 3-4.5 2-1.4 6-.5 6 4.9l-.1.8a3.8 3.8 0 0 1 2 3.4m2.7 1.3c0-2-.2-3.5 1.7-3.5a3.5 3.5 0 1 1 0 7c-2 0-1.7-1.6-1.7-3.5" fill="#d79e84"/><path d="M7.4 27.6c0-.9-.5-1.6-1-1.6s-1.1.7-1.1 1.6c0 1 .4 1.7 1 1.7s1.1-.8 1.1-1.7" fill="#292f33"/><path d="M4 24c0-.6-2.2-2-3-2s-1 .4-1 1h1c1 0 3 1.6 3 1" fill="#642116"/></g></svg>