<svg xmlns="http://www.w3.org/2000/svg" viewBox="0 0 45 45"><defs><clipPath id="a"><path d="M0 36h36V0H0v36z"/></clipPath></defs><g clip-path="url(#a)" transform="matrix(1.25 0 0 -1.25 0 45)"><path d="M24.9 2.9a1 1 0 0 1-.4.4C22.9 5 24 7 24 7c0 .6 1 2 0 2l-1-1c-1-1-1-4-1-4h-2a1 1 0 1 1 0-2h1.1l-.2-.1a1 1 0 0 1 1-1.8l2.6 1.4a1 1 0 0 1 .4 1.4m-7 0a1 1 0 0 1-.4.4C15.9 5 17 7 17 7c0 .6 1 2 0 2l-1-1c-1-1-1-4-1-4h-2a1 1 0 1 1 0-2h1.1l-.2-.1a1 1 0 0 1 1-1.8l2.6 1.4a1 1 0 0 1 .4 1.4M7.5 26c0-1.1-1.1-2-2.5-2s-3.5 1-3.5 2 2.1 2 3.5 2 2.5-.9 2.5-2" fill="#ffac33"/><path d="M13.5 34c-2 1-3-1-3-1s0 3-3 3-3-3-3-3-3 1-3-2c0-1.5 1.1-2.4 2.5-2.4V24c0-1 .3-3-.7-4s-2.5-4 .5-4 3 4 3 7c1-1 4-1 4 4a3.4 3.4 0 0 1-.6 2h1.3c4 0 4 4 2 5" fill="#dd2e44"/><path d="M32.5 27c4-10 0-22-13-22-7.7 0-13 6-14 11-1.2 5.9-1 8-1 12 0 2.7 2.1 4.8 5 4 7-2 5-10 12-10 10 0 8.3 12 11 5" fill="#e1e8ed"/><path d="M8.5 28a1 1 0 1 0-2 0 1 1 0 0 0 2 0" fill="#292f33"/></g></svg>