<svg xmlns="http://www.w3.org/2000/svg" viewBox="0 0 45 45"><defs><clipPath id="a"><path d="M0 36h36V0H0v36z"/></clipPath></defs><g clip-path="url(#a)" transform="matrix(1.25 0 0 -1.25 0 45)"><path d="M34.5 20.4c-1 7.3-5.8 10.5-14 10.5h-1.1C14.7 34.4 4 33.2 1.8 29.7-1.5 24.8.6 7.4 1.8 5c1.1-2.3 4.6-3.5 5.8-2.3 1.2 1.2 0 1.2-1.2 3.5-.8 1.7-.4 5.9.3 8.5v-.5c.5-2.9 2-7.4 2-9.7C8.8.9 11 .4 13.6.4s4.7.5 4.7 4v.8a27.3 27.3 0 0 1 2.3-.1H22v-.6C22 .9 24 .4 26.5.4c2.6 0 4.7.5 4.7 4 0 1.9 1.2 4.7 2 7l.5 1.2a47 47 0 0 0 .2-4.2 1 1 0 1 1 2 0 49 49 0 0 1-1.5 12" fill="#99aab5"/><path d="M19.4 30.9s3.6-5.5.6-10.5-7.8-5-11-5c-2 0-1-2 0-2 1.4 0 8.4-1.3 12 6 3 6-1.6 11.5-1.6 11.5" fill="#66757f"/><path d="M8 21.9a1.5 1.5 0 1 0-3 0 1.5 1.5 0 0 0 3 0" fill="#292f33"/></g></svg>