<svg xmlns="http://www.w3.org/2000/svg" viewBox="0 0 45 45"><defs><clipPath id="a"><path d="M0 36h36V0H0v36z"/></clipPath><clipPath id="b"><path d="M24.8 30.5l-10.5-1.3c-2.9-.4-5-3.6-4.6-7.2l1.4-13.2c.3-3.6 3.7-6.2 5.9-5.9 3.4.4 14.2 17.5 13.7 21.7-.4 4-2.6 6-5.2 6h-.7"/></clipPath><clipPath id="c"><path d="M0 36h36V0H0v36z"/></clipPath><clipPath id="d"><path d="M16.7 34.2l-7.8-1C6.7 33 5.2 30.6 5.5 28l1-9.8c.2-2.7 2.7-4.6 4.4-4.4 2.5.3 10.5 13 10.2 16.1-.3 3-2 4.5-4 4.5h-.4"/></clipPath><clipPath id="e"><path d="M0 36h36V0H0v36z"/></clipPath></defs><g clip-path="url(#a)" transform="matrix(1.25 0 0 -1.25 0 45)" fill="#ccd6dd"><path d="M29 29c4.5-4.5 5.8-21.4 1.3-25.8-4.4-4.5-12.2-3.8-16.6.6-3 3-3.8 11 .6 15.4C18.7 23.6 24.6 33.4 29 29"/><path d="M17 2.9c-2.2-.3-5.6 2.3-6 5.9L9.8 22c-.3 3.6 1.7 6.8 4.6 7.2l10.5 1.3c3 .4 5.5-1.6 6-5.9C31.1 20.4 20.3 3.3 17 3"/></g><g clip-path="url(#b)" transform="matrix(1.25 0 0 -1.25 0 45)"><path d="M10.3 9.5c-2.1-.2-5.5 2.3-5.9 6l-1.3 13c-.4 3.6 1.7 6.9 4.6 7.2l10.5 1.4c2.9.3 5.5-1.7 5.9-6C24.5 27 13.7 10 10.3 9.6" fill="#99aab5"/></g><g clip-path="url(#c)" transform="matrix(1.25 0 0 -1.25 0 45)"><path d="M10.8 13.7c-1.6-.2-4 1.7-4.3 4.4l-1 9.8c-.3 2.7 1.2 5 3.4 5.3l7.8 1c2.1.3 4-1.2 4.4-4.4.3-3.1-7.7-15.8-10.3-16" fill="#ccd6dd"/></g><g clip-path="url(#d)" transform="matrix(1.25 0 0 -1.25 0 45)"><path d="M5.3 19.2C3.7 19 1.3 21 1 23.6l-1 9.8c-.3 2.7 1.2 5 3.4 5.3l7.8 1c2.1.3 4-1.2 4.4-4.4.3-3.1-7.7-15.8-10.2-16" fill="#99aab5"/></g><g clip-path="url(#e)" transform="matrix(1.25 0 0 -1.25 0 45)"><path d="M6.3 23.2c-1-.1-2.6 1-2.8 2.7l-.6 6c-.1 1.7.8 3.1 2.1 3.3l4.8.6c1.3.2 2.5-.7 2.7-2.7.2-2-4.7-9.7-6.2-10" fill="#ccd6dd"/><path d="M30.6 21.6c.8-2.4 1.5-11.6-1.5-15.5-3.1-4-8 1.4-5.3 6.2 2.7 4.8 6 11.7 6.8 9.3" fill="#66757f"/></g></svg>