<svg xmlns="http://www.w3.org/2000/svg" viewBox="0 0 45 45"><defs><clipPath id="a"><path d="M0 36h36V0H0v36z"/></clipPath><clipPath id="b"><path d="M7.7 16C7.7 9.9 12.3 3 18 3s10.3 6.9 10.3 13-4.6 9-10.3 9-10.3-3-10.3-9"/></clipPath><clipPath id="c"><path d="M0 36h36V0H0v36z"/></clipPath></defs><g clip-path="url(#a)" transform="matrix(1.25 0 0 -1.25 0 45)" fill="#292f33"><path d="M19 3c0-1.7-.5-3-1-3s-1 1.3-1 3 .5 3 1 3 1-1.3 1-3m6.8 31.8c-.6.5-1.7.4-2.5-.4a11.3 11.3 0 0 1-2.2-3.6c-1 .2-2 .2-3.1.2s-2.2 0-3-.2c-.3 1-1.7 3-2.3 3.6-.8.8-1.9 1-2.4.3-.6-.5-.5-1.6.3-2.4a12.7 12.7 0 0 1 3-2c-.8-.6-1.3-1.5-1.3-3 0-3.7 2.6-7.4 5.7-7.4s5.7 3.8 5.7 7.3c0 1.6-.5 2.5-1.3 3l3 2c.8.9 1 2 .4 2.6"/><path d="M28.3 16c0-6.1-4.6-13-10.3-13S7.7 9.9 7.7 16s4.6 9 10.3 9 10.3-2.9 10.3-9"/></g><g clip-path="url(#b)" transform="matrix(1.25 0 0 -1.25 0 45)"><path d="M29 17H7v4h22v-4zm0-8H7v4h22V9zm0-8H7v4h22V1z" fill="#ffcc4d"/><path d="M18 22c0-2.6-7.9-10-12-10s-6 5.3-6 8 1.9 1.6 6 1.6 12 3 12 .4m0 0c0-2.6 7.9-10 12-10s6 5.3 6 8-1.9 1.6-6 1.6-12 3-12 .4" fill="#292f33"/></g><g clip-path="url(#c)" transform="matrix(1.25 0 0 -1.25 0 45)"><path d="M18 22.5c0-2.6-7.9-8.6-12-8.6S0 16.4 0 19s1.9 4.5 6 4.5 12 1.6 12-1m0 0c0-2.6 7.9-8.6 12-8.6s6 2.4 6 5.1-1.9 4.5-6 4.5-12 1.6-12-1" fill="#ccd6dd"/><path d="M2 17a1 1 0 0 0 0 2s5 0 13.6 4a1 1 0 0 0 .8-2c-9-4-14.2-4-14.4-4m32 0c-.2 0-5.3 0-14.4 4a1 1 0 0 0 .8 2c8.7-4 13.6-4 13.6-4a1 1 0 1 0 0-2" fill="#99aab5"/></g></svg>