<svg xmlns="http://www.w3.org/2000/svg" viewBox="0 0 45 45"><defs><clipPath id="a"><path d="M0 36h36V0H0v36z"/></clipPath></defs><g clip-path="url(#a)" transform="matrix(1.25 0 0 -1.25 0 45)"><path d="M7.4 28.5c-1 4 3.7 6 8 4 1-.4 1-1.3 0-1-3 1-6-1-4-4 1.1-1.7-3.2-2-4 1" fill="#ffac33"/><path d="M6.1 30.2c-1 4 3.7 6 8 4 1-.4 1-1.3 0-1-3 1-6-1-4-4 1.1-1.6-3.2-2-4 1" fill="#ffcc4d"/><path d="M5 21.2c0-4-2-4.8-2-4 0 2-1 0-1 1v3c0 1.7.7 3 1.5 3S5 23 5 21.2" fill="#e1e8ed"/><path d="M35.2 25.5a4.5 4.5 0 0 1-4.2 2.7 1 1 0 1 1 0-2c1 0 2-.6 2.3-1.4a3 3 0 0 0-.4-2.7 5.6 5.6 0 0 1-4.9 2.6 90 90 0 0 1-10.8-1.3 4 4 0 0 1-.2.3c-2 3-4 8.2-7 8.2-4 0-10-5-10-9.2 0-2.5 5.7-3 7.5-3 .7-1.4 1.4-3 2.2-4.3l.3-.7C13 8.7 13.1.2 14.5.2s2.5 4.9 2.5 9v.5a20.1 20.1 0 0 1 9.7.6c1.4-5 1.7-10 2.8-10 1.3 0 2.4 8.7 2.5 13a7.2 7.2 0 0 1 2 5c0 .5 0 1.1-.3 1.8 1.7 1.6 2.2 3.6 1.4 5.4" fill="#ccd6dd"/><path d="M8 26.7a1 1 0 1 0-2 0 1 1 0 0 0 2 0" fill="#292f33"/></g></svg>