<svg xmlns="http://www.w3.org/2000/svg" viewBox="0 0 45 45"><defs><clipPath id="a"><path d="M0 36h36V0H0v36z"/></clipPath></defs><g clip-path="url(#a)" transform="matrix(1.25 0 0 -1.25 0 45)"><path d="M34.6 18c0 4-1.6 7.5-4 10.2a10.4 10.4 0 0 0 3 5.8c.7.7.2 2-1 2 0 0-6.1 0-10-3.3a15 15 0 0 1-3 .3c-8 0-12-4-14-12-.5-1.8-1-1.4-3-3-1.2-.9-2.2-3 1-3 3 0 5-1 9-1 1.8 0 3.4.3 4.8.7 0-1.6.5-3.6 2.2-4.7 2.3-1.6 2.3-1.9 3 0 .8 2.4.3 3.6-1 5.5a4 4 0 0 0 2-.5c2.6-1.6 2.1-4.1.6-6.4-2.9-3.4-5.9-.5-8.6.4-3 1-1-1 0-2s1.3-4 0-6 3 0 5 3c7.8.5 14 6 14 14" fill="#3b88c3"/><path d="M15.1 22a2 2 0 1 0-4 0 2 2 0 0 0 4 0" fill="#292f33"/></g></svg>