<svg xmlns="http://www.w3.org/2000/svg" viewBox="0 0 45 45"><defs><clipPath id="a"><path d="M0 36h36V0H0v36z"/></clipPath></defs><g clip-path="url(#a)" transform="matrix(1.25 0 0 -1.25 0 45)"><path d="M35.8 14.2c0 .2-1 3.7-3.5 7.2a9.4 9.4 0 0 1-.3.8C30 26 29.5 33 26.6 33s-1.9-4.3-4.7-4.3c-2.9 0-2.1 4.3-5.3 4.3s-3.4-7-5.3-10.2v-.1a3 3 0 0 0-.3 1.5c0 .5-.3 2-1.3 3.4.7 0 1.2.5 1.2 1 0 .6-.7 1-1.6 1a1.8 1.8 0 0 1-1.2-.6 3.9 3.9 0 0 1-1 .3c-.5.1-.5-.9-3-.9s-4.1-4-1.8-4 4.4.1 4.7-1c.3-1.2-.6-3.6-.2-5a7.3 7.3 0 0 1 2-3.2c1.9-2 3.7-10 3.6-12 0-2 2-2.1 2-.1 0 1.2 0 4 .2 6.4.6-3 1-6.7.9-8 0-2 2-2 2 0 0 1.6-.2 7.1.6 10a44.2 44.2 0 0 1 1.6 0 16 16 0 0 1 4.8.5c1.3-2.2 2.7-4.4 2.6-5 0-1-1-4-1-5-.1-1 .8-2 2 0a17.8 17.8 0 0 1 1.3 5l1.1-2.2c0-1-1-2.1-1-3.1-.1-1 .8-2 2-.1 1 2 2 3 1 5.1a25 25 0 0 0-.3 9.7l.3.8c1-2 1.3-3.5 1.3-3.5a1 1 0 0 1 2 .5" fill="#c1694f"/><path d="M8.1 27.3a1 1 0 1 0-2 0 1 1 0 0 0 2 0" fill="#292f33"/></g></svg>