<svg xmlns="http://www.w3.org/2000/svg" viewBox="0 0 45 45"><defs><clipPath id="a"><path d="M0 36h36V0H0v36z"/></clipPath><clipPath id="b"><path d="M2.3 17c-.5-.8-2.3-1-2.3-1.8 0-.3.3-.7 1.3-1.3-3.1-2.1.4-2.3 1.2-3.1 2.6-3 9-6.2 14.3-6.2 6.8 0 13.4 5.5 13.4 12.4 0 6.8-5.1 14.4-13.4 14.4S4.8 21.2 2.3 17"/></clipPath><clipPath id="c"><path d="M0 36h36V0H0v36z"/></clipPath></defs><g clip-path="url(#a)" transform="matrix(1.25 0 0 -1.25 0 45)"><path d="M8.2 26c6 8 14 10 18 10 1 0 1-1 0-1s-6-2-7-9-11 0-11 0m-1-18c4-3 13-8 18-8 3 0 2 1 1 1s-9 3-10 7-9 0-9 0" fill="#ffac33"/><path d="M29 17c0-4.4 3.8-10 6-10s-2 5.6-2 10 4.2 10 2 10-6-5.6-6-10" fill="#ffcc4d"/><path d="M30.2 17c0-6.9-6.6-12.4-13.4-12.4-5.3 0-11.7 3.2-14.3 6.2-.8.8-4.3 1-1.2 3-3.1 2.1.3 2 1 3.2 2.4 4.2 6.2 14.4 14.5 14.4S30.2 23.8 30.2 17" fill="#ffcc4d"/></g><g clip-path="url(#b)" transform="matrix(1.25 0 0 -1.25 0 45)" fill="#f4900c"><path d="M19 17a1 1 0 0 0-1 1c.3 7.6 7.3 10.8 7.6 11a1 1 0 1 0 .8-2c-.2 0-6.2-2.8-6.4-9a1 1 0 0 0-1-1m5 2a1 1 0 0 0-1 1.2 7.1 7.1 0 0 0 7 5.8 1 1 0 0 0 0-2c-.2 0-4.2 0-5-4.2a1 1 0 0 0-1-.8"/><path d="M14 15a1 1 0 0 0-1 1c0 12.6 10.6 16 10.7 16a1 1 0 0 0 .6-2A14 14 0 0 1 15 16a1 1 0 0 0-1-1"/></g><g clip-path="url(#c)" transform="matrix(1.25 0 0 -1.25 0 45)"><path d="M11 20.5a1.5 1.5 0 1 0-3 0 1.5 1.5 0 0 0 3 0" fill="#292f33"/></g></svg>