<svg xmlns="http://www.w3.org/2000/svg" viewBox="0 0 45 45"><defs><clipPath id="a"><path d="M0 36h36V0H0v36z"/></clipPath></defs><g clip-path="url(#a)" transform="matrix(1.25 0 0 -1.25 0 45)"><path d="M17.4 2.9a1 1 0 0 1-.4.4C15.4 5 16.5 7 16.5 7c0 .6 1 2 0 2l-1-1c-1-1-1-4-1-4h-2a1 1 0 1 1 0-2h1.1l-.2-.1a1 1 0 0 1 1-1.8L17 1.5a1 1 0 0 1 .4 1.4M23.5 4h-2s0 3-1 4l-1 1c-1 0 0-1.4 0-2 0 0 1.1-2-.5-3.7a1 1 0 0 1-.4-.4 1 1 0 0 1 .4-1.4L21.7.1a1 1 0 1 1 1 1.8l-.3.1h1.1a1 1 0 1 1 0 2" fill="#ffac33"/><path d="M34 12c-1 2-3 5-4 10v.1A12 12 0 0 1 20 34c1.2.2 2 .5 1 1-1.1.6-2.2-.1-3-.8-.8.7-1.9 1.3-3 .8-1-.5-.2-.8 1-1A12 12 0 0 1 6 22c-1-5-3-8-4-10-.5-.9 0-3 2-2 1.2.6 2.4 2 3.4 3.7C8.9 9.1 12 5 18 5s9.1 4 10.6 8.7c1-1.8 2.2-3.1 3.4-3.7 2-1 2.5 1.1 2 2" fill="#ffcc4d"/><path d="M21 22c0-1.7-1.3-2-3-2s-3 .3-3 2a3 3 0 1 0 6 0" fill="#f4900c"/><path d="M13 24.5a1.5 1.5 0 1 0-3 0 1.5 1.5 0 0 0 3 0m13 0a1.5 1.5 0 1 0-3 0 1.5 1.5 0 0 0 3 0" fill="#662113"/></g></svg>