<svg xmlns="http://www.w3.org/2000/svg" viewBox="0 0 45 45"><defs><clipPath id="a"><path d="M0 36h36V0H0v36z"/></clipPath></defs><g clip-path="url(#a)" transform="matrix(1.25 0 0 -1.25 0 45)"><path d="M36 22.5c0 4.6-3.1 6.5-7 6.5-1.6 0-3.3-.3-4.7-1a11 11 0 0 1-12.6 0A10.9 10.9 0 0 1 7 29c-3.9 0-7-1.9-7-6.5 0-3.9 2.1-6.5 5-7.2a20.1 20.1 0 0 1 0-1.7C5 8 9.5 6 13.6 5.3A7.6 7.6 0 0 1 18 4c1.8 0 3.4.5 4.5 1.3C26.4 6 31 8 31 13.7v1.6c2.9.7 5 3.3 5 7.2" fill="#99aab5"/><path d="M9.6 26.1a9.3 9.3 0 0 1-1 .1C5.5 26.2 3 24.7 3 21a6 6 0 0 1 2.1-5 18 18 0 0 0 4.5 10m17.8.1a9 9 0 0 1-1 0 18 18 0 0 0 4.5-10A5.9 5.9 0 0 1 33 21c0 3.7-2.5 5.2-5.6 5.2" fill="#66757f"/><path d="M21.7 11.2C21.7 7.8 20 7 18 7s-3.7.8-3.7 4.2c0 3.3 1.7 6 3.7 6s3.7-2.7 3.7-6m-7.7 5a1.5 1.5 0 1 0-3 0 1.5 1.5 0 0 0 3 0m11 0a1.5 1.5 0 1 0-3 0 1.5 1.5 0 0 0 3 0" fill="#292f33"/></g></svg>