<svg xmlns="http://www.w3.org/2000/svg" viewBox="0 0 45 45"><defs><clipPath id="a"><path d="M0 36h36V0H0v36z"/></clipPath></defs><g clip-path="url(#a)" transform="matrix(1.25 0 0 -1.25 0 45)"><path d="M9 23.1c-.2-1.6 1.7-3.1-.8-3-2.5.2-7.8 2.6-7.8 3.6.1 1 3.7 2.8 6.2 2.6 2.5-.2 2.4-1.5 2.3-3.2M29 7.1a1 1 0 0 1-.5-.1c-2.4-.3-3.3 1.9-3.3 1.9-.4.3-1 2-1.5 1.2l.1-1.4c.2-1.4 2.6-3.2 2.6-3.2l-1.2-1.6a1 1 0 0 1 .2-1.4 1 1 0 0 1 1.4.1l.7 1v-.3a1 1 0 0 1 .8-1.2 1 1 0 0 1 1.1.9l.5 3a1 1 0 0 1-.9 1m-6.2-.6a1 1 0 0 1-.6 0c-2.4.1-3 2.3-3 2.3-.4.4-.7 2.2-1.4 1.5V8.7c0-1.4 2.1-3.5 2.1-3.5l-1.4-1.4A1 1 0 1 1 20 2.4l.8.8v-.3a1 1 0 1 1 1.9-.6l.8 2.9a1 1 0 0 1-.6 1.3" fill="#ffac33"/><path d="M35 29.3c-.4.1-.8 0-1-.3 0 0-4.3-6.3-14.6-5-.3.1 3.2-11.9 3.2-11.9.1 0 3.1.4 6.2 2.6 2.8 2 6.2 6 6.8 13.6a1 1 0 0 1-.6 1" fill="#dd2e44"/><path d="M34.5 14.9c-.2.3-.6.6-1 .5a18 18 0 0 0-4.5-.5c-6.4.4-9.4 4.1-9.4 4.2-.3.2.4-11.6.8-11.6a16.1 16.1 0 0 1 14 6.3 1 1 0 0 1 0 1.1" fill="#dd2e44"/><path d="M24.6 17c-.4-5.5 1.3-9.9-4.2-9.5-5.5.4-10.1 5-9.8 10.4.4 5.5 14.4 4.6 14-1" fill="#dd2e44"/><path d="M23.3 23.6c-.4-5.3-4-9.3-9.2-9a9.5 9.5 0 0 0-8.8 10.2c.3 5.2 4.8 8.4 10 8.1 4-.3 8.3-4.7 8-9.3" fill="#dd2e44"/><path d="M12.7 26.9a2 2 0 1 0-4 .3 2 2 0 0 0 4-.3" fill="#292f33"/><path d="M18.2 19.4s7.6-5.7 12.4 4.4c.4.9 1.6-.8 0-4.2-1.5-3.3-8.1-6.4-12-1.5-.8 1-.4 1.2-.4 1.2" fill="#a0041e"/><path d="M15.3 32.9s6.3-.3 7.8.5c1.6.7.2-3-3.2-3.8-3.4-.9-4.6 3.3-4.6 3.3" fill="#dd2e44"/><path d="M17.4 30.2s4.5-.1 6 .6c1.6.7.2-3-3.2-3.8-3.4-.8-2.8 3.2-2.8 3.2" fill="#dd2e44"/></g></svg>