<svg xmlns="http://www.w3.org/2000/svg" viewBox="0 0 45 45"><defs><clipPath id="a"><path d="M0 36h36V0H0v36z"/></clipPath></defs><g clip-path="url(#a)" transform="matrix(1.25 0 0 -1.25 0 45)"><path d="M9.8 16c0-9.8 6.6-9.6 5.2-10-7-2-8.8 7.6-9.5 7.6-2.3 0-5.5.4-5.5 2.5S2.5 21 6.2 21c2.3 0 3.7-2.9 3.7-5M36 7.5c0-1.1-3.5.7-5 0-2-1-2 .9-2 2s1.3 1 3 1 4-2 4-3" fill="#77b255"/><path d="M16.7 2.9C16.7 0 15.4 0 14 0c-1.7 0-3 .1-3 2.9 0 .4 0 1 .2 1.5C12 7 14 10 15.3 10c1.6 0 1.4-4.4 1.4-7.1m8.6 0C25.3 0 26.6 0 28.1 0S31 .1 31 2.9a6.2 6.2 0 0 1-.2 1.5C30 7 28 10 26.8 10c-1.7 0-1.5-4.4-1.5-7.1" fill="#77b255"/><path d="M32 9c0-4-5.2-4-11.5-4S9 5 9 9c0 6.6 5.2 12 11.5 12S32 15.6 32 9" fill="#3e721d"/><path d="M6 18a1 1 0 1 0-2 0 1 1 0 0 0 2 0" fill="#292f33"/><path d="M23.7 10.9c0-3.6-1.4-3.9-3.2-3.9s-3.2.3-3.2 3.9 1.4 8.1 3.2 8.1 3.2-4.5 3.2-8.1M30 12c.9-3.5-.8-4-2.5-4-1.8 0-2.6-.7-2.6 2.9s-1 6.5.7 6.5S29 16 30 12m-14-1.1c0-3.6-.7-2.9-2.5-2.9s-3.4.5-2.5 4c1 4 3.3 5.4 5 5.4s0-3 0-6.5" fill="#5c913b"/></g></svg>