<svg xmlns="http://www.w3.org/2000/svg" viewBox="0 0 45 45"><defs><clipPath id="a"><path d="M0 36h36V0H0v36z"/></clipPath></defs><g clip-path="url(#a)" transform="matrix(1.25 0 0 -1.25 0 45)"><path d="M29.2 18.4a10 10 0 0 1 4.4 8.7 1 1 0 1 1-2 0c0-3.8-1.7-5.9-3.3-7-1.6 1.4-5 1.4-8 1.4-4.5 0-8-1.7-8-5.1 0-3.4 3.5-4.4 8-4.4 2 0 4.3.6 6 1.7 1-3.6 4-10.3 5.3-10.3 1.6 0-2.4 12.7-2.4 14.7v.3" fill="#ccd6dd"/><path d="M13.4 3.4c-1.5 0-3 10.2-3 12.2s1.3 3.6 3 3.6c1.5 0 2.7-1.6 2.7-3.6S15 3.4 13.4 3.4" fill="#ccd6dd"/><path d="M23.6 17c0-5-2.6-9-7.6-9S6 12 5.5 17c-.5 6 3 8 8 8s10-3 10-8M16.9 2.3C16.8.4 15.3 0 13.4 0c-1.8 0-3.3.4-3.3 2.3a3.4 3.4 0 0 0 6.7 0m18.2 0C35 .4 33.5 0 31.6 0s-3.4.4-3.4 2.3a3.4 3.4 0 0 0 6.8 0M36 27a3.4 3.4 0 1 0-6.8 0 3.4 3.4 0 0 0 6.8 0" fill="#99aab5"/><path d="M14.6 26.9c0-1.9-2.8-3.4-6.2-3.4C4.9 23.5 1 28 1 29.1s4 1.2 7.4 1.2 6.2-1.5 6.2-3.4" fill="#ccd6dd"/><path d="M16.8 33.5c0 1.1-.5 2.4-4.5 2.4-2.8 0-6.8-3.2-6.8-4.5 0-1.2 2.3-2.2 5.1-2.2h1a18 18 0 0 1-.4-4c0-4.7 1.4-6.2 4.5-6.2s4.5 1.5 4.5 6.2c0 4-1 7.5-3.4 8.3" fill="#66757f"/><path d="M2.3 29.9a1.1 1.1 0 1 0-2.3 0 1.1 1.1 0 0 0 2.3 0" fill="#292f33"/></g></svg>