<svg xmlns="http://www.w3.org/2000/svg" viewBox="0 0 45 45"><defs><clipPath id="a"><path d="M0 36h36V0H0v36z"/></clipPath></defs><g clip-path="url(#a)" transform="matrix(1.25 0 0 -1.25 0 45)"><path d="M33 19c.5-.2.9-3-1-3-6 0-11-11-20-11S1 17.5 1 20s4.8 10 12 10 15-9 20-11" fill="#d99e82"/><path d="M3 17c0-.6-.7-1-1.5-1S0 16.4 0 17s0 2 1.5 1c.7-.5 1.5-.5 1.5-1" fill="#d99e82"/><path d="M33 19c.5-.2.9-.7-1-1-6-1-10 .9-19 0-10-1-12-1-12 2 0 2.5 4.8 10 12 10s15-9 20-11" fill="#c1694f"/><path d="M30 18.5c0-2.5 3.3-4.5 5-4.5s0 2 0 4.5 1.7 4.5 0 4.5-5-2-5-4.5" fill="#d99e82"/><path d="M8 23a1 1 0 1 0-2 0 1 1 0 0 0 2 0" fill="#292f33"/><path d="M19.2 11S22 7 24 7s0 5 0 5h-2.8c-3 0-2-1-2-1" fill="#d99e82"/><path d="M21.4 27s2.8 2.9 4.6 2c4-2-2-4-2-4l-1.6.1c-3 .2-1 2-1 2M18 11a2 2 0 1 0-4 0 2 2 0 0 0 4 0m3 4a1 1 0 1 0-2 0 1 1 0 1 0 2 0m5 .5a1.5 1.5 0 1 0-3 0 1.5 1.5 0 0 0 3 0" fill="#c1694f"/><path d="M18 21.5a1.5 1.5 0 1 0-3 0 1.5 1.5 0 0 0 3 0m7-1a1.5 1.5 0 1 0-3 0 1.5 1.5 0 0 0 3 0M21 25a1 1 0 1 0-2 0 1 1 0 0 0 2 0" fill="#662113"/><path d="M3 19c0-.6 1-2-1.5-1-.8.3-1.5.5-1.5 1s.7 1 1.5 1S3 19.6 3 19" fill="#c1694f"/></g></svg>