<svg xmlns="http://www.w3.org/2000/svg" viewBox="0 0 45 45"><defs><clipPath id="a"><path d="M0 36h36V0H0v36z"/></clipPath></defs><g clip-path="url(#a)" transform="matrix(1.25 0 0 -1.25 0 45)"><path d="M28 4.6c-2.2 0-8.4-.7-10-1.8-1.6 1-7.8 1.8-10 1.8-2.6 0-1.2-1-1.2-2.3C6.8 1 5.4 0 7.9 0c2.3 0 8.5.8 10.1 1.8C19.6.8 25.8 0 28 0c2.6 0 1.2 1 1.2 2.3 0 1.3 1.4 2.4-1.1 2.4" fill="#ffac33"/><path d="M31.7 20.1c-1.2 2.5-3.1 5-5 6.8-2.4 5.4-6 9.1-8.7 9.1-2.8 0-6.3-3.7-8.8-9.1a26.2 26.2 0 0 1-5-6.8c-2.4-4.8-3-11.4-2-11.9.9-.4 2.3 1.6 4.2 5C6.7 2.5 13.4 2.4 18 2.4s11.3.1 11.6 11c1.9-3.6 3.3-5.6 4.2-5.1 1 .5.4 7-2 12" fill="#292f33"/><path d="M21.7 29a6.5 6.5 0 0 0-3.7-1c-1.5 0-2.8.6-3.7 1.2C11 26.9 8.7 22 8.7 16.3c0-7.7 4.2-14 9.3-14 5.1 0 9.3 6.3 9.3 14 0 5.7-2.3 10.6-5.6 12.8" fill="#f5f8fa"/><path d="M28.4 30h-5.7c-3.9 0-4.7.8-4.7 1.7 0 1-.4 1.8 3.5 1.8 5.8 0 8.1-3.5 7-3.5" fill="#ffac33"/><path d="M16.8 32.5a1.2 1.2 0 1 0-2.3 0 1.2 1.2 0 0 0 2.3 0" fill="#f5f8fa"/></g></svg>