<svg xmlns="http://www.w3.org/2000/svg" viewBox="0 0 45 45"><defs><clipPath id="a"><path d="M0 36h36V0H0v36z"/></clipPath></defs><g clip-path="url(#a)" transform="matrix(1.25 0 0 -1.25 0 45)"><path d="M16.7 19.9c0-4.5-2.5-2-5.7-2-3.1 0-5.7-2.5-5.7 2 0 2.9 2.5 6.1 5.7 6.1 3.1 0 5.7-3.2 5.7-6.1m-11.6 8c.4-1.3 0-2.6-.9-2.8-.9-.3-1.9.6-2.3 2-.4 1.3 0 2.6.9 2.8.9.3 1.9-.6 2.3-2m15-.9c-.4-1.3-1.5-2.2-2.3-2-.9.3-1.3 1.6-.9 3 .4 1.3 1.5 2.2 2.3 2 1-.4 1.3-1.7.9-3M10 32c.3-2-.2-3.6-1.3-3.8-1.1-.2-2.3 1.1-2.7 3-.3 2 .3 3.6 1.3 3.8 1.1.2 2.3-1.1 2.7-3m6-.8c-.4-1.9-1.6-3.3-2.7-3-1 .2-1.6 2-1.3 3.8.4 1.9 1.6 3.3 2.7 3 1-.2 1.7-2 1.3-3.8M30.7 3.9c0-4.5-2.5-2-5.7-2s-5.7-2.5-5.7 2c0 2.9 2.5 6.1 5.7 6.1 3.1 0 5.7-3.2 5.7-6.1m-11.6 8c.4-1.3 0-2.6-.9-2.8-.9-.3-1.9.6-2.3 2-.4 1.3 0 2.6.9 2.8.9.3 1.9-.6 2.3-2m15-.9c-.4-1.3-1.5-2.2-2.3-2-1 .4-1.3 1.7-.9 3s1.5 2.2 2.3 2c1-.3 1.3-1.6.9-3M24 16c.3-2-.2-3.6-1.3-3.8-1.1-.2-2.3 1.1-2.7 3-.3 2 .3 3.6 1.3 3.8 1.1.2 2.3-1.1 2.7-3m6-.8c-.4-1.9-1.6-3.2-2.7-3-1 .2-1.6 2-1.3 3.8.4 1.9 1.6 3.3 2.7 3 1-.2 1.7-2 1.3-3.8" fill="#662113"/></g></svg>