<svg xmlns="http://www.w3.org/2000/svg" viewBox="0 0 45 45"><defs><clipPath id="a"><path d="M0 36h36V0H0v36z"/></clipPath></defs><path d="M7.5 28.8L1.2 25l2.5 7.5L2.5 35l7.5 6.3 8.8 2.5L22.4 30l-15-1.3zm30 0l6.3-3.8-2.5 7.5 1.2 2.5-7.5 6.3-8.8 2.5L22.6 30l15-1.3z" fill="#ccd6dd"/><g clip-path="url(#a)" transform="matrix(1.25 0 0 -1.25 0 45)"><path d="M11 29c0-3.9-3-7-6.8-7S3.1 36 3.1 36s7.9-3.1 7.9-7M24 6a6 6 0 1 0-12 0 6 6 0 0 0 12 0" fill="#66757f"/><path d="M22 6a4 4 0 1 0-8 0 4 4 0 0 0 8 0" fill="#dd2e44"/><path d="M31.8 22C28 22 25 25.1 25 29s7.9 7 7.9 7 2.6-14-1.1-14" fill="#66757f"/><path d="M9 28a4 4 0 0 0-4-4c-2.2 0 0 8 0 8s4-1.8 4-4m22-4a4 4 0 0 0-4 4c0 2.2 4 4 4 4s2.2-8 0-8" fill="#e6aaaa"/><path d="M34 14c0-7-7-7-7-7H9s-7 0-7 7c0 0 1.2 19 16 19s16-19 16-19" fill="#66757f"/><path d="M11 19s0 2 2 2 2-2 2-2v-2s0-2-2-2-2 2-2 2v2zm10 0s0 2 2 2 2-2 2-2v-2s0-2-2-2-2 2-2 2v2z" fill="#272b2b"/><path d="M32.7 11.8L34 15l-2.7-2.7-1.3.3V17l-2.5-4.1a55.2 55.2 0 0 1-3.8.1c-3.5 0-1-4.5-5.8-5-4.7.5-2.3 5-5.7 5a64 64 0 0 1-3.7-.1L6 17v-4.4a15.1 15.1 0 0 1-1.4-.2L2.2 15l1.1-3.1C1.6 11.1 1.8 10 2.9 9c6-5.8 9-6 9.4-6 2.4 0 4.6 1 5.7 2.5A7.3 7.3 0 0 1 23.7 3c.3 0 3.3.2 9.3 6 1 1 1.3 2-.3 2.8" fill="#ccd6dd"/><path d="M15 11c-1-1 0-4 3-4s4 3 3 4-5 1-6 0" fill="#272b2b"/></g></svg>