<svg xmlns="http://www.w3.org/2000/svg" viewBox="0 0 45 45"><defs><clipPath id="a"><path d="M0 36h36V0H0v36z"/></clipPath></defs><g clip-path="url(#a)" transform="matrix(1.25 0 0 -1.25 0 45)"><path d="M17 26.5A8.5 8.5 0 0 0 8.5 18 8.5 8.5 0 0 0 0 26.5 8.5 8.5 0 0 0 8.5 35a8.5 8.5 0 0 0 8.5-8.5m19 0a8.5 8.5 0 1 0-17 0 8.5 8.5 0 0 0 17 0" fill="#ffcc4d"/><path d="M14 30.1a6.9 6.9 0 0 1-5.5 2.7 6.9 6.9 0 1 1-3-13.1A14.6 14.6 0 0 0 14 30.2m13.6 2.6a6.9 6.9 0 0 1-5.4-2.7 14.6 14.6 0 0 0 8.3-10.5 6.9 6.9 0 0 1-2.9 13.2" fill="#ea596e"/><path d="M34 13.4c-2 10-11.3 6.5-16 6.5S4 23.5 2 13.4C.7 6.9 5.8 3.5 11 2c1.7-1.2 4.2-2 7-2s5.3.8 7 2c5.2 1.5 10.3 4.9 9 11.4" fill="#ffe8b6"/><path d="M30.6 18c0-11-5.6-6-12.6-6S5.4 7 5.4 18c0 5.8 5.6 13 12.6 13s12.6-7.2 12.6-13" fill="#ffcc4d"/><path d="M20.9 8c0-1.6-2-3.3-2.9-3.3-.9 0-2.9 1.7-2.9 3.3s1.8 2 2.9 2c1.1 0 2.9-.3 2.9-2" fill="#ea596e"/><path d="M35.5 5.7A21.1 21.1 0 0 1 23 7.8h-.3l-.1-.1-.2-.2h-.1l-.1-.3v-.4s-.1 0 0-.1v-.4l.2-.1.1-.2h.2a1 1 0 0 1 .2-.1s5.7-1 8.4-4.7a1 1 0 0 1 .8-.4 1 1 0 0 1 .8 1.6 12.6 12.6 0 0 1-4 3.4A14.8 14.8 0 0 0 34.5 4a1 1 0 0 1 1 1.7m-21.7.6l.1.2v.9l-.2.1-.2.2a.9.9 0 0 1-.3.1c-.4 0-7.5 1-12.7-2.1a1 1 0 0 1 1-1.7 14.9 14.9 0 0 0 5.7 1.8 12.5 12.5 0 0 1-4-3.4 1 1 0 1 1 1.6-1.2C7.5 5 13.1 5.8 13.2 6h.2l.2.1.1.2h.1" fill="#c1694f"/><path d="M10 16s0 2 2 2 2-2 2-2v-2s0-2-2-2-2 2-2 2v2zm12 0s0 2 2 2 2-2 2-2v-2s0-2-2-2-2 2-2 2v2z" fill="#272b2b"/></g></svg>