<svg xmlns="http://www.w3.org/2000/svg" viewBox="0 0 45 45"><defs><clipPath id="a"><path d="M0 36h36V0H0v36z"/></clipPath></defs><g clip-path="url(#a)" transform="matrix(1.25 0 0 -1.25 0 45)"><path d="M36 14c0-7.5-8-12-18-12S0 6.5 0 14s8 15 18 15 18-7.5 18-15" fill="#c6e5b3"/><path d="M31.8 23.3A6 6 0 0 1 34 28a6 6 0 1 1-11.8 1.3 11.8 11.8 0 0 1-4.2.8 11.8 11.8 0 0 1-4.2-.8A6 6 0 0 1 8 34a6 6 0 0 1-6-6 6 6 0 0 1 2.3-4.7A13 13 0 0 1 0 14c0-7.5 8-1 18-1s18-6.5 18 1c0 3.3-1.6 6.6-4.3 9.3" fill="#77b255"/><path d="M11 28.5a3.5 3.5 0 1 0-7 0 3.5 3.5 0 0 0 7 0" fill="#fff"/><path d="M9 28.5a1.5 1.5 0 1 0-3 0 1.5 1.5 0 0 0 3 0" fill="#292f33"/><path d="M32 28.5a3.5 3.5 0 1 0-7 0 3.5 3.5 0 1 0 7 0" fill="#fff"/><path d="M30 28.5a1.5 1.5 0 1 0-3 0 1.5 1.5 0 0 0 3 0" fill="#292f33"/><path d="M15 16a1 1 0 1 0-2 0 1 1 0 0 0 2 0m8 0a1 1 0 1 0-2 0 1 1 0 1 0 2 0" fill="#5c913b"/></g></svg>