<svg xmlns="http://www.w3.org/2000/svg" viewBox="0 0 45 45"><defs><clipPath id="a"><path d="M0 36h36V0H0v36z"/></clipPath><clipPath id="b"><path d="M10.5 33.2C5.8 31.8 1 26 1 24.8c.2-1.2.4-2.6 6.6-3.7 1-.1 4-1.8 4.4-5.7A25 25 0 0 1 20.3.2C22 .2 22 0 23.8 0s3.7 2.4 4.6 4.7c2.8 7 2 15.7-5.5 19.8-3 1.6-5.2 1.9-5.3 3a7.8 7.8 0 0 1-3.8 5.4c.4 1.3-.5 2.7-1.2 2.8-.7 0-2-1-2.1-2.5"/></clipPath><clipPath id="c"><path d="M0 36h36V0H0v36z"/></clipPath></defs><g clip-path="url(#a)" transform="matrix(1.25 0 0 -1.25 0 45)" fill="#ad743d"><path d="M13.2 16.3c-1.2 1.3-5 0-6.2 2.5-.8 1.6-3.7-1.2-2.5-3.7 1.3-2.5 5-2.5 7.5-1.3 2.5 1.3 1.2 2.5 1.2 2.5"/><path d="M10.5 33.2C5.8 31.8 1 26 1 24.8c.2-1.2.4-2.6 6.6-3.7 1-.1 4-1.8 4.4-5.7A25 25 0 0 1 20.3.2C22 .2 22 0 23.8 0s3.7 2.4 4.6 4.7c2.8 7 2 15.7-5.5 19.8-3 1.6-5.2 1.9-5.3 3a7.8 7.8 0 0 1-3.8 5.4c.4 1.3-.5 2.7-1.2 2.8-.6 0-2-1-2.1-2.5"/></g><g clip-path="url(#b)" transform="matrix(1.25 0 0 -1.25 0 45)"><path d="M2.2 22c.6 6 3.7 8.5 6.2 8.3 1.5-.1 2.1-1.7 2.2-2.8 5.3-.7 4-6.7.7-6.8 1.4-1.4 10.2-7 8.8-13.8C18.7 0 13.2 0 10.4 2.7A99.9 99.9 0 0 0 2.3 22" fill="#d99e82"/></g><g clip-path="url(#c)" transform="matrix(1.25 0 0 -1.25 0 45)"><path d="M9 26.5a1.4 1.4 0 1 0-2.7 0 1.4 1.4 0 0 0 2.8 0" fill="#292f33"/><path d="M6.3 15.8c.3-1.4-.4-4.3-2-4.6-1.4-.2-3.1 2-3.4 3.6A2.8 2.8 0 0 0 3 18a2.8 2.8 0 0 0 3.3-2.1m15 6.5c4-3.3 6.1-7.3 5.4-12.3-.4-2.2.8-3 1.6-1a14 14 0 0 1-6 14.4c-1.9 1.1-2-.3-1-1" fill="#662113"/><path d="M13.9 14.6c-1.6 1-5.4-1.1-7.3 1.3-1.2 1.5-3.7-2.2-1.8-4.6 1.9-2.4 6-1.6 8.3.3 2.4 2 .8 3 .8 3M24.6 0H13.7c-2.8 0-2.8 4.1 1.4 4.1h3.6c2.8 0 6-4.1 6-4.1" fill="#ad743d"/><path d="M16.5 7.4c.4 3.5 3 6.2 5.6 6 2.7-.4 4.6-3.5 4.3-7-.4-3.6-2.9-6.3-5.6-6-2.7.3-4.6 3.4-4.3 7" fill="#ad743d"/><path d="M23 1c1.7.3 5 1.5 6.8 9 .7 2.6 1.4 6.3-.8 11.2-1.9 4.3-1 5.2.7 3.8 1.6-1.2 2-2.7 2.2-5 .2.5.4 1.1.3 2.2 3.6-2 3.6-6.7 2.2-11.1a5 5 0 0 1 1 2.1A10.8 10.8 0 0 0 26 .1c-4-.5-3 .9-3 .9" fill="#ad743d"/></g></svg>