<svg xmlns="http://www.w3.org/2000/svg" viewBox="0 0 45 45"><defs><clipPath id="a"><path d="M0 36h36V0H0v36z"/></clipPath></defs><g clip-path="url(#a)" transform="matrix(1.25 0 0 -1.25 0 45)"><path d="M13 30a6 6 0 1 0-12 0 6 6 0 0 0 12 0m22 0a6 6 0 1 0-12 0 6 6 0 0 0 12 0" fill="#c1694f"/><path d="M11 30a4 4 0 1 0-8 0 4 4 0 0 0 8 0m22 0a4 4 0 1 0-8 0 4 4 0 0 0 8 0" fill="#e6aaaa"/><path d="M35 14s-1.3 22-17 22S1 14 1 14C1 8.1 5.5 3.7 13.2 2.4a6 6 0 0 1 9.6 0C30.5 3.7 35 8 35 14" fill="#c1694f"/><path d="M22 6a4 4 0 1 0-8 0 4 4 0 0 0 8 0" fill="#dd2e44"/><path d="M18 16S7 12.3 7 9a6 6 0 0 1 11-3.3A6 6 0 0 1 29 9c0 3.3-11 7-11 7" fill="#d99e82"/><path d="M11 19s0 2 2 2 2-2 2-2v-2s0-2-2-2-2 2-2 2v2zm10 0s0 2 2 2 2-2 2-2v-2s0-2-2-2-2 2-2 2v2zm-7.9-8c-1.6-1 3.3-4 4.9-4s6.5 3 4.9 4-8.2 1-9.8 0" fill="#272b2b"/></g></svg>