<svg xmlns="http://www.w3.org/2000/svg" viewBox="0 0 45 45"><defs><clipPath id="a"><path d="M0 36h36V0H0v36z"/></clipPath></defs><g clip-path="url(#a)" transform="matrix(1.25 0 0 -1.25 0 45)"><path d="M13 30a6 6 0 1 0-12 0 6 6 0 0 0 12 0m22 0a6 6 0 1 0-12 0 6 6 0 0 0 12 0" fill="#272b2b"/><path d="M11 30a4 4 0 1 0-8 0 4 4 0 0 0 8 0m22 0a4 4 0 1 0-8 0 4 4 0 0 0 8 0" fill="#66757f"/><path d="M35 14c0-7-6.4-12-17-12S1 7 1 14c0 0 1.3 22 17 22s17-22 17-22" fill="#eee"/><path d="M24 6a6 6 0 1 0-12 0 6 6 0 0 0 12 0" fill="#ccd6dd"/><path d="M22 6a4 4 0 1 0-8 0 4 4 0 0 0 8 0" fill="#dd2e44"/><path d="M20.7 23.4C25.2 26 32 19 27 13.4c-3.5-4-7-2.4-7-2.4s-2.6 10.3.7 12.3m-5.4 0C10.8 26.1 4 19 9 13.3c3.5-3.9 7-2.3 7-2.3s2.6 10.3-.7 12.4" fill="#272b2b"/><path d="M11 19s0 2 2 2 2-2 2-2v-2s0-2-2-2-2 2-2 2v2z" fill="#66757f"/><path d="M18 16S7 12.3 7 9a6 6 0 0 1 11-3.3A6 6 0 0 1 29 9c0 3.3-11 7-11 7" fill="#fff"/><path d="M21 19s0 2 2 2 2-2 2-2v-2s0-2-2-2-2 2-2 2v2z" fill="#66757f"/><path d="M13.1 11c-1.6-1 3.3-4 4.9-4s6.5 3 4.9 4-8.2 1-9.8 0" fill="#272b2b"/></g></svg>