<svg xmlns="http://www.w3.org/2000/svg" viewBox="0 0 45 45"><defs><clipPath id="a"><path d="M0 36h36V0H0v36z"/></clipPath></defs><g clip-path="url(#a)" transform="matrix(1.25 0 0 -1.25 0 45)"><path d="M33 6.5c0 2.485-3.134 6.5-7 6.5l-.059-.003C25.441 22.251 21.722 36 18 36c-3.657 0-7.311-13.691-7.912-23.004-.028 0-.06.004-.088.004-3.866 0-7-4.015-7-6.5 0-2.326 5.257-3.364 9.21-5.128C13.472.276 15.342 0 18 0c2.253 0 3.941.267 5.173 1.081C27.17 3.026 33 4.05 33 6.5" fill="#ffdc5d"/><path d="M26 6c.544.099 2.104 2.421 2.104 4.077 0 2.062-.549 2.667-1.224 2.846A5.579 5.579 0 0 1 26 13c0-1 .137-2 .137-3.278C26.137 7 25.456 5.902 26 6M7.79 10.077C7.79 8.421 9.35 6.098 9.892 6c.544-.098-.136 1-.136 3.722 0 1.275.136 2.273.136 3.271a5.727 5.727 0 0 1-1.026-.118c-.606-.23-1.078-.889-1.078-2.798" fill="#ef9645"/><path d="M9.008 4.623c-1.562.454-3.05.216-3.741-.503 1.804-.893 4.38-1.648 6.618-2.609v.002c.338 1.155-.95 2.548-2.877 3.11M26.992 4.623c-1.927-.562-3.215-1.955-2.878-3.11a.008.008 0 0 0 .002-.004c2.237.961 4.813 1.718 6.617 2.61-.69.72-2.179.959-3.74.504" fill="#662113"/></g></svg>