<svg xmlns="http://www.w3.org/2000/svg" viewBox="0 0 45 45"><defs><clipPath id="a"><path d="M0 36h36V0H0v36z"/></clipPath></defs><g clip-path="url(#a)" transform="matrix(1.25 0 0 -1.25 0 45)"><path d="M34.956 18.084c0 .503-.12.976-.32 1.403-1.342 4.327-7.619 4.011-16.55 4.222-1.493.035-.64 1.797-.115 5.668.341 2.517-1.28 6.382-4.01 6.382-4.498 0-.17-3.548-4.149-12.321-2.125-4.688-6.875-2.063-6.875-6.771V5.948c0-1.834.181-3.595 2.758-3.885C8.195 1.781 7.633 0 11.238 0h18.044a3.337 3.337 0 0 1 3.333 3.334c0 .762-.266 1.456-.698 2.018 1.02.571 1.72 1.649 1.72 2.899 0 .761-.266 1.453-.697 2.015 1.024.57 1.726 1.649 1.726 2.901 0 .909-.368 1.733-.96 2.336a3.311 3.311 0 0 1 1.25 2.581" fill="#ffdb5e"/><path d="M23.02 14.751h8.604a3.351 3.351 0 0 1 2.866 1.633.876.876 0 0 1-1.506.892 1.59 1.59 0 0 0-1.361-.775h-8.81c-.873 0-1.583.71-1.583 1.583s.71 1.583 1.583 1.583H28.7a.875.875 0 0 1 0 1.75h-5.888a3.337 3.337 0 0 1-3.333-3.333c0-1.025.475-1.932 1.205-2.544a3.317 3.317 0 0 1-.998-2.373c0-1.028.478-1.937 1.212-2.55a3.321 3.321 0 0 1-.99-2.366c0-1.12.559-2.107 1.409-2.713a3.3 3.3 0 0 1-.853-2.204A3.337 3.337 0 0 1 23.798.001h5.485a3.35 3.35 0 0 1 2.867 1.632.875.875 0 0 1-1.504.894 1.597 1.597 0 0 0-1.363-.776h-5.485c-.873 0-1.583.71-1.583 1.583s.71 1.583 1.583 1.583h6.506c1.17 0 2.27.626 2.867 1.633a.874.874 0 1 1-1.505.894 1.57 1.57 0 0 0-1.363-.777h-7.062a1.585 1.585 0 0 0 0 3.167h8.091c1.17 0 2.268.625 2.867 1.632a.875.875 0 0 1-1.504.894 1.573 1.573 0 0 0-1.363-.776H23.02a1.585 1.585 0 0 0 0 3.167" fill="#ee9547"/></g></svg>