<svg xmlns="http://www.w3.org/2000/svg" viewBox="0 0 45 45"><defs><clipPath id="a"><path d="M0 36h36V0H0v36z"/></clipPath></defs><g clip-path="url(#a)" transform="matrix(1.25 0 0 -1.25 0 45)"><path d="M29 24c-4.7 3.5-6 6-8 6s-2-1-3-1-1 1-3 1-3.3-2.5-8-6c-4-3-7-3-7-5s5-6 8-9c2-2 5-4 10-4s8 2 10 4c3 3 8 7 8 9s-3 2-7 5" fill="#e75a70"/><path d="M28.4 20.5c-4.4 1.5-7.4 2-10.4 2s-6-.5-10.4-2C3.8 19.2 1 19.8 1 19s9-5 17-5 17 4.2 17 5c0 .8-2.8.3-6.6 1.5" fill="#662113"/><path d="M28.4 20.5c-4.4 1.5-7.4 2-10.4 2s-6-.5-10.4-2C4 19.3 1.2 19.8 1 19.1c2.5-.4 9.1.6 17 .6s14.5-1 17-.6c-.2.7-3 .2-6.6 1.4" fill="#fff"/></g></svg>