<svg xmlns="http://www.w3.org/2000/svg" viewBox="0 0 45 45"><defs><clipPath id="a"><path d="M0 36h36V0H0v36z"/></clipPath></defs><g clip-path="url(#a)" transform="matrix(1.25 0 0 -1.25 0 45)"><path d="M25 7.5a2.5 2.5 0 0 0-2.5 2l-4 22a2.5 2.5 0 0 0 2 3 2.5 2.5 0 0 0 3-2l4-22a2.5 2.5 0 0 0-2.5-3" fill="#ef9645"/><path d="M28.4 11.2c.2.8.1 1.6-.4 2.3l-1 1.3v.2c0 .5-2 2.6-3.7 4.6a73.7 73.7 0 0 1-4.5 5.2L17.5 26l-1.6-.8a79.2 79.2 0 0 0-8.7-3.8 2.5 2.5 0 1 1 1.6-4.8c.1 0 2.7 1 7.6 3.3a94.3 94.3 0 0 0 3.6-4.3l.7-1.1a.8.8 0 0 0 0-1L17 9.3a.8.8 0 0 0-.3-.3l-2.6-.8a.8.8 0 0 0-.5 0L9 9.7a12.1 12.1 0 0 0-.5 4 2.5 2.5 0 0 1-2.3 2.8 2.5 2.5 0 0 1-2.7-2.3c0-.2-.5-6.4 3.3-10.6A12 12 0 0 1 16 0h1.9a102.7 102.7 0 0 1 1.5 0c2.8 0 5 .2 6.8 2 1.6 1.5 2.3 4.1 2.3 8.5l-.1.7" fill="#ffdc5d"/><path d="M27 15a1 1 0 0 0-1 .6l-4 9a1 1 0 0 0 2 .8l4-9a1 1 0 0 0-1-1.4" fill="#ef9645"/><path d="M24.8 1.6l-1.6 4.8h-.1s1.8 1 2.4 6c.8 6-.8 9.5-.8 9.5v.3l-3.6 10A2.5 2.5 0 1 0 26 34l3.4-10c.4-.9 2-5.3 1.2-12.2-1-8.2-5-9.8-5.7-10" fill="#ffdc5d"/></g></svg>