<svg xmlns="http://www.w3.org/2000/svg" viewBox="0 0 45 45"><defs><clipPath id="a"><path d="M0 36h36V0H0v36z"/></clipPath></defs><g clip-path="url(#a)" transform="matrix(1.25 0 0 -1.25 0 45)"><path d="M35 18c0 .6-.2 1-.4 1.5-1.3 4.3-7.6 4-16.5 4.2-1.5 0-.7 1.8-.1 5.7.3 2.5-1.3 6.4-4 6.4-4.5 0-.2-3.6-4.2-12.4-2.1-4.7-6.9-2-6.9-6.7V5.9c0-1.8.2-3.6 2.8-3.8 2.5-.3 2-2.1 5.5-2.1h18a3.3 3.3 0 0 1 3.4 3.3 3.3 3.3 0 0 1-.7 2 3.3 3.3 0 0 1 1 5 3.3 3.3 0 0 1 .8 5.2 3.3 3.3 0 0 1 1.3 2.6" fill="#ffdb5e"/><path d="M23 14.8h8.6a3.4 3.4 0 0 1 2.9 1.6.9.9 0 0 1-1.5.9 1.6 1.6 0 0 0-1.4-.8h-8.8a1.6 1.6 0 0 0 0 3.2h5.9a.9.9 0 0 1 0 1.7h-5.9a3.3 3.3 0 0 1-3.3-3.3 3.3 3.3 0 0 1 1.2-2.6 3.3 3.3 0 0 1-1-2.3 3.3 3.3 0 0 1 1.2-2.6 3.3 3.3 0 0 1-1-2.4c0-1 .6-2 1.4-2.7a3.3 3.3 0 0 1-.8-2.2A3.3 3.3 0 0 1 23.8 0h5.5a3.4 3.4 0 0 1 2.9 1.6.9.9 0 0 1-1.6 1 1.6 1.6 0 0 0-1.3-.9h-5.5a1.6 1.6 0 0 0 0 3.2h6.5c1.2 0 2.3.6 2.9 1.6a.9.9 0 1 1-1.5 1 1.6 1.6 0 0 0-1.4-.8h-7a1.6 1.6 0 0 0 0 3.1h8c1.2 0 2.3.7 2.9 1.7a.9.9 0 0 1-1.5.9 1.6 1.6 0 0 0-1.4-.8H23a1.6 1.6 0 0 0 0 3.2" fill="#ee9547"/></g></svg>