<svg xmlns="http://www.w3.org/2000/svg" viewBox="0 0 45 45"><defs><clipPath id="a"><path d="M0 36h36V0H0v36z"/></clipPath></defs><g clip-path="url(#a)" transform="matrix(1.25 0 0 -1.25 0 45)"><path d="M1.7 13.7s-1.4 1.3 0 2.7c1.2 1.4 2.6 0 2.6 0l6.5-6c-.1.2.4 1 .4 1l-9 8.4S.8 21 2 22.5c1.3 1.4 2.6 0 2.6 0l8.5-7.8.6.8-9.8 9s-1.4 1.3-.1 2.7c1.3 1.4 2.7.1 2.7.1l9.8-9 .7.6-9.2 8.5S6.5 28.7 8 30c1.2 1.4 2.6 0 2.6 0l9.7-8.9c2.9-2.6 3.5-2 3.5-2L21 21.8l-3 2.7s-1.4 1.3 0 2.7c1.2 1.4 2.6.1 2.6.1l7.7-7.1a11.4 11.4 0 1 0-16.2-16L1.7 13.6z" fill="#ef9645"/><path d="M4.6 15.7s-1.4 1.3 0 2.6c1.2 1.4 2.6.1 2.6.1l6.5-6c-.1.1.4 1 .4 1l-9 8.3S3.7 23 5 24.4c1.3 1.4 2.6.1 2.6.1l8.5-7.8.6.7-9.8 9.1s-1.4 1.3-.1 2.7c1.3 1.4 2.7 0 2.7 0l9.8-9 .7.7-9.2 8.4s-1.4 1.3 0 2.7c1.2 1.4 2.6.1 2.6.1l9.7-9c2.8-2.6 3.5-1.9 3.5-1.9L24 23.6l-3 2.8s-1.4 1.3 0 2.7c1.2 1.4 2.6 0 2.6 0l7.7-7A11.4 11.4 0 1 0 15 6L4.6 15.6z" fill="#ffdc5d"/><path d="M24.5 29.5a1 1 0 0 0-.8 1.6l3 4a1 1 0 0 0 1.6-1.3l-3-3.9a1 1 0 0 0-.8-.4M19 29a1 1 0 0 0-1 1v5a1 1 0 0 0 2 0v-5a1 1 0 0 0-1-1m9.4-2.7a1 1 0 0 0-1 .7 1 1 0 0 0 .7 1.3l4.6 1.6a1 1 0 1 0 .6-1.8l-4.5-1.7a1 1 0 0 0-.4 0" fill="#ffac33"/></g></svg>