<svg xmlns="http://www.w3.org/2000/svg" viewBox="0 0 45 45"><defs><clipPath id="a"><path d="M0 36h36V0H0v36z"/></clipPath></defs><g clip-path="url(#a)" transform="matrix(1.25 0 0 -1.25 0 45)"><path d="M4.9 26.9c.9.6 2.3.5 3.2-.2L7 28c-.8 1.1-.5 2.3.6 3a2.5 2.5 0 0 0 3.4-.5L20 18l-8 12c-.8 1.1-.7 2.5.5 3.3a2.5 2.5 0 0 0 3.4-.6L26.3 18c.8-1.1.4-2.7-.7-3.5a2.4 2.4 0 0 0-.6-.3V5H15v3.1c-.1.1-1 .8-1 1L4.1 23.3a2.5 2.5 0 0 0 .7 3.5" fill="#ef9645"/><path d="M2.7 18.7s-1.1 1.6.5 2.7C5 22.6 6 21 6 21l5.3-7.6.5.9-7.3 10.6s-1 1.6.6 2.8 2.8-.6 2.8-.6l6.8-10 .8.7-8 11.6s-1 1.6.6 2.7 2.8-.5 2.8-.5L18.8 20l.9.5-7.5 10.9s-1 1.6.6 2.7 2.7-.5 2.7-.5l7.9-11.4.6-1 .6-.8a10 10 0 0 1-2.6-14c.6-.8 1.4-.2 1.4-.2C20 11.2 21 16.7 26 20l-1.5 7.3s-.5 1.9 1.4 2.5c2 .5 2.5-1.4 2.5-1.4l1.7-5a44.5 44.5 0 0 1 2.3-5.9A12 12 0 0 0 11.2 6.3L2.7 18.7z" fill="#ffdc5d"/><path d="M12 4c-4 0-8 4-8 8 0 .6-.4 1-1 1a1 1 0 0 1-1-1C2 6 6 2 12 2c.6 0 1 .5 1 1s-.5 1-1 1" fill="#77b255"/><path d="M7 2C4 2 2 4 2 7a1 1 0 1 1-2 0c0-4 3-7 7-7a1 1 0 1 1 0 2m17 32a1 1 0 0 1 0-2c4 0 8-3.6 8-8a1 1 0 0 1 2 0c0 5.5-4 10-10 10" fill="#77b255"/><path d="M29 36c-.6 0-1-.4-1-1s.5-1 1-1c3 0 5-2.3 5-5 0-.6.5-1 1-1s1 .5 1 1a6.9 6.9 0 0 1-7 7" fill="#77b255"/></g></svg>