<svg xmlns="http://www.w3.org/2000/svg" viewBox="0 0 45 45"><defs><clipPath id="a"><path d="M0 36h36V0H0v36z"/></clipPath></defs><g clip-path="url(#a)" transform="matrix(1.25 0 0 -1.25 0 45)"><path d="M20.1 5s-2.4.2-3 1.8c-.7 1.6.6 2.3.6 2.3s-2 0-2.6 2c-.7 1.8 1 2.7 1 2.7s-2 .3-2.5 2.3c-.4 1.6 1.2 2.9 1.2 2.9H2.6c-1 0-2.6.5-2.6 2.5S1.7 24 2.6 24H23c1 0 1 1 0 1h-2.7a9.4 9.4 0 0 0-6.8 2.8 3 3 0 0 0-.7 2.8c.4 2 1.9 1.5 3.2 1a42.2 42.2 0 0 1 9.5-2.6A12 12 0 0 0 36 17.1 12 12 0 0 0 24 5h-3.9z" fill="#ffdc5d"/></g></svg>