<svg xmlns="http://www.w3.org/2000/svg" viewBox="0 0 45 45"><defs><clipPath id="a"><path d="M0 36h36V0H0v36z"/></clipPath></defs><g clip-path="url(#a)" transform="matrix(1.25 0 0 -1.25 0 45)"><path d="M33 6.5C33 9 29.9 13 26 13c-.6 9.3-4.3 23-8 23s-7.3-13.7-8-23c-3.9 0-7-4-7-6.5 0-2.3 5.3-3.4 9.2-5.1C13.5.3 15.3 0 18 0c2.3 0 4 .3 5.2 1 4 2 9.8 3 9.8 5.5" fill="#ffdc5d"/><path d="M26 6c.5.1 2.1 2.4 2.1 4 0 2.1-.6 2.7-1.2 3a5.6 5.6 0 0 1-.9 0l.1-3.3C26.1 7 25.5 6 26 6M7.8 10c0-1.6 1.5-3.9 2-4 .6-.1 0 1 0 3.7V13a5.7 5.7 0 0 1-1-.1c-.5-.3-1-1-1-2.8" fill="#ef9645"/><path d="M9 4.6c-1.6.5-3 .2-3.7-.5 1.8-.9 4.3-1.6 6.6-2.6.3 1.2-1 2.6-2.9 3.1m18 0c-2-.5-3.2-2-2.9-3v-.1c2.3 1 4.8 1.7 6.6 2.6-.7.7-2.1 1-3.7.5" fill="#662113"/></g></svg>