<svg xmlns="http://www.w3.org/2000/svg" viewBox="0 0 45 45"><defs><clipPath id="a"><path d="M0 36h36V0H0v36z"/></clipPath></defs><g clip-path="url(#a)" transform="matrix(1.25 0 0 -1.25 0 45)"><path d="M31 22c-1-6-5-8-6-13-1.6-8-6.3-9-11-9-7.8 0-3.9 7.6-7 17-3 9-2.7 15.9 7 18 9.3 2 18.6-3.2 17-13" fill="#ffdc5d"/><path d="M24 14a1 1 0 0 0-.8 1.6l1.4 1.9c1.4 1.7 2.4 3 2.4 6.5 0 2.2-.8 4-2.3 5.3-2.2 1.7-5.8 2.4-9.5 1.7a5.8 5.8 0 0 1-4-2.6c-2.1-3.2-1-8.2-.9-8.3a1 1 0 0 0-2-.5c0 .3-1.4 6 1.1 9.9a7.8 7.8 0 0 0 5.4 3.5c4.2.8 8.5 0 11.1-2.2 2-1.7 3.1-4 3.1-6.8 0-4.2-1.4-6-2.8-7.8a26.4 26.4 0 0 1-1.4-1.8 1 1 0 0 0-.8-.4" fill="#ef9645"/><path d="M11.6 9a1 1 0 0 0-1 .6 3 3 0 0 0 0 2.6c.5 1.2 1.9 2 2.9 2.2 2 .7 3 3.3 2.4 5.2-.5 2-2.6 2.6-5.7 1.9a1 1 0 0 0-.4 2c4.9 1.1 7.4-1 8-3.4.9-2.7-.5-6.6-3.7-7.6-.6-.2-1.5-.6-1.7-1.1v-.9a1 1 0 0 0-.8-1.4" fill="#ef9645"/></g></svg>