<svg xmlns="http://www.w3.org/2000/svg" viewBox="0 0 45 45"><defs><clipPath id="a"><path d="M0 36h36V0H0v36z"/></clipPath><clipPath id="b"><path d="M2.2 18c0-3.8 7-9.9 15.8-9.9s15.8 7 15.8 9.9c0 3-7 9.9-15.8 9.9S2.2 20.9 2.2 18"/></clipPath><clipPath id="c"><path d="M0 36h36V0H0v36z"/></clipPath></defs><g clip-path="url(#a)" transform="matrix(1.25 0 0 -1.25 0 45)"><path d="M35 18c0-3.3-7.6-11-17-11S1 13.8 1 18c0 3.3 7.6 11 17 11s17-7.7 17-11" fill="#99aab5"/></g><g clip-path="url(#b)" transform="matrix(1.25 0 0 -1.25 0 45)"><path d="M33.8 18c0-2.9-7-9.7-15.8-9.7S2.2 14.3 2.2 18c0 3 7 9.7 15.8 9.7s15.8-6.8 15.8-9.7" fill="#f5f8fa"/><path d="M26.5 18a8.5 8.5 0 1 0-17 0 8.5 8.5 0 0 0 17 0" fill="#55acee"/></g><g clip-path="url(#c)" transform="matrix(1.25 0 0 -1.25 0 45)"><path d="M22.7 18a4.7 4.7 0 1 0-9.4 0 4.7 4.7 0 0 0 9.4 0" fill="#292f33"/><path d="M23 21a2 2 0 1 0-4 0 2 2 0 0 0 4 0" fill="#f5f8fa"/></g></svg>