<svg xmlns="http://www.w3.org/2000/svg" viewBox="0 0 45 45"><defs><clipPath id="a"><path d="M0 36h36V0H0v36z"/></clipPath></defs><g clip-path="url(#a)" transform="matrix(1.25 0 0 -1.25 0 45)"><path d="M18.2 34.1a1.8 1.8 0 0 0-1.8-1.8 1.8 1.8 0 0 0-1.8 1.9c0 1 .9 1.7 1.8 1.7a1.8 1.8 0 0 0 1.8-1.8" fill="#939598"/><path d="M33.8 21.5C36.6 5.3 36.8 3.9 19.5 4h-3.3C1 4.1-1.2 4.2 1.9 21.7 3.2 29.2 9.5 33 16.6 32.9h2.5c7 0 13.4-4 14.7-11.4" fill="#d1d3d4"/><path d="M20.3 34.1a1.8 1.8 0 0 0-1.8-1.8 1.8 1.8 0 0 0-1.8 1.8 1.8 1.8 0 0 0 1.8 1.8 1.8 1.8 0 0 0 1.8-1.8" fill="#d1d3d4"/><path d="M34.4 18.8C37.4 1.4 37.6-.1 19.6 0h-3.5C.4.2-1.9.3 1.3 19c1.4 8 8 12 15.3 12H19c7.3-.1 13.9-4.3 15.3-12.2" fill="#ea596e"/><path d="M16.1 30s-6.7-7.7-5-9.6c1.9-2 5 9.6 5 9.6m2.3 0s6.6-7.8 4.8-9.7c-1.8-2-4.8 9.7-4.8 9.7" fill="#dd2e44"/></g></svg>