<svg xmlns="http://www.w3.org/2000/svg" viewBox="0 0 45 45"><defs><clipPath id="a"><path d="M0 36h36V0H0v36z"/></clipPath></defs><g clip-path="url(#a)" transform="matrix(1.25 0 0 -1.25 0 45)"><path d="M36 15v.5c-.5 3-4 13.6-5 15.5-1 2-3.3 1.7-4 1-1-1-1-3 0-3s3 0 4-3c.8-2.4 1.7-6 2.3-8.4-1.6.8-4.2 1.2-6.9 1.2-2.9 0-5.2-.3-6.4-1l-2 .2a9 9 0 0 1-2-.2c-1.2.7-3.5 1-6.4 1-2.7 0-5.3-.4-6.9-1.2.6 2.4 1.5 6 2.3 8.4 1 3 3 3 4 3s1 2 0 3c-.7.7-3 1-4-1S.5 18.6 0 15.6a2.3 2.3 0 0 1 0-.5.4.4 0 0 1 0-.1c0-.8.5-1.5 1-1.5h.2c.3-2.7 1.2-5.6 2-6.4C5.3 5 11.7 5 13.8 7c1.3 1.3 2.5 5.3 3 7.8l1.2.1 1.2-.1c.5-2.5 1.7-6.5 3-7.8 2.1-2 8.5-2 10.6 0 .8.8 1.7 3.7 2 6.4h.1c.6 0 1 .7 1.1 1.5" fill="#292f33"/><path d="M14.9 13.9c0-1.2-1.1-4.2-2.4-5.5C11 7 6.3 7 4.7 8.4c-.7.8-1.5 2.7-1.5 5 0 1.6 3.1 2.2 6.4 2.2 3.2 0 5.3-.5 5.3-1.7m6.2 0c0-1.2 1.1-4.2 2.4-5.5C25 7 29.7 7 31.3 8.4c.7.8 1.5 2.7 1.5 5 0 1.6-3.1 2.2-6.4 2.2-3.1 0-5.3-.5-5.3-1.7" fill="#55acee"/></g></svg>