<svg xmlns="http://www.w3.org/2000/svg" viewBox="0 0 45 45"><defs><clipPath id="a"><path d="M0 36h36V0H0v36z"/></clipPath></defs><g clip-path="url(#a)" transform="matrix(1.25 0 0 -1.25 0 45)"><path d="M36 4a4 4 0 0 0-4-4H4a4 4 0 0 0-4 4v28a4 4 0 0 0 4 4h28a4 4 0 0 0 4-4V4z" fill="#88c9f9"/><path d="M19.3.6a2 2 0 0 0-2.6 0L10 7a2.5 2.5 0 0 0-.4 2.9L17 28.4c.5.9 1.3.9 1.8 0L26.4 10c.5-.9.3-2.2-.4-3L19.3.6z" fill="#dd2e44"/><path d="M18 21.3c1 0 2 1 2.9 2.2l-2 5c-.5.8-1.3.8-1.8 0l-2-5c.9-1.2 2-2.2 2.9-2.2" fill="#a0041e"/><path d="M23 30.2c0-2-2.8-7-5-7s-5 5-5 7c0 1.8 2.8 2.8 5 2.8s5-1 5-2.8" fill="#dd2e44"/><path d="M0 32v-2.3C2 27 6.8 22 8 22c2.2 0 11 10.8 11 13 0 1-1 1-2 1H4a4 4 0 0 1-4-4" fill="#4ca0d3"/><path d="M17 35c0-2.2 8.8-13 11-13 1.2 0 6 5 8 7.8V32a4 4 0 0 1-4 4H19c-1 0-2 0-2-1" fill="#4ca0d3"/><path d="M4 36a4 4 0 0 1-.8 0c1.2-1.7 7.4-3 14.8-3s13.6 1.3 14.8 3a4 4 0 0 1-.8 0H4z" fill="#269"/></g></svg>