<svg xmlns="http://www.w3.org/2000/svg" viewBox="0 0 45 45"><defs><clipPath id="a"><path d="M0 36h36V0H0v36z"/></clipPath></defs><g clip-path="url(#a)" transform="matrix(1.25 0 0 -1.25 0 45)"><path d="M29 11s-4-1-11-1-11 1-11 1 6-5 11-5 11 5 11 5m-11 7.1A10 10 0 0 0 8 28.2a10.1 10.1 0 0 0 3.3 7.5l1.4-1.5a8.1 8.1 0 0 1-2.7-6c0-4.4 3.6-8 8-8s8 3.6 8 8a8.1 8.1 0 0 1-2.7 6l1.4 1.5a10.1 10.1 0 0 0 3.3-7.5 10 10 0 0 0-10-10" fill="#553788"/><path d="M16.6 19.1S11.2 23 9 30.5c-.2-.2-4.4-5.7-2.2-10.2 2.2-4.6 10-1.2 10-1.2m2.7 0S25 24 27.2 30.5c.1-.3 4.4-5.7 2.2-10.2-2.2-4.6-10-1.2-10-1.2M29 11s-4-3-11-3-11 3-11 3 7.2-5.6 9-11h4c2 6.6 9 11 9 11" fill="#744eaa"/></g></svg>