<svg xmlns="http://www.w3.org/2000/svg" viewBox="0 0 45 45"><defs><clipPath id="a"><path d="M0 36h36V0H0v36z"/></clipPath></defs><path d="M27.5 0L25 13.2l7.5 20.6 11.3-1.1-6.3-29.2L31.2 0h-3.7zM13.7 0L7.5 3.5 1.2 32.6l11.3 1.1L20 13.3 17.5 0h-3.8z" fill="#3b88c3"/><path d="M13.8 45h17.4V6.2H13.9V45z" fill="#3b88c3"/><path d="M22.5 11l-8.8 6.5h2.6l6.3-6.4-.1-.2z" fill="#269"/><g clip-path="url(#a)" transform="matrix(1.25 0 0 -1.25 0 45)"><path d="M25 16s-1.2-1-7-1-7 1-7 1v6h14v-6z" fill="#88c9f9"/><path d="M25 18s-1.2-1-7-1-7 1-7 1v2h14v-2zm0 18l-7-9-7 9h14z" fill="#fff"/><path d="M20.3 36L18 33l-2.3 3h4.6z" fill="#99aab5"/><path d="M25 11v21l2-23-2 2zm-14 0v21L9 9l2 2z" fill="#269"/></g></svg>