<svg xmlns="http://www.w3.org/2000/svg" viewBox="0 0 45 45"><defs><clipPath id="a"><path d="M0 36h36V0H0v36z"/></clipPath></defs><g clip-path="url(#a)" transform="matrix(1.25 0 0 -1.25 0 45)"><path d="M19 10.5c-.6-.8-1.4-.8-2 0l-4.6 5a2.8 2.8 0 0 0 0 3l4.7 9c.5.8 1.3.8 1.8 0l4.7-9c.5-.9.5-2.1 0-3l-4.7-5z" fill="#f4900c"/><path d="M28.4 8.5c-.5-.8-1.3-.8-1.8 0l-4.7 5a2.8 2.8 0 0 0 0 3l6.7 9c.5.8 1.3.8 1.8 0l2.7-9c.5-.9.5-2.1 0-3l-4.7-5zm-19 0c-.5-.8-1.3-.8-1.8 0l-4.7 5a2.8 2.8 0 0 0 0 3l2.7 9c.5.8 1.3.8 1.8 0l6.7-9c.5-.9.5-2.1 0-3l-4.7-5z" fill="#f4900c"/><path d="M33 25a68.1 68.1 0 0 1-4-4.4l-4.6 8.9c-.5.8-1.3.8-1.8 0L18 20.6l-4.6 8.9c-.5.8-1.3.8-1.8 0L7 20.6A68 68 0 0 1 3 25c-1 1-2.5 1-2-1 1-4 1-7 1-12v-2a4 4 0 0 1 4-4h24a4 4 0 0 1 4 4v2c0 5 0 8 1 12 .5 2-1 2-2 1" fill="#ffcc4d"/><path d="M21 14a3 3 0 1 0-6 0 3 3 0 0 0 6 0m7 0a2 2 0 1 0-4 0 2 2 0 0 0 4 0m7 0a2 2 0 1 0-4 0 2 2 0 0 0 4 0m-23 0a2 2 0 1 0-4 0 2 2 0 0 0 4 0m-7 0a2 2 0 1 0-4 0 2 2 0 0 0 4 0" fill="#5c913b"/><path d="M34 10a4 4 0 0 0-4-4H6a4 4 0 0 0-4 4h32z" fill="#ffac33"/></g></svg>