<svg xmlns="http://www.w3.org/2000/svg" viewBox="0 0 45 45"><defs><clipPath id="a"><path d="M0 36h36V0H0v36z"/></clipPath></defs><g clip-path="url(#a)" transform="matrix(1.25 0 0 -1.25 0 45)"><path d="M28 14a1 1 0 0 0-1 1v6c0 6-4 11-9 11s-9-5-9-11v-6a1 1 0 1 0-2 0v6c0 7.2 5 13 11 13s11-5.8 11-13v-6a1 1 0 0 0-1-1" fill="#ffac33"/><path d="M33.4 23a4.6 4.6 0 0 1-4.5 4H7.1a4.6 4.6 0 0 1-4.5-4L.5 5A3.5 3.5 0 0 1 4 1h28c2.2 0 3.8 1.8 3.5 4l-2.1 18z" fill="#9266cc"/><path d="M28 16a1 1 0 0 0-1 1v6c0 6-4 11-9 11s-9-5-9-11v-6a1 1 0 1 0-2 0v6c0 7.2 5 13 11 13s11-5.8 11-13v-6a1 1 0 0 0-1-1" fill="#ffd983"/></g></svg>