<svg xmlns="http://www.w3.org/2000/svg" viewBox="0 0 45 45"><defs><clipPath id="a"><path d="M0 36h36V0H0v36z"/></clipPath></defs><g clip-path="url(#a)" transform="matrix(1.25 0 0 -1.25 0 45)"><path d="M36 13c0-2-8-5-18-5S0 11 0 13s8 5 18 5 18-3 18-5" fill="#ffd983"/><path d="M29 19c0-1.6-5-6-11-6S7 17.4 7 19c0 7 7 10 11 10s11-3 11-10" fill="#ffd983"/><path d="M29 15c-5-3-17-3-22 0v4c6-3 16-3 22 0v-4" fill="#9266cc"/><path d="M19 12c0-1.1-.5-2-1-2s-1 .9-1 2 .5 2 1 2 1-.9 1-2m0 6c0-1.1-.5-2-1-2s-1 .9-1 2 .5 2 1 2 1-.9 1-2" fill="#fff"/><path d="M16.6 12.2c-.8-.8-1.8-1.1-2.1-.7-.4.4-.1 1.3.7 2 .8.9 1.7 1.2 2 .8.5-.4.2-1.4-.6-2.1m4.2 4.2c-.7-.8-1.7-1-2-.7-.5.4-.2 1.3.6 2.1s1.7 1.1 2.1.7c.4-.4.1-1.3-.7-2" fill="#fff"/><path d="M15 14c-1.1 0-2 .5-2 1s.9 1 2 1 2-.5 2-1-.9-1-2-1m6 0c-1.1 0-2 .5-2 1s.9 1 2 1 2-.5 2-1-.9-1-2-1" fill="#fff"/><path d="M15.2 16.4c-.8.8-1.1 1.8-.7 2.1.4.4 1.3.1 2-.7.9-.8 1.2-1.7.8-2-.4-.5-1.3-.2-2.1.6m4.2-4.2c-.8.7-1 1.7-.7 2 .4.5 1.4.2 2.1-.6.8-.8 1.1-1.8.7-2.1-.4-.4-1.3-.1-2 .7" fill="#fff"/><path d="M20 15a2 2 0 1 0-4 0 2 2 0 0 0 4 0" fill="#ffac33"/></g></svg>