<svg xmlns="http://www.w3.org/2000/svg" viewBox="0 0 45 45"><defs><clipPath id="a"><path d="M0 36h36V0H0v36z"/></clipPath></defs><g clip-path="url(#a)" transform="matrix(1.25 0 0 -1.25 0 45)"><path d="M22.4 24.1L26 34h-1v2h-2v-2.2c-2.3-.3-5-1-5-2.8 0 1.8-2.7 2.5-5 2.8V36h-2v-2h-1l3.6-9.8L1 10.3S7 0 18 0s17 10.4 17 10.4L22.4 24.2z" fill="#55acee"/><path d="M23 23H13v2h10v-2z" fill="#bbddf5"/><path d="M15 23s-6.7-8.1-5-9c1.6-.9 5 9 5 9m6.1 0s6.7-8.1 5-9c-1.6-.9-5 9-5 9M18 23s-2-11 0-11 0 11 0 11" fill="#3b88c3"/></g></svg>