<svg xmlns="http://www.w3.org/2000/svg" viewBox="0 0 45 45"><defs><clipPath id="a"><path d="M0 36h36V0H0v36z"/></clipPath></defs><g clip-path="url(#a)" transform="matrix(1.25 0 0 -1.25 0 45)"><path d="M36 1.5A1.5 1.5 0 0 0 34.5 0h-33a1.5 1.5 0 1 0 0 3h33A1.5 1.5 0 0 0 36 1.5" fill="#ccd6dd"/><path d="M1.4 12.6s-.5 0-1-2.1S.1 6.4.1 3.8c0-.7 1-1 1-1l33.5-.1s1 .4 1 1c0 1.4-.6 5.3-5 5.3-1 0-5.3 0-8.5 2.3-1.2 1-5.9 2.9-8 4-2 1-2.2-3.8-6.4-3.8s-4.2 1.1-6.2 1.1" fill="#55acee"/><path d="M12.3 9l-.6 1.8c2.7.9 3.6 2.6 3.7 2.7l1.7-.8c-.1-.1-1.3-2.5-4.8-3.7M17 6.7l-.6 1.8a6.5 6.5 0 0 1 3.7 2.7l1.7-.8S20.5 8 17 6.7" fill="#269"/><path d="M35 2H1a1 1 0 1 0 0 2h34a1 1 0 1 0 0-2" fill="#3b88c3"/></g></svg>