<svg xmlns="http://www.w3.org/2000/svg" viewBox="0 0 45 45"><defs><clipPath id="a"><path d="M0 36h36V0H0v36z"/></clipPath></defs><g clip-path="url(#a)" transform="matrix(1.25 0 0 -1.25 0 45)"><path d="M4 16c-3 0-3.6-1.6-4-3 0-1 0-1 1-1l9.8-1.4 12.8-5.1L29 5s3.8-1 5.8 1c1 1 3.2 3.1-3.5 4.5-2.3.5-3.5.1-6.1.8-2.6.6-2.1-.5-4.2.7s-4 2.3-11.6 3.6C7 16 5 16 4 16" fill="#d99e82"/><path d="M35 3h-8c-5.6 0-15.4 6-17 6-.7 0-1-.1-1-4 0-2-1-2-1-2H1c-1 .3-1 2-1 2v8s4 1 10-.7C15.7 10.6 24 7 24 7h12c0-1 .2-4-1-4" fill="#c1694f"/><path d="M19.2 7.3L21.8 19c.4 1.2 8 0 8-2-.4-1.6-2-10.7-2-11 0-1.6-8.8 0-8.6 1.3" fill="#be1931"/></g></svg>