<svg xmlns="http://www.w3.org/2000/svg" viewBox="0 0 45 45"><defs><clipPath id="a"><path d="M0 36h36V0H0v36z"/></clipPath></defs><g clip-path="url(#a)" transform="matrix(1.25 0 0 -1.25 0 45)"><path d="M34.54 2.512s1.18-.215 1.18-1.256C35.72.213 34.676 0 33.634 0h-17.72C13.831 0 10 4 8 4l-.592-4H1v2.936C1 5.02.12 5.22.12 6.146c0 2.085.671 4.395.671 4.395L17.001 3l17.538-.488z" fill="#662113"/><path d="M25.45 8.889c-2.304 1.058-6.256 5.492-6.45 5.71-4.85 8.263 0 20.4 0 20.4s-1.916 1-7 1c-.674 0-1.343-.017-2-.048L9 35l-1 .819c-3.384-.288-6-.82-6-.82s1-15 1-17-.723-3.4-.723-3.4S.841 12.17.583 11.04c-.286-1.26.22-2.113 1.085-2.322C4.703 7.988 8 6.999 15.636 3.339c0 0 2.001-1.34 4.364-1.34h14.54s1.18.258 1.18 2.425c0 1.084-7.909 3.38-10.27 4.465" fill="#c1694f"/><path d="M10 16v19.951a51.895 51.895 0 0 1-2-.133V16h2z" fill="#d99e82"/></g></svg>