<svg xmlns="http://www.w3.org/2000/svg" viewBox="0 0 45 45"><defs><clipPath id="a"><path d="M0 36h36V0H0v36z"/></clipPath></defs><g clip-path="url(#a)" transform="matrix(1.25 0 0 -1.25 0 45)"><path d="M25.8 31.3a7.4 7.4 0 0 0 6.8-7.8c0-6.4-6.3-15.7-8.6-16-2.6-.2-4.2 1.5-4.2 4 0 2.7 4 4.4 2.2 8.4-1.9 4-2.4 11.4 3.8 11.4m7-2.2c-.4-.8-.3-1.6.3-2 .6-.3 1.4 0 1.8.8.4.7.3 1.6-.2 1.9-.6.3-1.4 0-1.8-.7m-3 2.8c0-.8.4-1.6 1-1.7.8 0 1.4.5 1.5 1.4.2.8-.3 1.6-1 1.7-.7 0-1.3-.5-1.4-1.4m-3.3 1.4c0-1 .6-1.7 1.4-1.7.7 0 1.3.8 1.3 1.7 0 1-.6 1.7-1.3 1.7s-1.4-.8-1.4-1.7M23 34c0-1 .7-1.9 1.5-1.9.7 0 1.4.9 1.4 1.9s-.7 1.8-1.4 1.8c-.8 0-1.5-.8-1.5-1.8m-5.3-2.2c.4-1.4 1.6-2.4 2.8-2 1.1.2 1.7 1.6 1.3 3-.3 1.5-1.6 2.5-2.7 2.2-1.1-.3-1.7-1.7-1.4-3.2M10 24.3a7.4 7.4 0 0 1-6.8-7.8C3 10.2 9.3.9 11.7.6 14.3.4 16 2 16 4.6c0 2.7-4 4.4-2.2 8.4 1.9 4 2.3 11.4-3.8 11.4M3 22c.4-.8.3-1.6-.3-2-.6-.3-1.4 0-1.8.8-.4.7-.3 1.6.2 1.9.6.3 1.4 0 1.8-.7m3 2.8c0-.8-.4-1.6-1-1.7-.8 0-1.4.5-1.5 1.4-.2.8.3 1.6 1 1.7.7 0 1.3-.5 1.4-1.4M9 26.3c0-1-.6-1.7-1.4-1.7-.7 0-1.3.8-1.3 1.7 0 1 .6 1.7 1.3 1.7.8 0 1.4-.8 1.4-1.7m3.8.7c0-1-.7-1.9-1.5-1.9S10 26 10 27s.6 1.8 1.4 1.8c.8 0 1.4-.8 1.4-1.8m5.4-2.2c-.4-1.4-1.7-2.4-2.8-2-1.1.2-1.7 1.6-1.4 3 .4 1.5 1.6 2.5 2.8 2.2 1.1-.3 1.7-1.7 1.4-3.2" fill="#662113"/></g></svg>