<svg xmlns="http://www.w3.org/2000/svg" viewBox="0 0 45 45"><defs><clipPath id="a"><path d="M0 36h36V0H0v36z"/></clipPath></defs><g clip-path="url(#a)" transform="matrix(1.25 0 0 -1.25 0 45)"><path d="M34.5 2.5s1.2-.2 1.2-1.2c0-1.1-1-1.3-2-1.3H15.8C14 0 10 4 8 4l-.6-4H1v3C1 5 .1 5.1.1 6c0 2.1.7 4.4.7 4.4L17 3l17.5-.5z" fill="#662113"/><path d="M25.4 8.9c-2.2 1-6.2 5.5-6.4 5.7-4.8 8.3 0 20.4 0 20.4s-2 1-7 1h-2l-1-1-1 .8c-3.4-.3-6-.8-6-.8s1-15 1-17-.7-3.4-.7-3.4S.8 12.2.6 11c-.3-1.2.2-2 1-2.3C4.8 8 8 7 15.7 3.3c0 0 2-1.3 4.4-1.3h14.5s1.2.3 1.2 2.4c0 1.1-7.9 3.4-10.3 4.5" fill="#c1694f"/><path d="M10 16v20a51.9 51.9 0 0 1-2-.2V16h2z" fill="#d99e82"/></g></svg>