<svg xmlns="http://www.w3.org/2000/svg" viewBox="0 0 45 45"><defs><clipPath id="a"><path d="M0 36h36V0H0v36z"/></clipPath></defs><g clip-path="url(#a)" transform="matrix(1.25 0 0 -1.25 0 45)"><path d="M36 25a2 2 0 1 1-4 0s0-3.3-3-3.9V24a11 11 0 0 1-22 0v-3.2c-5.2-1.6-7-8-7-11.8a2 2 0 0 1 4 0s0 3.5 3.3 4C7.8 8 9 3 11 3h1c4 0 3-2 7-2s3 2 6 2 2.4-2 6-2a3 3 0 0 1 3 3c0 .7-2.3 5-3.8 9.3C36 14.6 36 21.4 36 25" fill="#e1e8ed"/><path d="M15 24a2 2 0 1 0-4 0 2 2 0 0 0 4 0m12 0a4 4 0 1 0-8 0 4 4 0 0 0 8 0" fill="#292f33"/><path d="M25 23a2 2 0 1 0-4 0 2 2 0 0 0 4 0" fill="#9aaab4"/><path d="M22.2 16.5c2.6-2 3.6-5.2 2.1-7.2s-4.9-2-7.5 0c-2.7 2-3.6 5.2-2.1 7.2s4.8 2 7.5 0" fill="#292f33"/></g></svg>