<svg xmlns="http://www.w3.org/2000/svg" viewBox="0 0 45 45"><defs><clipPath id="a"><path d="M0 36h36V0H0v36z"/></clipPath></defs><g clip-path="url(#a)" transform="matrix(1.25 0 0 -1.25 0 45)"><path d="M35 19C35 9.6 21.8 0 18 0 14.2 0 1 9.6 1 19a17 17 0 1 0 34 0" fill="#ccd6dd"/><path d="M13.5 21.2c3.1-3.2 4.4-7 2.8-8.5-1.5-1.6-5.3-.3-8.5 2.8-3 3.1-4.4 7-2.8 8.5 1.6 1.6 5.4.3 8.5-2.8m9 0c-3.1-3.2-4.4-7-2.8-8.5 1.5-1.6 5.3-.3 8.5 2.8 3 3.1 4.4 7 2.8 8.5-1.6 1.6-5.4.3-8.5-2.8M18 5a5.3 5.3 0 0 0-3.7 1.3 1 1 0 0 0 1.4 1.4S16.5 7 18 7c1.5 0 2.3.7 2.3.7a1 1 0 0 0 1.4 0 1 1 0 0 0 0-1.4A5.3 5.3 0 0 0 18 5" fill="#292f33"/></g></svg>