<svg xmlns="http://www.w3.org/2000/svg" viewBox="0 0 45 45"><defs><clipPath id="a"><path d="M0 36h36V0H0v36z"/></clipPath></defs><g clip-path="url(#a)" transform="matrix(1.25 0 0 -1.25 0 45)"><path d="M18 32V5S-1-3 6 6C3 6 0 5 0 8s4 5 4 5-7 0-1 8c0 0-6 2 2 7 0 0-6 6 7 3 0 0 0 5 2 5s4-4 4-4m0 0V5s19-8 12 1c3 0 6-1 6 2s-4 5-4 5 7 0 1 8c0 0 6 2-2 7 0 0 6 6-7 3 0 0 0 5-2 5s-4-4-4-4" fill="#292f33"/><path d="M18 31V1h-4c-4 0-4 1-4 3 0 0-3 3-3 7 0 0-1.7 1.1-2 4-.3 2.7 1 5 2 5 0 0 .3 6.5 4 9 3 2 5 2 7 2m0 0V1h4c4 0 4 1 4 3 0 0 3 3 3 7 0 0 1.7 1.1 2 4 .2 2.7-1 5-2 5 0 0-.3 6.5-4 9-3 2-5 2-7 2" fill="#dd2e44"/><path d="M18 9c2.8 0 6.3 1 7.2 1.4.8.4 1.7-.4 1.4-1.9-.4-2-1.1-4.7-3.3-4.2C22.7 4.5 21 6 18 6v3zm0 0a21 21 0 0 0-7.3 1.4c-.9.4-1.8-.4-1.6-1.9.4-2 1.3-4.7 3.4-4.2C13.2 4.5 15 6 18 6v3z" fill="#292f33"/><path d="M25.7 7.3l-.8 3A21.9 21.9 0 0 0 18 8.9c-2.8 0-6.1 1-7.2 1.4l-.8-3a1 1 0 0 1 .7-1.3 1 1 0 0 1 1.2.7l.8 2.4c.9-.4 3-.7 5.3-.7 2.2 0 4.3.3 5.2.7l.6-2.4A1 1 0 0 1 25 6a1 1 0 0 1 .7 1.3" fill="#fff"/><path d="M23 6.1a.8.8 0 0 1-1.5.3l-.2-.6c-.3.2-1.8.6-3.3.6a9.7 9.7 0 0 1-3.5-.6l-.2.6a.8.8 0 0 1-.9.6.8.8 0 0 1-.6-1l.3-1.4C14.1 5 15.6 6 18 6c2.3 0 3.7-.8 4.6-1.3L23 6z" fill="#fff"/><path d="M13.5 21l-2.4.5a3 3 0 0 1-3.6-2.3 3 3 0 0 1 2.4-3.6l2.3-.5a3 3 0 0 1 3.6 2.3 3 3 0 0 1-2.3 3.6m9 .2l2.4.5a3 3 0 0 0 3.6-2.3 3 3 0 0 0-2.4-3.6l-2.3-.5a3 3 0 0 0-3.6 2.3 3 3 0 0 0 2.3 3.6" fill="#55acee"/><path d="M13.7 20.5l-2 .5a2.5 2.5 0 0 1-2.9-2 2.5 2.5 0 0 1 2-3l1.9-.4a2.5 2.5 0 0 1 3 2 2.5 2.5 0 0 1-2 3" fill="#ffcc4d"/><path d="M14.2 18.3a1.5 1.5 0 1 0-3 0 1.5 1.5 0 0 0 3 0" fill="#292f33"/><path d="M22.3 20.5l2 .5a2.5 2.5 0 0 0 2.9-2 2.5 2.5 0 0 0-2-3l-1.9-.4a2.5 2.5 0 0 0-3 2 2.5 2.5 0 0 0 2 3" fill="#ffcc4d"/><path d="M21.8 18.3a1.5 1.5 0 1 1 3 0 1.5 1.5 0 0 1-3 0" fill="#292f33"/><path d="M18 9.5c-1.9 0-2.6 1-2.9 1.9-.5-.2-1.4-.3-2 .1-.2.2-.6.7-.6 1.5a.5.5 0 0 0 1 0c0-.5.2-.6.2-.6.4-.3 1.3 0 1.6 0a.5.5 0 0 0 .7-.4c0-.1 0-1.5 2-1.5s2 1.4 2 1.5c0 .2 0 .3.2.4a.5.5 0 0 0 .5 0c.3 0 1.2-.3 1.6 0 0 0 .2.1.2.6a.5.5 0 0 0 1 0c0-.8-.4-1.2-.7-1.5-.6-.4-1.4-.3-1.9-.1-.3-.9-1-1.9-2.9-1.9" fill="#a0041e"/><path d="M23.7 1.9c-.7 0-1.3.3-2 .8-1 .8-1.9 1.5-3.7 1.5s-2.7-.7-3.7-1.5c-1.2-1-2.4-1-3.6 0a.5.5 0 0 0 .6.8c.8-.7 1.6-.7 2.4 0 1 .8 2.1 1.7 4.3 1.7 2.2 0 3.3-.9 4.3-1.7.6-.5 1.1-.7 1.5-.6.5 0 .8.5.8.5a.5.5 0 1 0 .8-.6A2.1 2.1 0 0 0 24 2a2.1 2.1 0 0 0-.3 0" fill="#be1931"/><path d="M13.9 26.5v.2a1 1 0 0 1-.5 1.2S11 29 8 35.4l-.1.1a1.1 1.1 0 0 1-.2.2 1 1 0 0 1-.3.2h-.1a1 1 0 0 1-.3.1h-.3l-.2-.2h-.2v-.2a.5.5 0 0 1-.2-.2v-.3L6 35c0-.3 0-6.6 5.5-9.9a1 1 0 0 1 1 0 1 1 0 0 1 1.4 1.4m16 8.5a1 1 0 0 1 0 .3v.1l-.1.2-.1.1-.2.1-.1.1H29l-.1.1a1 1 0 0 1-.3 0 1 1 0 0 1-.6-.6c-2.7-6.4-5.4-7.5-5.4-7.5a1 1 0 0 1-.6-1.4 1 1 0 0 1 1.3-1.4h.1a1 1 0 0 1 1 0A12 12 0 0 1 30 35" fill="#f4900c"/><path d="M15 20a13 13 0 0 0-7.5 2.2 1 1 0 0 0 1 1.6s3-1.8 6.5-1.8a1 1 0 0 0 0-2m6 0a1 1 0 1 0 0 2c3.6 0 6.4 1.8 6.5 1.8a1 1 0 1 0 1-1.6c0-.1-3.3-2.2-7.5-2.2" fill="#292f33"/></g></svg>