<svg xmlns="http://www.w3.org/2000/svg" viewBox="0 0 45 45"><defs><clipPath id="a"><path d="M0 36h36V0H0v36z"/></clipPath></defs><g clip-path="url(#a)" transform="matrix(1.25 0 0 -1.25 0 45)"><path d="M28 15c0-2.2-3-15-9-15h-8C5 0 2 12.8 2 15v17a4 4 0 0 0 4 4h18a4 4 0 0 0 4-4V15z" fill="#da2f47"/><path d="M14.4 26.8c2.2-2.3 2.8-5.5 1.3-7-1.4-1.6-4.3-1-6.4 1.4-2.1 2.3-2.7 5.5-1.3 7 1.4 1.6 4.3 1 6.4-1.4" fill="#f5f8fa"/><path d="M16 23.3c.5-.8.5-2 0-2.8-.7-.8-1.7-.8-2.3 0a2.4 2.4 0 0 0 0 2.8c.6.8 1.6.8 2.2 0" fill="#292f33"/><path d="M21.7 26.7c-1.8-2.3-2.3-5.5-1-7 1.1-1.6 3.6-1 5.4 1.4 1.9 2.3 2.3 5.5 1.1 7-1.2 1.6-3.6 1-5.5-1.4" fill="#f5f8fa"/><path d="M21.2 23.2a2.4 2.4 0 0 1 0-2.8c.6-.8 1.6-.8 2.2 0a2.4 2.4 0 0 1 0 2.8c-.6.8-1.6.8-2.2 0m-.3 1.8a2 2 0 0 0-1.6 3.2l4.7 6a2 2 0 0 0 3.1-2.4l-4.6-6a2 2 0 0 0-1.6-.8m-4.7 0a2 2 0 0 0-1.6.8l-4.6 6a2 2 0 0 0 3.1 2.4l4.7-6a2 2 0 0 0-1.6-3.2" fill="#292f33"/><path d="M24 5a2 2 0 0 0-1.9 1.3C22.1 6.6 21 9 18 9s-4-2.4-4.1-2.7A2 2 0 0 0 11.3 5 2 2 0 0 0 10 7.8a8.5 8.5 0 0 0 15.8 0A2 2 0 0 0 24 5" fill="#fdd888"/><path d="M18.6 14s4.4.6 7-4c2.8-5 2.8 5 2.1 6-.7 1-1.4-1.4-2.8-.9-2.8 1-6.3-1.1-6.3-1.1m0 0s-6 .6-9.3-4c-3.7-5-3.7 5-2.8 6 1 1 2-1.7 3.7-1.2 3.7 1 8.4-.8 8.4-.8" fill="#292f33"/><path d="M32.3 21H18.2c-1.6 0-2.8-1.3-2.8-3s1.2-3 2.8-3h14.1c1.5 0 2.7 1.3 2.7 3s-1.2 3-2.7 3" fill="#e75a70"/></g></svg>