<svg xmlns="http://www.w3.org/2000/svg" viewBox="0 0 45 45"><defs><clipPath id="a"><path d="M0 36h36V0H0v36z"/></clipPath></defs><g clip-path="url(#a)" transform="matrix(1.25 0 0 -1.25 0 45)"><path d="M18 32V5S-1-3 6 6C3 6 0 5 0 8s4 5 4 5-7 0-1 8c0 0-6 2.001 2 7 0 0-6 6.072 7 3 0 0 0 5 2 5s4-4 4-4M18 32V5s19-8 12 1c3 0 6-1 6 2s-4 5-4 5 7 0 1 8c0 0 6 2.001-2 7 0 0 6 6.018-7 3 0 0 0 5-2 5s-4-4-4-4" fill="#292f33"/><path d="M18 31V1h-4c-4 0-4 1-4 3 0 0-3 3-3 7 0 0-1.711 1.111-2 4-.271 2.709 1 5 2 5 0 0 .279 6.519 4 9 3 2 4.911 2 7 2M18 31V1h3.963c4.037 0 4 1 4 3 0 0 3 3 3 7 0 0 1.711 1.111 2 4 .271 2.709-1 5-2 5 0 0-.261 6.519-3.981 9-3 2-4.982 2-6.982 2" fill="#dd2e44"/><path d="M18 8.911c2.8 0 6.333 1.022 7.178 1.467.844.444 1.689-.344 1.422-1.867-.363-2.074-1.122-4.684-3.255-4.195C22.645 4.476 21.022 6 18 6v2.911zM18 8.911c-3 0-6.508 1.022-7.353 1.467-.844.444-1.776-.344-1.509-1.867.362-2.074 1.253-4.684 3.386-4.195C13.224 4.476 15 6 18 6v2.911z" fill="#292f33"/><path d="M25.721 7.259l-.805 3C23.761 9.774 20.574 8.91 18 8.91c-2.835 0-6.12.913-7.187 1.388l-.815-3.04a1.004 1.004 0 0 1 .708-1.225 1.003 1.003 0 0 1 1.224.707l.748 2.33c.892-.342 3.114-.663 5.322-.66 2.161.005 4.308.325 5.18.66l.616-2.33a.998.998 0 0 1 1.22-.707c.531.143.847.694.705 1.225" fill="#fff"/><path d="M22.93 6.094a.75.75 0 0 1-1.468.312l-.119-.643c-.35.19-1.839.646-3.344.65-1.553.001-3.125-.456-3.483-.65l-.199.643c-.085.403-.517.663-.92.577a.76.76 0 0 1-.593-.889l.318-1.514C14.038 5.06 15.632 6 18 6c2.254 0 3.728-.847 4.623-1.345l.306 1.44z" fill="#fff"/><path d="M13.496 21.016l-2.38.506a3.05 3.05 0 0 1-3.607-2.343 3.05 3.05 0 0 1 2.343-3.607l2.38-.505a3.048 3.048 0 0 1 3.606 2.342 3.05 3.05 0 0 1-2.342 3.607M22.504 21.255l2.38.506a3.05 3.05 0 0 0 3.607-2.343 3.05 3.05 0 0 0-2.343-3.607l-2.379-.505a3.049 3.049 0 0 0-3.607 2.342 3.05 3.05 0 0 0 2.342 3.607" fill="#55acee"/><path d="M13.737 20.53l-1.956.416a2.507 2.507 0 0 1-2.965-1.926 2.507 2.507 0 0 1 1.925-2.965l1.956-.416a2.508 2.508 0 0 1 2.966 1.926 2.507 2.507 0 0 1-1.926 2.965" fill="#ffcc4d"/><path d="M14.24 18.292a1.5 1.5 0 1 0-3 0 1.5 1.5 0 0 0 3 0" fill="#292f33"/><path d="M22.263 20.53l1.956.416a2.507 2.507 0 0 0 2.965-1.926 2.507 2.507 0 0 0-1.925-2.965l-1.956-.416a2.508 2.508 0 0 0-2.966 1.926 2.507 2.507 0 0 0 1.926 2.965" fill="#ffcc4d"/><path d="M21.76 18.292a1.5 1.5 0 1 1 3 0 1.5 1.5 0 0 1-3 0" fill="#292f33"/><path d="M18 9.5c-1.86 0-2.647 1.005-2.901 1.855-.543-.128-1.345-.209-1.929.187-.305.207-.67.628-.67 1.458a.5.5 0 0 0 1 0c0-.474.173-.591.23-.63.374-.254 1.23-.046 1.585.095A.502.502 0 0 0 16 12c.003-.149.083-1.5 2-1.5 1.978 0 2 1.439 2 1.5 0 .166.082.32.22.413a.496.496 0 0 0 .465.052c.356-.142 1.211-.35 1.585-.095.056.039.23.156.23.63a.5.5 0 0 0 1 0c0-.83-.364-1.251-.671-1.458-.584-.396-1.386-.315-1.929-.187-.252-.85-1.041-1.855-2.9-1.855" fill="#a0041e"/><path d="M23.663 1.905c-.63 0-1.292.273-1.975.816-.96.765-1.864 1.485-3.688 1.485s-2.729-.72-3.687-1.483c-1.186-.945-2.439-.944-3.625-.002a.501.501 0 0 0 .623.784c.822-.655 1.556-.655 2.377 0 1.004.797 2.14 1.701 4.312 1.701 2.174 0 3.308-.904 4.31-1.7.578-.46 1.095-.655 1.531-.587.476.075.728.45.738.465.151.228.46.295.69.147.23-.149.3-.452.155-.684a2.154 2.154 0 0 0-1.404-.912 2.133 2.133 0 0 0-.357-.03" fill="#be1931"/><path d="M13.86 26.511c.028.05.05.101.07.156.184.512-.046 1.08-.553 1.275C13.35 27.952 11 29.035 8 35.39v.004c0 .058-.11.1-.143.151a1.15 1.15 0 0 1-.131.164c-.09.09-.206.16-.321.21-.031.012-.075.012-.11.022a.981.981 0 0 1-.273.055c-.007 0-.014.004-.02.004-.05 0-.091-.02-.138-.028-.067-.008-.133-.006-.198-.029-.01-.004-.017-.012-.027-.015-.058-.023-.106-.06-.158-.094-.057-.035-.116-.065-.164-.11-.04-.038-.067-.086-.101-.13-.042-.056-.086-.109-.116-.173-.023-.048-.031-.1-.046-.154-.02-.07-.04-.14-.044-.216-.001-.018-.01-.033-.01-.05 0-.269.063-6.604 5.486-9.858a.99.99 0 0 1 1.014-.007c.018-.009.035-.02.053-.03a1 1 0 0 1 1.307 1.405M29.99 35.05a.931.931 0 0 1-.044.216c-.015.053-.023.107-.046.156-.029.062-.072.112-.113.167-.034.046-.063.096-.105.135-.046.043-.102.072-.156.106-.055.034-.104.074-.165.097-.01.004-.017.012-.026.016-.066.023-.13.02-.198.03-.045.006-.086.027-.134.027H29c-.007 0-.012-.004-.019-.004a1.013 1.013 0 0 1-.297-.06c-.024-.009-.052-.008-.077-.018a.991.991 0 0 1-.526-.524c-2.726-6.359-5.392-7.442-5.398-7.445a1 1 0 0 1-.549-1.449 1 1 0 0 1 1.313-1.394c.02.01.034.021.053.03a1 1 0 0 1 1.014.007C29.937 28.397 30 34.733 30 35.001c0 .017-.009.032-.01.05" fill="#f4900c"/><path d="M15 20c-4.254 0-7.422 2.08-7.555 2.168a1 1 0 0 0 1.108 1.665C8.581 23.815 11.372 22 15 22a1 1 0 0 0 0-2M21 20a1 1 0 1 0 0 2c3.655 0 6.418 1.814 6.445 1.832a1 1 0 1 0 1.11-1.664C28.422 22.08 25.254 20 21 20" fill="#292f33"/></g></svg>