<svg xmlns="http://www.w3.org/2000/svg" viewBox="0 0 45 45"><defs><clipPath id="a"><path d="M0 36h36V0H0v36z"/></clipPath></defs><g clip-path="url(#a)" transform="matrix(1.25 0 0 -1.25 0 45)"><path d="M36 17.5c0 1.6-1 3-2.3 3.4a16 16 0 0 1-31.4 0C1 20.5 0 19 0 17.5c0-1.7 1-3.2 2.5-3.4a16 16 0 0 1 31 0c1.4.2 2.5 1.7 2.5 3.4" fill="#ffdc5d"/><path d="M18 11c-3 0-4 1-4-1s2-4 4-4 4 2 4 4-1 1-4 1m7 6.5a2.5 2.5 0 1 0-5 0 2.5 2.5 0 0 0 5 0m-9 0a2.5 2.5 0 1 0-5 0 2.5 2.5 0 0 0 5 0" fill="#662214"/><path d="M18 10h2V9s0-1-1-1-1 1-1 1v1z" fill="#fff"/><path d="M18 25a4.4 4.4 0 0 0-3.2 1.3 3.7 3.7 0 0 0-1 2.9 1 1 0 0 0 1 .9 1 1 0 0 0 1-1 1.8 1.8 0 0 1 .4-1.4A2.4 2.4 0 0 1 18 27c.6 0 1.2.2 1.7.7a3.3 3.3 0 0 1 0 4.6 4.4 4.4 0 0 1-6.2 0 1 1 0 1 0-1.4 1.5 6.4 6.4 0 0 0 9 0 5.3 5.3 0 0 0 0-7.5A4.4 4.4 0 0 0 18 25" fill="#ef9645"/></g></svg>