<svg xmlns="http://www.w3.org/2000/svg" viewBox="0 0 45 45"><defs><clipPath id="a"><path d="M0 36h36V0H0v36z"/></clipPath></defs><g clip-path="url(#a)" transform="matrix(1.25 0 0 -1.25 0 45)"><path d="M0 5.9v-.6l.1-.2C.7 2.2 4.4 0 8.9 0c4.5 0 8.3 2.2 8.9 5.1V6A3 3 0 0 1 15 9a3 3 0 0 1-3-3v.2c0 1.7-1.3 3-3 3s-3-1.3-3-3V6a3 3 0 0 1-3 3 3 3 0 0 1-3-3m18 0a.2.2 0 0 1 0-.1l.1-.4v-.4c.7-2.9 4.4-5.1 9-5.1s8.1 2.2 8.8 5.1V6a3 3 0 0 1-3 3A3 3 0 0 1 30 6v.2a3 3 0 0 1-3 3 3 3 0 0 1-3-3V6c0 1.6-1.3 3-3 3s-2.9-1.4-3-3" fill="#e1e8ed"/><path d="M30 15a12 12 0 1 0-24 0 12 12 0 0 0 24 0" fill="#ffdc5d"/><path d="M18 30.8a13.5 13.5 0 0 1-12.3-19 .5.5 0 0 1 1 .1c.3 2.8 2.5 4.7 4.4 6.5 1.8 1.6 3.5 3 3.5 5 6.5-1.2 14-6 14.8-11.5a.5.5 0 0 1 1-.1 13.4 13.4 0 0 1 1.1 5.5c0 7.4-6 13.5-13.5 13.5" fill="#ffac33"/><path d="M14 9h8s-1-2-4-2-4 2-4 2m2 5a1 1 0 1 0-2 0v2a1 1 0 1 0 2 0v-2zm6 0a1 1 0 1 0-2 0v2a1 1 0 1 0 2 0v-2z" fill="#662113"/><path d="M18 27c-5 0-9 1.6-9 3.5s4 3.5 9 3.5 9-1.6 9-3.5-4-3.5-9-3.5m0 9c-6.6 0-12-2.7-12-6s5.4-6 12-6 12 2.7 12 6-5.4 6-12 6" fill="#8ccaf7"/></g></svg>