<svg xmlns="http://www.w3.org/2000/svg" viewBox="0 0 45 45"><defs><clipPath id="a"><path d="M0 36h36V0H0v36z"/></clipPath></defs><g clip-path="url(#a)" transform="matrix(1.25 0 0 -1.25 0 45)"><path d="M27 0v4s0 4 4 4 4-4 4-4V0h-8zm-9 0v9s0 4 4 4 4-4 4-4V0h-8zM9 0v12s0 4 4 4 4-4 4-4V0H9zM0 0v9s0 4 4 4 4-4 4-4V0H0z" fill="#ffdc5d"/><path d="M16 12c0 1.7 0 8-3 8s-3-6.3-3-8a3 3 0 1 1 6 0M7 9c0 1.7 0 8-3 8s-3-6.3-3-8a3 3 0 1 1 6 0m18 0c0 1.7 0 8-3 8s-3-6.3-3-8a3 3 0 0 1 6 0m9-5c0 1.7 0 8-3 8s-3-6.3-3-8a3 3 0 0 1 6 0" fill="#dd2e44"/><path d="M13 20v-4h2s2 0 6 4l-2 2s-2-2-6-2" fill="#dd2e44"/><path d="M19 22l8 8 2-2-8-8-2 2zm8 8s-2 2 0 4l2 2h7v-5l-3-3c-2-2-4 0-4 0l-2 2z" fill="#8899a6"/></g></svg>