<svg xmlns="http://www.w3.org/2000/svg" viewBox="0 0 45 45"><defs><clipPath id="a"><path d="M0 36h36V0H0v36z"/></clipPath></defs><g clip-path="url(#a)" transform="matrix(1.25 0 0 -1.25 0 45)"><path d="M25 25a1 1 0 0 0-.6 1.8l7.7 7.8a1 1 0 0 0 1.5-1.5l-7.8-7.7a1 1 0 0 0-.7-.3" fill="#66757f"/><path d="M6.7 3.4a2 2 0 0 0-2.8 0L2.4 5a2 2 0 0 0 0 2.8l5 5a2 2 0 0 0 2.8 0l1.4-1.5a2 2 0 0 0 0-2.8l-5-5z" fill="#ccd6dd"/><path d="M26.8 23.6a1.5 1.5 0 0 0-2 0l-2.2 2.1a1.5 1.5 0 0 0 2.1 2.1l2.1-2a1.5 1.5 0 0 0 0-2.2" fill="#99aab5"/><path d="M14.5 8.4a2 2 0 0 0-2.9 0l-4.2 4.2a2 2 0 0 0 0 2.9l12 12a2 2 0 0 0 2.8 0l4.3-4.3a2 2 0 0 0 0-2.8l-12-12z" fill="#e1e8ed"/><path d="M18.7 12.6c-.8-.7-1.3 0-2.1.7l-4.3 4.3c-.7.8-1.4 1.3-.7 2.1l7.8 7.8a2 2 0 0 0 2.8 0l4.3-4.3a2 2 0 0 0 0-2.8l-7.8-7.8z" fill="#dd2e44"/><path d="M14.8 6a1.5 1.5 0 0 0-2.1 0l-7.8 7.7A1.5 1.5 0 0 0 7 15.8L14.8 8a1.5 1.5 0 0 0 0-2m-7-4.3a1.5 1.5 0 0 0-2.2 0l-5 5a1.5 1.5 0 1 0 2.2 2l5-4.9a1.5 1.5 0 0 0 0-2.1" fill="#99aab5"/><path d="M33.9 19.5c-.4.6-.9 1.4-1.5 2.7-.2.2-.6.2-.7 0L30 19.5c-.5-.8-.8-1.3-.8-2.2a2.7 2.7 0 0 1 2.7-2.7 2.7 2.7 0 0 1 2.7 2.7c0 .9-.3 1.4-.8 2.2m-4-9l-1.6 2.7c0 .2-.5.2-.7 0-.6-1.3-1.1-2.1-1.5-2.7-.5-.8-.8-1.3-.8-2.2A2.7 2.7 0 0 1 28 5.6a2.7 2.7 0 0 1 2.7 2.7c0 .9-.3 1.4-.8 2.2" fill="#dd2e44"/></g></svg>