<svg xmlns="http://www.w3.org/2000/svg" viewBox="0 0 45 45"><defs><clipPath id="a"><path d="M0 36h36V0H0v36z"/></clipPath></defs><g clip-path="url(#a)" transform="matrix(1.25 0 0 -1.25 0 45)"><path d="M34 20c0 10-7.2 16-16 16S2 30 2 20C2 14.4 2 9.6 8 7.4V3a3 3 0 1 1 6 0v3.1a41 41 0 0 1 1 0V3a3 3 0 1 1 6 0v3l1 .2V3a3 3 0 0 1 6 0v4.4c6 2.2 6 7 6 12.6" fill="#ccd6dd"/><path d="M16 22c0-2.8 0-5-5-5s-5 2.2-5 5a5 5 0 0 0 10 0m14 0c0-2.8 0-5-5-5s-5 2.2-5 5a5 5 0 1 0 10 0m-10.1-9c-.3.5-1 1-1.9 1-.9 0-1.6-.5-1.9-1a1.5 1.5 0 0 1 .4-3c.7 0 1.2.4 1.4 1h.2a1.5 1.5 0 1 1 1.8 2" fill="#292f33"/></g></svg>