<svg xmlns="http://www.w3.org/2000/svg" viewBox="0 0 45 45"><defs><clipPath id="a"><path d="M0 36h36V0H0v36z"/></clipPath></defs><g clip-path="url(#a)" transform="matrix(1.25 0 0 -1.25 0 45)"><path d="M16.5 35.8c2.3 0 4.8-1.4 6.7-3.3 1.9-1.8 3.8-4 3.8-6V9.3H11v17.1c0 1.5 1.1 9.4 5.5 9.4" fill="#ea596e"/><path d="M19 24.6V8c0-1.1.9 0 2 0V6a2 2 0 0 1 2 2v15.7c-1.3 0-2.6.2-4 1" fill="#dd2e44"/><path d="M22 32.5c2.7-2.4 4.4-5.2 3-6.7-1.3-1.4-5-1-7.7 1.4-2.6 2.4-3.7 5.6-2.4 7 1.3 1.5 4.5.7 7.2-1.7" fill="#f4abba"/><path d="M30 2a2 2 0 0 0-2-2H10a2 2 0 0 0-2 2v6a2 2 0 0 0 2 2h18a2 2 0 0 0 2-2V2z" fill="#ffcc4d"/><path d="M31 2a2 2 0 0 0-2-2H9a2 2 0 0 0-2 2v1a2 2 0 0 0 2 2h20a2 2 0 0 0 2-2V2z" fill="#ffac33"/></g></svg>