<svg xmlns="http://www.w3.org/2000/svg" viewBox="0 0 45 45"><defs><clipPath id="a"><path d="M0 36h36V0H0v36z"/></clipPath></defs><g clip-path="url(#a)" transform="matrix(1.25 0 0 -1.25 0 45)"><path d="M35 5c-1.4 2.3-3.3 5-5.3 8-5.1 8.7-1.5 18.3-2.8 21.4-.6 1.3-4-1-5.6-4.5a3.8 3.8 0 0 1-1.2.1c.2 2.4.3 4.3-.2 5.4-.7 1.6-5.8-2.4-6.4-7.7-1.9-1-3.2-2-3.2-2l-2-3.2C3 22-1 16.8.6 16.1c1-.6 3-.4 5.4-.3a3.8 3.8 0 0 1 .1-1.1C2.5 13 .3 9.7 1.6 9.1c3.2-1.4 13.8 2.7 23-3.9l.6-.3L31 1c2.9-1.8 4 0 4 0s1.8 1.2 0 4" fill="#3e721d"/><path d="M35 1.2c.4.5.4 1.3-.1 1.7C34.9 3 23 18.7 21 26.7c-2 7.8-4.5 5.7-3.7-.5a25 25 0 0 1 3.8-9.4l-9 9a1.4 1.4 0 1 1-2-2l9-9c-3.3 2-6.6 3.5-9.4 3.8-6.2.7-8.4-1.7-.5-3.7C17.3 13 33 1.1 33 1.1a1.4 1.4 0 0 1 1.8-.2l.1.1a.2.2 0 0 1 .1.1" fill="#77b255"/><path d="M13.8 29.1a4.8 4.8 0 0 0-.2-6.7c-2-2-3.8-.8-5.6 1-1.8 1.8-2.9 3.6-1 5.5a4.8 4.8 0 0 0 6.8.2" fill="#dd2e44"/><path d="M12.6 28c1.8-1.8 2.9-3.7 1-5.6a4.8 4.8 0 0 0-6.8-.2C5 24 5.8 27.8 6 30c.1 2.7 4.5.2 6.7-2" fill="#ea596e"/><path d="M22.7 20.2a4.8 4.8 0 0 0-.2-6.7c-2-1.9-3.8-.8-5.6 1-1.8 1.8-2.9 3.6-1 5.6a4.8 4.8 0 0 0 6.8.1" fill="#dd2e44"/><path d="M21.5 19c1.8-1.7 2.9-3.6 1-5.5a4.8 4.8 0 0 0-6.8-.2c-1.7 1.8-1 5.6-.8 7.8 0 2.7 4.4.2 6.6-2" fill="#ea596e"/><path d="M11.2 19.9a4.6 4.6 0 0 0 2.1-6.3c-1.2-2.4-3.3-2.1-5.7-1-2.3 1-4 2.4-2.8 4.8a5 5 0 0 0 6.4 2.5" fill="#f4900c"/><path d="M10.5 18.4c2.4-1 4-2.4 2.8-4.8A5 5 0 0 0 7 11c-2.4 1-2.9 4.8-3.6 7-.8 2.4 4.3 1.6 7.2.3" fill="#ffcc4d"/><path d="M25 29a4.9 4.9 0 0 0-2.4-6.5c-2.5-1.2-4 .6-5 3-1.2 2.5-1.6 4.7.8 5.9A4.9 4.9 0 0 0 25 29" fill="#f4900c"/><path d="M23.4 28.3c1.2-2.5 1.6-4.7-.8-5.8a4.9 4.9 0 0 0-6.5 2.4c-1.2 2.4.9 5.8 1.6 8 1 2.5 4.4-1.6 5.7-4.6" fill="#ffcc4d"/></g></svg>