<svg xmlns="http://www.w3.org/2000/svg" viewBox="0 0 45 45"><defs><clipPath id="a"><path d="M0 36h36V0H0v36z"/></clipPath></defs><g clip-path="url(#a)" transform="matrix(1.25 0 0 -1.25 0 45)"><path d="M20 34h-1v1a1 1 0 1 1-2 0v-1h-1a1 1 0 1 1 0-2h1v-6a1 1 0 1 1 2 0v6h1a1 1 0 1 1 0 2" fill="#bcbec0"/><path d="M18 27l-5.1-4h.1v-9h10v9h.1L18 27z" fill="#f4abba"/><path d="M20 21a2 2 0 1 1-4 0v-7h4v7z" fill="#662113"/><path d="M18 18L4 10V1a1 1 0 0 1 1-1h26a1 1 0 0 1 1 1v9l-14 8z" fill="#f4abba"/><path d="M32 9a1 1 0 0 0-.5.1L18 17 4.5 9a1 1 0 1 0-1 1.8l14 8a1 1 0 0 0 1 0l14-8A1 1 0 0 0 32 9m-9 13a1 1 0 0 0-.6.2L18 25.7l-4.4-3.5a1 1 0 0 0-1.2 1.6l5 4a1 1 0 0 0 1.2 0l5-4A1 1 0 0 0 23 22" fill="#dd2e44"/><path d="M13 5a2 2 0 1 1-4 0V0h4v5zm7 2a2 2 0 1 1-4 0V0h4v7zm7-2a2 2 0 1 1-4 0V0h4v5z" fill="#662113"/><path d="M1 30c0 2.8 4 4 5 0 1.1 4 5 2.8 5 0 0-3-5-6-5-6s-5 3-5 6m24 0c0 2.8 4 4 5 0 1.1 4 5 2.8 5 0 0-3-5-6-5-6s-5 3-5 6" fill="#ea596e"/></g></svg>