<svg xmlns="http://www.w3.org/2000/svg" viewBox="0 0 45 45"><defs><clipPath id="a"><path d="M0 36h36V0H0v36z"/></clipPath></defs><g clip-path="url(#a)" transform="matrix(1.25 0 0 -1.25 0 45)"><path d="M12.4 14s-.7 3.6.3 10.9A18.5 18.5 0 0 1 16 24c1 0 4 1 4 2s-1 2-1 2l2 1c1 1 0 7-4 7-7 0-9.6-7-9.6-7s-6-11-6-20c0 0-1-5 0-6s5-1 5-1C16.4-2 35 1 35 10c0 13-19.6 10-22.6 4" fill="#ffdc5d"/><path d="M19.5 3.8c-3.2 0-5.8 1.2-6 1.3a1 1 0 0 0 1 1.8s4.2-2 7.9-.6c2 .7 3.6 2.5 4.7 5a1 1 0 1 0 1.8-.7 10.3 10.3 0 0 0-5.8-6.2 10.1 10.1 0 0 0-3.6-.6" fill="#ef9645"/></g></svg>