<svg xmlns="http://www.w3.org/2000/svg" viewBox="0 0 45 45"><defs><clipPath id="a"><path d="M0 36h36V0H0v36z"/></clipPath></defs><g clip-path="url(#a)" transform="matrix(1.25 0 0 -1.25 0 45)"><path d="M29 25c0-6.5-5-7.5-5-13.5 0-3.1-3.1-3.4-5.5-3.4-2 0-6.6.8-6.6 3.4 0 6-4.9 7-4.9 13.4 0 6 5.3 11 11 11a11 11 0 0 0 11-11" fill="#ffd983"/><path d="M22.2 3.5c0-.8-2.3-2.5-4.2-2.5-2 0-4.2 1.7-4.2 2.5s2.3.5 4.2.5c2 0 4.2.3 4.2-.5" fill="#ccd6dd"/><path d="M22.7 25.7a1 1 0 0 1-1.4 0L18 22.4l-3.3 3.3a1 1 0 1 1-1.4-1.4l3.7-3.7V10a1 1 0 1 1 2 0v10.6l3.7 3.7a1 1 0 0 1 0 1.4" fill="#ffcc4d"/><path d="M24 5a2 2 0 0 0-2-2h-8a2 2 0 0 0-2 2v6h12V5z" fill="#99aab5"/><path d="M12 4a1 1 0 0 0-.2 2l12 2a1 1 0 0 0 1.2-.8 1 1 0 0 0-.8-1.2l-12-2a1 1 0 0 0-.2 0m0 4a1 1 0 0 0-.2 2l12 2a1 1 0 0 0 1.2-.8 1 1 0 0 0-.8-1.2l-12-2a1 1 0 0 0-.2 0" fill="#ccd6dd"/></g></svg>