<svg xmlns="http://www.w3.org/2000/svg" viewBox="0 0 45 45"><path d="M27.5 0l-5 10-6.3-6.2v8.7L3.8 10l10 10L0 27.7h15l-7.5 15 15-10L36.1 45h.1l-3.7-17.4H45l-10-7.5L45 8.8l-15 3.7L27.5 0z" fill="#bb1a34"/><path d="M28.6 16.2l2.4-.6 6.5-1.7-4.2 4.8-1.7 1.9 2 1.5 3.7 2.7h-7.4l.6 2.8 1.9 9-7.3-6.6-1.3-1.2-1.5 1-6.6 4.4 3-6 1.7-3.4h-8.5l4.7-2.6 2.7-1.4-2.1-2.2-3.8-3.8 4 .8 2.7.5V11l1.8 1.8 2.3 2.2 1.4-2.8L27.2 9" fill="#fcab40"/><path d="M26.9 17.9l1-.3 2.7-.6-1.8 2-.7.7.8.6 1.6 1.1h-3.1l.2 1.2.8 3.7-3-2.7-.5-.5-.6.4-2.7 1.8 1.2-2.5.7-1.4H20l2-1 1-.6-.8-1-1.6-1.5 1.7.3 1 .3v-2.2l.8.8 1 .9.5-1.2.7-1.3" fill="#f5f8fa"/></svg>