<svg xmlns="http://www.w3.org/2000/svg" viewBox="0 0 45 45"><defs><clipPath id="a"><path d="M0 36h36V0H0v36z"/></clipPath></defs><g clip-path="url(#a)" transform="matrix(1.25 0 0 -1.25 0 45)"><path d="M28.9 28.9c7.3-7.4 9.3-17.3 4.4-22.2-4.9-5-14.8-3-22.2 4.4l-.7.8 4.4 4.4c5.7-5.7 13-7.7 16.3-4.5 3.3 3.3 1.3 10.6-4.5 16.3-6.5 6.6-15.4 8.2-20 3.7-2.1-2.2-2.8-5.4-2.3-8.8-.8 4-.1 7.8 2.4 10.3 4.9 5 14.8 3 22.2-4.4" fill="#fdd888"/><path d="M19.4 2c-.3 0-.5 0-.7.2l-5 3.7-5.2-3.7a1.2 1.2 0 0 0-1.9 1.4l2 6.1-5.1 3.6a1.2 1.2 0 0 0 .7 2.2h6.2l2 6a1.2 1.2 0 0 0 2.4 0l1.8-6H23a1.2 1.2 0 0 0 .7-2.2l-5-3.6 1.9-6.1A1.2 1.2 0 0 0 19.4 2" fill="#ffac33"/></g></svg>