<svg xmlns="http://www.w3.org/2000/svg" viewBox="0 0 45 45"><defs><clipPath id="a"><path d="M0 36h36V0H0v36z"/></clipPath></defs><path d="M33 14.8L30.1 12l7.2-7L40 7.7l-7 7z" fill="#ccd6dd"/><g clip-path="url(#a)" transform="matrix(1.25 0 0 -1.25 0 45)"><path d="M28 14a14 14 0 1 0-28 0 14 14 0 0 0 28 0" fill="#292f33"/><path d="M24.7 19L19 24.7l5.7 5.6 5.6-5.6-5.6-5.7z" fill="#292f33"/><path d="M36 32a4 4 0 1 0-8 0 4 4 0 0 0 8 0" fill="#f18f26"/><path d="M34 32a2 2 0 1 0-4 0 2 2 0 0 0 4 0" fill="#fdcb58"/></g></svg>