<svg xmlns="http://www.w3.org/2000/svg" viewBox="0 0 45 45"><defs><clipPath id="a"><path d="M0 36h36V0H0v36z"/></clipPath></defs><g clip-path="url(#a)" transform="matrix(1.25 0 0 -1.25 0 45)"><path d="M33.5 12.8a8 8 0 0 1-.4 5 8 8 0 0 1-3.3 3.7 5.6 5.6 0 0 1-.3 3.8 6.3 6.3 0 0 1-4.7 3.5 3 3 0 0 1 0 2.2c-1 3-5 1-8 5a5.7 5.7 0 0 1-2.9-5.5c-2.4-.4-3.8-1-3.8-1a3.7 3.7 0 0 1-2.3-3.4c0-.9.3-1.6.8-2.3l-.7-.2A5.9 5.9 0 0 1 4 18c0-1 .4-2 .9-2.9A8 8 0 0 1 0 8c0-4.4 3.7-8 8.2-8 3.3 0 6.6.7 9.6 1.7C20 .7 23.5 0 28.7 0A7.3 7.3 0 0 1 36 7.3a7.3 7.3 0 0 1-2.5 5.5" fill="#bf6952"/><path d="M17 20.5c0-2.5-1.6-4.5-3.5-4.5S10 18 10 20.5s1.6 4.5 3.5 4.5 3.5-2 3.5-4.5m10 0c0-2.5-1.6-4.5-3.5-4.5S20 18 20 20.5s1.6 4.5 3.5 4.5 3.5-2 3.5-4.5" fill="#f5f8fa"/><path d="M16 20.5c0-1.4-.9-2.5-2-2.5s-2 1.1-2 2.5.9 2.5 2 2.5 2-1.1 2-2.5m9 0c0-1.4-.9-2.5-2-2.5s-2 1.1-2 2.5.9 2.5 2 2.5 2-1.1 2-2.5M9.4 11.1c-.2.5 0 .9.6.9h18c.6 0 .8-.4.6-.9 0 0-2.6-5.1-9.6-5.1s-9.6 5.1-9.6 5.1" fill="#292f33"/><path d="M19 10c-2.8 0-5.2-1-6.3-2.3C14.2 6.8 16.3 6 19 6s4.8.8 6.3 1.7C24.1 9.1 21.8 10 19 10" fill="#f2abba"/></g></svg>