<svg xmlns="http://www.w3.org/2000/svg" viewBox="0 0 45 45"><defs><clipPath id="a"><path d="M0 36h36V0H0v36z"/></clipPath></defs><g clip-path="url(#a)" transform="matrix(1.25 0 0 -1.25 0 45)"><path d="M31.9 12c-.6 6.7-3.9 10-3.9 10l-6 8h-8l-6-8s-1.4-1.4-2.6-4.3a5 5 0 0 1-1.8-8.4A5 5 0 0 1 3 7a5 5 0 0 1 2.8-4.5A5 5 0 0 1 10 0h16c1.4 0 3.4.8 4.7 3.3A5 5 0 0 1 34 8a5 5 0 0 1-2.1 4M18 30c.6 0 1 .2 1.5.4A3 3 0 0 1 21 30c1.7 0 4 2.3 4 4 0 0 0 2-2 2-.8 0-1-1-2-1s-1 1-3 1-2-1-3-1-1.2 1-2 1c-2 0-2-2-2-2 0-1.7 2.3-4 4-4 .6 0 1 .2 1.5.4A3 3 0 0 1 18 30" fill="#fdd888"/><path d="M24 30a1 1 0 0 0-1-1H13a1 1 0 0 0 0 2h10a1 1 0 0 0 1-1" fill="#bf6952"/><path d="M23.9 11.5c0 4.4-8.6 4.1-8.6 6.8 0 1.3 1.3 2 2.8 2 2.6 0 3-1.6 4.2-1.6.8 0 1.2.5 1.2 1 0 1.4-2 2.3-4 2.7v1.2c0 .8-.6 1.4-1.4 1.4-.8 0-1.5-.6-1.5-1.4v-1.3c-2.1-.5-4-1.9-4-4.2 0-4.3 8.6-4 8.6-7.1 0-1-1.1-2.1-3-2.1-3 0-4 1.9-5.1 1.9-.6 0-1.1-.5-1.1-1.2 0-1 2-2.4 4.6-2.8V5.4c0-.8.6-1.4 1.5-1.4s1.4.6 1.4 1.4v1.4c2.4.5 4.4 2 4.4 4.7" fill="#67757f"/></g></svg>