<svg xmlns="http://www.w3.org/2000/svg" viewBox="0 0 45 45"><defs><clipPath id="a"><path d="M0 36h36V0H0v36z"/></clipPath></defs><g clip-path="url(#a)" transform="matrix(1.25 0 0 -1.25 0 45)"><path d="M2 30c-2 0-2-2-2-2V8s0-2 2-2h32c2 0 2 2 2 2v20s0 2-2 2H2z" fill="#cbb8e9"/><path d="M23 6H13v24h10V6z" fill="#9aaab4"/><path d="M8 23c.5 0 .8-.2.8-.7 0-.5-.3-.8-.8-.8H6.1l.1-1.1c0-.8-.5-2.1-1.5-3h6c.4 0 .7-.2.7-.7 0-.5-.3-.7-.8-.7h-7c-.5 0-1 .1-1 .7 0 .8 2 1.6 2 3.7v1.2H2.8c-.4 0-.8.2-.8.7s.4.7.8.7H4a5.2 5.2 0 0 0-.8 2.5c0 1.9 1.8 3.1 3.8 3.1 2 0 4-1.7 4-3 0-.6-.3-.9-.7-.9-1.2 0-.6 2.5-3.3 2.5-1.1 0-2.3-.6-2.3-1.8 0-1 .6-1.6 1-2.4H8z" fill="#67757f"/></g></svg>