<svg xmlns="http://www.w3.org/2000/svg" viewBox="0 0 45 45"><defs><clipPath id="a"><path d="M0 36h36V0H0v36z"/></clipPath><clipPath id="b"><path d="M4 9C2.9 9 2.3 8 2 7L0 2a2 2 0 0 1 2-2h32a2 2 0 0 1 2 2l-2 4.9c-.4 1-.9 2-2 2H4z"/></clipPath><clipPath id="c"><path d="M0 36h36V0H0v36z"/></clipPath></defs><g clip-path="url(#a)" transform="matrix(1.25 0 0 -1.25 0 45)"><path d="M33 11a2 2 0 0 0-2-2H5a2 2 0 0 0-2 2v17a2 2 0 0 0 2 2h26a2 2 0 0 0 2-2V11zm3-9a2 2 0 0 0-2-2H2a2 2 0 0 0-2 2l2 4.9c.3 1 .9 2 2 2h28c1.1 0 1.6-1 2-2L36 2z" fill="#ccd6dd"/></g><g clip-path="url(#b)" transform="matrix(1.25 0 0 -1.25 0 45)"><path d="M38 2H0l1-4.1h37v4z" fill="#9aaab4"/></g><g clip-path="url(#c)" transform="matrix(1.25 0 0 -1.25 0 45)"><path d="M31 12a1 1 0 0 0-1-1H6a1 1 0 0 0-1 1v15a1 1 0 0 0 1 1h24a1 1 0 0 0 1-1V12z" fill="#5dadec"/><path d="M32.9 5l-.8 2c-.2.5-.6.9-1.2.9H5.1c-.5 0-.9-.4-1.1-1l-.7-2c-.2-.6.4-1 1-1h7.6s.9 0 1 .6c.3.6.5 1.6.5 1.8 0 .2.4.5.9.5h8.6c.5 0 .7-.3.8-.6l.4-1.8c.1-.5 1.2-.6 1.2-.6H32c.6 0 1.2.5 1 1" fill="#aebbc1"/><path d="M22.4 2.9h-7.8c-.4 0-.5.3-.5.7l.4 2c0 .1.3.3.5.3h7c.3 0 .5-.2.6-.5l.3-2c0-.2-.2-.5-.5-.5" fill="#9aaab4"/></g></svg>