<svg xmlns="http://www.w3.org/2000/svg" viewBox="0 0 45 45"><defs><clipPath id="a"><path d="M0 36h36V0H0v36z"/></clipPath></defs><g clip-path="url(#a)" transform="matrix(1.25 0 0 -1.25 0 45)"><path d="M2 30c-2 0-2-2-2-2V8s0-2 2-2h32c2 0 2 2 2 2v20s0 2-2 2H2z" fill="#fdd888"/><path d="M23 6H13v24h10V6z" fill="#9aaab4"/><path d="M5.7 17.9H3.4c-.4 0-.7.2-.7.5 0 .4.3.6.7.6H5l-2.7 4.3a1 1 0 0 0-.3.7c0 .3.3.6.6.6s.6-.2.8-.5l3.1-4.7 3.1 4.7c.3.3.5.5.8.5.3 0 .6-.3.6-.6s0-.5-.3-.7L8 19h1.6c.4 0 .8-.2.8-.6 0-.3-.4-.5-.7-.5H7.3v-1.3h2.3c.4 0 .7-.2.7-.6 0-.3-.3-.5-.7-.5H7.3v-2.7c0-.5-.4-.8-.8-.8-.5 0-.8.3-.8.8v2.7H3.4c-.4 0-.7.2-.7.6 0 .3.3.5.7.5h2.3V18z" fill="#67757f"/></g></svg>