<svg xmlns="http://www.w3.org/2000/svg" viewBox="0 0 45 45"><defs><clipPath id="a"><path d="M0 36h36V0H0v36z"/></clipPath></defs><g clip-path="url(#a)" transform="matrix(1.25 0 0 -1.25 0 45)"><path d="M2 30c-2 0-2-2-2-2V8s0-2 2-2h32c2 0 2 2 2 2v20s0 2-2 2H2z" fill="#a7d28b"/><path d="M23 6H13v24h10V6z" fill="#9aaab4"/><path d="M11 16c0 3-5.5 2.8-5.5 4.6 0 .8.8 1.2 1.8 1.2 1.6 0 2-1 2.7-1 .5 0 .7.3.7.7 0 .9-1.3 1.5-2.5 1.7v.9a1 1 0 1 1-1.9 0v-.9c-1.3-.3-2.5-1.3-2.5-2.8 0-2.9 5.5-2.7 5.5-4.7 0-.7-.8-1.4-2-1.4-1.8 0-2.5 1.2-3.2 1.2-.4 0-.7-.3-.7-.8 0-.7 1.2-1.6 3-1.8v-1a1 1 0 0 1 1.8 0v1c1.5.3 2.8 1.3 2.8 3" fill="#67757f"/></g></svg>