<svg xmlns="http://www.w3.org/2000/svg" viewBox="0 0 45 45"><defs><clipPath id="a"><path d="M0 36h36V0H0v36z"/></clipPath></defs><g clip-path="url(#a)" transform="matrix(1.25 0 0 -1.25 0 45)"><path d="M4 31a4 4 0 0 1-4-4V9a4 4 0 0 1 4-4h28a4 4 0 0 1 4 4v18s0 4-4 4H4z" fill="#ffac33"/><path d="M36 21H0v5h36v-5z" fill="#292f33"/><path d="M32 11H4v6h28v-6z" fill="#f4f7f9"/><path d="M19 12a2.4 2.4 0 0 0-2.5 1.8 4 4 0 0 1-1.8-.8 5 5 0 0 0-2.7-1c-1.2 0-2 .7-2 2v.2c-1.8 0-3.2-1.8-3.2-1.8a1 1 0 0 0-1.4-.2 1 1 0 0 0-.2 1.4c0 .1 2 2.4 4.8 2.4 2 0 2-1.4 2-1.9.6 0 1 .3 1.7.6 1 .6 2.1 1.4 3.7 1 .9-.2 1-1 1-1.3l.1-.3.6-.1c.8 0 1.7.3 2.7.7 1 .3 2 .7 3 .7 3.5 0 4.8-1.6 5-1.8a1 1 0 0 0-1.6-1.2s-1 1-3.3 1c-.7 0-1.5-.3-2.4-.6-1-.4-2.4-.8-3.5-.8" fill="#8899a6"/></g></svg>