<svg xmlns="http://www.w3.org/2000/svg" viewBox="0 0 45 45"><defs><clipPath id="a"><path d="M0 36h36V0H0v36z"/></clipPath></defs><g clip-path="url(#a)" transform="matrix(1.25 0 0 -1.25 0 45)"><path d="M2 30c-2 0-2-2-2-2V8s0-2 2-2h32c2 0 2 2 2 2v20s0 2-2 2H2z" fill="#c6e4b5"/><path d="M23 6H13v24h10V6z" fill="#9aaab4"/><path d="M11.5 9.4C11.5 8.8 10 8 8.2 8 5.8 8 4.4 9.7 4 11.7H2.6a.6.6 0 1 0 0 1.2h1.1v1.3H2.6a.6.6 0 1 0 0 1.1H4c.6 1.8 2 3.3 4.3 3.3 1.8 0 3-1 3-1.6 0-.3-.2-.5-.5-.5-.6 0-.9 1-2.5 1-1.5 0-2.4-1-2.9-2.2h3.3a.6.6 0 0 0 0-1.1H5.1a6.2 6.2 0 0 1 0-1V13h3.6a.6.6 0 0 0 0-1.2H5.3c.3-1.4 1.3-2.6 3-2.6 1.5 0 2.2 1 2.7 1 .3 0 .5-.3.5-.7" fill="#67757f"/></g></svg>