<svg xmlns="http://www.w3.org/2000/svg" viewBox="0 0 45 45"><defs><clipPath id="a"><path d="M0 36h36V0H0v36z"/></clipPath><clipPath id="b"><path d="M3.8 18a14.2 14.2 0 1 1 28.4 0 14.2 14.2 0 0 1-28.4 0m10 0a4.2 4.2 0 0 0 8.4 0 4.2 4.2 0 0 0-8.4 0"/></clipPath><clipPath id="c"><path d="M0 36h36V0H0v36z"/></clipPath></defs><g clip-path="url(#a)" transform="matrix(1.25 0 0 -1.25 0 45)"><path d="M36 4a4 4 0 0 0-4-4H4a4 4 0 0 0-4 4v28a4 4 0 0 0 4 4h28a4 4 0 0 0 4-4V4z" fill="#292f33"/><path d="M18 20.7a2.7 2.7 0 1 1 0-5.4 2.7 2.7 0 0 1 0 5.4M34 18a16 16 0 1 0-32 0 16 16 0 0 0 32 0" fill="#ffd983"/></g><g clip-path="url(#b)" transform="matrix(1.25 0 0 -1.25 0 45)"><path d="M18 18L2 19.8V34h14.2L18 18zm0 0l16-1.8V2H19.8L18 18z" fill="#ffac33"/><path d="M18 18l1.9-16.9 14.1 1L18 18zm0 0L2 34l14.2.9 1.8-17z" fill="#ffe8b6"/></g><g clip-path="url(#c)" transform="matrix(1.25 0 0 -1.25 0 45)"><path d="M36 15a2 2 0 0 0-2-2H23a2 2 0 0 0-2 2v6a2 2 0 0 0 2 2h11a2 2 0 0 0 2-2v-6z" fill="#f5f8fa"/></g></svg>