<svg xmlns="http://www.w3.org/2000/svg" viewBox="0 0 45 45"><defs><clipPath id="a"><path d="M0 36h36V0H0v36z"/></clipPath></defs><g clip-path="url(#a)" transform="matrix(1.25 0 0 -1.25 0 45)"><path d="M30 1.7a4 4 0 0 0-5.6 0L1.7 24.4a4 4 0 0 0 0 5.6L6 34.3a4 4 0 0 0 5.6 0l22.7-22.7a4 4 0 0 0 0-5.6L30 1.7z" fill="#ffcc4d"/><path d="M9.5 29.3a1 1 0 0 0-1.4 1.4l3.5 3.6 1.5-1.4-3.6-3.6zm5.7-1.4a1 1 0 1 0-1.4 1.4l1.4 1.4 1.4-1.4-1.4-1.4zm1.4-5.7a1 1 0 1 0-1.4 1.5l3.5 3.5 1.4-1.4-3.5-3.6zm5.6-1.4a1 1 0 0 0-1.4 0 1 1 0 0 0 0 1.4l1.4 1.5 1.5-1.5-1.5-1.4zm1.5-5.6a1 1 0 1 0-1.5 1.4l3.6 3.5 1.4-1.4-3.5-3.5zm7-7.1a1 1 0 0 0-1.4 0 1 1 0 0 0 0 1.4L33 13l1.4-1.4-3.6-3.5zm-1.4 5.7a1 1 0 1 0-1.4 1.4l1.4 1.4 1.4-1.4-1.4-1.4z" fill="#292f33"/></g></svg>