<svg xmlns="http://www.w3.org/2000/svg" viewBox="0 0 45 45"><defs><clipPath id="a"><path d="M0 36h36V0H0v36z"/></clipPath></defs><g clip-path="url(#a)" transform="matrix(1.25 0 0 -1.25 0 45)"><path d="M35.4 10.8a7.5 7.5 0 0 1-2.1 6L17 33.2a1 1 0 1 1-1.4-1.4L32 15.4a5.5 5.5 0 0 0 1.5-4.5 7.7 7.7 0 0 0-2.2-4.7A7.7 7.7 0 0 0 26.5 4 5.5 5.5 0 0 0 22 5.5L3.6 24a3.6 3.6 0 0 0-1 3 5.8 5.8 0 0 0 1.7 3.4c1.7 1.7 4.6 2.4 6.4.7L25.5 16c1.1-1 0-2.8-.7-3.5-.7-.7-2.4-1.8-3.5-.7L10 23.2a1 1 0 1 1-1.4-1.4l11.3-11.3c1.8-1.9 4.6-1 6.3.7 1.8 1.7 2.6 4.5.7 6.3L12.1 32.4c-2.6 2.6-6.8 1.7-9.2-.7a7.8 7.8 0 0 1-2.2-4.5 5.5 5.5 0 0 1 1.5-4.7L20.6 4.1a7.3 7.3 0 0 1 5.2-2 9.5 9.5 0 0 1 6.8 2.7 9.7 9.7 0 0 1 2.8 6" fill="#99aab5"/></g></svg>