<svg xmlns="http://www.w3.org/2000/svg" viewBox="0 0 45 45"><defs><clipPath id="a"><path d="M0 36h36V0H0v36z"/></clipPath></defs><g clip-path="url(#a)" transform="matrix(1.25 0 0 -1.25 0 45)"><path d="M36 4a4 4 0 0 0-4-4H4a4 4 0 0 0-4 4v23a4 4 0 0 0 4 4h28a4 4 0 0 0 4-4V4z" fill="#e0e7ec"/><path d="M34 36h-3.3c.2-.3.3-.6.3-1a2 2 0 0 0-4 0c0 .4.1.7.3 1H8.7a2 2 0 0 0 .3-1 2 2 0 0 0-4 0c0 .4.1.7.3 1H2a2 2 0 0 1-2-2V23h36v11a2 2 0 0 1-2 2" fill="#dd2f45"/><path d="M23.7 17h-.5c-1.1 0-1.5.7-1.5 1.5s.5 1.5 1.5 1.5h2c1 0 1.5-.7 1.5-1.6V5.5c0-1.1-.5-1.7-1.5-1.7s-1.5.6-1.5 1.7V17z" fill="#66757f"/><path d="M32 26a1 1 0 1 1 2 0 1 1 0 0 1-2 0m0 3a1 1 0 1 1 2 0 1 1 0 0 1-2 0m-3-3a1 1 0 1 1 2 0 1 1 0 0 1-2 0m0 3a1 1 0 1 1 2 0 1 1 0 0 1-2 0m-3-3a1 1 0 1 1 2 0 1 1 0 0 1-2 0m0 3a1 1 0 1 1 2 0 1 1 0 0 1-2 0" fill="#f3aab9"/><path d="M2.5 31c0 .5.3.8.8.8h.1a.8.8 0 0 0 .7-.4l2-3 1.8 3a.8.8 0 0 0 .7.5h.2a.8.8 0 0 0 .8-.8v-5.7a.8.8 0 1 0-1.6 0V29l-1.3-2.2c-.2-.2-.4-.4-.7-.4-.3 0-.5.2-.6.4L4 29v-3.5a.8.8 0 0 0-.8-.8.8.8 0 0 0-.7.8V31zm12.3-3.3l-1 2.3-1-2.3h2zm-4.4-2l2.5 5.6c.1.4.5.6.9.6.5 0 .8-.2 1-.6l2.5-5.6a.8.8 0 0 0 0-.3.7.7 0 0 0-.7-.8c-.4 0-.6.2-.8.6l-.4 1h-3.2l-.5-1a.8.8 0 0 0-.7-.6.7.7 0 0 0-.7.8v.3m11 2.6c.7 0 1.1.4 1.1 1 0 .7-.5 1-1.2 1h-1.6v-2h1.6zM18 31c0 .5.3.8.7.8h2.5c1 0 1.6-.3 2-.7.5-.4.7-1 .7-1.7 0-1-.6-1.8-1.4-2.1l1-1.4c.2-.1.3-.3.3-.5a.7.7 0 0 0-.7-.8 1 1 0 0 0-.8.4L21 27h-1.3v-1.6a.8.8 0 0 0-.8-.8.8.8 0 0 0-.7.8V31z" fill="#fff"/><path d="M8.8 7.2l4.5 3.7c2 1.6 2.8 2.5 2.8 3.8 0 1.4-.9 2.1-2.1 2.1-1 0-1.7-.4-2.6-1.4a1.6 1.6 0 0 0-1.2-.5c-1 0-1.6.7-1.6 1.6 0 .4.1.8.4 1.1a6.3 6.3 0 0 0 5.2 2.4c3.3 0 5.5-2 5.5-5 0-2.7-1.4-4-4.2-6.2l-2.6-2h5.6A1.5 1.5 0 0 0 20 5.3c0-.9-.7-1.5-1.5-1.5H9.8c-1.1 0-2 .6-2 1.6 0 .7.4 1.3 1 1.8" fill="#66757f"/></g></svg>