<svg xmlns="http://www.w3.org/2000/svg" viewBox="0 0 45 45"><defs><clipPath id="a"><path d="M0 36h36V0H0v36z"/></clipPath></defs><path d="M29.6 29.1L15.9 15.4l11.7-9.7 11.7 11.7-9.7 11.7z" fill="#be1931"/><g clip-path="url(#a)" transform="matrix(1.25 0 0 -1.25 0 45)"><path d="M34.6 22a4.4 4.4 0 0 0-6.3 0l-6.2 6.3a4.4 4.4 0 0 0 6.3 6.3l6.2-6.3a4.4 4.4 0 0 0 0-6.2" fill="#dd2e44"/><path d="M14 18.2S-.6 1 .2.2C1-.6 18.2 14 18.2 14L14 18.2z" fill="#99aab5"/><path d="M25.2 8A4.4 4.4 0 0 0 19 8L8 19a4.4 4.4 0 0 0 6.3 6.2l11-11a4.4 4.4 0 0 0 0-6.2" fill="#dd2e44"/></g></svg>