<svg xmlns="http://www.w3.org/2000/svg" viewBox="0 0 45 45"><defs><clipPath id="a"><path d="M0 36h36V0H0v36z"/></clipPath><clipPath id="b"><path d="M2 18a16 16 0 1 1 32 0 16 16 0 0 1-32 0m11.2 0a4.8 4.8 0 0 0 9.6 0 4.8 4.8 0 0 0-9.6 0"/></clipPath></defs><g clip-path="url(#a)" transform="matrix(1.25 0 0 -1.25 0 45)"><path d="M18 21a3 3 0 1 1 0-6 3 3 0 0 1 0 6m18-3a18 18 0 1 0-36 0 18 18 0 0 0 36 0" fill="#ffd983"/></g><g clip-path="url(#b)" transform="matrix(1.25 0 0 -1.25 0 45)"><path d="M18 18L0 20v16h16l2-18zm0 0l18-2V0H20l-2 18z" fill="#ffac33"/><path d="M18 18l2.1-19L36 0 18 18zm0 0L0 36l16 1 2-19z" fill="#ffe8b6"/></g></svg>