<svg xmlns="http://www.w3.org/2000/svg" viewBox="0 0 45 45"><defs><clipPath id="a"><path d="M0 36h36V0H0v36z"/></clipPath></defs><g clip-path="url(#a)" transform="matrix(1.25 0 0 -1.25 0 45)"><path d="M15 5c0-2.2-.8-4-3-4H5C1 1 1 15 5 15h7c2.2 0 3-1.8 3-4V5z" fill="#553788"/><path d="M34 3h-1v10h1a1 1 0 1 1 0 2H10C6 15 6 1 10 1h24a1 1 0 1 1 0 2" fill="#9266cc"/><path d="M34.2 3H11c-2 0-2 10 0 10h23.2c1 0 1-10 0-10" fill="#ccd6dd"/><path d="M11.5 11h23.4c-.2 1.2-.4 2-.7 2H11c-1.6 0-2-6.8-.9-9.2-.4 3 .1 7.2 1.4 7.2" fill="#99aab5"/><path d="M12 28a4 4 0 0 0-4-4H4c-4 0-4 11 0 11h4a4 4 0 0 0 4-4v-3z" fill="#269"/><path d="M31 26h-1v7h1a1 1 0 1 1 0 2H7c-4 0-4-11 0-11h24a1 1 0 1 1 0 2" fill="#55acee"/><path d="M31.2 26H8c-2 0-2 7 0 7h23.2c1 0 1-7 0-7" fill="#ccd6dd"/><path d="M8 31h24c-.2 1.1-.4 2-.8 2H8c-1.2 0-1.7-2.5-1.4-4.5.1 1.4.6 2.5 1.4 2.5" fill="#99aab5"/><path d="M20 19a4 4 0 0 0-4-4H6c-4 0-4 9 0 9h10a4 4 0 0 0 4-4v-1z" fill="#f4900c"/><path d="M35 17h-1v5h1a1 1 0 1 1 0 2H15c-4 0-4-9 0-9h20a1 1 0 1 1 0 2" fill="#ffac33"/><path d="M35.2 17H16c-2 0-2 5 0 5h19.2c1 0 1-5 0-5" fill="#ccd6dd"/><path d="M16 20h20c0 1-.3 2-.8 2H16c-1.3 0-1.7-2-1.4-3.5.2.8.7 1.5 1.4 1.5" fill="#99aab5"/></g></svg>