<svg xmlns="http://www.w3.org/2000/svg" viewBox="0 0 45 45"><defs><clipPath id="a"><path d="M0 36h36V0H0v36z"/></clipPath></defs><g clip-path="url(#a)" transform="matrix(1.25 0 0 -1.25 0 45)"><path d="M31 4a4 4 0 0 0-4-4H5a4 4 0 0 0-4 4v28a4 4 0 0 0 4 4h22a4 4 0 0 0 4-4V4z" fill="#ccd6dd"/><path d="M27 12a1 1 0 0 0-1-1H6a1 1 0 1 0 0 2h20a1 1 0 0 0 1-1M11 8a1 1 0 0 0-1-1H6a1 1 0 1 0 0 2h4a1 1 0 0 0 1-1m16 20a1 1 0 0 0-1-1H6a1 1 0 0 0 0 2h20a1 1 0 0 0 1-1m0-4a1 1 0 0 0-1-1H6a1 1 0 1 0 0 2h20a1 1 0 0 0 1-1m0-4a1 1 0 0 0-1-1H6a1 1 0 1 0 0 2h20a1 1 0 0 0 1-1m0-4a1 1 0 0 0-1-1H6a1 1 0 1 0 0 2h20a1 1 0 0 0 1-1" fill="#99aab5"/><path d="M31 29.7c-.8.6-1.8.6-2.5 0l-.8-.6-1.5-1.2h-.1l-2.4-2-11.9-9.7c-.4-.4-.8-1.2-1.1-2L9.2 9.6c-.1-.2-1-1.8-.5-2.4.5-.6 2.3 0 2.5 0L16 8c1 .2 1.8.4 2.3.8l11.9 9.7.8.6.1.1v10.6z" fill="#66757f"/><path d="M18.1 13.5s-1.2 1.9-2 2.5c-.7.9-2.6 2.1-2.6 2.1-.5.5-1.2.5-1.6 0-.5-.4-.8-1.3-1.2-2.2-.5-1.1-1.3-4.2-1.8-5.8 0-.2.5.5.5.3v-.8h.1l.1-.3.2.2h.6c.2 0-.5-.7-.2-.6 1.6.5 4.6 1.3 5.7 1.8 1 .4 1.9.7 2.3 1.2.4.4.4 1.1 0 1.6" fill="#d99e82"/><path d="M25.3 31.6a2.2 2.2 0 0 1 0-3.1l3.2-3.2a2.2 2.2 0 0 1 3.1 0l3.2 3.2a2.2 2.2 0 0 1 0 3.1l-3.1 3.2a2.2 2.2 0 0 1-3.2 0l-3.2-3.1z" fill="#ea596e"/><path d="M11.8 18.2L15 15l3.2-3.1L30 23.7l-6.4 6.4L12 18z" fill="#ffcc4d"/><path d="M11.3 9.3s-2-1.2-2.6-.6c-.6.5.6 2.6.6 2.6s2 0 2-2" fill="#292f33"/><path d="M27.7 34l6.3-6.3-4-4-6.3 6.4 4 4z" fill="#ccd6dd"/><path d="M26.1 32.4l6.3-6.3.8.8-6.3 6.3-.8-.8zM24.5 31l6.4-6.4.8.8-6.4 6.3-.8-.8z" fill="#99aab5"/></g></svg>