<svg xmlns="http://www.w3.org/2000/svg" viewBox="0 0 45 45"><defs><clipPath id="a"><path d="M0 36h36V0H0v36z"/></clipPath></defs><g clip-path="url(#a)" transform="matrix(1.25 0 0 -1.25 0 45)"><path d="M36 9a4 4 0 0 0-4-4H4a4 4 0 0 0-4 4v18a4 4 0 0 0 4 4h28a4 4 0 0 0 4-4V9z" fill="#292f33"/><path d="M34 15a2 2 0 0 0-2-2H4a2 2 0 0 0-2 2v12a2 2 0 0 0 2 2h28a2 2 0 0 0 2-2V15z" fill="#c6e5b3"/><path d="M14 9a2 2 0 0 0-2-2H4a2 2 0 0 0 0 4h8a2 2 0 0 0 2-2m14 0a2 2 0 0 0-2-2h-8a2 2 0 0 0 0 4h8a2 2 0 0 0 2-2" fill="#66757f"/><path d="M30 9a2 2 0 1 1 4 0 2 2 0 0 1-4 0" fill="#dd2e44"/><path d="M26 22.3l-.8-1.6h.8v1.6zm-1.4-2.4c-.3 0-.4.2-.4.3v.3l1.4 2.4c.1.2.3.3.6.3.4 0 .7-.2.7-.7v-1.9h.1c.2 0 .4-.1.4-.4 0-.2-.2-.3-.4-.3v-.5c0-.4-.2-.5-.5-.5s-.4.1-.4.5v.5h-1.5zm-2 1.2c0 .5-.1 1.4-.7 1.4s-.7-1-.7-1.4c0-.4 0-1.3.7-1.3s.6 1 .6 1.3m-2.2 0c0 1 .4 2.2 1.6 2.2s1.5-1.2 1.5-2.2c0-1-.3-2.1-1.5-2.1s-1.6 1.2-1.6 2.1m-2.1 1.3l-.8-1.7h.8v1.7zm-1.5-2.5c-.3 0-.4.2-.4.4l.1.3 1.3 2.4c.2.2.3.3.6.3.4 0 .7-.2.7-.7v-1.9h.1c.3 0 .4-.1.4-.4 0-.2-.1-.4-.4-.4v-.5c0-.3-.2-.4-.5-.4s-.4.1-.4.4v.5h-1.5zm-2 1.2c0 .4-.1 1.3-.7 1.3s-.7-.9-.7-1.3c0-.5 0-1.4.7-1.4s.6 1 .6 1.4m-2.2 0c0 1 .4 2.1 1.6 2.1 1.2 0 1.6-1.2 1.6-2.1 0-1-.4-2.2-1.6-2.2S12.4 20 12.4 21m-2.1 1.2l-.8-1.6h.8v1.6zM8.8 20c-.2 0-.4.2-.4.3l.1.3L9.8 23c.2.2.3.3.6.3.4 0 .7-.2.7-.7v-1.8h.1a.4.4 0 0 0 .5-.4c0-.3-.2-.4-.5-.4v-.5c0-.4-.2-.5-.5-.5s-.4.1-.4.5v.5H8.8z" fill="#77b255"/></g></svg>