<svg xmlns="http://www.w3.org/2000/svg" viewBox="0 0 45 45"><defs><clipPath id="a"><path d="M0 36h36V0H0v36z"/></clipPath></defs><g clip-path="url(#a)" transform="matrix(1.25 0 0 -1.25 0 45)"><path d="M4 25V12.6c0-2 1.1-2.5 1.1-2.5l11.6-9C18.5-.5 18 2.5 18 2.5V14L4 25z" fill="#662113"/><path d="M32 25V12.6c0-2-1-2.5-1-2.5l-11.7-9C17.5-.5 18 2.5 18 2.5V14l14 11z" fill="#c1694f"/><path d="M19.3 35.5c-.8.6-2 .6-2.8 0L4.5 26c-.7-.6-.7-1.6 0-2.2l12-9.7a2.3 2.3 0 0 1 2.8 0l12.1 9.7c.8.6.8 1.6 0 2.2l-12.1 9.5z" fill="#d99e82"/><path d="M18 .3c-.6 0-1 .4-1 1v13c0 .5.5 1 1 1s1-.5 1-1v-13c0-.6-.5-1-1-1" fill="#d99e82"/><path d="M28 17.2c0-1.1.1-1.7-1-2.5l-2.5-1.9c-1-.8-1.5 0-1.5 1v3c0 .2 0 .4-.3.6-2.6 2.1-12.6 10-14.4 11.6l4.6 3.6A1362.9 1362.9 0 0 0 28 20.7v-3.5z" fill="#99aab5"/><path d="M27.7 21.3a1297.8 1297.8 0 0 1-14.8 11.3l-1.7-1.3L8.3 29l14.4-11.6a.7.7 0 0 0 .3-.4l4.9 4a1.2 1.2 0 0 1-.2.3" fill="#ccd6dd"/><path d="M28 17.2v3.5l-.3.6a1290.4 1290.4 0 0 1-14.8 11.3L11 31l14.8-11.6c.3-.2.3-.4.3-.6V14l1 .7c1.1.8 1 1.4 1 2.5" fill="#ccd6dd"/><path d="M27.7 21.3a1297.8 1297.8 0 0 1-14.8 11.3L11 31l14.8-11.6h.1L28 21a1.2 1.2 0 0 1-.2.3" fill="#e1e8ed"/></g></svg>