<svg xmlns="http://www.w3.org/2000/svg" viewBox="0 0 45 45"><defs><clipPath id="a"><path d="M0 36h36V0H0v36z"/></clipPath></defs><g clip-path="url(#a)" transform="matrix(1.25 0 0 -1.25 0 45)"><path d="M10.8 14.5c1.6 0 7.4-4.4 7.4-9.7 0-5.4-14.9-5.4-14.9 0 0 5.3 5.8 9.7 7.5 9.7" fill="#99aab5"/><path d="M8.5 10.8C17.4 2 26 5.6 28.5 8.3c2.8 2.7 0 10-6.3 16.2-6.2 6.2-13.4 9-16.1 6.3-2.7-2.7-6.4-11.2 2.4-20" fill="#ccd6dd"/><path d="M12.4 14.7c6.3-6.2 13.5-9 16.2-6.3 2.7 2.7-.2 9.9-6.4 16C16 30.8 8.8 33.7 6.1 31c-2.7-2.7.1-10 6.3-16.2" fill="#66757f"/><path d="M22.2 24.5a1.1 1.1 0 0 0 0-1.6L15 15.6a1.1 1.1 0 1 0-1.6 1.6l7.2 7.3a1.1 1.1 0 0 0 1.6 0" fill="#ccd6dd"/><path d="M23.8 26a2.3 2.3 0 1 0-3.2-3.1 2.3 2.3 0 0 0 3.2 3.2" fill="#ccd6dd"/><path d="M28.3 23a1 1 0 0 0-1 1s0 2.1-1.6 3.8c-1.6 1.6-3.8 1.6-3.8 1.6a1 1 0 1 0 0 2 7.5 7.5 0 0 0 5.2-2.2 7.5 7.5 0 0 0 2.2-5.3 1 1 0 0 0-1-1" fill="#ffac33"/><path d="M31.9 23.5a1 1 0 0 0-1 1.3c0 .1.9 2.9-2.2 6s-6.1 2.4-6.2 2.4a1 1 0 0 0-1.3.7A1 1 0 0 0 22 35c.2 0 4.2 1 8.2-3 4-4 2.7-7.8 2.7-8a1 1 0 0 0-1-.6" fill="#ffac33"/><path d="M11 3.5c-3 0-5.6.6-7.6 1.7v-.4c0-5.4 14.8-5.4 14.8 0V5a16.6 16.6 0 0 0-7.3-1.5" fill="#66757f"/></g></svg>