<svg xmlns="http://www.w3.org/2000/svg" viewBox="0 0 45 45"><defs><clipPath id="a"><path d="M0 36h36V0H0v36z"/></clipPath></defs><g clip-path="url(#a)" transform="matrix(1.25 0 0 -1.25 0 45)"><path d="M36 4a4 4 0 0 0-4-4H4a4 4 0 0 0-4 4v18a4 4 0 0 0 4 4h28a4 4 0 0 0 4-4V4z" fill="#ccd6dd"/><path d="M12 13.4L.5 2A4 4 0 0 1 2 .6L13.4 12a1 1 0 0 1-1.4 1.5M35.4 2L24 13.5a1 1 0 1 1-1.5-1.4L34 .6A4 4 0 0 1 35.4 2" fill="#99aab5"/><path d="M32 26H4a4 4 0 0 1-4-4v-1L14.5 6.5a4.9 4.9 0 0 1 7 0L36 21v1a4 4 0 0 1-4 4" fill="#99aab5"/><path d="M32 26H4a4 4 0 0 1-3.6-2.3L15.2 9a4 4 0 0 1 5.6 0l14.8 14.7A4 4 0 0 1 32 26" fill="#e1e8ed"/><path d="M26.7 29H22v5a2 2 0 0 1-2 2h-4a2 2 0 0 1-2-2v-5H9.2c-1.3 0-1.6-.6-.7-1.5l7.9-7.8a2.2 2.2 0 0 1 3.1 0l7.9 7.8c.8.9.5 1.5-.7 1.5" fill="#55acee"/></g></svg>