<svg xmlns="http://www.w3.org/2000/svg" viewBox="0 0 45 45"><defs><clipPath id="a"><path d="M0 36h36V0H0v36z"/></clipPath></defs><g clip-path="url(#a)" transform="matrix(1.25 0 0 -1.25 0 45)"><path d="M2.7 23.6a1 1 0 1 1 1.4-1.4l9.2 9.2a1 1 0 1 1-1.4 1.4l-9.2-9.2z" fill="#292f33"/><path d="M36 4c0-4-4-4-4-4H4S0 0 0 4v18s0 4 4 4h28c4 0 4-4 4-4V4z" fill="#99aab5"/><path d="M15.6 33a1 1 0 0 0-1.4 0l-.8.6a1 1 0 1 0 1.5 1.5l.7-.7a1 1 0 0 0 0-1.5M33 17.5a5.5 5.5 0 1 0-11 0 5.5 5.5 0 1 0 11 0m-2-11A3.5 3.5 0 0 0 27.5 3 3.5 3.5 0 0 0 24 6.5a3.5 3.5 0 1 0 7 0" fill="#292f33"/><path d="M31 17.5a3.5 3.5 0 0 0-3.5-3.5 3.5 3.5 0 0 0-3.5 3.5 3.5 3.5 0 1 0 7 0m-2-11a1.5 1.5 0 1 0-3 0 1.5 1.5 0 0 0 3 0" fill="#66757f"/><path d="M12 10.5a1.5 1.5 0 1 0-3 0 1.5 1.5 0 0 0 3 0m-5 0a1.5 1.5 0 1 0-3 0 1.5 1.5 0 0 0 3 0m5 5a1.5 1.5 0 1 0-3 0 1.5 1.5 0 0 0 3 0m5 0a1.5 1.5 0 1 0-3 0 1.5 1.5 0 0 0 3 0m0-5a1.5 1.5 0 1 0-3 0 1.5 1.5 0 0 0 3 0m0-5a1.5 1.5 0 1 0-3 0 1.5 1.5 0 0 0 3 0m-10 0a1.5 1.5 0 1 0-3 0 1.5 1.5 0 0 0 3 0m0 10a1.5 1.5 0 1 0-3 0 1.5 1.5 0 0 0 3 0m5 5a1.5 1.5 0 1 0-3 0 1.5 1.5 0 0 0 3 0m5 0a1.5 1.5 0 1 0-3 0 1.5 1.5 0 0 0 3 0m-10 0a1.5 1.5 0 1 0-3 0 1.5 1.5 0 0 0 3 0m5-15a1.5 1.5 0 1 0-3 0 1.5 1.5 0 0 0 3 0" fill="#292f33"/></g></svg>