<svg xmlns="http://www.w3.org/2000/svg" viewBox="0 0 45 45"><defs><clipPath id="a"><path d="M0 36h36V0H0v36z"/></clipPath></defs><g clip-path="url(#a)" transform="matrix(1.25 0 0 -1.25 0 45)"><path d="M35 5s0-4-4-4H5C1 1 1 5 1 5v19c0 4 4 4 4 4h26s4 0 4-4V5z" fill="#292f33"/><path d="M21.3 25.6a1 1 0 1 0-1.4-1.4l-9.2 9.2a1 1 0 1 0 1.4 1.4l9.2-9.2z" fill="#292f33"/><path d="M14.7 25.6a1 1 0 1 1 1.4-1.4l9.2 9.2a1 1 0 1 1-1.4 1.4l-9.2-9.2z" fill="#292f33"/><path d="M18 25c8 0 10-1 11-2s2-3 2-8-1-7-2-8-3-2-11-2S8 6 7 7s-2 3-2 8 1 7 2 8 3 2 11 2" fill="#55acee"/><path d="M30 4.5a1.5 1.5 0 1 0 3 0 1.5 1.5 0 0 0-3 0m-27 0a1.5 1.5 0 1 0 3 0 1.5 1.5 0 0 0-3 0" fill="#66757f"/></g></svg>