<svg xmlns="http://www.w3.org/2000/svg" viewBox="0 0 45 45"><defs><clipPath id="a"><path d="M0 36h36V0H0v36z"/></clipPath></defs><g clip-path="url(#a)" transform="matrix(1.25 0 0 -1.25 0 45)"><path d="M3.3 24l.3 1.5 2-1.3V24c0-.8.4-1.4 1-1.8a4 4 0 0 1-1.4-2A4.6 4.6 0 0 0 3.3 24M8 28.7l1.5-.3-1.3-2H8a2.3 2.3 0 0 1-1.3-.5l-2 1.3A4.6 4.6 0 0 0 8 28.7m3.2-1.3a4.6 4.6 0 0 0 1.5-3.4l-.1-1H10a2.3 2.3 0 0 1-.2 2.3l1.3 2zm9-.4c0 .6.2 1.1.3 1.6l3.2-1.6c0-.7.3-1.2.8-1.7l-.7-2.3H22a5.7 5.7 0 0 0-1.6 4m5.7 5.7h.8l-1.1-3.5a2.3 2.3 0 0 1-1-.4l-3.3 1.6a5.7 5.7 0 0 0 4.6 2.3m1.8-7l3.6-.6a5.7 5.7 0 0 0-4.2-3.7 4 4 0 0 1-1.4 1.2l.6 2.2a2.4 2.4 0 0 1 1.4.9m1 6.3a5.7 5.7 0 0 0 3-5l-3.6.7c-.1.3-.3.7-.6 1l1.1 3.3zM34 18l-4.9-3H28v4.3a8 8 0 0 1 6 7.7 8 8 0 0 1-16 0 7.9 7.9 0 0 1 1.1-4h-4.2l.1 1a7 7 0 1 1-14 0 7 7 0 0 1 4-6.3V7a4 4 0 0 1 4-4h15a4 4 0 0 1 4 4v3h1.2l4.9-3h.9v11h-1z" fill="#292f33"/><path d="M22 17a2 2 0 1 1 4 0 2 2 0 0 1-4 0M7 17a2 2 0 1 1 4 0 2 2 0 0 1-4 0m17-8a2 2 0 0 1-2 2H11a2 2 0 0 1-2-2V3a2 2 0 0 1 2-2h11a2 2 0 0 1 2 2v6z" fill="#8899a6"/></g></svg>