<svg xmlns="http://www.w3.org/2000/svg" viewBox="0 0 45 45"><defs><clipPath id="a"><path d="M0 36h36V0H0v36z"/></clipPath></defs><g clip-path="url(#a)" transform="matrix(1.25 0 0 -1.25 0 45)"><path d="M25.5 13.3L21.8 17a12 12 0 0 1 2.2 7 12 12 0 1 1-5-9.8l3.6-3.7 2.9 2.8z" fill="#9aaab4"/><path d="M20 24a8 8 0 0 0-8-8 8 8 0 0 0-8 8 8 8 0 0 0 8 8 8 8 0 0 0 8-8" fill="#bdddf4"/><path d="M34.7 6.8l-8.5 8.5a2 2 0 0 1-2.8 0l-2.8-2.8a2 2 0 0 1 0-2.8l2.8-2.9 5.7-5.6a4 4 0 1 1 5.6 5.6" fill="#67757f"/></g></svg>