<svg xmlns="http://www.w3.org/2000/svg" viewBox="0 0 45 45"><defs><clipPath id="a"><path d="M0 36h36V0H0v36z"/></clipPath></defs><g clip-path="url(#a)" transform="matrix(1.25 0 0 -1.25 0 45)"><path d="M11.9 19.7a1 1 0 0 0 0-1.4 1 1 0 0 0-1.5 0L2 26.8a1 1 0 0 0 0 1.4 1 1 0 0 0 1.4 0l8.5-8.5zm7 7.1a1 1 0 0 0 0-1.4 1 1 0 0 0-1.4 0L9 33.9a1 1 0 0 0 0 1.4 1 1 0 0 0 1.4 0l8.5-8.5z" fill="#9aaab4"/><path d="M34 0c0 5-2.6 8.6-4.6 10.7a4 4 0 0 1-.6 4.8l-1 1a4 4 0 0 1-1 4l-5 4.9a2 2 0 0 1-2.9 2.8l-2.8-2.8-4.2-4.3L9 18.3a2 2 0 1 1 2.9-2.8l5-5a4 4 0 0 1 3.8-1l1-1a4 4 0 0 1 5-.7A12 12 0 0 0 30 0h4z" fill="#292f33"/></g></svg>