<svg xmlns="http://www.w3.org/2000/svg" viewBox="0 0 45 45"><defs><clipPath id="a"><path d="M0 36h36V0H0v36z"/></clipPath></defs><g clip-path="url(#a)" transform="matrix(1.25 0 0 -1.25 0 45)" fill="#8899a6"><path d="M15 27l6 6s6 6 12 0 0-12 0-12l-8-8s-6-6-12 0a10.4 10.4 0 0 0-1.8 2.6l3.3 3.4s-.1-1.4 1.5-3c0 0 3-3 6 0l8 8s3 3 0 6-6 0-6 0l-3.7-3.7s-1.9 1.5-5.7.3l.4.4z"/><path d="M20.8 9l-6-6s-6-6-12 0 0 12 0 12l8 8s6 6 12 0c1.2-1.1 1.9-2.6 1.9-2.6L21.3 17s.2 1.4-1.5 3c0 0-3 3-6 0l-8-8s-3-3 0-6 6 0 6 0l3.8 3.7s1.8-1.5 5.6-.3l-.4-.4z"/></g></svg>