<svg xmlns="http://www.w3.org/2000/svg" viewBox="0 0 45 45"><defs><clipPath id="a"><path d="M0 36h36V0H0v36z"/></clipPath><clipPath id="b"><path d="M23 23L13 13c-1-1 0-2 0-2l3-3c1-1 2 0 2 0l10 10c1 1 0 2 0 2l-3 3c-.3.3-.7.5-1 .5-.6 0-1-.5-1-.5"/></clipPath><clipPath id="c"><path d="M0 36h36V0H0v36z"/></clipPath><clipPath id="d"><path d="M11 35L1 25c-1-1 0-2 0-2l3-3c1-1 2 0 2 0l10 10c1 1 0 2 0 2l-3 3c-.3.3-.7.5-1 .5-.6 0-1-.5-1-.5"/></clipPath></defs><g clip-path="url(#a)" transform="matrix(1.25 0 0 -1.25 0 45)"><path d="M35.4 5.3L10 30.8 5.3 26 30.6.6c.1 0 .6-.5 1.4-.5.5 0 1 .2 1.3.6l2 2c.6.5 1 1.7 0 2.7" fill="#8899a6"/><path d="M30 1a1 1 0 0 0-1 1.3l2 6a1 1 0 0 0 1.3.6 1 1 0 0 0 .7-1.2l-2-6a1 1 0 0 0-1-.7m-3 3a1 1 0 0 0-1 1.3l2 6a1 1 0 0 0 1.3.6 1 1 0 0 0 .6-1.2l-2-6A1 1 0 0 0 27 4m-3 3a1 1 0 0 0-1 1.3l2 6a1 1 0 0 0 1.3.6 1 1 0 0 0 .6-1.2l-2-6A1 1 0 0 0 24 7m-3 3a1 1 0 0 0-1 1.3l2 6a1 1 0 0 0 2-.6l-2-6a1 1 0 0 0-1-.7m-5 5a1 1 0 0 0-1 1.3l2 6a1 1 0 1 0 2-.6l-2-6a1 1 0 0 0-1-.7m-3 3a1 1 0 0 0-1 1.3l2 6a1 1 0 1 0 2-.6l-2-6a1 1 0 0 0-1-.7m-3 3a1 1 0 0 0-1 1.3l2 6a1 1 0 1 0 2-.6l-2-6a1 1 0 0 0-1-.7" fill="#66757f"/><path d="M13 11s-1 1 0 2l10 10s1 1 2 0l3-3s1-1 0-2L18 8s-1-1-2 0l-3 3z" fill="#ccd6dd"/></g><g clip-path="url(#b)" transform="matrix(1.25 0 0 -1.25 0 45)"><path d="M14 16l7.5-7.5L18 5l-7.3 7.3L14 16z" fill="#8899a6"/><path d="M20 22l7-7 3.5 3.5L24 25l-4-3z" fill="#e1e8ed"/></g><g clip-path="url(#c)" transform="matrix(1.25 0 0 -1.25 0 45)"><path d="M1 23s-1 1 0 2l10 10s1 1 2 0l3-3s1-1 0-2L6 20s-1-1-2 0l-3 3z" fill="#ccd6dd"/></g><g clip-path="url(#d)" transform="matrix(1.25 0 0 -1.25 0 45)"><path d="M2 28l7.5-7.5L6 17l-7.3 7.3L2 28z" fill="#8899a6"/><path d="M8 34l7-7 3.5 3.5L12 37l-4-3z" fill="#e1e8ed"/></g></svg>