<svg xmlns="http://www.w3.org/2000/svg" viewBox="0 0 45 45"><defs><clipPath id="a"><path d="M0 36h36V0H0v36z"/></clipPath></defs><g clip-path="url(#a)" transform="matrix(1.25 0 0 -1.25 0 45)"><path d="M30 4h-2a6 6 0 0 1-5.9 6 6 6 0 0 1-5.9-6H10a2 2 0 0 1-4 0 2 2 0 0 1 0-4h24a2 2 0 0 1 0 4" fill="#f18f26"/><path d="M20 26v-4a7 7 0 1 0 0-14h-8.5A11 11 0 1 1 20 26m8 1a2 2 0 0 0-2.8 2.8l2.1 2a2 2 0 0 0 2.9 0 2 2 0 0 0 0-2.8L28 27z" fill="#f18f26"/><path d="M33.7 28.3a2 2 0 0 0-2.8 0l-4.3 4.3a2 2 0 1 0 2.9 2.8l4.2-4.2a2 2 0 0 0 0-2.9m-17-15.5a1 1 0 0 0-1.4 0L11.1 17a1 1 0 0 0 0 1.4l12 12a1 1 0 0 0 1.4 0l4.2-4.2a1 1 0 0 0 0-1.4l-12-12z" fill="#fdcb58"/><path d="M18.1 14.2l-5.6 5.7 1.4 1.4 5.7-5.7-1.5-1.4z" fill="#f18f26"/><path d="M16.4 5.6a2 2 0 0 0-2.8 0l-10 9.9a2 2 0 0 0 3 2.8l9.8-9.9a2 2 0 0 0 0-2.8M9 6.5A1 1 0 1 0 7.5 5L3.3 9.3a1 1 0 1 0 1.4 1.4L9 6.5z" fill="#67757f"/></g></svg>