<svg xmlns="http://www.w3.org/2000/svg" viewBox="0 0 45 45"><defs><clipPath id="a"><path d="M0 36h36V0H0v36z"/></clipPath></defs><g clip-path="url(#a)" transform="matrix(1.25 0 0 -1.25 0 45)"><path d="M20 16a3 3 0 1 0-6 0 3 3 0 0 0 6 0" fill="#9aaab4"/><path d="M19.2 19a1 1 0 0 0-1.3-.5L5.5 25.1a1 1 0 0 0-.4 1.4L8 31.8a1 1 0 0 0 1.4.4l12.3-6.6a1 1 0 0 0 .4-1.4L19.2 19zm12-5.3a1 1 0 0 0-1.4-.4l-9.7 5.2a1 1 0 0 0-.4 1.3l1.9 3.5a1 1 0 0 0 1.3.5l9.7-5.2a1 1 0 0 0 .5-1.4l-2-3.5z" fill="#da2f47"/><path d="M21 18l-1.8 1 2.9 5.2 1.7-.9L21 18z" fill="#bb1a34"/><path d="M32.5 11.9l-3.6 1.9 2.9 5.3 3.5-2-2.8-5.2z" fill="#9d0522"/><path d="M8.3 28.2l1.9 3.5-.9.5-4.4 2.3a1 1 0 0 1-1.4-.4L.7 28.8a1 1 0 0 1 .4-1.3l3.5-2 1.8-.9.5 1 1.4 2.6zM23 11a2 2 0 0 0-2-2h-8a2 2 0 0 0 0 4h8a2 2 0 0 0 2-2" fill="#292f33"/><path d="M9.5 0l3.3 7.2a2 2 0 1 1-3.6 1.7L5 0h4.4zm15 0H29l-4.2 8.8a2 2 0 0 1-3.6-1.7L24.5 0zM19 0v8a2 2 0 1 1-4 0V0h4z" fill="#9aaab4"/></g></svg>