<svg xmlns="http://www.w3.org/2000/svg" viewBox="0 0 45 45"><defs><clipPath id="a"><path d="M0 36h36V0H0v36z"/></clipPath></defs><g clip-path="url(#a)" transform="matrix(1.25 0 0 -1.25 0 45)"><path d="M19 14c-6 0-5.1 6.5-5 7l10-2c-.2-2.4-2.6-5-5-5m6 18H14a2 2 0 0 1-2-2H6a2 2 0 0 1-2 2H3a2 2 0 0 1-2-2H0v-5a2 2 0 0 1 2-2h10v-4a7 7 0 0 1 7-7 7 7 0 0 1 7 6h1a2 2 0 0 1 2 2v8a4 4 0 0 0-4 4" fill="#9aaab4"/><path d="M26 18l3 5s5 0 6-9l1-6s0-4-4-4h-2c-4 0-4 4-4 4v10z" fill="#bf6952"/><path d="M27 22a2 2 0 0 0-2 2c0 2.8 1.9 7 7 7a2 2 0 1 0 0-4c-2.9 0-3-2.5-3-3a2 2 0 0 0-2-2m-8-1c0-1 0-3-1-4s2-1 3 1 1 2 1 3-3 0-3 0" fill="#9aaab4"/><path d="M25 26a4 4 0 0 0-4-4h-6c-2.2 0-2 1.8-2 4s-.2 4 2 4h6a4 4 0 0 0 4-4" fill="#67757f"/><path d="M20 27h-5a1 1 0 0 0 0 2h5a1 1 0 1 0 0-2m0-4h-5a1 1 0 0 0 0 2h5a1 1 0 1 0 0-2" fill="#ccd6dd"/></g></svg>