<svg xmlns="http://www.w3.org/2000/svg" viewBox="0 0 45 45"><defs><clipPath id="a"><path d="M0 36h36V0H0v36z"/></clipPath></defs><g clip-path="url(#a)" transform="matrix(1.25 0 0 -1.25 0 45)"><path d="M23 19l1 1s1 1 2 0l2-2s1-1 0-2l-1-1-4 4z" fill="#66757f"/><path d="M34.9 8.1a3 3 0 0 0 0-4.2L32 1a3 3 0 0 0-4.2 0L9 20a3 3 0 0 0 0 4.2l3 2.8a3 3 0 0 0 4.2 0L35 8z" fill="#8899a6"/><path d="M20.9 25.1a3 3 0 0 0 0-4.2L15 15a3 3 0 0 0-4.2 0L6 20s-1 1 0 2l8 8c1 1 2 0 2 0l4.9-4.9z" fill="#66757f"/><path d="M7 19l10 10 2-2L9 17l-2 2z" fill="#8899a6"/><path d="M11 30a1 1 0 0 0-.9.6l-2 4a1 1 0 0 0 1.8.8l2-4A1 1 0 0 0 11 30m-6-6a1 1 0 0 0-.5.1l-4 2a1 1 0 0 0 1 1.8l4-2A1 1 0 0 0 5 24m3 3a1 1 0 0 0-.7.3l-4 4a1 1 0 1 0 1.4 1.4l4-4A1 1 0 0 0 8 27" fill="#ffcc4d"/></g></svg>