<svg xmlns="http://www.w3.org/2000/svg" viewBox="0 0 45 45"><defs><clipPath id="a"><path d="M0 36h36V0H0v36z"/></clipPath></defs><path d="M12.5 11.3V45h20V11.2l-10-10-10 10z" fill="#a7a9ac"/><g clip-path="url(#a)" transform="matrix(1.25 0 0 -1.25 0 45)"><path d="M10 27l8 8 8-8" fill="none" stroke="#292f33" stroke-width="2" stroke-linecap="round" stroke-linejoin="round"/><path d="M11 0H4a2 2 0 0 0-2 2v14a2 2 0 0 0 2 2h5a2 2 0 0 0 2-2V0z" fill="#d1d3d4"/><path d="M12 16.2a2 2 0 0 1-.5 2L8 21.6a2 2 0 0 1-2.9 0L1.6 18a2 2 0 0 1-.5-1.9H12z" fill="#67757f"/><path d="M11 15H2v1h9v-1zM25 0h7a2 2 0 0 1 2 2v14a2 2 0 0 1-2 2h-5a2 2 0 0 1-2-2V0z" fill="#d1d3d4"/><path d="M35 16.2a2 2 0 0 1-.6 2L31 21.6a2 2 0 0 1-2.8 0L24.5 18a2 2 0 0 1-.5-1.9h11z" fill="#67757f"/><path d="M25 15h9v1h-9v-1z" fill="#d1d3d4"/><path d="M12 16.2a1 1 0 0 0-1-1H2a1 1 0 1 0 0 2h9a1 1 0 0 0 1-1m23 0a1 1 0 0 0-1-1h-9a1 1 0 1 0 0 2h9a1 1 0 0 0 1-1" fill="#292f33"/><path d="M17.8 16a2 2 0 0 0-1.7 1l-.7 1.2h-1.6a1.9 1.9 0 0 0-1.6 1 2 2 0 0 0 0 2l.8 1.3-.8 1.3a2 2 0 0 0 0 2c.3.6 1 1 1.6 1h1.6l.7 1.1a2 2 0 0 0 1.7 1 2 2 0 0 0 1.7-1l.7-1.2h1.9c.7 0 1.3-.3 1.7-1a2 2 0 0 0-.1-2l-.8-1.2.8-1.3a2 2 0 0 0 0-2 1.9 1.9 0 0 0-1.6-1h-1.9l-.7-1.2a2 2 0 0 0-1.7-1" fill="#67757f"/><path d="M20.3 20.2l.8 1.3.8-1.3h-1.6zm-2.5-2.1l-.7 1.1h1.4l-.7-1.1zM14 20.2l.7 1.3.7-1.3H14zm0 4.5h1.4l-.7-1.2-.7 1.2zm3.8 2.2l.7-1.2h-1.3l.6 1.2zm2.7-4.4l-1.4-2.3h-2.5l-1.3 2.3 1.3 2.2H19l1.4-2.2zm1.4 2.2l-.8-1.3-.8 1.3h1.6zm-.2-2.2l1.1 1.8c.2.3.3.7.1 1-.2.3-.4.4-.8.4h-2.4l-1 1.7c-.3.4-.6.5-.9.5-.3 0-.6-.2-.8-.5l-1-1.7h-2.2a.9.9 0 0 1-.8-.4v-1l1.1-1.8-1-1.9a1 1 0 0 1 0-1 .9.9 0 0 1 .7-.4H16l1-1.7c.2-.3.5-.5.8-.5.3 0 .6.2.8.5l1 1.7h2.5c.4 0 .6.2.8.4.2.3.1.7 0 1l-1.2 1.9z" fill="#ffcc4d"/><path d="M14 24.7l3.8-6.6 4.1 6.6H14zm3.8-7.7c-.3 0-.6.2-.8.5l-4 6.8a1 1 0 0 0 0 1 .9.9 0 0 0 .7.4H22c.4 0 .7-.1.8-.4.2-.3.1-.7 0-1l-4.3-6.8a1 1 0 0 0-.8-.5" fill="#ffcc4d"/><path d="M14 20.2h8l-4.2 6.7-3.8-6.7zm8-1h-8.2a.9.9 0 0 0-.8.4v1l4 6.8c.2.4.5.5.8.5.3 0 .6-.1.8-.5l4.2-6.8c.2-.3.3-.7.1-1a.9.9 0 0 0-.8-.4" fill="#ffcc4d"/><path d="M21 2h-6v6.5h6V2z" fill="#67757f"/><path d="M21 8.5C21 7.1 19.7 6 18 6s-3 1.1-3 2.5 1.3 2.5 3 2.5 3-1.1 3-2.5" fill="#67757f"/><path d="M26 0H10v2h16V0z" fill="#d1d3d4"/><path d="M8 7.2c0-.8-.7 1-1.5 1S5 6.4 5 7.2v4.5a1.5 1.5 0 1 0 3 0V7.2zm23 0c0-.8-.7 1-1.5 1S28 6.4 28 7.2v4.5a1.5 1.5 0 0 0 3 0V7.2z" fill="#67757f"/></g></svg>