<svg xmlns="http://www.w3.org/2000/svg" viewBox="0 0 45 45"><defs><clipPath id="a"><path d="M0 36h36V0H0v36z"/></clipPath></defs><path d="M22.5 0L0 6.3v36.2L22.5 45 45 42.5V6.2L22.5 0z"/><path d="M22.5 0v45L45 42.5V6.2L22.5 0z" fill="#292f33"/><path d="M28 18.1v4.3l5.4.8V19l-5.3-.9zm8.8 1.5v4l4.1.7v-4l-4-.7zm-14.3-2.4v4.4l2.1.3v-4.3l-2.1-.4zm21.8 7.5l.7.2v-4h-.7v3.9z" fill="#ffd983"/><path d="M0 21v3.8h.7v-4L0 21zm20.4-3.5V22l2.1-.3v-4.4l-2.1.3zM4.1 20.3v4l4-.6v-4.1l-4 .7zm7.5-1.3v4.2l5.3-.8V18l-5.2 1z" fill="#ffac33"/><g clip-path="url(#a)" transform="matrix(1.25 0 0 -1.25 0 45)"><path d="M21.4 20.9c0 .4-.1.8-.3.8s-.4-.4-.4-.8c-.1-.2-.3-.6-.3-1.1 0-.6.2-1 .4-1.2 0-.2.1-.3.3-.3 0 0 .2.1.2.3.3.2.5.6.5 1.2 0 .4-.2.8-.4 1m7-1c0 .5-.1.8-.3.8s-.4-.3-.4-.8a1.6 1.6 0 0 1-.3-1.1c0-.5.2-1 .4-1.2 0-.2.1-.3.3-.3l.2.3c.3.2.5.7.5 1.2s-.2.9-.4 1.1m6-1c0 .4-.1.7-.3.7-.2 0-.3-.3-.3-.7-.2-.2-.3-.6-.3-1 0-.5.1-1 .3-1.1l.3-.4.3.4c.2.2.3.6.3 1 0 .5-.1.9-.3 1" fill="#ffd983"/><path d="M14.6 20.9c0 .4.1.8.3.8s.3-.4.3-.8c.3-.2.4-.6.4-1.1 0-.6-.2-1-.4-1.2 0-.2-.2-.3-.3-.3l-.3.3c-.2.2-.3.6-.3 1.2 0 .4.1.8.3 1m-7-1c0 .5.1.8.3.8s.3-.3.3-.8c.3-.2.4-.6.4-1.1 0-.5-.2-1-.4-1.2 0-.2-.2-.3-.3-.3l-.3.3c-.2.2-.4.7-.4 1.2s.2.9.4 1.1m-6-1c0 .4.1.7.3.7.2 0 .3-.3.3-.7.2-.2.3-.6.3-1 0-.5-.1-1-.3-1.1 0-.2-.2-.4-.3-.4l-.3.4c-.2.2-.3.6-.3 1 0 .5.1.9.3 1M0 25v-3.5l18 3.2v3.8L0 24.9z" fill="#ffac33"/><path d="M18 28.4v-3.8l18-3.3V25l-18 3.5z" fill="#ffd983"/></g></svg>