<svg xmlns="http://www.w3.org/2000/svg" viewBox="0 0 45 45"><defs><clipPath id="a"><path d="M0 36h36V0H0v36z"/></clipPath></defs><g clip-path="url(#a)" transform="matrix(1.25 0 0 -1.25 0 45)"><path d="M.8 19.9c1 0 5.9-1.4 6.5-2.3l-1.3.1S2.1 19 1.1 19s-.3.9-.3.9" fill="#5c913b"/><path d="M11 34c1-1 3-7 3-10s-2-6 2-8 5 1 5 5-1 8-2 10-2 0-2 0-1 4-2 4-1-2-1-2-2 2-3 2 0-1 0-1" fill="#99aab5"/><path d="M10 21c3 0 4-4 6-4s1 3 3 3 10 5 10 11 3 3 3 1c1 0 2-1.6 2-3 0-1 0-2-1-3 1 0 2-2 1-3 1-3-1-6-3-7 0-1-2-3-4-2 0 0-1-3-3-2 0 0 3-1.7 4-2 3-1 7-1 7-1s0-1-2-2c0 0 1-1 0-2s-2-1-2-1 1-2-2-1-6 4-6 4-5-1-9 1-6 6-6 8-3 1-4 1 2 2 3 2c0 0 0 2 3 2" fill="#ccd6dd"/><path d="M7 18s5.4-2.6 7.9-6.7c1.9-3 2.8-8.6 2.8-8.6s0-.6-1 2.2c-1 3-2.1 6.3-4.2 8.2-3.4 3-4.8 3.5-6.1 4.3-.3.2.2.7.6.6" fill="#5c913b"/><path d="M16.2 7.5s2-.1 3.1-2.2c1-2 0-4.9 0-4.9s-2.8 1.3-3.5 3c-.7 1.6.4 4 .4 4m-2.1 4.8s1.3-1.4 3.5-1.7c2.3-.2 4.1 1.4 4.1 1.4s-2 2-4 2c-1.7.1-3.6-1.7-3.6-1.7m-4 3.2S8 15 7 12.9s.5-4 .5-4 2.5.8 3 2.6c.6 1.7-.6 3.9-.6 3.9" fill="#5c913b"/></g></svg>