<svg xmlns="http://www.w3.org/2000/svg" viewBox="0 0 45 45"><defs><clipPath id="a"><path d="M0 36h36V0H0v36z"/></clipPath></defs><g clip-path="url(#a)" transform="matrix(1.25 0 0 -1.25 0 45)"><path d="M23 31.7c0-4.4-9.8-6.7-9.8-13.2 0-2.2 1-4.5 2.1-4.5h15.3c1.1 0 2.2 2.3 2.2 4.5 0 6.5-9.8 8.8-9.8 13.2" fill="#f4900c"/><path d="M35 2.2C35 1 34.7 0 32.8 0H13.2c-2 0-2.2 1-2.2 2.2V13c0 1.2.3 1.9 2.2 1.9h19.6c2 0 2.2-.7 2.2-2V2.3z" fill="#ffd983"/><path d="M23 2a2 2 0 0 0-2-2H3a2 2 0 0 0-2 2v1a2 2 0 0 0 2 2h18a2 2 0 0 0 2-2V2z" fill="#ffd983"/><path d="M26 7c0 3-1.9 5-3 5s-3-2-3-5V0h6v7zm-8-2.3c0 2-1.3 3.3-2 3.3s-2-1.3-2-3.3V0h4v4.7zm14 0c0 2-1.3 3.3-2 3.3s-2-1.3-2-3.3V0h4v4.7z" fill="#662113"/><path d="M9 2a2 2 0 0 0-2-2H5a2 2 0 0 0-2 2v26a2 2 0 0 0 2 2h2a2 2 0 0 0 2-2V2z" fill="#ffd983"/><path d="M6 35.7c0-1.9-2.8-3-2.8-5.7 0-1 .3-2 .6-2h4.4c.3 0 .6 1 .6 2 0 2.8-2.8 3.8-2.8 5.7" fill="#f4900c"/><path d="M10 24a1 1 0 0 0-1-1H3a1 1 0 0 0 0 2h6a1 1 0 0 0 1-1m0 4a1 1 0 0 0-1-1H3a1 1 0 0 0 0 2h6a1 1 0 0 0 1-1" fill="#ffac33"/></g></svg>