<svg xmlns="http://www.w3.org/2000/svg" viewBox="0 0 45 45"><defs><clipPath id="a"><path d="M0 36h36V0H0v36z"/></clipPath></defs><g clip-path="url(#a)" transform="matrix(1.25 0 0 -1.25 0 45)"><path d="M20 14.5a1.5 1.5 0 0 0-3 0v3a1.5 1.5 0 1 0 3 0v-3z" fill="#67757f"/><path d="M27.1 2.2A2.1 2.1 0 0 0 25 0H12.2A2.2 2.2 0 0 0 10 2.2V15c0 1.2.1 2.2 2.2 2.2 2 0 2.8-4.2 12.8-2.2 1 0 2.2-1 2.1-2.2V2.2z" fill="#e1e8ed"/><path d="M18.7 17.5c-2.6 0-7 1.9-7 5.9s4.4 5.4 7 11.4c.8 1.7 1 1 1.9 0 2-2.4 5-7.5 5-11.5 0-4.7-4.6-5.8-7-5.8" fill="#fcab40"/><path d="M18.7 18.6c-4.2 0-3.5 5.7 0 9.2 2.3-1.1 5.8-9.3 0-9.3" fill="#fdcb58"/><path d="M11 7a1 1 0 1 0-2 0v7a1 1 0 1 0 2 0V7zm4-3a1 1 0 1 0-2 0v7a1 1 0 1 0 2 0V4zm0 11a1 1 0 1 0-2 0v1a1 1 0 1 0 2 0v-1z" fill="#ccd6dd"/></g></svg>