<svg xmlns="http://www.w3.org/2000/svg" viewBox="0 0 45 45"><defs><clipPath id="a"><path d="M0 36h36V0H0v36z"/></clipPath></defs><g clip-path="url(#a)" transform="matrix(1.25 0 0 -1.25 0 45)"><path d="M8 34c0-5.6 3-11 7-14m1-2c-2 0-9 1-12 8m12-10c-1 0-9 1-12-8m12 8C11 13 8 5 8 1m20 33c0-5.6-3-11-7-14m-1-2c2 0 9 1 12 8M20 16c1 0 9 1 12-8m-12 8c5-3 8-11 8-15" fill="none" stroke="#292f33" stroke-width="2" stroke-linecap="round" stroke-linejoin="round" stroke-miterlimit="10"/><path d="M24 10.8C24 7 21.3 4 18 4s-6 3-6 6.8 2.7 6.8 6 6.8 6-3 6-6.8" fill="#292f33"/><path d="M22 19c0-3.3-1.8-6-4-6s-4 2.7-4 6 1.8 6 4 6 4-2.7 4-6" fill="#292f33"/><path d="M15 26c0-1 0-2 1-3m5 3c0-1 0-2-1-3" fill="none" stroke="#292f33" stroke-width="2" stroke-linecap="round" stroke-linejoin="round" stroke-miterlimit="10"/></g></svg>