<svg xmlns="http://www.w3.org/2000/svg" viewBox="0 0 45 45"><defs><clipPath id="a"><path d="M0 36h36V0H0v36z"/></clipPath></defs><g clip-path="url(#a)" transform="matrix(1.25 0 0 -1.25 0 45)"><path d="M17.2 32l.3.4V29a8.9 8.9 0 0 0-3-2.2 8.7 8.7 0 0 0-4-.6l-1 1-1.3 1.2a12.1 12.1 0 0 1 9 3.5m1.6 0a12.1 12.1 0 0 1 9-3.5l-1.3-1.3-1-1a8.7 8.7 0 0 0-7 2.8v3.3l.3-.3M32 18.8l.4-.3H29a8.7 8.7 0 0 0-2.8 7l1 1 1.2 1.3a12.1 12.1 0 0 1 3.5-9M28.5 8.2l-1.2 1.2-1 1a8.7 8.7 0 0 0 .6 4 8.9 8.9 0 0 0 2.2 3.1h3.3l-.4-.3a12.1 12.1 0 0 1-3.5-9M18.8 4l-.3-.4V7a8.9 8.9 0 0 0 3 2.2 8.7 8.7 0 0 0 4 .6l2.3-2.2a12.1 12.1 0 0 1-9-3.5m-1.6 0a12.1 12.1 0 0 1-9 3.5l1.3 1.3 1 1a8.7 8.7 0 0 0 7-2.9V3.6l-.3.4M4 17.2l-.4.3H7a8.7 8.7 0 0 0 2.8-7l-1-1-1.2-1.3a12.1 12.1 0 0 1-3.5 9m9 5.1a8.2 8.2 0 0 0-.4-1.8 8.5 8.5 0 0 0-1.1-2H8.3a10 10 0 0 1 1.7 2.7 9.7 9.7 0 0 1 .7 3.4l2.3-2.3zm4.5 5.4v-3.2a8.5 8.5 0 0 0-2-1 8.2 8.2 0 0 0-1.8-.5l-.6.6-1.7 1.7a9.7 9.7 0 0 1 3.4.7c1 .4 2 1 2.7 1.7m5.4-4.1l-.6-.6a8.2 8.2 0 0 0-1.9.4 8.2 8.2 0 0 0-2 1v3.3a9.7 9.7 0 0 1 2.7-1.7 9.7 9.7 0 0 1 3.5-.7L23 23.6zm1.6-5.1a8.2 8.2 0 0 0-1 2 8.2 8.2 0 0 0-.5 1.8l.6.6 1.7 1.7a9.7 9.7 0 0 1 .7-3.4 9.7 9.7 0 0 1 1.7-2.7h-3.2zm-.9-5.4l-.6.6a8.2 8.2 0 0 0 1.5 3.8h3.2a10 10 0 0 1-1.7-2.7 9.7 9.7 0 0 1-.7-3.4l-1.7 1.7zm-5.1-4.8v3.2a8.6 8.6 0 0 0 2 1 8.2 8.2 0 0 0 1.8.5l2.3-2.3A9.7 9.7 0 0 1 21 10a10 10 0 0 1-2.6-1.7M13 12.4l.6.6a8.2 8.2 0 0 0 1.8-.4 8.2 8.2 0 0 0 2-1V8.2a9.7 9.7 0 0 1-2.7 1.7 9.7 9.7 0 0 1-3.4.7l1.7 1.7zm-.5 3.2l.4-1.9-.6-.6-1.7-1.7A9.7 9.7 0 0 1 10 15a9.7 9.7 0 0 1-1.7 2.6h3.2a8.2 8.2 0 0 0 1-2m2.9 4.4v-.2a2.5 2.5 0 0 0-.3-1l-.2-.2h-2.3a9.7 9.7 0 0 1 .9 1.6l.3 1.4 1.6-1.6zm2.1 3.4v-2.2l-.3-.2a2.5 2.5 0 0 0-.3-.2 2.4 2.4 0 0 0-.6-.1h-.2l-1.6 1.6c.5 0 1 .2 1.4.3a9.7 9.7 0 0 1 1.6.8m2.4-2.7h-.2c-.4 0-.7.1-1 .3l-.2.2v2.2a9.3 9.3 0 0 1 1.6-.8 9.3 9.3 0 0 1 1.3-.4L20 20.6zm1.1-2.1l-.1.2c-.2.3-.3.6-.3 1v.2l1.5 1.5.4-1.3a9.2 9.2 0 0 1 .8-1.6H21zm-.4-2.4v.2l.1.6.2.4.2.2h2.2a9.7 9.7 0 0 1-.8-1.6 9.3 9.3 0 0 1-.4-1.4l-1.5 1.6zm-2.1-3.4V15l.2.2c.3.2.6.3 1 .3h.2l1.5-1.5a9.3 9.3 0 0 1-1.3-.4 9.6 9.6 0 0 1-1.6-.8M16 15.4h.2l.6-.1.4-.2.2-.1v-2.3a9.2 9.2 0 0 1-1.6.8 9 9 0 0 1-1.4.4l1.6 1.5zm-1 2.1l.2-.2c.2-.3.3-.6.3-1v-.2L14 14.6a9.3 9.3 0 0 1-.4 1.3 9.3 9.3 0 0 1-.8 1.6H15zm4.7 2.1c0-.6.3-1.1.6-1.6a3.4 3.4 0 0 1-.4-.7 3.4 3.4 0 0 1-.2-1 3.4 3.4 0 0 1-.8-.1 3.4 3.4 0 0 1-.8-.4 3.5 3.5 0 0 1-.8.4 3.4 3.4 0 0 1-.8.2 3.4 3.4 0 0 1-.6 1.6l.4.8.2.8a3.3 3.3 0 0 1 1.6.6 3.4 3.4 0 0 1 1.6-.6m-12 8.2l2.1-2.2a8.7 8.7 0 0 0-.6-4A8.9 8.9 0 0 0 7 18.5H3.6l.4.3a12.1 12.1 0 0 1 3.5 9M6.7 6l.4.5c4 .5 8-1.2 10.4-4.4v-.6a.5.5 0 0 1 1 0V2a11.1 11.1 0 0 0 10.3 4.4l.5-.5a.5.5 0 0 1 .2-.1.5.5 0 0 1 .5 0 .5.5 0 0 1 .1.6.5.5 0 0 1 0 .2l-.6.5A11.1 11.1 0 0 0 34 17.5h.6a.5.5 0 1 1 0 1H34a11.2 11.2 0 0 0-4.4 10.4l.5.4a.5.5 0 0 1 0 .7.5.5 0 0 1-.2.1.5.5 0 0 1-.5 0l-.4-.6A11.2 11.2 0 0 0 18.5 34v.6a.5.5 0 1 1-1 0V34a11.1 11.1 0 0 0-10.3-4.4l-.5.5a.5.5 0 0 1-.2.1.5.5 0 0 1-.5 0 .5.5 0 0 1-.1-.6.5.5 0 0 1 0-.2l.6-.5A11.1 11.1 0 0 0 2 18.5h-.6a.5.5 0 1 1 0-1H2A11 11 0 0 0 6.5 7.2L6 6.7a.5.5 0 0 1-.1-.5.5.5 0 0 1 0-.2.5.5 0 0 1 .8 0" fill="#66757f"/></g></svg>