<svg xmlns="http://www.w3.org/2000/svg" viewBox="0 0 45 45"><defs><clipPath id="a"><path d="M0 36h36V0H0v36z"/></clipPath></defs><g clip-path="url(#a)" transform="matrix(1.25 0 0 -1.25 0 45)"><path d="M1.2 21c.3-.3 1.5-1 1.7-1.7.3-.7.7-5.3 2.2-6.5 1.5-1.2 7-.8 8.1-.2 2.4 1.2 2.7 5 3.1 6.7.3 1 1.7 1 1.7 1s1.5 0 1.7-1c.4-1.7.7-5.5 3.1-6.7 1-.6 6.7-1 8.2.2 1.4 1.2 1.9 5.8 2.1 6.5.3.7 1.5 1.4 1.7 1.7s.2 1.2 0 1.4c-.5.5-6.1 1-12.2.3-1.2-.2-1.7-.5-4.6-.5-2.9 0-3.3.3-4.5.5-6.1.6-11.8.2-12.3-.3-.2-.2-.2-1.2 0-1.4" fill="#292f33" fill-rule="evenodd"/></g></svg>