<svg xmlns="http://www.w3.org/2000/svg" viewBox="0 0 45 45"><defs><clipPath id="a"><path d="M0 36h36V0H0v36z"/></clipPath></defs><g clip-path="url(#a)" transform="matrix(1.25 0 0 -1.25 0 45)"><path d="M18 25c-9.4 0-17-3.4-17-7.5S8.6 10 18 10s17 3.4 17 7.5S27.4 25 18 25" fill="#292f33"/><path d="M33.9 16.7l.1.8c0 1.4-1.2 2.7-3 3.7v-2.8a16 16 0 0 0 2.9-1.7M5 21.2c-1.8-1-3-2.3-3-3.7l.1-.8C3 17.3 4 18 5 18.4v2.8z" fill="#7d8b93"/><path d="M18 24a29 29 0 0 1-13-2.8v-2.8C8.4 20 13 21 18 21s9.6-1 13-2.6v2.8A29 29 0 0 1 18 24" fill="#ccd6dd"/></g></svg>