<svg xmlns="http://www.w3.org/2000/svg" viewBox="0 0 45 45"><defs><clipPath id="a"><path d="M0 36h36V0H0v36z"/></clipPath></defs><g clip-path="url(#a)" transform="matrix(1.25 0 0 -1.25 0 45)"><path d="M35.7 28.5l-7.2 7.2a1 1 0 0 1-1.4 0L3.4 12a1 1 0 0 1 0-1.4C4 9.8.3 2.6 0 2l2-2c.6.3 7.8 4.1 8.6 3.4a1 1 0 0 1 1.4 0l23.7 23.7a1 1 0 0 1 0 1.4" fill="#dd2e44"/><path d="M12.8 4.1L4 12.8 26.4 35l8.6-8.6L12.8 4.1z" fill="#ea596e"/><path d="M32.1 23.5l-8.6 8.7 1.5 1.4 8.6-8.6-1.4-1.5zm-17.9-18l-8.6 8.7L7 15.6 15.6 7l-1.4-1.4z" fill="#292f33"/><path d="M26.9 26.6c-1.5 1.6-6-.4-10-4.4s-6-8.5-4.4-10c1.5-1.5 6 .5 10 4.5s6 8.4 4.4 10" fill="#be1931"/></g></svg>