<svg xmlns="http://www.w3.org/2000/svg" viewBox="0 0 45 45"><defs><clipPath id="a"><path d="M0 36h36V0H0v36z"/></clipPath></defs><g clip-path="url(#a)" transform="matrix(1.25 0 0 -1.25 0 45)"><path d="M14.6 8.3c2.8 1.7 6.6 3.8 9.9 7.1 7 7 12.7 17 11.3 18.4-1.4 1.4-11.4-4.3-18.4-11.3a42.6 42.6 0 0 1-7-10l4.2-4.2z" fill="#3b88c3"/><path d="M.4 1.3s7.1-1.5 12 3.5a7.6 7.6 0 0 1 2.2 5l-2.9 2.8s-3.5-.7-5-2.1A14.8 14.8 0 0 1 4 4.7C3.2 2.4.4 1.3.4 1.3" fill="#c1694f"/><path d="M17.9 10.7l-5.2 5.1c-.4.4-1 .4-1.3-.1l-1-1.7c-.4-.5-.4-1.2 0-1.5l4.1-4.1c.4-.4 1-.4 1.5-.1l1.7 1.1c.5.3.6.9.2 1.3" fill="#ccd6dd"/><path d="M11.2 3.7c-1.2-.7-1.8 0-1.6.7.2.7-.1 1.6-1.2 1.4-1.1-.3-1.9.3-1.5 1.7C7.2 9 5.8 9.4 5 8a18 18 0 0 1-1-3.2C3.2 2.4.4 1.3.4 1.3s6-1.2 10.8 2.5" fill="#a0041e"/></g></svg>