<svg xmlns="http://www.w3.org/2000/svg" viewBox="0 0 45 45"><defs><clipPath id="a"><path d="M0 36h36V0H0v36z"/></clipPath></defs><g clip-path="url(#a)" transform="matrix(1.25 0 0 -1.25 0 45)"><path d="M4 2.5C2.2.8.5-.3 0 .1-.2.5.9 2.2 2.7 4 4.3 5.7 6 6.8 6.5 6.4c.3-.3-.8-2-2.5-3.9" fill="#c1694f"/><path d="M6.4 6.4l-2 2.2S3.1 7.2 2 4.9A19 19 0 0 1 .8 2.2l.7-.7.7-.7S3.2 1 4.9 2a28.2 28.2 0 0 1 3.7 2.3L6.4 6.4z" fill="#ffcc4d"/><path d="M34 34c-3.5 3.6-18-10.3-18.8-11-.7-.7-1.3-1.3-1-1.7l-2.1-2.1C10 17 3.6 9.2 4.3 8.6l2.1-2.2 2.2-2C9.3 3.5 17 10 19.2 12l2 2.1c.5-.4 1.1.2 1.8 1 .7.7 14.6 15.3 11 18.8" fill="#292f33"/><path d="M23 15.2l.8.8-7.8 7.8a42.3 42.3 0 0 1-.9-.8c-.7-.7-1.3-1.3-.9-1.7l3.6-3.5 3.5-3.6c.4-.4 1 .2 1.7 1" fill="#ffcc4d"/><path d="M31.2 34c-1 1-2.1 1.9-4 1-1.7-.9-7.2-4.4-9.8-7-1.3-1.3-1.2-2-.8-2.2.9 0 1.4 0 2.2.7s.9 2 .9 2 3 2.4 5.4 3.8c2.4 1.5 3.3 1.7 4.1.9.9-.9 2 .8 2 .8" fill="#ffac33"/><path d="M28.9 33.5l4.6-4.6a13 13 0 0 1 .8 2L31 34.3a12.9 12.9 0 0 1-2-.8" fill="#ffac33"/></g></svg>