<svg xmlns="http://www.w3.org/2000/svg" viewBox="0 0 45 45"><defs><clipPath id="a"><path d="M0 36h36V0H0v36z"/></clipPath><clipPath id="b"><path d="M6 29V12a12 12 0 1 1 24 0v17c0 2-2 5-12 5S6 31 6 29"/></clipPath><clipPath id="c"><path d="M0 36h36V0H0v36z"/></clipPath></defs><g clip-path="url(#a)" transform="matrix(1.25 0 0 -1.25 0 45)"><path d="M18 34C8 34 6 31 6 29V12a12 12 0 0 1 24 0v17c0 2-2 5-12 5" fill="#99aab5"/></g><g clip-path="url(#b)" transform="matrix(1.25 0 0 -1.25 0 45)" fill="#292f33"><path d="M22 26h-8v8h8v-8z"/><path d="M18 27C8 27 6 24 6 22v-2c0 2 2 5 12 5s12-3 12-5v2c0 2-2 5-12 5"/></g><g clip-path="url(#c)" transform="matrix(1.25 0 0 -1.25 0 45)"><path d="M22 25.5c0-1.4-1.8-2.5-4-2.5s-4 1.1-4 2.5 1.8 2.5 4 2.5 4-1.1 4-2.5" fill="#292f33"/><path d="M20 27a2 2 0 0 0-4 0v7a2 2 0 0 0 4 0v-7z" fill="#99aab5"/></g></svg>