<svg xmlns="http://www.w3.org/2000/svg" viewBox="0 0 45 45"><defs><clipPath id="a"><path d="M0 36h36V0H0v36z"/></clipPath></defs><g clip-path="url(#a)" transform="matrix(1.25 0 0 -1.25 0 45)"><path d="M33 19c0-9.4-2.2-19-15-19S3 9.6 3 19s5.6 14 15 14c9.5 0 15-4.7 15-14" fill="#66757f"/><path d="M32 22c0-7.9-2-16-14-16S4 14.1 4 22c0 8 5.2 11 14 11s14-3 14-11" fill="#99aab5"/><path d="M29 23.5c0-5.3-5-8.5-11-8.5S7 18.3 7 23.5 12 33 18 33s11-4.3 11-9.5" fill="#ccd6dd"/><path d="M28 26c0-5.5-4.5-8-10-8S8 20.5 8 26a10 10 0 0 0 20 0" fill="#744eaa"/><path d="M17 13V8.2c0-1-9.7 1-9.7 6 0 1.4.3 2 2.3 1C14.1 13 17 13.6 17 13m2 0V8.2c0-1 9.7 1 9.7 6 0 1.4-.3 2-2.3 1C21.9 13 19 13.6 19 13" fill="#292f33"/></g></svg>