<svg xmlns="http://www.w3.org/2000/svg" viewBox="0 0 45 45"><defs><clipPath id="a"><path d="M0 36h36V0H0v36z"/></clipPath></defs><g clip-path="url(#a)" transform="matrix(1.25 0 0 -1.25 0 45)"><path d="M30 2a2 2 0 0 0-2-2H8a2 2 0 0 0-2 2v32a2 2 0 0 0 2 2h20a2 2 0 0 0 2-2V2z" fill="#292f33"/><path d="M28 20a1 1 0 0 0-1-1H9a1 1 0 0 0-1 1v13a1 1 0 0 0 1 1h18a1 1 0 0 0 1-1V20zm0-17a1 1 0 0 0-1-1H9a1 1 0 0 0-1 1v13a1 1 0 0 0 1 1h18a1 1 0 0 0 1-1V3z" fill="#66757f"/><path d="M22 28a1 1 0 0 0-1-1h-6a1 1 0 0 0-1 1v3a1 1 0 0 0 1 1h6a1 1 0 0 0 1-1v-3zm0-17a1 1 0 0 0-1-1h-6a1 1 0 0 0-1 1v3a1 1 0 0 0 1 1h6a1 1 0 0 0 1-1v-3z" fill="#292f33"/><path d="M21 28h-6v3h6v-3zm0-17h-6v3h6v-3zm3 12a1 1 0 0 0-1-1H13a1 1 0 0 0-1 1c0 .6.4 1 1 1h10a1 1 0 0 0 1-1zm0-17a1 1 0 0 0-1-1H13a1 1 0 0 0-1 1c0 .6.4 1 1 1h10a1 1 0 0 0 1-1z" fill="#e1e8ed"/></g></svg>