<svg xmlns="http://www.w3.org/2000/svg" viewBox="0 0 45 45"><defs><clipPath id="a"><path d="M0 36h36V0H0v36z"/></clipPath></defs><path d="M36.1 33.5L34 28l3.1-8.3.6 1.3L36 33.5zM29.4 40l2.8-7.2 2.7 7.2h-5.5zm-5-12l3-7.8 3 7.8-3 7.7-3-7.7zm-4.7 12l2.8-7.2 2.8 7.2h-5.6zm-5-12l3-7.8 3 7.8-3 7.7-3-7.7zM10 40l2.8-7.2 2.7 7.2H10zM7.5 20.8l.4-1.1L11 28l-2 5-1.6-12.2zM12.7 7l3.2 8.5-3 7.8L9.6 15l3-8zm9.8.5l3 8-3 7.8-3-7.8 3-8zm9.8-.5l3.1 8-3.3 8.3-3-7.8L32.3 7zm7-2.1l-2.1 5.7L34.9 5h-5.2l-2.4 6.1L25 5h-4.8l-2.4 6.1L15.3 5H10l-2.3 5.7L5.6 5h-3l4.7 35h30.4l4.6-35h-3z" fill="#9aaab4"/><g clip-path="url(#a)" transform="matrix(1.25 0 0 -1.25 0 45)"><path d="M32 2a2 2 0 0 1-2 2H6a2 2 0 0 1 0-4h24a2 2 0 0 1 2 2m4 32a2 2 0 0 1-2 2H2a2 2 0 0 1 0-4h32a2 2 0 0 1 2 2" fill="#67757f"/></g></svg>