<svg xmlns="http://www.w3.org/2000/svg" viewBox="0 0 45 45"><defs><clipPath id="a"><path d="M0 36h36V0H0v36z"/></clipPath><clipPath id="b"><path d="M22.6 33.3L1.4 12.1 12 1.5l21.2 21.2c2 2 1.2 5.9-1.8 8.8a9 9 0 0 1-6 2.9 4 4 0 0 1-2.8-1.1"/></clipPath><clipPath id="c"><path d="M0 36h36V0H0v36z"/></clipPath></defs><g clip-path="url(#a)" transform="matrix(1.25 0 0 -1.25 0 45)"><path d="M33.2 22.7L12 1.5 1.4 12l21.2 21.2c2 2 6 1.2 8.8-1.7 3-3 3.8-7 1.8-8.9" fill="#e1e8ed"/></g><g clip-path="url(#b)" transform="matrix(1.25 0 0 -1.25 0 45)"><path d="M1.4 12.1L26 36.8l5.6-5.5L6.9 6.5l-5.5 5.6z" fill="#99aab5"/></g><g clip-path="url(#c)" transform="matrix(1.25 0 0 -1.25 0 45)"><path d="M10.2 10.3c-3 3-6.9 3.7-8.8 1.8-2-2-1.2-5.9 1.8-8.8C6 .3 10-.5 12 1.4c2 2 1.2 5.9-1.8 8.8" fill="#66757f"/><path d="M31.7 31.3c2.7-3 3.4-6.7 1.5-8.6L12 1.5c2 2 1.2 5.9-1.8 8.8l-3.9 4 21.3 21.1 4.1-4.1z" fill="#ccd6dd"/><path d="M33.1 32.7c2.7-3 3.4-6.7 1.5-8.6L13.4 3c2 2 1.2 6-1.8 8.8l-2.4 2.5 21.2 21.2 2.7-2.7z" fill="#e1e8ed"/><path d="M2.2 11C.8 9.6 1.4 6.6 3.5 4.2c2-2.1 5-4 7.2-2.1a3.4 3.4 0 0 1 1.1 2.7c0 2-1.3 4.2-3.3 5.8a.8.8 0 0 1-1 0 .8.8 0 0 1 0-1.1c1.7-1.3 2.8-3.2 2.8-4.7 0-.5 0-1.1-.6-1.6-1.5-1.2-3.9.7-5 2-1.8 2-2.1 4-1.4 4.7.1.2.4.3.7.2.8-.3 2-1.7 2.5-4.2a.8.8 0 1 1 1.5.3C7.4 9 6 11 4.4 11.5c-.8.3-1.6 0-2.2-.5m26.2 20.7a.8.8 0 0 1 0-1.1c.1 0 3.2-2.6 3.3-5.8a.8.8 0 0 1 1.6 0c-.2 4-3.7 6.8-3.9 7a.8.8 0 0 1-1-.1m-2-2.1a.8.8 0 0 1 0-1.1s3-2.6 3.2-5.9a.8.8 0 0 1 1.5.1c-.2 4-3.6 6.8-3.8 7a.8.8 0 0 1-1-.1M17.8 21a.8.8 0 0 1 0-1.1c.1 0 3.2-2.6 3.3-5.8a.8.8 0 0 1 1.5 0c-.2 4-3.6 6.8-3.8 7a.8.8 0 0 1-1-.1m-5-5a.8.8 0 0 1 .1-1s3.1-2.6 3.3-5.9a.8.8 0 1 1 1.5 0c-.2 4-3.7 6.9-3.8 7a.8.8 0 0 1-1 0" fill="#99aab5"/><path d="M24.8 16.5l3.7 3.6c.6.7-1.5 5.5-3.3 6.9-.4.3-.8 0-1-.2a356.9 356.9 0 0 0-3.7-3.7c-.2-.2-.4-.6 0-1 1-1 3-3.4 3.5-5.6 0-.3.5-.3.8 0" fill="#5dadec"/></g></svg>