<svg xmlns="http://www.w3.org/2000/svg" viewBox="0 0 45 45"><defs><clipPath id="a"><path d="M0 36h36V0H0v36z"/></clipPath></defs><path d="M34.8 8h2.5V5h-2.5v3z" fill="#66757f"/><g clip-path="url(#a)" transform="matrix(1.25 0 0 -1.25 0 45)"><path d="M29 32H9a4 4 0 0 1-4-4V4a4 4 0 0 1 4-4h20a4 4 0 0 1 4 4v24a4 4 0 0 1-4 4" fill="#55acee"/><path d="M27 32H7a4 4 0 0 1-4-4V4a4 4 0 0 1 4-4h20a4 4 0 0 1 4 4v24a4 4 0 0 1-4 4" fill="#ccd6dd"/><path d="M28 21a1 1 0 0 0-1-1H7a1 1 0 1 0 0 2h20a1 1 0 0 0 1-1m0-5a1 1 0 0 0-1-1H7a1 1 0 1 0 0 2h20a1 1 0 0 0 1-1m0-5a1 1 0 0 0-1-1H7a1 1 0 1 0 0 2h20a1 1 0 0 0 1-1m-8-5a1 1 0 0 0-1-1H7a1 1 0 1 0 0 2h12a1 1 0 0 0 1-1" fill="#99aab5"/><path d="M7.8 27.3c-.7 0-1.2.6-1.2 1.5s.5 1.4 1.2 1.4 1.3-.6 1.3-1.5-.6-1.4-1.3-1.4" fill="#292f33"/><path d="M8.5 29c0 .4-.3.7-.7 1-.5.2-1 1-1 1.8 0 1.1.7 2.1 1.5 2.1S9.8 33 9.8 32h2c0 2-1.6 3.8-3.5 3.8-2 0-3.5-1.8-3.5-4a4 4 0 0 1 2.6-4c.7-.2 1.2.5 1.1 1.1" fill="#66757f"/><path d="M13.8 27.3c-.7 0-1.2.6-1.2 1.5s.5 1.4 1.2 1.4 1.3-.6 1.3-1.5-.6-1.4-1.3-1.4" fill="#292f33"/><path d="M14.5 29c0 .4-.3.7-.7 1-.5.2-1 1-1 1.8 0 1.1.7 2.1 1.5 2.1s1.5-.9 1.5-1.9h2c0 2-1.6 3.8-3.5 3.8s-3.5-1.8-3.5-4a4 4 0 0 1 2.6-4c.7-.2 1.2.5 1.1 1.1" fill="#66757f"/><path d="M19.8 27.3c-.7 0-1.2.6-1.2 1.5s.5 1.4 1.2 1.4 1.3-.6 1.3-1.5-.6-1.4-1.3-1.4" fill="#292f33"/><path d="M20.5 29c0 .4-.3.7-.7 1-.5.2-1 1-1 1.8 0 1.1.7 2.1 1.5 2.1s1.5-.9 1.5-1.9h2c0 2-1.6 3.8-3.5 3.8s-3.5-1.8-3.5-4a4 4 0 0 1 2.6-4c.7-.2 1.2.5 1.1 1.1" fill="#66757f"/><path d="M25.8 27.3c-.7 0-1.2.6-1.2 1.5s.5 1.4 1.2 1.4 1.3-.6 1.3-1.5-.6-1.4-1.3-1.4" fill="#292f33"/><path d="M26.5 29c0 .4-.3.7-.7 1-.5.2-1 1-1 1.8 0 1.1.7 2.1 1.5 2.1s1.5-.9 1.5-1.9h2c0 2-1.6 3.8-3.5 3.8s-3.5-1.8-3.5-4a4 4 0 0 1 2.6-4c.7-.2 1.2.5 1.1 1.1" fill="#66757f"/></g></svg>