<svg xmlns="http://www.w3.org/2000/svg" viewBox="0 0 45 45"><defs><clipPath id="a"><path d="M0 36h36V0H0v36z"/></clipPath><clipPath id="b"><path d="M11.2 16.2L3.4 8.4c-.7-.8-.6-2.2.3-3l.9-1c1-.9 2.3-1 3-.2l7.9 7.8c.7.7.6 2.1-.3 3l-.9 1c-.5.4-1.2.7-1.8.7-.5 0-1-.2-1.3-.5"/></clipPath><clipPath id="c"><path d="M0 36h36V0H0v36z"/></clipPath></defs><g clip-path="url(#a)" transform="matrix(1.25 0 0 -1.25 0 45)"><path d="M12.6 19c.7.7 7 12.8 22.6 17L14 14.8c-.7.7-1.4 4.2-1.4 4.2" fill="#ccd6dd"/><path d="M18.3 13.4c.7.7 12.7 7 17 22.6L14 14.8c.7-.7 4.3-1.4 4.3-1.4" fill="#9aaab4"/><path d="M15.4 12c.8.7.7 2.1-.2 3l-.9 1c-1 .9-2.3 1-3 .2l-8-7.8c-.8-.8-.6-2.2.3-3l.9-1c.9-.9 2.3-1 3-.2l7.9 7.8z" fill="#292f33"/></g><g clip-path="url(#b)" transform="matrix(1.25 0 0 -1.25 0 45)"><path d="M19 10.7c0-.5-1-.8-2-.6L3 13c-1 .2-1.8.8-1.6 1.4 0 .5 1 .8 2 .6l14-2.8c1-.2 1.7-.8 1.6-1.4m3.3 3.3c-.1-.5-1-.8-2-.6L6.2 16.2c-1 .2-1.7.8-1.6 1.3.1.6 1 .9 2 .7l14.1-2.9c1-.2 1.7-.8 1.6-1.3m-4-7.2c-.2-.5-1-.8-2-.6L2 9C1 9.2.4 9.8.5 10.3c0 .6 1 .9 2 .7l14-2.9c1-.2 1.7-.8 1.6-1.3m-3.5-3.6c-.1-.5-1-.8-2-.6l-14 2.9c-1 .2-1.7.8-1.6 1.3.1.5 1 .8 2 .6l14-2.8c1-.2 1.7-.8 1.6-1.3" fill="#67757f"/></g><g clip-path="url(#c)" transform="matrix(1.25 0 0 -1.25 0 45)"><path d="M7 2a4 4 0 0 0-5.7 5.7 4 4 0 0 0 5.7 0A4 4 0 0 0 7 2m12.7 7.8a1.5 1.5 0 0 0-2.1 0l-8.9 8.9a1.5 1.5 0 1 0 2.2 2.1l8.8-8.8a1.5 1.5 0 0 0 0-2.2" fill="#292f33"/></g></svg>