<svg xmlns="http://www.w3.org/2000/svg" viewBox="0 0 45 45"><defs><clipPath id="a"><path d="M0 36h36V0H0v36z"/></clipPath><clipPath id="b"><path d="M4 36s-4 0-4-4V4c0-4 4-4 4-4h28c4 0 4 4 4 4v28s0 4-4 4H4z"/></clipPath></defs><g clip-path="url(#a)" transform="matrix(1.25 0 0 -1.25 0 45)"><path d="M36 4s0-4-4-4H4S0 0 0 4v28c0 4 4 4 4 4h28c4 0 4-4 4-4V4z" fill="#88c9f9"/></g><g clip-path="url(#b)" transform="matrix(1.25 0 0 -1.25 0 45)"><path d="M3.1 14h1.5L4 12l-.9 2M36 26l-7.2-1.8a13 13 0 0 1-2.3 2.6L32 36h-2l-6.4-7.3c-1.1.6-2.4 1-3.7 1.1L19 36h-2l-.9-6.2a12.9 12.9 0 0 1-3.7-1L7 36H5l4.6-9.1a13 13 0 0 1-2.4-2.7L0 26v-2l5.8-2.5A13 13 0 0 1 5 17v-.3l-2.8-.4-.2.7c-1 3-2 5-2 5L-1-3l33 3s-.5 1 0 2c.2.4 1.4.7 1 2-.7 2.1-1.4 6.8-1.8 10H36v2l-5 .7a8 8 0 0 0 0 .3 13 13 0 0 1-.8 4.5L36 24v2z" fill="#157569"/><path d="M7 18s.4 3.3 4 6c4 3 6 2 6 1s-3-1-6-3-4-4-4-4m22 0s-.4 3.3-4 6c-4 3-6 2-6 1s3-1 6-3 4-4 4-4m-11 4c-6 0-8-4-8-4s2 2 4 2 2-2 2-2v-2c0-1 2-1 2-1s2 0 2 1v2s0 2 2 2 4-2 4-2-2 4-8 4" fill="#3fc9b9"/><path d="M23 16c-2 0-2 1-2 1s0-2.8-1-4h-4c-1 1.2-1 4-1 4s0-1-2-1-4 1-4 1 0-9 2-10c1.3-.6 4 1 7 1s5.7-1.6 7-1c2 1 2 10 2 10s-2-1-4-1" fill="#3fc9b9"/><path d="M15 11h6s-1 1-3 1-3-1-3-1" fill="#157569"/><path d="M2 13s3-7 6-9 9.6-3 10.3-5C18.3-1 9 4 7 1 5.5-1.2 5 2 5 3s0 4-2 1c-.8-1.2-2 4-1 9" fill="#3fc9b9"/></g></svg>