<svg xmlns="http://www.w3.org/2000/svg" viewBox="0 0 45 45"><defs><clipPath id="a"><path d="M0 36h36V0H0v36z"/></clipPath></defs><g clip-path="url(#a)" transform="matrix(1.25 0 0 -1.25 0 45)"><path d="M8 9S6 5 6 3s4-3 12-3 12 1 12 3-2 6-2 6H8zm1 21c-3 0-3-1-4-10s0-10 4-10c2 0 2 20 0 20m18 0c3 0 3-1 4-10s0-10-4-10c-2 0-2 20 0 20" fill="#66757f"/><path d="M8 33s1 3 10 3 10-3 10-3 1-6 1-14-1-14-1-14-1-2-10-2S8 5 8 5 7 8 7 19s1 14 1 14" fill="#ccd6dd"/><path d="M28 28c0 1-3 4-10 4S8 29 8 28c0-.8 4.5-1.6 6.3-1.9.7-2.6.7-8.1.7-8.1.8 3.2.3 7 .1 8.5.2.6.8 1.5 2.9 1.5 3 0 3-2 3-2a23 23 0 0 1 .2-8s0 5.5.7 8.1c1.8.3 6.1 1.1 6.1 1.9" fill="#66757f"/><path d="M14 16c0 1 2 3 4 3s4-2 4-3-1-1-4-1-4 0-4 1m-2-4s2 2 6 2 6-2 6-2-2 1-6 1-6-1-6-1m0-2c0 1 2 2 6 2s6-1 6-2-1-1-6-1-6 0-6 1" fill="#66757f"/></g></svg>