<svg xmlns="http://www.w3.org/2000/svg" viewBox="0 0 45 45"><defs><clipPath id="a"><path d="M0 36h36V0H0v36z"/></clipPath></defs><g clip-path="url(#a)" transform="matrix(1.25 0 0 -1.25 0 45)"><path d="M25.208 19H11s-4.109-3.332-4.757-3.896C2.75 12.063 0 12.336 0 10.976V0h36v9L25.208 19z" fill="#4b545d"/><path d="M3.911 0c-.086.646-.27 2.974 1.151 5.031.415.6-.032 1.472 2.282 5 .635.97 3.051 2.928 3.711 3.688.66.76 1.322 3.406 1.322 3.406l-1.51.029s-.86-2.273-1.562-2.625c-1.868-.935-3.802-3.122-4.167-3.75-.507-.873-3.842-5.436-4.43-6.404L0 3.2V0h3.911zM31.374 14.198L22.15 16.16l1.301-3.725 2.098-1.034c1.295-.837 2.894-1.31 3.102-3.666.056-.632-.389-2.882-.755-4.262-.306-1.159.057-2.078-.114-3.472h3.444c-.724 1.452-1.16 3.184-1.148 3.397.016.31.313 3.224.48 4.86.765-1.378 2.102-3.89 2.15-4.715.037-.64-.011-2.307-.056-3.542H36v11.562c0 1.246-3.155 1.288-4.626 2.636M15.665 6.854c-.525-1.297-.241-1.298-.306-2.1-.133-1.632.758-2.651.758-2.651s.67 1.378.654 1.928c-.066 2.495.965 3.377.833 4.05 0 0-1.414.07-1.94-1.227M10.72 5.854c.3.51 1.124.543 1.58 1.344.457.8.446 2.183.924 3.632.478 1.449 2.608 2.359 2.608 2.359s-1.797 2.533-3.243.812c-1.242-1.476-1.031-4.184-1.18-4.927-.15-.742-1.833-2.934-1.833-2.934s-.361-2.382-.29-3.046c.073-.664.853 1.776 1.434 2.76M23.287 7.491c-.377.61-1.062 1.391-1.19 2.114-.148.836-.204 1.273-.483 1.38-.279.106-.783-.119-1.156-.619-.347-.465-.063-1.827-.063-1.827s.843-.73 1.376-1.067c.454-.286.763-3.012.852-3.332.088-.318 1.041 2.741.664 3.351" fill="#292f33"/><path d="M16.064 26.094c-.762 0-5.001-5.587-5.001-5.587l-.158-.256-5.311-5.72s.241-.737.697-1.265c.731-.847 2.06.709 2.962 1.003 1.454.47.977-2.182 1.916-2.29 1.272-.145 2.585 2.185 3.512 2.11.926-.074 1.954-2.65 2.937-2.65 1.468 0 1.309 1.948 3.32 1.948.954 0 1.14-1.117 2.514-.952 1.072.129 2.62 2.404 3.132 2.596 1.15.434 2.6-1.446 3.452-1.356.85.09.655.186.655.186L19.575 26.157h-.645c-.514 0-.736.025-1.325.025-.396 0-1.328-.088-1.542-.088" fill="#e1e8ed"/><path d="M15.72 22.706s-1.837-3.482-2.024-4.049c-.187-.567-.631-2.448-.631-2.448s.886.59 1.186 1.04c.3.45.762 1.905 1.098 2.474.335.568.953 1.166 1.185 1.596.233.43.14 2.551.14 2.551l-.953-1.164zM11.68 21.463c-.479-.511-1.886-2.41-1.886-2.41l-4.218-4.5s.53-1.525 1.171-1.541c.641-.017.89 1.48.907 2.189.016.709 1.928 1.885 2.166 2.565.238.679 1.05.908 1.558 1.517.51.609.59 1.445 1.292 2.117 1.781 1.7.807 2.14.807 2.14s-1.318-1.566-1.797-2.077M19.195 17.516c-.104 1.114-1.099 3.592-1.099 3.592s-.402-2.154-.44-2.876c-.04-.721.19-1.611.405-2.403.216-.792.818-1.84.818-1.84s.42 2.413.316 3.527" fill="#aab8c2"/><path d="M20.415 26.157h-1.396c-.189 0 .167-1.162.021-2.043-.161-.963 1.821-3.066 2.239-5.307.099-.529.716-3.322 1.353-4.854.598-1.44.819-1.519.819-1.519s1.971.225 2.842 2.124c.513 1.118 4.274-2.48 5.081-.36 0 0-3.166 2.326-6.169 6.467-2.756 3.8-4.289 5.492-4.79 5.492" fill="#ccd6dd"/><path d="M22.29 19.526c.157-.749.66-1.224.595-2.83-.062-1.559 3.05-2.824 2.755-3.118-1.032-1.032-2.189-1.144-2.189-1.144-.336.18-1.313 1.872-1.536 2.833-.222.96-.623 3.797-.892 4.38-.269.582-.848 1.276-1.169 1.953a5.276 5.276 0 0 0-.417 1.246s.962-.375 1.618-.936c.656-.562 1.076-1.634 1.234-2.384" fill="#aab8c2"/></g></svg>