<svg xmlns="http://www.w3.org/2000/svg" viewBox="0 0 45 45"><defs><clipPath id="a"><path d="M0 36h36V0H0v36z"/></clipPath></defs><g clip-path="url(#a)" transform="matrix(1.25 0 0 -1.25 0 45)"><path d="M12 28.4l-9 2.4c-1.7.4-3-.5-3-2.2v-20a4.2 4.2 0 0 1 3-3.8l9-2.4v26zM24 5.6l9-2.4c1.7-.4 3 .5 3 2.2v20a4.2 4.2 0 0 1-3 3.8l-9 2.4v-26z" fill="#ccd6dd"/><path d="M24 5.6L12 2.4v26l12 3.2v-26z" fill="#e1e8ed"/><path d="M12 26.4l-8 2.1c-1.1.3-2-.3-2-1.4V9c0-1.1.9-2.3 2-2.6l8-2.1v22zm20 1l-8 2.2v-22l8-2.1c1.1-.3 2 .3 2 1.4v18c0 1.1-.9 2.3-2 2.6" fill="#55acee"/><path d="M24 7.6L12 4.4v22l12 3.2v-22z" fill="#88c9f9"/><path d="M12 14.5l-.8-.1c-.5-.1-.4-.6-.5-.5a2.8 2.8 0 0 0-.8.7c-.4.4.2.4.4.6.2.1-.3.2-.5.3-.2.2-.5 0-.7.3-.3.4-.1.8-.2 1.2 0 .4.5.3.8.3.3 0 .5-.1.5-.6s.4-.7.3-.1c-.1.5 0 .6.2.8l.7 1c.2.4.4.4.6.2V22l-.2.1c-.3.1.1-.7-.1-1-.2-.5-.6-.3-1-.2s-.7.5-.4 1c.2.5.8.3 1 .7.3.3-1 .6-1.4 1-.4.2-1 .3-1.4 0-.4-.2-1.3 0-1.7-.1-.4 0-.4.3-.5.7 0 .3-.7.3-1.3.3-.6 0-1.7-.3-1.5-1.8 0-.5.6 0 .7 0 0 .1.6-.2.7-.6l-.1-1.3c-.2-.3.3-1 .6-1.6.2-.6.5-.7.7-.7.1 0 .9-.6.8-1 0-.4.8-1 1-1.3.4-.4.6-.7 1-.9l1-1.1.6-.6c-.2-.3-.6-.8-.6-1 0-.4.4-1.2.6-1.4.1-.2.6-.4.7-.8.1-.4 0-1.7-.4-1.9-.3-.3-.4-1-.4-1s.1-.4.5-.2l1.1.8v6.4z" fill="#5c913b"/><path d="M24 20.3v6.3h-.1a2 2 0 0 1-.8-.4c-1 .2-1.4-1.1-2.1-1-.7 0-1.7.3-2.3-.6-.7-.9-.8-1.5 0-1.3.8.2 1.3 1.4 1.7 1.1.4-.3.3-.7-.7-1.1a26.7 26.7 0 0 0-2.4-1c-.5-.1-.7-.5-.3-.8.4-.3-.2-.5-.8-1s.1-.5.6-.7c.5-.2 1 .3 1.1 1 .3.5 1.2 1.4 1.6 1.5.4 0 .4-.2.3-.6v-.2a17.4 17.4 0 0 1-.3-1.3 3.3 3.3 0 0 1 0-.6h-.3c-.5.1-1.4.2-1.7 0l-.7-.8c-.4-.2-1.6-1.2-1.7-2 0-.9 0-1.9.5-1.8.5.2 1.7.9 2.1 1.3.4.5 1 .6 1.1.2.2-.4 0-.7-.1-1.4-.2-.7.1-1 .4-1.4.3-.5.5-.8.5-1.2 0-.4.4-.7 1 .1l.5 1 .7 1v.7l.1.2.4 1.2.6.7c.2.3.2.5.2.7 0 .2.1.3 0 .2-.1.2-.3 0-.6-.1-.3 0-.5 0-.6.3l-.7 1.4v.1a.2.2 0 0 0 0 .1.3.3 0 0 0 .2 0v-.4c.1-.5.5-.2.5-.5s.5-.5.6-.6l.2.1h.1c.3 0 1 1 1.1 1.2.1 0 .1.2 0 .4h.1M14.9 13c-.5.1-.4 0-.7.6-.2.6-.4.8-1 .7-.6-.1-.6-.2-.8.1 0 .2-.2.1-.4 0V8.1l.2.2 1.5 1.7c.5.6.3.9.5 1.4.3.6.6.7 1 1.2s0 .4-.3.4m-2.6 5.6H12v3.3c.2 0 .5-.3.7-.7.2-.5.6 0 .7-.4.2-.3 1-.8.5-.7-.3 0-.7 0-.8-.5 0-.4.2-.8 0-.8l-.8-.2" fill="#77b255"/><path d="M31.4 12.2c-.1.4-.5.7-.7 1a.7.7 0 0 1-.6.2c-.2 0-.3.1-.4.4-.1.2-.3.2-.5.2a5.8 5.8 0 0 1-1.2-.2 2 2 0 0 1-.7-.5c-.4-.3-.2 0 0-.4.1-.3-.2-1-.2-1.5s.6 0 .9 0c.3 0 .2.1.4.2.2.2.3.2.6-.1.2-.3.5-.6.5-1 0-.2.8-.9 1.2-.8.3.1.5.4.8.7.2.2.1.8.2 1.1.1.4-.2.4-.3.7M29 14.8c.3-.4.1 0 .5 0 .3 0-.3.6-.5.8-.2.3-.4.3-.6 0-.2-.4.3-.4.6-.8m3-1.4a1.3 1.3 0 0 1-.7.4c-.3.1-.2.5-.6.6-.3 0-.5.4-.6.5-.4.3-.2-.2 0-.7 0-.5.4-.3.8-.6s.4 0 .8-.2c.3-.2.4-.5.8-.6.3 0-.3.4-.4.6m-2 5.4c.2-.1 1-.2.5.3-.4.5 0 .3 0 .7s-.3.5-.3.5c0-.3-.2-.6 0-1s-.4-.5-.2-.6m-2.1-2c.4-.2.1.5.2.8s.3.4.6.4c.2 0 .4.2.6.4.1.2.4.4.4.7l-.2.8c-.1.4.3.4.5.7.2.4 0 0 .4 0s.2.1.3.3v.7c0 .3-.3 0-.6.1s.1.5.1.8c0 .4.4.2.7.1.3 0 .3-.4.4-.6.1 0 1 .4 1.1.7.2.3-.1.3 0 .4l-1 .5c-.3.1-1 .3-1.3.6-.3.3-1.4.4-1.7.3-.3 0-.5.2-.6.4-.1.3-.7.3-.8.5-.2.2-.3-.1-.6-.1-.2 0-.3 0-.5.2-.3.2 0 .3-.3.6l-1.7.6v-6.3h.3c.2-.1.5-.7.5-.9l.3-1.2c.1-.3.4-.5.7-.8.2-.3.4-.1.4-.1l-.1 1c0 .4.3.6.3.6l.5-.6.5-1c0-.1.2-.5.6-.6m-.4-1c0-.4.2-.1.6-.6.4-.5 0-.4-.3-.3-.1 0-.3 0-.5.5-.3.4 0 .7 0 1 0 0 .3 0 .2-.5" fill="#5c913b"/></g></svg>