<svg xmlns="http://www.w3.org/2000/svg" viewBox="0 0 45 45"><defs><clipPath id="a"><path d="M0 36h36V0H0v36z"/></clipPath></defs><g clip-path="url(#a)" transform="matrix(1.25 0 0 -1.25 0 45)"><path d="M25.2 19H11l-4.8-3.9C2.7 12.1 0 12.3 0 11V0h36v9L25.2 19z" fill="#4b545d"/><path d="M4 0a7.5 7.5 0 0 0 1 5c.5.6 0 1.5 2.3 5 .7 1 3.1 3 3.8 3.7a13 13 0 0 1 1.3 3.4h-1.5S10 15 9.3 14.6a13.2 13.2 0 0 1-4.2-3.7L.7 4.4 0 3.2V0h4zm27.4 14.2l-9.2 2 1.2-3.8 2.2-1c1.2-.8 2.8-1.3 3-3.7.1-.6-.3-2.8-.7-4.2-.3-1.2 0-2.1-.1-3.5h3.4a13 13 0 0 0-1.1 3.4l.5 4.9c.7-1.4 2-4 2.1-4.8V0H36v11.6c0 1.2-3.1 1.3-4.6 2.6M15.7 6.9c-.6-1.3-.3-1.3-.3-2.1C15.2 3 16 2 16 2s.7 1.4.7 2c0 2.4 1 3.3.8 4 0 0-1.4 0-2-1.2m-4.9-1c.3.5 1.1.5 1.6 1.3s.4 2.2 1 3.6c.4 1.5 2.5 2.4 2.5 2.4s-1.8 2.5-3.2.8c-1.3-1.5-1-4.2-1.2-5C11.2 8.2 9.5 6 9.5 6s-.4-2.3-.3-3c0-.7.8 1.8 1.4 2.8m12.6 1.6c-.4.6-1 1.4-1.2 2.1-.2.8-.2 1.3-.5 1.4-.3.1-.8-.1-1.1-.6-.4-.5-.1-1.8-.1-1.8l1.4-1.1c.4-.3.7-3 .8-3.3.1-.4 1 2.7.7 3.3" fill="#292f33"/><path d="M16 26.1c-.7 0-5-5.6-5-5.6l-.1-.3-5.3-5.7s.2-.7.7-1.2c.7-.9 2 .7 3 1 1.4.4 1-2.2 1.9-2.3 1.2-.2 2.6 2.2 3.5 2 1 0 2-2.6 3-2.6 1.4 0 1.2 2 3.2 2 1 0 1.2-1.1 2.6-1 1 .2 2.6 2.4 3 2.6 1.2.5 2.7-1.4 3.5-1.3.9 0 .7.2.7.2L19.6 26.2h-2l-1.5-.1" fill="#e1e8ed"/><path d="M15.7 22.7l-2-4-.6-2.5s.9.6 1.2 1l1 2.5 1.2 1.6c.3.4.2 2.6.2 2.6l-1-1.2zm-4-1.2l-2-2.4-4.1-4.5S6 13 6.8 13c.6 0 .8 1.5.9 2.2 0 .7 1.9 1.9 2.1 2.6.3.6 1 .9 1.6 1.5.5.6.6 1.4 1.3 2 1.8 1.8.8 2.2.8 2.2l-1.8-2m7.5-4c-.1 1.1-1.1 3.6-1.1 3.6l-.4-2.9a8.3 8.3 0 0 1 .4-2.4c.2-.8.8-1.8.8-1.8s.4 2.4.3 3.5" fill="#aab8c2"/><path d="M20.4 26.2H19c-.2 0 .2-1.2 0-2-.1-1 1.9-3.1 2.3-5.4 0-.5.7-3.3 1.3-4.9.6-1.4.9-1.5.9-1.5s2 .3 2.8 2.2c.5 1 4.3-2.5 5-.4 0 0-3 2.3-6.1 6.5-2.7 3.8-4.3 5.5-4.8 5.5" fill="#ccd6dd"/><path d="M22.3 19.5c.1-.7.6-1.2.6-2.8 0-1.6 3-2.8 2.7-3.1-1-1-2.2-1.2-2.2-1.2-.3.2-1.3 2-1.5 2.9-.2 1-.6 3.8-.9 4.4l-1.2 1.9a5.3 5.3 0 0 0-.4 1.3s1-.4 1.7-1a4.6 4.6 0 0 0 1.2-2.4" fill="#aab8c2"/></g></svg>