<svg xmlns="http://www.w3.org/2000/svg" viewBox="0 0 45 45"><defs><clipPath id="a"><path d="M0 36h36V0H0v36z"/></clipPath></defs><g clip-path="url(#a)" transform="matrix(1.25 0 0 -1.25 0 45)"><path d="M36 18a18 18 0 1 0-36 0 18 18 0 0 0 36 0" fill="#ffcc4d"/><path d="M24.3 12.4a.5.5 0 0 1-.5 0l-4-2c-1.9-.9-6.8-.9-6.8-.9a.5.5 0 0 1-.3-1 .5.5 0 0 1 .3 0h7c2.7 0 4 2.2 4.5 3.3a.5.5 0 0 1-.2.6M31 20a1 1 0 0 0-.8.4A8.4 8.4 0 0 1 24 24a1 1 0 0 0-1 1 1 1 0 0 0 1 1c.2 0 4.5 0 7.8-4.4A1 1 0 0 0 31 20M5 20a1 1 0 0 0-.8 1.6C7.5 25.9 11.8 26 12 26a1 1 0 0 0 0-2c-.1 0-3.6 0-6.2-3.6A1 1 0 0 0 5 20m10.9-1.4v.2a1 1 0 0 1-.7 1.2c-.1 0-4.4 1-7.8-1.2a1 1 0 0 1 1.2-1.6 7 7 0 0 0 3.4 1V18a2 2 0 0 1 4 0l-.1.6m12 0v.2a1 1 0 0 1-.7 1.2c-.1 0-4.4 1-7.8-1.2a1 1 0 1 1 1.1-1.6 7 7 0 0 0 3.5 1V18a2 2 0 0 1 4 0l-.1.6" fill="#664500"/></g></svg>