<svg xmlns="http://www.w3.org/2000/svg" viewBox="0 0 45 45"><defs><clipPath id="a"><path d="M0 36h36V0H0v36z"/></clipPath></defs><g clip-path="url(#a)" transform="matrix(1.25 0 0 -1.25 0 45)"><path d="M36 18a18 18 0 1 0-36 0 18 18 0 0 0 36 0" fill="#ffcc4d"/><path d="M28.5 18.2c-.1.1-1.5 3.3-4.5 3.3s-4.4-3.2-4.5-3.3a.5.5 0 0 1 .2-.6.5.5 0 0 1 .6 0s1.3.9 3.7.9c2.4 0 3.7-.9 3.7-.9a.5.5 0 0 1 .8.6m-12 0c-.1.1-1.5 3.3-4.5 3.3s-4.4-3.2-4.5-3.3a.5.5 0 0 1 .8-.6s1.3.9 3.7.9c2.4 0 3.7-.9 3.7-.9a.5.5 0 0 1 .8.6M31 20a1 1 0 0 0-1 .6 9.3 9.3 0 0 1-6.2 5.4 1 1 0 1 0 .4 2 11.2 11.2 0 0 0 7.7-6.6A1 1 0 0 0 31 20M5 20a1 1 0 0 0-1 1.4 11.2 11.2 0 0 0 7.8 6.6 1 1 0 0 0 .4-2 9.2 9.2 0 0 1-6.3-5.4A1 1 0 0 0 5 20m13-6c-3.6 0-6 .4-9 1-.7.1-2 0-2-2 0-4 4.6-9 11-9s11 5 11 9c0 2-1.3 2.1-2 2-3-.6-5.4-1-9-1" fill="#664500"/><path d="M9 13s3-1 9-1 9 1 9 1-2-4-9-4-9 4-9 4" fill="#fff"/><path d="M10.8 7.8a5 5 0 0 0-6-3.6 5 5 0 0 0-3.7 6c.7 2.7 6.4 8.7 7.4 8.5 1-.2 3-8.2 2.3-11m14.3 0a5 5 0 0 1 6.1-3.5 5 5 0 0 1 3.6 6c-.6 2.7-6.3 8.7-7.3 8.5-1-.2-3-8.2-2.4-11" fill="#5dadec"/></g></svg>