<svg xmlns="http://www.w3.org/2000/svg" viewBox="0 0 45 45"><defs><clipPath id="a"><path d="M0 36h36V0H0v36z"/></clipPath></defs><g clip-path="url(#a)" transform="matrix(1.25 0 0 -1.25 0 45)"><path d="M36 18a18 18 0 1 0-36 0 18 18 0 0 0 36 0" fill="#ffcc4d"/><path d="M7 19a1 1 0 0 0-.9 1.4c0 .2 1.3 2.6 4.9 2.6s4.8-2.5 4.9-2.5a1 1 0 0 0-1.8-1c0 .1-.8 1.5-3.1 1.5s-3.1-1.4-3.1-1.4A1 1 0 0 0 7 19m22 0a1 1 0 0 1 .9 1.4c0 .2-1.3 2.6-4.9 2.6-3.6 0-4.8-2.5-4.9-2.5a1 1 0 0 1 1.8-1c0 .1.8 1.5 3 1.5 2.4 0 3.2-1.4 3.2-1.4a1 1 0 0 1 .9-.6" fill="#664500"/><path d="M33.2 8.7l-3.7 3.8a12.2 12.2 0 0 0-7.2-6.8L26 2c1.7-1.7 5-2 7 0s1.9 5 .2 6.7" fill="#e75a70"/><path d="M29.5 12.5l.5 1.3a1 1 0 0 1-.8 1.2 1 1 0 0 1-1.2-.8C28 14 26 7 18 7S8 14 8 14.3a1 1 0 0 1-1.2.7 1 1 0 0 1-.8-1.2C6 13.7 8.3 5 18 5a12.2 12.2 0 0 1 11.5 7.5" fill="#664500"/></g></svg>