<svg xmlns="http://www.w3.org/2000/svg" viewBox="0 0 45 45"><defs><clipPath id="a"><path d="M0 36h36V0H0v36z"/></clipPath></defs><g clip-path="url(#a)" transform="matrix(1.25 0 0 -1.25 0 45)"><path d="M36 18a18 18 0 1 0-36 0 18 18 0 0 0 36 0" fill="#ffcc4d"/><path d="M18 14c-3.6 0-6 .4-9 1-.7.1-2 0-2-2 0-4 4.6-9 11-9s11 5 11 9c0 2-1.3 2.1-2 2-3-.6-5.4-1-9-1" fill="#664500"/><path d="M9 13s3-1 9-1 9 1 9 1-2-4-9-4-9 4-9 4" fill="#fff"/><path d="M30.6 17.8a17.5 17.5 0 0 1-4.7 2.3 1.5 1.5 0 0 1-.3 1.4c1.8.5 3.4.5 3.4.5a1 1 0 0 1 0 2c-.2 0-5.4 0-8.7-3.3A1 1 0 1 1 21 19c4.6 0 8.4-2.8 8.4-2.8a1 1 0 0 1 1.4.2 1 1 0 0 1-.2 1.4m-14.9 2.9A13.5 13.5 0 0 1 7 24a1 1 0 0 1 0-2s1.6 0 3.4-.5a1.5 1.5 0 0 1-.4-1v-.4a18 18 0 0 1-4.6-2.3 1 1 0 0 1 1.2-1.6S10.4 19 15 19a1 1 0 0 1 .7 1.7" fill="#664500"/></g></svg>