<svg xmlns="http://www.w3.org/2000/svg" viewBox="0 0 45 45"><defs><clipPath id="a"><path d="M0 36h36V0H0v36z"/></clipPath></defs><g clip-path="url(#a)" transform="matrix(1.25 0 0 -1.25 0 45)"><path d="M36 18a18 18 0 1 0-36 0 18 18 0 0 0 36 0" fill="#ffcc4d"/><path d="M14 19.5c0-2-1.1-3.5-2.5-3.5S9 17.6 9 19.5s1.1 3.5 2.5 3.5 2.5-1.6 2.5-3.5m14.5-1.3c-.1.1-1.5 3.3-4.5 3.3s-4.4-3.2-4.5-3.3a.5.5 0 0 1 .2-.6.5.5 0 0 1 .6 0s1.3.9 3.7.9c2.4 0 3.7-.9 3.7-.9a.5.5 0 0 1 .8.6M6 23.5a1 1 0 0 0-.8 1.6c3.3 4.4 7.6 4.4 7.8 4.4a1 1 0 0 0 0-2c-.1 0-3.6 0-6.2-3.6a1 1 0 0 0-.8-.4m23-2a1 1 0 0 0-.8.3c-2.6 3.5-7 2.6-7 2.6a1 1 0 1 0-.4 2c.2 0 5.7 1 9-3.4a1 1 0 0 0-.8-1.6m-5.8-9a.5.5 0 0 1-.5 0s-1-.9-4.7-.9c-3.6 0-4.6.8-4.7.8a.5.5 0 0 1-.8-.4s1.2-4.4 5.5-4.4 5.5 4.3 5.5 4.4a.5.5 0 0 1-.2.5" fill="#664500"/></g></svg>