<svg xmlns="http://www.w3.org/2000/svg" viewBox="0 0 45 45"><defs><clipPath id="a"><path d="M0 36h36V0H0v36z"/></clipPath></defs><g clip-path="url(#a)" transform="matrix(1.25 0 0 -1.25 0 45)"><path d="M36 18a18 18 0 1 0-36 0 18 18 0 0 0 36 0" fill="#ffcc4d"/><path d="M18 15c-3.6 0-6 .4-9 1-.7.1-2 0-2-2 0-4 4.6-9 11-9s11 5 11 9c0 2-1.3 2.1-2 2-3-.6-5.4-1-9-1" fill="#664500"/><path d="M9 14s3-1 9-1 9 1 9 1-2-4-9-4-9 4-9 4" fill="#fff"/><path d="M14.5 22.5c0-2-1.1-3.5-2.5-3.5s-2.5 1.6-2.5 3.5S10.6 26 12 26s2.5-1.6 2.5-3.5m12 0c0-2-1.1-3.5-2.5-3.5s-2.5 1.6-2.5 3.5S22.6 26 24 26s2.5-1.6 2.5-3.5" fill="#664500"/></g></svg>