<svg xmlns="http://www.w3.org/2000/svg" viewBox="0 0 45 45"><defs><clipPath id="a"><path d="M0 36h36V0H0v36z"/></clipPath></defs><g clip-path="url(#a)" transform="matrix(1.25 0 0 -1.25 0 45)"><path d="M36 18a18 18 0 1 0-36 0 18 18 0 0 0 36 0" fill="#ffcc4d"/><path d="M23.5 7.1s-1.2 4.4-5.5 4.4-5.5-4.3-5.5-4.4a.5.5 0 0 1 .2-.5.5.5 0 0 1 .7 0s1 .9 4.6.9c3.6 0 4.6-.8 4.7-.9a.5.5 0 0 1 .8.5m2.3 13.3a4 4 0 0 1-1 .1c-2.4 0-4.1-2-4.2-2.1a.5.5 0 0 1 0-.6.5.5 0 0 1 .6-.2s.5.2 1.5.2a9 9 0 0 0 2.3-.3 6.6 6.6 0 0 0 3.3-1.9.5.5 0 0 1 1 .4c-.1.1-.7 3.6-3.5 4.4m-14.6 0a4 4 0 0 1-1 0c-2.8-.7-3.4-4.2-3.5-4.3a.5.5 0 0 1 1-.4s1 1.2 3.3 1.8a8.7 8.7 0 0 0 2 .2c1.2 0 1.8-.2 1.8-.2a.5.5 0 0 1 .2 0 .5.5 0 0 1 .3.8c-.4.5-2 2.2-4 2.2" fill="#664500"/></g></svg>