<svg xmlns="http://www.w3.org/2000/svg" viewBox="0 0 45 45"><defs><clipPath id="a"><path d="M0 36h36V0H0v36z"/></clipPath></defs><g clip-path="url(#a)" transform="matrix(1.25 0 0 -1.25 0 45)"><path d="M36 18a18 18 0 1 0-36 0 18 18 0 0 0 36 0" fill="#ffcc4d"/><path d="M14 20.5c0-2-1.1-3.5-2.5-3.5S9 18.6 9 20.5s1.1 3.5 2.5 3.5 2.5-1.6 2.5-3.5m14.5-2.3c-.1.1-1.5 3.3-4.5 3.3s-4.4-3.2-4.5-3.3a.5.5 0 0 1 .2-.6.5.5 0 0 1 .6 0s1.3.9 3.7.9c2.4 0 3.7-.9 3.7-.9a.5.5 0 0 1 .8.6M6 25a1 1 0 0 0-.8 1.6C8.5 30.9 12.8 31 13 31a1 1 0 0 0 0-2c-.1 0-3.6 0-6.2-3.6A1 1 0 0 0 6 25m23-3a1 1 0 0 0-.8.4c-2.6 3.5-7 2.6-7 2.6a1 1 0 0 0-.4 2c.2 0 5.7 1 9-3.4A1 1 0 0 0 29 22M20.9 8c1.3.4 2.6 1.2 2.6 2.5 0 2.6-5 3-5.5 3a.5.5 0 0 1 0-1s3.5-.3 3.5-2-3.5-2-3.5-2a.4.4 0 0 1-.2 0 .5.5 0 0 1-.2-.2v-.1a.5.5 0 0 1 0-.1h-.1v-.2a.4.4 0 0 1 0-.2h.1l.1-.1h.1a.4.4 0 0 1 .1 0v-.1c.1 0 3.6-.3 3.6-2s-3.5-2-3.5-2a.5.5 0 0 1 0-1c.6 0 5.5.4 5.5 3 0 1.3-1.3 2-2.6 2.5" fill="#664500"/><path d="M35.4 8.8a3 3 0 1 1-4.2 4 3 3 0 0 1-6 .2c-.8-2.6.7-6.4 2.2-8 2.2-.2 6 1 7.6 3.2l.4.6" fill="#e75a70"/></g></svg>