<svg xmlns="http://www.w3.org/2000/svg" viewBox="0 0 45 45"><defs><clipPath id="a"><path d="M0 36h36V0H0v36z"/></clipPath></defs><g clip-path="url(#a)" transform="matrix(1.25 0 0 -1.25 0 45)"><path d="M36 18a18 18 0 1 0-36 0 18 18 0 0 0 36 0" fill="#ffcc4d"/><path d="M23.5 7.1s-1.2 4.4-5.5 4.4-5.5-4.3-5.5-4.4a.5.5 0 0 1 .2-.5.5.5 0 0 1 .7 0s1 .9 4.6.9c3.6 0 4.6-.8 4.7-.9a.5.5 0 0 1 .8.5M29 24a8.9 8.9 0 0 0-7.9 4.5 1 1 0 0 0 1.8 1A6.9 6.9 0 0 1 29 26a1 1 0 1 0 0-2M7 24a1 1 0 0 0 0 2c5 0 6 3.1 6 3.3a1 1 0 0 0 1.3.7 1 1 0 0 0 .7-1.2c0-.2-1.3-4.8-8-4.8m7.5-4.5c0-2-1.1-3.5-2.5-3.5s-2.5 1.6-2.5 3.5S10.6 23 12 23s2.5-1.6 2.5-3.5m12 0c0-2-1.1-3.5-2.5-3.5s-2.5 1.6-2.5 3.5S22.6 23 24 23s2.5-1.6 2.5-3.5" fill="#664500"/></g></svg>