<svg xmlns="http://www.w3.org/2000/svg" viewBox="0 0 45 45"><defs><clipPath id="a"><path d="M0 36h36V0H0v36z"/></clipPath></defs><g clip-path="url(#a)" transform="matrix(1.25 0 0 -1.25 0 45)"><path d="M36 18a18 18 0 1 0-36 0 18 18 0 0 0 36 0" fill="#ffcc4d"/><path d="M17.3 18.4a.5.5 0 0 1-.6 0s-1.3-.9-3.7-.9-3.7.9-3.7.9a.5.5 0 0 1-.8-.6c.1-.1 1.5-3.3 4.5-3.3s4.4 3.2 4.5 3.3a.5.5 0 0 1-.2.6m10 0a.5.5 0 0 1-.6 0s-1.3-.9-3.7-.9-3.7.9-3.7.9a.5.5 0 0 1-.8-.6c.1-.1 1.5-3.3 4.5-3.3s4.4 3.2 4.5 3.3a.5.5 0 0 1-.2.6M22 8h-8a1 1 0 1 0 0 2h8a1 1 0 1 0 0-2M6 22a1 1 0 0 0 0 2c.1 0 3.6 0 6.2 3.6a1 1 0 0 0 1.6-1.2A10.4 10.4 0 0 0 6 22m24 0c-.2 0-4.5 0-7.8 4.4a1 1 0 1 0 1.6 1.2c2.6-3.5 6-3.6 6.2-3.6a1 1 0 0 0 1-1 1 1 0 0 0-1-1" fill="#664500"/></g></svg>