<svg xmlns="http://www.w3.org/2000/svg" viewBox="0 0 45 45"><defs><clipPath id="a"><path d="M0 36h36V0H0v36z"/></clipPath></defs><g clip-path="url(#a)" transform="matrix(1.25 0 0 -1.25 0 45)"><path d="M36 18a18 18 0 1 0-36 0 18 18 0 0 0 36 0" fill="#ffcc4d"/><path d="M18 14.5A10 10 0 0 1 7.5 6.1a.5.5 0 0 1 .7-.6s6 2 9.8 2c5.6 0 9.7-2 9.8-2a.5.5 0 0 1 .7.6s-1.2 8.4-10.5 8.4M29 26a8.9 8.9 0 0 0-7.9 4.5 1 1 0 0 0 1.8 1A6.9 6.9 0 0 1 29 28a1 1 0 1 0 0-2M7 26a1 1 0 0 0 0 2c5 0 6 3.1 6 3.3a1 1 0 0 0 1.3.7 1 1 0 0 0 .7-1.2c0-.2-1.3-4.8-8-4.8" fill="#664500"/><path d="M18 13c4 0 6-2 6-2H12s2 2 6 2" fill="#ccd6dd"/><path d="M6 17a1 1 0 0 0-.6 1.8c.1.1 3 2.2 6.9 3A13.4 13.4 0 0 1 7 23a1 1 0 0 0 0 2c.2 0 5.5 0 8.7-3.3A1 1 0 0 0 15 20c-4.6 0-8.4-2.8-8.4-2.8A1 1 0 0 0 6 17m24 0a1 1 0 0 0-.6.2S25.6 20 21 20a1 1 0 0 0-.7 1.7C23.6 25 28.8 25 29 25a1 1 0 0 0 0-2s-2.8 0-5.3-1.3a18.2 18.2 0 0 0 6.9-2.9A1 1 0 0 0 30 17" fill="#664500"/></g></svg>