<svg xmlns="http://www.w3.org/2000/svg" viewBox="0 0 45 45"><defs><clipPath id="a"><path d="M0 36h36V0H0v36z"/></clipPath></defs><g clip-path="url(#a)" transform="matrix(1.25 0 0 -1.25 0 45)"><path d="M36 18a18 18 0 1 0-36 0 18 18 0 0 0 36 0" fill="#ffcc4d"/><path d="M29 26a8.9 8.9 0 0 0-7.9 4.5 1 1 0 0 0 1.8 1A6.9 6.9 0 0 1 29 28a1 1 0 1 0 0-2M7 26a1 1 0 0 0 0 2c5 0 6 3.1 6 3.3a1 1 0 0 0 1.3.7 1 1 0 0 0 .7-1.2c0-.2-1.3-4.8-8-4.8M6 13a1 1 0 0 0-.6 1.8c.1.1 3 2.2 6.9 3A13.4 13.4 0 0 1 7 19a1 1 0 0 0 0 2c.2 0 5.5 0 8.7-3.3A1 1 0 0 0 15 16c-4.6 0-8.4-2.8-8.4-2.8A1 1 0 0 0 6 13m24 0a1 1 0 0 0-.6.2S25.6 16 21 16a1 1 0 0 0-.7 1.7C23.6 21 28.8 21 29 21a1 1 0 0 0 0-2s-2.8 0-5.3-1.3a18.2 18.2 0 0 0 6.9-2.9A1 1 0 0 0 30 13m-4.5-7.8c-.2.3-3 6.3-7.3 6.3-4.2 0-7.5-6-7.6-6.3a.5.5 0 0 1 .7-.6s3.2 2.5 7 2.5a10 10 0 0 0 6.4-2.5.5.5 0 0 1 .8.6" fill="#664500"/></g></svg>