<svg xmlns="http://www.w3.org/2000/svg" viewBox="0 0 45 45"><defs><clipPath id="a"><path d="M0 36h36V0H0v36z"/></clipPath></defs><g clip-path="url(#a)" transform="matrix(1.25 0 0 -1.25 0 45)"><path d="M36 18a18 18 0 1 0-36 0 18 18 0 0 0 36 0" fill="#ffcc4d"/><path d="M23.5 7.1s-1.2 4.4-5.5 4.4-5.5-4.3-5.5-4.4a.5.5 0 0 1 .2-.5.5.5 0 0 1 .7 0s1 .9 4.6.9c3.6 0 4.6-.8 4.7-.9a.5.5 0 0 1 .8.5m-7.8 11.3s-1.3-.9-3.7-.9c-2.4 0-3.7.9-3.7.9a.5.5 0 0 1-.7-.7 5.5 5.5 0 0 1 8.8 0 .5.5 0 1 1-.7.7m12.6 0a.5.5 0 0 1-.6 0s-1.3-.9-3.7-.9-3.7.9-3.7.9a.5.5 0 0 1-.7-.7 5.5 5.5 0 0 1 8.8 0 .5.5 0 0 1 0 .7M31 20a1 1 0 0 0-.8.4A8.4 8.4 0 0 1 24 24a1 1 0 0 0-1 1 1 1 0 0 0 1 1c.2 0 4.5 0 7.8-4.4A1 1 0 0 0 31 20M5 20a1 1 0 0 0-.8 1.6C7.5 25.9 11.8 26 12 26a1 1 0 0 0 0-2c-.1 0-3.6 0-6.2-3.6A1 1 0 0 0 5 20" fill="#664500"/><path d="M23 13c6.2 0 13-4 13-9 0-4-3-4-3-4-8 0-1 9-10 13" fill="#5dadec"/></g></svg>