<svg xmlns="http://www.w3.org/2000/svg" viewBox="0 0 45 45"><defs><clipPath id="a"><path d="M0 36h36V0H0v36z"/></clipPath></defs><g clip-path="url(#a)" transform="matrix(1.25 0 0 -1.25 0 45)"><path d="M36 18a18 18 0 1 0-36 0 18 18 0 0 0 36 0" fill="#ffcc4d"/><path d="M21 10a3 3 0 1 0-6 0 3 3 0 0 0 6 0m-3.7 9.4a.5.5 0 0 1-.6 0s-1.3-.9-3.7-.9-3.7.9-3.7.9a.5.5 0 0 1-.8-.6c.1-.1 1.5-3.3 4.5-3.3s4.4 3.2 4.5 3.3a.5.5 0 0 1-.2.6m10 0a.5.5 0 0 1-.6 0s-1.3-.9-3.7-.9-3.7.9-3.7.9a.5.5 0 0 1-.8-.6c.1-.1 1.5-3.3 4.5-3.3s4.4 3.2 4.5 3.3a.5.5 0 0 1-.2.6" fill="#664500"/><path d="M16 30.9h-2c-.4 0-.8.3-.8.7s.4.8.8.8h4s.5 0 .5-.6a.7.7 0 0 0-.2-.5l-2.7-3.8h2.3c.4 0 .7-.3.7-.7s-.3-.8-.7-.8h-4c-.4 0-.8.2-.8.6l.2.5 2.7 3.8zm7.5 2.8h-2.3c-.5 0-1 .3-1 .9s.5.8 1 .8h4.5c.2 0 .7 0 .7-.6a.9.9 0 0 0-.2-.6L23 29.8h2.7c.5 0 .9-.4.9-1s-.4-.8-1-.8H21c-.5 0-.9.2-.9.7l.2.5 3.2 4.5zm8-3.4h-3c-.7 0-1.2.4-1.2 1.1s.5 1.2 1.2 1.2h5.9c.2 0 .8-.1.8-.8 0-.4 0-.5-.2-.8l-4.1-5.7h3.4c.6 0 1.2-.5 1.2-1.2s-.6-1.1-1.2-1.1h-6c-.6 0-1 .3-1 .9l.1.7 4.1 5.7z" fill="#2a6797"/></g></svg>