<svg xmlns="http://www.w3.org/2000/svg" viewBox="0 0 45 45"><defs><clipPath id="a"><path d="M0 36h36V0H0v36z"/></clipPath></defs><g clip-path="url(#a)" transform="matrix(1.25 0 0 -1.25 0 45)"><path d="M36 18a18 18 0 1 0-36 0 18 18 0 0 0 36 0" fill="#ffcc4d"/><path d="M23 9c0-3.3-2.2-6-5-6s-5 2.7-5 6 2.2 6 5 6 5-2.7 5-6M6 25a1 1 0 0 0-.8 1.6C8.5 30.9 12.8 31 13 31a1 1 0 0 0 0-2c-.1 0-3.6 0-6.2-3.6A1 1 0 0 0 6 25m24 0a1 1 0 0 0-.8.4A8.4 8.4 0 0 1 23 29a1 1 0 0 0-1 1 1 1 0 0 0 1 1c.2 0 4.5 0 7.8-4.4A1 1 0 0 0 30 25" fill="#664500"/><path d="M18 13c-1.7 0-3-1.8-3-4h6c0 2.2-1.3 4-3 4" fill="#f5f8fa"/><path d="M14.5 21.5c0-2-1.1-3.5-2.5-3.5s-2.5 1.6-2.5 3.5S10.6 25 12 25s2.5-1.6 2.5-3.5m12 0c0-2-1.1-3.5-2.5-3.5s-2.5 1.6-2.5 3.5S22.6 25 24 25s2.5-1.6 2.5-3.5" fill="#664500"/></g></svg>