<svg xmlns="http://www.w3.org/2000/svg" viewBox="0 0 45 45"><defs><clipPath id="a"><path d="M0 36h36V0H0v36z"/></clipPath><clipPath id="b"><path d="M6 22.5a5.5 5.5 0 0 1 11 0 5.5 5.5 0 0 1-11 0"/></clipPath><clipPath id="c"><path d="M19 22.5a5.5 5.5 0 0 1 5.5-5.5l5.5 5.5a5.5 5.5 0 0 1-11 0"/></clipPath></defs><g clip-path="url(#a)" transform="matrix(1.25 0 0 -1.25 0 45)"><path d="M36 18c0-9.941-8.059-18-18-18C8.06 0 0 8.059 0 18c0 9.94 8.06 18 18 18 9.941 0 18-8.06 18-18" fill="#ffcb4c"/><path d="M30 22.5a5.5 5.5 0 1 0-11.001.001A5.5 5.5 0 0 0 30 22.5M17 22.5a5.5 5.5 0 1 0-11.001.001A5.5 5.5 0 0 0 17 22.5" fill="#f4f7f9"/><path d="M23.11 12.576c-2.764.667-8.874.06-11.163-4.405a.375.375 0 0 1 .575-.459c3.084 2.58 7.436 2.58 10.035 2.58 1.635 0 2.536 0 2.536.708s-.705 1.267-1.984 1.576" fill="#65471b"/></g><g clip-path="url(#b)" transform="matrix(1.25 0 0 -1.25 0 45)"><path d="M13 25.5a2.5 2.5 0 1 0-5 0 2.5 2.5 0 0 0 5 0" fill="#65471b"/></g><g clip-path="url(#c)" transform="matrix(1.25 0 0 -1.25 0 45)"><path d="M26 25.5a2.5 2.5 0 1 0-5 0 2.5 2.5 0 0 0 5 0" fill="#65471b"/></g></svg>