<svg xmlns="http://www.w3.org/2000/svg" viewBox="0 0 45 45"><defs><clipPath id="a"><path d="M0 36h36V0H0v36z"/></clipPath><clipPath id="b"><path d="M6 22.5a5.5 5.5 0 0 1 11 0 5.5 5.5 0 0 1-11 0"/></clipPath><clipPath id="c"><path d="M19 22.5a5.5 5.5 0 0 1 5.5-5.5l5.5 5.5a5.5 5.5 0 0 1-11 0"/></clipPath></defs><g clip-path="url(#a)" transform="matrix(1.25 0 0 -1.25 0 45)"><path d="M36 18a18 18 0 1 0-36 0 18 18 0 0 0 36 0" fill="#ffcb4c"/><path d="M30 22.5a5.5 5.5 0 1 0-11 0 5.5 5.5 0 0 0 11 0m-13 0a5.5 5.5 0 1 0-11 0 5.5 5.5 0 0 0 11 0" fill="#f4f7f9"/><path d="M23.1 12.6c-2.8.6-8.9 0-11.2-4.4a.4.4 0 0 1 .6-.5c3.1 2.6 7.5 2.6 10 2.6 1.7 0 2.6 0 2.6.7s-.7 1.3-2 1.6" fill="#65471b"/></g><g clip-path="url(#b)" transform="matrix(1.25 0 0 -1.25 0 45)"><path d="M13 25.5a2.5 2.5 0 1 0-5 0 2.5 2.5 0 0 0 5 0" fill="#65471b"/></g><g clip-path="url(#c)" transform="matrix(1.25 0 0 -1.25 0 45)"><path d="M26 25.5a2.5 2.5 0 1 0-5 0 2.5 2.5 0 0 0 5 0" fill="#65471b"/></g></svg>