<svg xmlns="http://www.w3.org/2000/svg" viewBox="0 0 45 45"><defs><clipPath id="a"><path d="M0 36h36V0H0v36z"/></clipPath></defs><path d="M22.8 38.8h-2.5v-6.3h2.5v6.3zm-12.5-6.3h2.5v6.3h-2.5v-6.3z" fill="#66757f"/><g clip-path="url(#a)" transform="matrix(1.25 0 0 -1.25 0 45)"><path d="M12.3 33c0-.6-2.7-1-6-1s-6 .5-6 1 2.6 1 6 1 6-.5 6-1m14 0c0-.6-2.7-1-6-1s-6 .5-6 1 2.6 1 6 1 6-.5 6-1m-12-6h-2v6h2v-6z" fill="#99aab5"/><path d="M15.3 33c0-.6-1-1-2-1s-2 .5-2 1 .9 1 2 1 2-.5 2-1" fill="#66757f"/><path d="M34.3 26c0 3 0 7-1 7s-3-4-4-6 5-1 5-1" fill="#ffcc4d"/><path d="M34.3 26c0 2.2-8 3-19 3h-2C6.6 29 .5 23.6.5 17.7S4.3 8 13.3 8s12 4.7 12 10.5a9.3 9.3 0 0 1-.4 2.5c4.4 1 9.4 3 9.4 5" fill="#ffcc4d"/><path d="M4.3 23c-2.1-3-3.1-7.6 1.2-7.8 4.8-.2 6.8-.2 7.8 2.4 1.4 3.3 1 7.4-.3 8.2-2.3 1.5-6.6.1-8.8-2.8m16.9.5c2.2-3.5 2-6.2-1.8-7.5-3-1-4 2-3.9 5.5.1 2.5.2 4.2 1.9 4.5 1.4.2 2.5-.4 3.8-2.5" fill="#3b88c3"/><path d="M31.4 28.9c1-1.3 1.3-2.6.9-2.9-.5-.3-1.6.5-2.5 1.7-.9 1.3-1.3 2.6-.8 3 .4.2 1.5-.5 2.4-1.8" fill="#99aab5"/><path d="M34.7 24.3c1-1.3 1.3-2.6.8-3-.4-.2-1.5.5-2.4 1.8-1 1.3-1.3 2.6-.8 3 .4.2 1.5-.6 2.4-1.8" fill="#99aab5"/><path d="M33 26.6a1 1 0 1 0-1.6-1.2 1 1 0 0 0 1.7 1.2" fill="#66757f"/><path d="M25.3 4a2 2 0 0 0-2-2h-20a2 2 0 0 0 0 4h20a2 2 0 0 0 2-2" fill="#99aab5"/></g></svg>