<svg xmlns="http://www.w3.org/2000/svg" viewBox="0 0 45 45"><defs><clipPath id="a"><path d="M0 36h36V0H0v36z"/></clipPath></defs><path d="M0 45h45v-2.5H0V45z" fill="#939598"/><g clip-path="url(#a)" transform="matrix(1.25 0 0 -1.25 0 45)"><path d="M5 4h31v26H17c-6 0-7-3-7-3S5 14 5 12V4z" fill="#d1d3d4"/><path d="M14 6a1 1 0 0 0-1-1H5a1 1 0 0 0-1 1v2a1 1 0 0 0 1 1h8a1 1 0 0 0 1-1V6z" fill="#d1d3d4"/><path d="M36 1H4.5c-.5 0-1.1.7-1.3 1.5l-.8 3C2.2 6.3 3 7 4 7h32V1z" fill="#f4900c"/><path d="M36 26H22c-2 0-3.9-1.8-4.3-4l-1-6c-.4-2.2 1-4 3.3-4h16v14z" fill="#414042"/><path d="M36 24H23.1c-2.1 0-2.8-1.3-3-2.9l-.8-4.2c-.3-1.6.1-2.9 1.7-2.9h15v10z" fill="#3b88c3"/><path d="M17 30c-6 0-7-3-7-3S5 14 5 12c2.5 0 4.1.3 5 3 1 3 2 7 3 9s2 3 5 3c2.5 0 3.6 1.4 3.9 3H17z" fill="#414042"/><path d="M9 18c1 2.8 3.7 7.4.6 8a226.5 226.5 0 0 1-3.9-11H6s2 0 3 3" fill="#55acee"/><path d="M9 10a1 1 0 0 0-1-1H6a1 1 0 1 0 0 2h2a1 1 0 0 0 1-1" fill="#dd2e44"/></g></svg>