<svg xmlns="http://www.w3.org/2000/svg" viewBox="0 0 45 45"><defs><clipPath id="a"><path d="M0 36h36V0H0v36z"/></clipPath></defs><path d="M0 45h45v-2.5H0V45z" fill="#939598"/><g clip-path="url(#a)" transform="matrix(1.25 0 0 -1.25 0 45)"><path d="M10 4a3 3 0 1 1-6 0 3 3 0 0 1 6 0" fill="#58595b"/><path d="M9 4a2 2 0 1 1-4 0 2 2 0 0 1 4 0" fill="#292f33"/><path d="M32 4a3 3 0 1 1-6 0 3 3 0 0 1 6 0" fill="#58595b"/><path d="M31 4a2 2 0 1 1-4 0 2 2 0 0 1 4 0" fill="#292f33"/><path d="M34 34H2a1 1 0 0 0 0 2h32a1 1 0 1 0 0-2" fill="#e6e7e8"/><path d="M17.5 28l-3 3 3 2.3 3-2.4-3-3zm5.5 3a1 1 0 0 1-.4.8l-3.7 3a1 1 0 0 1-.1.8 1 1 0 0 1-1.3.2 1 1 0 0 1-1.3-.2 1 1 0 0 1-.1-.9l-3.7-3a1 1 0 0 1-.1-1.4l3.8-3.8A1 1 0 0 1 17 25a1 1 0 0 1 .5.1 1 1 0 0 1 .5-.1 1 1 0 0 1 .9 1.5l3.8 3.8a1 1 0 0 1 .3.8" fill="#66757f"/><path d="M30 26a2 2 0 0 0-2-2H8a2 2 0 0 0 0 4h20a2 2 0 0 0 2-2" fill="#bcbec0"/><path d="M36 14a4 4 0 0 0-4-4H4a4 4 0 0 0-4 4v8a4 4 0 0 0 4 4h28a4 4 0 0 0 4-4v-8zm0-6H0V4h36v4z" fill="#e6e7e8"/><path d="M36 22H0V8h36v14z" fill="#be1931"/><path d="M36 22H0V12h6V6h7v6h10V6h7v6h6v10z" fill="#dd2e44"/><path d="M2 20H0V10h2a2 2 0 0 1 2 2v6a2 2 0 0 1-2 2m34 0h-2a2 2 0 0 1-2-2v-6a2 2 0 0 1 2-2h2v10zm-15-6a1 1 0 0 0-1-1h-4a1 1 0 0 0-1 1v4a1 1 0 0 0 1 1h4a1 1 0 0 0 1-1v-4zm-9-1a1 1 0 0 0-1-1H8a1 1 0 0 0-1 1v5a1 1 0 0 0 1 1h3a1 1 0 0 0 1-1v-5zm17 0a1 1 0 0 0-1-1h-3a1 1 0 0 0-1 1v5a1 1 0 0 0 1 1h3a1 1 0 0 0 1-1v-5z" fill="#55acee"/><path d="M36 6H0v2h36V6z" fill="#a0041e"/></g></svg>