<svg xmlns="http://www.w3.org/2000/svg" viewBox="0 0 45 45"><defs><clipPath id="a"><path d="M0 36h36V0H0v36z"/></clipPath></defs><g clip-path="url(#a)" transform="matrix(1.25 0 0 -1.25 0 45)"><path d="M0 14V8a3 3 0 0 1 3-3h30a3 3 0 0 1 3 3v6H0z" fill="#77b255"/><path d="M15 24a1 1 0 0 0-.8 1.6A21.9 21.9 0 0 0 27 33a1 1 0 0 0 .1 0h3a1 1 0 1 0 0-2h-3a20.2 20.2 0 0 1-11.2-6.6 1 1 0 0 0-.8-.4" fill="#6d6e71"/><path d="M25 23H11v4h14v-4z" fill="#a7a9ac"/><path d="M36 14v8a3 3 0 0 1-3 3H3a3 3 0 0 1-3-3v-8h36z" fill="#e6e7e8"/><path d="M36 12H0v2h36v-2zM7 11a6 6 0 0 1-6-5.3A3 3 0 0 1 3 5h10a6 6 0 0 1-6 6m28-5.3A6 6 0 0 1 23 5h10a3 3 0 0 1 2 .7" fill="#5c913b"/><path d="M11 5a4 4 0 1 0-8 0 4 4 0 0 0 8 0"/><path d="M9 5a2 2 0 1 0-4 0 2 2 0 0 0 4 0" fill="#99aab5"/><path d="M33 5a4 4 0 1 0-8 0 4 4 0 0 0 8 0"/><path d="M31 5a2 2 0 1 0-4 0 2 2 0 0 0 4 0" fill="#99aab5"/><path d="M27 17a1 1 0 0 0-1-1h-3a1 1 0 0 0-1 1v3a1 1 0 0 0 1 1h3a1 1 0 0 0 1-1v-3zm7 0a1 1 0 0 0-1-1h-3a1 1 0 0 0-1 1v3a1 1 0 0 0 1 1h3a1 1 0 0 0 1-1v-3zm-21 0a1 1 0 0 0-1-1H9a1 1 0 0 0-1 1v3a1 1 0 0 0 1 1h3a1 1 0 0 0 1-1v-3zm7 0a1 1 0 0 0-1-1h-3a1 1 0 0 0-1 1v3a1 1 0 0 0 1 1h3a1 1 0 0 0 1-1v-3zM5 21H0v-7h5a1 1 0 0 1 1 1v5a1 1 0 0 1-1 1" fill="#55acee"/><path d="M1 9H0v2h1V9z" fill="#ffe8b6"/><path d="M36 9h-1v2h1V9z" fill="#ea596e"/><path d="M36 14h-1v-2h1v2z" fill="#f4abba"/></g></svg>