<svg xmlns="http://www.w3.org/2000/svg" viewBox="0 0 45 45"><defs><clipPath id="a"><path d="M0 36h36V0H0v36z"/></clipPath></defs><g clip-path="url(#a)" transform="matrix(1.25 0 0 -1.25 0 45)"><path d="M1 19l8 7 16-1 1-16-7-8s0 6-6 12-12 6-12 6" fill="#a0041e"/><path d="M1 1s0 8 3 11 11 2.8 11 2.8S15 7 12 4 1 1 1 1" fill="#ffac33"/><path d="M5 9a4 4 0 1 0 8 0 4 4 0 0 0-8 0" fill="#ffcc4d"/><path d="M36 36s-10 0-22-10c-6-5-6-14-4-16s11-2 16 4c10 12 10 22 10 22" fill="#55acee"/><path d="M27 31a4 4 0 0 1-3.6-2.4c.5.3 1 .4 1.6.4a4 4 0 0 0 4-4 3.9 3.9 0 0 0-.4-1.6A4 4 0 0 1 27 31"/><path d="M8 8s0 4 1 5 13 11 14 10-9-13-10-14-5-1-5-1" fill="#a0041e"/></g></svg>