<svg xmlns="http://www.w3.org/2000/svg" viewBox="0 0 45 45"><defs><clipPath id="a"><path d="M0 36h36V0H0v36z"/></clipPath></defs><path d="M16.3 23.8L2.4 45h40L28.7 23.7H16.4z" fill="#a7a9ac"/><path d="M18.8 23.8L6.2 45h32.5L26.3 23.7h-7.4z" fill="#58595b"/><path d="M21.3 23.8L10 45h25L23.7 23.7h-2.4z" fill="#808285"/><g clip-path="url(#a)" transform="matrix(1.25 0 0 -1.25 0 45)"><path d="M28 1a1 1 0 0 0-1-1H9a1 1 0 1 0 0 2h18a1 1 0 0 0 1-1m-2 4a1 1 0 0 0-1-1H11a1 1 0 1 0 0 2h14a1 1 0 0 0 1-1" fill="#a7a9ac"/><path d="M27 10.7L23 17H13l-4-6.3C10.7 8.2 13.6 6 18 6s7.2 2.2 9 4.7" fill="#58595b"/><path d="M18 36c-9 0-12-3-12-9v-8C6 17 9 8 18 8s12 9 12 11v8c0 6-3 9-12 9" fill="#a7a9ac"/><path d="M8 25c0 9 4.5 10 10 10s10-1 10-10c0-6-4.5-11-10-11S8 19 8 25" fill="#e6e7e8"/><path d="M18 14c1.6 0 3.2.5 4.5 1.2-.7 1-2.5 1.8-4.5 1.8s-3.8-.7-4.5-1.8A9.2 9.2 0 0 1 18 14" fill="#ffac33"/><path d="M19 31v-5c3.5.3 6 1.7 6 2.5v1.7c0 .8-3.7.8-6 .8m-2 0c-2.3 0-6 0-6-.8v-1.7c0-.8 2.5-2.2 6-2.5v5z" fill="#55acee"/><path d="M6 26s0-3 4-9c0 0-4 2-4 6v3zm24 0s0-3-4-9c0 0 4 2 4 6v3z" fill="#269"/></g></svg>