<svg xmlns="http://www.w3.org/2000/svg" viewBox="0 0 45 45"><defs><clipPath id="a"><path d="M0 36h36V0H0v36z"/></clipPath></defs><g clip-path="url(#a)" transform="matrix(1.25 0 0 -1.25 0 45)"><path d="M36 18a18 18 0 1 0-36 0 18 18 0 0 0 36 0" fill="#292f33"/><path d="M8.9 2.5l2.2-1.1L17.6 16h-1.4L9 2.5zM19.8 16h-1.5L25 1.4l2.2 1L19.8 16z" fill="#808285"/><path d="M14 10h-2V8h2v2zm10 0h-2V8h2v2z" fill="#58595b"/><path d="M26 11a2 2 0 0 0-2-2H12a2 2 0 0 0-2 2v2a2 2 0 0 0 2 2h12a2 2 0 0 0 2-2v-2z" fill="#a7a9ac"/><path d="M24.4 30H11.6A3.6 3.6 0 0 1 8 26.4V13a2 2 0 0 1 2-2h16a2 2 0 0 1 2 2v13.4a3.6 3.6 0 0 1-3.6 3.6" fill="#d1d3d4"/><path d="M8 17v-4a2 2 0 0 1 2-2h16a2 2 0 0 1 2 2v8H8v-4z" fill="#dd2e44"/><path d="M26 19a2 2 0 0 0-2-2H12a2 2 0 0 0-2 2v7a2 2 0 0 0 2 2h12a2 2 0 0 0 2-2v-7z" fill="#58595b"/><path d="M24 20a1 1 0 0 0-1-1H13a1 1 0 0 0-1 1v5a1 1 0 0 0 1 1h10a1 1 0 0 0 1-1v-5z" fill="#55acee"/><path d="M14 13h-4v2h4v-2zm12 0h-4v2h4v-2z" fill="#ffd983"/><path d="M20 27a1 1 0 0 0-1-1h-2a1 1 0 0 0 0 2h2a1 1 0 0 0 1-1" fill="#808285"/></g></svg>