<svg xmlns="http://www.w3.org/2000/svg" viewBox="0 0 45 45"><defs><clipPath id="a"><path d="M0 36h36V0H0v36z"/></clipPath></defs><g clip-path="url(#a)" transform="matrix(1.25 0 0 -1.25 0 45)"><path d="M32 14s-2 8-5 8H16c-3 0-7-7-7-7s-8-1-8-5V7.7A2 2 0 0 1 0 6a2 2 0 0 1 2-2h30a4 4 0 0 1 4 4v2a4 4 0 0 1-4 4" fill="#e1e8ed"/><path d="M1 10V7.7A2 2 0 0 1 0 6a2 2 0 0 1 2-2h30a4 4 0 0 1 4 4v2l-.1 1H1.2a2.8 2.8 0 0 1-.2-1" fill="#292f33"/><path d="M16 4v1A6 6 0 0 1 4 5V4h12zm17 0v1a6 6 0 0 1-12 0V4h12z" fill="#66757f"/><path d="M14 5a4 4 0 1 0-8 0 4 4 0 0 0 8 0" fill="#292f33"/><path d="M12 5a2 2 0 1 0-4 0 2 2 0 0 0 4 0" fill="#e1e8ed"/><path d="M31 5a4 4 0 1 0-8 0 4 4 0 0 0 8 0" fill="#292f33"/><path d="M29 5a2 2 0 1 0-4 0 2 2 0 0 0 4 0" fill="#e1e8ed"/><path d="M21 23a1 1 0 0 0-1-1h-3a1 1 0 0 0 0 2h3a1 1 0 0 0 1-1" fill="#dd2e44"/><path d="M22 23a1 1 0 0 0-1-1h-2a1 1 0 0 0 0 2h2a1 1 0 0 0 1-1m1-8h7s-2 5-3 5h-4v-5zm-2 5h-5c-2 0-5-5-5-5h10v5z" fill="#55acee"/></g></svg>