<svg xmlns="http://www.w3.org/2000/svg" viewBox="0 0 45 45"><defs><clipPath id="a"><path d="M0 36h36V0H0v36z"/></clipPath></defs><g clip-path="url(#a)" transform="matrix(1.25 0 0 -1.25 0 45)"><path d="M35 26c0 1-1 4-4 4H9.4C6 30 0 18 0 15V9a4 4 0 0 1 4-4h28a4 4 0 0 1 4 4v10c0 1-1 7-1 7" fill="#ccd6dd"/><path d="M36 10H0v3h36v-3z" fill="#66757f"/><path d="M9 11a6 6 0 0 1-6-5.9L4 5h11a6 6 0 0 1-6 6m24-5.9A6 6 0 0 1 21 5h11l1 .1" fill="#e1e8ed"/><path d="M5.7 10h6.6c-1 .6-2 1-3.3 1a6 6 0 0 1-3.3-1m18 0h6.6a6 6 0 0 1-3.3 1 6 6 0 0 1-3.3-1" fill="#99aab5"/><path d="M13 5a4 4 0 1 0-8 0 4 4 0 0 0 8 0" fill="#292f33"/><path d="M11 5a2 2 0 1 0-4 0 2 2 0 0 0 4 0" fill="#99aab5"/><path d="M31 5a4 4 0 1 0-8 0 4 4 0 0 0 8 0" fill="#292f33"/><path d="M29 5a2 2 0 1 0-4 0 2 2 0 0 0 4 0" fill="#99aab5"/><path d="M5 23h6v-7H2l3 7zm16-7h-8v7h8v-7zm2 7v-7h13v3l-.5 4H23z" fill="#55acee"/><path d="M33 25H7a1 1 0 0 0 0 2h26a1 1 0 1 0 0-2" fill="#99aab5"/></g></svg>