<svg xmlns="http://www.w3.org/2000/svg" viewBox="0 0 45 45"><defs><clipPath id="a"><path d="M0 36h36V0H0v36z"/></clipPath></defs><path d="M17.5 25h-3.8V13.7h3.8V25z" fill="#ccd6dd"/><g clip-path="url(#a)" transform="matrix(1.25 0 0 -1.25 0 45)"><path d="M24 9.8C24 7.2 22.4 5 20.3 5H4.7c-2 0-3.5 1.6-3.3 3.5l.7 5.2A5.2 5.2 0 0 0 6 18l14.6 3.2c1.9.5 3.4-1.3 3.4-4V9.8z" fill="#77b255"/><path d="M16.5 11.8C16.2 9.8 17.8 8 20 8h9a4 4 0 0 1 4 3.8v15.4c0 2-1.4 3.8-3.3 3.8h-7.2c-1.8 0-3.5-1.7-3.8-3.8l-2.2-15.4z" fill="#292f33"/><path d="M18.3 11c-.2-1.1.6-2 1.7-2h9a2 2 0 0 1 2 2v14c0 1.1-.7 2-1.7 2H22c-1 0-1.8-.9-2-2l-1.6-14z" fill="#bbddf5"/><path d="M33 15H15V5h18v10z" fill="#77b255"/><path d="M33 13H2l1 2h30v-2z" fill="#ffcc4d"/><path d="M12 5a4 4 0 1 0-8 0 4 4 0 0 0 8 0" fill="#292f33"/><path d="M10 5a2 2 0 1 0-4 0 2 2 0 0 0 4 0" fill="#ffcc4d"/><path d="M33 20v-4L23 7l-7 1 3 10 3 2h11z" fill="#77b255"/><path d="M18.2 9.9a8.9 8.9 0 0 0 9 8.9 8.9 8.9 0 0 0 8.8-9A8.9 8.9 0 0 0 27.1 1a8.9 8.9 0 0 0-8.9 8.9" fill="#292f33"/><path d="M32.7 9.9a5.6 5.6 0 1 0-11.2 0 5.6 5.6 0 0 0 11.2 0" fill="#ffcc4d"/><path d="M30.4 9.9a3.3 3.3 0 1 0-6.6 0 3.3 3.3 0 1 0 6.6 0" fill="#ffe8b6"/><path d="M32.6 29c-.6 1.2-1.6 2-2.8 2h-7.3c-1.3 0-2.4-.8-3.2-2h13.3z" fill="#77b255"/><path d="M29.3 9.9a2.2 2.2 0 1 0-4.4 0 2.2 2.2 0 0 0 4.4 0M9 5a1 1 0 1 0-2 0 1 1 0 0 0 2 0" fill="#f4900c"/><path d="M14 21h-3v2h3v-2z" fill="#66757f"/><path d="M16 7.3a1 1 0 0 0-1 1.2l2 6.8c.4 1.9 2.2 5.7 6 5.7h10a1 1 0 1 0 0-2H23c-3.1 0-4-4.2-4-4.2L17 8a1 1 0 0 0-1-.7" fill="#5c913b"/><path d="M2 7a1 1 0 0 0-1 1.1l1 8a1 1 0 0 0 2-.2l-1-8A1 1 0 0 0 2 7" fill="#3e721d"/></g></svg>