<svg xmlns="http://www.w3.org/2000/svg" viewBox="0 0 45 45"><defs><clipPath id="a"><path d="M0 36h36V0H0v36z"/></clipPath></defs><path d="M0 35h45v-5H0v5z" fill="#6d6e71"/><path d="M0 32.5h45v-5H0v5zM7.5 45h5V35h-5v10zM20 45h5V35h-5v10zm12.5 0h5V35h-5v10z" fill="#939598"/><path d="M12.5 37.5h-5v-3.8h5v3.8zm12.5 0h-5v-3.8h5v3.8zm12.5 0h-5v-3.8h5v3.8z" fill="#6d6e71"/><g clip-path="url(#a)" transform="matrix(1.25 0 0 -1.25 0 45)"><path d="M36 36h-6a2 2 0 0 1-2-2v-2a2 2 0 0 1 2-2h6v6z" fill="#bcbec0"/><path d="M36 16v-5H18c-3 0-7 5-7 5h25z" fill="#d1d3d4"/><path d="M11 16l1.8-2H36v2H11z" fill="#bcbec0"/><path d="M36 16H10c-3 0-7 3-7 6 0 5 16 12 18 12h15V16z" fill="#e6e7e8"/><path d="M3.7 24a3.7 3.7 0 0 1-.7-2c0-1.6 1.2-3.3 2.8-4.5A122.4 122.4 0 0 0 36 22v2H3.7z" fill="#5c913b"/><path d="M21 32h-5.5a43.3 43.3 0 0 1-10-6H21a2 2 0 0 1 2 2v2a2 2 0 0 1-2 2m5-5a1 1 0 1 0-2 0v4a1 1 0 1 0 2 0v-4zm8 0a1 1 0 0 0-1-1h-4a1 1 0 0 0-1 1v4a1 1 0 0 0 1 1h4a1 1 0 0 0 1-1v-4z" fill="#55acee"/></g></svg>