<svg xmlns="http://www.w3.org/2000/svg" viewBox="0 0 45 45"><defs><clipPath id="a"><path d="M0 36h36V0H0v36z"/></clipPath></defs><g clip-path="url(#a)" transform="matrix(1.25 0 0 -1.25 0 45)"><path d="M35 24c0 1-1 4-4 4H9.4c-1.4 0-3.3-1.8-4.3-4L2 19c-1.4-.6-2-2.3-2-4V9a4 4 0 0 1 4-4h28a4 4 0 0 1 4 4v8c0 1-1 7-1 7" fill="#ccd6dd"/><path d="M9 11a6 6 0 0 1-6-5.9L4 5h11a6 6 0 0 1-6 6m24-5.9A6 6 0 0 1 21 5h11l1 .1" fill="#e1e8ed"/><path d="M13 5a4 4 0 1 0-8 0 4 4 0 0 0 8 0" fill="#292f33"/><path d="M11 5a2 2 0 1 0-4 0 2 2 0 0 0 4 0" fill="#99aab5"/><path d="M31 5a4 4 0 1 0-8 0 4 4 0 0 0 8 0" fill="#292f33"/><path d="M29 5a2 2 0 1 0-4 0 2 2 0 0 0 4 0" fill="#99aab5"/><path d="M36 12H0v3h36v-3zm-5 11h-3v3h-2v-3h-3v-2h3v-3h2v3h3v2z" fill="#dd2e44"/><path d="M8 26h5v-7H4l4 7z" fill="#55acee"/><path d="M15 29.5a1.5 1.5 0 0 0-1.5-1.5h-2a1.5 1.5 0 1 0 0 3h2a1.5 1.5 0 0 0 1.5-1.5" fill="#dd2e44"/><path d="M18 29.5a1.5 1.5 0 0 0-1.5-1.5h-2a1.5 1.5 0 1 0 0 3h2a1.5 1.5 0 0 0 1.5-1.5" fill="#55acee"/></g></svg>