<svg xmlns="http://www.w3.org/2000/svg" viewBox="0 0 45 45"><defs><clipPath id="a"><path d="M0 36h36V0H0v36z"/></clipPath></defs><g clip-path="url(#a)" transform="matrix(1.25 0 0 -1.25 0 45)"><path d="M0 1h36v25s-6 10-9 10-10-9-12-11-4.5-.5-6 1-3 3-4 3-5-7-5-7V1z" fill="#d1d3d4"/><path d="M36 0H0v2h36V0z" fill="#939598"/><path d="M14 4a3 3 0 1 1-6 0 3 3 0 0 1 6 0" fill="#58595b"/><path d="M13 4a2 2 0 1 1-4 0 2 2 0 0 1 4 0" fill="#292f33"/><path d="M22 4a3 3 0 1 1-6 0 3 3 0 0 1 6 0" fill="#58595b"/><path d="M21 4a2 2 0 1 1-4 0 2 2 0 0 1 4 0" fill="#292f33"/><path d="M36 22H7a4 4 0 0 1-4-4V8a4 4 0 0 1 4-4h29v18z" fill="#ffe8b6"/><path d="M36 22H7a4 4 0 0 1-3.4-2H36v2z" fill="#77b255"/><path d="M36 8H3a4 4 0 0 1 4-4h29v4z" fill="#5c913b"/><path d="M36 10H3V8h33v2z" fill="#ffac33"/><path d="M9 12H3v5h6v-5zm6 2a1 1 0 0 0-1-1h-2a1 1 0 0 0-1 1v2a1 1 0 0 0 1 1h2a1 1 0 0 0 1-1v-2zm5 0a1 1 0 0 0-1-1h-2a1 1 0 0 0-1 1v2a1 1 0 0 0 1 1h2a1 1 0 0 0 1-1v-2zm7 0a1 1 0 0 0-1-1h-2a1 1 0 0 0-1 1v2a1 1 0 0 0 1 1h2a1 1 0 0 0 1-1v-2zm7 0a1 1 0 0 0-1-1h-2a1 1 0 0 0-1 1v2a1 1 0 0 0 1 1h2a1 1 0 0 0 1-1v-2z" fill="#55acee"/><path d="M22.5 18a.5.5 0 0 1-.5-.5v-10c0-.3.2-.5.5-.5h5c.3 0 .5.2.5.5v10a.5.5 0 0 1-.5.5h-5zm5-12h-5c-.8 0-1.5.7-1.5 1.5v10c0 .8.7 1.5 1.5 1.5h5c.8 0 1.5-.7 1.5-1.5v-10c0-.8-.7-1.5-1.5-1.5" fill="#66757f"/></g></svg>