<svg xmlns="http://www.w3.org/2000/svg" viewBox="0 0 45 45"><defs><clipPath id="a"><path d="M0 36h36V0H0v36z"/></clipPath></defs><g clip-path="url(#a)" transform="matrix(1.25 0 0 -1.25 0 45)"><path d="M34 3a2 2 0 0 0-2-2h-3a2 2 0 0 0-2 2v8a2 2 0 0 0 2 2h3a2 2 0 0 0 2-2V3zM9 3a2 2 0 0 0-2-2H4a2 2 0 0 0-2 2v8a2 2 0 0 0 2 2h3a2 2 0 0 0 2-2V3z" fill="#292f33"/><path d="M9 31c4 1 14 1 18 0 3.9-1 5-11 5-11s2 0 2-4V8s-.1-3-4-4c-4-1-7-1-12-1S10 3 6 4C2.1 5 2 8 2 8v8s0 4 2 4c0 0 1.1 10 5 11" fill="#3b88c3"/><path d="M18 21c3.9 0 8.6-.2 12-.6L29 26c-1 3-7 3-11 3S8 29 7 26l-1-5.6c3.4.4 8.1.6 12 .6" fill="#bbddf5"/><path d="M5 20.5A1.5 1.5 0 0 0 3.5 19h-2a1.5 1.5 0 1 0 0 3h2A1.5 1.5 0 0 0 5 20.5m26 0a1.5 1.5 0 0 1 1.5-1.5h2a1.5 1.5 0 1 1 0 3h-2a1.5 1.5 0 0 1-1.5-1.5" fill="#3b88c3"/><path d="M11 13a3 3 0 0 0-3-3H7a3 3 0 1 0 0 6h1a3 3 0 0 0 3-3m21 0a3 3 0 0 0-3-3h-1a3 3 0 0 0 0 6h1a3 3 0 0 0 3-3" fill="#ffcc4d"/><path d="M12 14a1 1 0 0 0-.8.5C9.4 17 4.9 18 4.8 18a1 1 0 0 0 .4 2c.2 0 5.4-1.1 7.6-4.4A1 1 0 0 0 12 14m12 0a1 1 0 0 0-.8 1.6c2.2 3.3 7.4 4.3 7.6 4.4a1 1 0 0 0 .4-2s-4.6-1-6.4-3.6a1 1 0 0 0-.8-.4" fill="#269"/><path d="M18 7c-5.7 0-12.6.2-13.7 1.3a1 1 0 0 0 1.3 1.5C5.8 9.8 7.9 9 18 9s12.2.7 12.4.8a1 1 0 0 0 1.3-1.5c-1-1-8-1.3-13.7-1.3" fill="#55acee"/><path d="M25 6.5C25 5 21.9 4 18 4s-7 1-7 2.5c0 .8 3.1.5 7 .5s7 .3 7-.5" fill="#269"/></g></svg>