<svg xmlns="http://www.w3.org/2000/svg" viewBox="0 0 45 45"><defs><clipPath id="a"><path d="M0 36h36V0H0v36z"/></clipPath></defs><path d="M23.8 15V6.2h-2.6V15H15v6.3h15V15h-6.3z" fill="#58595b"/><g clip-path="url(#a)" transform="matrix(1.25 0 0 -1.25 0 45)"><path d="M34 8v10a4 4 0 0 1-4 4H6a4 4 0 0 1-4-4V8h32z" fill="#ffd983"/><path d="M2 14V8a8 8 0 0 1 8-8h16a8 8 0 0 1 8 8v6H2z" fill="#269"/><path d="M8 9H2v9h6V9zm9 0h-7v9h7V9zm9 0h-7v9h7V9zm8 0h-6v9h6V9z" fill="#88c9f9"/><path d="M33.2 25l-30 8a1 1 0 0 0 .6 2l30-8a1 1 0 0 0-.6-2" fill="#6d6e71"/><path d="M23.4 31.6l-2 .6.3 1-5.8 1.5-.3-1-2 .5a2 2 0 0 1-1-3.8l9.7-2.6a2 2 0 1 1 1 3.8" fill="#a7a9ac"/><path d="M13.9 31a2 2 0 1 0-3.9 1.1 2 2 0 0 0 3.9-1M25.5 28a2 2 0 1 0-3.9 1 2 2 0 0 0 3.9-1" fill="#808285"/><path d="M8 16H2v2h6v-2zm9 0h-7v2h7v-2zm9 0h-7v2h7v-2zm8 0h-6v2h6v-2z" fill="#55acee"/></g></svg>