<svg xmlns="http://www.w3.org/2000/svg" viewBox="0 0 45 45"><defs><clipPath id="a"><path d="M0 36h36V0H0v36z"/></clipPath></defs><g clip-path="url(#a)" transform="matrix(1.25 0 0 -1.25 0 45)"><path d="M19 22.2l1.2 1.4c1-1 2.5-1.5 3-1.2.5.4 2-.9.8-1.6-1.1-.7-1.4 0-2.3.3L19 22m1 6.8c.9-.2 0-1 .2-2.3.3-1.6-2 0-1.8-2.2.1-1.5-1.9-2-2-.5-.2 1.4 1 2.2.3 3.4-1.5 2.7 3.3 1.6 3.3 1.6" fill="#ffdc5d"/><path d="M15.4 20.1l3-1.1-1.1-3.1s-4.6 1-5.3 2.1c-.7 1.1.6 2.7.6 2.7l2.8-.6z"/><path d="M20 28.4c.8-.6.5 1 0 1.4-.8.7-2.5.7-3.3 0-.8-.7-.8-2 0-2.7.6-.5.8-1.3.8 0s.9 0 .9.7 1.6.7 1.6.7" fill="#ffac33"/><path d="M2 19h32s0-2-1-7c-.9-4.3-21-1-24.6 0-3 .9-6.4 7-6.4 7" fill="#c1694f"/><path d="M35 18a1 1 0 0 0-1-1H2a1 1 0 1 0 0 2h32a1 1 0 0 0 1-1" fill="#f4900c"/><path d="M36 12H0V0h36v12z" fill="#55acee"/><path d="M12 9a1 1 0 0 0-.7 1.7l11 11a1 1 0 1 0 1.4-1.4l-11-11A1 1 0 0 0 12 9" fill="#ffac33"/><path d="M11 7a2 2 0 0 0-1.4 3.4l3 3a2 2 0 1 0 2.8-2.8l-3-3A2 2 0 0 0 11 7" fill="#ffcc4d"/><path d="M20.2 23.6l-.6.8c-.5.8-.9 1.2-1.6 1.3-1.3.3-3-.3-4.2-1.9-.9-1-1-2.2-2.3-3.8 0 0 4.2-.4 4.8 0 .5.3.7 1.2 1 2.1.1.9.6 1.3 1 .7l.7-.6 1.2 1.4z" fill="#77b255"/></g></svg>