<svg xmlns="http://www.w3.org/2000/svg" viewBox="0 0 45 45"><defs><clipPath id="a"><path d="M0 36h36V0H0v36z"/></clipPath><clipPath id="b"><path d="M2 15s-2 0-2-2V8c0-2 2-2 2-2h29s2 0 2 2v5c0 2-2 2-2 2H2z"/></clipPath><clipPath id="c"><path d="M0 36h36V0H0v36z"/></clipPath></defs><g clip-path="url(#a)" transform="matrix(1.25 0 0 -1.25 0 45)"><path d="M33 8c0-2-2-2-2-2H2S0 6 0 8v5c0 2 2 2 2 2h29s2 0 2-2V8z" fill="#d99e82"/></g><g clip-path="url(#b)" transform="matrix(1.25 0 0 -1.25 0 45)"><path d="M25 0H12v20h13V0z" fill="#e1e8ed"/><path d="M35 2H25v16h10V2z" fill="#66757f"/></g><g clip-path="url(#c)" transform="matrix(1.25 0 0 -1.25 0 45)"><path d="M27.8 16a1 1 0 0 0-1 .8c0 .3-.7 5 4.5 8a5.5 5.5 0 0 1 2.5 6.2 4 4 0 0 1-4 3c-3.2 0-4-1.8-4.2-2.6-.2-1.2 0-2.1.7-2.6a1.7 1.7 0 0 1 1.9 0c.4.3.6.7.6 1.2a1 1 0 1 0 2 0c0-1.2-.6-2.3-1.6-2.9-1-.7-2.8-.5-3.9.1-1.3.8-2 2.6-1.6 4.6.7 2.6 3 4.2 6 4.2a6 6 0 0 0 6-4.5 7.5 7.5 0 0 0-3.4-8.3c-4-2.5-3.5-6-3.5-6a1 1 0 0 0-1-1.2" fill="#ccd6dd"/></g></svg>