<svg xmlns="http://www.w3.org/2000/svg" viewBox="0 0 45 45"><defs><clipPath id="a"><path d="M0 36h36V0H0v36z"/></clipPath></defs><path d="M41.3 33.8h-2.5l1.2-10h2.5l-1.3 10z" fill="#5c913b"/><g clip-path="url(#a)" transform="matrix(1.25 0 0 -1.25 0 45)"><path d="M1 22c9 0 11-1 17-2 3-.5 7-1 11-1 2 0 4-1 4-4 0-2 .5-3.2-5.4-3.8A51 51 0 0 0 9 15c-6 3-9 7-8 7" fill="#dd2e44"/><path d="M36 12H0V0h36v12z" fill="#55acee"/><path d="M5 23c4 0 11 0 18-1s10-1 10-3v-3c0-1.4-6.9-.5-10 0-7 1-14 3-18 4s-7 3 0 3" fill="#ffcc4d"/><path d="M30.6 11.7c2.1.5 2.4 1.3 2.4 2.3-1.2-.6-3.7-.3-5.9 0-8 1-16.5 3-24.7 5.6A24.3 24.3 0 0 1 7 16.1a136.3 136.3 0 0 1 23.6-4.4" fill="#a0041e"/><path d="M12 12c3 2 7 5 6 3s-1-3 1-2 5 2 4 0 2-1 3 0 4 0 3-1-9-2-12-2-5 2-5 2" fill="#55acee"/><path d="M34 20h-1a2 2 0 0 1-2-2h1a1 1 0 0 0 1-1v-1h1c1.1 0 2-.1 2 1s-.9 3-2 3" fill="#5c913b"/><path d="M30 20c1-.2 0-2-1-3s-10 1-10 1l2 3s5 0 9-1" fill="#c1694f"/><path d="M29 17l.9 1.1a18.2 18.2 0 0 1-6 1.7 22.2 22.2 0 0 1-3.6.1L19 18s9-2 10-1" fill="#a0041e"/><path d="M21 21v1l-4-1-2-2 4-1 2 3z" fill="#55acee"/><path d="M23 22c-.6 0-1-1.3-1-3 0-.6 0-1.2.2-1.7a11 11 0 0 1 1.6-.2L24 19c0 1.7-.5 3-1 3" fill="#292f33"/></g></svg>