<svg xmlns="http://www.w3.org/2000/svg" viewBox="0 0 45 45"><defs><clipPath id="a"><path d="M0 36h36V0H0v36z"/></clipPath></defs><path d="M23.8 15V6.2h-2.6V15h-3.7v3.8h10V15h-3.8z" fill="#58595b"/><g clip-path="url(#a)" transform="matrix(1.25 0 0 -1.25 0 45)"><path d="M33.2 25l-30 8a1 1 0 0 0 .6 2l30-8a1 1 0 0 0-.6-2" fill="#6d6e71"/><path d="M23.4 31.6l-2 .6.3 1-5.8 1.5-.3-1-2 .5a2 2 0 0 1-1-3.8l9.7-2.6a2 2 0 1 1 1 3.8" fill="#a7a9ac"/><path d="M13.9 31a2 2 0 1 0-3.9 1.1 2 2 0 0 0 3.9-1M25.5 28a2 2 0 1 0-3.9 1 2 2 0 0 0 3.9-1" fill="#808285"/><path d="M6 4a4 4 0 0 1 4-4h16a4 4 0 0 1 4 4v5H6V4zm20 18H10a4 4 0 0 1-3.4-2h22.9a4 4 0 0 1-3.5 2" fill="#dd2e44"/><path d="M6 9h24v9H6V9z" fill="#88c9f9"/><path d="M6.5 20a4 4 0 0 1-.5-2h24a3.9 3.9 0 0 1-.6 2H6.6z" fill="#55acee"/><path d="M14 9h-2v11h2V9zm9 0h-2v11h2V9z" fill="#231f20"/></g></svg>