<svg xmlns="http://www.w3.org/2000/svg" viewBox="0 0 45 45"><defs><clipPath id="a"><path d="M0 36h36V0H0v36z"/></clipPath></defs><g clip-path="url(#a)" transform="matrix(1.25 0 0 -1.25 0 45)"><path d="M31.5 18.5a2 2 0 0 1 0 2.8L18 34.8a2 2 0 0 1-2.9 0l-3-3a2 2 0 0 1 0-2.8l13.6-13.5a2 2 0 0 1 2.8 0l.2.1c2-2 3.2-3.8 3.2-6.6V2.3a2 2 0 1 1 4 0V9a13 13 0 0 1-4.4 9.5" fill="#66757f"/><path d="M32.1 15a2 2 0 0 0-2.8 0L11.7 32.6a2 2 0 1 0 2.8 2.8L32.1 18a2 2 0 0 0 0-2.9" fill="#99aab5"/><path d="M17.4 20.4a1 1 0 0 0 0-1.4L1.7 3.3A1 1 0 1 0 .3 4.7L16 20.4a1 1 0 0 0 1.4 0m-3 3a1 1 0 0 0 0-1.4L1.7 9.3a1 1 0 1 0-1.4 1.4L13 23.4a1 1 0 0 0 1.4 0m-3 3a1 1 0 0 0 0-1.4L2 15.6A1 1 0 1 0 .6 17l9.4 9.4a1 1 0 0 0 1.4 0m9-9a1 1 0 0 0 0-1.4L7.7 3.3a1 1 0 1 0-1.4 1.4L19 17.4a1 1 0 0 0 1.4 0m3-3a1 1 0 0 0 0-1.4L14 3.6A1 1 0 1 0 12.6 5l9.4 9.4a1 1 0 0 0 1.4 0" fill="#55acee"/></g></svg>