<svg xmlns="http://www.w3.org/2000/svg" viewBox="0 0 45 45"><defs><clipPath id="a"><path d="M0 36h36V0H0v36z"/></clipPath></defs><g clip-path="url(#a)" transform="matrix(1.25 0 0 -1.25 0 45)"><path d="M7 12a5 5 0 0 0 4.5-2.8l3.4 1.8a8.9 8.9 0 0 1-8 5 8.9 8.9 0 0 1-3.6-.8l1.6-3.7A5 5 0 0 0 7 12m22 0a5 5 0 0 0 3.7-1.6l2.9 2.6a8.9 8.9 0 0 1-6.7 3 9 9 0 0 1-8-5.2l3.6-1.7A5 5 0 0 0 29 12" fill="#ea596e"/><path d="M7 2a5 5 0 1 0 0 10A5 5 0 0 0 7 2m0 12A7 7 0 1 1 7 0a7 7 0 0 1 0 14M29 2a5 5 0 1 0 0 10 5 5 0 0 0 0-10m0 12a7 7 0 1 1 0-14 7 7 0 0 1 0 14" fill="#292f33"/><path d="M30 7a1 1 0 0 1 0 .3l-.1.2-7 11a1 1 0 0 1-1.4.3 1 1 0 0 1-.5-.8h-9a1 1 0 1 1 0-2h10l5.2-8H18a1 1 0 1 1 0-2h11.3l.1.1h.1l.1.1a1 1 0 0 1 .3.3 1 1 0 0 1 0 .4l.1.1" fill="#dd2e44"/><path d="M21.6 20l-3-8.1-5.9 6.8a1 1 0 1 1-1.4-1.4l6.6-7.6-.8-2.4a1 1 0 0 1 1.8-.6L23.7 20h-2.1z" fill="#dd2e44"/><path d="M7 6a1 1 0 0 0-.9 1.4l3 6.1S11 16.4 11 19c0 3.2-2.3 4-2.3 4a1 1 0 1 0 .6 2c.2-.1 3.7-1.3 3.7-6 0-3-1.8-6-2.1-6.5l-3-6A1 1 0 0 0 7 6" fill="#dd2e44"/><path d="M14.6 22.3a1 1 0 0 0-.2 0l-6 1a1 1 0 1 0 .4 2l6-1a1 1 0 0 0-.2-2M26.4 19a.7.7 0 0 0-.1 0l-5.7.7a.7.7 0 0 0 .1 1.4s4 0 6 1.3c.2.2.6.2.8 0a.7.7 0 0 0 .3-.8l-.7-2.1a.7.7 0 0 0-.7-.5" fill="#292f33"/><path d="M20 7a2 2 0 1 0-4 0 2 2 0 0 0 4 0" fill="#66757f"/></g></svg>