<svg xmlns="http://www.w3.org/2000/svg" viewBox="0 0 45 45"><defs><clipPath id="a"><path d="M0 36h36V0H0v36z"/></clipPath></defs><g clip-path="url(#a)" transform="matrix(1.25 0 0 -1.25 0 45)"><path d="M26 18v-2H13.3c-.9 0-1.8-.9-2.2-2L7.6 2C7.3.9 7.9 0 9 0h18a2 2 0 0 1 2 2v10a4 4 0 0 0 3 3.9V18h-6z" fill="#aab8c2"/><path d="M22 14.1C22 10.6 17.5 7 12 7S2 10.6 2 14.1C2 16 2.8 16 12 16s10 0 10-1.9m3 2.9c0-.6-.5-1-1.1-1H3c-.6 0-1.1.4-1.1 1s.5 1 1.1 1h21c.6 0 1.1-.5 1.1-1" fill="#e1e8ed"/><path d="M18 20H6a2 2 0 0 1-2-2h16a2 2 0 0 1-2 2m2 16V18c1.1 0 2 1 2 2.3v13.4c0 1.3-.9 2.3-2 2.3" fill="#99aab5"/><path d="M34 32a2 2 0 0 1-2 2h-8a2 2 0 0 1-2-2V18a2 2 0 0 1 2-2h8a2 2 0 0 1 2 2v14z" fill="#e1e8ed"/><path d="M22 20a2 2 0 1 0-4 0 2 2 0 0 0 4 0m12 10H22v2h12v-2z" fill="#ccd6dd"/><path d="M25 15a1 1 0 0 0-1-1H3a1 1 0 1 0 0 2h21a1 1 0 0 0 1-1" fill="#aab8c2"/></g></svg>