<svg xmlns="http://www.w3.org/2000/svg" viewBox="0 0 45 45"><defs><clipPath id="a"><path d="M0 36h36V0H0v36z"/></clipPath></defs><g clip-path="url(#a)" transform="matrix(1.25 0 0 -1.25 0 45)"><path d="M10 31c-1-1 0-2 0-3s2 0 2 0 1 1 2-1 4-1 3 1-4 1-4 3-3 0-3 0" fill="#ffdc5d"/><path d="M15 33c0-1 0-4-1-4s-1 1-2 2 3 2 3 2" fill="#ffac33"/><path d="M19 20s-3-2-3-3 4-4 5-5 3-1 2 1-4 7-4 7" fill="#f9ca55"/><path d="M20.6 13s1.2-.8 2 .4c.8 1.1 1.4-1.8 1.4-1.8s-2.6-2.5-4.6-3c-2-.3-1.1.9-.4 2l1.6 2.4" fill="#2a6797"/><path d="M7 2a5 5 0 1 0 0 10A5 5 0 0 0 7 2m0 12A7 7 0 1 1 7 0a7 7 0 0 1 0 14M29 2a5 5 0 1 0 0 10 5 5 0 0 0 0-10m0 12a7 7 0 1 1 0-14 7 7 0 0 1 0 14" fill="#292f33"/><path d="M22 16c0 .6-.5 1-1 1H10c-.5 0-1-.4-1-1s.5-1 1-1h11c.5 0 1 .5 1 1m8-9a1 1 0 0 1-1 1H18a1 1 0 1 1 0-2h11a1 1 0 0 1 1 1" fill="#aab8c2"/><path d="M21.2 19L17.1 7.3A1 1 0 0 1 18 6a1 1 0 0 1 1 .7L23.2 19h-2z" fill="#aab8c2"/><path d="M29 6a1 1 0 0 0-.8.5l-7 11a1 1 0 1 0 1.6 1l7-11A1 1 0 0 0 29 6m-10 4.3l-8.4 6.5a1 1 0 1 1-1.2-1.6l9-7A1 1 0 0 1 19 8v2.3z" fill="#aab8c2"/><path d="M7 6a1 1 0 0 0-1 1.3l2.8 8.3-3.4 2.6a1 1 0 1 0 1.2 1.6l4.6-3.4L8 6.7A1 1 0 0 0 7 6" fill="#aab8c2"/><path d="M26.4 17a.7.7 0 0 0-.1 0l-5.7.7a.7.7 0 0 0 .1 1.4s4 0 6 1.3c.2.2.6.2.8 0a.7.7 0 0 0 .3-.8l-.7-2.1a.7.7 0 0 0-.7-.5M11 18H6a1 1 0 0 0 0 2h5a1 1 0 0 0 0-2" fill="#292f33"/><path d="M22 23l-4-3 3-3 1 6z" fill="#2a6797"/><path d="M20 19s-2-3-2-4 1-4 1-7 2-3 2-2 1.6 5.4 0 7c-1 1 2 4 2 4l-3 2zm-4.3 3.7l-2.8.8c-.4-2-3-4.5-3.9-4.5-1 0-2 0-2-1s0-1 2-1 4 2 5 3a8.7 8.7 0 0 1 1.7 2.7" fill="#ffdc5d"/><path d="M22 23l-3-4 4-3s5 5 5 7-3 3-3 3l-3-3z" fill="#357baa"/><path d="M21 29c-3 1-5.6.4-7-1-1-1-1-2-1-4v-.6l2.7-.7.3 1.3c0 1 1 1 2 0s2-2 3-2 6 4 6 4c-3 1-4.1 2.4-6 3M19 7s1-1 2 0 1-2 1-2-3-2-5-2-1 1 0 2l2 2zm-8 27c2 1 6 0 4-2-1-1-7-2-7-2 0 1 1 3 3 4" fill="#4289c1"/></g></svg>