<svg xmlns="http://www.w3.org/2000/svg" viewBox="0 0 45 45"><defs><clipPath id="a"><path d="M0 36h36V0H0v36z"/></clipPath></defs><g clip-path="url(#a)" transform="matrix(1.25 0 0 -1.25 0 45)"><path d="M31 6.5a1.5 1.5 0 0 0-3 0v24a1.5 1.5 0 1 0 3 0v-24z" fill="#ccd6dd"/><path d="M34.9 4v.5c0 2-2.4 3.5-5.5 3.5-3 0-5.5-1.6-5.5-3.5L24 4h11z" fill="#ccd6dd"/><path d="M36 27c.3-1.1-1-2-2-2h-9c-1.2 0-2.4 1-2 2l2 7c.2 1 .8 2 2 2h5c1 0 1.7-1.1 2-2l2-7z" fill="#fcab40"/><path d="M29 6.9c0-1.2-1-2.2-2.3-2.2H6.3C5 4.7 4 5.7 4 6.9v9.9C4 18 5 19 6.3 19h20.4c1.3 0 2.3-1 2.3-2.2V6.9z" fill="#5d9040"/><path d="M27.5 4.7a2.2 2.2 0 0 0-2.2-2.2H6.6a2.2 2.2 0 0 0-2.2 2.2v1.1A2.2 2.2 0 0 0 6.6 8h18.7a2.2 2.2 0 0 0 2.2-2.2V4.7z" fill="#3f7123"/><path d="M29 16.9c0-3.4-5.6-6.1-12.5-6.1S4 13.4 4 16.8C4 20.4 9.6 23 16.5 23S29 20.3 29 16.9" fill="#5d9040"/><path d="M6.6 12.4a3.3 3.3 0 1 0-6.6 0 3.3 3.3 0 0 0 6.6 0" fill="#78b159"/><path d="M6.6 2.5a2.2 2.2 0 0 0-4.4 0v9.9a2.2 2.2 0 1 0 4.4 0V2.5zm19.8 9.9a3.3 3.3 0 1 1 6.6 0 3.3 3.3 0 0 1-6.6 0" fill="#78b159"/><path d="M26.4 2.5a2.2 2.2 0 1 1 4.4 0v9.9a2.2 2.2 0 0 1-4.4 0V2.5zM16.5 8a2.2 2.2 0 0 0-2.2-2.2H8.8a2.2 2.2 0 0 0 0 4.4h5.5A2.2 2.2 0 0 0 16.5 8" fill="#78b159"/><path d="M26.4 8a2.2 2.2 0 0 0-2.2-2.2h-5.5a2.2 2.2 0 1 0 0 4.4h5.5A2.2 2.2 0 0 0 26.4 8" fill="#78b159"/><path d="M27 5H6v3h21V5z" fill="#78b159"/></g></svg>