<svg xmlns="http://www.w3.org/2000/svg" viewBox="0 0 45 45"><defs><clipPath id="a"><path d="M0 36h36V0H0v36z"/></clipPath></defs><path d="M1.3 35h42.5v6.3H1.3V35z" fill="#c1694f"/><g clip-path="url(#a)" transform="matrix(1.25 0 0 -1.25 0 45)"><path d="M36 1a1 1 0 1 0-2 0v14a1 1 0 1 0 2 0V1zM0 1a1 1 0 1 1 2 0v22a1 1 0 1 1-2 0V1z" fill="#c1694f"/><path d="M32 13H4a2 2 0 0 1-2-2V7h32v4a2 2 0 0 1-2 2" fill="#269"/><path d="M32 13H4a2 2 0 0 1-2-2V7h32v4a2 2 0 0 1-2 2" fill="#55acee"/><path d="M2.1 16c-.2-1 1.5-2.4 4-3 2.3-.5 4.5-.1 4.8 1 .2 1-1.5 2.4-4 3-2.3.5-4.5.1-4.8-1" fill="#5c913b"/></g></svg>