<svg xmlns="http://www.w3.org/2000/svg" viewBox="0 0 45 45"><defs><clipPath id="a"><path d="M0 36h36V0H0v36z"/></clipPath></defs><g clip-path="url(#a)" transform="matrix(1.25 0 0 -1.25 0 45)"><path d="M11 19c1-3 .2-5-2-5s-5 2-6 4 .9 4.3 3 5c3 1 4.4-2.1 5-4" fill="#ffdc5d"/><path d="M9 23c0 1-3 2-6-1s1-5 1-5 4-3 3 0 2 5 2 6" fill="#ffac33"/><path d="M30 20c0-.6.9-1 2-1s2 .5 2 1-.9 1-2 1-2-.5-2-1" fill="#99aab5"/><path d="M33 15a1 1 0 0 0-1 1v16c0 1.6-2 2-3 2s-3-.4-3-2a1 1 0 1 0-2 0c0 2.6 2.5 4 5 4s5-1.4 5-4V16a1 1 0 0 0-1-1" fill="#ccd6dd"/><path d="M28 30c0-1.1-1.3-1-3-1s-3-.1-3 1 1.3 2 3 2 3-.9 3-2" fill="#99aab5"/><path d="M29 29a1 1 0 0 0-1-1h-6a1 1 0 1 0 0 2h6a1 1 0 0 0 1-1" fill="#ccd6dd"/><path d="M14 2a2 2 0 1 0-4 0 2 2 0 0 0 4 0m16 0a2 2 0 1 0-4 0 2 2 0 0 0 4 0" fill="#99aab5"/><path d="M30 2H12C7 2 2 8 1 16c-.3 2 .8 1 3 1 0 0 13-2 26-2 2 0 5 1.2 5-1 0 0-1-12-5-12" fill="#ccd6dd"/><path d="M36 15a1 1 0 0 0-1-1L1 16a1 1 0 1 0 0 2l34-2a1 1 0 0 0 1-1" fill="#99aab5"/></g></svg>