<svg xmlns="http://www.w3.org/2000/svg" viewBox="0 0 45 45"><defs><clipPath id="a"><path d="M0 36h36V0H0v36z"/></clipPath><clipPath id="b"><path d="M4.8 31.6C2 16.2 6.4 6.3 18 2c11.6 4.2 16 14 13.2 29.5A42.6 42.6 0 0 1 18 34s-7 0-13.2-2.4"/></clipPath></defs><g clip-path="url(#a)" transform="matrix(1.25 0 0 -1.25 0 45)"><path d="M33 33c-7 3-15 3-15 3s-8 0-15-3C0 18 3 5 18 0c15 5 18 18 15 33" fill="#ccd6dd"/><path d="M18 2.1C6.4 6.3 2 16.1 4.8 31.6A42.4 42.4 0 0 0 18 34s7 0 13.2-2.4C34 16.2 29.6 6.3 18 2" fill="#55acee"/></g><g clip-path="url(#b)" transform="matrix(1.25 0 0 -1.25 0 45)"><path d="M33 2H18v32h15V2z" fill="#269"/></g></svg>