<svg xmlns="http://www.w3.org/2000/svg" viewBox="0 0 45 45"><defs><clipPath id="a"><path d="M0 36h36V0H0v36z"/></clipPath></defs><g clip-path="url(#a)" transform="matrix(1.25 0 0 -1.25 0 45)"><path d="M35 17a1 1 0 0 0-1-1h-3a1 1 0 0 0-1 1v2a1 1 0 0 0 1 1h3a1 1 0 0 0 1-1v-2z" fill="#66757f"/><path d="M32 11h2v7h-2v-7z" fill="#66757f"/><path d="M6 16.8S11 21 16 21v-5s0-1-4-1-6 1.8-6 1.8" fill="#e1e8ed"/><path d="M7.3 16.9c3.5 2.7 6.7 3 7.7 3V16c0-3.2-7.8.9-7.8.9" fill="#3b88c3"/><path d="M33 11s.5 4-1 5.8L1 17.9s2-3.4 6-5.7C11 9.9 33 11 33 11" fill="#ccd6dd"/><path d="M7 12.2C11 9.9 33 11 33 11s.3 2.4-.2 4.2L2 16.4a18 18 0 0 1 5-4.2" fill="#f4900c"/><path d="M36 12H0V0h36v12z" fill="#55acee"/></g></svg>