<svg xmlns="http://www.w3.org/2000/svg" viewBox="0 0 45 45"><defs><clipPath id="a"><path d="M0 36h36V0H0v36z"/></clipPath></defs><g clip-path="url(#a)" transform="matrix(1.25 0 0 -1.25 0 45)"><path d="M25.8 25.3a.5.5 0 0 0-.6.1L22 30.6a.5.5 0 0 0 .1.7c.3.1.6 0 .7-.1L26 26a.5.5 0 0 0-.1-.7z" fill="#66757f"/><path d="M25.3 25.8a.5.5 0 0 1 .1-.6l5.2-3.1a.5.5 0 0 1 .7.1.5.5 0 0 1-.2.7L26 26a.5.5 0 0 1-.6-.1z" fill="#66757f"/><path d="M13 3.9L9.6 8.8l-.7.7-5 3.5a1 1 0 0 1-1.4 0l-2-2a1 1 0 0 1 0-1.5L9.4.3a1 1 0 0 1 1.4 0L13 2.4A1 1 0 0 1 13 4" fill="#be1931"/><path d="M23.2 18.3a105 105 0 0 0-20-15.2c-.5.4 8 13.1 15 20.1 7 7 8.9 6.6 10.3 5.2 1.3-1.3 1.7-3.2-5.3-10.2" fill="#ccd6dd"/><path d="M32 31.4c-.9-1-1.9-1.6-2-1.4-.3.2.4 1.1 1.4 2 1 1 1.9 1.7 2 1.5.3-.2-.4-1.2-1.3-2.1" fill="#be1931"/><path d="M24 19a2 2 0 0 0-2.9 0L19 21.1a2 2 0 0 0 0 2.8l7.8 7.8c.8.8 3.2 2 4 1.2l2.1-2.1c.8-.8-.4-3.2-1.2-4L24 19z" fill="#ccd6dd"/><path d="M28.5 32.8l4.3-4.3c.4 1 .5 1.8.1 2.3l-2.1 2.1c-.5.4-1.4.3-2.3-.1" fill="#269"/><path d="M32.6 32.3c-.2-.2-1.1.4-2.1 1.4s-1.6 2-1.4 2.1c.2.2 1.1-.4 2-1.4 1-1 1.7-2 1.5-2.1" fill="#be1931"/><path d="M35.8 29c-.2-.2-1.1.5-2.1 1.4-1 1-1.6 2-1.4 2.2.2.2 1.1-.5 2.1-1.4 1-1 1.6-2 1.4-2.2" fill="#be1931"/><path d="M24.5 25.9l1.4-1.4c.6-.6 1.1-1 1.3-1.7a2.4 2.4 0 0 1 0 3.4l-1 1a2.4 2.4 0 0 1-3.4 0c.6-.2 1.1-.7 1.7-1.3" fill="#66757f"/><path d="M21.8 29.6a.9.9 0 0 0-1.2 0l-.2.2a.9.9 0 0 0 0 1.2l1.6 1.6a.9.9 0 0 0 1.2 0l.2-.2a.9.9 0 0 0 0-1.2l-1.6-1.6zm9.2-9.2a.8.8 0 0 0-1.2 0l-.2.2a.8.8 0 0 0 0 1.2l1.6 1.7a.8.8 0 0 0 1.2 0l.3-.3a.8.8 0 0 0 0-1.2L31 20.4z" fill="#292f33"/><path d="M3.9 8.8l-.7.7L1.7 11a1 1 0 0 1-1.4 0 1 1 0 0 1 0-1.4l1.4-1.4.8-.7.7-.7.7.7.7.7-.7.7zm7-7L9.5 3.1l-.7.7-.7.7-1.4-1.4.7-.7.7-.7L9.5.3A1 1 0 1 1 11 1.7" fill="#ea596e"/><path d="M7.1 6.5a18 18 0 0 0-4-3.4c-.1.2 1.4 2 3.4 4s3.9 3.6 4 3.4c.2-.1-1.3-2-3.4-4m28 6.3L12.8 35.2a2 2 0 0 1-2.8 0l-2.6-3 8.3-10.7 5.9-5.8 10.6-8.2 3 2.5a2 2 0 0 1 0 2.8" fill="#be1931"/><path d="M16.5 25.5l-8 8-1-1.3 6.8-8.9 2.2 2.2zm17-17L25 17l-2.3-2.2 9.5-7.3 1.3 1z" fill="#ea596e"/></g></svg>