<svg xmlns="http://www.w3.org/2000/svg" viewBox="0 0 45 45"><defs><clipPath id="a"><path d="M0 36h36V0H0v36z"/></clipPath></defs><path d="M36.3 42.5H8.8V31.2h27.4v11.3zm0-13.8H8.8V17.6h27.4v11.3zm0-12.4H8.8V3.7h27.4v12.6z" fill="#3b88c3"/><g clip-path="url(#a)" transform="matrix(1.25 0 0 -1.25 0 45)"><path d="M30 32.8a.8.8 0 0 0-.8-.8H6.8a.8.8 0 0 0-.8.8v.4c0 .4.4.8.8.8h22.4a.8.8 0 0 0 .8-.8v-.4zm0-11a.8.8 0 0 0-.8-.8H6.8a.8.8 0 0 0-.8.8v.4c0 .4.4.8.8.8h22.4a.8.8 0 0 0 .8-.8v-.4zm0-10a.8.8 0 0 0-.8-.8H6.8a.8.8 0 0 0-.8.8v.4c0 .4.4.8.8.8h22.4a.8.8 0 0 0 .8-.8v-.4zm0-11a.8.8 0 0 0-.8-.8H6.8a.8.8 0 0 0-.8.8v.4c0 .4.4.8.8.8h22.4a.8.8 0 0 0 .8-.8V.8z" fill="#269"/><path d="M26 34.9a.9.9 0 0 0-.9-.9H23a.9.9 0 0 0-.9.9v.2c0 .5.4.9.9.9h2a.9.9 0 0 0 .9-.9V35z" fill="#99aab5"/></g></svg>