<svg xmlns="http://www.w3.org/2000/svg" viewBox="0 0 45 45"><defs><clipPath id="a"><path d="M0 36h36V0H0v36z"/></clipPath></defs><g clip-path="url(#a)" transform="matrix(1.25 0 0 -1.25 0 45)"><path d="M32.831 15.575c-.689-3.24-9.21-6.22-17.314-4.499C7.414 12.8.841 18.987 1.53 22.228c.69 3.241 8.587 3.287 16.69 1.564 8.103-1.722 15.3-4.976 14.611-8.217" fill="#ffd983"/><path d="M27 0l-2 14-17 5L0 0h27z" fill="#ffd983"/><path d="M34.11 16.78c-.869-4.082-9.017-5.808-18.2-3.856C6.726 14.876-.016 19.767.852 23.849c.868 4.082 9.016 5.808 18.2 3.856S34.977 20.862 34.11 16.78" fill="#67757f"/><path d="M.414 25.023l.414-2.315 32.866-6.986 1.412 2.126L.414 25.023z" fill="#67757f"/><path d="M35.619 19.072c-.919-4.322-9.546-6.15-19.27-4.083S-.513 22.235.406 26.557c.918 4.322 9.546 6.149 19.27 4.083 9.724-2.067 16.862-7.246 15.943-11.568" fill="#9aaab4"/><path d="M33.1 21.652c-.689-3.241-7.816-4.473-15.92-2.75-8.103 1.722-14.113 5.746-13.424 8.987.69 3.242 7.816 4.473 15.92 2.75 8.102-1.722 14.113-5.746 13.424-8.987" fill="#ccd6dd"/><path d="M10.04 28.598c.345 1.621 4.566 2.097 9.428 1.063 4.862-1.033 8.524-3.185 8.18-4.805-.345-1.62-4.565-2.097-9.427-1.064-4.862 1.034-8.524 3.185-8.18 4.806" fill="#e1e8ed"/><path d="M10.04 28.598c.345 1.621 2.997 4.475 9.844 3.02 6.847-1.456 8.108-5.142 7.764-6.762-.345-1.62-4.565-2.097-9.427-1.064-4.862 1.034-8.524 3.185-8.18 4.806" fill="#5dadec"/><path d="M15.787 17.153a1 1 0 1 0 1.956-.416 1 1 0 0 0-1.956.416M23.82 16.468a1 1 0 1 0 1.956-.416 1 1 0 0 0-1.956.416M31.29 17.947a1 1 0 1 0 1.957-.416 1 1 0 0 0-1.956.416M33.407 22.565c.174.214.663.105 1.091-.244.428-.35.634-.806.46-1.02-.175-.214-.664-.104-1.092.245-.428.349-.633.805-.459 1.019M3.767 28.865c-.072.267-.563.365-1.096.221-.533-.145-.906-.478-.834-.745.072-.266.563-.365 1.096-.22.533.144.906.478.834.744M1.946 24.184a1 1 0 1 0 1.956-.416 1 1 0 0 0-1.956.416M8.17 19.795a1 1 0 1 0 1.956-.417 1 1 0 0 0-1.957.417M14.681 31.19c.172.81 2.502 1.002 5.203.428 2.701-.574 4.751-1.697 4.578-2.507-.172-.81-2.501-1.002-5.202-.428-2.701.574-4.751 1.697-4.579 2.507" fill="#8ccaf7"/></g></svg>