<svg xmlns="http://www.w3.org/2000/svg" viewBox="0 0 45 45"><defs><clipPath id="a"><path d="M0 36h36V0H0v36z"/></clipPath></defs><g clip-path="url(#a)" transform="matrix(1.25 0 0 -1.25 0 45)"><path d="M32 12h-1c-.6 0-1 .5-1 1s.5 1 1 1h1c.6 0 1-.5 1-1s-.5-1-1-1" fill="#f4900c"/><path d="M10 4.5a4.5 4.5 0 1 0-9 0 4.5 4.5 0 0 0 9 0m24 0a4.5 4.5 0 1 0-9 0 4.5 4.5 0 0 0 9 0" fill="#292f33"/><path d="M8 4.5a2.5 2.5 0 1 0-5 0 2.5 2.5 0 0 0 5 0m24 0a2.5 2.5 0 1 0-5 0 2.5 2.5 0 0 0 5 0" fill="#99aab5"/><path d="M5.8 12l2.7 7-.5 1s-1 0-1 1 2.4 3 3 3c.6 0 0-2 0-2s2.3-.6 2-2l-2.4-8.7s1.8-.9 2.4-2.3c.5-1 1.7-1 3-1s4.4 0 5 2l1 3-1 1 10 2s-.9-2 1-3c2.2-1.2 2.9-2.7 4-5 .8-1.5.5-1.9-1-2l-5.8-.5C27 5.3 26 3.8 24 3.8s-10 0-12 .2c-3.5.4-4.8 3-10 3-2 0-1 1.6 0 2.7a9.7 9.7 0 0 0 3.8 2.2" fill="#dd2e44"/><path d="M22 3h-3c-1.1 0-2 .9-2 2s.9 2 2 2h3c1.1 0 2-.9 2-2s-.9-2-2-2" fill="#be1931"/><path d="M19 3h-5c-.6 0-1 .5-1 1s.5 1 1 1h5c.6 0 1-.5 1-1s-.5-1-1-1" fill="#be1931"/><path d="M22 14c-1.6 0-2.4-.3-3 1s0 2 1 2 5.7.2 8 1 3 .8 3 0-1-2-1-2-1.3-2-8-2m-8 6h-3.3c-.5 0-1 .5-1 1s.5 1 1 1H14c.6 0 1-.5 1-1s-.5-1-1-1" fill="#292f33"/><path d="M7.5 20a.5.5 0 0 0-.5.5v1c0 .3.2.5.5.5s.5-.2.5-.5v-1a.5.5 0 0 0-.5-.5" fill="#f4900c"/><path d="M13 23a1 1 0 0 0-1 1v2a1 1 0 0 0 1 1 1 1 0 0 0 1-1v-2a1 1 0 0 0-1-1" fill="#292f33"/><path d="M10 21a.5.5 0 0 0 0 .6l2.8 2.9a.5.5 0 0 0 .7 0 .5.5 0 0 0 0-.7l-2.8-2.9a.5.5 0 0 0-.7 0" fill="#292f33"/></g></svg>