<svg xmlns="http://www.w3.org/2000/svg" viewBox="0 0 45 45"><defs><clipPath id="a"><path d="M0 36h36V0H0v36z"/></clipPath></defs><g clip-path="url(#a)" transform="matrix(1.25 0 0 -1.25 0 45)"><path d="M36 22.938V4s0-4-4-4H4C0 0 0 4 0 4v4.937s17 10 36 14" fill="#e1e8ed"/><path d="M26.004 20.477c-1.34-.693-17.35-9.168-19.132-10.044-2.822-1.388-5.22-.05-6.416 1.77-.616.936-.406 1.217 0 1.311.406.094 1.424.277 1.688-.25.437-.875 2.531-2.03 3.625-1.53 1.093.5 17.937 9.53 18.562 9.811.625.282.906.282 1.375 0 .47-.28 1.315-.543.298-1.068" fill="#9d0522"/><path d="M11.143 6.736a.496.496 0 0 0-.238.061l-9.301 5.06a.5.5 0 0 0 .477.878l9.3-5.06a.5.5 0 0 0-.238-.939" fill="#e75a70"/><path d="M35.452 15.393C34.11 14.7 18.102 6.225 16.32 5.35c-2.822-1.388-5.22-.05-6.416 1.77-.616.936-.406 1.217 0 1.311.406.094 1.424.277 1.688-.25.437-.875 2.53-2.03 3.625-1.53 1.093.5 17.937 9.53 18.562 9.811.625.282.906.282 1.375 0 .469-.28 1.315-.543.298-1.068" fill="#9d0522"/><path d="M19.167 7.73a.502.502 0 0 0-.469.674l2.479 6.665a.5.5 0 0 0 .845.154l3.334-3.833a.5.5 0 1 0-.753-.656l-2.783 3.198-2.184-5.877a.5.5 0 0 0-.469-.326M9.878 12.638a.5.5 0 0 0-.469.674l2.479 6.666a.501.501 0 0 0 .846.154l3.334-3.833a.5.5 0 0 0-.755-.656l-2.781 3.198-2.185-5.877a.5.5 0 0 0-.47-.326M28.483 12.638a.5.5 0 0 0-.469.674l2.48 6.666a.5.5 0 0 0 .845.154l3.333-3.833a.5.5 0 1 0-.753-.656l-2.782 3.198-2.185-5.877a.5.5 0 0 0-.469-.326" fill="#9d0522"/><path d="M23.921 25.22c1.076.559 1.113.629 2.25.025 1.135-.605 6.568-3.484 7.21-3.826.814-.433 1.111-.591-.45-1.421-1.696-.901-12.305-6.511-12.93-6.822-.767-.381-1.313-.328-2.208.112-.718.352-6.548 3.463-7.275 3.875-.82.465-.483.706.768 1.37 1.251.665 12.635 6.688 12.635 6.688" fill="#c1694f"/><path d="M11.501 17.597h-1.416v1.329h1.416v-1.329zM34.048 20.811h-1.125v1.422h1.125v-1.422z" fill="#c1694f"/><path d="M23.921 26.565c1.076.558 1.113.628 2.25.024 1.135-.605 6.568-3.484 7.21-3.826.814-.433 1.111-.59-.45-1.42-1.696-.902-12.305-6.512-12.93-6.823-.767-.38-1.313-.328-2.208.112-.718.352-6.548 3.462-7.275 3.875-.82.465-.483.706.768 1.37 1.251.665 12.635 6.688 12.635 6.688" fill="#d99e82"/><path d="M12.532 18.625a.5.5 0 0 0-.235.941L24.61 26.11a.498.498 0 1 0 .468-.882l-12.312-6.544a.495.495 0 0 0-.234-.059M19.246 15.175a.498.498 0 0 0-.44.266.497.497 0 0 0 .206.675l12.312 6.545a.5.5 0 1 0 .47-.883L19.48 15.234a.49.49 0 0 0-.234-.06M17.075 16.308a.5.5 0 0 0-.235.94l12.313 6.546a.5.5 0 1 0 .47-.883l-12.314-6.544a.495.495 0 0 0-.234-.06M14.84 17.44a.5.5 0 0 0-.235.941l12.313 6.544a.498.498 0 1 0 .468-.882L15.074 17.5a.495.495 0 0 0-.234-.059" fill="#bf6952"/></g></svg>