<svg xmlns="http://www.w3.org/2000/svg" viewBox="0 0 45 45"><defs><clipPath id="a"><path d="M0 36h36V0H0v36z"/></clipPath></defs><g clip-path="url(#a)" transform="matrix(1.25 0 0 -1.25 0 45)"><path d="M36 23V4s0-4-4-4H4C0 0 0 4 0 4v5s17 10 36 14" fill="#e1e8ed"/><path d="M26 20.5l-19.1-10a4.8 4.8 0 0 0-6.4 1.7c-.7 1-.5 1.2 0 1.3.4.1 1.4.3 1.6-.2.5-1 2.6-2 3.7-1.6l18.5 9.8c.7.3 1 .3 1.4 0 .5-.2 1.3-.5.3-1" fill="#9d0522"/><path d="M11.1 6.7a.5.5 0 0 0-.2.1l-9.3 5a.5.5 0 0 0 .5 1l9.3-5.1a.5.5 0 0 0-.3-1" fill="#e75a70"/><path d="M35.5 15.4l-19.2-10A4.7 4.7 0 0 0 10 7c-.6 1-.4 1.2 0 1.3.4.1 1.4.3 1.7-.2.4-.9 2.5-2 3.6-1.5 1.1.4 18 9.5 18.6 9.8.6.2.9.2 1.4 0 .4-.3 1.3-.6.2-1.1" fill="#9d0522"/><path d="M19.2 7.7a.5.5 0 0 0-.5.7l2.5 6.7a.5.5 0 0 0 .8.1l3.4-3.8a.5.5 0 1 0-.8-.7L21.8 14l-2.2-6a.5.5 0 0 0-.4-.3m-9.3 5a.5.5 0 0 0-.5.6L12 20a.5.5 0 0 0 .8.1l3.4-3.8a.5.5 0 0 0-.8-.7l-2.8 3.2-2.1-5.8a.5.5 0 0 0-.5-.4m18.6 0a.5.5 0 0 0-.5.7l2.5 6.7a.5.5 0 0 0 .8.1l3.4-3.8a.5.5 0 1 0-.8-.7l-2.8 3.2L29 13a.5.5 0 0 0-.5-.4" fill="#9d0522"/><path d="M24 25.2c1 .6 1 .6 2.2 0l7.2-3.8c.8-.4 1-.6-.5-1.4L20 13.2c-.8-.4-1.3-.3-2.2 0l-7.3 4c-.8.4-.5.7.8 1.3l12.6 6.7" fill="#c1694f"/><path d="M11.5 17.6h-1.4v1.3h1.4v-1.3zm22.6 3.2h-1.2v1.4H34v-1.4z" fill="#c1694f"/><path d="M24 26.6c1 .5 1 .6 2.2 0l7.2-3.8c.8-.5 1-.6-.5-1.5L20 14.5c-.8-.4-1.3-.3-2.2.1-.7.4-6.6 3.5-7.3 4-.8.4-.5.6.8 1.3l12.6 6.7" fill="#d99e82"/><path d="M12.5 18.6a.5.5 0 0 0-.2 1L24.6 26a.5.5 0 1 0 .5-.9l-12.3-6.5a.5.5 0 0 0-.3 0m6.7-3.5a.5.5 0 0 0-.4.2.5.5 0 0 0 .2.7l12.3 6.6a.5.5 0 1 0 .5-1l-12.3-6.5a.5.5 0 0 0-.3 0m-2.1 1.1a.5.5 0 0 0-.3 1l12.3 6.5a.5.5 0 1 0 .5-.9l-12.3-6.5a.5.5 0 0 0-.2-.1m-2.3 1.1a.5.5 0 0 0-.2 1l12.3 6.5a.5.5 0 1 0 .5-.9L15 17.5a.5.5 0 0 0-.3 0" fill="#bf6952"/></g></svg>