<svg xmlns="http://www.w3.org/2000/svg" viewBox="0 0 45 45"><defs><clipPath id="a"><path d="M0 36h36V0H0v36z"/></clipPath></defs><g clip-path="url(#a)" transform="matrix(1.25 0 0 -1.25 0 45)"><path d="M32.8 15.6c-.7-3.3-9.2-6.2-17.3-4.5-8 1.7-14.7 7.9-14 11.1.7 3.3 8.6 3.3 16.7 1.6 8.1-1.7 15.3-5 14.6-8.2" fill="#ffd983"/><path d="M27 0l-2 14-17 5L0 0h27z" fill="#ffd983"/><path d="M34.1 16.8c-.9-4.1-9-5.8-18.2-3.9-9.2 2-16 6.9-15 11 .8 4 9 5.8 18.1 3.8s16-6.8 15.1-11" fill="#67757f"/><path d="M.4 25l.4-2.3 32.9-7L35 18 .4 25z" fill="#67757f"/><path d="M35.6 19c-.9-4.3-9.5-6-19.3-4S-.5 22.2.4 26.6c1 4.3 9.5 6.1 19.3 4 9.7-2 16.8-7.2 16-11.5" fill="#9aaab4"/><path d="M33.1 21.6c-.7-3.2-7.8-4.4-16-2.7-8 1.7-14 5.8-13.3 9 .6 3.2 7.8 4.5 15.9 2.7 8-1.7 14-5.7 13.4-9" fill="#ccd6dd"/><path d="M10 28.6c.4 1.6 4.6 2.1 9.5 1 4.8-1 8.5-3.1 8.1-4.7-.3-1.7-4.5-2.1-9.4-1.1-4.8 1-8.5 3.2-8.2 4.8" fill="#e1e8ed"/><path d="M10 28.6c.4 1.6 3 4.5 9.9 3 6.8-1.4 8-5.1 7.8-6.7-.4-1.7-4.6-2.1-9.5-1.1-4.8 1-8.5 3.2-8.2 4.8" fill="#5dadec"/><path d="M15.8 17.1a1 1 0 1 0 2-.4 1 1 0 0 0-2 .4m8-.6a1 1 0 1 0 2-.5 1 1 0 0 0-2 .5m7.5 1.4a1 1 0 1 0 2-.4 1 1 0 0 0-2 .4m2.1 4.7c.2.2.7 0 1.1-.3.4-.3.6-.8.5-1-.2-.2-.7-.1-1.1.3-.5.3-.7.7-.5 1M3.8 28.9c-.1.2-.6.3-1.1.2-.6-.2-1-.5-.9-.8.1-.2.6-.3 1.1-.2.6.2 1 .5.9.8m-1.9-4.7a1 1 0 1 0 2-.4 1 1 0 0 0-2 .4m6.3-4.4a1 1 0 1 0 2-.4 1 1 0 0 0-2 .4m6.5 11.4c.1.8 2.5 1 5.2.4s4.7-1.7 4.6-2.5c-.2-.8-2.5-1-5.2-.4s-4.8 1.7-4.6 2.5" fill="#8ccaf7"/></g></svg>