<svg xmlns="http://www.w3.org/2000/svg" viewBox="0 0 45 45"><defs><clipPath id="a"><path d="M0 36h36V0H0v36z"/></clipPath><clipPath id="b"><path d="M9.5 13a2.5 2.5 0 1 1 0-5h17a2.5 2.5 0 1 1 0 5h-17z"/></clipPath></defs><g clip-path="url(#a)" transform="matrix(1.25 0 0 -1.25 0 45)"><path d="M36 21.5c0-2-1.1-3.5-2.5-3.5S31 19.6 31 21.5s1.1 3.5 2.5 3.5 2.5-1.6 2.5-3.5m-31 0c0-2-1.1-3.5-2.5-3.5S0 19.6 0 21.5 1.1 25 2.5 25 5 23.4 5 21.5" fill="#f4900c"/><path d="M34 17a1 1 0 0 0-1-1h-3a1 1 0 0 0-1 1v9a1 1 0 0 0 1 1h3a1 1 0 0 0 1-1v-9zM7 17a1 1 0 0 0-1-1H3a1 1 0 0 0-1 1v9a1 1 0 0 0 1 1h3a1 1 0 0 0 1-1v-9z" fill="#ffac33"/><path d="M28 31c0-2.8-4.5-4-10-4S8 28.2 8 31s4.5 5 10 5 10-2.2 10-5" fill="#ffcc4d"/><path d="M25 32c0-1.7-3.1-3-7-3s-7 1.3-7 3c0 1.5 3.1 2.8 7 2.8s7-1.3 7-2.9" fill="#f4900c"/><path d="M30 30.5c0-1.4-1.1-1.5-2.5-1.5h-19c-1.4 0-2.5.1-2.5 1.5A2.5 2.5 0 0 0 8.5 33h19a2.5 2.5 0 0 0 2.5-2.5" fill="#269"/><path d="M32 6a2 2 0 0 0-2-2H6a2 2 0 0 0-2 2v22a2 2 0 0 0 2 2h24a2 2 0 0 0 2-2V6z" fill="#55acee"/><path d="M35 3c0-1.1.1-2-1-2H2C.9 1 1 1.9 1 3v1a2 2 0 0 0 2 2h30a2 2 0 0 0 2-2V3z" fill="#3b88c3"/><path d="M18.7 2.6a1 1 0 0 0-1.4 0l-5.7 5.7a1 1 0 0 0 0 1.4l5.7 4.7a1 1 0 0 0 1.4 0l5.7-4.7a1 1 0 0 0 0-1.4l-5.7-5.7z" fill="#55acee"/><path d="M16 21.5a4.5 4.5 0 1 0-9 0 4.5 4.5 0 0 0 9 0m13 0a4.5 4.5 0 1 0-9 0 4.5 4.5 0 0 0 9 0" fill="#fff"/><path d="M26 19a1 1 0 0 0-1-1h-1a1 1 0 0 0-1 1v5a1 1 0 0 0 1 1h1a1 1 0 0 0 1-1v-5zm-13 0a1 1 0 0 0-1-1h-1a1 1 0 0 0-1 1v5a1 1 0 0 0 1 1h1a1 1 0 0 0 1-1v-5z" fill="#dd2e44"/><path d="M29 10.5A2.5 2.5 0 0 0 26.5 8h-17a2.5 2.5 0 1 0 0 5h17a2.5 2.5 0 0 0 2.5-2.5" fill="#f5f8fa"/><path d="M19 8h-2v5h2V8zm-5 0h-2v5h2V8zm10 0h-2v5h2V8z" fill="#ccd6dd"/></g><g clip-path="url(#b)" fill="#ccd6dd" transform="matrix(1.25 0 0 -1.25 0 45)"><path d="M9 8H7v5h2V8zm20 0h-2v5h2V8z"/></g></svg>