<svg xmlns="http://www.w3.org/2000/svg" viewBox="0 0 45 45"><defs><clipPath id="a"><path d="M0 36h36V0H0v36z"/></clipPath></defs><g clip-path="url(#a)" transform="matrix(1.25 0 0 -1.25 0 45)"><path d="M25 18.9h-8c-1.1 0-1.9-.8-1.9-1.9s.8-1.9 1.9-1.9h5.3s.8.1.8-.6c0-.3-.3-.6-.6-.6 0 0-4.5.2-4.9-6.9 0-.3-.3-.6-.6-.6s-.6.3-.6.6c0 3 1.4 6 2.8 6.8H17c-1 0-1.4.4-1.4.4-.2-.2-.6-1.3-2.7-1.3-2.4 0-3 2.4-3 3v5l.1.1a2 2 0 0 0 1.2 1.8l-.1-6.6c0-1.1.8-2.1 1.9-2.1.8 0 1.3.3 1.6 1a2.7 2.7 0 0 0-.7 1.8 3 3 0 0 0 1 2.4V22h.1a2 2 0 0 0 1.2 1.8V21l-.1-1 1 .1h2.8v3l.1-.1v9a2 2 0 0 0 1.2 1.8V20.2h3.6l.2-.2c1 0 1.7-2 1.7-2-.2.4-.7.9-1.7.9" fill="#ef9645"/><path d="M15 19.2a3 3 0 0 1-1-2.2c0-.8.3-1.4.7-2a2 2 0 0 0-1.7-1 2 2 0 0 0-2 2v6c0 .3 0 .6.2.8A2 2 0 0 0 15 22v-2.8z" fill="#ffdc5d"/><path d="M6 30a2 2 0 0 0 4 0V16c0-.7.2-1.3.6-1.8l.4-.4.1-.1a3 3 0 0 1 .6-.4l.4-.2h.2a3 3 0 0 1 1.4 0h.2l.4.2.2.1a3 3 0 0 1 1 1c.2-.1.5-.4 1.5-.4h2.5c-1.8-1.4-3-4-3-7a.5.5 0 0 1 1 0c0 3.9 2.2 7 4.9 7h.1a.5.5 0 0 1 0 1H17a2 2 0 0 0 0 4h8a2 2 0 0 0 1.7-1l.2-.4L28 14c.1-.3.5-1.9.4-2.2C28.4 7 23.7 2 18 2A12 12 0 0 0 6 14v16" fill="#ffdc5d"/><path d="M20 20h-3a3 3 0 0 1-1-.2V23c0 .3 0 .6.2.8A2 2 0 0 0 20 23v-3zm1 0v13c0 .3 0 .6.2.8A2 2 0 0 0 25 33V20h-4z" fill="#ffdc5d"/></g></svg>