<svg xmlns="http://www.w3.org/2000/svg" viewBox="0 0 45 45"><defs><clipPath id="a"><path d="M0 36h36V0H0v36z"/></clipPath></defs><g clip-path="url(#a)" transform="matrix(1.25 0 0 -1.25 0 45)"><path d="M34 20a16 16 0 1 0-32 0 16 16 0 0 0 32 0" fill="#ffcc4d"/><path d="M25.9 19.9a.4.4 0 0 1-.6 0S22 17 18 17s-7.3 2.9-7.3 2.9a.4.4 0 0 1-.6 0 .6.6 0 0 1 0-.7C10 19 12.8 14 18 14s7.8 5 8 5.2a.6.6 0 0 1-.1.7" fill="#664500"/><path d="M13.4 12.8l-1.6 2.3s-.5.8-1.4.3c-.8-.5-.3-1.4-.3-1.4l1.8-3.4s.1-.8-1 .1c-.4.4-.1.2-.1.2l-.5.3-5.5 4.5s-.7.8-1.3 0c-.7-.8.2-1.4.2-1.4l5.2-4.2-.6-.7L2.7 14s-.7.7-1.3 0c-.7-.9.2-1.4.2-1.4L7.2 8l-.5-.6-4.8 4s-.7.7-1.4-.1C0 10.5.8 10 .8 10l5-4.2-.3-.8-3.7 3S1 8.7.4 8c-.6-.9.2-1.4.2-1.4l6-4.9.4-.3a6.1 6.1 0 0 1 8.4 9 23 23 0 0 0-2 2.4M35.6 8c-.7.8-1.4 0-1.4 0l-3.6-3-.4.9 5 4.2s1 .5.3 1.3-1.4 0-1.4 0l-4.8-3.9-.5.6 5.6 4.6s.9.5.2 1.3-1.3 0-1.3 0l-5.6-4.5-.6.7 5.2 4.2s.9.6.2 1.4c-.6.8-1.3 0-1.3 0l-5.5-4.5-.5-.4-.2-.1c-1.2-1-.9-.1-.9-.1L26 14s.5.8-.3 1.4c-1 .5-1.4-.4-1.4-.4l-1.6-2.2a22.9 22.9 0 0 0-2-2.5 6.1 6.1 0 0 1 8.4-9l.4.4 6 4.9s.8.5.2 1.3" fill="#f4900c"/><path d="M27.7 25c0 .1-1.3 3-3.8 3S20 25.1 20 25a.5.5 0 0 1 .2-.5.4.4 0 0 1 .5 0s1 .8 3.2.8c2 0 3.1-.8 3.1-.8a.4.4 0 0 1 .6 0 .5.5 0 0 1 0 .5m-11 0c0 .1-1.2 3-3.7 3S9 25.1 9 25a.5.5 0 0 1 .2-.5.4.4 0 0 1 .5 0s1 .8 3.2.8a5.5 5.5 0 0 0 3.1-.8.4.4 0 0 1 .5 0 .5.5 0 0 1 .2.5" fill="#664500"/><path d="M11.2 10.5s-2.6-3.3.5-7.4c.2-.3.7-.2.5.1-.3.4-2.8 4-.4 7.1 0 0-.4 0-.6.2m13.6 0S27.4 7 24.3 3c-.2-.3-.8-.2-.5.2.2.3 2.7 3.9.4 7l.6.2" fill="#b55005"/></g></svg>