<svg xmlns="http://www.w3.org/2000/svg" viewBox="0 0 45 45"><defs><clipPath id="a"><path d="M0 36h36V0H0v36z"/></clipPath></defs><g clip-path="url(#a)" transform="matrix(1.25 0 0 -1.25 0 45)"><path d="M1 19a17 17 0 1 1 34 0 17 17 0 0 1-34 0" fill="#ffcb4c"/><path d="M14.5 15a1 1 0 0 0-.3.4.8.8 0 0 0 .6 1 9.5 9.5 0 0 0 7.7-1.4c.4-.3.5-.9.2-1.2-.3-.4-.8-.4-1.2-.1a7.6 7.6 0 0 1-6.2 1 1 1 0 0 0-.8.3m.7 9.8c0-1.4-1-2.6-2-2.6S11 23.4 11 24.8c0 1.5 1 2.7 2.1 2.7s2.1-1.2 2.1-2.7m11.3-1c0-1.5-1-2.7-2.1-2.7-1.2 0-2.1 1.2-2.1 2.7 0 1.4.9 2.6 2 2.6 1.2 0 2.2-1.2 2.2-2.6" fill="#65471b"/><path d="M17.3.8s1.2.5 1.4 1.4c.2 1-.6 1.2-.6 1.2s1 .2 1.2 1.4c0 1-1 1.3-1 1.3s1 .4 1.1 1.6c0 1-1 1.4-1 1.4l5.6 1.3c.5.1 1.3.6 1 1.7-.2 1-1.2 1.1-1.7 1l-8.9-2-1.4-.4c-.5-.1-.8.1-.4.5.5.6.8 1.1 1 2.1a6.7 6.7 0 0 1-.5 2.8c-.4 1-1 1.7-1.7 2-1.2.3-2-.4-1.6-1.6.6-1.9.2-3.4-.8-4.3-2.5-2.2-3.6-3.7-2.8-7a6.7 6.7 0 0 1 8-5l3 .6" fill="#f19020"/><path d="M9.3 29.6a1 1 0 0 0-.4.4.8.8 0 0 0 .4 1.2 9.5 9.5 0 0 0 7.8 0c.5-.3.6-.8.4-1.2-.2-.4-.7-.6-1.1-.4a7.7 7.7 0 0 1-6.3 0 1 1 0 0 0-.8 0M21.4 26a1 1 0 0 0-.3.4.8.8 0 0 0 .4 1.1 9.5 9.5 0 0 0 7.9-.6c.4-.2.5-.8.3-1.1a1 1 0 0 0-1.2-.3 7.7 7.7 0 0 1-6.3.4 1 1 0 0 0-.8.1" fill="#65471b"/></g></svg>