<svg xmlns="http://www.w3.org/2000/svg" viewBox="0 0 45 45"><defs><clipPath id="a"><path d="M0 36h36V0H0v36z"/></clipPath><clipPath id="b"><path d="M15.2 28.2a11.2 11.2 0 0 1 4.3-4.2c.8-.4 0-1-1.7-2.1-1.2-.8-5.7-3-9.1-6.4-1.5-1.5.5-3.3 1.5-2.4 2.8 2.7 6 4.5 6 4.5l.2-.6c-2-1.1-5.4-3.9-7-5.5-1.4-1.2.3-3.3 1.4-2.3a80 80 0 0 0 6.8 5l.4-.5a56.6 56.6 0 0 1-6.2-4.8c-1.4-1.2.3-3.2 1.6-2.1 1.8 1.6 6.2 4.6 6.2 4.6l.4-.4a37.5 37.5 0 0 1-5-3.9c-1.3-1.2.5-2.5 1.3-1.9 1.1 1 3.9 3.4 7.3 4.8 5.2 2.3 7.2 4.4 7.6 5.2.9 1.4 2.2 2 3.1 2.5 1 .4 1.2 1.7.7 2.5l-3 6c-.4.8-1.1 1.4-2 1 0 0-1-1-2.1-1-2 0-2.5 1-5.3 1-2 0-4.2 2-5.2 3.1-.5.5-1 .7-1.4.7-1 0-1.5-1.3-.8-2.8"/></clipPath><clipPath id="c"><path d="M0 36h36V0H0v36z"/></clipPath></defs><g clip-path="url(#a)" transform="matrix(1.25 0 0 -1.25 0 45)"><path d="M30 25c1 .4 1.7-.3 2.1-1.2l2.3-5.4c.4-.9-.7-.6-1.6-1l-2.6-1.2c-.8-.4-1.3-3.2-6.5-5.4-3.4-1.5-3.5-3.3-6.7-5.9-1.1-1-3 .4-1.7 1.6a37.6 37.6 0 0 0 5 4l-.4.3s-4.2-3-6-4.6c-1.3-1.2-3.4 1.2-2 2.4a35 35 0 0 0 6.4 4.4l-.4.6s-3.2-2.1-6.5-4.9c-1.3-1-3.5 1.3-2.1 2.5a52.9 52.9 0 0 0 7.4 5.2l-.2.6s-3.2-1.8-6-4.5c-1-1-3 .9-1.5 2.3 3.4 3.5 7.9 5.7 9.1 6.4 1.6 1 3.2 2.4 2.4 2.8-1.3.6-.5 1.3-2 2.1-2.2 1-2.8 3.2-1.2 3.2 1.1 0 1.7-2 4.3-2.1C24.4 27 26 23 27.9 24l2.1 1" fill="#ef9645"/><path d="M30 27.2c.9.4 1.6-.2 2-1l3-6c.5-.8.2-2-.7-2.5-.9-.5-2.2-1-3-2.5-.5-.8-2.5-3-7.7-5.2-3.4-1.4-6.2-3.9-7.3-4.8-.9-.7-2.6.7-1.3 1.9a37.5 37.5 0 0 0 5 4l-.4.3s-4.4-3-6.2-4.6c-1.3-1-3 1-1.6 2.1a57 57 0 0 0 6.2 4.8l-.4.5s-3.4-2.2-6.8-5c-1-1-2.8 1.2-1.5 2.4a50 50 0 0 0 7.1 5.5l-.2.6s-3.2-1.8-6-4.5c-1-1-3 .8-1.5 2.3 3.5 3.5 8 5.6 9.2 6.4 1.6 1 2.4 1.7 1.6 2.1-1.3.6-3.4 2.6-4.2 4.2-1.1 2.1.4 3.8 2 2.1 1.1-1 3.2-3.1 5.3-3.1 2.8 0 3.3-1 5.3-1 1 0 2 1 2 1" fill="#ffcc4d"/></g><g clip-path="url(#b)" transform="matrix(1.25 0 0 -1.25 0 45)"><path d="M19.7 23.7c.7-.7 1.6-1.6 2.7-2.1a7.6 7.6 0 0 1 2.7-.8c.3 0 .5-.6 0-.6a7.3 7.3 0 0 0-3 .8 9.4 9.4 0 0 0-2.8 2.4l.4.3z" fill="#ef9645"/></g><g clip-path="url(#c)" transform="matrix(1.25 0 0 -1.25 0 45)"><path d="M6.8 26.2c-.9.5-1.7 0-2.2-.9l-2.7-5.5c-.5-.8.7-.8 1.6-1.3.8-.6 2.1-2 3-2.4.7-.5 1-3.9 5.6-6.8 4.3-2.8 7-4 8-4.6 2-1 3.4 1.7 1.8 2.5-2.8 1.2-5.2 2.2-6.2 3l.2.4s3.3-2.1 7.4-3.8c1.5-.7 2.8 2.2 1.2 3-2.4 1-5.7 2.5-7 3.4l.3.4s4-2.6 8-4.4c1.4-.6 3 2.3 1.4 3-2.3 1.1-6 2.8-7.9 4.2l.4.5s3.4-2.7 6.5-4c1.3-.5 3.2 2 1.4 3a62.4 62.4 0 0 0-9.8 5.8c-.9.7-1.4 3.2-.5 3.4a16 16 0 0 1 5.3 3.1c1 1-.1 2-1 1-1-1-2-2.6-4.6-2.6-2.8 0-6.5-2.6-8.2-1.6l-2 1.2" fill="#ef9645"/><path d="M7 26.7a1.8 1.8 0 0 1-2.4-.6l-3.3-5.5c-.5-.8-.4-2 .5-2.6L5 16c.8-.4 4-4.4 8.7-7.2C18.3 6 20 5.5 21 5c1-.4 2.4 1.7.8 2.4a33.2 33.2 0 0 0-5.9 3.2l.4.6s2.8-2.1 7-3.9c1.5-.6 2.7 1.8 1.1 2.5a46.2 46.2 0 0 0-6.6 3.8l.3.6s4-2.5 7.8-4.3c1.5-.6 2.7 1.8 1 2.6a62.5 62.5 0 0 0-7.4 4.3l.4.5s3.6-2.6 6.7-3.9c1.3-.5 2.8 1.9.9 2.8a54.6 54.6 0 0 0-9.2 5.6c-1 .7-1.2 2.4 1 3.2 3.2 1 4.3 3.1 4.3 4.2 0 1.5-1.4 2.1-2.1 1-2.1-3.1-3.2-2-5.3-3.1-2.5-1.3-5.5-2.7-7.2-1.7l-2 1.2" fill="#ffdc5d"/><path d="M19 24.3l5.4 2.7a8.3 8.3 0 0 1-1.8.2c-2 0-4.2 2-5.3 3.1-1.6 1.7-3.1 0-2-2a11.7 11.7 0 0 1 3.6-4M14.7 5.7c.2-.5.8-.7 1.2-.6l-1.2.6zm-3.2 1.5c.3-.5.8-.8 1.4-.7l-1.4.7z" fill="#ffcc4d"/></g></svg>