<svg xmlns="http://www.w3.org/2000/svg" viewBox="0 0 45 45"><defs><clipPath id="a"><path d="M0 36h36V0H0v36z"/></clipPath></defs><g clip-path="url(#a)" transform="matrix(1.25 0 0 -1.25 0 45)"><path d="M25 18.875l-8-.021c-1.104 0-1.875-.75-1.875-1.854s.771-1.854 1.875-1.854l5.266-.021s.88.104.88-.625c0-.276-.37-.625-.646-.625 0 0-4.5.208-4.875-6.875-.015-.276-.349-.625-.625-.625s-.625.349-.625.625c0 3.01 1.396 5.938 2.867 6.824-.91 0-1.711.051-2.242.051-1 0-1.438.334-1.438.333-.146-.231-.562-1.27-2.687-1.27-2.375 0-3.021 2.362-3.021 3.02v5.021L10 21c0 .811.485 1.507 1.18 1.82l-.097-6.653c0-1.105.813-2.084 1.917-2.084.755 0 1.263.341 1.604.959-.458.526-.677 1.132-.677 1.885 0 .886.318 1.795.927 2.344l.042 2.708L15 22c0 .811.485 1.507 1.18 1.82L16.125 21l-.021-1.021c.315.111.564.146.917.146l2.875-.021v2.917L20 23v9c0 .811.485 1.507 1.18 1.82l-.034-13.66h3.646L25 20c.922 0 1.723-2 1.723-2l.002-.015c-.244.419-.757.89-1.725.89" fill="#ef9645"/><path d="M15 19.222A2.982 2.982 0 0 1 14 17c0-.753.287-1.432.745-1.96A1.994 1.994 0 0 0 13 14a2 2 0 0 0-2 2v6c0 .293.067.57.18.82A1.996 1.996 0 0 0 15 22v-2.778z" fill="#ffdc5d"/><path d="M6 30a2 2 0 0 0 4 0V16c0-.658.217-1.262.578-1.753.028-.037.061-.068.089-.102.104-.129.21-.255.332-.366l.1-.082a3.057 3.057 0 0 1 .578-.377c.139-.069.285-.125.435-.172.068-.02.131-.045.2-.061.222-.053.451-.087.688-.087.236 0 .461.036.681.089.076.017.148.042.222.066.137.044.269.099.396.161.082.04.163.077.24.124a3.077 3.077 0 0 1 .99.959l-.003.003C15.727 14.287 16 14 17 14h2.537c-1.808-1.365-3.037-3.99-3.037-7a.5.5 0 0 1 1 0c0 3.859 2.187 7 4.875 7h.125a.5.5 0 0 1 0 1H17a2 2 0 0 0 0 4h8c.968 0 1.481-.596 1.725-1.015.126-.216.185-.389.188-.4L28 14c.103-.335.479-1.871.411-2.191C28.411 7 23.715 2 18 2 11.463 2 6 7.25 6 14c.008-.007 0 16 0 16" fill="#ffdc5d"/><path d="M20 20h-3a2.97 2.97 0 0 1-1-.184V23c0 .293.067.569.18.82A1.996 1.996 0 0 0 20 23v-3zM21 20v13c0 .293.067.569.18.82A1.996 1.996 0 0 0 25 33V20h-4z" fill="#ffdc5d"/></g></svg>