<svg xmlns="http://www.w3.org/2000/svg" viewBox="0 0 45 45"><defs><clipPath id="a"><path d="M0 36h36V0H0v36z"/></clipPath></defs><g clip-path="url(#a)" transform="matrix(1.25 0 0 -1.25 0 45)"><path d="M36 18a18 18 0 1 0-36 0 18 18 0 0 0 36 0" fill="#ffcc4d"/><path d="M22.5 11H18c-5.6 0-7 1-7 1s1.3-3.6 6.2-4H22c.8 0 2 1.2 2 2s-.7 1-1.5 1m-6.7 7.1a.5.5 0 0 0-.6 0s-1.3.9-3.7.9-3.7-.9-3.7-.9a.5.5 0 0 0-.8.6c.1.1 1.5 3.3 4.5 3.3s4.4-3.2 4.5-3.3a.5.5 0 0 0-.2-.6m13 0a.5.5 0 0 0-.6 0s-1.3.9-3.7.9-3.7-.9-3.7-.9a.5.5 0 0 0-.8.6c.1.1 1.5 3.3 4.5 3.3s4.4-3.2 4.5-3.3a.5.5 0 0 0-.2-.6M13.1 30a1 1 0 0 0 0-2c-.2 0-3.6 0-6.4-3.4A1 1 0 1 0 5.1 26c3.5 4.2 7.8 4.1 8 4.1m9.4-1.7c.2 0 4.5.8 8.5-3a1 1 0 0 0 0-1.3 1 1 0 0 0-1.4 0c-3.2 3-6.6 2.4-6.7 2.4a1 1 0 0 0-1.2.8 1 1 0 0 0 .8 1.1" fill="#664500"/><path d="M23 10h-3a1 1 0 0 1-1-1V5c0-.6.5-1 1-1s1 .5 1 1V1.5c0-.8.7-1.5 1.5-1.5S24 .7 24 1.5V9a1 1 0 0 1-1 1" fill="#88c9f9"/></g></svg>