<svg xmlns="http://www.w3.org/2000/svg" viewBox="0 0 45 45"><defs><clipPath id="a"><path d="M0 36h36V0H0v36z"/></clipPath></defs><g clip-path="url(#a)" transform="matrix(1.25 0 0 -1.25 0 45)"><path d="M36 18a18 18 0 1 0-36 0 18 18 0 0 0 36 0" fill="#ffcc4d"/><path d="M14.5 19.5c0-1.5-1.1-2.8-2.5-2.8S9.5 18 9.5 19.6s1.1 2.8 2.5 2.8 2.5-1.3 2.5-2.8m12 0c0-2-1.1-3.5-2.5-3.5s-2.5 1.6-2.5 3.5S22.6 23 24 23s2.5-1.6 2.5-3.5m-19.4 4a1 1 0 0 1 .9-.2c4.2 1.4 7-.5 7.1-.6a1 1 0 0 1 1.4.2 1 1 0 0 1-.2 1.4c-.2.1-3.8 2.6-9 1a1 1 0 0 1-.2-1.9M25 10H11a1 1 0 1 0 0 2h14a1 1 0 1 0 0-2m5 15.6c-.4 0-.7.1-1 .5-1.4 1.7-4.3 3.3-5.3 3.3-.6 0-2-1-2.6-1.6a1.3 1.3 0 0 0-1.7 1.8c.4.4 2.4 2.3 4.3 2.3 2 0 5.6-2.1 7.3-4.3a1.3 1.3 0 0 0-1-2" fill="#664500"/></g></svg>