<svg xmlns="http://www.w3.org/2000/svg" viewBox="0 0 45 45"><defs><clipPath id="a"><path d="M0 36h36V0H0v36z"/></clipPath></defs><g clip-path="url(#a)" transform="matrix(1.25 0 0 -1.25 0 45)"><path d="M36 18c0-9.941-8.059-18-18-18S0 8.059 0 18s8.059 18 18 18 18-8.059 18-18" fill="#ffcc4d"/><path d="M14.5 19.5c0-1.519-1.119-2.75-2.5-2.75s-2.5 1.231-2.5 2.75c0 1.518 1.119 2.75 2.5 2.75s2.5-1.232 2.5-2.75M26.5 19.5c0-1.934-1.119-3.5-2.5-3.5s-2.5 1.566-2.5 3.5c0 1.933 1.119 3.5 2.5 3.5s2.5-1.567 2.5-3.5M7.102 23.441a.996.996 0 0 1 .885-.135c4.187 1.355 7.027-.554 7.146-.636a1.003 1.003 0 0 1 1.39.25.997.997 0 0 1-.242 1.388c-.15.106-3.736 2.575-8.909.901a1 1 0 0 1-.27-1.768M25 10H11a1 1 0 1 0 0 2h14a1 1 0 1 0 0-2M30.001 25.592c-.368 0-.731.16-.979.47-1.394 1.752-4.298 3.288-5.314 3.288-.642 0-1.925-.91-2.604-1.568a1.25 1.25 0 0 0-1.743 1.793c.391.38 2.436 2.275 4.347 2.275 2.005 0 5.538-2.055 7.27-4.23a1.252 1.252 0 0 0-.977-2.028" fill="#664500"/></g></svg>