<svg xmlns="http://www.w3.org/2000/svg" viewBox="0 0 45 45"><defs><clipPath id="a"><path d="M0 36h36V0H0v36z"/></clipPath></defs><g clip-path="url(#a)" transform="matrix(1.25 0 0 -1.25 0 45)"><path d="M30.727 30.728c7.03-7.029 7.03-18.427 0-25.457-7.029-7.028-18.425-7.028-25.456 0-7.029 7.03-7.029 18.428 0 25.457 7.03 7.029 18.427 7.029 25.456 0" fill="#ffcb4c"/><path d="M19.28 16.72c-3.495-3.493-6.22-5.403-9.646-7.713-.78-.53-1.928-1.93.001-3.86 3.857-3.856 13.111-4.245 19.288 1.93 6.176 6.177 5.788 15.43 1.928 19.288-1.928 1.93-3.329.782-3.857 0-2.309-3.424-4.22-6.15-7.715-9.645" fill="#65471b"/><path d="M11.564 7.077s3.858 1.93 9.645 7.716c5.786 5.785 7.715 9.643 7.715 9.643s1.928-5.787-4.822-12.538c-6.751-6.75-12.538-4.82-12.538-4.82" fill="#fff"/><path d="M24.299 29.345c-.142-.02-2.374-.357-4.943-1.628a1.524 1.524 0 0 1-.22.285 1.484 1.484 0 0 1-.935.427 13.815 13.815 0 0 0 1.998 2.756 1 1 0 0 1-1.416 1.413c-.156-.156-3.828-3.881-3.828-8.485a.999.999 0 0 1 1.707-.707c3.245 3.245 7.874 3.953 7.92 3.96a1.002 1.002 0 0 1 .847 1.133 1 1 0 0 1-1.13.846M11.712 20.87c-4.604 0-8.329-3.672-8.485-3.829a1 1 0 0 1 1.413-1.415 13.825 13.825 0 0 0 2.755 1.998c.03-.34.167-.675.428-.936.087-.087.183-.157.285-.218-1.27-2.57-1.609-4.803-1.629-4.944a1 1 0 0 1 1.98-.283c.007.046.698 4.658 3.96 7.92a1 1 0 0 1-.707 1.707" fill="#65471b"/><path d="M30.102 23.945a4.998 4.998 0 0 1 5.566 4.36 4.998 4.998 0 0 1-4.358 5.567c-2.741.334-10.41-2.762-10.53-3.755-.121-.992 6.58-5.838 9.322-6.172M12.157 6.001A5 5 0 0 0 7.797.434a4.999 4.999 0 0 0-5.568 4.358c-.333 2.741 2.763 10.41 3.756 10.531.992.12 5.838-6.581 6.172-9.322" fill="#64aadd"/></g></svg>