<svg xmlns="http://www.w3.org/2000/svg" viewBox="0 0 45 45"><defs><clipPath id="a"><path d="M0 36h36V0H0v36z"/></clipPath></defs><g clip-path="url(#a)" transform="matrix(1.25 0 0 -1.25 0 45)"><path d="M30.7 30.7A18 18 0 1 0 5.3 5.3a18 18 0 0 0 25.4 25.4" fill="#ffcb4c"/><path d="M19.3 16.7A57.4 57.4 0 0 0 9.6 9c-.7-.5-1.9-2 0-3.9C13.5 1.3 22.8 1 29 7.1c6.2 6.2 5.8 15.4 2 19.3-2 1.9-3.4.8-3.9 0a57.7 57.7 0 0 0-7.7-9.7" fill="#65471b"/><path d="M11.6 7s3.8 2 9.6 7.8 7.7 9.6 7.7 9.6 2-5.8-4.8-12.5c-6.8-6.8-12.5-4.8-12.5-4.8" fill="#fff"/><path d="M24.3 29.3c-.1 0-2.4-.3-5-1.6a1.5 1.5 0 0 1-.2.3 1.5 1.5 0 0 1-.9.4 13.8 13.8 0 0 0 2 2.8 1 1 0 0 1-1.4 1.4c-.2-.2-3.8-3.9-3.8-8.5a1 1 0 0 1 1.7-.7c3.2 3.3 7.8 4 7.9 4a1 1 0 0 1 .8 1.1 1 1 0 0 1-1.1.8M11.7 21c-4.6 0-8.3-3.7-8.5-3.8a1 1 0 0 1 1.4-1.5 13.8 13.8 0 0 0 2.8 2 1.5 1.5 0 0 1 .7-1.1 18 18 0 0 1-1.6-5 1 1 0 0 1 2-.3c0 .1.6 4.7 4 8a1 1 0 0 1-.8 1.7" fill="#65471b"/><path d="M30.1 24a5 5 0 0 1 5.6 4.3 5 5 0 0 1-4.4 5.6C28.6 34.2 21 31 20.8 30c-.1-1 6.6-5.8 9.3-6.2M12.1 6A5 5 0 0 0 7.9.4a5 5 0 0 0-5.6 4.4C2 7.5 5 15.2 6 15.3c1 .1 5.8-6.6 6.2-9.3" fill="#64aadd"/></g></svg>