<svg xmlns="http://www.w3.org/2000/svg" viewBox="0 0 45 45"><defs><clipPath id="a"><path d="M0 36h36V0H0v36z"/></clipPath></defs><path d="M32.5 33.8h-25V45h30V32.7h-5v1z" fill="#77b255"/><g clip-path="url(#a)" transform="matrix(1.25 0 0 -1.25 0 45)"><path d="M14 9s.8-2 3.5-2C20.4 7 21 9 21 9v3.9l-7 .1V9z" fill="#ffdc5d"/><path d="M14 11a4 4 0 0 1 3.5-1.5A4 4 0 0 1 21 11v3.5h-7V11z" fill="#f9ca55"/><path d="M11.8 19.8c0-1.3-.6-2.3-1.4-2.3-.8 0-1.4 1-1.4 2.3 0 1.3.6 2.3 1.4 2.3s1.4-1 1.4-2.3m14.3 0c0-1.3-.6-2.3-1.4-2.3-.8 0-1.4 1-1.4 2.3 0 1.3.6 2.3 1.4 2.3.8 0 1.4-1 1.4-2.3" fill="#ffdc5d"/><path d="M10.1 19c0 4.8 3.4 8.8 7.5 8.8s7.4-4 7.4-8.9-3.4-8.9-7.4-8.9c-4.2 0-7.5 4-7.5 9" fill="#ffdc5d"/><path d="M17.6 12.9c-2.5 0-3.2.6-3.3.8a.6.6 0 0 0 0 .8.6.6 0 0 0 .8 0s.6-.4 2.5-.4 2.4.4 2.4.4a.6.6 0 0 0 .8 0 .6.6 0 0 0 0-.8c-.1-.2-.9-.8-3.3-.8" fill="#c1694f"/><path d="M17.6 30.8c4.9 0 8-3.7 8-6.8s-.7-4.2-1.3-3l-1.2 2.4s-3.7 0-5 1.3c0 0 1.9-3.7-1.8 0 0 0 .6-2.5-3 .6 0 0-1.9-1.3-2.5-4.3-.2-.8-1.2 0-1.2 3s2.4 6.8 8 6.8" fill="#ffac33"/><path d="M14 18.9a.9.9 0 0 0-.8.9v.8c0 .5.4 1 .9 1s.8-.5.8-1v-.8a.9.9 0 0 0-.8-1m7 0a.9.9 0 0 0-1 1v.8c0 .5.4 1 1 1 .4 0 .8-.5.8-1v-.8a.9.9 0 0 0-.9-1" fill="#662113"/><path d="M18.2 16.5h-1.3a.7.7 0 0 0-.7.6c0 .4.3.7.7.7h1.3a.7.7 0 0 0 .6-.7.7.7 0 0 0-.6-.6" fill="#c1694f"/><path d="M5.9 21.8s-3.8-1.4-4.2-6.2c0 0-2.4 4.8-.5 10.1l4.7-4zM20.1 30s-2.8 3-7.4 1.5c0 0 3.5 4 9.2 4.4L20 30zm9.2-10.3s2 3.5-1 7.4c0 0 5-2 7.1-7.3l-6.1-.1z" fill="#d1d3d4"/><path d="M8.1 25a3.5 3.5 0 1 0-7 0 3.5 3.5 0 0 0 7 0" fill="#5c913b"/><path d="M26 32.5a3.5 3.5 0 1 0-7 0 3.5 3.5 0 0 0 7 0" fill="#be1931"/><path d="M35.9 18.1a3.5 3.5 0 1 0-7 0 3.5 3.5 0 1 0 7 0" fill="#3b88c3"/><path d="M32.6 12.5a1 1 0 0 1-1.1.8l-2-.4h-1.9c-.8 0-1.5-.7-1.5-1.6V9.7h3.8c.8 0 1.5.7 1.5 1.6h.8v.2a1 1 0 0 1 .5 1" fill="#f9ca55"/><path d="M36 12a.8.8 0 0 1-.7.9l-4.6-.8h-3.9a.8.8 0 0 1-.7-.8L26 9.7h4.7l4.6 1.6s.8.3.8.8" fill="#ffdc5d"/><path d="M3.4 8.8a1 1 0 0 0 1.2.7l2-.4h1.9c.8 0 1.5-.7 1.5-1.6V6H6.2c-.9 0-1.5.7-1.6 1.5h-.8v.2a1 1 0 0 0-.4 1" fill="#f9ca55"/><path d="M0 8.3c0 .5.3.8.8.8l4.6-.8h3.8a.8.8 0 0 0 .8-.8V6H5.4L.8 7.5S0 8 0 8.3" fill="#ffdc5d"/><path d="M11 6h-1V0h1v6zm15 3h-1V0h1v9z" fill="#5c913b"/></g></svg>