<svg xmlns="http://www.w3.org/2000/svg" viewBox="0 0 45 45"><defs><clipPath id="a"><path d="M0 36h36V0H0v36z"/></clipPath></defs><g clip-path="url(#a)" transform="matrix(1.25 0 0 -1.25 0 45)"><path d="M16 31c0-1.7 1.2-3 2.6-3s2.6 1.3 2.6 3-1.1 3-2.6 3c-1.4 0-2.6-1.3-2.6-3" fill="#ffdc5d"/><path d="M15.6 32.8s.2 1-1.2 1.2c-1.2 0-1.5-1.3-2.4-1.7-.7-.4-1.4-.4-2 0 0 0 .8-1 1.6-1.2a3.8 3.8 0 0 1 3 .1 2.2 2.2 0 0 1 1 1.6" fill="#ffac33"/><path d="M18 2.6a1 1 0 0 0-1 1v3a1 1 0 1 0 2 0v-3a1 1 0 0 0-1-1m-9.5-1a1 1 0 0 0-1.4 1.1l.7 2.8a1 1 0 1 0 2-.5L9 2.2a1 1 0 0 0-.6-.6" fill="#dd2e44"/><path d="M19.7 26.9l-.4 4c0 .5-.6.9-1.1.8a1 1 0 0 1-1-1l.5-3.7H13l-5.9 2.9a1 1 0 0 1-.3-2l5.4-2.8.7-.1h2.8c0-.3 0-.6.2-1l3-8c2.2 0 2.6 4.7 2.6 7.2 0 .6.3.8.2 1.1 1.2.2 1.4-.4 1.9-.5 0 0-1.8 3.3-4 3" fill="#ffdc5d"/><path d="M14.2 9.9a1.2 1.2 0 0 0-.2 1.6l4.8 7.3a1.2 1.2 0 1 0 2-1.3L16 10a1.2 1.2 0 0 0-1.8-.2" fill="#ffdc5d"/><path d="M8.6 5a1 1 0 0 0 .1 1.3l5.4 5c.4.4 1.1.3 1.5-.1.4-.5.4-1.2 0-1.6l-5.4-5c-.4-.3-1-.3-1.5.2a1.3 1.3 0 0 0 0 .1m8.8 1.8c-.2.4 0 1 .4 1.2l5.8 3.4c.4.2 1 0 1.3-.5.2-.5.1-1.1-.4-1.4L19 6.1c-.5-.3-1 0-1.3.4a1.2 1.2 0 0 0-.1.2" fill="#ffdc5d"/><path d="M24.3 9.4a1.1 1.1 0 0 0-1.4.5l-3.7 7.3a1.2 1.2 0 0 0 2 1L25 11a1.1 1.1 0 0 0-.7-1.6m0 13.6l-3.8 2a1 1 0 0 0-.4 1.2 1 1 0 0 0 1.2.4l3.9-2a1 1 0 0 0 .4-1.2 1 1 0 0 0-1.3-.4" fill="#ffdc5d"/><path d="M30 22.1l-5.2.8a1 1 0 0 0-.8 1 1 1 0 0 0 1 .9l5.3-.8a1 1 0 0 0 .8-1 1 1 0 0 0-1-.9" fill="#ffdc5d"/><path d="M21.3 31l.4 1.3c.3.8-.5 1.9-1.4 2.5-.7.5-2.5.7-3.7 0-1.3-.7-1.7-2-1.4-3.3a5 5 0 0 1 1.3-2.4s.4 1.1.2 1.1c-.3 0-.5 1.1-.2 1.4.3.3.6 0 .7-.3l.2-1.1s0 1 .3 1.4c.3.3 1.7.2 2.3 1.7 0 0 .5-.2.8-.7.4-.5.4-1.6.4-1.6" fill="#ffac33"/><path d="M16.5 18l-1-2.8c-.3-.9-.9-1.8-.9-1.8s1.7-1.5 3-1.5l1.9 2.8 1.7-2.4s1.7 1.2 2.8 1.4l-1.8 3.8A8.2 8.2 0 0 1 21 19l-4.5-1z" fill="#a0041e"/><path d="M15.6 27.2l1.8-.1s0-.8 1.3-.9c1.3 0 1.6.7 1.6.7s1-.1 1.7-.6l1.8-1s-1-.8-.6-1.7l-1 .4s.3-.6.1-1c0-.4-.4-.8-.5-1.2-.1-1 .3-3.9.5-4.2 0 0-1.3.3-3.2.1-1.2-.1-3.1-1-3.1-1 0 .9.6 2.9.7 4 .1 1-.8 4-1.4 4l-1.1.2v1.3l-.3.8 1.6.2" fill="#dd2e44"/><path d="M7 28a2 2 0 1 1-4 0 2 2 0 0 1 4 0" fill="#269"/></g></svg>