<svg xmlns="http://www.w3.org/2000/svg" viewBox="0 0 45 45"><defs><clipPath id="a"><path d="M0 36h36V0H0v36z"/></clipPath></defs><g clip-path="url(#a)" transform="matrix(1.25 0 0 -1.25 0 45)"><path d="M32.4 8.2s.6-1.2 1.8-.6c1.2.6.3-2 .3-2s-2.9-.2-5-.1c-1.8.1-.6 1 .6 1.5l2.3 1.2" fill="#3e721d"/><path d="M26.5 22.6c-.7-1-1.5-2-2-2.2a6.8 6.8 0 0 1-2-.6c-.5-.4-.4-.8.3-1.1a2 2 0 0 1 2.2.3 17 17 0 0 0 2.7 2c.8.6-.7 2.4-1.2 1.6" fill="#f9ca55"/><path d="M26.3 22.1c.3.5 1 1 1 1l-.5 2.5h3l-.5-3.2c-.1-.6-1.3-1.3-2-1.7-.9-.3-1.4.9-1 1.4m5.2-10s-3.5 1.4-3.5.5c0-1 3.3-2.6 4.4-4.6.5-.8 2.3-1.4 2 .4-.8 3.3-2.9 3.8-2.9 3.8" fill="#f9ca55"/><path d="M29 12.6s1.3-1.6 2.1-1.2c.9.4 2.5 3.8 2.9 5 .4 1.3-.5 3.8-1.8 2.1s-3.2-6-3.2-6" fill="#f9ca55"/><path d="M35.1 18.4L29 16l3.9-2 2.2 4.4z" fill="#3e721d"/><path d="M28 16s-2-3-2-4 1-4 1-7 2-3 2-2 1.6 5.4 0 7c-1 1 2 4 2 4l-3 2z" fill="#ffdc5d"/><path d="M30 20l-2.6-5 3-2s5.5 5 5.5 7c0 2.9-2.5 3.8-2.5 3.8L30 20z" fill="#77b255"/><path d="M27 31l1-2.2-2.5-1-1.1 1.7L27 31z" fill="#ffdc5d"/><path d="M27.5 31.1c-.2-1.5-1.6-2.2-3-2.8-1.2-.5-2.3 1.8-2.4 3.4-.2 1.6 1.6 2.8 3 2.6 1.5-.1 2.5-1.6 2.4-3.2m-5-8.5c-1.3-1-2.8-2.5-3.6-2.7-1-.1-1.7 1-2.6-.3-.6-.9.3-1.7 2.2-1.7 1 0 4.1 1.6 5.3 2.4 1.2.9 1.5 1.9 2 3 0 .5.4-.5 1.3-1a7.3 7.3 0 0 0 3-2.2c2.7 1.4 4.5 3 4.5 3-1.6 1.7-2.5 3.6-4.1 4.8-2.5 2-3.6.8-5.4-.1-1.2-.6-1.8-2.4-2.6-5.2" fill="#ffdc5d"/><path d="M30 19.8a21 21 0 0 1 4.6 3.3c-1.6 1.7-2.5 3.6-4.1 4.8a6.7 6.7 0 0 1-1 .7c.2-.3.1-.5-.3-.7-1-.3-2 .3-3.2.4l-.7-.4c1-.1 2.1-1.3 2.3-2.5.2-1.3-.2-2.4-.7-2.9l.2-.1a7.3 7.3 0 0 0 3-2.6M26.9 4.2s.7-1.2 2-.5c1.2.7.4-2.2.4-2.2S25.9.4 24 1c-2 .5-.7 1.2.5 2l2.4 1.3" fill="#77b255"/><path d="M22.5 33.7c1.9 1.4 3.2 1.3 4.3.5 1.1-.8 1.3-2.4 1.1-3.5-.2-1-.5-1-.5-1s-1.4-.4-1.6.9c-.1.4.3.7-.2 1.2-.4.4-1 .2-1-.4 0-.6-.3-.5-.3-.5l-1 1.5s-.7 0-1-.8c-.3-.4-1.4 1 .2 2.1" fill="#ffac33"/><path d="M10 7.9s-.7-1.1-1.8-.4c-1 .7-.5-2-.5-2l4.9-.7c1.9-.1.8.9-.3 1.6L10 7.9" fill="#2a6797"/><path d="M3.9 4.7s-1-1-2-.1C.8 5.5 1 2.4 1 2.4S4.1.7 6.1.9c2 .1 1 1-.1 2L3.9 4.7" fill="#4289c1"/><path d="M7.8 28.2c2.7.3 3.2-.6 3.7-1.4 1-2-1-3.3-1.4-4C9.6 22 7.2 20 7 18.9c-.4-1.1 0-1.1.8-1.6.8-.6 3.5-2 3.9-2.8.4-.9.2-1.4-.2-2.1-.4-.7-1.6-3.9-1.5-4.7 0 0-1-.9-1.9-.1 0 0 0 2.7.3 3.7a7.5 7.5 0 0 0 .5 1.8l-2.5.8s.5-1.4.5-2c0-.7-.9-1.9-1.3-2.4C5.1 8.8 4 6.2 4 4.7c0 0-1-1.2-2-.1V8c.2 1 1.4 3 1.6 3.6.3.4-.4.8-.7 1.5-.2.6-2 3-2 4.2a9 9 0 0 0 1.2 4c.5.8 1.5 3.6 1.8 4.3.4 1.6 2 2.4 4 2.6" fill="#4289c1"/><path d="M6.2 14.4S4 13.8 3 13c.2-.6.6-1.4.4-1.9a13 13 0 0 1-1.3-3c-.2-1-.1-3.5-.1-3.5 1-1.1 2 .1 2 .1a11 11 0 0 0 1.8 4.8c.3.5 1.2 1.7 1.2 2.4a7.5 7.5 0 0 1-.4 2l-.3.5z" fill="#ffdc5d"/><path d="M11.7 14.5c-.3.6-1.4 1.3-2.3 1.8a8 8 0 0 1-1.9-2.7L9 13s-.4-.7-.5-1.7L8 7.6c1-.8 1.9 0 1.9 0 0 .9 1 4 1.5 4.8.4.7.6 1.2.2 2.1" fill="#f9ca55"/><path d="M3.4 24.7c-.1-1.1 1-1.5 2-1 1 .4 1.8 1 2 2.1.1.7-.2 2.3-1.2 2-1.4-.2-2.5-1.3-2.8-3" fill="#ffdc5d"/><path d="M9.8 28.2c1-.2 1.7-.6 2-1.6.3-1 .7-3.7.9-4 0-.2.2-.4.6-.3.3.2 1.5.4 2 .5.7 0 .7.9 1.4 1.1.8.3 1.7-.2 1.7-1s-.1-1.1-1.2-1.3a7 7 0 0 1-1.9-.6 16 16 0 0 0-3.5-1c-.4.2-1.7 2.8-1.7 2.8l.8 1s-.5.6-.2 1.4c.5 1.3-.9 3-.9 3" fill="#f9ca55"/><path d="M3.5 24.9l.4-4.5c0-.5 4-2.3 4.3-2.4.4-.2 1.2-1.1 1.7-1.2.6 0 2.2.3 1.6 1.2-.5.8-1.4 1.4-2 1.3-.8 0-2.6 1.7-3 1.9-.4.1-.6.4-.4.8l.8 3.3c0 .7-3.3 1-3.4-.4" fill="#ffdc5d"/><path d="M7.5 13.6a7.8 7.8 0 0 0-1 .3l-1 2.2L8 14.7l-.3-.6-.2-.5" fill="#2a6797"/><path d="M9 28.3c.3 0 .8-1 .9-1.5 0-.8-1-1.2-1.5-.2-.6 1-.8 1.4-1.3 1.5a6 6 0 0 0 2 .2" fill="#ffdc5d"/><path d="M8.3 30.2l-1-2.1 2.2-1.3 1 1.9-2.2 1.5z" fill="#ffdc5d"/><path d="M7.9 30.4c.1-1.6 1.7-2.7 3-2.9 1.4-.1 2.2 1.8 2.4 3.5.2 1.5-1.7 2.7-3.1 2.6-1.5-.2-2.5-1.6-2.3-3.2" fill="#ffdc5d"/><path d="M13 33c-1.5 1.2-3.1 1.2-4.3.4-1.1-.7-1.3-2.4-1-3.4l.3-1s.4.2.5.7c0 .4-.2.7.3 1.3.4.4.6-.3.5-.8 0-.6.4-.3.4-.3l.6 1.2s.6-.6 1.8-.2c.8.3 1.2.3 1.1-.5.7 1.2.4 2.1-.2 2.6" fill="#ffac33"/></g></svg>