<svg xmlns="http://www.w3.org/2000/svg" viewBox="0 0 45 45"><defs><clipPath id="a"><path d="M0 36h36V0H0v36z"/></clipPath></defs><path d="M8.4 12.5l2.4 26.3H34l2.6-27.2-28.2.9z" fill="#ccd6dd"/><g clip-path="url(#a)" transform="matrix(1.25 0 0 -1.25 0 45)"><path d="M28.6 16.8L7 16.6S8 5.7 10.4 5.7h15c2.4 0 3 11 3 11" fill="#e27e00"/><path d="M18 18.6c-5.5 0-10-.9-10-1.9h.1c.2-.7 2-1.3 4.8-1.6h10.4c2.6.3 4.4.9 4.6 1.5v.1c0 1-4.4 1.9-10 1.9" fill="#ffb900"/><path d="M16.4 14.9l2-1 5.4 1-.6.2A45.4 45.4 0 0 0 18 15h-1.6" fill="#f4bd61"/><path d="M19 17.7l-6.2-.8 3.6-2a54.6 54.6 0 0 1 1.6 0c2 0 3.7 0 5.2.2L19 17.7z" fill="#f1f2f2"/><path d="M18.3 8.2l4.4 1.4 1.1 5.2-5.5-.9V8.2z" fill="#e9ab61"/><path d="M16.4 14.9a42.9 42.9 0 0 0-3.5.2l.5-5.2 4.9-1.7V14l-1.9 1z" fill="#e4973e"/><path d="M12.8 16.9l.1-1.8a43.4 43.4 0 0 1 3.5-.2l-3.6 2z" fill="#d1d3d4"/><path d="M30 28.2a1.2 1.2 0 0 1-1.2-1l-1.5-16.3C26.8 7.8 25.3 6 21 6h-6c-4.6 0-5.9 2-6.4 5.3L7.2 27.1a1.2 1.2 0 1 1-2.4-.2l2-22c.3-2 1.4-3 3.2-3h16c2.5 0 3 1.7 3.2 3l2 22a1.2 1.2 0 0 1-1.1 1.3" fill="#8899a6"/><path d="M31.2 27c0-1.9-4-3.4-13.2-3.4S4.8 25.1 4.8 27s4 3.4 13.2 3.4 13.2-1.5 13.2-3.4" fill="#ccd6dd"/><path d="M30.5 26.9a1 1 0 0 1-1.3.3A29.1 29.1 0 0 0 18 25.7c-2.3 0-8.8.1-11.1 1.5a1 1 0 0 1-1-1.7c2.7-1.7 9.3-1.8 11.4-1.8h1.4c2.2 0 8.7.1 11.5 1.8a1 1 0 0 1 .3 1.4" fill="#fff"/></g></svg>