<svg xmlns="http://www.w3.org/2000/svg" viewBox="0 0 45 45"><defs><clipPath id="a"><path d="M0 36h36V0H0v36z"/></clipPath></defs><g clip-path="url(#a)" transform="matrix(1.25 0 0 -1.25 0 45)"><path d="M19.6 35.7c9.6 0 12.2-1.7 12.2-11.3 0-5.5-1.1-8.5-1.1-13.5 0-3-4.6-3-8.7-3-4.2 0-9.1-.2-11.3 2-6 6-10.6 16.4-2 19 .4 6.5 1.3 6.8 10.9 6.8" fill="#be1931"/><path d="M26.7 10C29 10 31 9.1 31 7.1V3.6c0-2-2-3.6-4.3-3.6H15v10h11.7z" fill="#99aab5"/><path d="M22.3 10c2.5 0 4.7-.9 4.7-2.9V3.6c0-2-2.2-3.6-4.7-3.6H15c-2.4 0-4 1.5-4 3.6V7c0 2 1.6 2.9 4 2.9h7.3z" fill="#ccd6dd"/><path d="M4.3 25c.7.6 1.9 1.5 2.4-1.1 1-5 3.8-9.4 3-7-1 3-1 12-1 12-2.5-.7-3.8-2.1-4.4-3.8" fill="#a0041e"/><path d="M21.7 8c1 0 2.3-.5 2.3-1.5V3.2c0-1-1.2-1.2-2.3-1.2h-5c-1.1 0-1.7.3-1.7 1.2v3.3c0 1 .6 1.5 1.7 1.5h5z" fill="#e1e8ed"/></g></svg>