<svg xmlns="http://www.w3.org/2000/svg" viewBox="0 0 45 45"><defs><clipPath id="a"><path d="M0 36h36V0H0v36z"/></clipPath></defs><g clip-path="url(#a)" transform="matrix(1.25 0 0 -1.25 0 45)"><path d="M18 1C3 1 1 15 1 19h34c0-2-2-18-17-18" fill="#ccd6dd"/><path d="M35 19c0-5.3-7.6-9.5-17-9.5S1 13.7 1 18.9c0 5.3 7.6 8.5 17 8.5s17-3.2 17-8.5" fill="#66757f"/><path d="M2.7 17.1a6.5 6.5 0 0 0-.7 7c.7 1.9 2.2 3 2.4 2.5.4-1.4 1.3-2.5 2.7-2.4 0-.5-.6 4.3 1.7 5.6 1 .6 2.3-.4 3.6-2.6 2.3-3.5 7.9-1.9 9.4-1 1.6 1 3 1.6 2.6 4.1 0 .6.8 1 1.6.6 1.4-.8 3.5-2.7 3.9-4.8 1-.3 1.8.2 2.4 1.4a1 1 0 0 0 1.7 0c.7-1.4 2-5.6.2-9.2-2-4-5-6.2-11.9-7-6.8-1-15.6 0-19.6 5.8" fill="#77b255"/><path d="M19.4 25.9a4 4 0 0 0-4-3.8c-2.3 0-4 1.6-4 3.7 0 2.2 1.7 3.9 4 3.9a4 4 0 0 0 4-3.8" fill="#5c913b"/><path d="M18.4 25.9c0-1.6-1.3-3-3-3s-3 1.4-3 3c0 1.5 1.3 2.8 3 2.8a3 3 0 0 0 3-2.8" fill="#c6e5b3"/><path d="M10.5 21.5c0-1.1-1-2-2.3-2-1.3 0-2.3.9-2.3 2s1 2 2.3 2c1.2 0 2.3-.9 2.3-2" fill="#292f33"/><path d="M17.5 20.8c1.3-2.4-2-1-4.6-2.3-2.5-1.3-3.2-4.9-4.5-2.5a5 5 0 0 0 2.3 6.7 5 5 0 0 0 6.8-1.9" fill="#dd2e44"/><path d="M26.5 23.5c0-1.1-1-2-2.3-2-1.3 0-2.3.9-2.3 2s1 2 2.3 2c1.2 0 2.3-.9 2.3-2" fill="#292f33"/><path d="M29.1 15.9c-1.6-1.5-1.2 1.4-2.7 3-1.6 1.7-4.5 1.4-3 3a4 4 0 0 0 5.7-.4 4 4 0 0 0 0-5.6" fill="#9266cc"/><path d="M28.1 14.9c-1.6-1.5-1.2 1.4-2.7 3-1.6 1.7-4.5 1.4-3 3a4 4 0 0 0 5.7-.4 4 4 0 0 0 0-5.6" fill="#e1e8ed"/><path d="M24 16c.8-2-1.8-.5-4-1.3-2.1-.8-3-3.7-3.8-1.6a4.1 4.1 0 0 0 2.5 5.2 4.1 4.1 0 0 0 5.3-2.2" fill="#dd2e44"/><path d="M9 17c-.2 1.5 2.8 8.3 8.1 2.3-1.2-.2-4.3-.2-5.6-2-1.4-2-2.7-.3-2.5-.4" fill="#ea596e"/><path d="M5 16.3c-.8 1 1.7 3.2 3.5 1.3.8 1 4.7 2.9 6.2-1.3.7.7 6.1 1 6.2-3.7 0-.6-6.3-.5-9.5.2-1.8.5-5.1 1.7-6.5 3.5M26 13.5c-1.2-.3.8 5.2 4.5 4.2 0 1 .9 4.4 3.2 3.8 0-1 0-5.9-7.7-8" fill="#a6d388"/></g></svg>