<svg xmlns="http://www.w3.org/2000/svg" viewBox="0 0 45 45"><defs><clipPath id="a"><path d="M0 36h36V0H0v36z"/></clipPath></defs><g clip-path="url(#a)" transform="matrix(1.25 0 0 -1.25 0 45)"><path d="M26 20.8c2-8.2-1.7-16.2-8.3-17.9C11.1 1.3 4.1 6.7 2.1 15s1.6 16.2 8.2 17.9c6.6 1.6 13.6-3.7 15.6-12" fill="#c1694f"/><path d="M34.1 22.9c2.4-9.7-6.3-17.4-14.9-19.6C10.6 1.2 4.9 6.8 2.8 15.1c-2 8.2.3 15.9 9 18 8.7 2.2 19.8 0 22.4-10.3" fill="#c1694f"/><path d="M15.1 5c-5 0-9.6 4.4-11 10.4-1.8 6.9 1.3 13.7 6.8 15a8.2 8.2 0 0 0 2 .3c5 0 9.6-4.4 11-10.4 1-3.4.7-6.8-.7-9.6a9.3 9.3 0 0 0-6-5.4 8.3 8.3 0 0 0-2-.3" fill="#77b255"/><path d="M12.9 31.2a8.8 8.8 0 0 1-2.1-.3c-5.8-1.4-9-8.4-7.2-15.6C5 8.9 10 4.5 15 4.5a8.7 8.7 0 0 1 2.1.3c5.8 1.4 9 8.4 7.2 15.6C23 26.8 18 31.2 13 31.2m0-1c4.7 0 9.1-4.2 10.6-10a14.2 14.2 0 0 0-.7-9.3A8.8 8.8 0 0 0 17 5.8a7.7 7.7 0 0 0-1.9-.3c-4.7 0-9.1 4.2-10.6 10C3 22.2 5.8 28.6 11 29.9a7.8 7.8 0 0 0 1.9.3" fill="#a6d388"/><path d="M19 17.5l-2.8-1.3 1.6-4.2-3 2.3-.6-4.1-1.4 4-2.6-1.7 1 4-3 1.7 2.7 1.3-1.6 4.2 3-2.1.6 4.1 1.4-4.3 2.6 1.8-1-4 3-1.7z" fill="#a6d388"/><path d="M19 17.5l-2.8-1.3 1.6-4.2-3 2.3-.6-4.1-1.4 4-2.6-1.7 1 4-3 1.7 2.7 1.3-1.6 4.2 3-2.1.6 4.1 1.4-4.3 2.6 1.8-1-4 3-1.7z" fill="none" stroke="#a6d388" stroke-width="2" stroke-linecap="round" stroke-linejoin="round" stroke-miterlimit="10"/><path d="M16.8 18l-1.7-.8 1-2.6-1.8 1.3-.4-2.5L13 16l-1.6-1 .6 2.4-2 1 1.8.8-1 2.5 1.8-1.2.3 2.5 1-2.6 1.5 1L15 19l1.9-1z" fill="#c6e5b3"/><path d="M16.8 18l-1.7-.8 1-2.6-1.8 1.3-.4-2.5L13 16l-1.6-1 .6 2.4-2 1 1.8.8-1 2.5 1.8-1.2.3 2.5 1-2.6 1.5 1L15 19l1.9-1z" fill="none" stroke="#c6e5b3" stroke-linecap="round" stroke-linejoin="round" stroke-miterlimit="10"/><path d="M9.3 21c.2-.5.1-1-.2-1.1-.3-.2-.8 0-1 .6-.2.5-.1 1 .2 1.2.3.1.8-.2 1-.7m6.7 3c-.1-.5-.5-1-.9-.8-.3 0-.5.6-.4 1 .2.6.5 1 .9.9.4 0 .5-.6.4-1.1m-2.6-10c-.2-.5-.6-.8-1-.7-.3 0-.5.5-.3 1 .1.6.5 1 .8.9.4-.1.6-.6.5-1.1m3.2-2.2c.2-.5.1-1-.2-1.2-.3-.1-.8.1-1 .6-.3.5-.2 1 .2 1.2.3.2.7-.1 1-.6m1.1 7.7c-.3-.3-.7-.4-.8-.3-.2.2 0 .6.2.9.3.3.7.4.8.2.2-.2.1-.5-.2-.8m-5.3 2.3c.2-.3.2-.7 0-.8-.2-.1-.6 0-.7.5-.2.3-.2.7 0 .8.2.1.5 0 .7-.5m-4-7c-.3-.4-.6-.5-.8-.3-.2.2 0 .6.3.9.3.2.6.4.8.2.2-.2 0-.6-.3-.9m10.7 1c.3-.4.3-.9 0-1.1-.2-.3-.7-.2-1 .2-.3.3-.4.8-.1 1 .2.3.7.2 1-.1" fill="#292f33"/></g></svg>