<svg xmlns="http://www.w3.org/2000/svg" viewBox="0 0 45 45"><defs><clipPath id="a"><path d="M0 36h36V0H0v36z"/></clipPath></defs><g clip-path="url(#a)" transform="matrix(1.25 0 0 -1.25 0 45)"><path d="M35 30.1c2.4-6-1.4-20.6-10.5-26.5-9-6-20.4-3.6-23.1 6.4-1.7 6.2 2.8 10.8 11.8 16.7 9.1 6 19.4 9.3 21.8 3.4" fill="#3e721d"/><path d="M20.6 10C14.1 5.4 5.3 4.8 2.1 9.4c-3.1 4.5.5 12.6 7 17.1 6.5 4.6 22 9.8 25.1 5.2 3.2-4.5-7-17.2-13.6-21.7" fill="#3e721d"/><path d="M19.8 9.4c-5.7-4-13.5-3-16.3 1-2.8 4 .5 11.1 6.3 15.1 5.7 4 20.2 9.3 23 5.3 2.8-4-4.8-16.2-13-21.4" fill="#a6d388"/><path d="M18.2 12c-4.5-3-10-3-12.2.1-2.2 3.2-.3 8.3 4.2 11.4s15.8 7.2 18 4c2.2-3-5.5-12.3-10-15.4" fill="#c6e5b3"/><path d="M11.2 23.5a7.5 7.5 0 0 0 9.8-1c1.4-1.5-1-5.4-4.4-7.7-3.5-2.3-7.8-1.8-8.2-.7a7.5 7.5 0 0 0 2.8 9.4" fill="#662113"/><path d="M13 22.9c1.6 1 3.5.8 4.3-.4.9-1.3.3-3.1-1.2-4.1-1.5-1-3.4-.8-4.2.4-.9 1.3-.3 3 1.2 4.1" fill="#7c3225"/></g></svg>