<svg xmlns="http://www.w3.org/2000/svg" viewBox="0 0 45 45"><defs><clipPath id="a"><path d="M0 36h36V0H0v36z"/></clipPath></defs><g clip-path="url(#a)" transform="matrix(1.25 0 0 -1.25 0 45)"><path d="M1.443 22.342c1.03.715 2.03 1.58 2.285 2.54.254.959 3.185 2.313 3.679 1.97.494-.342 1.075-.013 1.37.744.297.757 3.477 2.54 4.245 2.093.768-.447 2.095-.028 2.558.458.464.486 3.89.542 4.29-.19.4-.732 1.06-.596 1.858-.268.796.329 3.266.29 3.586-.391.32-.681 1.16-1.12 1.772-.941.61.179 2.967-.435 2.72-1.324-.244-.89.319-1.531 1.147-1.486.828.044 2.3-1.661 2.156-2.085-.145-.425.418-.945.987-1.197.568-.252.71-2.53-.864-3.111-1.573-.583-26.976-2.846-28.953-.634-1.978 2.212-2.836 3.822-2.836 3.822" fill="#ffd983"/><path d="M20.89 23.164c-.48-4.459-3.09-7.96-4.838-7.752-1.75.208-2.777 3.991-2.297 8.45.48 4.457 1.589 7.388 3.909 7.388 2.552 0 3.706-3.629 3.226-8.086" fill="#ffd983"/><path d="M25.97 22.807c-.48-4.459-3.09-7.96-4.838-7.752-1.749.208-2.777 3.991-2.297 8.45.48 4.457 1.824 5.906 4.036 6.642 2.872.954 3.579-2.883 3.099-7.34" fill="#ffd983"/><path d="M28.212 20.173c-1.624-4.15-4.1-7.009-5.535-6.388-1.433.621-.905 4.346.342 8.636 1.671 5.745 4.58 6.607 6.014 5.986 1.433-.62.802-4.086-.82-8.234" fill="#ffd983"/><path d="M29.335 17.695c-2.794-3.391-6.008-5.273-7.18-4.203-1.17 1.068.143 4.682 2.937 8.072 2.793 3.39 6.042 4.558 7.434 3.838 1.924-.996-.397-4.318-3.191-7.707" fill="#ffd983"/><path d="M29.232 15.15c-4.118-1.167-7.832-.649-8.294 1.16-.462 1.807 2.5 4.219 6.617 5.386 4.118 1.167 7.544 1.326 8.294-1.16.538-1.783-2.5-4.219-6.617-5.386M16.922 23.957c-1.384 4.245-3.912 6.918-6.156 6.013-2.435-.982-2.902-4.692-1.519-8.936 1.382-4.244 5.062-6.96 6.53-6.432 1.465.53 2.528 5.112 1.145 9.355" fill="#ffd983"/><path d="M11.697 22.354c-2.715 3.46-5.176 6.257-7.081 4.385-1.89-1.857-1.068-5.91 1.647-9.37 2.713-3.46 6.988-4.2 8.184-3.16 1.195 1.038-.035 4.685-2.75 8.145" fill="#ffd983"/><path d="M8.414 21.172C2.088 24.119.708 22.219.157 20.694c-.552-1.524 2.3-5.036 6.284-6.633 3.984-1.6 7.663-1.66 8.216-.134.551 1.523-2.344 5.428-6.243 7.245" fill="#ffd983"/><path d="M35.65 11.964c0-5.312-7.752-7.214-17.315-7.214C8.772 4.75.298 7.854.298 13.166c0 5.313 8.474 14.43 18.037 14.43 9.563 0 17.314-10.32 17.314-15.632" fill="#ffd983"/><path d="M19.537 19.369c0-2.99-.538-5.411-1.202-5.411-.664 0-1.203 2.422-1.203 5.41 0 2.989.539 5.41 1.203 5.41s1.202-2.421 1.202-5.41M24.22 19.599c.514-2.533.447-4.683-.147-4.803-.595-.121-1.492 1.834-2.005 4.367-.513 2.533-.447 4.683.147 4.804.596.12 1.492-1.835 2.006-4.368M28.074 19.376c.945-1.944 1.269-3.734.724-4-.546-.265-1.754 1.095-2.7 3.04-.945 1.943-1.27 3.734-.724 3.999.546.266 1.754-1.095 2.7-3.04M14.58 19.488c-.644-2.7-1.63-4.78-2.2-4.644-.571.137-.511 2.436.134 5.138.645 2.701 1.739 4.304 2.31 4.167.57-.136.402-1.96-.243-4.66M10.258 19.115c-.868-1.94-2.018-3.312-2.573-3.064-.554.248-.3 2.02.567 3.96s2.086 2.915 2.64 2.668c.554-.248.233-1.624-.634-3.564" fill="#ffac33"/><path d="M12.865 28.68c.514-.602.618-1.386.233-1.75-.386-.364-1.115-.17-1.63.434-.514.603-.618 1.387-.232 1.75.386.365 1.115.17 1.629-.433M6.473 25.218c.263-.762.082-1.53-.405-1.716-.487-.186-1.094.28-1.358 1.042-.263.761-.082 1.53.405 1.716.487.186 1.095-.28 1.358-1.042M2.981 20.315c.663-.572.935-1.378.607-1.799-.329-.42-1.133-.299-1.796.273-.664.573-.935 1.378-.607 1.8.33.421 1.133.298 1.796-.274M18.672 29.53c.514-.604.618-1.388.233-1.752-.386-.364-1.115-.169-1.63.434-.514.603-.618 1.387-.232 1.751.386.364 1.115.17 1.629-.434M25.028 28.099c.057-.92-.396-1.7-1.011-1.742-.616-.043-1.162.669-1.22 1.588-.057.92.396 1.7 1.012 1.742.616.043 1.162-.668 1.219-1.588M29.092 26.074c.147-.795-.147-1.524-.655-1.628-.508-.104-1.04.457-1.186 1.252-.147.796.146 1.525.655 1.628.508.104 1.04-.457 1.186-1.252M32.26 22.638c-.333-.684-.976-1.038-1.437-.79-.461.248-.566 1.004-.233 1.688.333.685.976 1.038 1.437.79.46-.248.565-1.004.232-1.688M34.544 18.828c-.414-.532-1.118-.646-1.572-.255-.453.392-.485 1.14-.07 1.672.414.532 1.118.646 1.57.254.455-.39.487-1.139.072-1.67" fill="#ffcc4d"/></g></svg>