<svg xmlns="http://www.w3.org/2000/svg" viewBox="0 0 45 45"><defs><clipPath id="a"><path d="M0 36h36V0H0v36z"/></clipPath><clipPath id="b"><path d="M24 31.3L5.2 12.4C1.3 8.6 1.3 4.1 3 2.6 4.4 1 8.9 1 12.7 4.8l19 19c3.7 3.7 3.8 8.2 2.2 9.8-.6.6-1.7 1-3 1-2 0-4.5-1-6.8-3.3"/></clipPath></defs><g clip-path="url(#a)" transform="matrix(1.25 0 0 -1.25 0 45)"><path d="M12.7 4.8C8.9 1.1 4.4 1 2.9 2.6 1.3 4 1.3 8.6 5 12.4l19 19c3.7 3.7 8.2 3.8 9.8 2.2 1.6-1.6 1.5-6-2.3-9.8l-18.9-19z" fill="#edb980"/></g><g clip-path="url(#b)" transform="matrix(1.25 0 0 -1.25 0 45)"><path d="M28 26c-1-.9-2.1.5-3.7 2-1.6 1.6-2.9 2.8-2 3.6.8.9 2.7.3 4.3-1.3 1.6-1.6 2.2-3.5 1.3-4.3" fill="#e5a157"/><path d="M23 32.4c1.7-.2 5.5-4 5.7-5.7" fill="none" stroke="#ffd983" stroke-linecap="round" stroke-linejoin="round" stroke-miterlimit="10"/><path d="M23.4 21.4c-.9-.8-2 .5-3.6 2-1.6 1.7-3 2.8-2.1 3.7.8.8 2.8.2 4.3-1.3 1.6-1.6 2.2-3.6 1.4-4.4" fill="#e5a157"/><path d="M18.4 27.8c1.8-.2 5.6-4 5.7-5.6" fill="none" stroke="#ffd983" stroke-linecap="round" stroke-linejoin="round" stroke-miterlimit="10"/><path d="M18.8 16.9c-.8-.9-2 .5-3.6 2-1.5 1.6-2.9 2.8-2 3.7.8.8 2.7.2 4.3-1.4 1.6-1.5 2.2-3.5 1.3-4.3" fill="#e5a157"/><path d="M14 23.3c1.6-.2 5.4-4 5.6-5.7" fill="none" stroke="#ffd983" stroke-linecap="round" stroke-linejoin="round" stroke-miterlimit="10"/><path d="M14.3 12.3c-.8-.8-2 .5-3.6 2.1s-3 2.8-2 3.6c.8.8 2.7.2 4.3-1.3 1.5-1.6 2.1-3.5 1.3-4.4" fill="#e5a157"/><path d="M9.4 18.8c1.7-.2 5.5-4 5.6-5.7" fill="none" stroke="#ffd983" stroke-linecap="round" stroke-linejoin="round" stroke-miterlimit="10"/><path d="M9.8 7.8c-.9-.9-2 .5-3.7 2-1.5 1.6-2.9 2.8-2 3.7.8.8 2.8.2 4.3-1.4 1.6-1.5 2.2-3.5 1.3-4.3" fill="#e5a157"/><path d="M4.8 14.2c1.7-.2 5.5-4 5.7-5.7" fill="none" stroke="#ffd983" stroke-linecap="round" stroke-linejoin="round" stroke-miterlimit="10"/></g></svg>