<svg xmlns="http://www.w3.org/2000/svg" viewBox="0 0 45 45"><defs><clipPath id="a"><path d="M0 36h36V0H0v36z"/></clipPath><clipPath id="b"><path d="M6.3 29.2C.6 23.5 1 15.2 3.4 9c.2-.4 1.1-.7 1.3-1C6.2 4.6 9.3 1.1 11.6.5c2.2-.6 2.2.5 1.6 2.3-.7 2-2.1 5-1.8 7 .1.6.7.4.7 1.2.4 7.3 3.7 13.4 12.8 14.3l3.6.3c.5 0 1.1 1 1.6 1 1.1 0 2.6-.1 3.8-.5 2.5-.7.1 5.7-5.8 6.8-.5.1-.8 1.1-1.3 1.2a20.4 20.4 0 0 1-6.3 1c-4.8 0-9.8-1.6-14.2-6"/></clipPath><clipPath id="c"><path d="M0 36h36V0H0v36z"/></clipPath></defs><g clip-path="url(#a)" transform="matrix(1.25 0 0 -1.25 0 45)"><path d="M11.6.6c-2.2.6-5.4 4.1-6.9 7.3-.2.4-1 .7-1.3 1.1C1 15.2.6 23.5 6.4 29.2a19.6 19.6 0 0 0 20.4 5c.5-.1.8-1 1.3-1.2 6-1 8.3-7.5 5.8-6.8-1.2.4-2.7.6-3.8.5-.5 0-1.1-1-1.6-1l-3.6-.3c-9.1-1-12.4-7-12.8-14.3 0-.8-.6-.6-.7-1.2-.3-2 1-5 1.8-7 .6-1.8.6-3-1.6-2.3" fill="#f4900c"/></g><g clip-path="url(#b)" transform="matrix(1.25 0 0 -1.25 0 45)"><path d="M.9 18.3c3 2 7.7 4 16.5-.8 8.4-4.6.4 6.2-2.8 7-3.3.7-10.4 3.3-13 .9s-.7-7.1-.7-7.1M3.5 8.2C5 9.6 6.8 12 12.4 10.8c6.5-1.6 2.7-2 .2-1.6a12.5 12.5 0 0 1-8.5-2c-2.3-1.5-.6 1-.6 1M27 34.7c1-2.2 3-6.2 1.4-9.5-1.5-3.4.7-1.2 1.5.2 1 1.7.1 6.6-2.1 9-2.3 2.4-.8.4-.8.3" fill="#db7803"/></g><g clip-path="url(#c)" transform="matrix(1.25 0 0 -1.25 0 45)"><path d="M2 21c-1 3.3.4 12.7 12.7 15 2 0 10-1.3 6.5-16.3-.6-2.3-1.8-2.7-3.6-1.6-4.1 2.7-11.6 7.1-15.6 3" fill="#ffac33"/></g></svg>