<svg xmlns="http://www.w3.org/2000/svg" viewBox="0 0 45 45"><defs><clipPath id="a"><path d="M0 36h36V0H0v36z"/></clipPath></defs><path d="M11 5.6L13.5 40h18l2.7-34.5H11z" fill="#ccd6dd"/><path d="M31.3 39.1l-17.7.2-1.2-19.1h20.3L31.3 39z" fill="#fff"/><g clip-path="url(#a)" transform="matrix(1.25 0 0 -1.25 0 45)"><path d="M27.8 31.6L25.8 4c0-1.5-.7-2-1.9-2H12.1c-1 0-1.8.6-2 2l-2 27.6" fill="none" stroke="#8899a6" stroke-width="2.4" stroke-linecap="round" stroke-miterlimit="10"/><path d="M8.2 31.6l1.7-22c.3-3.6.7-5.6 5.5-5.6H18m9.8 27.6l-1.7-22C25.8 6 25.3 4 20.6 4H18" fill="none" stroke="#8899a6" stroke-width="2" stroke-linecap="round" stroke-miterlimit="10"/><path d="M29 32c0-1.8-2.7-3.2-11-3.2S7 30.2 7 32c0 1.6 2.7 3 11 3s11-1.4 11-3" fill="#ccd6dd"/><path d="M28.5 31.9a1 1 0 0 1-1.4.3c-2-1.5-7.2-1.6-9-1.6H18c-1.8 0-7 .1-9.1 1.5a1 1 0 0 1-1.1-1.6c2.6-1.7 8-1.9 9.7-1.9h1c1.9 0 7.2.2 9.8 1.9a1 1 0 0 1 .2 1.4" fill="#fff"/><path d="M25.8 20c0-.9-3.5-1.5-7.8-1.5s-7.8.6-7.8 1.4c0 .8 3.5 1.5 7.8 1.5s7.8-.6 7.8-1.5" fill="#e1e8ed"/><path d="M25.2 2.6H11.1v1.9h14.1V2.6z" fill="#8899a6"/></g></svg>