<svg xmlns="http://www.w3.org/2000/svg" viewBox="0 0 45 45"><defs><clipPath id="a"><path d="M0 36h36V0H0v36z"/></clipPath><clipPath id="b"><path d="M11.8 23C4.2 15.4-1.2 3 .5 1.1c1.8-1.8 14.3 3.7 22 11.3C30 20 30 24 26.6 27.3a6.4 6.4 0 0 1-4.5 2c-2.6 0-5.8-1.7-10.4-6.3"/></clipPath></defs><g clip-path="url(#a)" transform="matrix(1.25 0 0 -1.25 0 45)"><path d="M31.1 27c3.5 2.2 4.4 8.4 3.7 7.7.7.7-5.7 0-7.8-3.6 0 1.5-1.4 7.1-3.5 2.2-2.1-5-1.4-5.7-1.4-7.1 0-1.4 2.8-1.4 2.8-1.4s-.1-2.7 1.3-2.7c1.4 0 2-.6 7 1.5 4.9 2.1-.7 3.5-2.1 3.5" fill="#77b255"/><path d="M22.4 12.4C14.8 4.8 2.3-.6.5 1.1-1.3 2.9 4.2 15.4 11.8 23c7.6 7.6 11.5 7.6 14.9 4.3 3.3-3.4 3.3-7.3-4.3-15" fill="#f4900c"/></g><g clip-path="url(#b)" transform="matrix(1.25 0 0 -1.25 0 45)"><path d="M16.1 29.5a28.5 28.5 0 0 1 5.8-8c1.1-1.2-5.8 1-8 5.7-2.3 4.6 2.2 2.3 2.2 2.3m-7.4-8.1a28.4 28.4 0 0 1 5.7-8c1.1-1.2-5.7 1.1-8 5.7s2.3 2.3 2.3 2.3m16.5-8.5a28.5 28.5 0 0 0-8 5.7c-1.2 1.2 1.1-5.7 5.7-8s2.3 2.3 2.3 2.3m-9-8a28.5 28.5 0 0 0-8 5.7C7 11.8 9.3 5 13.9 2.6S16.2 5 16.2 5" fill="#d67503"/></g></svg>