<svg xmlns="http://www.w3.org/2000/svg" viewBox="0 0 45 45"><defs><clipPath id="a"><path d="M0 36h36V0H0v36z"/></clipPath></defs><g clip-path="url(#a)" transform="matrix(1.25 0 0 -1.25 0 45)"><path d="M5 34.1c1-1 2-4 2-5s-1-3-2-1-1 3-2 4c-1.7 1.8 1 3 2 2" fill="#77b255"/><path d="M8 32.1c3 .8 5-2 8-6s6.7-7.5 8.5-8.9C28.8 14 35 10 35 5.2c0-4-2.6-5.5-7.8-5.1-5 .3-10.7 4.6-15.2 10a47 47 0 0 0-9 14c-1 3 1 7 5 8" fill="#77b255"/><path d="M5.3 24.4c1.6-2.6 8.2-14 19.2-20.8M6.5 28c1.7-2.5 8.3-13.5 21.7-22.4M10.6 28c1.8-2.7 6.2-9.2 13.7-14.8" fill="none" stroke="#5c913b" stroke-width="1.5" stroke-linecap="round" stroke-linejoin="round" stroke-miterlimit="10"/></g></svg>