<svg xmlns="http://www.w3.org/2000/svg" viewBox="0 0 45 45"><defs><clipPath id="a"><path d="M0 36h36V0H0v36z"/></clipPath><clipPath id="b"><path d="M25.8 19h2.6v-8.5h-2.6V19z"/></clipPath></defs><g clip-path="url(#a)" transform="matrix(1.25 0 0 -1.25 0 45)"><path d="M36 12c0-5.5-8-10-18-10S0 6.6 0 12s8 10 18 10 18-4.4 18-10" fill="#929497"/><path d="M36 13.8c0-5.5-8-10-18-10S0 8.3 0 13.8s8 10 18 10 18-4.5 18-10" fill="#ccd6dc"/><path d="M32 15.6c0-4.3-6.3-7.8-14-7.8S4 11.3 4 15.6s6.3 7.8 14 7.8 14-3.5 14-7.8" fill="#f19020"/><path d="M32 17.8c0-4.3-6.3-7.8-14-7.8S4 13.5 4 17.8s6.3 7.7 14 7.7 14-3.4 14-7.7" fill="#faaa35"/><path d="M32 20c0-4.4-6.3-7.9-14-7.9S4 15.6 4 20s6.3 7.8 14 7.8 14-3.5 14-7.8" fill="#f19020"/><path d="M32 22c0-4.2-6.3-7.7-14-7.7S4 17.8 4 22s6.3 7.7 14 7.7 14-3.4 14-7.7" fill="#faaa35"/><path d="M32 24.2c0-4.3-6.3-7.8-14-7.8S4 20 4 24.2 10.3 32 18 32s14-3.5 14-7.8" fill="#f19020"/><path d="M15.3 29.6c-4 1.2-5.6.6-5.3-2.5 0-.8-1-2.1-2.2-3-2.6-1.7-1.5-4.7 3-2.5 2.2 1.1 5.4 1 9.4-.2 3.3-1 5.3-2.2 5.6-3.6.9.3 2 .7 2.6 1.2a7.4 7.4 0 0 1-3.4 3.3c-3.6 1.6 0 3.9 2.6 4.4 2.5.5 0 2.4-3.7 2.3-3.7 0-2.8-1.1-8.6.6" fill="#d17a28"/><g clip-path="url(#b)" opacity=".5"><path d="M25.8 17.8v-6c0-2.1 2.6-1.7 2.6 1.7v5.6l-2.6-1.3z" fill="#d17a28"/></g><path d="M22.1 27.4s.1-1.2-.3-1.5l-3-1.7a1.7 1.7 0 0 0-1.6 0l-3 1.7c-.4.3-.3 1.6-.3 1.6l3.3 1c.5.3 1.1.3 1.6 0l3.3-1z" fill="#faaa35"/><path d="M21.8 27.9c.2-.1.3-.3.3-.5 0-.1 0-.3-.3-.4l-3-1.7a1.7 1.7 0 0 0-1.6 0l-3 1.7c-.2.1-.3.3-.3.4 0 .2 0 .4.3.5l3 1.7c.5.3 1.1.3 1.6 0l3-1.7z" fill="#ffd882"/></g></svg>