<svg xmlns="http://www.w3.org/2000/svg" viewBox="0 0 45 45"><defs><clipPath id="a"><path d="M0 36h36V0H0v36z"/></clipPath><clipPath id="b"><path d="M25.774 19.045h2.659v-8.558h-2.659v8.558z"/></clipPath></defs><g clip-path="url(#a)" transform="matrix(1.25 0 0 -1.25 0 45)"><path d="M36 12.052c0-5.523-8.059-10-18-10s-18 4.477-18 10c0 5.522 8.059 10 18 10s18-4.478 18-10" fill="#929497"/><path d="M36 13.802c0-5.523-8.059-10-18-10s-18 4.477-18 10c0 5.522 8.059 10 18 10s18-4.478 18-10" fill="#ccd6dc"/><path d="M32 15.606c0-4.295-6.268-7.778-14-7.778S4 11.311 4 15.606s6.268 7.778 14 7.778 14-3.483 14-7.778" fill="#f19020"/><path d="M32 17.76c0-4.294-6.268-7.777-14-7.777S4 13.466 4 17.76s6.268 7.778 14 7.778 14-3.483 14-7.778" fill="#faaa35"/><path d="M32 19.915c0-4.295-6.268-7.778-14-7.778S4 15.62 4 19.915s6.268 7.778 14 7.778 14-3.483 14-7.778" fill="#f19020"/><path d="M32 22.068c0-4.295-6.268-7.778-14-7.778S4 17.773 4 22.068s6.268 7.778 14 7.778 14-3.483 14-7.778" fill="#faaa35"/><path d="M32 24.222c0-4.295-6.268-7.778-14-7.778S4 19.927 4 24.222 10.268 32 18 32s14-3.483 14-7.778" fill="#f19020"/><path d="M16.519 25.552a.016.016 0 0 0-.017-.017h-.033a.016.016 0 0 0-.017.017c0 .009.007.017.017.017h.033c.01 0 .017-.008.017-.017" fill="#ffd882"/><path d="M15.341 29.64c-3.97 1.212-5.645.602-5.385-2.523.068-.808-1.043-2.154-2.154-2.928-2.583-1.8-1.472-4.81 2.962-2.591 2.222 1.11 5.46 1.035 9.39-.168 3.298-1.01 5.351-2.188 5.62-3.67.875.297 1.942.76 2.658 1.285-.27.614-1.48 2.418-3.398 3.26-3.629 1.59-.125 3.884 2.591 4.44 2.457.506.034 2.357-3.702 2.29-3.736-.067-2.796-1.16-8.582.606" fill="#d17a28"/><g clip-path="url(#b)" opacity=".5"><path d="M25.774 17.76c0-3.062.067-4.92.067-5.99 0-2.086 2.558-1.716 2.558 1.75 0 3.467.033 5.525.033 5.525l-2.658-1.284z" fill="#d17a28"/></g><path d="M22.122 27.43s.106-1.248-.314-1.488l-3.046-1.736c-.42-.24-1.103-.24-1.523 0l-3.047 1.736c-.42.24-.315 1.511-.315 1.511l3.362 1.093c.42.24 1.102.24 1.523 0l3.36-1.117z" fill="#faaa35"/><g><path d="M21.808 27.887c.22-.126.326-.293.314-.458-.01-.148-.115-.296-.314-.41l-3.046-1.736c-.421-.24-1.102-.24-1.523 0l-3.046 1.736c-.211.12-.316.277-.316.434 0 .157.105.314.316.434l3.046 1.736c.42.24 1.102.24 1.523 0l3.046-1.736z" fill="#ffd882"/></g></g></svg>