<svg xmlns="http://www.w3.org/2000/svg" viewBox="0 0 45 45"><defs><clipPath id="a"><path d="M0 36h36V0H0v36z"/></clipPath><clipPath id="b"><path d="M5.5 35s-2.2-3-2-5c.1-2-3-5-3-5 0-1 1-3 3-4 1-.5 2.4-.5 4-2 1.5-1.6 2.7-6.1 4.3-7.7C13.4 9.7 17 9.5 18.5 8c1.5-1.6 1.1-3.3 2-4 1.8-1.6 3-3 4-3 0 0 3 1 4 1 2.8 0 7 3 7 3s1 1-5 5c-1.2.7-1 4-3 6s-5 2-7 4-2 5-4 7-5.3 1.8-6 3c-3 4.5-4.3 5-4.8 5h-.2"/></clipPath></defs><g clip-path="url(#a)" transform="matrix(1.25 0 0 -1.25 0 45)"><path d="M20.5 4c-.9.7-.5 2.4-2 4s-5.1 1.8-6.7 3.3C10.2 13 9 17.4 7.5 19c-1.6 1.5-3 1.5-4 2-2 1-3 3-3 4 0 0 3.1 3 3 5-.2 2 2 5 2 5s1 1 5-5c.7-1.2 4-1 6-3s2-5 4-7 5-2 7-4 1.8-5.3 3-6c6-4 5-5 5-5s-4.2-3-7-3c-1 0-4-1-4-1-1 0-2.2 1.4-4 3" fill="#dd2e44"/></g><g clip-path="url(#b)" transform="matrix(1.25 0 0 -1.25 0 45)"><path d="M19.6 3.5c-1 .6-.8 3.1-2.3 4.7-1.6 1.6-4 1.6-5.5 3.1-1.5 1.6-1.5 4-3.1 5.5S4.7 18.2 4 19C1.8 22.5.7 23 .4 23l5 11.9s1 1 5-5c.9-1.2 4-1 6-3s2-5 4-7 5-2 7-4 1.9-5.3 3-6c6-4 5-5 5-5L23.6-.2c0 .4-.5 1.5-4 3.7" fill="#dd2e44"/><path d="M34.5 4l-14-6-22 22 6 14s1 1 5-5c.7-1.2 4-1 6-3s2-5 4-7 5-2 7-4 1.8-5.3 3-6c6-4 5-5 5-5" fill="#f4abba"/><path d="M33.5 3l-14-6-22 22 6 14s1 1 5-5c.7-1.2 4-1 6-3s2-5 4-7 5-2 7-4 1.8-5.3 3-6c6-4 5-5 5-5" fill="#ffe8b6"/><path d="M32.5 2l-14-6-22 22 6 14s1 1 5-5c2-3 4-2 6-4s2-4 4-6 4-2 6-4 1-4 4-6c6-4 5-5 5-5" fill="#ea596e"/><path d="M30.5 0l-14-6-22 22 6 14s1 2 5-4c.7-1.2 4-1 6-3s2-6 4-8 5-2 7-4 2.8-5.3 4-6c6-4 4-5 4-5" fill="#ffe8b6"/><path d="M29.5-1l-14-6-22 22 6 14s1 1 5-5c.7-1.2 4-1 6-3s2-5 4-7 5-2 7-4 1.8-5.3 3-6c6-4 5-5 5-5" fill="#ea596e"/><path d="M28.5-2l-14-6-22 22 6 14s1 1 5-5c.7-1.2 4-1 6-3s2-5 4-7 5-2 7-4 1.8-5.3 3-6c6-4 5-5 5-5" fill="#dd2e44"/></g></svg>