<svg xmlns="http://www.w3.org/2000/svg" viewBox="0 0 45 45"><defs><clipPath id="a"><path d="M0 36h36V0H0v36z"/></clipPath></defs><g clip-path="url(#a)" transform="matrix(1.25 0 0 -1.25 0 45)"><path d="M17.3 4.5C12.5-.3 6-1.1 2.6 2.4-1 5.9 0 12.4 4.6 17c3.4 3.3 6.8 3.3 9.3 5.8 2.5 2.6 1.7 5 5.5 8.8 4.6 4.7 10.4 5.5 14.2 1.7 3.8-3.7 2.8-9.7-1.7-14.2-3.7-3.8-6.3-3-8.8-5.5-2.5-2.5-2.5-5.9-5.8-9.2" fill="#d99e82"/><path d="M8.2 15.6l2 1.1c3.9 1.5 7.4 4.3 8.4 7.7M3.2 6.7c0 1.9.2 4.4 2.2 6.3m1.9-5.6a8 8 0 0 0 5.2 6m12.4 5c4.3 1.5 7.4 4.5 8.6 9.7M29 26.6a9 9 0 0 0-4.6-4.5M15.7 15a6.6 6.6 0 0 1 2.8 2.3m1.2 10.4a4.7 4.7 0 0 0 1.7 2.3M6.6 4.4a5 5 0 0 1-.1-1.3" fill="none" stroke="#c1694f" stroke-width="2" stroke-linecap="round" stroke-miterlimit="10"/></g></svg>