<svg xmlns="http://www.w3.org/2000/svg" viewBox="0 0 45 45"><defs><clipPath id="a"><path d="M0 36h36V0H0v36z"/></clipPath></defs><g clip-path="url(#a)" transform="matrix(1.25 0 0 -1.25 0 45)"><path d="M1.4 22.3c1 .8 2 1.6 2.3 2.6.3 1 3.2 2.3 3.7 2 .5-.4 1 0 1.4.7.3.7 3.5 2.5 4.2 2 .8-.4 2.1 0 2.6.5.4.5 3.9.6 4.3-.2.4-.7 1-.5 1.8-.2s3.3.3 3.6-.4c.3-.7 1.2-1.1 1.8-1 .6.2 3-.4 2.7-1.3-.2-.9.3-1.5 1.2-1.4.8 0 2.3-1.7 2.1-2.1-.1-.5.4-1 1-1.2.6-.3.7-2.6-.9-3.1-1.5-.6-27-2.9-29-.7a22 22 0 0 0-2.8 3.8" fill="#ffd983"/><path d="M20.9 23.2c-.5-4.5-3.1-8-4.8-7.8-1.8.2-2.8 4-2.4 8.5.5 4.4 1.7 7.4 4 7.4 2.5 0 3.7-3.7 3.2-8.1" fill="#ffd983"/><path d="M26 22.8c-.5-4.5-3.1-8-4.9-7.8-1.7.3-2.8 4-2.3 8.5s1.9 6 4 6.7c3 .9 3.6-3 3.2-7.4" fill="#ffd983"/><path d="M28.2 20.2c-1.6-4.2-4-7-5.5-6.4-1.5.6-1 4.3.3 8.6 1.7 5.8 4.6 6.6 6 6 1.5-.6.8-4-.8-8.2" fill="#ffd983"/><path d="M29.3 17.7c-2.8-3.4-6-5.3-7.1-4.2-1.2 1 .1 4.7 2.9 8 2.8 3.5 6 4.6 7.4 3.9 2-1-.4-4.3-3.2-7.7" fill="#ffd983"/><path d="M29.2 15.2c-4-1.2-7.8-.7-8.3 1.1-.4 1.8 2.5 4.2 6.7 5.4 4 1.2 7.5 1.3 8.3-1.2.5-1.8-2.5-4.2-6.7-5.4M17 24c-1.4 4.3-3.9 7-6.1 6-2.5-1-3-4.6-1.6-8.9 1.4-4.2 5.1-7 6.6-6.4 1.4.5 2.5 5.1 1.1 9.4" fill="#ffd983"/><path d="M11.7 22.4c-2.7 3.4-5.2 6.2-7 4.3-2-1.8-1.2-5.9 1.6-9.3 2.7-3.5 7-4.2 8.1-3.2 1.2 1 0 4.7-2.7 8.2" fill="#ffd983"/><path d="M8.4 21.2c-6.3 3-7.7 1-8.2-.5-.6-1.5 2.3-5 6.2-6.6 4-1.6 7.7-1.7 8.3-.2.5 1.6-2.4 5.5-6.3 7.3" fill="#ffd983"/><path d="M35.6 12c0-5.3-7.7-7.2-17.3-7.2-9.5 0-18 3-18 8.4 0 5.3 8.5 14.4 18 14.4 9.6 0 17.4-10.3 17.4-15.6" fill="#ffd983"/><path d="M19.5 19.4c0-3-.5-5.4-1.2-5.4-.6 0-1.2 2.4-1.2 5.4 0 3 .6 5.4 1.2 5.4s1.2-2.4 1.2-5.4m4.7.2c.5-2.5.5-4.7-.1-4.8-.6-.1-1.5 1.8-2 4.4-.5 2.5-.5 4.7.1 4.8.6 0 1.5-1.9 2-4.4m3.9-.2c1-2 1.2-3.8.7-4-.6-.3-1.8 1-2.7 3-1 2-1.3 3.8-.7 4 .5.3 1.7-1 2.7-3m-13.5 0c-.7-2.6-1.6-4.7-2.2-4.6-.6.2-.5 2.5.1 5.2.7 2.7 1.7 4.3 2.3 4.2.6-.2.4-2-.2-4.7m-4.3-.4c-1-2-2-3.3-2.6-3-.6.2-.3 2 .5 4s2.1 2.8 2.7 2.6c.6-.3.2-1.6-.6-3.6" fill="#ffac33"/><path d="M12.9 28.7c.5-.6.6-1.4.2-1.8-.4-.3-1.1-.1-1.6.5-.6.6-.7 1.4-.3 1.7.4.4 1.1.2 1.7-.4m-6.4-3.5c.2-.7 0-1.5-.4-1.7-.5-.2-1.1.3-1.4 1-.3.8 0 1.6.4 1.8.5.1 1.1-.3 1.4-1m-3.5-5c.6-.6 1-1.4.6-1.8-.3-.4-1.2-.3-1.8.3-.7.6-1 1.4-.6 1.8.3.4 1.1.3 1.8-.3m15.7 9.2c.5-.6.6-1.4.2-1.7-.4-.4-1.1-.2-1.6.4-.5.6-.6 1.4-.3 1.8.4.3 1.2.1 1.7-.5m6.3-1.4c0-1-.4-1.7-1-1.7s-1.2.6-1.2 1.5c0 1 .4 1.7 1 1.8.6 0 1.2-.7 1.2-1.6m4-2c.2-.8 0-1.5-.6-1.6-.5-.1-1 .4-1.2 1.2-.1.8.2 1.5.7 1.6.5.1 1-.4 1.2-1.2m3.2-3.5c-.4-.7-1-1-1.5-.8-.4.3-.5 1-.2 1.7s1 1 1.4.8c.5-.2.6-1 .3-1.7m2.2-3.8c-.4-.5-1-.6-1.5-.2-.5.4-.5 1.1-.1 1.6.4.6 1.1.7 1.6.3.4-.4.5-1.1 0-1.7" fill="#ffcc4d"/></g></svg>