<svg xmlns="http://www.w3.org/2000/svg" viewBox="0 0 45 45"><defs><clipPath id="a"><path d="M0 36h36V0H0v36z"/></clipPath></defs><g clip-path="url(#a)" transform="matrix(1.25 0 0 -1.25 0 45)"><path d="M5.5 5.8c-7 7-6.4 19.1 1.4 26.9L32.4 7.2C24.6-.5 12.5-1.2 5.5 5.8" fill="#8b5e3c"/><path d="M7 32.7c-4-3.9-1.5-12.8 5.6-19.8 7-7 15.9-9.6 19.8-5.6 3.9 3.9 1.4 12.7-5.7 19.8-7 7-15.9 9.5-19.8 5.6" fill="#603913"/><path d="M31.6 11.8a1 1 0 0 1 1.7.4c0 .3 1.5 6.7-3 11.3a32.6 32.6 0 0 0-3.3 4.6c-.4.4-.7.2-1.5 1-.3.3-1.4 2.2-4.4-.6a1 1 0 0 1-.2-1.3l10.6-15.3v-.1" fill="#f5f8fa"/><path d="M25.5 29.8c-1.8 1.4-4.7.3-5.5-.4-.6-.7-.4-2 .1-2.8l10.5-15.2a2 2 0 0 1 3.6.6c.1.3 1.7 7.2-3.2 12.2-1 1-2 1.8-3 3a28.8 28.8 0 0 1-2 2.3l-.5.3zm-1.2-1.4l1.4-1.4s2.4-2.8 3.9-4.2c4.2-4.2 2.7-10.3 2.7-10.3L20.7 28.2s2.7 1 3.6.2" fill="#603913"/><path d="M8.3 31.3c-3-3.1-.6-10.7 5.7-17 6.3-6.2 13.8-8.8 17-5.6 3 3 .6 10.7-5.7 17-6.2 6.2-13.8 8.7-17 5.6" fill="#f5f8fa"/><path d="M10.4 29.1c-2.3-2.3 0-8.3 5-13.4 5-5 11-7.3 13.4-5 2.3 2.4 0 8.4-5 13.4s-11 7.3-13.4 5" fill="#99aab5"/><path d="M20.2 26l1.2.4c.5.3 1.3.3 1.9-.2l1.2-1.2a60.6 60.6 0 0 1 3-3.3 9.2 9.2 0 0 0 2.2-8.9.5.5 0 0 0-.9-.1L20 25.3a.5.5 0 0 0 .2.8" fill="#99aab5"/><path d="M23.8 10s-3.2 2-3.8 3.7c-.6 1.9-4.7 2.3-5.3 4.1a62.1 62.1 0 0 1-2.2 6c-.6 1.1-1.3 0-2 1.9a9 9 0 0 1-1.8 3.1s0-8.8 1.9-10.7c1.8-1.9 9.4-9.4 10-8.8.6.6 3.2.6 3.2.6" fill="#f5f8fa"/><path d="M22.8 8.3s-3.7 2.5-4.3 4.3c-.6 2-5.3 2.6-6 4.6-.6 2-1.5 5.4-1.8 5.8-1 1.2-1.3 0-2 2s-2 3.3-2 3.3 0-9.2 2-11.2S18.5 7.3 19.2 8c.6.6 3.6.3 3.6.3" fill="#603913"/><path d="M21.8 6.5s-3.6 2.4-4.3 4.3c-.7 2.1-6.3 3.5-7 5.6-.7 2.2-.7 5-1.4 5.7-.8.7-1.5 0-2.2 2.1-.7 2.1-2.1 3.6-2.1 3.6s0-10 2.1-12A57.7 57.7 0 0 1 18.2 5.7c.7.7 3.6.7 3.6.7" fill="#8b5e3c"/><path d="M12.8 4a.5.5 0 0 1 .3-.2c3.8-.4 6.9 1.1 7 1.2.3.1.4.5.3.7-.1.3-.4.4-.7.2 0 0-2.7-1.8-6.2-1.4-.3 0-.8 0-.9-.3 0-.2 0-.2.2-.3M2.4 13.1c.2-.1.1-.2.3-.2.3.1.3.6.3.8-.5 3.2.3 6.6 1.8 10.4.1.3 0 .6-.3.7a.9.9 0 0 1-.7-.4c-1.5-4-2-7.6-1.5-11a.5.5 0 0 1 .1-.3m8.4-10c.1.3.8.1 1.1 0a16 16 0 0 1 11.7 1.5c.3 0 .6 0 .7-.3.1-.2 0-.5-.3-.7-.2 0-4.8-2.5-12.1-1l-.8.3c-.1.1-.3 0-.3.3" fill="#a97c50"/></g></svg>