<svg xmlns="http://www.w3.org/2000/svg" viewBox="0 0 45 45"><defs><clipPath id="a"><path d="M0 36h36V0H0v36z"/></clipPath></defs><g clip-path="url(#a)" transform="matrix(1.25 0 0 -1.25 0 45)"><path d="M30 3.5c0-2-5.4-3.5-12-3.5S6 1.6 6 3.5 11.4 7 18 7s12-1.6 12-3.5" fill="#99aab5"/><path d="M30 3.5H6v1h24v-1z" fill="#99aab5"/><path d="M30 4.5c0-2-5.4-3.5-12-3.5S6 2.6 6 4.5 11.4 8 18 8s12-1.6 12-3.5" fill="#e6e7e8"/><path d="M29 5c0-1.7-5-3-11-3S7 3.3 7 5s5 3 11 3 11-1.3 11-3" fill="#5c913b"/><path d="M29 28H7V5h22v23z" fill="#5c913b"/><path d="M29 13c0-2-5-3.5-11-3.5S7 11.1 7 13s5 3.5 11 3.5 11-1.6 11-3.5" fill="#a6d388"/><path d="M29 26H7V13h22v13z" fill="#a6d388"/><path d="M29 22c0-2-5-3.5-11-3.5S7 20.1 7 22s5 3.5 11 3.5 11-1.6 11-3.5" fill="#5c913b"/><path d="M29 32H7V22h22v10z" fill="#5c913b"/><path d="M30 31.5c0-2-5.4-3.5-12-3.5S6 29.6 6 31.5 11.4 35 18 35s12-1.6 12-3.5" fill="#99aab5"/><path d="M30 31.5H6v1h24v-1z" fill="#99aab5"/><path d="M30 32.5c0-2-5.4-3.5-12-3.5S6 30.6 6 32.5 11.4 36 18 36s12-1.6 12-3.5" fill="#e6e7e8"/><path d="M28.3 32.5c0-1.4-4.6-2.5-10.3-2.5S7.7 31.1 7.7 32.5 12.3 35 18 35s10.3-1.1 10.3-2.5" fill="#ccd6dd"/><path d="M27.3 32.5c0-1.1-4.2-2-9.3-2s-9.3.9-9.3 2 4.2 2 9.3 2 9.3-.9 9.3-2" fill="#e6e7e8"/><path d="M24 32.5c0-.7-2.7-1.3-6-1.3s-6 .6-6 1.3 2.7 1.3 6 1.3 6-.6 6-1.3" fill="#ccd6dd"/><path d="M22.8 32.5c0-.4-2.2-.8-4.8-.8s-4.8.4-4.8.8 2.2.8 4.8.8 4.8-.4 4.8-.8" fill="#e6e7e8"/><path d="M25 15c0-4.1-3.1-7.5-7-7.5s-7 3.4-7 7.5 3.1 7.5 7 7.5 7-3.4 7-7.5" fill="#ffcc4d"/><path d="M23 15c0-3.2-2.2-5.7-5-5.7s-5 2.5-5 5.7 2.2 5.7 5 5.7 5-2.5 5-5.7" fill="#ffac33"/></g></svg>