<svg xmlns="http://www.w3.org/2000/svg" viewBox="0 0 45 45"><defs><clipPath id="a"><path d="M0 36h36V0H0v36z"/></clipPath></defs><g clip-path="url(#a)" transform="matrix(1.25 0 0 -1.25 0 45)"><path d="M26.9 28H18V0c6 0 10 1 11.4 7 .8 3.4 1.7 12.3 1.7 17.9 0 1.8-1.5 3.1-4.2 3.1m-18 0H18V0C12 0 8 1 6.5 7a103 103 0 0 0-1.7 18c0 1.8 1.3 3.1 4 3.1" fill="#8899a6"/><path d="M31 25.5c0-2-3-3.8-13-3.8S5 23.4 5 25.6c0 2 3 3.8 13 3.8s13-1.7 13-3.8" fill="#ccd6dd"/><path d="M18 23L6.5 24c0-7 1.1-14.4 1.7-16.6C8.9 5 11 5 18 5c7 0 9.2 0 9.8 2.4.6 2.2 1.7 9.6 1.7 16.6L18 23z" fill="#ccd6dd"/><path d="M18 15V2c7 0 9 1 9.9 5.4.2 1.3.8 4.1 1.1 7.6H18zM7 15c.4-3.5 1-6.3 1.2-7.6C9 3 11 2 18 2v13H7z" fill="#55acee"/><path d="M18 5.8c-4.6 0-8.3-.9-8.3-2C11.3 2.4 13.7 2 18 2s6.8.4 8.2 1.8c0 1.1-3.6 2-8.2 2" fill="#3b88c3"/><path d="M29 15c0-1.1-5-2-11-2s-11 .9-11 2 5 2 11 2 11-.9 11-2" fill="#88c9f9"/><path d="M34 35l-7-1.5a6.8 6.8 0 0 1-2.4-1.3 6.1 6.1 0 0 1-2.2-3.8L18.3 14h3.2l3.8 13.4a5 5 0 0 0 1.2 2.3c.5.5 1.4.7 2.2 1l6 1.4a1.5 1.5 0 0 1 1 1.9 1.5 1.5 0 0 1-1.7 1" fill="#e1e8ed"/><path d="M18.3 14l-2.6-9.3a1.5 1.5 0 0 1 1-1.8 1.5 1.5 0 0 1 1.9 1L21.4 14h-3.2z" fill="#88c9f9"/><path d="M18.6 13.3L18 13l-.2-1 2-3.6.8 2.7-1.2 2.2h-.8z" fill="#744eaa"/><path d="M27.9 33.6l-1.1-3.7a6.7 6.7 0 0 0 1.9.8h.4l1 3.4-2.2-.5" fill="#dd2e44"/><path d="M17 9.5l-.7-2.7 2-3.5.2.6.6 2-2 3.6z" fill="#744eaa"/><path d="M20 20l-.7-2.8 1.3-2.4.5-.1.6.3.4 1.3-2 3.6zm14.5 15a1.5 1.5 0 0 1-.5 0l-1.7-.5-1-3.3 2.2.6 1 3.2zM20.8 22.5l2-3.7.8 2.7-2 3.7-.8-2.7zm3.9 9.6a5.3 5.3 0 0 1-1.6-2l1.3-6 1 3.3.1.7-.8 4z" fill="#dd2e44"/><path d="M18.7 15.1L18 13h3.1l.6 2.1c-1-.5-3-.2-3.1 0" fill="#55acee"/><path d="M29.6 24.7a1.2 1.2 0 0 1-1.6.7 28 28 0 0 0-10-2V21c3.3 0 7.1.6 11 2 .6.3.9 1 .6 1.7m-23.2 0c.2.6 1 1 1.6.7a28 28 0 0 1 10-2V21a33 33 0 0 0-11 2c-.5.3-.9 1-.6 1.7" fill="#fff"/></g></svg>