<svg xmlns="http://www.w3.org/2000/svg" viewBox="0 0 45 45"><defs><clipPath id="a"><path d="M0 36h36V0H0v36z"/></clipPath></defs><g clip-path="url(#a)" transform="matrix(1.25 0 0 -1.25 0 45)"><path d="M5.506 5.833c-7.03 7.029-6.397 19.059 1.414 26.87L32.376 7.247c-7.81-7.812-19.84-8.443-26.87-1.414" fill="#8b5e3c"/><path d="M6.92 32.703c-3.905-3.905-1.373-12.77 5.656-19.8 7.031-7.029 15.895-9.56 19.8-5.656 3.905 3.904 1.373 12.77-5.657 19.8-7.03 7.03-15.895 9.56-19.799 5.656" fill="#603913"/><path d="M31.591 11.783a.997.997 0 0 1 1.677.47c.068.268 1.575 6.67-3.013 11.257-1.12 1.12-2.783 3.774-3.256 4.544-.4.415-.734.27-1.498 1.035-.35.35-1.405 2.248-4.439-.629a.989.989 0 0 1-.116-1.275l10.528-15.262c.036-.05.075-.098.117-.14" fill="#f5f8fa"/><path d="M25.542 29.792c-1.833 1.437-4.777.315-5.5-.396-.683-.682-.467-1.984.08-2.778l10.53-15.263a1.998 1.998 0 0 1 3.588.658c.072.293 1.704 7.223-3.277 12.205-.892.892-1.94 1.737-2.91 2.912a28.766 28.766 0 0 1-2.074 2.329l-.437.333zm-1.27-1.354c.707-.707 1.457-1.417 1.457-1.417s2.404-2.803 3.82-4.217c4.24-4.243 2.75-10.313 2.75-10.313L20.646 28.167s2.792 1.042 3.626.27" fill="#603913"/><path d="M8.334 31.289c-3.124-3.124-.592-10.722 5.657-16.97 6.248-6.248 13.846-8.781 16.97-5.657 3.124 3.124.592 10.722-5.656 16.97-6.249 6.249-13.847 8.78-16.97 5.657" fill="#f5f8fa"/><path d="M10.412 29.123c-2.319-2.318-.084-8.314 4.993-13.391 5.079-5.078 11.072-7.312 13.392-4.994 2.318 2.319.083 8.314-4.994 13.391s-11.073 7.313-13.391 4.994" fill="#99aab5"/><path d="M20.199 26.06l1.176.336c.562.312 1.355.334 1.896-.166l1.212-1.273c.573-.69 1.918-2.138 2.994-3.214 3.807-3.807 2.319-8.722 2.254-8.93a.5.5 0 0 0-.888-.135l-8.797 12.669a.5.5 0 0 0 .153.714" fill="#99aab5"/><path d="M23.76 9.944s-3.21 2.085-3.771 3.771c-.63 1.885-4.662 2.252-5.29 4.138-.627 1.885-1.676 4.765-2.253 5.918-.576 1.153-1.258.001-1.886 1.886-.628 1.887-1.884 3.144-1.884 3.144s0-8.8 1.884-10.686c1.886-1.886 9.429-9.429 10.058-8.799.628.628 3.142.628 3.142.628" fill="#f5f8fa"/><path d="M22.838 8.27s-3.73 2.537-4.316 4.294c-.655 1.964-5.29 2.619-5.945 4.583-.655 1.964-1.595 5.486-1.913 5.892-.916 1.179-1.308 0-1.964 1.963-.654 1.967-1.963 3.275-1.963 3.275s0-9.166 1.963-11.13c1.964-1.965 9.821-9.821 10.476-9.166.656.654 3.662.289 3.662.289" fill="#603913"/><path d="M21.77 6.54s-3.61 2.345-4.243 4.242c-.707 2.121-6.365 3.536-7.072 5.658-.707 2.121-.707 4.949-1.414 5.656-.707.708-1.414 0-2.12 2.122-.708 2.121-2.122 3.535-2.122 3.535s0-9.899 2.121-12.021c2.121-2.121 10.606-10.606 11.313-9.899.708.707 3.536.707 3.536.707" fill="#8b5e3c"/><path d="M12.804 3.937a.47.47 0 0 1 .28-.132c3.768-.427 6.892 1.136 7.024 1.203.27.137.4.456.29.714-.108.26-.417.357-.688.218-.029-.015-2.743-1.843-6.18-1.453-.286.033-.827.016-.889-.275-.037-.175.052-.165.163-.275M2.447 13.116c.115-.114.107-.212.29-.165.288.073.298.516.255.798-.492 3.19.36 6.504 1.841 10.352.108.28-.027.575-.294.652-.27.079-.579-.084-.686-.365-1.555-4.033-2.057-7.635-1.536-11.012a.461.461 0 0 1 .13-.26m8.364-9.968c.091.285.836.06 1.113-.001 6.935-1.526 11.66 1.385 11.712 1.409.272.136.58.034.685-.223.106-.258-.026-.578-.296-.712-.225-.113-4.808-2.55-12.125-.94-.09.02-.72.13-.782.192-.122.122-.369.083-.307.275" fill="#a97c50"/></g></svg>