<svg xmlns="http://www.w3.org/2000/svg" viewBox="0 0 45 45"><defs><clipPath id="a"><path d="M0 36h36V0H0v36z"/></clipPath></defs><g clip-path="url(#a)" transform="matrix(1.25 0 0 -1.25 0 45)"><path d="M2.38 2.84c-.512.324 1.13 3.04 1.453 3.577L20.039 34.22c.933 1.55 1.936 1.551 2.846.974.91-.576 1.337-1.484.334-2.99L5.083 5.75c-.347-.522-2.191-3.234-2.703-2.91" fill="#c1694f"/><path d="M22.885 35.195c-.91.577-1.913.575-2.846-.974l-3.357-5.76c.336-.92 1.924-1.75 2.901-1.56l3.636 5.304c1.002 1.505.576 2.413-.334 2.99" fill="#662113"/><path d="M5.584.802c-.414.443 1.885 2.593 2.333 3.03l22.649 22.9c1.293 1.266 2.265 1.015 3 .228.736-.787.92-1.773-.428-2.978L8.542 2.67C8.075 2.253 5.998.359 5.584.802" fill="#c1694f"/><path d="M33.566 26.96c-.736.787-1.707 1.037-3-.227l-4.576-4.627c.057-.93 1.498-2.183 2.376-2.259l4.771 4.135c1.35 1.205 1.165 2.191.43 2.978" fill="#662113"/></g></svg>