<svg xmlns="http://www.w3.org/2000/svg" viewBox="0 0 45 45"><defs><clipPath id="a"><path d="M0 36h36V0H0v36z"/></clipPath></defs><path d="M2.5 8.8L6.3 45h32.5l3.7-36.3h-40z" fill="#e1e8ed"/><path d="M2.5 8.8L6.3 45h12.4L17.6 8.7h-15z" fill="#99aab5"/><g clip-path="url(#a)" transform="matrix(1.25 0 0 -1.25 0 45)"><path d="M34.9 35.4a1 1 0 0 1-.9.6H16a1 1 0 0 1-.8-.4L9.4 29H12l4.5 5h15.4l-6.7-8.4a1 1 0 0 1 1.6-1.2l8 10a1 1 0 0 1 .1 1" fill="#66757f"/><path d="M30.5 4h-14l2.2 3h10l1.8-3zm-3 4H20l.8 1h6l.6-1zm1.3 2h-10l2.2 3h6l1.8-3zM27 14h-6l1 1h4l1-1zm.1 2h-6l2.2 3h2l1.8-3zm-1.8 4h-2l1.2 3 .8-3z" fill="#dd2e44"/><path d="M14 4H5.2l1 3h6.2L14 4zm-2.5 4H6.8l.4 1H11l.5-1zm.6 2H5.8l1 3h3.7l1.6-3zm-1.7 4H6.6l.6 1h2.5l.7-1zm-.2 2H6.4l1 3h1.2l1.6-3zm-1.7 4H7.3l.3 3 1-3z" fill="#be1931"/></g></svg>