<svg xmlns="http://www.w3.org/2000/svg" viewBox="0 0 45 45"><defs><clipPath id="a"><path d="M0 36h36V0H0v36z"/></clipPath></defs><g clip-path="url(#a)" transform="matrix(1.25 0 0 -1.25 0 45)"><path d="M7.728 32.868s.418 1.003 1.661.838c1.243-.165 9.668-1.593 13.676-3.454 4.01-1.861 8.53-4.06 11.358-7.384.75-.883.445-1.53.445-1.53l-1.036-7.436s-.3-1.49-1.737-1.886L2.507 3.862S1 3.517 1 5.069v7.765s.152.933.52 2.026c.369 1.094 6.208 18.008 6.208 18.008" fill="#f4900c"/><path d="M30.61 15.453c-4.449 4.258-15.01 9.22-22.836 9.965a.49.49 0 0 1-.506-.329S.99 6.48.99 6.171c0-.15.07-.293.187-.386a.496.496 0 0 1 .42-.088l29.418 8.115c.186.048.28.155.313.344.06.332-.077.684-.719 1.297" fill="#a0041e"/><path d="M31.323 14.121L1 5.971v7.112s5.331 11.975 6.397 19.255C24.142 29.92 32.15 21.222 32.15 21.222l-.826-7.1z" fill="#a0041e"/><path d="M8.188 10.468a2.572 2.572 0 0 0-2.574-2.572 2.572 2.572 0 1 0 0 5.145 2.572 2.572 0 0 0 2.573-2.573M13.188 14.468a2.572 2.572 0 0 0-2.574-2.572 2.572 2.572 0 1 0 0 5.145 2.572 2.572 0 0 0 2.573-2.573M19.188 13.468a2.572 2.572 0 0 0-2.573-2.572 2.572 2.572 0 1 0 0 5.145 2.572 2.572 0 0 0 2.573-2.573M24.188 17.468a2.572 2.572 0 0 0-2.573-2.572 2.572 2.572 0 1 0 0 5.145 2.572 2.572 0 0 0 2.573-2.573M30.188 16.468a2.572 2.572 0 0 0-2.573-2.572 2.572 2.572 0 1 0 0 5.145 2.572 2.572 0 0 0 2.573-2.573" fill="#be1931"/><path d="M32.096 22.502c-4.448 4.258-16.495 9.17-24.321 9.916a.491.491 0 0 1-.507-.329S2.286 18.262 1.076 14.468C.9 13.92.99 13.21.99 13.171c0-.15.069-.293.187-.386a.493.493 0 0 1 .418-.088l30.798 7.747a.487.487 0 0 1 .359.389c.06.331-.015 1.055-.657 1.669" fill="#f4900c"/><path d="M32.096 22.502c-4.448 4.258-16.495 9.17-24.321 9.916a.491.491 0 0 1-.507-.329S.99 14.48.99 14.171c0-.15.069-.293.187-.386a.493.493 0 0 1 .418-.088l30.194 7.739a.49.49 0 0 1 .36.389c.059.331.588.063-.054.677" fill="#f4900c"/><path d="M18.27 25.808l1.842-2.49-4.301-.429-1.806 2.415 4.265.504zM9.65 15.761l-1.834 2.457 4.458.526 1.437-1.942 5.583 1.431-.921 1.233 4.218.498.571-.772 5.57 1.456-.029.04.325.037 3.613.945a2.15 2.15 0 0 1-.545.832c-.613.586-1.38 1.184-2.249 1.783l-3.57-.355-1.941 2.595 1.416.168c-3.435 1.761-7.531 3.361-11.415 4.435l1.437-1.944-4.348-.432-1.669 2.232 3.527.417c-1.951.496-3.83.857-5.509 1.017a.492.492 0 0 1-.507-.329S5.892 28.503 4.5 24.35l3.454.24 1.708-2.31-4.539-.452-1.022 1.338c-.721-2.154-1.569-4.362-2.151-6.124l2.124-2.709 5.576 1.43z" fill="#ffcc4d"/><path d="M10.862 18.513c.807.218 2.42 1.237 4.013 1.456 1.594.219 3.53-.617 4.108-.55l2.313.274c.516.06 2.829 1.339 4.173 1.526 1.344.188 3.145-.762 3.79-.584 0 0 .72-.203 0-.294-.717-.09-2.6.646-3.644.472-1.502-.25-2.574-1.113-4.32-1.393-1.05-.17-1.791-.307-2.42-.357-1.164-.094-2.6.779-4.068.529-1.47-.25-2.275-1.243-3.945-1.404-.99-.096-.617.158 0 .325M6.542 15.552c1.194.278 2.57.742 3.108.21L6.959 14.73l-2.885-.397s.093.667 2.468 1.219M16.396 18.104c1.489.356 2.464.425 2.898.13l-2.72-1.026-2.863-.406s.247.72 2.685 1.302" fill="#f4900c"/><path d="M25.708 20.417c1.082.297 2.48.437 2.833.354 0 0 2.858.74 3.992.87 0 0-2.605-.891-3.413-1.1-.808-.207-5.9-1.615-5.959-1.35-.057.268.88.768 2.547 1.226" fill="#f4900c"/><path d="M1.95 17.041s-.075 1.197.758 3.359 1.2 3.017 1.392 2.765c.193-.252-.559-2.998-.85-3.665-.292-.667-.758-2.04-.98-2.313-.22-.272-.32-.146-.32-.146M4.5 24.349s.062 1.526.437 2.589c.375 1.062 1.048 1.68 1.14 1.93.09.25.07 1.507.32 2.09.25.584.757 1.71 1.378 1.46.621-.251-1.396-4.314-1.638-5.126-.24-.813-1.637-2.943-1.637-2.943" fill="#ffcc4d"/><path d="M6.862 24.513c.807.218 2.419 1.237 4.013 1.456 1.594.219 3.53-.617 4.108-.55l2.313.274c.516.06 2.829 1.339 4.173 1.526 1.344.188 3.145-.762 3.79-.584 0 0 .719-.203 0-.294-.717-.09-2.6.646-3.645.472-1.501-.25-2.573-1.113-4.318-1.393-1.051-.17-1.792-.307-2.421-.357-1.164-.094-2.6.779-4.068.529-1.47-.25-2.276-1.243-3.945-1.404-.99-.096-.617.158 0 .325M8.848 18.34c-.76-.09-1.81.775-3.703.437-1.895-.34-3.195-1.736-3.195-1.736l.122-.573s-.48.337.187.544c.667.207 1.366 1.232 2.99 1.407 1.626.175 2.157-.388 3.25-.42 1.095-.03.349.34.349.34M28 20.765l1.579-.092L30 21l-.281-.89-1.313-.405-.406 1.06zM7.125 31.281c1.469.406 2.426-.322 3.489-.196 1.063.126 1.079-.167.261-.335s-2.86.545-3.706.27c-.846-.277-.985-1.15-.985-1.15l.139.873s-.162.271.802.538M9.096 22.222c2.06.33 2.204.847 3.748 1.154 1.406.28 2.281-.382 3.071-.382 1.284 0 .892.784.46.6-.906-.386-2.734.712-4.53 0-.919-.363-1.34-.865-2.749-1.042-1.409-.177-.739-.448 0-.33M19.468 23.253c.86.085 2.188.882 3.5 1.095 1.313.214 2.487-.5 3.31-.418.82.081.99.524.347.458-.642-.065-2.282.643-3.875.33-1.594-.312-2.22-.968-3.282-1.125-1.062-.156-.644-.404 0-.34M3.262 21.808c.715.188 1.459-.235 2.239.057.779.292.832.636.113.448-.718-.188-1.55.135-2.192-.12l-.16-.385zM8.531 29.031c1.355.061 2.104-.358 3.067-.262.962.095.56.341-.145.302-.703-.04-1.72.43-3.18.147-1.46-.28-1.388-.572-2.518-.817l-.255-.36s.51.105 1.083.36 1.2.597 1.948.63M15.562 29.163c.887.053 1.633.706 2.582.771l-.55.19s-1.126-.588-2.032-.653c-.906-.065-.938-.364 0-.308" fill="#f4900c"/></g></svg>