<svg xmlns="http://www.w3.org/2000/svg" viewBox="0 0 45 45"><defs><clipPath id="a"><path d="M0 36h36V0H0v36z"/></clipPath></defs><g clip-path="url(#a)" transform="matrix(1.25 0 0 -1.25 0 45)"><path d="M30 3.5C30 1.567 24.627 0 18 0 11.372 0 6 1.567 6 3.5 6 5.432 11.372 7 18 7c6.627 0 12-1.568 12-3.5" fill="#99aab5"/><path d="M30 3.5H6v1h24v-1z" fill="#99aab5"/><path d="M30 4.5C30 2.568 24.627 1 18 1 11.372 1 6 2.568 6 4.5 6 6.433 11.372 8 18 8c6.627 0 12-1.567 12-3.5" fill="#e6e7e8"/><path d="M29 5c0-1.656-4.926-3-11-3C11.924 2 7 3.344 7 5c0 1.657 4.924 3 11 3 6.074 0 11-1.343 11-3" fill="#5c913b"/><path d="M29 28H7V5h22v23z" fill="#5c913b"/><path d="M29 13c0-1.933-4.926-3.5-11-3.5-6.076 0-11 1.567-11 3.5s4.924 3.5 11 3.5c6.074 0 11-1.567 11-3.5" fill="#a6d388"/><path d="M29 26H7V13h22v13z" fill="#a6d388"/><path d="M29 22c0-1.932-4.926-3.5-11-3.5-6.075 0-10.999 1.568-10.999 3.5 0 1.933 4.924 3.5 10.999 3.5 6.074 0 11-1.567 11-3.5" fill="#5c913b"/><path d="M29 32H7V22h22v10z" fill="#5c913b"/><path d="M30 31.5c0-1.933-5.373-3.5-12-3.5-6.628 0-12 1.567-12 3.5 0 1.932 5.372 3.5 12 3.5 6.627 0 12-1.568 12-3.5" fill="#99aab5"/><path d="M30 31.5H6v1h24v-1z" fill="#99aab5"/><path d="M30 32.5c0-1.932-5.373-3.5-12-3.5-6.628 0-12 1.568-12 3.5 0 1.933 5.372 3.5 12 3.5 6.627 0 12-1.567 12-3.5" fill="#e6e7e8"/><path d="M28.25 32.5c0-1.381-4.588-2.5-10.25-2.5S7.75 31.119 7.75 32.5 12.338 35 18 35s10.25-1.119 10.25-2.5" fill="#ccd6dd"/><path d="M27.25 32.5c0-1.105-4.14-2-9.25-2s-9.25.895-9.25 2 4.14 2 9.25 2 9.25-.895 9.25-2" fill="#e6e7e8"/><path d="M24 32.5c0-.69-2.686-1.25-6-1.25s-6 .56-6 1.25 2.686 1.25 6 1.25 6-.56 6-1.25" fill="#ccd6dd"/><path d="M22.75 32.5c0-.414-2.126-.75-4.75-.75s-4.75.336-4.75.75 2.126.75 4.75.75 4.75-.336 4.75-.75" fill="#e6e7e8"/><path d="M25 15c0-4.142-3.134-7.5-7-7.5s-7 3.358-7 7.5c0 4.142 3.134 7.5 7 7.5s7-3.358 7-7.5" fill="#ffcc4d"/><path d="M23 15c0-3.156-2.238-5.714-5-5.714S13 11.844 13 15c0 3.156 2.238 5.714 5 5.714s5-2.558 5-5.714" fill="#ffac33"/></g></svg>