<svg xmlns="http://www.w3.org/2000/svg" viewBox="0 0 45 45"><defs><clipPath id="a"><path d="M0 36h36V0H0v36z"/></clipPath></defs><g clip-path="url(#a)" transform="matrix(1.25 0 0 -1.25 0 45)"><path d="M18 25c-9 0-17-3.461-17-9 0-4.154 4-7.615 10-7.615 3.454 0 7.111 2.085 9.727 2.085.092 0 .183-.003.273-.008C24.909 10.227 25 7 30 7c2.341 0 5 2.077 5 6.923C35 20.154 28 25 18 25" fill="#ffd983"/><path d="M33 18h2v-4h-2v4zM1 20h2v-4H1v4z" fill="#ffd983"/><path d="M30 11.692c-2.27 0-3.282.755-4.455 1.628-1.069.797-2.281 1.7-4.458 1.831a6.101 6.101 0 0 1-.36.011c-1.433 0-2.978-.484-4.614-.996-1.712-.535-3.481-1.089-5.113-1.089-5.215 0-9 2.912-9 6.923 0 5.396 8.244 8.307 16 8.307 9.271 0 16-4.367 16-10.385 0-4.57-2.393-6.23-4-6.23" fill="#a0041e"/><path d="M18 29c-9 0-17-3.461-17-9 0-4.154 4-7.615 10-7.615 3.454 0 7.111 2.085 9.727 2.085.092 0 .183-.003.273-.008C24.909 14.227 25 11 30 11c2.341 0 5 2.077 5 6.923C35 24.154 28 29 18 29m0-1.385c8.691 0 15-4.076 15-9.692 0-4.144-2.061-5.538-3-5.538-1.834 0-2.585.559-3.723 1.407-1.132.844-2.543 1.894-5.104 2.049a7.278 7.278 0 0 1-.446.014c-1.648 0-3.289-.514-5.026-1.057-1.615-.506-3.285-1.028-4.701-1.028-3.976 0-8 2.14-8 6.23 0 4.946 7.729 7.615 15 7.615" fill="#ffe8b6"/><path d="M16.16 27.557s2.84.058 4.84-1.326c1-.693.335-2.25.335-2.25l1.665-.52s-.061.836 3 1.385c2.25.404 4.542-1.385 4.542-1.385S28 26.923 23 27.615c-5 .692-6.84-.058-6.84-.058" fill="#ffe8b6"/><path d="M25 22.077c0-1.529-1.791-2.77-4-2.77s-4 1.241-4 2.77c0 1.53 1.791 2.77 4 2.77s4-1.24 4-2.77" fill="#e6e7e8"/><path d="M23 22.077c0-.765-.895-1.385-2-1.385-1.104 0-2 .62-2 1.385s.896 1.384 2 1.384c1.105 0 2-.619 2-1.384" fill="#a7a9ac"/></g></svg>