<svg xmlns="http://www.w3.org/2000/svg" viewBox="0 0 45 45"><defs><clipPath id="a"><path d="M0 36h36V0H0v36z"/></clipPath></defs><g clip-path="url(#a)" transform="matrix(1.25 0 0 -1.25 0 45)"><path d="M23.013 11.678l-5.546 5.546-5.547 5.547S12.375 11.587.737 8.678c0 0 1.033-2.487 3.365-4.82C6.432 1.528 8.92.496 8.92.496c2.91 11.638 14.093 11.183 14.093 11.183" fill="#77b255"/><path d="M13.83 19.406C13.103 15.77 8.738 9.95 8.738 9.95l8.729 8.73c2.909 2.908-3.637.726-3.637.726M26.195 12.86s-10.91-.727-17.457-5.819c8.001 8.001 11.638 8.728 11.638 8.728l5.819-2.909z" fill="#5c913b"/><path d="M30.156 7.808a2.383 2.383 0 0 1 1.858.688 2.399 2.399 0 0 1 0 3.394c-.085.085-.18.154-.274.224.41.101.802.304 1.123.624.31.311.508.688.613 1.084a2.38 2.38 0 0 1 1.084.614 2.4 2.4 0 0 1 0 3.394 2.4 2.4 0 0 1-1.241 4.054c.43.893.285 1.994-.456 2.735a2.375 2.375 0 0 1-1.123.624c.094.07.189.14.274.224a2.394 2.394 0 1 1-2.735 3.851 2.383 2.383 0 0 1-2.517 1.928 2.389 2.389 0 0 1-.688 1.86 2.4 2.4 0 0 1-3.394 0 2.394 2.394 0 0 1-2.735.455 2.4 2.4 0 0 1-4.713 0 2.394 2.394 0 0 1-2.735-.456 2.377 2.377 0 0 1-.625-1.123c-.07.094-.14.19-.224.274a2.393 2.393 0 1 1-3.851-2.735 2.4 2.4 0 0 1-1.24-4.054c.32-.32.712-.523 1.122-.624-.094-.07-.19-.139-.274-.224a2.402 2.402 0 0 1 1.24-4.054 2.394 2.394 0 0 1 .457-2.735 2.391 2.391 0 0 1 2.735-.456 2.378 2.378 0 0 1 1.782-1.866c-.094-.07-.188-.138-.274-.224a2.4 2.4 0 0 1 0-3.394 2.391 2.391 0 0 1 2.735-.456 2.388 2.388 0 0 1 3.005-1.844c.064-.084.124-.169.2-.246a2.384 2.384 0 0 1 1.859-.687 2.384 2.384 0 0 1 .687-1.859 2.402 2.402 0 0 1 3.395 0c.085.086.154.18.223.274.102-.41.304-.8.625-1.122a2.399 2.399 0 0 1 3.394 0c.51.51.733 1.191.688 1.858" fill="#3e721d"/><path d="M12.011 29.226a1.542 1.542 0 1 0-2.182 2.182 1.542 1.542 0 1 0 2.182-2.182M16.376 29.226a1.542 1.542 0 1 0-2.182 2.182 1.542 1.542 0 1 0 2.182-2.182M19.285 32.135a1.542 1.542 0 1 0-2.182 2.182 1.542 1.542 0 1 0 2.182-2.182M22.922 29.953a1.542 1.542 0 1 0-2.182 2.182 1.542 1.542 0 1 0 2.182-2.182" fill="#5c913b"/><path d="M25.831 29.953a1.542 1.542 0 1 0-2.182 2.182 1.542 1.542 0 1 0 2.182-2.182" fill="#5c913b"/><path d="M26.559 27.771a1.542 1.542 0 1 0-2.182 2.182 1.542 1.542 0 1 0 2.182-2.182" fill="#5c913b"/><path d="M28.74 27.044a1.542 1.542 0 1 0-2.181 2.182 1.542 1.542 0 1 0 2.182-2.182M31.65 25.589a1.542 1.542 0 1 0-2.182 2.182 1.542 1.542 0 1 0 2.182-2.182" fill="#5c913b"/><path d="M30.923 23.407a1.542 1.542 0 1 0-2.182 2.182 1.542 1.542 0 1 0 2.182-2.182M33.105 19.77a1.542 1.542 0 1 0-2.182 2.182 1.542 1.542 0 1 0 2.182-2.182M33.832 16.133a1.542 1.542 0 1 0-2.182 2.182 1.542 1.542 0 1 0 2.182-2.182" fill="#5c913b"/><path d="M28.013 23.407a1.542 1.542 0 1 0-2.182 2.182 1.542 1.542 0 1 0 2.182-2.182M25.104 26.316a1.542 1.542 0 1 0-2.182 2.182 1.542 1.542 0 1 0 2.182-2.182M21.467 28.498a1.542 1.542 0 1 0-2.182 2.182 1.542 1.542 0 1 0 2.182-2.182M17.103 27.044a1.542 1.542 0 1 0-2.182 2.182 1.542 1.542 0 1 0 2.182-2.182" fill="#5c913b"/><path d="M18.558 28.498a1.542 1.542 0 1 0-2.182 2.182 1.542 1.542 0 1 0 2.182-2.182M14.194 25.589a1.542 1.542 0 1 0-2.183 2.182 1.542 1.542 0 1 0 2.183-2.182M21.467 24.134a1.542 1.542 0 1 0-2.182 2.182 1.542 1.542 0 1 0 2.182-2.182M26.559 19.043a1.542 1.542 0 1 0-2.182 2.182 1.542 1.542 0 1 0 2.182-2.182M28.013 14.678a1.542 1.542 0 1 0-2.182 2.182 1.542 1.542 0 1 0 2.182-2.182" fill="#5c913b"/></g></svg>