<svg xmlns="http://www.w3.org/2000/svg" viewBox="0 0 45 45"><defs><clipPath id="a"><path d="M0 36h36V0H0v36z"/></clipPath></defs><path d="M2.5 8.75L6.25 45H38.75L42.5 8.75h-40z" fill="#e1e8ed"/><path d="M2.5 8.75L6.25 45h12.5l-1.25-36.25H2.5z" fill="#99aab5"/><g clip-path="url(#a)" transform="matrix(1.25 0 0 -1.25 0 45)"><path d="M34.901 35.433a1 1 0 0 1-.9.567H16a.997.997 0 0 1-.782-.376L9.44 29H12l4.48 5h15.44l-6.702-8.376a1 1 0 0 1 1.563-1.249l8 10c.24.3.286.712.12 1.058" fill="#66757f"/><path d="M30.495 4h-14l2.16 3h10l1.84-3zM27.422 8h-7.43l.769 1h6l.66-1zM28.814 10h-10l2.16 3h6l1.84-3zM27.027 14h-6l1.053 1h4l.947-1zM27.133 16h-6l2.16 3h2l1.84-3zM25.346 20h-2l1.16 3 .84-3z" fill="#dd2e44"/><path d="M14.008 4h-8.84l.945 3h6.314l1.58-3zM11.509 8h-4.69l.345 1h3.788l.557-1zM12.108 10H5.794l.946 3h3.787l1.582-3zM10.421 14H6.635l.524 1h2.526l.738-1zM10.21 16H6.42l.944 3h1.263l1.581-3zM8.522 20H7.26l.313 3 .95-3z" fill="#be1931"/></g></svg>