<svg xmlns="http://www.w3.org/2000/svg" viewBox="0 0 45 45"><defs><clipPath id="a"><path d="M0 36h36V0H0v36z"/></clipPath></defs><g clip-path="url(#a)" transform="matrix(1.25 0 0 -1.25 0 45)"><path d="M26.864 28H18V0c6 0 10 1 11.393 7.015.774 3.342 1.663 12.335 1.663 17.841 0 1.865-1.433 3.144-4.192 3.144M8.892 28H18V0C12 0 8 1 6.485 7.015 5.647 10.342 4.76 19.35 4.76 24.856 4.76 26.721 6.133 28 8.89 28" fill="#8899a6"/><path d="M31.052 25.5c0-2.071-3.13-3.75-13.057-3.75S4.938 23.429 4.938 25.5c0 2.072 3.13 3.75 13.058 3.75 9.926 0 13.057-1.678 13.057-3.75" fill="#ccd6dd"/><path d="M18.025 23.003L6.515 24c0-7 1.105-14.382 1.682-16.572C8.859 4.918 11 5.02 18 5.002V5h.025H18v.002c7 .018 9.166-.083 9.828 2.426C28.405 9.618 29.52 17 29.52 24l-11.495-.997z" fill="#ccd6dd"/><path d="M18 15V2c7 0 9 1 9.857 5.428.24 1.243.807 4.075 1.173 7.572H18zM7.019 15c.366-3.497.915-6.327 1.149-7.572C9 3 11 2 18 2v13H7.019z" fill="#55acee"/><path d="M18 5.84c-4.556 0-8.249-.895-8.249-2 0-.01.005-.018.006-.028C11.154 2.402 13.578 2 18 2c4.413 0 6.836.4 8.241 1.803.001.012.008.025.008.037 0 1.105-3.693 2-8.249 2" fill="#3b88c3"/><path d="M29.01 15c0-1.105-4.931-2-11.015-2-6.083 0-11.015.895-11.015 2s4.932 2 11.015 2c6.084 0 11.016-.895 11.016-2" fill="#88c9f9"/><path d="M33.958 35.064l-6.824-1.697c-.751-.187-1.565-.577-2.44-1.24-1.643-1.242-1.978-2.93-2.246-3.86L18.34 14h3.12l3.87 13.437c.264.916.526 1.702 1.129 2.249.534.484 1.417.769 2.244.983l5.977 1.483a1.505 1.505 0 0 1 1.094 1.817 1.504 1.504 0 0 1-1.817 1.095" fill="#e1e8ed"/><path d="M18.34 14l-2.67-9.277a1.506 1.506 0 0 1 1.025-1.857 1.505 1.505 0 0 1 1.857 1.027L21.462 14H18.34z" fill="#88c9f9"/><path d="M18.641 13.323L18.052 13l-.272-.947 2.065-3.669.777 2.697-1.26 2.24-.72.002z" fill="#744eaa"/><path d="M27.906 33.559l-1.128-3.647c.53.347 1.242.58 1.926.757l.434.108 1.035 3.346-2.267-.564" fill="#dd2e44"/><path d="M17.045 9.5l-.777-2.696 1.963-3.485c.143.16.258.353.321.574l.559 1.939L17.045 9.5z" fill="#744eaa"/><path d="M20.048 19.932l-.777-2.698 1.381-2.452.471-.105.627.323.363 1.262-2.065 3.67zM34.495 35.093a1.482 1.482 0 0 1-.537-.03l-1.695-.42-1.036-3.348 2.267.563 1 3.235zM20.791 22.512l2.066-3.669.776 2.697-2.066 3.67-.776-2.698zM24.653 32.091a5.351 5.351 0 0 1-1.602-2.022l1.32-5.968.96 3.335c.066.23.133.452.204.664l-.882 3.991z" fill="#dd2e44"/><path d="M18.663 15.119L18.053 13c1.094 0 2.15.03 3.147.086l.585 2.032c-.937-.483-2.894-.182-3.122 0" fill="#55acee"/><path d="M29.615 24.691c-.242.65-.954.975-1.584.724a28.083 28.083 0 0 0-10.036-1.937v-2.492c3.333.034 7.09.577 10.913 2.08.633.248.95.976.707 1.625M6.375 24.691c.242.65.954.975 1.584.724a28.083 28.083 0 0 1 10.036-1.937v-2.492c-3.333.034-7.089.577-10.913 2.08-.633.248-.95.976-.707 1.625" fill="#fff"/></g></svg>