<svg xmlns="http://www.w3.org/2000/svg" viewBox="0 0 45 45"><defs><clipPath id="a"><path d="M0 36h36V0H0v36z"/></clipPath></defs><g clip-path="url(#a)" transform="matrix(1.25 0 0 -1.25 0 45)"><path d="M18 25c-9 0-17-3.5-17-9 0-4.2 4-7.6 10-7.6 3.5 0 7.1 2 9.7 2h.3c3.9-.2 4-3.4 9-3.4 2.3 0 5 2 5 7 0 6.1-7 11-17 11" fill="#ffd983"/><path d="M33 18h2v-4h-2v4zM1 20h2v-4H1v4z" fill="#ffd983"/><path d="M30 11.7c-2.3 0-3.3.8-4.5 1.6a7.6 7.6 0 0 1-4.4 1.8 6.1 6.1 0 0 1-.4 0c-1.4 0-3-.4-4.6-1-1.7-.5-3.5-1-5.1-1C5.8 13 2 16 2 20c0 5.4 8.2 8.3 16 8.3 9.3 0 16-4.4 16-10.4 0-4.5-2.4-6.2-4-6.2" fill="#a0041e"/><path d="M18 29c-9 0-17-3.5-17-9 0-4.2 4-7.6 10-7.6 3.5 0 7.1 2 9.7 2h.3c3.9-.2 4-3.4 9-3.4 2.3 0 5 2 5 7 0 6.1-7 11-17 11m0-1.4c8.7 0 15-4 15-9.7 0-4.1-2-5.5-3-5.5a5 5 0 0 0-3.7 1.4 8.7 8.7 0 0 1-5.1 2 7.3 7.3 0 0 1-.5 0 17 17 0 0 1-5-1c-1.6-.5-3.3-1-4.7-1-4 0-8 2.1-8 6.2 0 5 7.7 7.6 15 7.6" fill="#ffe8b6"/><path d="M16.2 27.6s2.8 0 4.8-1.4c1-.7.3-2.2.3-2.2l1.7-.5s0 .8 3 1.4c2.3.4 4.5-1.4 4.5-1.4S28 26.9 23 27.6c-5 .7-6.8 0-6.8 0" fill="#ffe8b6"/><path d="M25 22c0-1.5-1.8-2.7-4-2.7s-4 1.2-4 2.8 1.8 2.7 4 2.7 4-1.2 4-2.7" fill="#e6e7e8"/><path d="M23 22c0-.7-.9-1.3-2-1.3s-2 .6-2 1.4.9 1.4 2 1.4 2-.7 2-1.4" fill="#a7a9ac"/></g></svg>