<svg xmlns="http://www.w3.org/2000/svg" viewBox="0 0 45 45"><defs><clipPath id="a"><path d="M0 36h36V0H0v36z"/></clipPath><clipPath id="b"><path d="M7.791 13.236h5.073V7.875H7.791v5.361z"/></clipPath><clipPath id="c"><path d="M23.439 13.67h5.377V7.69H23.44v5.98z"/></clipPath><clipPath id="d"><path d="M18.003 17.37h4.078v-2.824h-4.078v2.823z"/></clipPath><clipPath id="e"><path d="M18.002 25.893h4.532V23.29h-4.532v2.604z"/></clipPath></defs><g clip-path="url(#a)" transform="matrix(1.25 0 0 -1.25 0 45)"><path d="M27.785 16.06a8.3 8.3 0 0 0-1.04-1.167C25.471 15.878 23.906 16.682 22 17c-.34.057-.654.126-.95.202C22.422 18.727 23 20.524 23 22c0 1.502-.314 2.816-.86 3.94.284.037.572.06.86.06 1.15 0 4.947.159 6-3 .796-2.387.41-4.686-1.215-6.94M18 12c-2.297 0-4.476.394-6.324 1.266A5.81 5.81 0 0 0 14 14c1.565.158 2.885.525 4 1.025 1.115-.5 2.435-.867 4-1.025a5.81 5.81 0 0 0 2.324-.734C22.475 12.394 20.296 12 18 12m-9.785 4.06C6.59 18.314 6.205 20.613 7 23c1.053 3.159 4.85 3 6 3 .288 0 .575-.023.861-.06-.548-1.124-.86-2.438-.86-3.94 0-1.476.577-3.273 1.95-4.798A11.332 11.332 0 0 0 14 17c-1.908-.318-3.472-1.122-4.746-2.107-.375.355-.73.736-1.04 1.167M18 18.793C16.578 20.263 17 22 17 22c0 .708.381 1.415 1 2.034.62-.62 1-1.326 1-2.034 0 0 .422-1.736-1-3.207M35 20c0 8-6 11-12 11-1.738 0-3.472-.371-5-1.096-1.529.725-3.262 1.096-5 1.096-6 0-12-3-12-11 0-3 1.314-5.662 3-8 .433-.601.903-1.146 1.4-1.647C5.043 9.75 4.783 9.262 4.621 9c-.62-1 .38-2 1.38-2 .69 0 1.204.618 1.744 1.483C10.552 6.727 14.022 6 18 6c3.977 0 7.448.727 10.255 2.483C28.795 7.618 29.31 7 30 7c1 0 2 1 1.38 2-.164.262-.423.75-.78 1.353.496.5.966 1.046 1.4 1.647 1.685 2.338 3 5 3 8" fill="#f4900c"/><g clip-path="url(#b)" opacity=".5"><path d="M11.751 13.236c-.794-.448-1.78-1.172-2.376-2.236-.688-1.229-1.218-2.034-1.584-2.544.335-.207.679-.403 1.032-.58.353.691.878 1.652 1.552 2.686.768 1.18 1.902 1.912 2.489 2.238-.381.131-.756.27-1.113.436" fill="#662113"/></g><g clip-path="url(#c)" opacity=".5"><path d="M23.443 13.67l-.005-.002c.314-.114.611-.247.886-.402-.19-.09-.4-.154-.597-.234.565-.415 1.348-1.092 1.96-2.032a61.162 61.162 0 0 0 1.797-2.952c.26.14.52.278.77.435.188-.3.373-.568.562-.793 0 0-.562.793-2.004 3.31-1.442 2.518-3.369 2.67-3.369 2.67" fill="#662113"/></g><g clip-path="url(#d)" opacity=".5"><path d="M21.05 17.201c.05.055.09.112.138.168a92.967 92.967 0 0 1-2.024-1.622 5.669 5.669 0 0 0-1.161-.724c.4-.179.839-.335 1.296-.477.523.293 1.157.698 1.7 1.204.562.52.893.92 1.082 1.23-.028.005-.052.015-.081.02-.341.056-.653.126-.95.201" fill="#662113"/></g><g clip-path="url(#e)" opacity=".5"><path d="M18.584 23.289c.732.612 2.127 1.524 3.95 1.669-.11.325-.233.638-.375.935A12.608 12.608 0 0 1 20 25.375c-.878-.305-1.582-.914-1.999-1.343.235-.236.422-.487.581-.743" fill="#662113"/></g><path d="M13 29a1 1 0 1 0-2 0 1 1 0 0 0 2 0M23 28a1 1 0 1 0-2 0 1 1 0 0 0 2 0M20 27a1 1 0 1 0-2 0 1 1 0 0 0 2 0M4 22a1 1 0 1 0-2 0 1 1 0 1 0 2 0M7 25a1 1 0 1 0-2 0 1 1 0 1 0 2 0M32 19a1 1 0 1 0-2 0 1 1 0 1 0 2 0M32 27a1 1 0 1 0-2 0 1 1 0 1 0 2 0" fill="#ffe8b6"/><g><path d="M15 9a1 1 0 1 0-2 0 1 1 0 1 0 2 0" fill="#ffe8b6"/></g><g><path d="M22 10a1 1 0 1 0-2 0 1 1 0 1 0 2 0" fill="#ffe8b6"/></g><g><path d="M26 9a1 1 0 1 0-2 0 1 1 0 1 0 2 0" fill="#ffe8b6"/></g><g><path d="M8 14a1 1 0 1 0-2 0 1 1 0 1 0 2 0" fill="#ffe8b6"/></g></g></svg>