<svg xmlns="http://www.w3.org/2000/svg" viewBox="0 0 45 45"><defs><clipPath id="a"><path d="M0 36h36V0H0v36z"/></clipPath></defs><g clip-path="url(#a)" transform="matrix(1.25 0 0 -1.25 0 45)"><path d="M2.4 2.8c-.5.4 1.1 3 1.4 3.6L20 34.2c1 1.6 2 1.6 2.9 1 .9-.6 1.3-1.5.3-3L5.1 5.7c-.4-.5-2.2-3.2-2.7-2.9" fill="#c1694f"/><path d="M22.9 35.2c-1 .6-2 .6-2.9-1l-3.3-5.7c.3-1 2-1.8 2.9-1.6l3.6 5.3c1 1.5.6 2.4-.3 3" fill="#662113"/><path d="M5.6.8c-.4.5 1.9 2.6 2.3 3l22.7 23c1.3 1.2 2.2 1 3 .2.7-.8.9-1.8-.5-3L8.5 2.7C8.1 2.2 6 .4 5.5.8" fill="#c1694f"/><path d="M33.6 27c-.8.8-1.7 1-3-.3L26 22.1c0-1 1.5-2.2 2.4-2.3L33 24c1.4 1.2 1.2 2.2.5 3" fill="#662113"/></g></svg>