<svg xmlns="http://www.w3.org/2000/svg" viewBox="0 0 45 45"><defs><clipPath id="a"><path d="M0 36h36V0H0v36z"/></clipPath></defs><g clip-path="url(#a)" transform="matrix(1.25 0 0 -1.25 0 45)"><path d="M7.7 32.9s.5 1 1.7.8c1.2-.2 9.7-1.6 13.7-3.5 4-1.8 8.5-4 11.3-7.3.8-1 .5-1.6.5-1.6l-1-7.4s-.4-1.5-1.8-1.9L2.5 4S1 3.5 1 5v7.7l.5 2 6.2 18" fill="#f4900c"/><path d="M30.6 15.4a46 46 0 0 1-22.8 10 .5.5 0 0 1-.5-.3L1 6s0-.2.2-.3a.5.5 0 0 1 .4-.1L31 13.8c.2 0 .3.2.3.3 0 .4 0 .7-.7 1.4" fill="#a0041e"/><path d="M31.3 14.1L1 6v7s5.3 12 6.4 19.3a43.4 43.4 0 0 0 24.8-11l-.9-7.2z" fill="#a0041e"/><path d="M8.2 10.5a2.6 2.6 0 0 0-2.6-2.6 2.6 2.6 0 1 0 0 5.1 2.6 2.6 0 0 0 2.6-2.5m5 4a2.6 2.6 0 0 0-2.6-2.6 2.6 2.6 0 1 0 0 5.1 2.6 2.6 0 0 0 2.6-2.5m6-1a2.6 2.6 0 0 0-2.6-2.6 2.6 2.6 0 1 0 0 5.1 2.6 2.6 0 0 0 2.6-2.5m5 4a2.6 2.6 0 0 0-2.6-2.6 2.6 2.6 0 1 0 0 5.1 2.6 2.6 0 0 0 2.6-2.5m6-1a2.6 2.6 0 0 0-2.6-2.6 2.6 2.6 0 1 0 0 5.1 2.6 2.6 0 0 0 2.6-2.5" fill="#be1931"/><path d="M32.1 22.5a51.6 51.6 0 0 1-24.3 10 .5.5 0 0 1-.5-.4L1 14.5c-.2-.6-.1-1.3-.1-1.3 0-.2 0-.3.2-.4a.5.5 0 0 1 .4-.1l30.8 7.7a.5.5 0 0 1 .4.4c0 .4 0 1-.7 1.7" fill="#f4900c"/><path d="M32.1 22.5a51.6 51.6 0 0 1-24.3 10 .5.5 0 0 1-.5-.4S1 14.5 1 14c0 0 0-.2.2-.3a.5.5 0 0 1 .4-.1l30.2 7.7a.5.5 0 0 1 .4.4c0 .4.5 0-.1.7" fill="#f4900c"/><path d="M18.3 25.8l1.8-2.5-4.3-.4-1.8 2.4 4.3.5zm-8.7-10l-1.8 2.4 4.5.6 1.4-2 5.6 1.4-1 1.3 4.3.5.6-.8 5.5 1.5h.3l3.6 1a2.1 2.1 0 0 1-.5.8c-.6.6-1.4 1.2-2.3 1.8l-3.5-.4-2 2.6 1.4.2a62.4 62.4 0 0 1-11.4 4.4l1.5-2-4.4-.3L9.8 31l3.5.4c-2 .5-3.9.9-5.5 1a.5.5 0 0 1-.5-.3l-2.8-7.8 3.4.3 1.8-2.3-4.6-.5-1 1.4C3.4 21 2.5 18.8 2 17l2-2.7 5.7 1.5z" fill="#ffcc4d"/><path d="M10.9 18.5c.8.2 2.4 1.3 4 1.5 1.6.2 3.5-.6 4-.6l2.4.3c.5 0 2.8 1.3 4.2 1.5 1.3.2 3.1-.7 3.8-.6 0 0 .7-.2 0-.3-.8 0-2.6.7-3.7.5-1.5-.2-2.6-1.1-4.3-1.4l-2.4-.3c-1.2-.1-2.6.7-4 .5-1.6-.3-2.4-1.2-4-1.4-1-.1-.6.2 0 .3m-4.4-3c1.2.3 2.6.8 3.2.3l-2.7-1-3-.5s.2.7 2.5 1.3m9.9 2.5c1.5.4 2.5.4 2.9.1l-2.7-1-2.9-.4s.3.7 2.7 1.3" fill="#f4900c"/><path d="M25.7 20.4c1 .3 2.5.5 2.8.4 0 0 2.9.7 4 .8l-3.4-1c-.8-.3-5.9-1.7-6-1.4 0 .3 1 .8 2.6 1.2" fill="#f4900c"/><path d="M2 17s-.1 1.2.7 3.4 1.2 3 1.4 2.8c.2-.3-.6-3-.8-3.7l-1-2.3c-.3-.3-.4-.2-.4-.2m2.6 7.3s0 1.6.4 2.6c.4 1.1 1 1.7 1.2 2 0 .2 0 1.5.3 2 .2.6.7 1.8 1.4 1.5.6-.2-1.4-4.3-1.7-5.1a19.7 19.7 0 0 0-1.6-3" fill="#ffcc4d"/><path d="M6.9 24.5c.8.2 2.4 1.3 4 1.5 1.6.2 3.5-.6 4-.6l2.4.3c.5 0 2.8 1.3 4.2 1.5 1.3.2 3.1-.7 3.8-.6 0 0 .7-.2 0-.3-.8 0-2.6.7-3.7.5-1.5-.2-2.6-1.1-4.3-1.4l-2.4-.3c-1.2-.1-2.6.7-4 .5-1.6-.3-2.4-1.2-4-1.4-1-.1-.7.2 0 .3m2-6.2c-.8 0-1.9.8-3.7.5C3.2 18.4 2 17 2 17v-.5s-.4.3.3.5c.6.2 1.3 1.2 3 1.4 1.6.2 2.1-.4 3.2-.4s.4.3.4.3M28 20.8l1.6-.1.4.3-.3-.9-1.3-.4-.4 1zM7.1 31.3c1.5.4 2.5-.4 3.5-.2 1 .1 1-.2.3-.4s-2.9.6-3.7.3c-.9-.3-1-1.1-1-1.1l.1.8s-.1.3.8.6m2-9c2 .2 2.2.8 3.7 1 1.4.4 2.3-.3 3.1-.3 1.3 0 1 .8.5.6-1-.4-2.8.7-4.5 0-1-.4-1.4-.9-2.8-1-1.4-.2-.7-.5 0-.4m10.4 1c.8.1 2.2 1 3.5 1.1 1.3.3 2.5-.5 3.3-.4.8.1 1 .5.3.5-.6 0-2.3.6-3.9.3-1.5-.3-2.2-1-3.2-1.1-1-.2-.7-.4 0-.4M3.3 21.8c.7.2 1.4-.2 2.2 0 .8.3.8.7.1.5-.7-.2-1.5.1-2.2-.1l-.1-.4zM8.5 29c1.4 0 2.1-.3 3.1-.2 1 0 .6.3-.1.3-.8 0-1.8.4-3.2.1-1.5-.3-1.4-.6-2.5-.8l-.3-.4 1 .4c.6.3 1.3.6 2 .6m7 .1c1 .1 1.7.7 2.6.8l-.5.2s-1.1-.6-2-.6c-1-.1-1-.4 0-.3" fill="#f4900c"/></g></svg>