<svg xmlns="http://www.w3.org/2000/svg" viewBox="0 0 45 45"><defs><clipPath id="a"><path d="M0 36h36V0H0v36z"/></clipPath><clipPath id="b"><path d="M7.8 13.2h5V8h-5v5.3z"/></clipPath><clipPath id="c"><path d="M23.4 13.7h5.4v-6h-5.4v6z"/></clipPath><clipPath id="d"><path d="M18 17.4h4v-2.8h-4v2.8z"/></clipPath><clipPath id="e"><path d="M18 25.9h4.5v-2.6H18v2.6z"/></clipPath></defs><g clip-path="url(#a)" transform="matrix(1.25 0 0 -1.25 0 45)"><path d="M27.8 16a8.3 8.3 0 0 0-1-1.1A10.5 10.5 0 0 1 22 17l-1 .2a7.3 7.3 0 0 1 2 4.8c0 1.5-.3 2.8-.9 4h.9c1.1 0 5 .2 6-3 .8-2.4.4-4.7-1.2-7M18 12c-2.3 0-4.5.4-6.3 1.3a5.8 5.8 0 0 0 2.3.7c1.6.2 2.9.5 4 1a13 13 0 0 1 4-1 5.8 5.8 0 0 0 2.3-.7A14.9 14.9 0 0 0 18 12m-9.8 4A7.4 7.4 0 0 0 7 23c1 3.2 4.8 3 6 3h.9a8.9 8.9 0 0 1-.9-4c0-1.5.6-3.3 2-4.8a11.3 11.3 0 0 0-1-.2 10.5 10.5 0 0 1-4.8-2.1l-1 1.2m9.8 2.7c-1.4 1.5-1 3.2-1 3.2a3 3 0 0 0 1 2c.6-.6 1-1.3 1-2 0 0 .4-1.7-1-3.2M35 20c0 8-6 11-12 11-1.7 0-3.5-.4-5-1.1-1.5.7-3.3 1.1-5 1.1-6 0-12-3-12-11 0-3 1.3-5.7 3-8l1.4-1.6L4.6 9C4 8 5 7 6 7c.7 0 1.2.6 1.8 1.5A19 19 0 0 1 18 6c4 0 7.5.7 10.3 2.5.5-.9 1-1.5 1.7-1.5 1 0 2 1 1.4 2l-.8 1.4c.5.4 1 1 1.4 1.6 1.7 2.3 3 5 3 8" fill="#f4900c"/><g clip-path="url(#b)" opacity=".5"><path d="M11.8 13.2A6.2 6.2 0 0 1 9.3 11a27 27 0 0 0-1.6-2.5 15 15 0 0 1 1-.6l1.6 2.7a7.2 7.2 0 0 0 2.5 2.2 9.7 9.7 0 0 0-1.1.4" fill="#662113"/></g><g clip-path="url(#c)" opacity=".5"><path d="M23.4 13.7l1-.4-.7-.3a8 8 0 0 0 2-2 61.2 61.2 0 0 0 1.8-3l.8.5.5-.8-2 3.3c-1.4 2.5-3.3 2.7-3.3 2.7" fill="#662113"/></g><g clip-path="url(#d)" opacity=".5"><path d="M21 17.2l.2.2a93 93 0 0 1-2-1.6A5.7 5.7 0 0 0 18 15l1.3-.5a9 9 0 0 1 1.7 1.2c.6.6.9 1 1 1.3l-1 .2" fill="#662113"/></g><g clip-path="url(#e)" opacity=".5"><path d="M18.6 23.3a7.2 7.2 0 0 0 4 1.7 7 7 0 0 1-.4.9 12.6 12.6 0 0 1-2.2-.5 5.4 5.4 0 0 1-2-1.4l.6-.7" fill="#662113"/></g><path d="M13 29a1 1 0 1 0-2 0 1 1 0 0 0 2 0m10-1a1 1 0 1 0-2 0 1 1 0 0 0 2 0m-3-1a1 1 0 1 0-2 0 1 1 0 0 0 2 0M4 22a1 1 0 1 0-2 0 1 1 0 1 0 2 0m3 3a1 1 0 1 0-2 0 1 1 0 1 0 2 0m25-6a1 1 0 1 0-2 0 1 1 0 1 0 2 0m0 8a1 1 0 1 0-2 0 1 1 0 1 0 2 0M15 9a1 1 0 1 0-2 0 1 1 0 1 0 2 0m7 1a1 1 0 1 0-2 0 1 1 0 1 0 2 0m4-1a1 1 0 1 0-2 0 1 1 0 1 0 2 0M8 14a1 1 0 1 0-2 0 1 1 0 1 0 2 0" fill="#ffe8b6"/></g></svg>