<svg xmlns="http://www.w3.org/2000/svg" viewBox="0 0 45 45"><defs><clipPath id="a"><path d="M0 36h36V0H0v36z"/></clipPath></defs><g clip-path="url(#a)" transform="matrix(1.25 0 0 -1.25 0 45)"><path d="M33.874 14.28l-6.909 4.225-6.907 4.228c-1.526.934-4.001.934-5.527 0l-6.908-4.228c-1.382-.845-.691-1.268-2.072-2.114-1.382-.844-2.072-.422-3.454-1.267-1.383-.845-1.526-2.447 0-3.382l6.907-4.228 6.909-4.227c1.525-.935 4.145-.848 5.524 0 1.383.845.693 1.266 2.074 2.114 1.381.844 2.071.422 3.454 1.266l6.909 4.227c1.524.935 1.525 2.45 0 3.385" fill="#f4900c"/><path d="M35 14.484L1 15v-1.625l34.018-.792L35 14.484z" fill="#f4900c"/><path d="M35 15.484L1 16v-1.625l34.018-.792L35 15.484z" fill="#f4900c"/><path d="M33.873 17.28l-6.908 4.225-6.907 4.228c-1.526.934-4.001.934-5.527 0l-6.908-4.228c-1.381-.845-.691-1.268-2.072-2.114-1.382-.844-2.072-.422-3.454-1.267-1.383-.845-1.526-2.447 0-3.382l6.907-4.228 6.909-4.227c1.526-.935 4.145-.848 5.524 0 1.383.845.693 1.266 2.074 2.114 1.381.844 2.071.422 3.454 1.266l6.908 4.227c1.525.935 1.526 2.45 0 3.385" fill="#ffac33"/><path d="M32.85 16.432l-7.072 4.229-7.071 4.227s-1.506.79-2.828 0l-6.963-4.162c-1.196-.716-1.033-1.464-2.23-2.18-1.196-.714-2.338-.552-3.535-1.266-1.414-.847 0-1.694 0-1.694l7.07-4.227 7.072-4.228s1.414-.844 2.828 0c1.198.717.926 1.398 2.122 2.115 1.197.716 2.447.619 3.644 1.334 1.197.713 6.963 4.163 6.963 4.163s1.32.9 0 1.689" fill="#ffd983"/><path d="M7.994 10.434c-.925-.786.997-3.518 3.249-2.063.56-1.11 3.956-3.843 6.299-.102.485-.878 5.772-2.248 6.875 2.244.178.6-6.028 1.885-9.36 1.865-1.84-.01-5.318-.46-7.063-1.944" fill="#77b255"/><path d="M3.163 18.201c-.784-.737-2.265-2.22-.688-4.439.688-1.163 2.116-1.919 2.306-1.56.445.846 1.334 1.586 2.669 1.507-.017.301-.65-2.733 1.577-3.54 1.092-.397 2.265.237 3.6 1.637 2.137 2.243 7.582 1.196 9.11.61 1.547-.597 2.903-.986 2.498-2.577-.09-.35.722-.654 1.548-.364 1.388.487 3.395 1.694 3.75 3.018.99.173 1.734-.102 2.305-.858.284-.373 1.254-.463 1.669.025.733.861 1.934 3.505.233 5.774-1.942 2.59-4.895 3.964-11.527 4.52-6.633.553-15.167-.108-19.05-3.753" fill="#77b255"/><path d="M31 10.959c0-.529-.895-.959-2-.959H7c-1.104 0-2 .43-2 .959V21.51c0 .53.896.49 2 .49h22c1.105 0 2 .04 2-.49V10.959z" fill="#ffcc4d"/><path d="M33.31 16.013c0-2.768-4.586-5.013-10.242-5.013-5.658 0-10.243 2.245-10.243 5.013 0 2.769 4.585 5.013 10.243 5.013 5.656 0 10.242-2.244 10.242-5.013" fill="#be1931"/><path d="M33.874 20.28l-6.909 4.225-6.907 4.228c-1.526.934-4.001.934-5.527 0l-6.908-4.228c-1.382-.845-.691-1.268-2.072-2.114-1.382-.844-2.072-.422-3.454-1.267-1.383-.845-1.526-2.447 0-3.382l6.907-4.228 6.909-4.227c1.525-.935 4.145-.848 5.524 0 1.383.845.693 1.266 2.074 2.114 1.381.844 2.071.422 3.454 1.266l6.909 4.227c1.524.935 1.525 2.45 0 3.385" fill="#f4900c"/><path d="M35 20.484L1 21v-1.625l34.018-.792L35 20.484z" fill="#f4900c"/><path d="M35 21.484L1 22v-1.625l34.018-.792L35 21.484z" fill="#f4900c"/><path d="M33.873 23.28l-6.908 4.225-6.907 4.228c-1.526.934-4.001.934-5.527 0l-6.908-4.228c-1.381-.845-.691-1.268-2.072-2.114-1.382-.844-2.072-.422-3.454-1.267-1.383-.845-1.526-2.447 0-3.382l6.907-4.228 6.909-4.227c1.526-.935 4.145-.848 5.524 0 1.383.845.693 1.266 2.074 2.114 1.381.844 2.071.422 3.454 1.266l6.908 4.227c1.525.935 1.526 2.45 0 3.385" fill="#ffac33"/><path d="M32.85 22.432l-7.072 4.229-7.071 4.227s-1.506.79-2.828 0l-6.963-4.162c-1.196-.716-1.033-1.464-2.23-2.18-1.196-.715-2.338-.552-3.535-1.266-1.414-.847 0-1.694 0-1.694l7.07-4.227 7.072-4.228s1.414-.844 2.828 0c1.198.717.926 1.398 2.122 2.115 1.197.716 2.447.619 3.644 1.334 1.197.713 6.963 4.163 6.963 4.163s1.32.9 0 1.689" fill="#ffd983"/></g></svg>