<svg xmlns="http://www.w3.org/2000/svg" viewBox="0 0 45 45"><defs><clipPath id="a"><path d="M0 36h36V0H0v36z"/></clipPath></defs><g clip-path="url(#a)" transform="matrix(1.25 0 0 -1.25 0 45)"><path d="M33.9 14.3l-7 4.2-6.8 4.2a5.8 5.8 0 0 1-5.6 0l-6.9-4.2c-1.4-.8-.7-1.3-2-2.1-1.4-.8-2.1-.4-3.5-1.3-1.4-.8-1.5-2.4 0-3.4L9 7.5l7-4.2a6 6 0 0 1 5.4 0c1.4.8.7 1.3 2.1 2.1 1.4.8 2 .4 3.5 1.3l6.9 4.2c1.5 1 1.5 2.4 0 3.4" fill="#f4900c"/><path d="M35 14.5L1 15v-1.6l34-.8v1.9z" fill="#f4900c"/><path d="M35 15.5L1 16v-1.6l34-.8v1.9z" fill="#f4900c"/><path d="M33.9 17.3l-7 4.2-6.8 4.2a5.8 5.8 0 0 1-5.6 0l-6.9-4.2c-1.4-.8-.7-1.3-2-2.1C4.1 18.6 3.4 19 2 18c-1.4-.8-1.5-2.4 0-3.4l7-4.1 7-4.2a6 6 0 0 1 5.4 0c1.4.8.7 1.3 2.1 2.1 1.4.8 2 .4 3.5 1.3l6.9 4.2c1.5 1 1.5 2.4 0 3.4" fill="#ffac33"/><path d="M32.9 16.4l-7.1 4.3-7 4.2s-1.6.8-3 0L9 20.7c-1.2-.7-1-1.4-2.2-2.1-1.2-.8-2.3-.6-3.5-1.3-1.5-.9 0-1.7 0-1.7l7-4.2 7-4.3s1.5-.8 3 0c1.1.8.9 1.4 2 2.2 1.2.7 2.5.6 3.7 1.3l7 4.1s1.3 1 0 1.7" fill="#ffd983"/><path d="M8 10.4c-1-.8 1-3.5 3.2-2 .6-1.1 4-3.9 6.3-.1.5-1 5.8-2.3 7 2.2 0 .6-6.1 1.9-9.4 1.9-1.9 0-5.4-.5-7.1-2" fill="#77b255"/><path d="M3.2 18.2c-.8-.7-2.3-2.2-.7-4.4.7-1.2 2-2 2.3-1.6a2.7 2.7 0 0 0 2.7 1.5c0 .3-.7-2.7 1.5-3.5 1.1-.4 2.3.2 3.6 1.6 2.2 2.2 7.6 1.2 9.1.6 1.6-.6 3-1 2.5-2.6 0-.3.8-.6 1.6-.3 1.4.5 3.4 1.7 3.7 3 1 .2 1.8-.1 2.3-.9.3-.3 1.3-.4 1.7 0 .7 1 2 3.6.2 5.8-1.9 2.6-4.9 4-11.5 4.6-6.6.5-15.1-.2-19-3.8" fill="#77b255"/><path d="M31 11c0-.6-.9-1-2-1H7c-1.1 0-2 .4-2 1v10.5c0 .5.9.5 2 .5h22c1.1 0 2 0 2-.5V11z" fill="#ffcc4d"/><path d="M33.3 16c0-2.7-4.6-5-10.2-5-5.7 0-10.3 2.3-10.3 5 0 2.8 4.6 5 10.3 5 5.6 0 10.2-2.2 10.2-5" fill="#be1931"/><path d="M33.9 20.3l-7 4.2-6.8 4.2a5.8 5.8 0 0 1-5.6 0l-6.9-4.2c-1.4-.8-.7-1.3-2-2.1C4.1 21.6 3.4 22 2 21c-1.4-.8-1.5-2.4 0-3.4l7-4.1 7-4.2a6 6 0 0 1 5.4 0c1.4.8.7 1.2 2.1 2.1 1.4.8 2 .4 3.5 1.3l6.9 4.2c1.5 1 1.5 2.4 0 3.4" fill="#f4900c"/><path d="M35 20.5L1 21v-1.6l34-.8v1.9z" fill="#f4900c"/><path d="M35 21.5L1 22v-1.6l34-.8v1.9z" fill="#f4900c"/><path d="M33.9 23.3l-7 4.2-6.8 4.2a5.8 5.8 0 0 1-5.6 0l-6.9-4.2c-1.4-.8-.7-1.3-2-2.1C4.1 24.6 3.4 25 2 24c-1.4-.8-1.5-2.4 0-3.4l7-4.1 7-4.2a6 6 0 0 1 5.4 0c1.4.8.7 1.3 2.1 2.1 1.4.9 2 .4 3.5 1.3l6.9 4.2c1.5 1 1.5 2.4 0 3.4" fill="#ffac33"/><path d="M32.9 22.4l-7.1 4.3-7 4.2s-1.6.8-3 0L9 26.7c-1.2-.7-1-1.4-2.2-2.1-1.2-.8-2.3-.6-3.5-1.3-1.5-.9 0-1.7 0-1.7l7-4.2 7-4.3s1.5-.8 3 0c1.1.8.9 1.4 2 2.2 1.2.7 2.5.6 3.7 1.3l7 4.1s1.3 1 0 1.7" fill="#ffd983"/></g></svg>