<svg xmlns="http://www.w3.org/2000/svg" viewBox="0 0 45 45"><defs><clipPath id="a"><path d="M0 36h36V0H0v36z"/></clipPath></defs><g clip-path="url(#a)" transform="matrix(1.25 0 0 -1.25 0 45)"><path d="M23 11.7l-5.5 5.5-5.6 5.6S12.4 11.6.7 8.7c0 0 1-2.5 3.4-4.8A16.6 16.6 0 0 1 8.9.5C12 12.1 23 11.7 23 11.7" fill="#77b255"/><path d="M13.8 19.4c-.7-3.6-5-9.4-5-9.4l8.7 8.7c2.9 2.9-3.7.7-3.7.7M26.2 13s-11-1-17.5-6c8 8 11.7 8.8 11.7 8.8l5.8-3z" fill="#5c913b"/><path d="M30.2 7.8a2.4 2.4 0 0 1 1.8.7 2.4 2.4 0 0 1 0 3.4l-.3.2a2.4 2.4 0 0 1 1.8 1.7 2.4 2.4 0 0 1 1 .6 2.4 2.4 0 0 1 0 3.4 2.4 2.4 0 0 1-1.2 4c.4 1 .3 2-.4 2.8a2.4 2.4 0 0 1-1.2.6l.3.3a2.4 2.4 0 1 1-2.7 3.8 2.4 2.4 0 0 1-2.5 2A2.4 2.4 0 0 1 26 33a2.4 2.4 0 0 1-3.4 0 2.4 2.4 0 0 1-2.8.5 2.4 2.4 0 0 1-4.7 0 2.4 2.4 0 0 1-2.7-.5 2.4 2.4 0 0 1-.6-1.1l-.3.3a2.4 2.4 0 1 1-3.8-2.8 2.4 2.4 0 0 1-1.2-4l1-.7a2.1 2.1 0 0 1-.2-.2 2.4 2.4 0 0 1 1.2-4 2.4 2.4 0 0 1 .5-2.8 2.4 2.4 0 0 1 2.7-.4 2.4 2.4 0 0 1 1.8-1.9 2 2 0 0 1-.3-.2 2.4 2.4 0 0 1 0-3.4 2.4 2.4 0 0 1 2.8-.5 2.4 2.4 0 0 1 3-1.8l.2-.3a2.4 2.4 0 0 1 1.8-.6 2.4 2.4 0 0 1 .7-1.9 2.4 2.4 0 0 1 3.4 0l.2.3c.1-.4.3-.8.7-1.1a2.4 2.4 0 0 1 3.4 0c.5.5.7 1.2.7 1.8" fill="#3e721d"/><path d="M12 29.2a1.5 1.5 0 1 0-2.2 2.2 1.5 1.5 0 1 0 2.2-2.2m4.4 0a1.5 1.5 0 1 0-2.2 2.2 1.5 1.5 0 1 0 2.2-2.2m2.9 3a1.5 1.5 0 1 0-2.2 2.1 1.5 1.5 0 1 0 2.2-2.2m3.6-2.1a1.5 1.5 0 1 0-2.2 2.1A1.5 1.5 0 1 0 23 30" fill="#5c913b"/><path d="M25.8 30a1.5 1.5 0 1 0-2.2 2.1 1.5 1.5 0 1 0 2.2-2.2" fill="#5c913b"/><path d="M26.6 27.8a1.5 1.5 0 1 0-2.2 2.1 1.5 1.5 0 1 0 2.2-2.1" fill="#5c913b"/><path d="M28.7 27a1.5 1.5 0 1 0-2.1 2.2 1.5 1.5 0 1 0 2.1-2.2m3-1.4a1.5 1.5 0 1 0-2.2 2.2 1.5 1.5 0 1 0 2.1-2.2" fill="#5c913b"/><path d="M31 23.4a1.5 1.5 0 1 0-2.3 2.2 1.5 1.5 0 1 0 2.2-2.2m2.2-3.6a1.5 1.5 0 1 0-2.2 2.1 1.5 1.5 0 1 0 2.2-2.1m.7-3.7a1.5 1.5 0 1 0-2.1 2.2 1.5 1.5 0 1 0 2.1-2.2" fill="#5c913b"/><path d="M28 23.4a1.5 1.5 0 1 0-2.2 2.2 1.5 1.5 0 1 0 2.2-2.2m-2.9 3a1.5 1.5 0 1 0-2.2 2.1 1.5 1.5 0 1 0 2.2-2.2m-3.6 2.2a1.5 1.5 0 1 0-2.2 2.2 1.5 1.5 0 1 0 2.2-2.2M17 27a1.5 1.5 0 1 0-2.2 2.2A1.5 1.5 0 1 0 17 27" fill="#5c913b"/><path d="M18.6 28.5a1.5 1.5 0 1 0-2.2 2.2 1.5 1.5 0 1 0 2.2-2.2m-4.4-3a1.5 1.5 0 1 0-2.2 2.3 1.5 1.5 0 1 0 2.2-2.2m7.3-1.5a1.5 1.5 0 1 0-2.2 2.2 1.5 1.5 0 1 0 2.2-2.2m5-5a1.5 1.5 0 1 0-2.1 2.1 1.5 1.5 0 1 0 2.2-2.2m1.4-4.3a1.5 1.5 0 1 0-2.2 2.2 1.5 1.5 0 1 0 2.2-2.2" fill="#5c913b"/></g></svg>