<svg xmlns="http://www.w3.org/2000/svg" viewBox="0 0 45 45"><defs><clipPath id="a"><path d="M0 36h36V0H0v36z"/></clipPath></defs><g clip-path="url(#a)" transform="matrix(1.25 0 0 -1.25 0 45)"><path d="M15.7 29.2c.4 2 .3 3.1-.6 3.6-1 .6.3 2.7 2 .8 1.6-1.9 1.4-3.6.6-4.8-.7-1.3-2.3-.7-2 .4m-.5-3c-1-1.9-1.7-2.7-2.8-2.5-1 .2-1.4-2.3 1-1.9 2.5.4 3.4 2 3.6 3.4.2 1.4-1.4 2-1.8 1m11.3-6.3c-2 1.4-5.4-1.4-5.7-2.2-.3-.9 1.7-3.5 1.2-5-.6-1.5 1.1-1.7 1.9-.5.8 1.3.3 3.6.1 4.2-.1.6 2.2 1.2 3.7 0s-.3 3-1.2 3.5m1 .9c-1.5 2 1 5.4 1.9 5.8.8.4 2.6-.4 4 .3s1.7-.8.6-1.9a7 7 0 0 0-3-1.5c-.7 0-.1-2-.1-4 0-1.7-2.7.4-3.3 1.3" fill="#3e721d"/><path d="M15.3 32.8a.7.7 0 1 0-1.4 0 .7.7 0 0 0 1.4 0m-3-8.9a.7.7 0 1 0-1.4 0 .7.7 0 0 0 1.4 0m-.3-1.6a.7.7 0 1 0-1.4 0 .7.7 0 0 0 1.4 0m1.5-.8a.7.7 0 1 0-1.5 0 .7.7 0 0 0 1.5 0m9.3-10a.7.7 0 0 0-1.4-.6.7.7 0 1 0 1.4.5m1.6.3a.7.7 0 1 0-1.3-.5.7.7 0 0 0 1.3.5m9.8 15.7a.7.7 0 1 0-1.4 0 .7.7 0 0 0 1.5 0m1.5-.7a.7.7 0 1 0-1.5 0 .7.7 0 0 0 1.5 0m-.4-1.7a.7.7 0 1 0-1.4 0 .7.7 0 0 0 1.4 0m-19.9 9.4a.7.7 0 1 0-1.4 0 .7.7 0 0 0 1.4 0m1.6.4a.7.7 0 1 0-1.5 0 .7.7 0 0 0 1.5 0" fill="#3e721d"/><path d="M.2 30.4c.3 1 4.7 4.7 8.7 4 2-.4 2.9-3.4 5-3.4 11.3-.4 22.3-11.2 18.9-21.4-1.5-4.5-5.6-8.8-15.5-5-2 .7-4 2-7.8 1.2-2.8-.6-3.1-3.2-2.8-4.5.3-1-.2-1.6-.7-.8-1.2 1.9-1.3 4.4.6 6 4 3.2 9.3 1.3 13.2 0 6.5-2 10 3.7 6.3 10.4a17.5 17.5 0 0 1-14 8.8c-1.1.1-3.6-2-5.3-1.8C3 24.6 0 29.6.2 30.3" fill="#3e721d"/><path d="M.2 30.4c.3 1 4.7 4.7 8.7 4 2-.4 2.9-3.4 5-3.4 11.3-.4 22.3-11.2 18.9-21.4-1.5-4.5-5.6-8.8-15.5-5-2 .7-4 2-7.8 1.2-2.8-.6-3.1-3.2-2.8-4.5v-1c-1 1.2-1.4 4.3.6 5.8 3.6 2.7 8.6.1 13.3-1 10.3-2.6 12.2 8 8 14.8C23.3 28.3 7 30.2.1 30.3" fill="#77b255"/><path d="M8 33a1 1 0 1 0-2 0 1 1 0 0 0 2 0m-1-7a1 1 0 1 0-2 0 1 1 0 0 0 2 0" fill="#292f33"/></g></svg>