<svg xmlns="http://www.w3.org/2000/svg" viewBox="0 0 45 45"><defs><clipPath id="a"><path d="M0 36h36V0H0v36z"/></clipPath></defs><g clip-path="url(#a)" transform="matrix(1.25 0 0 -1.25 0 45)"><path d="M16 21c-1.5 2.3-.7 7.6 0 8.9s-.6 2.4-1.5.4-1-3-3.2-2.4c-2.2.5-1 3.3-.4 5.6.8 2.4-.9 2-1.6.5-.8-1.5-1.3-5.7-3-6-1.6-.3-6-.6-2.8 5.6 1.3 2.5-.7 3-1.8 1C.4 32-.4 28.6.2 27.3c1.1-2.5 3.5-3 7-2.3 3.5.7 6.1.6 6.1-1.1 0-2 .2-3.5 1-3.7.9-.1 1.7.6 1.7.6m4 0c1.5 2.4.7 7.7 0 9s.6 2.4 1.5.4 1-3 3.2-2.4c2.2.5 1 3.3.4 5.6-.8 2.4.9 2 1.6.5.8-1.5 1.3-5.7 3-6 1.6-.3 6-.6 2.8 5.6-1.3 2.5.7 3 1.8 1 1.3-2.6 2.1-5.9 1.5-7.2-1.1-2.5-3.5-3-7-2.3-3.5.7-6.1.6-6.1-1.1 0-2-.2-3.5-1-3.7-.9-.1-1.7.6-1.7.6" fill="#662113"/><path d="M13.9 20.5c.6-2.4.1-4.4-2.3-5-2.4-.6-6.3-.6-8 1.3-2.2 2.6-2.5 6.4-1.1 6.7 1.3.3 10.8-.6 11.4-3m8.2 0c-.6-2.4-.1-4.4 2.3-5 2.4-.6 6.3-.6 8 1.3 2.2 2.6 2.5 6.4 1.1 6.7-1.3.3-10.8-.6-11.4-3" fill="#c1694f"/><path d="M2.5 23.5c-1-.2-1.1-2.1-.3-4.2l3.3 4.1a13 13 0 0 1-3 .1m31 0h-3.1l3.4-4.2c.8 2 .7 4-.3 4.2" fill="#272b2b"/><path d="M12 20c1-1.4-.5-2.2-1.9-3.1-1.4-.9-4.6.2-5.5 1.6-.8 1.4-1.2 3.1-.6 3.5.5.3 7.2-.6 8-2m12 0c-1-1.4.5-2.2 1.9-3.1 1.4-.9 4.6.2 5.5 1.6.8 1.4 1.2 3.1.7 3.5-.6.3-7.3-.6-8.1-2" fill="#e6aaaa"/><path d="M18 21.9c-10.3 0-8.7-4-7.6-10.6C11.5 4.7 12.8.1 18 .1c5.2 0 6.5 4.7 7.6 11.2C26.7 18 28.3 22 18 22" fill="#c1694f"/><path d="M11.8 13.2s-.7 1.3.6 2c1.3.8 2-.6 2-.6l.8-1.3s.7-1.3-.6-2-2 .5-2 .5l-.8 1.3zm9.8 1.5s.7 1.3 2 .5c1.3-.7.6-2 .6-2l-.8-1.3s-.7-1.3-2-.6c-1.3.8-.6 2-.6 2l.8 1.4zm-6.4-13c-.9.2 1.9 3.6 2.8 3.6 1 0 3.7-3.4 2.8-3.6h-5.6" fill="#272b2b"/></g></svg>