<svg xmlns="http://www.w3.org/2000/svg" viewBox="0 0 45 45"><defs><clipPath id="a"><path d="M0 36h36V0H0v36z"/></clipPath></defs><g clip-path="url(#a)" transform="matrix(1.25 0 0 -1.25 0 45)"><path d="M23.6 15.1c3.5.2 7.4.9 8.8 2 1.9 1.4 3.6 9.7 3.4 14 0 1.2-.6 2.4-2.2 2.4H33c-3-.6-8.7-4.7-13.6-10.8.3 1.3.6 2.1 0 2.5l2.7 4.8a.5.5 0 0 1-1 .5l-2.7-5a6.9 6.9 0 0 1-.8 0l-2.8 5a.5.5 0 0 1-.9-.5l2.7-4.8c-.6-.4-.3-1.2 0-2.6C11.7 28.8 6 33 3 33.5a3.6 3.6 0 0 1-.6 0C.8 33.5.2 32.3 0 31.1c-.1-4.3 1.6-12.6 3.5-14a21 21 0 0 1 8.8-2c-6.7-1-11-4.8-8.5-9.6 1.5-2.8 4-4 6.2-4 1 0 2 .2 2.7.8C14.3 3.6 16 7 16.9 9c.4-2.1 1.1-2.8 1.1-2.8s.7.7 1 2.8c.9-2 2.7-5.3 4.3-6.7a4.1 4.1 0 0 1 2.6-.8c2.2 0 4.7 1.2 6.2 4 2.5 4.8-1.8 8.6-8.4 9.6" fill="#292f33"/><path d="M22.6 4.8l.7 4.3a.5.5 0 0 1-.1.3l-4 5.1s-.1-2.5.3-4c.7-2 1.8-4.3 3-5.9l.1.2m3 3.6L24 8.1a.3.3 0 0 1 0-.1l-.6-4.1.5-.5a3.7 3.7 0 0 1 2-.7l.1 5.5c0 .2-.2.4-.4.3m1.3-1c-.4-.1 0-3.8 0-4.7a5.1 5.1 0 0 1 2.7 1.8c-.8 1-2.5 3-2.7 3m0 1.2a.6.6 0 0 1 .2-.4l3-3 .5.8c.4.7.6 1.3.6 2a40.1 40.1 0 0 1-4 1.7c-.2 0-.3-1.1-.3-1.1m.3 1.8L31 9l-.4 1a8.8 8.8 0 0 1-4.2 3.2l.3-2.4a.6.6 0 0 1 .4-.4m-1-.8l-.6 4a16.8 16.8 0 0 1-5.3.8l4.3-5.2c.3-.4 1.7-.1 1.6.4M12.7 9l.7-4.3v-.2a19.8 19.8 0 0 1 3 5.9c.5 1.5.4 4 .4 4l-4-5a.5.5 0 0 1 0-.4m-1-1l-1.3.2A.3.3 0 0 1 10 8V2.6c.8 0 1.7.3 2.1.7l.4.4-.6 4a.3.3 0 0 1-.2.4m-2.6-.9a15 15 0 0 1-2.6-2.8 5 5 0 0 1 2.6-1.7c0 .8.4 4.4 0 4.5M9 8.5s0 1.1-.3 1.2L5 8c0-.6.2-1.3.6-2a9.6 9.6 0 0 1 .5-.7l3 2.9s.1.2 0 .4m0 2.2l.3 2.4a8.6 8.6 0 0 1-4-3.2L5 9.1l3.7 1.3a.5.5 0 0 1 .3.4m1-1.5l1-.2a.3.3 0 0 1 .2 0l4.3 5.4c-1.9 0-3.6-.4-5-.9l-.7-4a.3.3 0 0 1 .2-.3m10.3 6.8h.6c2.3 0 4.5.5 6.5.8a8.7 8.7 0 0 1 3.7 1.6 7.2 7.2 0 0 1 1.7 2.6l-9.3-1c-.8 0-2.4-2.4-3.2-4m5 6.7c-.8-1-1-1.5-1-1.5a.3.3 0 0 1 .1-.4l8.7.8.1.5.8 3-6.6-.6c-.5 0-1.2-.8-2-1.8m5 5.2l-2.2-2.2a.3.3 0 0 1 .2-.4l5.7.6.4 2.7-3.3-.4c-.3 0-.6 0-.8-.3m-3.8-2.7c.2.3.3.6.2.8l-.6 1.8a48.4 48.4 0 0 1-6.3-6.7l-.8-5h.2c.6 1 2.4 3.7 4 5.6a37.4 37.4 0 0 0 3.3 3.5m.7 1.3a.3.3 0 0 1 .5 0l2 1.8a.3.3 0 0 1 0 .4l-.6 1.5a30 30 0 0 1-2.5-1.9l.6-1.8" fill="#78c5ed"/><path d="M32.9 31.5c0-.3.5-.4.8-.3.4.1.7.4.6.7-.1.3-.5.5-.9.4-.3-.1-.6-.5-.5-.8m.2-1.7c0-.3.3-.5.7-.4.4 0 .8.3.8.6s-.5.4-1 .4c-.4 0-.5-.3-.5-.6m-3 .1c.3-.5.8-1 1.4-.7.6.3 1.2 1.1 1 1.6-.2.5-1.1.6-1.8.3-.6-.3-.8-.7-.5-1.2" fill="#fff"/><path d="M12.4 19.9l-9.1 1a7 7 0 0 1 1.6-2.4 8.7 8.7 0 0 1 3.7-1.6c2-.3 4.2-.7 6.5-.7a8 8 0 0 0 .9 0l-3 3.3a1 1 0 0 1-.7.4m-1.2 1.5l-2.6 2.9a1 1 0 0 1-.6.4l-6 .6.8-3.1.2-.5 8-.8a.3.3 0 0 1 .2.5M7 26l-1.8 2c-.1.2-.5.3-.7.3l-3 .3.3-2.4c1.2-.2 4-.6 5-.6.2 0 .3.2.2.4m2.2 0a.8.8 0 0 1 .2-.8l7.3-8.5c0 1.2-.4 3.1-.6 4.4a48.3 48.3 0 0 1-6.3 6.7L9.2 26zm-2.3 4l-.7-1.2a.3.3 0 0 1 0-.3l1.7-2a.3.3 0 0 1 .6.2 28 28 0 0 0 .5 1.6.3.3 0 0 1 0 .2 30.4 30.4 0 0 1-2 1.6.3.3 0 0 1-.1-.2" fill="#78c5ed"/><path d="M5.9 30c-.2-.6-1-.8-1.6-.5-.6.3-1 .9-.8 1.4.2.5 1 .6 1.6.4.6-.3 1-.9.8-1.4M3 31.5c0-.3-.5-.4-.8-.3-.4.1-.6.4-.6.7.1.3.5.5.9.4.3-.1.6-.5.5-.8m-.2-1.7c0-.3-.4-.5-.8-.4-.4 0-.7.3-.7.6s.4.4.8.4.8-.3.7-.6" fill="#fff"/></g></svg>