<svg xmlns="http://www.w3.org/2000/svg" viewBox="0 0 45 45"><defs><clipPath id="a"><path d="M0 36h36V0H0v36z"/></clipPath></defs><g clip-path="url(#a)" transform="matrix(1.25 0 0 -1.25 0 45)"><path d="M23 15c0-6.3-3-10-5-10s-5 3.6-5 10 2.2 7 5 7 5-.7 5-7" fill="#66757f"/><path d="M22 25c0-3.3-.7-4-4-4s-4 .7-4 4 .7 4 4 4 4-.7 4-4" fill="#66757f"/><path d="M14 25c-2 5 1 7 1 7s2-1 2-4-3-3-3-3" fill="#66757f"/><path d="M14.7 26.1c-.8 2.5-.1 3.9.4 4.6A3.8 3.8 0 0 0 16 28c0-1.3-.7-1.7-1.3-1.9" fill="#546066"/><path d="M22 25c2 5-1 7-1 7s-2-1-2-4 3-3 3-3m-6-3c-1.6-1.2-10-2-9 5 .2 1-1 1-2 0-3-3-6-7.8-4-20 3 5 6 4 7-1 3 4 6 2 8 0 3 3 0 16 0 16m4 0c1.6-1.2 10-2 9 5-.2 1 1 1 2 0 3-3 6-7.8 4-20-3 5-6 4-7-1-3 4-6 2-8 0-3 3 0 16 0 16" fill="#66757f"/><path d="M17 25a1 1 0 1 0-2 0 1 1 0 0 0 2 0m4 0a1 1 0 1 0-2 0 1 1 0 0 0 2 0" fill="#292f33"/><path d="M21.3 26.1c.8 2.5.1 3.9-.4 4.6A3.8 3.8 0 0 1 20 28c0-1.3.7-1.7 1.3-1.9" fill="#546066"/><path d="M8 9c.9 2.8.6 6-1 10a14 14 0 0 0-1.1 7.4l-.2-.1C3 23.6.5 19.5 1.7 9.6c1.2 1.3 2.4 1.7 3.2 1.7 1.3 0 2.3-.8 3-2.2" fill="#99aab5"/><path d="M6.8 22.8C7 20 8.4 19 9 16c.6-3 .5-5.5 0-7.6 1 .6 1.8 1 2.7 1 1.3 0 2.6-.6 4-1.7C14 17 9 19 6.7 22.7M28 9.2c-.9 2.7-.6 6 1 9.9a14 14 0 0 1 1.1 7.4l.2-.1c2.7-2.7 5.2-6.8 4-16.7-1.2 1.3-2.4 1.7-3.2 1.7-1.3 0-2.3-.8-3-2.2" fill="#99aab5"/><path d="M29.2 22.8C29 20 27.6 19 27 16a19.8 19.8 0 0 1 0-7.6c-1 .6-1.8 1-2.7 1-1.3 0-2.6-.6-4-1.7 1.7 9.3 6.7 11.3 9 15m-10.5.2a1 1 0 0 0-1.4 0l-.6.6c-.3.3-.2.7.3.7h2c.5 0 .6-.4.3-.7l-.6-.6z" fill="#99aab5"/></g></svg>