<svg xmlns="http://www.w3.org/2000/svg" viewBox="0 0 45 45"><defs><clipPath id="a"><path d="M0 36h36V0H0v36z"/></clipPath></defs><g clip-path="url(#a)" transform="matrix(1.25 0 0 -1.25 0 45)"><path d="M36 16.1c-2.5 10-11 18-20 13 0 0-4.5 1.6-5.1 2-.7.5-1.7 1-1-.4.5-.8 1-1.7 2.4-3.3-4.3-4.4-3-9.7-4.6-13.1-1.3-3-2.5-4.8-1.3-7 1.4-2.3 4.8-3.5 7-1 1.3 1.2.5 1.9 3.2 4.1 2.7.6 4.4 1.8 4.4 4.4 0 0 .8.4 1.8-6 .5-2.8-.1-5.6 0-8.8H36v16.2z" fill="#9266cc"/><path d="M36 25c-.8 1-1.3 3-4.1 5 .5-1.4.8-3.8.6-5.4a9 9 0 0 1-4.4 7.2c-2.2 1.1-4.4 1-6.8.8.1-.2.4-.8.3-1.6-.4 1-1.6 1.5-2.3 1.3-3.5-.7-6-2.2-5-3.9 8.9 3.5 14.6-2.1 17.7-8.7.7-1.6 2.6-7 4-10.3V25z" fill="#55acee"/><path d="M16.9 29.3c-2.1-.6-5.3-2.5-6.5-4.6 0 0-2.6-.7-3.7 1.8 2.6-.8 4.9 2.4 6.8 3.5 4 2.5 3.3.2 3.3.2l.1-1z" fill="#55acee"/><path d="M13.8 27.9c-.7.7-12.9 8.6-13.6 7.9a66 66 0 0 1 11-10c.7.7 1.6 1.5 2.6 2" fill="#f4900c"/><path d="M13.8 32.3c.6-.7 3.2-.8 4.6-3.8 1.3-3-2-2.6-3.2-1.2a9 9 0 0 0-2.1 4c-.1.6-.5 2.6.7 1" fill="#9266cc"/><path d="M14.2 31c1-.5 2.2-1.5 2.5-2.6.4-1-.7-.9-1.3 0-.7 1-1 2-1.3 2.3-.3.3.1.3.1.3" fill="#744eaa"/><path d="M16.2 21.6a1 1 0 1 0-1.9-.3 1 1 0 0 0 1.9.3" fill="#292f33"/><path d="M8.6 9.1c.2-.6-.1-1.2-.6-1.3-.5-.1-1 .3-1.1 1-.2.7.1 1.3.6 1.3.5.1 1-.3 1.1-1" fill="#744eaa"/></g></svg>