<svg xmlns="http://www.w3.org/2000/svg" viewBox="0 0 45 45"><defs><clipPath id="a"><path d="M0 36h36V0H0v36z"/></clipPath></defs><g clip-path="url(#a)" transform="matrix(1.25 0 0 -1.25 0 45)"><path d="M22.9 2.9a1 1 0 0 1-.4.4C20.9 5 22 7 22 7c0 .6 1 2 0 2l-1-1c-1-1-1-4-1-4h-2a1 1 0 1 1 0-2h1.1l-.2-.1a1 1 0 0 1 1-1.8l2.6 1.4a1 1 0 0 1 .4 1.4m-7 0a1 1 0 0 1-.4.4C13.9 5 15 7 15 7c0 .6 1 2 0 2l-1-1c-1-1-1-4-1-4h-2a1 1 0 1 1 0-2h1.1l-.2-.1a1 1 0 0 1 1-1.8l2.6 1.4a1 1 0 0 1 .4 1.4" fill="#ffac33"/><path d="M5.1 29c2-5-3-5-2-7s5 2 3 7-1 0-1 0" fill="#be1931"/><path d="M7 30c0-1.1 2-2 0-2s-7 1-7 2 1 3 3 3 4-1.9 4-3" fill="#ffac33"/><path d="M6 15c0 6 3.2 13 1 13-4 0-4 1.8-4 4a4 4 0 0 0 4 4c7 0 6-9 4-13-1.7-3.4-2-8-5-8" fill="#c1694f"/><path d="M36 19c0-8-5-11.3-10-11.3A12 12 0 0 0 18 5C11.4 5 6 9.8 6 15.8c0 6 5.4 10.8 12 10.8 3 2.7 7 6.5 10 7.4 6-3.6 8-7.8 8-15M7 33a1 1 0 1 0-2 0 1 1 0 0 0 2 0" fill="#292f33"/><path d="M18 26.6a13 13 0 0 1-4.6-.8c4 .2 6.3 0 9.6-1.6-1 1.5-3.4 2.4-5 2.4m18-5.4a20.8 20.8 0 0 1-.6 3.5c-6.2-1.3-3.4-3.5.5-3.5m-2 7.2a13.5 13.5 0 0 1-2.6 3.2c-7.1-3.6-3-4.8 2.6-3.2m1.2-14.5c-3.4 1.1-4.2-.8-2.2-3.4-2.5 2.3-4 1-3.3-2-1.5 2.2-3 .2-3.6-.8 3.8 0 7.5 1.9 9.1 6.2m-3.8 17.7c-1 .8-2 1.6-3.3 2.4-7-3.7-2-4.4 3.3-2.4m3.8-17.7c.6 1.4.9 3.1.9 5.1v2.2c-4.7-.4-3.9-3 0-3.4-3.6 0-4.3-2.2-.9-3.9M34 28.4c-6.4-2.4-3.7-4.3 1.5-3.7a13.6 13.6 0 0 1-1.5 3.7" fill="#66757f"/></g></svg>