<svg xmlns="http://www.w3.org/2000/svg" viewBox="0 0 45 45"><defs><clipPath id="a"><path d="M0 36h36V0H0v36z"/></clipPath></defs><g clip-path="url(#a)" transform="matrix(1.25 0 0 -1.25 0 45)"><path d="M36 15c0-5-3-9-11-11C18 2.2 4 5 4 6c0 1.1 2.5 1.4 6.8 1.1 11-.6 13.8 3.9 12 5.3-3 2.4-6.4-.4-12 .1-7 .6-10.8 6-10.8 7.5 0 2 11.7 8 20 8s16-4.3 16-13" fill="#66757f"/><path d="M15 23.5a1.5 1.5 0 1 0-3 0c0 .8.7.5 1.5.5s1.5.3 1.5-.5" fill="#292f33"/><path d="M14 27c2 5 5.3 9 8 9s-1-2 4-10-12 1-12 1M3 6c0 4-1 6 .1 6 1.2 0 6-4 6-6.2S4.4 0 3.2 0C2 0 3 2 3 6" fill="#66757f"/><path d="M27 13.5L35 6s-3.3-1.8-8 7.5" fill="#292f33"/><path d="M27 13.5l5.5 3.8S36.3 7.4 34.9 6c-2.6 1-8 7.5-8 7.5" fill="#66757f"/><path d="M9 15.7c0-.5-.5-2.7-1-2.7s-1 2.2-1 2.7v1.8c0 .5.5-1 1-1s1 1.5 1 1v-1.8zm3 0c0-.5-.5-2.7-1-2.7s-1 2.2-1 2.7v1.8c0 .5.5-1 1-1s1 1.5 1 1v-1.8zm3 1c0-.5-.5-2.7-1-2.7s-1 2.2-1 2.7v1.8c0 .5.5-1 1-1s1 1.5 1 1v-1.8zm3 0c0-.5-.5-2.7-1-2.7s-1 2.2-1 2.7v1.8c0 .5.5-1 1-1s1 1.5 1 1v-1.8z" fill="#fff"/><path d="M6 16l7 1h6v2H6v-3z" fill="#66757f"/><path d="M18.4 16.8c-4 2.1-13.4 0-14.9-1.5l1.6-1c6 3.3 14 2.2 13.3 2.5" fill="#292f33"/></g></svg>