<svg xmlns="http://www.w3.org/2000/svg" viewBox="0 0 45 45"><defs><clipPath id="a"><path d="M0 36h36V0H0v36z"/></clipPath></defs><g clip-path="url(#a)" transform="matrix(1.25 0 0 -1.25 0 45)"><path d="M7.3 25c-5.7-9 1-18 1-18s2.8.4 6.8 5.2S7.3 25 7.3 25m21.4 0c5.7-9-1-18-1-18s-2.9.4-6.9 5.2S28.7 25 28.7 25" fill="#662113"/><path d="M15.2 4.4a1.2 1.2 0 0 1-.5.5c-2 2.2-.6 4.8-.6 4.8 0 .7 1.3 2.5 0 2.5l-1.3-1.3c-1.3-1.2-1.3-5-1.3-5H9a1.3 1.3 0 1 1 0-2.6h1.4l-.3-.2A1.3 1.3 0 0 1 11.3 1l3.4 1.8c.6.3.8 1.1.5 1.7m5.6 0c.1.3.3.4.5.5 2 2.2.6 4.8.6 4.8 0 .7-1.3 2.5 0 2.5l1.3-1.3c1.3-1.2 1.3-5 1.3-5H27a1.3 1.3 0 0 0 1.3-1.3A1.3 1.3 0 0 0 27 3.3h-1.4l.3-.2A1.3 1.3 0 1 0 24.7 1l-3.4 1.8a1.3 1.3 0 0 0-.5 1.7" fill="#ffac33"/><path d="M28.3 24.7c2.9 6.1 0 10.6 0 10.6s-5.8-1-6.8-3c-1.2-2.3 6.8-7.6 6.8-7.6" fill="#662113"/><path d="M29.6 23.3C29.6 13 26.4 2.7 18 2.7S6.4 13 6.4 23.3 11.6 33.9 18 33.9c6.4 0 11.6-.3 11.6-10.6" fill="#662113"/><path d="M27.7 18.3C27.7 8 19.9 3.7 18 3.7c-1.9 0-9.7 4.3-9.7 14.6s19.4 10.3 19.4 0" fill="#c1694f"/><path d="M7.7 24.7c-2.9 6.1 0 10.6 0 10.6s5.8-1 6.8-3c1.2-2.3-6.8-7.6-6.8-7.6" fill="#662113"/><path d="M15 31.6c-4.3 1.6-7.3 3.6-7.3 3.6s-2-3.2-1-7.9c.5-2.1 2-4.2 4-4.6 2.6-.7 7.3 0 7.3 4 0 2.6-1 4.2-3 5m6 0c4.3 1.5 7.3 3.5 7.3 3.5s2-3.2 1-7.9c-.5-2.1-2-4.2-4-4.6-2.6-.7-7.3 0-7.3 4 0 2.6 1 4.2 3 5" fill="#c1694f"/><path d="M16 27.6a3.8 3.8 0 1 0-7.6 0 3.8 3.8 0 0 0 7.7 0m11.5 0a3.8 3.8 0 1 0-7.7 0 3.8 3.8 0 0 0 7.7 0" fill="#ffd983"/><path d="M14.2 27.6a2 2 0 1 0-3.9 0 2 2 0 0 0 3.9 0m11.5 0a2 2 0 1 0-3.9 0 2 2 0 0 0 3.9 0" fill="#292f33"/><path d="M20.9 23.3c0-2.4-2.9-3.4-2.9-3.4s-2.9 1-2.9 3.4 2.9 3.3 2.9 3.3 2.9-1 2.9-3.3" fill="#ffcc4d"/><path d="M20.9 23.3c0-2.4-2.9-3.4-2.9-3.4s-2.9 1-2.9 3.4c1.2-1.2 2.9-1.5 2.9-1.5s1.7.3 2.9 1.5" fill="#f4900c"/></g></svg>