<svg xmlns="http://www.w3.org/2000/svg" viewBox="0 0 45 45"><defs><clipPath id="a"><path d="M0 36h36V0H0v36z"/></clipPath></defs><g clip-path="url(#a)" transform="matrix(1.25 0 0 -1.25 0 45)"><path d="M5 20c0 4-5 3-4-1s3-5 3-5l1 6zm26 0c0 4 5 3 4-1s-3-5-3-5l-1 6z" fill="#292f33"/><path d="M32.6 14.3C32.6 3.3 28 .2 18 .2S3.3 3.4 3.3 14.2c0 11 4.7 21.5 14.7 21.5s14.7-10.5 14.7-21.4" fill="#292f33"/><path d="M27.6 13c1.5 4.5 2 7.3-.5 7.3H9c-2.6 0-2-2.8-.5-7.3C3.5 1.8 17.2 1.2 18 1.2c.8 0 14.3 1 9.6 11.8" fill="#66757f"/><path d="M15 18a2 2 0 1 0-4 0c0 1.1.9 1 2 1s2 .1 2-1m10 0a2 2 0 1 0-4 0c0 1.1.9 1 2 1s2 .1 2-1m-8-5.7c0-.5-.6-1-1.4-1-.8 0-1.5.5-1.5 1 0 .6.7 1 1.5 1s1.4-.4 1.4-1m4.9 0c0-.5-.7-1-1.5-1s-1.4.5-1.4 1c0 .6.6 1 1.4 1 .8 0 1.5-.4 1.5-1" fill="#292f33"/><path d="M21 15c-2 .2-3-.9-3-.9s-1 1.1-3 .9c-3.2-.5-3.3-3.3-2-3.1.8 0 .2.9 1.8 1.5 1.5.6 3.2-.6 3.2-.6s1.7 1.2 3.3.6.9-1.4 1.7-1.5c1.3-.2 1.2 2.6-2 3" fill="#99aab5"/><path d="M24.8 6c-1.2-.3-3.2-.6-6.8-.6s-5.6.3-6.8.6c-3.2.8-2 1.7 0 1.5a45.4 45.4 0 0 1 13.6 0c2 .2 3.2-.7 0-1.5" fill="#292f33"/><path d="M4.3 19.4C5.7 20.6 3.1 23 2 21.9c-.3-.4 1 .2 1.4-1 .3-1 0-2.3.8-1.5m27.6 0c-1.5 1.2 1 3.7 2.1 2.5.4-.4-.9.2-1.3-1-.3-1 0-2.3-.8-1.5" fill="#66757f"/></g></svg>