<svg xmlns="http://www.w3.org/2000/svg" viewBox="0 0 45 45"><defs><clipPath id="a"><path d="M0 36h36V0H0v36z"/></clipPath></defs><g clip-path="url(#a)" transform="matrix(1.25 0 0 -1.25 0 45)"><path d="M27.3 28.5c-1.2 3-2.6 6.8-8.3 6.9-1.8 0-1.5-.5-.3-1 2.2-1-2.5-5.5 4.7-7.4 5.7-1.6 5-1.6 3.9 1.5" fill="#66757f"/><path d="M36 32.1c-7.7 0-14.4-2.5-18.1-5.8-4.9-4.2-5.4-10.3-14-15.6C1 8.9 3.4 3.2 5 1 7-1.5 33.6.8 36 9.8v22.3z" fill="#99aab5"/><path d="M8.7 6.3c1-.5 1.8-1 1.3-2s-1.2-.2-2.2.3c-1 .5-2.3 0-1.8 1 .5 1 1.7 1.2 2.7.7m25.5 23.4c.2 2.5-2.2 5-6 5.9-1.6.4-3.2.3-2.3-.5 1.8-1.6 0-4 1.3-7.1.7-1.7 3.2-3.8 4.7-3.8 1 0 2 2.8 2.3 5.5" fill="#66757f"/><path d="M33.3 29.7c.2 2.5-2.3 5.4-6.2 6-1.7.2-2.3-.1-1.4-1 1.8-1.5-.6-3.6.7-6.7.8-1.6 3.4-3.8 5-3.9 1 0 1.6 2.9 1.8 5.6" fill="#99aab5"/><path d="M2.6 9.1c-2.5 4-3.6 12-1.5 17.6.4.8 1.1 1 1.2-.1.2-2.3 2.4-6.9 8-11 1.2-1-5.7-9.5-7.7-6.5" fill="#ccd6dd"/><path d="M13.3 20.6a8.6 8.6 0 0 0-4.2 4.7c-.5 1.7-2.1-4 1-9 1.1-2 4.6 3.7 3.2 4.3" fill="#ccd6dd"/><path d="M18.8 15a2 2 0 1 0-4 0 2 2 0 0 0 4 0" fill="#292f33"/><path d="M30.3 26.6c1.3-.1 2 1.7 1.2 4.7-.6 2.6-4.2 3.2-4.2 3 0-.1 1-1.5 0-2.9-1-1.3 1.3-4.7 3-4.8" fill="#e6aaaa"/></g></svg>