<svg xmlns="http://www.w3.org/2000/svg" viewBox="0 0 45 45"><defs><clipPath id="a"><path d="M0 36h36V0H0v36z"/></clipPath></defs><g clip-path="url(#a)" transform="matrix(1.25 0 0 -1.25 0 45)"><path d="M27.4 0c-.4 12.6-3 23.7-11.8 23.7S4.2 12.7 3.8 0h23.6z" fill="#292f33"/><path d="M9 0c-.6 5.9-2.2 10-4 10S1.7 5.9 1 0h8zm23 0c-.8 5.9-2.5 10-4.5 10s-3.8-4.1-4.6-10H32z" fill="#292f33"/><path d="M27.5 12.3C23.5 23.5 28 33 17 33S8.3 24.8 3.8 13.9c-1.1-2.8 1.5-6 1.5-6s2.6 4.8 4.7 5.9c.6-3.3 1.8-7 1.8-7s4.9 5.7 9 8.3c1.2-1.5 5-7.5 5-7.5s2.4 2.5 1.7 4.7" fill="#e1e8ed"/><path d="M23 31c4.4-3 5.5-2.2 7.8-3.6 2.1-1.3 2-4.9.1-8-.5 2.6.5 3.1-6.9 3.1-5 0-8-.3-7 1s10-.4 6 7.5" fill="#ffcc4d"/><path d="M21 28.5a1.5 1.5 0 1 0-3 0 1.5 1.5 0 1 0 3 0" fill="#292f33"/><path d="M22 29h-5v2h5v-2zm-7-13s1-3 6-7c1 3 4 8 4 8l-10-1z" fill="#e1e8ed"/></g></svg>