<svg xmlns="http://www.w3.org/2000/svg" viewBox="0 0 45 45"><defs><clipPath id="a"><path d="M0 36h36V0H0v36z"/></clipPath></defs><g clip-path="url(#a)" transform="matrix(1.25 0 0 -1.25 0 45)"><path d="M7 15.4c0-.7-.6-1.3-1.4-1.4-.8 0-1.6.4-1.6 1 0 .7.5 1.3 1.3 1.3.9.1 1.6-.3 1.7-1m2-2.7c.2-.8-1.7-2.5-2.5-2.6a1.5 1.5 0 0 0-1.7 1.2c-.2.8.5 1.2 1.4 1.3.8.1 2.7 1 2.8.1m1.8-2c.2-.9-1.6-4-2.4-4.2-.8-.1-1.6-.1-1.8.7-.2.8.3 1.7 1 1.9.9.1 3 2.3 3.2 1.5m3.9-.8c.2-.8-1.3-4.4-2.2-4.5-.8-.2-1.4-.5-1.6.3-.1.8.3 2 1 2.6.7.5 2.6 2.4 2.8 1.6" fill="#a0041e"/><path d="M4 17.1c.5-.7 1.1-1.2.4-1.8-.7-.6-1.8-.2-2.4.5-.6.8-2.2 3.5-1.5 4 .7.7 2.8-2 3.4-2.7m.3-4.9c1-.2 2-.7 1.6-1.6-.3-1-1.3-1-2.2-.7-.9.3-3.8 1.7-3.5 2.5.3 1 3.3.1 4.2-.1m1.2-4.6c.9.3 1.9.3 2.1-.6.3-.9-.2-1.5-1.2-1.8-.9-.2-4.3-.7-4.6.2-.2.9 2.8 2 3.7 2.2m4.3-3.2c.1 1 .7 1.7 1.6 1.6 1 0 1.3-1 1.2-2-.1-.9.1-3.5-1.7-4-1-.2-1.2 3.5-1 4.4M29 15.4c0-.7.6-1.3 1.4-1.3.8-.1 1.6.3 1.6 1 0 .6-.5 1.2-1.3 1.3-.9 0-1.6-.4-1.7-1m-2-2.7c-.2-.9 1.7-2.6 2.5-2.7a1.5 1.5 0 0 1 1.7 1.2c.2.9-.5 1.2-1.4 1.3-.8.1-2.7 1-2.8.1m-1.8-2c-.2-.9 1.6-4 2.4-4.2.8-.1 1.7-.1 1.8.7.2.8-.3 1.7-1 1.9-.9.1-3 2.4-3.2 1.5m-3.9-.8c-.2-.8 1.3-4.4 2.2-4.5.8-.2 1.4-.5 1.6.3.1.8-.3 2-1 2.6-.7.5-2.6 2.4-2.8 1.6" fill="#a0041e"/><path d="M32 17.1c-.5-.7-1.1-1.2-.4-1.8.7-.6 1.8-.2 2.4.5.6.8 2.2 3.5 1.5 4-.7.7-2.8-2-3.4-2.7m-.4-4.9c-.8-.2-1.8-.7-1.5-1.6.3-1 1.3-1 2.2-.7.9.3 3.8 1.7 3.5 2.5-.3 1-3.3.1-4.2-.1m-1.2-4.6c-.9.3-1.9.3-2.1-.6-.3-.9.2-1.5 1.2-1.8.9-.2 4.3-.7 4.6.2.2.9-2.8 2-3.7 2.2m-4.3-3.2c-.1 1-.7 1.7-1.6 1.6-1 0-1.3-1-1.2-2 .1-.9-.1-3.5 1.8-4 .9-.2 1 3.5 1 4.4m-23 17.6a1.7 1.7 0 1 0 3 1.4c.4-.9 2.7-5.6 1.8-6-.8-.4-4.5 3.8-4.9 4.6" fill="#a0041e"/><path d="M4 24c1.2-3 8.3 3.3 8.8 6.2.5 3-.3 4.3-.7 4.6-.4.3.2-1.5-1.2-3.3C10 30 3.2 26 4 24m29-2a1.7 1.7 0 0 1-3.1 1.4c-.4-.9-2.7-5.6-1.9-6 1-.4 4.6 3.8 5 4.6" fill="#a0041e"/><path d="M32 24c-1.2-3-8.3 3.3-8.8 6.2-.5 3 .3 4.3.7 4.6.4.3-.1-1.5 1.2-3.3 1-1.5 7.7-5.5 7-7.5" fill="#a0041e"/><path d="M6 14c0 2 2 10 12 10s12-8 12-10c-5-3-5.4-7-12-7s-6 4-12 7m-1.7 9.8c-3.1-.6-.3 8.1 2 10 2.2 2 4.6 2 5 1.8.5-.1-1.2-2.6-1.7-4.1-.3-.8-3.1-7.3-5.3-7.7m27.4 0c3.1-.6.3 8.1-2 10-2.2 2-4.6 2-5 1.8-.5-.1 1.2-2.6 1.7-4.1.3-.8 3.1-7.3 5.3-7.7" fill="#be1931"/><path d="M17 23.9c.4-1.4 0-1.6-.8-1.8-.8-.2-1.7-.3-2 1-.4 1.4 0 2.6.8 2.8.8.2 1.7-.7 2-2m5-.9c-.4-1.3-1.3-1.2-2-1-.9.2-1.3.4-1 1.8.4 1.3 1.3 2.2 2.1 2 .8-.2 1.2-1.4.9-2.8" fill="#a0041e"/><path d="M16 26.5a1.5 1.5 0 1 0-3 0 1.5 1.5 0 0 0 3 0m7 0a1.5 1.5 0 1 0-3 0 1.5 1.5 0 0 0 3 0" fill="#292f33"/><path d="M9 14.5c0-.3-3-.8-2.2.7.7 1.5 2.4-.5 2.3-.7" fill="#dd2e44"/><path d="M9.9 15.9c-.2-.2-3.2-.4-2 1.4 1.3 1.8 2.3-1.1 2-1.4" fill="#dd2e44"/><path d="M11.7 17.3c-.4-.2-3.5.5-1.4 2 1.8 1.3 1.8-1.7 1.3-2" fill="#dd2e44"/><path d="M14.1 18.6c-1-.3-3.4 1.3-.9 2.1 2.5.9 2-1.8.9-2.1m12.8-4.1c.1-.3 3-.8 2.3.7-.8 1.5-2.5-.5-2.3-.7" fill="#dd2e44"/><path d="M26 15.9c.2-.2 3.2-.4 2 1.4-1.3 1.8-2.3-1.1-2-1.4" fill="#dd2e44"/><path d="M24.3 17.3c.3-.2 3.4.5 1.3 2-1.8 1.3-1.9-1.7-1.4-2" fill="#dd2e44"/><path d="M21.8 18.6c1-.3 3.4 1.3.9 2.1-2.5.9-2-1.8-.9-2.1" fill="#dd2e44"/><path d="M26.9 19.8c0-.5-2.2 2.2-8.9 2.2s-8.8-2.7-8.8-2.3c0 .5 2.7 3.8 8.8 3.8 6.1 0 8.8-3.3 8.8-3.8" fill="#a0041e"/><path d="M10.8 11.6c0 .4 1.8-2.3 7.2-2.3s7.2 2.7 7.2 2.3c0-.4-2.2-3.8-7.2-3.8s-7.2 3.4-7.2 3.8" fill="#dd2e44"/></g></svg>