<svg xmlns="http://www.w3.org/2000/svg" viewBox="0 0 45 45"><defs><clipPath id="a"><path d="M0 36h36V0H0v36z"/></clipPath></defs><g clip-path="url(#a)" transform="matrix(1.25 0 0 -1.25 0 45)"><path d="M23.652 15.099c3.435.239 7.375.896 8.714 1.938 1.897 1.479 3.65 9.805 3.488 14.08-.045 1.174-.66 2.41-2.23 2.41-.204 0-.425-.021-.663-.066-3.025-.57-8.705-4.695-13.54-10.81.32 1.373.558 2.18-.007 2.559l2.656 4.827a.518.518 0 0 1-.906.499l-2.74-4.98c-.016-.03-.019-.063-.029-.095a6.882 6.882 0 0 1-.79 0c-.01.032-.013.065-.03.095l-2.739 4.98a.518.518 0 0 1-.906-.5l2.656-4.826c-.566-.377-.327-1.185-.006-2.56-4.837 6.116-10.516 10.24-13.542 10.81a3.65 3.65 0 0 1-.662.068c-1.569 0-2.186-1.237-2.23-2.411-.162-4.275 1.59-12.601 3.487-14.08 1.34-1.042 5.28-1.7 8.714-1.938-6.68-1.021-11-4.801-8.445-9.627 1.466-2.77 4.012-4.034 6.156-4.034 1.052 0 2.007.304 2.69.884 1.55 1.313 3.357 4.579 4.177 6.664C17.308 6.894 18 6.19 18 6.19s.692.704 1.074 2.796c.82-2.085 2.63-5.351 4.178-6.664.682-.58 1.637-.884 2.69-.884 2.144 0 4.69 1.265 6.155 4.034 2.556 4.826-1.763 8.606-8.445 9.627" fill="#292f33"/><path d="M22.62 4.774l.662 4.273a.512.512 0 0 1-.087.374l-3.976 5.1h-.032s-.11-2.51.354-4.023c.612-1.992 1.751-4.263 3.001-5.878.036.028.065.072.078.154M25.527 8.414l-1.378-.28a.319.319 0 0 1-.254-.263l-.593-4.124c.163-.168.326-.334.49-.473.42-.357 1.275-.646 2.014-.678l.113 5.506c.005.201-.187.353-.392.312M26.835 7.43c-.42-.15-.086-3.884-.006-4.722.89.225 1.81.788 2.649 1.802-.822 1.03-2.426 2.998-2.643 2.92M26.848 8.654a.547.547 0 0 1 .165-.4l3.04-2.95c.153.235.304.481.447.752.374.706.569 1.385.59 2.034-1.295.616-3.76 1.771-3.945 1.741-.254-.04-.297-1.177-.297-1.177M27.086 10.473L30.98 9.1c-.086.319-.22.63-.4.93-.765 1.27-2.233 2.433-4.184 3.26l.323-2.374a.547.547 0 0 1 .367-.443M26.111 9.67l-.617 3.965c-1.543.533-3.332.862-5.287.898l4.254-5.283c.333-.395 1.75-.104 1.65.42M12.717 9.048l.663-4.273c.012-.082.042-.126.078-.155 1.25 1.615 2.388 3.887 3.001 5.878.465 1.513.354 4.023.354 4.023h-.032l-3.977-5.1a.516.516 0 0 1-.087-.373M11.784 8.049l-1.317.28a.31.31 0 0 1-.375-.31l.105-5.423c.74.034 1.591.322 2.012.679.13.109.258.246.387.375l-.569 4.138a.31.31 0 0 1-.243.26M9.166 7.213c-.209.074-1.767-1.84-2.546-2.816.813-.942 1.696-1.473 2.552-1.69.078.818.394 4.362-.006 4.506M9.094 8.553s-.041 1.08-.282 1.119c-.184.029-2.705-1.157-3.89-1.721.044-.606.23-1.238.579-1.894a9.55 9.55 0 0 1 .459-.775l2.977 2.89c.103.1.16.238.157.38M9.016 10.809l.323 2.368c-1.82-.818-3.188-1.933-3.92-3.146-.18-.3-.311-.61-.397-.928l3.645 1.286a.516.516 0 0 1 .349.42M10.03 9.303l.892-.248a.28.28 0 0 1 .298.102l4.288 5.369c-1.88-.062-3.6-.397-5.087-.92l-.616-3.957a.31.31 0 0 1 .224-.346M20.273 16.102c.205 0 .423.003.666.003 2.25 0 4.426.477 6.456.833 1.856.325 3.158 1.126 3.72 1.562.4.312 1.131 1.249 1.69 2.562l-9.337-.935c-.752-.105-2.33-2.385-3.195-4.025M25.336 22.834c-.834-.958-1.117-1.506-1.117-1.506a.26.26 0 0 1 .22-.431c1.348.13 6.966.665 8.616.82.052.156.107.309.153.47.278.978.54 2.024.765 3.084l-6.525-.65c-.53-.1-1.28-.83-2.112-1.787M30.41 28.028l-2.22-2.174c-.155-.179-.018-.455.217-.43 1.034.1 5.177.57 5.721.631.168.887.303 1.773.386 2.632l-3.345-.333c-.26-.028-.588-.129-.759-.326M26.604 25.339c.188.22.252.52.17.798l-.579 1.783c-.005.014-.012.018-.017.03a48.378 48.378 0 0 1-6.316-6.761c-.227-1.513-.585-3.846-.716-5.064.034-.004.082-.005.12-.008.623 1.06 2.4 3.755 4.008 5.696a37.406 37.406 0 0 0 3.33 3.526M27.311 26.652a.309.309 0 0 1 .524-.11l1.943 1.905a.31.31 0 0 1 .037.366s-.38.699-.66 1.478a29.978 29.978 0 0 1-2.428-1.866c0-.035-.007-.07.008-.105.15-.36.409-1.145.577-1.668" fill="#78c5ed"/><path d="M32.907 31.543c.083-.296.458-.45.837-.344.38.106.62.433.536.73-.084.297-.459.45-.838.344-.379-.108-.618-.435-.535-.73M33.087 29.796c.036-.274.282-.451.7-.396.42.055.855.32.819.595-.036.274-.528.45-.948.396-.42-.054-.607-.321-.571-.595M30.158 29.892c.207-.51.693-.915 1.333-.657.64.26 1.19 1.081.983 1.593-.206.511-1.09.517-1.73.258-.64-.258-.792-.683-.586-1.194" fill="#fff"/><path d="M12.433 19.89l-9.158.98c.546-1.214 1.23-2.073 1.61-2.37.56-.437 1.864-1.237 3.72-1.563 2.03-.355 4.203-.69 6.453-.69.347 0 .647-.03.916-.06l-2.866 3.348c-.172.2-.413.327-.675.355M11.185 21.352l-2.557 2.943a1.031 1.031 0 0 1-.672.35l-5.928.624c.223-1.06.486-2.104.764-3.081.046-.163.101-.317.154-.472 1.566-.156 6.681-.665 8.018-.795a.26.26 0 0 1 .221.43M6.976 26.099l-1.74 1.982c-.172.198-.5.299-.759.327l-2.99.282c.076-.8.197-1.62.35-2.443 1.132-.14 4.036-.492 4.922-.58.235-.023.372.254.217.432M9.226 26.137a.854.854 0 0 1 .171-.798l7.302-8.553c.033-.04.06-.051.082-.045-.162 1.282-.45 3.16-.644 4.448a48.319 48.319 0 0 1-6.316 6.76c-.004-.011-.012-.015-.016-.03l-.579-1.782zM6.892 30.044l-.665-1.124a.31.31 0 0 1 .037-.365l1.661-1.882a.309.309 0 0 1 .524.11c.168.524.427 1.309.577 1.668a.286.286 0 0 1 .013.168A30.398 30.398 0 0 1 7.03 30.16a.3.3 0 0 1-.138-.117" fill="#78c5ed"/><path d="M5.878 29.91c-.2-.497-.887-.688-1.534-.426-.647.261-1.008.875-.808 1.371.2.496.886.686 1.533.425.647-.26 1.01-.875.81-1.37M3.093 31.543c-.083-.296-.458-.45-.837-.344-.38.106-.62.433-.536.73.083.297.458.45.837.344.38-.108.619-.435.536-.73M2.913 29.796c-.036-.274-.405-.451-.824-.396-.42.055-.73.32-.695.595.036.274.405.45.825.396.42-.054.73-.321.694-.595" fill="#fff"/></g></svg>