<svg xmlns="http://www.w3.org/2000/svg" viewBox="0 0 45 45"><defs><clipPath id="a"><path d="M0 36h36V0H0v36z"/></clipPath></defs><g clip-path="url(#a)" transform="matrix(1.25 0 0 -1.25 0 45)"><path d="M12.8 18.3c1.2-2.3 1.8 1.3 9.3 2.6 7.4 1.2 13.7-4.5 13.8-5.4.2-1-4.4-9.5-9.4-9.5H10.7c-4 0-7 7.2-4 11.4 0 0 4.5 3.5 6 .8" fill="#d99e82"/><path d="M13 17.9C8 10.9 7 6 10.8 6c-4.2 0-6.6 6.2-4.5 11 .5 1 1.8 2.5 1.8 2.5h4.1L13 18" fill="#c1694f"/><path d="M20 13.3c6.7 2.6 15.8 3.1 16 2.2 0-1-4.5-9.5-9.5-9.5H11.8c-4.1 0 1.2 4.4 8.3 7.3" fill="#e1e8ed"/><path d="M25.4 14.9c6 1.3 10.4 1.3 10.5.6.1-.6-1.5-4-4-6.5 2.3 2.8 1.5 6.1-6.5 5.9" fill="#292f33"/><path d="M7.1 29.9c1.6 5 10.5 4.1 10-.7-.3-4.8-6.4-7.9-4-11.3-1.7-1.4-5.1-1-6.8-.9A149 149 0 0 0 8 20.4c3 5.3-2.1 5.8-1 9.5" fill="#3e721d"/><path d="M1.9 27c.6 1 .5-.2 3.3-.2 1.6 0 1.5.6 1.7 1.6 0 .3.8-1.6 2-1.8 3.6-.5 2-2 0-2.2-.8-.2-2-.4-3.9-.2-2.5.2-3.7 1.5-3.1 2.7" fill="#ffcc4d"/><path d="M12.5 19.4c0-.6.5-1.5.5-1.5-1-1.5-5.6-3-7.3-3 0 .7.2 1.4.6 2.1 1.8.5 4.6 1.1 6.2 2.4" fill="#f5f8fa"/><path d="M11.7 29.9a1.3 1.3 0 1 0-2.6 0 1.3 1.3 0 0 0 2.6 0" fill="#292f33"/></g></svg>