<svg xmlns="http://www.w3.org/2000/svg" viewBox="0 0 45 45"><defs><clipPath id="a"><path d="M0 36h36V0H0v36z"/></clipPath></defs><g clip-path="url(#a)" transform="matrix(1.25 0 0 -1.25 0 45)"><path d="M13.4 26.2c.7-2.6.2-4.9-2.4-5.5-2.7-.7-6.2-5-8.8 1.4C.7 25.8-.6 33.6.9 33.9c1.5.4 11.9-5 12.5-7.7" fill="#f4900c"/><path d="M11.4 25.6c1-1.5-1.8-4.5-3.3-5.5s-3 .6-4.4 4.4C3 26.2 2 30.8 2.5 31.2c.6.3 8-4 9-5.6" fill="#a0041e"/><path d="M22.6 26.2c-.7-2.6-.2-4.9 2.4-5.5s6.2-5 8.8 1.4c1.5 3.7 2.8 11.5 1.3 11.8-1.5.4-11.9-5-12.5-7.7" fill="#f4900c"/><path d="M24.6 25.6c-1-1.5 1.8-4.5 3.3-5.5s3 .6 4.4 4.4c.7 1.7 1.7 6.3 1.1 6.7-.5.3-7.9-4-8.8-5.6" fill="#a0041e"/><path d="M18 26.8c-6.6 2.1-11.5-2-15.4-10h2.2s-2.2-2.2-3.3-5.5c2.2 1.1 3.3 1.1 3.3 1.1s-1.1-2.2-1.1-3.3c3.3 2.2 6.6 2.2 8.8-1.1 2.2-3.3 5.5 0 5.5 4.4v14.3zm0 0c6.6 2.1 11.5-2 15.4-10h-2.1s2.2-2.2 3.3-5.5c-2.2 1.1-3.3 1.1-3.3 1.1s1-2.2 1-3.3c-3.3 2.2-6.6 2.2-8.8-1.1-2.2-3.3-5.5 0-5.5 4.4v14.3z" fill="#f4900c"/><path d="M18 27.7c-11.3 0-9.6-4.4-8.4-11.6C10.8 8.8 12.3 3.7 18 3.7s7.2 5.1 8.4 12.4c1.2 7.2 3 11.6-8.4 11.6" fill="#f4900c"/><path d="M34.7 10c0 5.7-9.3 3.7-10 3-1.2-1.1-1.2-7.8-6.7-7.8S11.4 12 10.3 13c-.8.8-9.3 1.4-9-3 2.2 1.2 3.5.8 3.5.8S3.3 10 3.6 8c3.2 1.4 4.7 1.2 6.4.3C11.2 4.7 14.2 2 18 2s6.8 2.8 8 6.4c1.4 1.3 3.7.9 6.4-.4.3 1.8-1.2 2.7-1.2 2.7s1.3.4 3.5-.7" fill="#f18f26"/><path d="M34.5 11.3c-.9 2.7-9 4-9.9 3.3-1-1.1-1-7.7-6.6-7.7s-6.6 6.6-7.7 7.7c-.8.8-8-.6-8.9-3.3 2.2 1.1 3.3 1.1 3.3 1.1s-1-2.2-1-3.3c2.6 1.8 5.3 2.1 7.4.4C12.3 6 14.2 3.7 18 3.7c3.8 0 5.7 2.2 7 5.8 2 1.7 4.7 1.4 7.4-.4 0 1-1.1 3.3-1.1 3.3s1 0 3.2-1.1" fill="#ffd983"/><path d="M11 19s0 1.5 1.5 1.5S14 19 14 19v-1.5s0-1.5-1.5-1.5-1.5 1.5-1.5 1.5V19zm11 0s0 1.5 1.5 1.5S25 19 25 19v-1.5s0-1.5-1.5-1.5-1.5 1.5-1.5 1.5V19zM15 8.2c-1-.2 2-4 3-4s4 3.8 3 4c-1 .2-5 .2-6 0" fill="#272b2b"/></g></svg>