<svg xmlns="http://www.w3.org/2000/svg" viewBox="0 0 45 45"><defs><clipPath id="a"><path d="M0 36h36V0H0v36z"/></clipPath></defs><g clip-path="url(#a)" transform="matrix(1.25 0 0 -1.25 0 45)"><path d="M31 25c0 6-13 11-13 11V11s13 8 13 14M5 25c0 6 13 11 13 11V11S5 19 5 25" fill="#ea596e"/><path d="M27 25c0-3.8-9-12-9-12s-9 8.2-9 12c0 5 9 11 9 11s9-6 9-11" fill="#f4abba"/><path d="M13 20.1c2.5-4.2-1.8-9-4.4-8.2-2.5.8-3.4-1.7-.8-2.6 2.5-.8 8 .4 11 3.4.9.9 1.8.9 1.8.9L13 20z" fill="#be1931"/><path d="M23 20.1c-2.5-4.2 1.8-9 4.4-8.2 2.5.8 3.4-1.7.8-2.6-2.5-.8-8 .4-11 3.4-.9.9-1.8.9-1.8.9L23 20z" fill="#be1931"/><path d="M9 19c2.5-4.3-1.4-11.4-4-10.5-2.5.8-3.3-1.7-.8-2.6 2.6-.8 8 .4 11 3.4 1 .9 1.8.9 1.8.9L9 19zm18 0c-2.6-4.3 1.4-11.4 4-10.5 2.5.8 3.3-1.7.8-2.6-2.6-.8-8 .4-11.1 3.4-.9.9-1.7.9-1.7.9l8 8.8z" fill="#ea596e"/><path d="M31 3.6C28.5 3 24 9 25 15c2 5-4 7.5-4 10 0 6-2 9.7-3 9.7s-3-3.6-3-9.7c0-2.5-6-5-4-10C12 9 7.4 2.9 5 3.7 2.6 4.5 1.8 1 4.3.3c2.6-.9 7.1.5 10.2 3.4C16.3 5.3 18 5.3 18 5.3s1.7 0 3.6-1.7C24.7.8 29.2-.6 31.8.2c2.5.9 1.7 4.3-.9 3.4" fill="#f4abba"/><path d="M17 12.5a2.5 2.5 0 1 0-5 0 2.5 2.5 0 0 0 5 0m7 0a2.5 2.5 0 1 0-5 0 2.5 2.5 0 0 0 5 0" fill="#292f33"/></g></svg>