<svg xmlns="http://www.w3.org/2000/svg" viewBox="0 0 45 45"><defs><clipPath id="a"><path d="M0 36h36V0H0v36z"/></clipPath></defs><g clip-path="url(#a)" transform="matrix(1.25 0 0 -1.25 0 45)"><path d="M17.7 14s2-7.9 1.2-9.4C16.5 0 17.7 0 18.9 0h2.3c2.4 0-1.1 14-1.1 14h-2.4zM5.3 16.6s-.5-8-1.2-9.5C1.7 2.4 1.7 0 2.9 0h2.4c1.1 0 1.1 4.2 1.1 5.3 0 1.2 1.2 8.6 1.2 8.6l-2.3 2.7z" fill="#3e721d"/><path d="M12.4 30.8c-2 0-4.2.4-5.6-2.2-1.4-2.7-2-8.5.8-9.6 2.5-1 8 1.2 13.9-1.2 6-2.4 8.3-16.6 13-16.6 1.2 0 1.2-1.2 0-1.2C28.6 0 26 6 25 6c0 0 1-6 0-6h-4c-1 0 0 3 0 4.3v1.6s-1.6-1.2-6-1.2C11.9 4.7 9 6 9 6s1-6 0-6H5.2c-1.6 0 .2 4 0 6 0 1.1-.5 4.7-1.2 5.9A30.2 30.2 0 0 0 2.1 27c.8 3.6 3.1 6.7 4.7 7.6 1.5.8 2.8 1.5 6.2 1 1.7-.4 3.6-3 2.9-4.4-.5-.8-2-.5-3.5-.6" fill="#77b255"/><path d="M13 33.8a.6.6 0 1 0-1.2 0 .6.6 0 0 0 1.2 0"/><path d="M10.2 17.5a.6.6 0 1 0-1-.3.6.6 0 0 0 1 .3m3.9-1.2a.8.8 0 1 0-1.6-.5.8.8 0 0 0 1.6.5m-1.6 1.4a.4.4 0 1 0-.9-.3.4.4 0 0 0 .9.3m2.4.3a.4.4 0 1 0-.8-.2.4.4 0 0 0 .8.2m2.9-.3a.8.8 0 1 0-1.5-.5.8.8 0 0 0 1.5.5m4.7-2a.5.5 0 1 0-1-.3.5.5 0 1 0 1 .3m-5.8 0a.5.5 0 1 0-1-.3.5.5 0 1 0 1 .3m4.2 1.3a.5.5 0 1 0-1-.3.5.5 0 1 0 1 .3m-1.5-.2a.7.7 0 1 0-1.4-.4.7.7 0 0 0 1.4.4" fill="#5c913b"/></g></svg>