<svg xmlns="http://www.w3.org/2000/svg" viewBox="0 0 45 45"><defs><clipPath id="a"><path d="M0 36h36V0H0v36z"/></clipPath></defs><g clip-path="url(#a)" transform="matrix(1.25 0 0 -1.25 0 45)"><path d="M36 0v14.2l-6.7 10.1c-3.6 2.9-8 7.5-14 5.4 0 0-3 .2-4.1-1.2-2.7-2-4.9-8.8-6.2-11.2-2.2-4-4.7-7-4-9 1-2.8 1.9-4.8 4.8-2.7 1.6 1.2 1.9 3.8 5.1 5.7 3 .1 7.1.5 8.5 4 0 0 2.7-3.4 5.3-10.6L26 0h10z" fill="#ffcc4d"/><path d="M11.8 28s-.2 3.3-1 4.6c-.8 1.3-.7 1.9.4 2.4 1 .5 2 .2 1.4-1.4-.4-1.3 0-3.3 1-4.2l-1.8-1.3zm2.5 5.1c.5-1 3.3-1.5 4.2-5 .8-3.5-2.6-2.4-3.6-.7a9.7 9.7 0 0 0-1.6 4.7c0 .7 0 3 1 1" fill="#ffcc4d"/><path d="M36 17.7C27.7 31 17.7 33.5 13.3 29.3c8 1.6 13.4-2 22.7-15.1v3.5z" fill="#754c29"/><path d="M16.4 29.7c-2.3-.2-6-4.7-7.8-6.6 0 0-2 6 1 6.4 5.2.6 5.7.3 5.7.3l1.1-.1z" fill="#f4900c"/><path d="M20.8 33.7c-.5-1 1-3.5-1-6.4-2.2-3-3.6.4-3 2.3a9.7 9.7 0 0 0 2.6 4.2c.5.4 2.2 1.9 1.4 0" fill="#ffcc4d"/><path d="M19.8 32.6a9.6 9.6 0 0 0-.2-2 4.1 4.1 0 0 0-.9-1.8c-.8-1-1.2.2-.7 1.3s1.4 2 1.4 2.5c.1.4.4 0 .4 0" fill="#f4900c"/><path d="M13 22.1a1.4 1.4 0 1 0-2.8 0 1.4 1.4 0 0 0 2.9 0" fill="#292f33"/><path d="M3.7 9.8c0-.8-.4-1.3-1-1.3-.5 0-1 .6-1 1.3 0 .7.5 1.3 1 1.3.6 0 1-.6 1-1.3" fill="#603913"/><path d="M25.4 26.3s-3.6-1.3-2.9-3.5c.7-2.1 2.2-5.8 3.3-5.8 1.2 0 4.6 4.5 4.6 4.5s-2.5 2.9-5 4.8m6.3-6.4s-3.2-1.4-3.2-3.2c0-1.9-1.2-4.9.2-6.4 1.3-1.5 4.3-1.1 5.8-.1s1.5 1.6 1.5 1.6v2.4l-2 2.6a57.8 57.8 0 0 1-2.3 3m-6-4.5c1.5-.4 1.6-2.8.6-4s-2.8-2.5-3.6.4c-.9 2.8 1.1 4.1 3 3.6m5.5-8c-3.8 2-4.5-1.1-4.7-3.1-.2-2 .5-2.9 2.5-3.2 2-.3 6.8 3.8 2.2 6.3M36 8.7s-2.7.5-2.5-.9C33.7 6.5 36 3 36 3v5.7zm-33.7 4s3.3 5.3 4.6 9C8 25.4 10.5 27 10.5 27S9 21.7 7.7 18.7c-1.4-3-4.4-7.3-5.4-6m15.5 6.8c1.5-.2 3-2.8.9-3.3-2.2-.5-4 .6-3.7 2 .3 1.3 2.8 1.3 2.8 1.3m-2.1-5.8c-1.5-1.3-3-1-3.4-.2-.3.8-.8 3.7 1 3.2s3.3-2.1 2.4-3m-4.4-.9c-1-.8-2.2-.6-2.4 0-.2.4-.6 2.2.7 1.9 1.3-.3 2.3-1.3 1.7-1.9m7.6 9.4c-.2-1.3-1-2-1.6-1.7-.6.2-2 1.2-.9 1.9 1.2.6 2.6.7 2.5-.2" fill="#f4900c"/><path d="M14.6 28.9s1.2 3 1 4.5c-.1 1.5.4 2.2 1.5 2.2 1.2 0 1.5-.8.6-2-1-1-1.4-3.1-.9-4.3l-2.2-.4z" fill="#ffcc4d"/><path d="M17.1 35.6c2.2 0 1-1.4.6-2-.5-.7-2-.2-2-.2s-.5 2.2 1.4 2.2m-6.5-2.7s-1.3 2 .6 2.3c2.2.4 2.4-.8 1.4-1.6-1-.9-2-.7-2-.7" fill="#8b5e3c"/><path d="M36 0v2s-1.3 0-3-.7A4.2 4.2 0 0 1 31.3 0H36z" fill="#f4900c"/></g></svg>