<svg xmlns="http://www.w3.org/2000/svg" viewBox="0 0 45 45"><defs><clipPath id="a"><path d="M0 36h36V0H0v36z"/></clipPath></defs><g clip-path="url(#a)" transform="matrix(1.25 0 0 -1.25 0 45)"><path d="M28.689 15.688c0-5.905-4.784-10.689-10.69-10.689C12.099 5 7.313 9.784 7.313 15.688c0 5.902 4.785 10.688 10.688 10.688 5.905 0 10.689-4.786 10.689-10.689" fill="#6d6e71"/><path d="M26 2.5H10c-1.665 0-2.479 1.339-2.763 2.31l-2.664.055a.499.499 0 0 0-.472.63l.594 2.216-2.446.651a.504.504 0 0 0-.3.742l1.198 1.993-2.155 1.192a.5.5 0 0 0-.103.8l1.729 1.647-1.729 1.646a.501.501 0 0 0 .103.8l2.156 1.194-1.2 1.994a.499.499 0 0 0 .301.741l2.446.65-.594 2.218a.501.501 0 0 0 .473.629l2.574.054.058 2.302a.5.5 0 0 0 .608.475l2.521-.56.718 2.234a.5.5 0 0 0 .699.294l2.284-1.138 1.341 2.009a.502.502 0 0 0 .744.099L18 28.742l1.88 1.635a.5.5 0 0 0 .744-.1l1.34-2.008 2.286 1.138a.498.498 0 0 0 .699-.294l.716-2.234 2.522.56a.498.498 0 0 0 .608-.475l.058-2.302 2.574-.054a.498.498 0 0 0 .471-.629l-.594-2.218 2.449-.65a.499.499 0 0 0 .301-.741l-1.201-1.994 2.155-1.194a.5.5 0 0 0 .102-.8l-1.729-1.646 1.729-1.647a.5.5 0 0 0-.102-.8l-2.154-1.192 1.2-1.993a.501.501 0 0 0-.3-.742l-2.45-.651.594-2.216a.498.498 0 0 0-.471-.63l-2.663-.055C28.48 3.839 27.665 2.5 26 2.5" fill="#662113"/><path d="M16.188 7.176a.502.502 0 0 0-.416.223l-1.058 1.585-1.804-.9a.504.504 0 0 0-.7.295l-.564 1.757-1.99-.442a.502.502 0 0 0-.608.475l-.045 1.804-2.029.043a.5.5 0 0 0-.473.63l.465 1.732-1.922.512a.501.501 0 0 0-.3.74l.937 1.558-1.689.934a.5.5 0 0 0-.103.799l1.352 1.289-1.352 1.287a.502.502 0 0 0 .103.8l1.689.935-.937 1.557a.501.501 0 0 0 .3.742l1.922.51-.465 1.735a.499.499 0 0 0 .473.629l2.029.042.045 1.805a.5.5 0 0 0 .608.475l1.99-.442.564 1.756a.5.5 0 0 0 .7.295l1.804-.9 1.058 1.584c.08.119.208.199.35.218a.488.488 0 0 0 .394-.12L18 31.829l1.484 1.29a.498.498 0 0 0 .744-.098l1.057-1.584 1.807.9a.502.502 0 0 0 .699-.295l.562-1.756 1.992.442a.497.497 0 0 0 .608-.476l.045-1.804 2.028-.042a.497.497 0 0 0 .472-.63l-.465-1.734 1.924-.51a.501.501 0 0 0 .301-.742l-.939-1.558 1.689-.934a.502.502 0 0 0 .102-.8l-1.352-1.287 1.352-1.29a.499.499 0 0 0-.102-.798l-1.688-.934.938-1.557a.5.5 0 0 0-.3-.741l-1.925-.512.465-1.732a.5.5 0 0 0-.472-.63l-2.028-.043-.045-1.804a.5.5 0 0 0-.608-.475l-1.992.442-.562-1.757a.498.498 0 0 0-.699-.295l-1.806.9-1.058-1.585a.5.5 0 0 0-.744-.1L18 8.593l-1.483-1.294a.501.501 0 0 0-.329-.123" fill="#8a4b38"/><path d="M13.5 8.948h9c3.521 0 6.5-2.575 6.5-4.5 0-1.65-1.35-2-3-2H10c-1.65 0-3 .35-3 2 0 1.925 2.99 4.5 6.5 4.5" fill="#8a4b38"/><path d="M26.222 13.22c0-4.087-3.68-7.397-8.222-7.397-4.541 0-8.221 3.31-8.221 7.398 0 4.087 3.68 7.4 8.22 7.4 4.543 0 8.223-3.313 8.223-7.4" fill="#d99e82"/><path d="M21.29 9.521c0-2.043-1.474-3.699-3.29-3.699-1.817 0-3.289 1.656-3.289 3.7 0 2.042 1.472 3.698 3.29 3.698 1.815 0 3.288-1.656 3.288-3.699" fill="#e6e7e8"/><path d="M19.645 8.29a1.645 1.645 0 1 0-3.29 0 1.645 1.645 0 0 0 3.29 0M14.711 14.455a1.233 1.233 0 1 0-2.466-.002 1.233 1.233 0 0 0 2.466.002M23.755 14.455a1.233 1.233 0 1 0-2.466-.002 1.233 1.233 0 0 0 2.466.002" fill="#231f20"/><path d="M11.422 18.154s4.111 1.645 4.933 0C17.177 16.51 18 16.51 18 16.51v4.934s-6.578 0-6.578-3.289M24.577 18.154s-4.11 1.645-4.933 0C18.822 16.51 18 16.51 18 16.51v4.934s6.577 0 6.577-3.289" fill="#c1694f"/><path d="M12.245 17.744a2.055 2.055 0 1 0-4.11-.002 2.055 2.055 0 0 0 4.11.002M27.866 17.744a2.055 2.055 0 1 0-4.11-.002 2.055 2.055 0 0 0 4.11.002M11 1c-2 0-2 4 2 4s4.062-4 2-4h-4zM21 1c-2 0-2 4 2 4s4.062-4 2-4h-4z" fill="#d99e82"/></g></svg>