<svg xmlns="http://www.w3.org/2000/svg" viewBox="0 0 45 45"><defs><clipPath id="a"><path d="M0 36h36V0H0v36z"/></clipPath></defs><g clip-path="url(#a)" transform="matrix(1.25 0 0 -1.25 0 45)"><path d="M13.5 12.5s-1.1-1.4-.7-3.3a3.4 3.4 0 0 1 2.7-2.5c.5-.1.8-1 .6-1.8-.1-.8-.7-1.9-1-2.4-.3-.6-.9-.6-1.6-1.3-.5-.4-.7-1.2.2-1.2h3.8c.8 0 1.3.5 1.4 1.2.3 1.1 1.1 5.2.9 6-.2.5-.8 1-1.2 2-.3.9.4 3 .4 3l-5.5.3zm-11 .6s.8.7 1.4 1c.5.2 2.5 0 3 .1s1.4 1 1.4 1 2.2-.8 2.2-1c0-.3-1.5-1.7-1.8-2-.3-.4-2.3.5-2.9.5-.6 0-1.8-.5-2.3-.8-.4-.2-.5.1-.2.4 0 0-.4-.5-.6-.3-.1.2.3.6.3.6s-.4-.5-.6-.3c-.2.1-.2.4.1.8m12 16.2c-.3-.6-1-1.6.3-1.7 1.1-.1 0-1.3-1-1.3-1.1-.1-4.5 1.3-4.2 2.2.4.9 2 1.8 3 1.6a3.5 3.5 0 0 0 1.8-.8" fill="#662113"/><path d="M20.8 30.6c0-.6-.2-1-.3-1l-.4 1s-.2-1.1-.4-1.1l-.2 1-.4-1c-.2 0-.4 1-.4 1l-.3-1-.5 1-.3-1-.4 1-.3-1-.5 1s0-1.1-.2-1.1-.7.9-.7.9.2-1 0-1.1c-.2 0-1 .7-1 .7s1 1 1.8 1.1c.8.2 4 .8 4.4.7.4-.2.1-1.1.1-1.1m-.6-2.8l-.5 1-.1-1-.6 1v-1.1s-.5 1-.7 1v-1.1l-.7 1.1-.1-1-.5 1-.3-1.2-.4 1-.2-1-.4.9-.2-1-.4.8c-.2 0-.3-.9-.3-.9s.2-.4 1-.4c.7-.1 4-.4 4.4-.2.3.2 0 1.1 0 1.1" fill="#f4900c"/><path d="M11 28.5c.1.7 2.2-.3 2.6-.2.4.1 2 1.8 2.5 1.8s4.5.1 5 .3c.4.3.1 2-.3 2.5a6.3 6.3 0 0 1-3.6 1.8c-1.7.2-3 .2-3.5.5-.6.3-1.8.4-2.7 0-.8-.4-4-.9-5.2-2.2a9.5 9.5 0 0 1-3-5.7 9 9 0 0 1 1-5.6 32.8 32.8 0 0 0 1.7-4.6c.3-1 1.9-5 5-5.8 3-1 5.3-2.7 8.2-3.1 3.2-.6 9 .2 12 2 3 1.9 4.5 3.8 4.5 6.3 0 2.6-1.6 5.3-3.8 5.4-2.3 0-.8-.7-.2-.9.7-.1 2-1.7 1.7-3.2-.3-1.4-.9-2.5-2.5-2.5s-3.3 1.8-4.2 3a14 14 0 0 1-6.9 3.4c-1.9.1-5.9.1-6.4 1.3-.4 1.2-.3 1.8 0 2a15 15 0 0 0 3.5.6c1.4 0 3.7.4 4 .8.3.5.2 1.4-.1 1.4l-3-.1c-.6 0-1 .4-1.6.3-.7-.2-1.8-1-2.3-.9-.5.1-2.4 1.2-2.4 1.4" fill="#ab7e59"/><path d="M27 9.8c-2.8-.4-7.9.4-9.4 1a74.3 74.3 0 0 1-6.8 1.7c-2.2.5-3.9 2.3-5 4.1.4-1.5 2-4.6 4.7-5.4 3-.8 5.3-2.6 8.2-3 3.2-.5 9 .2 12 2 1.1.7 2 1.4 2.7 2.1A16.9 16.9 0 0 0 27 9.7M12.8 34.5c1.3-.2.2-.9 2.7-.9 0 0-1.9-1-2.6-1-1.3 0-1.6.7-1.6 1.2s.8.8 1.5.7" fill="#8b5e3c"/><path d="M13 33.5a.5.5 0 1 0-1 0 .5.5 0 0 0 1 0" fill="#292f33"/><path d="M17.1 11.2s.5-1.5 1.8-2.8 4.2-1.7 4.6-1.7c.5-.1 1-.3 1.3-1 .2-.7.6-2.7.3-3.2-.3-.6-1.5-1-1.9-1.6-.1-.3-.6-.9.2-.9H28c.8 0 1 .6 1 1.4 0 .8.2 2-.3 3.5-.5 1.3-.6 3.5-1.5 3.7-.8.2-2.1 2.5-2.1 2.5l-8 .1zm-12.7-2s.5 1 1 1.5c.5.4 2.5.9 3 1.2.5.2 1 1.4 1 1.4s2.5-.1 2.6-.3l-1.1-2.6c-.2-.5-2.5-.3-3.1-.5a7.2 7.2 0 0 1-2-1.5c-.4-.4-.6 0-.4.3 0 0-.3-.6-.5-.5-.2.1 0 .7 0 .7s-.2-.6-.4-.5c-.2 0-.3.4-.1.8" fill="#ab7e59"/><path d="M15.7 20.3a.6.6 0 1 0-1.1 0 .6.6 0 0 0 1.1 0m3-1.2a.8.8 0 1 0-1.6 0 .8.8 0 0 0 1.7 0M17 20.7a.4.4 0 1 0-.8 0 .4.4 0 0 0 .8 0m3-.2a.4.4 0 1 0-.8 0 .4.4 0 0 0 .8 0m2.6-1.2a.8.8 0 1 0-1.5 0 .8.8 0 0 0 1.5 0m2.9-3.6a.5.5 0 1 0-1 0 .5.5 0 0 0 1 0m-4.5 2a.5.5 0 1 0-1 0 .5.5 0 0 0 1 0m4.4 0a.5.5 0 1 0-1 0 .5.5 0 0 0 1 0M24 18a.7.7 0 1 0-1.5 0 .7.7 0 0 0 1.5 0" fill="#8b5e3c"/></g></svg>