<svg xmlns="http://www.w3.org/2000/svg" viewBox="0 0 45 45"><defs><clipPath id="a"><path d="M0 36h36V0H0v36z"/></clipPath></defs><g clip-path="url(#a)" transform="matrix(1.25 0 0 -1.25 0 45)"><path d="M23.283 12.725s1.374-1.635 2.733-10.047c.143-.883.202-1.775.217-2.678H36v28.553c-4.387 3.472-10.4 4.188-17.678 1.757 0 0-5.408 3-6.147 3.74-.719.719-1.857 1.555-1.235-.35.364-1.113.764-2.373 2.36-4.862-3.437-2.036-4.514-4.68-8.559-13.342C1.652 8.88.08 6.732.936 4.204 2.066.867 6.252-1.391 9.78 1.183c1.92 1.4 2.246 3.913 6.225 6.223 3.654.064 7.278 1.603 7.278 5.319" fill="#e1e8ed"/><path d="M36 29.988c-8.335 5.71-21.646 4.539-20.091-.178C25.51 31.672 31.77 28.269 36 22.642v7.346z" fill="#292f33"/><path d="M19.663 30.237c-2.878-.233-7.28-1.765-9.42-4.137 0 0-.005 5.317 3.69 5.783 6.171.78 5.808-.362 5.808-.362l-.078-1.284z" fill="#292f33"/><path d="M16.357 34.944c.558-1.155 4.006-1.79 5.056-6.03 1.05-4.24-3.134-2.95-4.356-.854-1.362 2.333-1.828 4.16-1.867 5.678-.021.802.039 3.539 1.167 1.206" fill="#e1e8ed"/><path d="M16.596 33.162c1.103-.968 2.448-2.472 2.65-3.955.202-1.483-1.125-.988-1.736.372-.612 1.359-.753 2.779-1.134 3.233-.38.454.22.35.22.35" fill="#66757f"/><path d="M16.94 20.475a1.244 1.244 0 1 0-2.489 0 1.244 1.244 0 0 0 2.489 0" fill="#292f33"/><path d="M10.354 26.076c-.032.018-.074.015-.11.024-1.544-2.032-2.922-5.102-5.49-10.604-1.357-2.903-2.42-4.946-3.117-6.538 1.628-.225 3.285 1.443 3.946 3.272.673 1.866 3.215 5.652 4.926 7.778 1.712 2.127 1.561 5.144-.155 6.068" fill="#e1e8ed"/><path d="M28.188 29.688s-2.296-6.947-2.302-8.947c-.011-3.803-2.686-7.801-2.686-7.801l1.342-3.422s3.25 3.04 3.936 10.227c.571 5.972 2.566 7.666 2.566 7.666l-2.857 2.276zM34.063 26.563S31.055 22.928 30 17c-1.438-8.063-4.858-9.747-4.858-9.747l.482-2.44s5.282 3.055 6.632 9.114c1.62 7.26 3.743 8.714 3.743 8.714l-1.937 3.922zM3.25 12.563c.687.713 3.017-3.809 4.53-4.885 1.589-1.13 5.469-.934 5.7-2.162-1.667-1.704-2.762-4.272-4.84-4.988-2.077-.716-5.71-.677-7.238 2.647C-.125 6.5 1 7.875 1.625 9.312c.625 1.438 1.458 2.938 1.625 3.25" fill="#292f33"/><path d="M4.222 6.083c0-.881-.532-1.594-1.187-1.594-.654 0-1.186.713-1.186 1.594 0 .882.532 1.596 1.186 1.596.655 0 1.187-.714 1.187-1.596" fill="#66757f"/><path d="M25.954 3.055s4.608 1.57 6.108 3.383C33.562 8.25 36 12 36 12V5.625S34.812 4 32.312 2.688c-1.585-.832-6.09-2.251-6.09-2.251l-.268 2.618zM25.01 29.92S24.063 27 23.813 24c-.25-3-1.125-4.875-1.938-6.188.313 4.25-.687 5.875-.125 8.125.563 2.25.87 4.32.87 4.32s.63.368 1.255.305c.625-.062 1.135-.642 1.135-.642M4.753 15.496s3.934.38 5.747-.87c1.812-1.25 5.331-7.324 5.331-7.324l-1.134-.753S13 11.187 9.937 12.625c-3.062 1.437-6 1.187-6 1.187l.816 1.684z" fill="#292f33"/><path d="M5.605 17.322s5.516.358 6.958-1.51c2.75-3.562 3.831-5.01 4.446-8.348l1.785.307c-.794 2.917-2.606 8.104-5.919 10.292-3.312 2.187-6.25 1.687-6.25 1.687l-1.02-2.428zM17.875 23.313c-.625-.687 2-3.313 1.125-5.5s-.375-5.25.125-6.625c.5-1.376 1.26-2.84 1.26-2.84l1.622 1.146S21.75 11 21 13.187c-.75 2.188-.687 2.25-.375 4.438.313 2.188-2.125 6.375-2.75 5.688M15.045 29.171s1.142-2.046 1.08-3.046c-.063-1-.063-2.688-.625-3.063-.563-.375-.813 2-1.188 3.063-.375 1.062-1.064 2.257-1.064 2.257s1.468 1.43 1.797.79M11.501 27.38s1.793-1.397 1.73-2.397c-.062-1 1.144-2.608.581-2.983-.562-.375-1.937 1.25-2.312 2.313-.375 1.062-1.257 1.787-1.257 1.787s.929 1.92 1.258 1.28M8.938 24.188s1.521-.981 1.936-1.75c.416-.768 2.111-1.387 1.938-1.875-.172-.488-1.976.098-2.687.75-.71.652-2.346.579-2.346.579l1.158 2.296z" fill="#292f33"/></g></svg>