<svg xmlns="http://www.w3.org/2000/svg" viewBox="0 0 45 45"><defs><clipPath id="a"><path d="M0 36h36V0H0v36z"/></clipPath></defs><g clip-path="url(#a)" transform="matrix(1.25 0 0 -1.25 0 45)"><path d="M13.5 12.51s-1.103-1.376-.737-3.267c.225-1.165 1.314-2.367 2.775-2.592.488-.076.726-1.028.591-1.728-.153-.792-.699-1.902-.999-2.465-.301-.564-.89-.562-1.615-1.213C13.01.79 12.838 0 13.702 0h3.821c.766 0 1.255.469 1.418 1.24.226 1.072 1.094 5.149.846 5.937-.177.564-.777 1.014-1.164 2.103-.287.808.377 2.968.377 2.968l-5.5.263zM2.54 13.118s.797.724 1.344.937c.547.214 2.554.058 3.065.165.51.106 1.363.97 1.363.97s2.144-.835 2.166-1.04c.023-.206-1.44-1.618-1.76-1.987-.321-.368-2.316.537-2.91.537-.594 0-1.842-.534-2.282-.783-.44-.249-.51.131-.261.404 0 0-.401-.49-.54-.31-.137.18.232.572.232.572s-.345-.439-.535-.297c-.19.143-.194.456.118.832M14.415 29.303c-.232-.62-.83-1.637.356-1.72 1.184-.083.02-1.248-1.032-1.323-1.052-.075-4.47 1.39-4.095 2.254.377.864 1.88 1.803 3.045 1.578 1.164-.226 1.727-.79 1.727-.79" fill="#662113"/><path d="M20.813 30.547c-.078-.578-.234-1-.344-.984-.11.015-.376 1.062-.376 1.062s-.203-1.156-.343-1.14c-.14.015-.282 1.062-.282 1.062s-.234-1.063-.39-1.063c-.157 0-.36 1.063-.36 1.063s-.17-1.052-.295-1.067c-.125-.016-.502.959-.502.959s-.218-.986-.328-.986c-.109 0-.422.986-.422.986s-.187-.97-.28-.97c-.094 0-.437.97-.437.97s-.14-1.04-.236-1.064c-.256-.062-.72.89-.72.89s.218-1.06.08-1.078c-.235-.032-.985.735-.985.735s.953.953 1.72 1.109c.766.157 4.016.782 4.39.64.375-.14.11-1.124.11-1.124M20.176 27.805c-.137.567-.336.97-.444.944-.107-.027-.131-1.004-.131-1.004s-.453 1.037-.592 1.007c-.138-.03-.061-1.074-.061-1.074s-.452 1.021-.607 1.005c-.155-.016-.092-1.078-.092-1.078s-.522 1.093-.648 1.095c-.126.003-.141-1.067-.141-1.067s-.387 1.013-.496 1.001c-.11-.01-.231-1.108-.231-1.108s-.29.976-.383.966c-.093-.01-.256-1.016-.256-1.016s-.294.865-.39.886c-.097.021-.221-.903-.221-.903s-.29.683-.42.732c-.131.05-.216-.879-.216-.879s.125-.377.903-.453c.778-.077 4.075-.363 4.433-.184.359.178-.007 1.13-.007 1.13" fill="#f4900c"/><path d="M11.035 28.514c.114.683 2.14-.338 2.554-.225.414.112 2.066 1.765 2.517 1.803.45.037 4.47.112 4.92.338.452.225.189 1.99-.224 2.479-.413.489-1.878 1.578-3.606 1.766-1.728.188-2.93.225-3.494.526-.563.3-1.803.413-2.667 0-.864-.414-3.944-.902-5.222-2.18-1.277-1.276-2.742-2.967-3.08-5.71-.338-2.741.516-4.572 1.052-5.581.393-.742 1.502-3.51 1.765-4.598.263-1.09 1.846-4.978 4.934-5.88 3.089-.901 5.359-2.648 8.177-3.1 3.208-.512 9.09.189 12.096 2.068 3.005 1.878 4.47 3.794 4.47 6.31 0 2.517-1.615 5.26-3.87 5.335-2.253.075-.788-.676-.112-.827.676-.15 1.99-1.765 1.69-3.193-.3-1.427-.901-2.517-2.516-2.554-1.615-.038-3.306 1.765-4.208 2.968-.901 1.202-4.958 3.339-6.874 3.454-1.916.114-5.898.114-6.386 1.316-.49 1.202-.376 1.804-.038 1.954.338.15 2.217.563 3.53.6 1.316.038 3.645.376 3.946.827.3.45.225 1.39-.113 1.428-.338.037-2.442-.188-3.043-.188s-.94.488-1.578.3c-.638-.187-1.803-.901-2.291-.826-.488.075-2.367 1.165-2.33 1.39" fill="#ab7e59"/><path d="M26.952 9.748c-2.693-.388-7.846.466-9.358.982-1.512.515-4.615 1.317-6.801 1.78-2.186.465-3.884 2.3-5.084 4.1.519-1.484 2.069-4.567 4.775-5.357 3.089-.902 5.359-2.648 8.177-3.1 3.208-.512 9.09.189 12.096 2.067 1.09.682 1.972 1.369 2.66 2.087-.947-.708-3.785-2.173-6.465-2.56M12.816 34.432c1.336-.208.203-.91 2.683-.904 0 0-1.873-1-2.624-1-1.297 0-1.568.644-1.567 1.182 0 .484.808.83 1.508.722" fill="#8b5e3c"/><path d="M13 33.5a.5.5 0 1 0-1 0 .5.5 0 0 0 1 0" fill="#292f33"/><path d="M17.132 11.234s.424-1.503 1.796-2.855 4.12-1.653 4.61-1.728c.488-.075 1.017-.263 1.242-.94.226-.675.65-2.69.35-3.253-.301-.564-1.548-.878-1.887-1.517-.19-.357-.683-.941.18-.941H28c.766 0 .954.603.954 1.392 0 .789.263 2.066-.226 3.456-.488 1.39-.676 3.493-1.502 3.719-.827.225-2.142 2.479-2.142 2.479l-7.952.188zM4.355 9.252s.559.996 1.037 1.395c.478.398 2.55.916 3.028 1.195.478.28 1.046 1.434 1.046 1.434s2.437-.119 2.528-.319c.092-.199-.904-2.11-1.103-2.589-.2-.479-2.511-.24-3.108-.439-.598-.199-1.674-1.155-2.032-1.554-.36-.398-.558-.039-.4.32 0 0-.238-.629-.437-.494-.2.135.04.653.04.653s-.2-.558-.438-.479c-.24.08-.35.394-.161.877" fill="#ab7e59"/><path d="M15.71 20.337a.576.576 0 1 0-1.152 0 .576.576 0 0 0 1.152 0M18.771 19.073a.82.82 0 1 0-1.64 0 .82.82 0 0 0 1.64 0M17.132 20.745a.436.436 0 1 0-.872 0 .436.436 0 0 0 .872 0M20.087 20.505a.412.412 0 1 0-.824 0 .412.412 0 0 0 .824 0M22.7 19.33a.762.762 0 1 0-1.524 0 .762.762 0 0 0 1.524 0M25.595 15.678a.487.487 0 1 0-.975-.002.487.487 0 0 0 .975.002M21.063 17.766a.487.487 0 1 0-.975-.001.487.487 0 0 0 .975 0M25.478 17.766a.487.487 0 1 0-.975-.001.487.487 0 0 0 .975 0M23.985 18.02a.722.722 0 1 0-1.443-.001.722.722 0 0 0 1.443 0" fill="#8b5e3c"/></g></svg>