<svg xmlns="http://www.w3.org/2000/svg" viewBox="0 0 45 45"><defs><clipPath id="a"><path d="M0 36h36V0H0v36z"/></clipPath></defs><g clip-path="url(#a)" transform="matrix(1.25 0 0 -1.25 0 45)"><path d="M17.68 14s1.937-7.873 1.187-9.373C16.493-.119 17.68 0 18.867 0h2.373c2.373 0-1.187 14-1.187 14H17.68zM5.255 16.613S4.819 8.62 4.068 7.12C1.695 2.373 1.695 0 2.882 0h2.373c1.187 0 1.187 4.153 1.187 5.34 0 1.186 1.186 8.603 1.186 8.603l-2.373 2.67z" fill="#3e721d"/><path d="M12.374 30.75c-2.068-.019-4.209.434-5.523-2.1-1.404-2.709-2.065-8.579.777-9.664 2.478-.946 7.933 1.187 13.865-1.186C27.426 15.427 29.8 1.188 34.51 1.17c1.223-.005 1.205-1.124 0-1.133C28.595-.008 26 5.934 25 5.934 25 5.934 26 0 25 0h-4c-1 0 0 3.081 0 4.267v1.667s-1.593-1.218-5.937-1.218C11.781 4.716 9 5.934 9 5.934S10 0 9 0H5.255c-1.678 0 .165 4.013 0 5.933-.102 1.182-.51 4.757-1.224 5.933-1.726 2.848-2.763 11.522-1.929 15.286.781 3.526 3.122 6.633 4.675 7.511 1.52.858 2.862 1.5 6.19.965 1.775-.285 3.591-2.922 2.891-4.274-.42-.81-1.94-.592-3.484-.605" fill="#77b255"/><path d="M12.967 33.819a.592.592 0 1 0-1.187 0 .593.593 0 0 0 1.187 0"/><path d="M10.218 17.515a.575.575 0 1 0-1.099-.34.575.575 0 0 0 1.1.34M14.092 16.267a.82.82 0 1 0-1.565-.485.82.82 0 0 0 1.565.485M12.467 17.693a.435.435 0 1 0-.83-.258.435.435 0 0 0 .83.258M14.925 18.023a.413.413 0 1 0-.79-.243.413.413 0 0 0 .79.243M17.768 17.674a.763.763 0 1 0-1.457-.45.763.763 0 0 0 1.457.45M22.521 15.695a.487.487 0 1 0-.931-.289.488.488 0 1 0 .931.29M16.667 15.695a.487.487 0 1 0-.932-.289.488.488 0 1 0 .932.29M20.885 17.001a.487.487 0 1 0-.932-.289.488.488 0 1 0 .932.289M19.384 16.802a.722.722 0 1 0-1.378-.428.722.722 0 0 0 1.378.428" fill="#5c913b"/></g></svg>