<svg xmlns="http://www.w3.org/2000/svg" viewBox="0 0 45 45"><defs><clipPath id="a"><path d="M0 36h36V0H0v36z"/></clipPath></defs><g clip-path="url(#a)" transform="matrix(1.25 0 0 -1.25 0 45)"><path d="M36 0v14.167l-6.667 10.166c-3.617 2.865-8.01 7.426-14.011 5.422 0 0-2.958.135-4.142-1.215C8.484 26.578 6.3 19.728 5 17.333 2.777 13.244.279 10.311.985 8.229c.932-2.752 1.883-4.696 4.792-2.574 1.582 1.156 1.874 3.798 5.157 5.703 3.012.053 7.065.475 8.478 3.896 0 0 2.643-3.387 5.254-10.587.195-.539 1.025-3.121 1.391-4.667H36z" fill="#ffcc4d"/><path d="M11.771 28.084s-.192 3.23-.988 4.512c-.794 1.283-.648 1.882.405 2.384 1.054.502 1.93.24 1.401-1.327-.44-1.311.071-3.392 1.023-4.251l-1.84-1.317zM14.296 33.102c.46-.951 3.304-1.475 4.169-4.97.866-3.497-2.584-2.434-3.593-.706-1.122 1.924-1.507 3.432-1.538 4.682-.017.662.03 2.919.962.995" fill="#ffcc4d"/><path d="M36 17.666C27.666 31 17.667 33.5 13.332 29.341 21.249 30.878 26.666 27.334 36 14.168v3.5z" fill="#754c29"/><path d="M16.428 29.694c-2.374-.192-6.062-4.647-7.825-6.604 0 0-1.983 6.026 1.064 6.41 5.09.642 5.656.255 5.656.255l1.105-.06z" fill="#f4900c"/><path d="M20.745 33.711c-.419-.97 1.047-3.463-1.029-6.405-2.077-2.943-3.532.361-2.885 2.255.72 2.108 1.608 3.385 2.533 4.227.488.446 2.227 1.886 1.381-.077" fill="#ffcc4d"/><path d="M19.764 32.6a9.573 9.573 0 0 0-.215-2c-.156-.677-.413-1.322-.821-1.785-.815-.926-1.222.168-.705 1.283.518 1.115 1.326 1.969 1.404 2.452.078.482.337.05.337.05" fill="#f4900c"/><path d="M13.056 22.15a1.405 1.405 0 1 0-2.811.001 1.405 1.405 0 0 0 2.81 0" fill="#292f33"/><path d="M3.694 9.778c0-.727-.438-1.315-.979-1.315-.539 0-.977.588-.977 1.315 0 .726.438 1.315.977 1.315.541 0 .98-.589.98-1.315" fill="#603913"/><path d="M25.445 26.315S21.835 25 22.5 22.834C23.166 20.667 24.666 17 25.833 17c1.167 0 4.53 4.482 4.53 4.482s-2.446 2.922-4.918 4.833M31.726 19.85S28.5 18.5 28.5 16.666c0-1.833-1.168-4.833.166-6.333C30 8.833 33 9.167 34.5 10.167c1.5 1 1.5 1.666 1.5 1.666v2.334s-1.337 1.94-1.944 2.67c-.86 1.237-2.33 3.013-2.33 3.013M25.666 15.333c1.518-.414 1.667-2.834.667-4s-2.834-2.499-3.667.334c-.833 2.833 1.166 4.166 3 3.666M31.166 7.333C27.421 9.34 26.667 6.167 26.5 4.167c-.167-2 .5-2.834 2.5-3.167 2-.333 6.832 3.833 2.166 6.333M36 8.667s-2.666.499-2.5-.834C33.666 6.5 36 3 36 3v5.667zM2.26 12.68s3.38 5.313 4.601 9.002c1.221 3.69 3.64 5.318 3.64 5.318S9 21.666 7.665 18.667c-1.333-3-4.312-7.305-5.406-5.986M17.833 19.5c1.499-.167 3.001-2.833.833-3.333-2.167-.501-4 .666-3.667 2 .334 1.333 2.834 1.333 2.834 1.333M15.666 13.666c-1.447-1.298-2.999-1.001-3.333-.167-.334.834-.833 3.667 1 3.167s3.315-2.12 2.333-3M11.257 12.83c-1.02-.805-2.118-.62-2.353-.104-.235.517-.588 2.273.706 1.963 1.295-.309 2.34-1.314 1.647-1.859M18.893 22.181c-.168-1.29-1.082-1.925-1.611-1.719-.53.205-2.01 1.214-.867 1.896 1.142.684 2.593.697 2.478-.177" fill="#f4900c"/><path d="M14.569 28.9s1.215 2.998 1.048 4.498c-.167 1.5.418 2.187 1.477 2.187 1.168 0 1.47-.79.607-2.01-.961-.994-1.394-3.093-.903-4.279l-2.23-.397z" fill="#ffcc4d"/><path d="M17.094 35.585c2.24-.002 1.072-1.358.607-2.01-.465-.651-2.085-.177-2.085-.177s-.446 2.188 1.478 2.187M10.579 32.95s-1.288 1.878.598 2.256c2.196.44 2.393-.826 1.441-1.64-.952-.817-2.039-.616-2.039-.616" fill="#8b5e3c"/><path d="M36 0v2s-1.334 0-3-.667C32.212 1.018 31.654.48 31.278 0H36z" fill="#f4900c"/></g></svg>