<svg xmlns="http://www.w3.org/2000/svg" viewBox="0 0 45 45"><defs><clipPath id="a"><path d="M0 36h36V0H0v36z"/></clipPath></defs><g clip-path="url(#a)" transform="matrix(1.25 0 0 -1.25 0 45)"><path d="M23.3 12.7s1.4-1.6 2.7-10c.2-1 .2-1.8.2-2.7H36v28.6c-4.4 3.4-10.4 4.1-17.7 1.7 0 0-5.4 3-6.1 3.8-.7.7-1.9 1.5-1.3-.4.4-1.1.8-2.4 2.4-4.9-3.4-2-4.5-4.6-8.6-13.3C1.7 8.9.1 6.7 1 4.2c1.2-3.3 5.4-5.6 8.9-3C11.7 2.6 12 5 16 7.4c3.7 0 7.3 1.6 7.3 5.3" fill="#e1e8ed"/><path d="M36 30c-8.3 5.7-21.6 4.5-20.1-.2 9.6 1.9 15.9-1.5 20.1-7.2V30z" fill="#292f33"/><path d="M19.7 30.2c-3-.2-7.3-1.7-9.5-4.1 0 0 0 5.3 3.7 5.8 6.2.8 5.8-.4 5.8-.4v-1.3z" fill="#292f33"/><path d="M16.4 35c.5-1.2 4-1.9 5-6 1-4.3-3.1-3-4.3-1a11.8 11.8 0 0 0-2 5.7c0 .8.1 3.6 1.3 1.2" fill="#e1e8ed"/><path d="M16.6 33.2c1.1-1 2.4-2.5 2.6-4 .3-1.5-1-1-1.7.4-.6 1.3-.7 2.8-1.1 3.2-.4.5.2.4.2.4" fill="#66757f"/><path d="M17 20.5a1.2 1.2 0 1 0-2.5 0 1.2 1.2 0 0 0 2.4 0" fill="#292f33"/><path d="M10.3 26v.1c-1.6-2-3-5.1-5.6-10.6L1.7 9c1.6-.3 3.2 1.4 3.9 3.2.7 1.9 3.2 5.7 4.9 7.8 1.7 2.1 1.6 5.2-.2 6" fill="#e1e8ed"/><path d="M28.2 29.7s-2.3-7-2.3-9c0-3.8-2.7-7.8-2.7-7.8l1.3-3.4s3.3 3 4 10.2c.6 6 2.5 7.7 2.5 7.7l-2.8 2.3zm5.9-3.1S31 22.9 30 17c-1.4-8-4.9-9.8-4.9-9.8l.5-2.4s5.3 3 6.7 9.1c1.6 7.3 3.7 8.7 3.7 8.7l-2 4zm-30.8-14c.6.7 3-3.8 4.5-5 1.6-1 5.5-.9 5.7-2-1.7-1.8-2.8-4.4-4.9-5-2-.8-5.7-.7-7.2 2.6s-.4 4.7.2 6.1l1.7 3.3" fill="#292f33"/><path d="M4.2 6c0-.8-.5-1.5-1.2-1.5-.6 0-1.2.7-1.2 1.6 0 .9.6 1.6 1.2 1.6.7 0 1.2-.7 1.2-1.6" fill="#66757f"/><path d="M26 3s4.6 1.6 6 3.4a81.5 81.5 0 0 1 4 5.6V5.6S34.8 4 32.3 2.7c-1.6-.8-6-2.3-6-2.3l-.4 2.7zm-1 27s-1-3-1.2-6-1.1-4.9-2-6.2c.4 4.3-.6 5.9 0 8.1l.8 4.4s.6.3 1.3.3c.6-.1 1.1-.7 1.1-.7M4.7 15.5s4 .4 5.8-.9 5.3-7.3 5.3-7.3l-1.1-.7s-1.7 4.6-4.8 6c-3 1.5-6 1.2-6 1.2l.8 1.7z" fill="#292f33"/><path d="M5.6 17.3s5.5.4 7-1.5c2.7-3.6 3.8-5 4.4-8.3l1.8.3c-.8 2.9-2.6 8-6 10.3-3.2 2.1-6.2 1.6-6.2 1.6l-1-2.4zm12.3 6c-.6-.7 2-3.3 1.1-5.5s-.4-5.2.1-6.6c.5-1.4 1.3-2.8 1.3-2.8l1.6 1s-.3 1.6-1 3.8c-.8 2.2-.7 2.3-.4 4.4.3 2.2-2.1 6.4-2.7 5.7M15 29.2s1.2-2 1.1-3c0-1 0-2.8-.6-3.1-.6-.4-.8 2-1.2 3l-1 2.3s1.4 1.4 1.8.8m-3.6-1.8s1.8-1.4 1.7-2.4c0-1 1.2-2.6.6-3-.5-.4-2 1.3-2.3 2.3-.4 1-1.3 1.8-1.3 1.8s1 2 1.3 1.3m-2.6-3.2s1.6-1 2-1.7c.4-.8 2-1.4 2-2-.3-.4-2 .2-2.8.8-.7.7-2.3.6-2.3.6l1.1 2.3z" fill="#292f33"/></g></svg>