<svg xmlns="http://www.w3.org/2000/svg" viewBox="0 0 45 45"><defs><clipPath id="a"><path d="M0 36h36V0H0v36z"/></clipPath><clipPath id="b"><path d="M2 27c-.6-.8-.5-4.7 3-6 1.3-.5 4.2-.2 7 .1A18 18 0 0 0 25.4 19c2.8-1.5 4.6-6 4.5-7.5 0-.9.2-1.4.6-1.8.8-.7 2-.4 3-.1l.8.1.3 1 .1.3c2 5.8.4 9.1-1.3 11.8A17.4 17.4 0 0 1 22 30.2a40.4 40.4 0 0 1-7.4.7C9.2 31 3.9 29.8 2 27"/></clipPath><clipPath id="c"><path d="M30.8 12.6a1.4 1.4 0 0 1-.8-.8 1.8 1.8 0 0 1-.1-.7 5 5 0 0 0-.4-1.7 10.8 10.8 0 0 0-2.6-3.8l-1-1.3c-.2-.8 0-1.7.5-2.1.4-.4 1-.4 1.6 0 .5.3.9.4 1 .3.1 0 .3-.3.3-.7.3-1.4 1-1.7 1.4-1.7.7 0 1.4.4 1.8 1.3.6 1.5 2.2 8.7 2.3 9.8a.7.7 0 0 1-.3.7 7.6 7.6 0 0 1-3 .8 2 2 0 0 1-.7 0"/></clipPath><clipPath id="d"><path d="M0 36h36V0H0v36z"/></clipPath></defs><g clip-path="url(#a)" transform="matrix(1.25 0 0 -1.25 0 45)"><path d="M15.2 21a1 1 0 0 0-2 0v4a1 1 0 0 0 2 0v-4zm4.4-.4a1 1 0 0 0-2 .5l1 3.9a1 1 0 0 0 2-.5l-1-3.9zm4-1.5a1 1 0 0 0-1.3-.4 1 1 0 0 0-.5 1.3l1.8 3.6a1 1 0 1 0 1.8-1l-1.8-3.5zM4.5 28.6c-4.6-.4-4.8 5.5 3.8 4.7 8.5-.8 18-3.4 20.2-1.8 1.8 1.3 1.4 3.6 1 4.1-.5.5-1.2 0-.8-.7.3-.7-.1-2.7-2.3-2.9-2.2-.2-10.4 1.4-15.6 2.1-5.3.8-9.5.4-10.4-2.6-1-3 2-3.8 3.4-4 1.5-.1.7 1 .7 1" fill="#662113"/><path d="M33.4 22.8A12 12 0 0 0 34.7 11v-.3l-.4-1-.8-.1c-1-.3-2.2-.6-3 0-.4.4-.6 1-.6 1.9 0 1.6-1.6 6-4.5 7.5a18.1 18.1 0 0 1-8.6 2.6c-3 0-9.6-1.4-11.8-.6-3.5 1.3-3.6 5.2-3 6 2.8 4 12.8 4.6 20.1 3.2a17.4 17.4 0 0 0 11.3-7.4" fill="#c16a4f"/><path d="M26.9 5.6a10.8 10.8 0 0 1 2.6 3.8c.3.6.4 1.2.4 1.7v.7c.2.4.7 1.1.9.8 1.7-2.5 3.3-.5 3.7-.7a.7.7 0 0 0 .3-.7 84 84 0 0 0-2.3-9.7v-.2C32 .5 31.4 0 30.7.1c-.4 0-1.1.3-1.4 1.6 0 .5-.2.8-.3.8-.2 0-.5 0-1-.3-.6-.4-1.2-.4-1.6 0-.6.4-.7 1.3-.4 2.1.2.5.5.9.9 1.3" fill="#662113"/></g><g clip-path="url(#b)" transform="matrix(1.25 0 0 -1.25 0 45)"><path d="M24.3 18.7C22.4 21.4 6.7 13.6 2 23c3.7-1.7 10.6.9 16.5.3 12-1 12.3-10.1 12.3-10.9-.5-5.8-6.5 6.3-6.5 6.3m-1 8.7c1 1 3.1 2.3 4.7 2.3 1.7 0-.3 2.3-2 1.5-1.2-.5-3.2-2.6-3.8-3.7-.6-1.1.1-1 1 0m12.5-5.2c-2.3 1.2-5.3 3.2-7.5 2.1-2.2-1-1 .5 0 1.2 1.6 1.2 4 .8 5.2-.3a16 16 0 0 0 2.3-3m2.2-7.5c-1.7 2-3.9 4.8-6.3 4.6-2.4-.3-.8.7.4 1 2 .7 4.1-.6 4.8-2s1.1-3.6 1.1-3.6" fill="#662113"/></g><g clip-path="url(#c)" transform="matrix(1.25 0 0 -1.25 0 45)"><path d="M30 .3c-1.8 2.3 2 8-3.5 1.4C24.5-1 30 .4 30 .4" fill="#292f33"/></g><g clip-path="url(#d)" transform="matrix(1.25 0 0 -1.25 0 45)"><path d="M6 29.3c-4.5 0-4.3 5.8 4.2 4.5 8.5-1.4 17.7-4.7 20-3.2 2 1 1.7 3.4 1.3 4-.4.4-1.1 0-.8-.7.3-.7-.3-2.7-2.5-2.7s-10.3 2-15.4 3.2c-5.2 1-9.5 1-10.6-1.9-1.1-2.8 1.7-4 3.2-4.2s.7 1 .7 1" fill="#c16a4f"/><path d="M8 27a1 1 0 1 0-2 0 1 1 0 0 0 2 0" fill="#292f33"/><path d="M16.6 19.5a1 1 0 1 0-2 .2l.5 4a1 1 0 1 0 2-.3l-.5-4zm4-.7a1 1 0 0 0-2 .6l1.2 3.8a1 1 0 1 0 1.9-.6l-1.2-3.8zm3.4-1.5a1 1 0 0 0-1.7 1l2.1 3.4a1 1 0 1 0 1.7-1l-2-3.4z" fill="#c16a4f"/></g></svg>