<svg xmlns="http://www.w3.org/2000/svg" viewBox="0 0 45 45"><defs><clipPath id="a"><path d="M0 36h36V0H0v36z"/></clipPath></defs><g clip-path="url(#a)" transform="matrix(1.25 0 0 -1.25 0 45)"><path d="M28.7 15.7a10.7 10.7 0 1 0-21.4 0 10.7 10.7 0 0 0 21.4 0" fill="#6d6e71"/><path d="M26 2.5H10c-1.7 0-2.5 1.3-2.8 2.3H4.6a.5.5 0 0 0-.5.7l.6 2.2-2.5.7A.5.5 0 0 0 2 9l1.3 2L1 12.3a.5.5 0 0 0-.1.8l1.7 1.6L1 16.4a.5.5 0 0 0 0 .8l2.3 1.2-1.3 2a.5.5 0 0 0 .4.7l2.4.7-.6 2.2a.5.5 0 0 0 .5.6h2.6V27a.5.5 0 0 0 .6.4l2.5-.5.7 2.2a.5.5 0 0 0 .8.3l2.2-1.1 1.4 2a.5.5 0 0 0 .7 0l1.9-1.6 1.9 1.7a.5.5 0 0 0 .7-.1l1.4-2 2.2 1.1a.5.5 0 0 0 .7-.3l.8-2.2 2.5.6a.5.5 0 0 0 .6-.5v-2.3h2.6a.5.5 0 0 0 .5-.7l-.6-2.2 2.4-.7a.5.5 0 0 0 .3-.7l-1.2-2 2.2-1.2a.5.5 0 0 0 .1-.8l-1.7-1.6L35 13a.5.5 0 0 0 0-.8L32.7 11l1.2-2a.5.5 0 0 0-.3-.7l-2.4-.7.6-2.2a.5.5 0 0 0-.5-.6h-2.6c-.3-1-1.1-2.4-2.8-2.4" fill="#662113"/><path d="M16.2 7.2a.5.5 0 0 0-.4.2l-1 1.6-1.9-1a.5.5 0 0 0-.7.4l-.5 1.7-2-.4a.5.5 0 0 0-.6.5L9 12H7a.5.5 0 0 0-.5.7l.5 1.7-2 .5a.5.5 0 0 0-.3.7l1 1.6-1.7 1a.5.5 0 0 0-.1.7l1.3 1.3L4 21.5a.5.5 0 0 0 .1.8l1.7 1-1 1.5a.5.5 0 0 0 .3.7l2 .5-.5 1.8a.5.5 0 0 0 .5.6h2v1.9a.5.5 0 0 0 .7.4l2-.4.5 1.7a.5.5 0 0 0 .7.3l1.8-.9 1 1.6.4.2a.5.5 0 0 0 .4 0l1.5-1.4 1.5 1.3a.5.5 0 0 0 .7 0l1.1-1.7 1.8 1a.5.5 0 0 0 .7-.4l.6-1.7 2 .4a.5.5 0 0 0 .6-.4v-1.9h2a.5.5 0 0 0 .5-.6L29 26l2-.5a.5.5 0 0 0 .3-.7l-1-1.6 1.7-.9a.5.5 0 0 0 .1-.8l-1.4-1.3 1.4-1.3a.5.5 0 0 0-.1-.8l-1.7-1 1-1.5a.5.5 0 0 0-.4-.7l-1.9-.5.5-1.7a.5.5 0 0 0-.5-.7h-2v-1.8a.5.5 0 0 0-.7-.5l-2 .4-.5-1.7A.5.5 0 0 0 23 8l-1.8.9-1-1.6a.5.5 0 0 0-.8-.1L18 8.6l-1.5-1.3a.5.5 0 0 0-.3-.1" fill="#8a4b38"/><path d="M13.5 9h9C26 9 29 6.3 29 4.3c0-1.6-1.4-2-3-2H10c-1.6 0-3 .4-3 2 0 2 3 4.5 6.5 4.5" fill="#8a4b38"/><path d="M26.2 13.2c0-4-3.7-7.4-8.2-7.4-4.5 0-8.2 3.3-8.2 7.4s3.7 7.4 8.2 7.4c4.5 0 8.2-3.3 8.2-7.4" fill="#d99e82"/><path d="M21.3 9.5c0-2-1.5-3.7-3.3-3.7s-3.3 1.7-3.3 3.7 1.5 3.7 3.3 3.7c1.8 0 3.3-1.6 3.3-3.7" fill="#e6e7e8"/><path d="M19.6 8.3a1.6 1.6 0 1 0-3.3 0 1.6 1.6 0 0 0 3.4 0m-5 6.2a1.2 1.2 0 1 0-2.5 0 1.2 1.2 0 0 0 2.5 0m9 0a1.2 1.2 0 1 0-2.4 0 1.2 1.2 0 0 0 2.4 0" fill="#231f20"/><path d="M11.4 18.1s4.1 1.7 5 0c.8-1.6 1.6-1.6 1.6-1.6v5s-6.6 0-6.6-3.3m13.2 0s-4.1 1.6-5 0c-.8-1.7-1.6-1.7-1.6-1.7v5s6.6 0 6.6-3.4" fill="#c1694f"/><path d="M12.2 17.7a2 2 0 1 0-4 0 2 2 0 0 0 4 0m15.7 0a2 2 0 1 0-4.1 0 2 2 0 0 0 4 0M11 1c-2 0-2 4 2 4s4-4 2-4h-4zm10 0c-2 0-2 4 2 4s4-4 2-4h-4z" fill="#d99e82"/></g></svg>