<svg xmlns="http://www.w3.org/2000/svg" viewBox="0 0 45 45"><defs><clipPath id="a"><path d="M0 36h36V0H0v36z"/></clipPath></defs><path d="M14.7 7.6v4.1l6.7-1.7-3.7-2.5h-3z" fill="#ffac33"/><g clip-path="url(#a)" transform="matrix(1.25 0 0 -1.25 0 45)"><path d="M33.3 12.5c0 1.2.7 2 1.7 2.3v11.6c-4 1-34-7.2-34-7.2v-3.5a3.4 3.4 0 0 0 2.8-3.3A3.4 3.4 0 0 0 1 9V1.4l34 6.4v2.5c-1 .2-1.8 1-1.8 2.2" fill="#ffac33"/><path d="M15.6 33.8l-3.9-3.9c.8-.2 1.3-.6 1.3-1 0-.7-.9-1.2-2-1.2a3 3 0 0 0-1.3.2L1 19.2c13.2 2.9 22 5.3 34.1 7.2-4.9 6.5-16.3 7.4-19.5 7.4" fill="#ffd983"/><path d="M20 30.8c0-.6-.9-1.1-2-1.1s-2 .5-2 1.1c0 .7.9 1.2 2 1.2s2-.5 2-1.2m-5-6.4c0-1-1.3-1.7-3-1.7s-3 .8-3 1.7c0 1 1.4 1.8 3 1.8 1.7 0 3-.8 3-1.8m14 3.2c0-1-1.5-2-3.4-2s-3.4 1-3.4 2 1.5 2 3.4 2 3.4-.9 3.4-2" fill="#ffac33"/><path d="M33.6 20.4c0-1.3-1-2.4-2.2-2.4-1.2 0-2.1 1-2.1 2.4s1 2.4 2.1 2.4c1.2 0 2.2-1 2.2-2.4m-22.2-4.9c0-1.2-1-2.3-2-2.3-1.2 0-2.1 1-2.1 2.3 0 1.3.9 2.3 2 2.3s2-1 2-2.3m17.2-5c-.5-.6-1.3-.7-1.9-.2-.5.4-.5 1.3 0 1.9.5.6 1.3.7 1.9.3.5-.5.5-1.4 0-2M19 18c-.7-.8-1.9-1-2.6-.3-.7.6-.8 1.7-.1 2.5.7.9 1.8 1 2.5.4.8-.6.8-1.8.1-2.6m1-10c-1.3-1.6-3.4-2-4.9-1-1.4 1.2-1.7 3.3-.5 5s3.4 2 4.8.9c1.5-1.1 1.7-3.3.5-4.9" fill="#f4900c"/></g></svg>