<svg xmlns="http://www.w3.org/2000/svg" viewBox="0 0 45 45"><defs><clipPath id="a"><path d="M0 36h36V0H0v36z"/></clipPath></defs><g clip-path="url(#a)" transform="matrix(1.25 0 0 -1.25 0 45)"><path d="M8 22S7 8 7 3h11v20L8 22zm20 0s1-14 1-19H18v20l10-1z" fill="#662113"/><path d="M18 24v8c-5 0-10-3-10-9s2.5-.9 3 0c2 4 5 1 7 1m0 0v8c5 0 10-3 10-9s-2.5-.9-3 0c-2 4-5 1-7 1" fill="#662113"/><path d="M32 0v2a6 6 0 0 1-6 6H10a6 6 0 0 1-6-6V0h28z" fill="#3b88c3"/><path d="M13.6 7.9c1.8-1.3 2.9-2 4.4-2 1.5 0 2.6.7 4.4 2v3.8h-8.8V8z" fill="#ffdc5d"/><path d="M13.6 10A5.6 5.6 0 0 1 18 8.3c1.6 0 3.1.3 4.4 1.7v3.5h-8.8V10z" fill="#f9ca55"/><path d="M9.5 19c0 5.6 3.8 10.2 8.5 10.2s8.5-4.6 8.5-10.2S22.7 9 18 9s-8.5 4.5-8.5 10" fill="#ffdc5d"/><path d="M18 12.2c-2.8 0-3.6.7-3.7.8a.7.7 0 0 0 .9 1s.7-.5 2.8-.5c2.2 0 2.8.5 2.8.5a.6.6 0 0 0 1 0 .7.7 0 0 0 0-1c-.2-.1-1-.8-3.8-.8" fill="#c1694f"/><path d="M14 19a1 1 0 0 0-1 1v1c0 .6.5 1 1 1s1-.5 1-1v-1a1 1 0 0 0-1-1m8 0a1 1 0 0 0-1 1v1c0 .6.5 1 1 1s1-.5 1-1v-1a1 1 0 0 0-1-1" fill="#662113"/><path d="M18.8 16.3h-1.6a.8.8 0 0 0-.7.7c0 .4.3.8.8.8h1.4c.5 0 .8-.4.8-.8a.8.8 0 0 0-.8-.8" fill="#c1694f"/><path d="M8 21.7L9.9 20s1.2-3.4 0-4C7.2 14.5 5 21.4 5 22.7c0 1 3-1 3-1m19.4 0L25.5 20s-1.2-3.4 0-4c2.7-1.4 5.5 5.5 5.5 6.8 0 1-3.6-1-3.6-1" fill="#ffdc5d"/><path d="M18 32c-5 0-9-3-9-9s1.6-.9 2 0c2 4 5 3 7 3s5 1 7-3c.5-.9 2-6 2 0s-4 9-9 9" fill="#662113"/><path d="M9 23L8 0h4s-2.6 20.5-1 23c.7 1-2 0-2 0m18 0l1-23h-4s2.7 20.5 1 23c-.6 1 2 0 2 0" fill="#662113"/></g></svg>