<svg xmlns="http://www.w3.org/2000/svg" viewBox="0 0 45 45"><defs><clipPath id="a"><path d="M0 36h36V0H0v36z"/></clipPath></defs><g clip-path="url(#a)" transform="matrix(1.25 0 0 -1.25 0 45)"><path d="M8 22S7 8 7 3h11v20L8 22zM28 22s1-14 1-19H18v20l10-1z" fill="#662113"/><path d="M18 24v8c-5 0-10-3-10-9s2.553-.894 3 0c2 4 5 1 7 1M18 24v8c5 0 10-3 10-9s-2.553-.894-3 0c-2 4-5 1-7 1" fill="#662113"/><path d="M32 0v2a6 6 0 0 1-6 6H10a6 6 0 0 1-6-6V0h28z" fill="#3b88c3"/><path d="M13.64 7.899c1.744-1.267 2.848-1.962 4.36-1.962 1.512 0 2.616.696 4.36 1.962v3.811h-8.72V7.899z" fill="#ffdc5d"/><path d="M13.632 10.027c1.216-1.374 2.724-1.746 4.364-1.746 1.639 0 3.147.373 4.364 1.746v3.491h-8.728v-3.49z" fill="#f9ca55"/><path d="M9.478 19.04c0 5.59 3.816 10.121 8.522 10.121 4.707 0 8.523-4.532 8.523-10.12 0-5.59-3.816-10.12-8.523-10.12-4.706 0-8.522 4.53-8.522 10.12" fill="#ffdc5d"/><path d="M18 12.198c-2.754 0-3.6.706-3.741.848a.655.655 0 0 0 .902.95c.052-.037.721-.487 2.839-.487 2.2 0 2.836.485 2.842.49a.639.639 0 0 0 .913-.014.67.67 0 0 0-.014-.94c-.141-.141-.987-.847-3.741-.847" fill="#c1694f"/><path d="M14 19c-.55 0-1 .45-1 1v1c0 .55.45 1 1 1s1-.45 1-1v-1c0-.55-.45-1-1-1M22 19c-.55 0-1 .45-1 1v1c0 .55.45 1 1 1s1-.45 1-1v-1c0-.55-.45-1-1-1" fill="#662113"/><path d="M18.75 16.25h-1.5a.752.752 0 0 0-.75.75c0 .413.337.75.75.75h1.5c.413 0 .75-.337.75-.75a.752.752 0 0 0-.75-.75" fill="#c1694f"/><path d="M8 21.72l1.868-1.849s1.192-3.4 0-3.996C7.204 14.543 5 21.388 5 22.72c0 1 3-1 3-1M27.397 21.72l-1.868-1.849s-1.192-3.4 0-3.996C28.193 14.543 31 21.388 31 22.72c0 1-3.603-1-3.603-1" fill="#ffdc5d"/><path d="M18 32c-5 0-9-3-9-9s1.553-.894 2 0c2 4 5 3 7 3s5 1 7-3c.447-.894 2-6 2 0s-4 9-9 9" fill="#662113"/><path d="M9 23L8 0h4s-2.627 20.484-1 23c.698 1.08-2 0-2 0M27.058 23l1-23H24s2.685 20.484 1.058 23c-.698 1.08 2 0 2 0" fill="#662113"/></g></svg>