<svg xmlns="http://www.w3.org/2000/svg" viewBox="0 0 45 45"><defs><clipPath id="a"><path d="M0 36h36V0H0v36z"/></clipPath></defs><g clip-path="url(#a)" transform="matrix(1.25 0 0 -1.25 0 45)"><path d="M18 1c-4 0-9-1-9 1v15S6.8 3 6 1c-.4-1-5-.5-5 .5C1 5 5 25 6 27s5 4 7 4c0 0-1.2 2.2 1 3 1 .4 2.4.5 4 .5V1zm0 0c4 0 9-1 9 1v15s2.5-15.1 3-16c.5-1 5-.5 5 .5C35 5 31 25 30 27s-5 4-7 4c0 0 1.2 2.2-1 3-1 .4-2 .5-4 .5V1z" fill="#55acee"/><path d="M14 33c0 .6 0 1 4 1s4-.5 4-1-1.8-2-4-2-4 1.4-4 2" fill="#269"/><path d="M10 22.5a.5.5 0 0 0-.4.2l-3 4a.5.5 0 1 0 .8.6l3-4a.5.5 0 0 0-.4-.8m8-21a.5.5 0 0 0-.5.5v28a.5.5 0 0 0 1 0V2a.5.5 0 0 0-.5-.5m-9 20a.5.5 0 0 0-.2 0L5.6 23a.5.5 0 1 0 .5 1l3.1-1.4a.5.5 0 0 0-.2-1m-.5-2.7a.5.5 0 0 0-.1 0l-3 1a.5.5 0 1 0 .3 1l3-1a.5.5 0 0 0-.2-1m-.6-3a.5.5 0 0 0-.1 0l-3 1a.5.5 0 1 0 .3 1l3-1a.5.5 0 0 0-.2-1M7.3 13a.5.5 0 0 0-.1 0l-3 1a.5.5 0 0 0 .3 1l3-1a.5.5 0 0 0-.2-1m-.7-2.8a.5.5 0 0 0-.1 0l-3 1a.5.5 0 0 0 .3 1l3-1a.5.5 0 0 0-.1-1m-.5-2.7a.5.5 0 0 0-.2 0l-3 1a.5.5 0 0 0 .4 1l3-1a.5.5 0 0 0-.2-1m-.5-2.8a.5.5 0 0 0-.2 0l-3 1a.5.5 0 0 0 .3 1l3-1a.5.5 0 0 0-.1-1M5 2a.5.5 0 0 0-.2 0L2 3a.5.5 0 0 0 .3 1l3-1a.5.5 0 0 0-.1-1m8.5.6l-3.7.2a.5.5 0 1 0 .1 1s4-.4 6 0a.5.5 0 0 0 .2-1c-.7-.2-1.6-.2-2.6-.2m-1 3l-2.8.2a.5.5 0 0 0-.5.5.5.5 0 0 0 .5.5c1.4-.1 5-.3 6.1.2a.5.5 0 1 0 .4-1c-.7-.3-2.3-.3-3.7-.3m1.3 3a52 52 0 0 0-4.1.2.5.5 0 0 0-.5.6.5.5 0 0 0 .5.4c2.6-.2 5.6-.3 6.1 0a.5.5 0 1 0 .4-.9 7.6 7.6 0 0 0-2.4-.3m0 3.1c-1.8 0-3.8.2-4.2.3a.5.5 0 0 0 .2 1c1.3-.2 5-.5 6 0a.5.5 0 0 0 .4-1 7.9 7.9 0 0 0-2.5-.3m0 3.4l-4 .1a.5.5 0 0 0-.5.5c0 .3.3.5.5.5 1.4 0 5.2-.2 6.2 0a.5.5 0 1 0 .2-1 13 13 0 0 0-2.3-.1M10 18c-.4 0-.6.4-.6.6 0 .3.2.6.5.6l6.3.2c.3 0 .5-.2.5-.4 0-.3-.2-.7-.5-.7L9.8 18zm6.1 3l-4.9.5a.5.5 0 0 0 .1 1L16 22a.5.5 0 0 0 0-1m.5 2.3a.5.5 0 0 0-.2 0c-.4.3-3.6 1.1-5.8 1.6a.5.5 0 1 0 .2 1c1-.2 5.4-1.2 6.1-1.7a.5.5 0 0 0-.3-.9m-.4 3.2a.5.5 0 0 0-.2 0c-1.2.5-5 .8-6.4.9a.5.5 0 0 0-.5.5.5.5 0 0 0 .5.5c.2 0 5.2-.3 6.8-1a.5.5 0 0 0-.2-.9m.4 2.5c-1 0-2.6.9-2.7 1a.5.5 0 0 0-.2.7.5.5 0 0 0 .6.2 8 8 0 0 1 2.4-1 .5.5 0 0 0 .4-.4.5.5 0 0 0-.4-.5m9.4-6.5a.5.5 0 0 0-.3.8l3 4a.5.5 0 1 0 .8-.6l-3-4a.5.5 0 0 0-.4-.2" fill="#3b88c3"/><path d="M18 1.5a.5.5 0 0 0-.5.5v28a.5.5 0 0 0 1 0V2a.5.5 0 0 0-.5-.5m9 20a.5.5 0 0 0-.2 1l3.2 1.3a.5.5 0 1 0 .4-1l-3.2-1.3a.5.5 0 0 0-.2 0m.5-2.7a.5.5 0 0 0-.1 1l3 1a.5.5 0 0 0 .3-1l-3-1a.5.5 0 0 0-.2 0m.6-3a.5.5 0 0 0-.1 1l3 1a.5.5 0 0 0 .6-.3.5.5 0 0 0-.3-.6l-3-1a.5.5 0 0 0-.2 0m.6-3a.5.5 0 0 0-.2 1l3 1a.5.5 0 0 0 .4-1l-3-1a.5.5 0 0 0-.2 0m.7-2.8a.5.5 0 0 0-.5.3.5.5 0 0 0 .3.6l3 1a.5.5 0 0 0 .4-.9l-3-1a.5.5 0 0 0-.2 0m.4-2.7a.5.5 0 0 0-.1 1l3 1a.5.5 0 0 0 .3-1l-3-1a.5.5 0 0 0-.2 0m.6-2.8a.5.5 0 0 0-.2 1l3 1a.5.5 0 0 0 .7-.3.5.5 0 0 0-.4-.6l-3-1a.5.5 0 0 0-.1 0m.6-2.8a.5.5 0 0 0-.2 1l3 1a.5.5 0 0 0 .3-1l-3-1a.5.5 0 0 0-.1 0m-8.6.6c-1 0-1.9 0-2.6.2a.5.5 0 0 0 .2 1c2-.4 6 0 6 0a.5.5 0 0 0 .5-.5.5.5 0 0 0-.4-.5 40.6 40.6 0 0 0-3.7-.2m1 3c-1.4 0-3 .1-3.7.4a.5.5 0 0 0-.2.7.5.5 0 0 0 .6.3c1.1-.5 4.8-.3 6.1-.2a.5.5 0 0 0 .5-.5.5.5 0 0 0-.4-.5 46.5 46.5 0 0 0-3-.1m-1.1 3.1c-1.1 0-2.1.1-2.5.3a.5.5 0 0 0 .4.9c.6-.3 3.5-.2 6.1 0a.5.5 0 0 0 0-1l-4-.2m0 3.1a7.9 7.9 0 0 0-2.5.3.5.5 0 1 0 .4 1c1-.5 4.7-.2 6 0a.5.5 0 0 0 .2-1 42.6 42.6 0 0 0-4-.3m-.2 3.4a76 76 0 0 1 4 .1.5.5 0 0 1 .5.5.5.5 0 0 1-.5.5c-1.4 0-5.2-.2-6.2 0a.5.5 0 1 1-.2-1l2.4-.1m4.1 2.8l-6.3.3c-.3 0-.5.3-.5.6a.6.6 0 0 0 .5.5l6.4-.1c.2 0 .4-.4.4-.7 0-.2-.2-.6-.5-.6M20 21a.5.5 0 0 0 0 1l4.8.5a.5.5 0 1 0 .1-1l-4.8-.5m-.6 2.3a.5.5 0 0 0-.3 1c.8.4 5.2 1.4 6 1.6a.5.5 0 1 0 .3-1l-5.7-1.5a.5.5 0 0 0-.3 0m.4 3.1a.5.5 0 0 0-.2 1c1.6.6 6.6.9 6.8.9.3 0 .5-.2.5-.5a.5.5 0 0 0-.4-.5 33 33 0 0 1-6.5-.9.5.5 0 0 0-.2 0m-.4 2.5a.5.5 0 0 0-.5.5c0 .2.2.5.5.5a6 6 0 0 1 2.3.9.5.5 0 0 0 .7-.2.5.5 0 0 0-.2-.7c-.2-.1-1.8-1-2.8-1z" fill="#3b88c3"/></g></svg>