<svg xmlns="http://www.w3.org/2000/svg" viewBox="0 0 45 45"><defs><clipPath id="a"><path d="M0 36h36V0H0v36z"/></clipPath></defs><g clip-path="url(#a)" transform="matrix(1.25 0 0 -1.25 0 45)"><path d="M27 16.724a4.967 4.967 0 0 1-2.667-.784v-4.549h-2.299c.174-2.603 2.319-4.667 4.966-4.667a5 5 0 0 1 5 5v5h-5z" fill="#55acee"/><path d="M22.994 13L23 29h9l-.005-16h-9z" fill="#1c6399"/><path d="M23.677 1.318l-6.354 6.354 6.88 6.875 6.355-6.354-6.881-6.875z" fill="#1c6399"/><path d="M30 32h-5c-1.1 0-2-.9-2-2v-2h9v2c0 1.1-.9 2-2 2M15 20.724a4.967 4.967 0 0 1-2.667-.784v-4.549h-2.299c.174-2.603 2.319-4.667 4.966-4.667a5 5 0 0 1 5 5v5h-5z" fill="#55acee"/><path d="M10.995 17L11 33h9l-.006-16h-9z" fill="#1c6399"/><path d="M23.677 1.318a4.5 4.5 0 0 0-6.364 6.364s1.149-.133 3.69-2.674c2.54-2.541 2.674-3.69 2.674-3.69M18 36h-5c-1.1 0-2-.9-2-2v-2h9v2c0 1.1-.9 2-2 2" fill="#55acee"/><path d="M11.677 5.318l-6.354 6.354 6.88 6.875 6.355-6.354-6.881-6.875z" fill="#1c6399"/><path d="M11.677 5.318a4.5 4.5 0 0 0-6.364 6.364s1.149-.133 3.69-2.674c2.54-2.541 2.674-3.69 2.674-3.69" fill="#55acee"/><path d="M22.994 23.933h9v2h-9v-2zM22.994 19.933h9v2h-9v-2zM10.994 27.933h9v2h-9v-2zM10.994 23.933h9v2h-9v-2z" fill="#ffcc4d"/></g></svg>