<svg xmlns="http://www.w3.org/2000/svg" viewBox="0 0 45 45"><defs><clipPath id="a"><path d="M0 36h36V0H0v36z"/></clipPath></defs><g clip-path="url(#a)" transform="matrix(1.25 0 0 -1.25 0 45)"><path d="M29.895 9.333c.003-.282-.07-.652-.146-.958-.53-2.145-2.889-4.552-6.208-4.333-3.008.198-5.458 1.642-5.458 3.666 0 2.025 2.445 3.667 5.459 3.667s6.334-.017 6.353-2.042" fill="#ea596e"/><path d="M23.542 11.036c-1.619 0-5.314-.448-6.163-.448-1.498 0-2.712-.94-2.712-2.1 0-.557.286-1.06.744-1.437 0 0 1.006-1.009 2.818-.525.793.212 2.084 1.786 4.354 2.036 1.132.125 3.25-.75 6.975-.77.16.344.192.583.192.583 0 2.025-3.193 2.661-6.208 2.661" fill="#dd2e44"/><path d="M29.75 8.375s2.184.442 3.542 2.229c1.583 2.083 1.375 4.313 1.375 4.313 1.604 3-.5 5.812-.5 5.812C33.958 23.896 32 25.208 32 25.208c-1.271 3.021-4.083 3.834-4.083 3.834-2.209 2.583-6.125 2.5-6.125 2.5s-3.67 1.345-8.709-.167c-.833-.25-3.625-.833-5.666-2.083C.981 25.352.494 19.208.583 18.208c.5-5.583 4.417-6.583 6.917-7.166.583-1.584 2.729-4.5 6.583-3.417 4.75.833 6.75 2.25 7.917 2.25 1.167 0 4.417-1.25 7.75-1.5" fill="#f4abba"/><path d="M17.737 17.352c2.328 1.255 3.59 1.138 4.704 1.037.354-.033.69-.058 1.028-.055 1.985.045 3.591.88 4.302 1.69a.501.501 0 0 1-.752.66c-.548-.624-1.899-1.312-3.573-1.35-.3-.01-.6.02-.913.05-1.195.112-2.679.247-5.27-1.152-.666-.36-1.578-.492-2.565-.592-2.197 3.17-.875 5.933-.497 6.59.037-.001.073-.012.111-.012.4 0 .801.098 1.165.303a.5.5 0 0 1-.492.87 1.425 1.425 0 0 0-1.88.468.5.5 0 1 1-.842-.54c.237-.37.571-.65.948-.836-.52-1.058-1.51-3.84.372-6.951-1.324-.13-2.65-.317-3.688-.987a7.15 7.15 0 0 1-1.878-1.791c-.629.109-2.932.675-3.334 3.23.25.195.452.45.577.767a.499.499 0 1 1-.929.369.774.774 0 0 0-.454-.462.777.777 0 0 0-.643.07.5.5 0 0 1-.486-.874c.283-.158.588-.238.89-.238.036 0 .072.017.11.019.474-2.413 2.382-3.473 3.731-3.794a3.684 3.684 0 0 1-.33-1.192.499.499 0 0 1 .497-.544.5.5 0 0 1 .498.456c.108 1.213 1.264 2.48 2.293 3.145.964.62 2.376.75 3.741.878 1.326.122 2.578.239 3.56.768M30.602 18.856a.5.5 0 0 1 .878-.48c.018.034 1.842 3.45-1.57 5.744a.501.501 0 0 1-.559-.83c2.645-1.778 1.31-4.327 1.251-4.434M9.876 26.93c.156 0 .309.072.406.208 1.45 2.017 3.458 1.327 3.544 1.295a.5.5 0 0 1 .344.939c-.96.356-3.176.468-4.699-1.65a.5.5 0 0 1 .405-.792M22.948 28.818c2.225.181 3.237-1.432 3.283-1.508a.5.5 0 0 1 .863.507c-.054.091-1.34 2.218-4.224 1.998a.499.499 0 0 1-.459-.538.502.502 0 0 1 .537-.459M32.098 14.207c-.246.014-.517-.181-.54-.457-.001-.018-.16-1.719-1.91-2.294a.5.5 0 1 1 .313-.949c2.372.778 2.586 3.064 2.594 3.161a.5.5 0 0 1-.457.539" fill="#ea596e"/><path d="M7.347 19.066a.5.5 0 1 1 .966-.26c.19.711.927 1.168 1.652 1.014a.5.5 0 0 1 .205.98c-.426.09-.854.047-1.248-.087-1.166 1.994-.94 3.96-.936 3.98a.501.501 0 0 1-.992.135c-.013-.097-.28-2.316 1.063-4.614a2.368 2.368 0 0 1-.71-1.148M18.526 21.536c.407.377 1.06.37 1.455-.015a.502.502 0 0 1 .707.011.5.5 0 0 1-.01.707 1.986 1.986 0 0 1-.797.465c.296 1.016.18 1.468-.095 2.312-.048.148-.1.311-.157.498l-.03.1c-.365 1.208-.606 2.005.086 3.13a.5.5 0 0 1-.85.525c-.93-1.508-.589-2.637-.194-3.944l.031-.1c.058-.194.113-.364.163-.517.247-.76.322-1.016.02-1.936a2.015 2.015 0 0 1-1.01-.505.5.5 0 1 1 .681-.73M24.89 24.521a2 2 0 0 1 .86.191.5.5 0 1 1-.425.904 1.072 1.072 0 0 0-1.384.457.499.499 0 1 1-.881-.471 2.02 2.02 0 0 1 .76-.786c-.536-1.304-.231-2.69.017-3.426a.5.5 0 0 1 .948.32c-.168.498-.494 1.755-.002 2.826.037-.002.072-.015.108-.015M29.689 15.092a.497.497 0 0 1-.531.467 1.826 1.826 0 0 0-1.948 1.703.507.507 0 0 1-.533.465.502.502 0 0 1-.465-.533c.04-.59.266-1.123.609-1.555-.805-.946-1.858-1.215-2.444-1.284-.52-.063-.973-.01-1.5.052-.48.055-1.024.119-1.697.098l-.005-.001c-.02.286-.09.703-.305 1.05a.501.501 0 0 1-.848-.531c.134-.215.159-.56.159-.725-.504-.182-.94-.447-1.334-.704-.704-.458-1.26-.82-2.094-.632-.756.173-1.512.208-2.155.118-.1.25-.258.55-.501.782a.5.5 0 1 1-.688-.727c.087-.081.154-.2.209-.317-1.103-.455-1.656-1.213-1.681-1.25a.499.499 0 0 1 .812-.583c.005.007.554.743 1.637 1.04.559.154 1.363.14 2.146-.037.219-.05.423-.067.619-.07.093-.22.129-.476.135-.573a.5.5 0 0 1 .999.053 2.995 2.995 0 0 1-.131.685c.462.167.862.429 1.239.673.572.373 1.113.726 1.82.749.592.022 1.08-.036 1.55-.091a7.991 7.991 0 0 1 1.455-.06 1.84 1.84 0 0 0 .07-.704.501.501 0 0 1 .993-.128c.008.062.058.51-.06.98a4.668 4.668 0 0 1 2.346 1.472 2.81 2.81 0 0 1 1.655-.413.5.5 0 0 1 .467.53" fill="#ea596e"/></g></svg>