<svg xmlns="http://www.w3.org/2000/svg" viewBox="0 0 45 45"><defs><clipPath id="a"><path d="M0 36h36V0H0v36z"/></clipPath></defs><g clip-path="url(#a)" transform="matrix(1.25 0 0 -1.25 0 45)"><path d="M18 1c-4 0-9-1-9 1v15S6.791 3 6 1c-.368-.93-5-.5-5 .5C1 5.031 5 25 6 27s5 4 7 4c0 0-1.194 2.174 1 3 .987.372 2.385.5 4 .5V1zM18 1c4 0 9-1 9 1v15s2.525-15.12 3-16c.499-.923 5-.5 5 .5C35 5.031 31 25 30 27s-5 4-7 4c0 0 1.194 2.174-1 3-.987.372-2 .5-4 .5V1z" fill="#55acee"/><path d="M14 33c0 .552 0 1 4 1s4-.448 4-1-1.791-2-4-2-4 1.448-4 2" fill="#269"/><path d="M10 22.5a.498.498 0 0 0-.4.2l-3 4a.5.5 0 1 0 .8.6l3-4a.5.5 0 0 0-.4-.8M18 1.5a.5.5 0 0 0-.5.5v28a.5.5 0 0 0 1 0V2a.5.5 0 0 0-.5-.5M9.027 21.5a.5.5 0 0 0-.195.04l-3.18 1.35a.5.5 0 1 0 .39.92l3.18-1.35a.498.498 0 0 0-.195-.96M8.527 18.76a.489.489 0 0 0-.158.026l-3 1a.499.499 0 1 0 .316.948l3-1a.499.499 0 0 0-.158-.974M7.915 15.863a.516.516 0 0 0-.158.025l-3 1a.5.5 0 1 0 .316.948l3-.998a.5.5 0 0 0-.158-.975M7.346 12.924a.516.516 0 0 0-.158.025l-3 1a.5.5 0 0 0 .316.95l3-1a.5.5 0 0 0-.158-.975M6.656 10.07a.516.516 0 0 0-.158.025l-3 1a.5.5 0 0 0 .316.95l3-1a.5.5 0 0 0-.158-.974M6.201 7.399a.516.516 0 0 0-.158.025l-3 1a.5.5 0 0 0 .316.95l3-1a.5.5 0 0 0-.158-.975M5.66 4.65a.516.516 0 0 0-.158.026l-3 1a.5.5 0 0 0 .316.95l3-1a.5.5 0 0 0-.158-.975M5.088 1.886a.516.516 0 0 0-.158.025l-3 1a.5.5 0 0 0 .316.95l3-1a.5.5 0 0 0-.158-.975M13.625 2.472c-1.794 0-3.564.177-3.675.189a.5.5 0 1 0 .1.994c.041-.003 4.045-.402 5.986-.007a.5.5 0 0 0 .2-.981c-.72-.146-1.669-.195-2.611-.195M12.655 5.556c-1.378 0-2.626.079-2.881.096a.5.5 0 0 0-.465.532c.019.275.246.49.533.466 1.323-.09 5.002-.223 6.108.218a.499.499 0 1 0 .372-.927c-.763-.305-2.28-.385-3.667-.385M13.872 8.735c-1.65 0-3.551.143-4.105.188a.503.503 0 0 0-.458.539.503.503 0 0 0 .54.457c2.573-.207 5.548-.275 6.07-.024a.5.5 0 1 0 .433-.902c-.41-.196-1.39-.258-2.48-.258M13.834 11.825c-1.77 0-3.75.208-4.08.244a.5.5 0 0 0 .108.994c1.345-.147 5.059-.438 6.09-.032a.5.5 0 0 0 .366-.93c-.526-.208-1.47-.276-2.485-.276M13.88 15.183c-1.753 0-3.767.112-4.102.132a.5.5 0 0 0-.47.528c.016.276.25.505.528.47 1.382-.08 5.187-.237 6.19-.012a.499.499 0 1 0 .22-.974c-.476-.108-1.38-.144-2.366-.144M9.807 18c-.27 0-.492.371-.5.642-.007.276.211.584.487.591l6.328.206c.247-.011.506-.192.514-.468.007-.275-.21-.651-.487-.659L9.821 18h-.014zM16 21a.904.904 0 0 0-.052.002l-4.818.5a.5.5 0 0 0 .102.995l4.82-.499A.501.501 0 0 0 16 21M16.551 23.307a.495.495 0 0 0-.253.069c-.44.26-3.638 1.048-5.767 1.525a.5.5 0 1 0 .218.976c.882-.197 5.318-1.205 6.056-1.64a.5.5 0 0 0-.254-.93M16.136 26.5a.503.503 0 0 0-.188.037c-1.2.486-5.08.778-6.474.85a.5.5 0 0 0-.473.526.491.491 0 0 0 .525.473c.212-.01 5.198-.274 6.798-.923a.499.499 0 0 0-.188-.963M16.552 29h-.024c-.973 0-2.588.904-2.769 1.004a.49.49 0 0 0-.197.671.5.5 0 0 0 .68.194c.604-.333 1.774-.872 2.333-.899a.487.487 0 0 0 .476-.508.488.488 0 0 0-.499-.462M26.044 22.5a.501.501 0 0 0-.4.8l3 4a.5.5 0 1 0 .8-.6l-3-4a.5.5 0 0 0-.4-.2" fill="#3b88c3"/><path d="M18.044 1.5a.5.5 0 0 0-.5.5v28a.5.5 0 0 0 1 0V2a.5.5 0 0 0-.5-.5M27.017 21.5a.499.499 0 0 0-.195.96l3.18 1.35a.5.5 0 1 0 .391-.921l-3.181-1.35a.497.497 0 0 0-.195-.04M27.517 18.76a.5.5 0 0 0-.158.974l3 1a.5.5 0 0 0 .316-.948l-3-1a.484.484 0 0 0-.158-.026M28.129 15.863a.502.502 0 0 0-.158.975l3 .999a.503.503 0 0 0 .633-.317.502.502 0 0 0-.317-.633l-3-1a.511.511 0 0 0-.158-.025M28.697 12.924a.502.502 0 0 0-.158.975l3 1a.502.502 0 0 0 .316-.95l-3-1a.511.511 0 0 0-.158-.025M29.388 10.07a.503.503 0 0 0-.475.342.502.502 0 0 0 .317.633l3 1a.502.502 0 0 0 .316-.95l-3-1a.511.511 0 0 0-.158-.024M29.843 7.399a.502.502 0 0 0-.158.975l3 1a.502.502 0 0 0 .316-.95l-3-1a.511.511 0 0 0-.158-.025M30.384 4.65a.502.502 0 0 0-.158.975l3 1a.502.502 0 0 0 .633-.316.502.502 0 0 0-.317-.633l-3-1a.511.511 0 0 0-.158-.025M30.956 1.886a.502.502 0 0 0-.158.975l3 1a.502.502 0 0 0 .316-.95l-3-1a.511.511 0 0 0-.158-.025M22.419 2.472c-.942 0-1.891.049-2.61.195a.501.501 0 0 0 .199.98c1.943-.398 5.946.004 5.985.008a.497.497 0 0 0 .548-.447.498.498 0 0 0-.446-.547 40.568 40.568 0 0 0-3.676-.19M23.39 5.556c-1.388 0-2.904.08-3.667.385a.497.497 0 0 0-.278.649.497.497 0 0 0 .649.278c1.108-.441 4.786-.308 6.109-.218a.52.52 0 0 0 .533-.466.5.5 0 0 0-.466-.532 46.552 46.552 0 0 0-2.88-.096M22.172 8.735c-1.091 0-2.071.062-2.48.258a.5.5 0 0 0 .432.902c.525-.251 3.497-.184 6.072.024a.5.5 0 0 0 .08-.996c-.552-.045-2.454-.188-4.104-.188M22.21 11.825c-1.014 0-1.958.068-2.485.276a.5.5 0 1 0 .367.93c1.031-.404 4.746-.115 6.09.032a.5.5 0 0 0 .109-.994c-.331-.036-2.311-.244-4.081-.244M22.063 15.183c1.753 0 3.767.112 4.102.132a.5.5 0 0 1 .47.528c-.016.276-.249.505-.528.47-1.382-.08-5.187-.237-6.19-.012a.499.499 0 1 1-.219-.974c.475-.108 1.38-.144 2.365-.144M26.236 18h-.013l-6.328.322c-.276.007-.494.315-.487.591a.562.562 0 0 0 .513.526l6.328-.147c.276-.007.494-.383.487-.659-.007-.272-.229-.633-.5-.633M20.043 21a.501.501 0 0 0-.051.998l4.819.5a.5.5 0 1 0 .103-.996l-4.818-.5-.053-.002M19.492 23.307a.5.5 0 0 0-.254.93c.737.435 5.174 1.443 6.056 1.64a.5.5 0 1 0 .218-.976c-2.128-.477-5.326-1.265-5.766-1.525a.498.498 0 0 0-.254-.07M19.908 26.5a.5.5 0 0 0-.187.963c1.6.65 6.585.912 6.797.923.313.026.511-.199.525-.473a.5.5 0 0 0-.474-.526c-1.393-.072-5.274-.364-6.474-.85a.495.495 0 0 0-.187-.037M19.492 29a.486.486 0 0 0-.499.461c-.013.276.2.502.476.515.56.027 1.73.56 2.334.892a.5.5 0 0 0 .68-.199.484.484 0 0 0-.198-.664c-.182-.1-1.797-1.005-2.77-1.005h-.023z" fill="#3b88c3"/></g></svg>