<svg xmlns="http://www.w3.org/2000/svg" viewBox="0 0 45 45"><defs><clipPath id="a"><path d="M0 36h36V0H0v36z"/></clipPath></defs><g clip-path="url(#a)" transform="matrix(1.25 0 0 -1.25 0 45)"><path d="M13 34c-1-1-2.576-5.03-3-8C9 19 9 8 9 8s2-1 4-1 1-1 6-1c0 0-1.89 22.92 1 27 1.77 2.499-6 2-7 1" fill="#a0041e"/><path d="M10.409 30.27c-2.266-1.306-2.984-3.3-3.41-6.27C6 17 6 6 6 6s2-1 4-1 1-1 6-1c0 0-2 23 1 27s-5.365-.024-6.59-.73" fill="#dd2e44"/><path d="M13.482 31.726s-2.648-1.212-3.073-1.456c-1.424-.82-2.236-1.913-2.749-3.347 1.884-.775 5.205-1.091 7.981-1.19.01.098 1.589 1.1 1.589 1.1v4.493l-3.747.4z" fill="#a0041e"/><path d="M28.982 34.359c-.907 2.759-6.352.92-9.982.92-3.692 0-9.016 1.839-9.939-.92-.923-2.76-4.615-5.52.923-6.44C15.524 27 19 27 19 27s3.63 0 9.075.92c5.444.92 1.814 3.68.907 6.44" fill="#dd2e44"/><path d="M26.385 35.134c-.923 0-3.693-.751-7.385-.751-3.692 0-6.462.75-7.385.75s.923-1.771 7.385-1.771 8.308 1.772 7.385 1.772" fill="#a0041e"/><path d="M6.257 1.282a.5.5 0 0 0-.497.452c-.058.595-.072 2.676.234 3.841a.5.5 0 0 0 .967-.254c-.273-1.04-.25-3.03-.206-3.49a.5.5 0 0 0-.498-.549M7.826.9a.5.5 0 0 0-.497.452c-.057.584-.066 2.515.246 3.83.063.27.333.44.602.37a.499.499 0 0 0 .37-.6c-.276-1.167-.271-3.003-.223-3.504A.5.5 0 0 0 7.826.9M9.509.552a.5.5 0 0 0-.497.452c-.044.453-.1 2.6.226 3.977a.5.5 0 0 0 .973-.229c-.276-1.171-.25-3.176-.204-3.652a.5.5 0 0 0-.498-.548M11.366.383a.5.5 0 0 0-.5.5c0 .309-.007.587-.013.85-.023.912-.042 1.698.242 2.928a.5.5 0 0 0 .975-.224c-.256-1.108-.239-1.801-.218-2.68.007-.27.014-.557.014-.874a.5.5 0 0 0-.5-.5M13.24.012a.5.5 0 0 0-.498.452c-.054.56-.014 2.362.214 3.625a.5.5 0 0 0 .985-.178c-.223-1.234-.244-2.93-.204-3.351a.5.5 0 0 0-.498-.548M15.448.106a.5.5 0 0 0-.497.452c-.034.35-.022 1.142-.007 2.06.007.502.015 1.022.015 1.476a.5.5 0 1 0 1 0c0-.459-.008-.984-.015-1.492-.013-.813-.026-1.655.002-1.948a.5.5 0 0 0-.498-.548" fill="#dd2e44"/><path d="M18.599 1.662a.5.5 0 0 0-.497.452c-.05.522-.143 2.261-.143 3.535a.499.499 0 1 0 1 0c0-1.224.09-2.947.138-3.439a.501.501 0 0 0-.498-.548M16.954 1.756a.5.5 0 0 0-.497.452c-.05.522-.143 2.26-.143 3.536a.499.499 0 1 0 1 0c0-1.225.09-2.948.138-3.44a.5.5 0 0 0-.498-.548" fill="#a0041e"/></g></svg>