<svg xmlns="http://www.w3.org/2000/svg" viewBox="0 0 45 45"><defs><clipPath id="a"><path d="M0 36h36V0H0v36z"/></clipPath></defs><g clip-path="url(#a)" transform="matrix(1.25 0 0 -1.25 0 45)"><path d="M33.3 8.9a15 15 0 0 0-1.2 6c.3 1.3 1 4 .4 6l-2.3 7.7s0 1.5-1.5 1.2c-2-.6-1.5-2-1.5-2l.7-3.2 1.2-2.4s-.7-.2-1.6 2.7l-2.9 9.7s0 1.5-1.4 1.1c-1.9-.4-1.6-2-1.6-2l2.7-9c-.4-.1-.5-.3-.5-.3L21 34.3s.1 1.4-1.3 1.2c-2-.4-1.7-2.1-1.7-2.1l3-9.9-.5-.1-2.5 8.5s0 1.5-1.4 1.1c-2-.5-1.7-2.1-1.7-2.1l2.7-9-.4-.4-2 6.5s.2 1.5-1.3 1.2c-1.8-.4-1.4-2-1.4-2l3-10.5h.1s0-.5.2-.7c.6-1.5 1.4-2.8 2.3-3.7a.7.7 0 0 1 .2-.3c1-1 3.4-4.3 4.3-7.6.6-2 4.2-1 5-.6 1 .5-.6 3.7-.7 4.4-.1.7.6 1.4 1 .5.5-1 .7-4 1.7-3.9a9.1 9.1 0 0 1 3.6 1.9c.4.4.8 1 .2 2.2" fill="#292f33"/><path d="M33.8 9.1a15 15 0 0 0-1.3 6c.3 1.3 1 4 .4 6l-2.2 7.7s-.4 1.4-1.8 1c-1.4-.4-1-1.8-1-1.8l.9-3 .7-2.6s-.7-.2-1.5 2.7l-3 9.7s-.4 1.4-1.8 1c-1.4-.4-1-1.8-1-1.8l2.7-9.2-.7-.2-3 9.9s-.3 1.4-1.7 1c-1.4-.4-1-1.9-1-1.9l2.9-9.8-.7-.3-2.5 8.5s-.4 1.4-1.8 1c-1.4-.4-1-1.8-1-1.8l2.7-9-.7-.5-1.9 6.5s-.4 1.4-1.8 1c-1.4-.4-1-1.8-1-1.8L16 16.9l.2-.7c.6-1.5 1.4-2.8 2.3-3.7a.7.7 0 0 1 .2-.3A21.4 21.4 0 0 0 23 4.6c.6-2 4.3-1 5-.6 1.1.5-.6 3.6-.7 4.3-.1.7.6 1.5 1.1.6.5-1 .7-4 1.7-3.9a9.1 9.1 0 0 1 3.4 2c.5.4.9 1 .3 2.2" fill="#66757f"/><path d="M29.7 10a14 14 0 0 0-4 4.5c-.5 1.3-1.2 4-2.8 5.4l-6 5.4s-.8 1.3-1.8.2c-1.4-1.4-.2-2.5-.2-2.5l2.1-2.3 2.3-1.5s-.5-.5-2.7 1.5l-7.5 7s-.8 1.2-1.8.1c-1.4-1.3-.3-2.5-.3-2.5l7-6.4-.4-.4-7.5 7s-.7 1.2-1.8.3C3 24.5 4 23 4 23l7.6-7-.3-.3-6.5 6S4 23 2.9 22c-1.4-1.5-.3-2.7-.3-2.7l7-6.4-.3-.5-5 4.6s-.6 1.3-1.7.3c-1.4-1.2-.2-2.4-.2-2.4l8-7.5.5-.5A10.7 10.7 0 0 1 15.1 5c1.4-.4 5.1-2 7.6-4.3 1.6-1.5 4.1 1.3 4.6 2 .7 1-2.4 2.8-2.8 3.4-.5.5-.3 1.6.6 1 1-.6 2.7-3.2 3.4-2.5A9.1 9.1 0 0 1 30.6 8c.2.7.2 1.4-.9 2" fill="#66757f"/><path d="M30 10.4a14 14 0 0 0-4 4.5c-.5 1.3-1.2 4-2.8 5.4l-6 5.4s-1 1-2 0c-1-1.1 0-2.1 0-2.1l2.4-2.1 2-1.9s-.5-.5-2.7 1.5l-7.5 7s-1 1-2-.1 0-2.1 0-2.1l7-6.5-.5-.5-7.5 7s-1 1-2-.1 0-2.1 0-2.1l7.6-7-.5-.5-6.5 6s-1 1-2-.1c-1-1 0-2 0-2l7-6.5-.4-.7-5 4.6s-1 1-2 0c-1-1.1 0-2.1 0-2.1l8.1-7.5.5-.5a12 12 0 0 1 3.8-2l.4-.1c1.4-.4 5.1-2 7.6-4.3 1.6-1.5 4.1 1.3 4.6 2 .7 1-2.4 2.8-2.8 3.4-.5.5-.3 1.6.6 1 1-.6 2.7-3.2 3.4-2.5A9.1 9.1 0 0 1 31 8.3c.2.7.2 1.4-.9 2" fill="#99aab5"/><path d="M19.1 8.4a.5.5 0 0 0-.2 0l-6.5 2.9a.5.5 0 1 0 .4 1l6.5-3a.5.5 0 0 0-.2-1m2.5 3a.5.5 0 0 0-.4.2L16 16.7a.5.5 0 1 0 .7.7l5.3-5.2a.5.5 0 0 0-.4-.8m-1.2-1.5a.5.5 0 0 0-.3.1l-6.2 4.3a.5.5 0 1 0 .5.8l6.3-4.3a.5.5 0 0 0-.3-.9" fill="#66757f"/></g></svg>