<svg xmlns="http://www.w3.org/2000/svg" viewBox="0 0 45 45"><defs><clipPath id="a"><path d="M0 36h36V0H0v36z"/></clipPath></defs><g clip-path="url(#a)" transform="matrix(1.25 0 0 -1.25 0 45)"><path d="M33.334 8.904c-.588 1.143-1.532 4.627-1.246 5.975.285 1.349 1.015 3.976.401 6.053l-2.274 7.708s-.108 1.503-1.519 1.122c-1.949-.526-1.501-2.044-1.501-2.044l.716-3.091 1.156-2.42s-.701-.206-1.551 2.674l-2.872 9.732s-.067 1.488-1.485 1.133c-1.85-.463-1.521-2.101-1.521-2.101l2.661-9.02c-.401-.05-.456-.203-.46-.191l-2.905 9.846s.079 1.46-1.355 1.179c-1.92-.378-1.694-2.081-1.694-2.081l2.938-9.851c.004-.012-.479-.156-.473-.176l-2.506 8.494s.059 1.546-1.355 1.178c-2.018-.524-1.659-2.142-1.659-2.142l2.677-9.05c.024-.082-.45-.226-.42-.33l-1.92 6.507s.079 1.462-1.354 1.179c-1.838-.364-1.448-2.006-1.448-2.006l3.101-10.511.037.012c-.021-.006.074-.474.17-.711.604-1.49 1.395-2.727 2.324-3.706a.699.699 0 0 1 .163-.277c.969-1.036 3.395-4.267 4.325-7.59.581-2.077 4.215-.914 5.025-.556 1.079.477-.64 3.61-.752 4.31-.112.702.618 1.483 1.096.512.479-.972.646-4.026 1.657-3.836 1.012.19 2.888 1.17 3.559 1.855.441.45.852 1.078.264 2.22" fill="#292f33"/><path d="M33.794 9.095c-.588 1.143-1.532 4.627-1.247 5.975.286 1.349 1.015 3.976.402 6.053l-2.274 7.708s-.413 1.4-1.815.988c-1.4-.414-.988-1.815-.988-1.815L28.76 25l.768-2.602s-.7-.206-1.55 2.674c-.852 2.882-2.873 9.732-2.873 9.732s-.414 1.4-1.815.988c-1.4-.414-.988-1.815-.988-1.815l2.715-9.203c-.005.02-.713-.161-.717-.15l-2.905 9.847s-.414 1.4-1.815.988c-1.4-.414-.988-1.815-.988-1.815l2.905-9.847c.004-.012-.692-.235-.686-.255l-2.506 8.494s-.414 1.4-1.815.988c-1.402-.414-.988-1.815-.988-1.815l2.665-9.03c.024-.083-.649-.383-.619-.487l-1.92 6.507s-.413 1.402-1.815.988c-1.4-.414-.987-1.815-.987-1.815l3.101-10.511.037.012c-.02-.006.074-.474.17-.712.604-1.49 1.395-2.726 2.324-3.705a.692.692 0 0 1 .163-.277c.97-1.036 3.395-4.267 4.325-7.59.581-2.078 4.215-.914 5.025-.556 1.08.477-.64 3.61-.752 4.31-.112.702.618 1.483 1.096.512.48-.972.646-4.026 1.657-3.836 1.012.19 2.888 1.17 3.56 1.855.44.45.851 1.078.263 2.22" fill="#66757f"/><path d="M29.742 9.975c-1.09.681-3.683 3.193-4.127 4.498-.443 1.305-1.16 3.935-2.748 5.407l-5.895 5.461s-.862 1.237-1.88.188c-1.405-1.449-.245-2.524-.245-2.524l2.196-2.29 2.23-1.489s-.496-.536-2.7 1.505L9.13 27.626s-.82 1.245-1.856.215c-1.353-1.344-.233-2.584-.233-2.584l6.9-6.39c-.32-.249-.29-.409-.3-.4l-7.53 6.976s-.678 1.295-1.766.32c-1.457-1.306-.393-2.654-.393-2.654l7.562-6.964c.009-.008-.331-.379-.316-.393L4.7 21.77s-.74 1.36-1.767.32c-1.466-1.482-.33-2.689-.33-2.689l6.927-6.409c.064-.058-.271-.424-.191-.498l-4.978 4.611s-.68 1.296-1.766.32c-1.394-1.252-.22-2.465-.22-2.465s7.867-7.274 8.04-7.446c.174-.173.536-.496.536-.496 1.319-1.112 2.4-1.536 3.798-2.03.156-.057.256-.087.375-.12 1.363-.396 5.1-1.932 7.598-4.313 1.56-1.488 4.09 1.37 4.603 2.093.683.961-2.397 2.775-2.851 3.32-.454.545-.227 1.59.68 1 .91-.592 2.615-3.13 3.387-2.45.772.681 1.883 2.482 2.109 3.413.149.614.182 1.363-.908 2.044" fill="#66757f"/><path d="M30.04 10.375c-1.09.68-3.681 3.193-4.125 4.498-.445 1.305-1.161 3.935-2.75 5.407l-5.895 5.46s-1.072.994-2.066-.078c-.992-1.072.08-2.064.08-2.064l2.297-2.13 1.99-1.842s-.497-.536-2.7 1.505l-7.443 6.895s-1.072.993-2.065-.08c-.993-1.071.079-2.064.079-2.064l7.038-6.52c-.015.014-.53-.504-.54-.495l-7.53 6.975s-1.072.994-2.065-.078c-.993-1.072.079-2.065.079-2.065l7.53-6.977c.01-.008-.473-.556-.458-.57L4.999 22.17s-1.072.993-2.065-.08c-.993-1.071.079-2.064.079-2.064l6.907-6.398c.064-.058-.362-.66-.282-.734l-4.977 4.61s-1.073.993-2.065-.08c-.993-1.071.079-2.064.079-2.064l8.039-7.447s.332-.341.536-.495c1.28-.972 2.444-1.603 3.74-2.01.127-.042.314-.107.434-.141 1.362-.395 5.099-1.931 7.597-4.312 1.562-1.488 4.09 1.37 4.603 2.092.683.962-2.396 2.775-2.851 3.32-.454.545-.227 1.59.68 1 .91-.591 2.615-3.13 3.387-2.45.772.682 1.883 2.483 2.109 3.414.149.614.182 1.363-.908 2.044" fill="#99aab5"/><path d="M19.097 8.376a.503.503 0 0 0-.202.043l-6.53 2.883a.5.5 0 1 0 .405.914l6.529-2.883a.5.5 0 0 0-.202-.957M21.594 11.373a.5.5 0 0 0-.351.144l-5.252 5.167a.5.5 0 1 0 .7.712l5.254-5.166a.5.5 0 0 0-.351-.857M20.368 9.92a.493.493 0 0 0-.28.087l-6.236 4.24a.499.499 0 1 0 .562.826l6.235-4.24a.499.499 0 0 0-.28-.913" fill="#66757f"/></g></svg>