<svg xmlns="http://www.w3.org/2000/svg" viewBox="0 0 45 45"><defs><clipPath id="a"><path d="M0 36h36V0H0v36z"/></clipPath></defs><g clip-path="url(#a)" transform="matrix(1.25 0 0 -1.25 0 45)"><path d="M27 16.7a5 5 0 0 1-2.7-.8v-4.5H22a5 5 0 0 1 5-4.7 5 5 0 0 1 5 5v5h-5z" fill="#55acee"/><path d="M23 13v16h9V13h-9z" fill="#1c6399"/><path d="M23.7 1.3l-6.4 6.4 6.9 6.8 6.4-6.3-7-6.9z" fill="#1c6399"/><path d="M30 32h-5a2 2 0 0 1-2-2v-2h9v2a2 2 0 0 1-2 2M15 20.7a5 5 0 0 1-2.7-.8v-4.5H10a5 5 0 0 1 5-4.7 5 5 0 0 1 5 5v5h-5z" fill="#55acee"/><path d="M11 17v16h9V17h-9z" fill="#1c6399"/><path d="M23.7 1.3a4.5 4.5 0 0 0-6.4 6.4S18.5 7.6 21 5c2.5-2.5 2.7-3.7 2.7-3.7M18 36h-5a2 2 0 0 1-2-2v-2h9v2a2 2 0 0 1-2 2" fill="#55acee"/><path d="M11.7 5.3l-6.4 6.4 6.9 6.9 6.4-6.4-7-6.9z" fill="#1c6399"/><path d="M11.7 5.3a4.5 4.5 0 0 0-6.4 6.4S6.5 11.6 9 9c2.5-2.5 2.7-3.7 2.7-3.7" fill="#55acee"/><path d="M23 24h9v2h-9v-2zm0-4h9v2h-9v-2zm-12 8h9v2h-9v-2zm0-4h9v2h-9v-2z" fill="#ffcc4d"/></g></svg>