<svg xmlns="http://www.w3.org/2000/svg" viewBox="0 0 45 45"><defs><clipPath id="a"><path d="M0 36h36V0H0v36z"/></clipPath></defs><g clip-path="url(#a)" transform="matrix(1.25 0 0 -1.25 0 45)"><path d="M13 34c-1-1-2.6-5-3-8C9 19 9 8 9 8s2-1 4-1 1-1 6-1c0 0-1.9 23 1 27 1.8 2.5-6 2-7 1" fill="#a0041e"/><path d="M10.4 30.3C8.1 29 7.4 27 7 24 6 17 6 6 6 6s2-1 4-1 1-1 6-1c0 0-2 23 1 27s-5.4 0-6.6-.7" fill="#dd2e44"/><path d="M13.5 31.7l-3-1.4a6 6 0 0 1-2.8-3.4c1.8-.8 5.2-1 8-1.2l1.5 1.1v4.5l-3.7.4z" fill="#a0041e"/><path d="M29 34.4c-1 2.7-6.4.9-10 .9-3.7 0-9 1.8-10-1-.9-2.7-4.5-5.5 1-6.4 5.5-.9 9-.9 9-.9s3.6 0 9 1c5.5.8 1.9 3.6 1 6.4" fill="#dd2e44"/><path d="M26.4 35.1c-1 0-3.7-.7-7.4-.7s-6.5.7-7.4.7 1-1.7 7.4-1.7 8.3 1.7 7.4 1.7" fill="#a0041e"/><path d="M6.3 1.3a.5.5 0 0 0-.5.4c-.1.6-.1 2.7.2 3.9a.5.5 0 0 0 1-.3 14.3 14.3 0 0 1-.2-3.5.5.5 0 0 0-.5-.5M7.8.9a.5.5 0 0 0-.5.5 15 15 0 0 0 .3 3.8.5.5 0 0 0 .6.3.5.5 0 0 0 .4-.6c-.3-1.1-.3-3-.3-3.5a.5.5 0 0 0-.5-.5M9.5.6A.5.5 0 0 0 9 1c0 .5-.1 2.6.2 4a.5.5 0 0 0 1-.2A15.5 15.5 0 0 1 10 1a.5.5 0 0 0-.5-.6m1.9-.1a.5.5 0 0 0-.5.5v.8c0 1-.1 1.7.2 3a.5.5 0 0 0 1-.3c-.3-1-.3-1.8-.3-2.6v-1a.5.5 0 0 0-.4-.4m1.8-.4a.5.5 0 0 0-.5.5c0 .5 0 2.3.3 3.6a.5.5 0 0 0 1-.2 17 17 0 0 1-.3-3.3.5.5 0 0 0-.5-.6m2.2.1a.5.5 0 0 0-.5.5 26.6 26.6 0 0 0 0 2V4a.5.5 0 1 0 1 0V.6a.5.5 0 0 0-.5-.5" fill="#dd2e44"/><path d="M18.6 1.7a.5.5 0 0 0-.5.4L18 5.6a.5.5 0 1 0 1 0l.1-3.4a.5.5 0 0 0-.5-.5m-1.6 0a.5.5 0 0 0-.5.5 50.6 50.6 0 0 0-.2 3.5.5.5 0 1 0 1 0l.2-3.4a.5.5 0 0 0-.5-.5" fill="#a0041e"/></g></svg>