<svg xmlns="http://www.w3.org/2000/svg" viewBox="0 0 45 45"><defs><clipPath id="a"><path d="M0 36h36V0H0v36z"/></clipPath></defs><g clip-path="url(#a)" transform="matrix(1.25 0 0 -1.25 0 45)"><path d="M29.9 9.3l-.1-1A6 6 0 0 0 23.4 4c-3 .2-5.4 1.7-5.4 3.7s2.4 3.7 5.4 3.7 6.4 0 6.4-2" fill="#ea596e"/><path d="M23.5 11c-1.6 0-5.3-.4-6.1-.4-1.5 0-2.7-1-2.7-2.1 0-.6.2-1 .7-1.4 0 0 1-1 2.8-.6.8.2 2.1 1.8 4.4 2 1.1.2 3.2-.7 7-.7l.1.6c0 2-3.1 2.6-6.1 2.6" fill="#dd2e44"/><path d="M29.8 8.4s2.1.4 3.5 2.2c1.6 2 1.4 4.3 1.4 4.3 1.6 3-.5 5.8-.5 5.8C34 24 32 25.2 32 25.2c-1.3 3-4 3.8-4 3.8-2.3 2.6-6.2 2.5-6.2 2.5S18 33 13 31.4c-.8-.3-3.6-.9-5.7-2.1-6.4-4-7-10-6.8-11 .5-5.8 4.5-6.8 7-7.3.6-1.5 2.7-4.5 6.6-3.4 4.7.9 6.7 2.3 7.9 2.3s4.4-1.3 7.8-1.5" fill="#f4abba"/><path d="M17.7 17.4c2.4 1.2 3.6 1 4.7 1h1c2 0 3.7.8 4.4 1.6a.5.5 0 0 1-.8.7 5.2 5.2 0 0 0-3.6-1.4h-.9a8 8 0 0 1-5.2-1 7.1 7.1 0 0 0-2.6-.7 6 6 0 0 0-.5 6.6h.1l1.2.3a.5.5 0 0 1-.5.9 1.4 1.4 0 0 0-1.9.5.5.5 0 1 1-.8-.6c.2-.4.5-.6 1-.8a7.1 7.1 0 0 1 .3-7 8.3 8.3 0 0 1-3.7-1A7.2 7.2 0 0 1 8 14.9c-.6 0-3 .6-3.3 3.2l.6.8a.5.5 0 1 1-1 .3.8.8 0 0 0-.4-.4.8.8 0 0 0-.7 0 .5.5 0 0 1-.5-.8c.3-.2.6-.3 1-.3a4.8 4.8 0 0 1 3.8-3.8 3.7 3.7 0 0 1-.4-1.2.5.5 0 0 1 .5-.5.5.5 0 0 1 .5.5c.1 1.2 1.3 2.4 2.3 3.1 1 .6 2.4.8 3.8.9 1.3.1 2.6.2 3.5.8M30.6 19a.5.5 0 0 1 .9-.5s1.8 3.4-1.6 5.7a.5.5 0 0 1-.6-.8 3.3 3.3 0 0 0 1.3-4.4M9.9 27l.4.2a3.1 3.1 0 0 0 3.5 1.3.5.5 0 0 1 .4 1c-1 .3-3.2.4-4.7-1.7a.5.5 0 0 1 .4-.8m13 2a3.5 3.5 0 0 0 3.3-1.6.5.5 0 0 1 .9.5 4.5 4.5 0 0 1-4.2 2 .5.5 0 0 1-.5-.5.5.5 0 0 1 .6-.5m9-14.7c-.3 0-.5-.2-.5-.5a2.8 2.8 0 0 0-2-2.3.5.5 0 1 1 .4-.9 3.8 3.8 0 0 1 2.6 3.2.5.5 0 0 1-.5.5" fill="#ea596e"/><path d="M7.3 19a.5.5 0 1 1 1-.2c.2.7 1 1.2 1.7 1a.5.5 0 0 1 .2 1 2.3 2.3 0 0 1-1.3 0 7 7 0 0 0-.9 3.9.5.5 0 0 1-1 .1 7.9 7.9 0 0 1 1-4.6 2.4 2.4 0 0 1-.6-1.1m11.1 2.4a1 1 0 0 0 1.5 0 .5.5 0 0 1 .7 0 .5.5 0 0 1 0 .7 2 2 0 0 1-.8.5 3.2 3.2 0 0 1-.1 2.3l-.2.5v.1c-.4 1.2-.6 2 0 3.1a.5.5 0 0 1-.8.6c-.9-1.5-.5-2.7-.2-4l.2-.6c.3-.7.4-1 0-2a2 2 0 0 1-1-.4.5.5 0 1 1 .7-.8m6.4 3a2 2 0 0 1 .9.2.5.5 0 1 1-.5 1 1 1 0 0 0-1.4.4.5.5 0 1 1-.8-.5 2 2 0 0 1 .7-.8 5 5 0 0 1 0-3.4.5.5 0 0 1 1 .3c-.2.5-.5 1.8 0 2.8h.1m4.8-9.4a.5.5 0 0 1-.5.5 1.8 1.8 0 0 0-2 1.7.5.5 0 0 1-.5.4.5.5 0 0 1-.5-.5 2.8 2.8 0 0 1 .6-1.6 3.8 3.8 0 0 0-2.4-1.2 6 6 0 0 0-1.5 0l-1.7.1c0 .3-.1.7-.3 1a.5.5 0 0 1-.9-.5c.2-.2.2-.5.2-.7a4 4 0 0 1-1.3-.7c-.7-.5-1.3-.8-2.1-.6a6.1 6.1 0 0 1-2.2 0c0 .3-.3.6-.5.9a.5.5 0 1 1-.7-.8l.2-.3a4 4 0 0 1-1.7-1.2.5.5 0 0 1 .8-.6s.6.7 1.7 1a4.7 4.7 0 0 0 2.1 0h.7a2 2 0 0 0 .1-.7.5.5 0 0 1 1 .1 3 3 0 0 1-.1.7l1.2.7c.6.3 1.1.7 1.8.7h1.6a8 8 0 0 1 1.4-.1 1.8 1.8 0 0 0 .1-.7.5.5 0 0 1 1-.2v1a4.7 4.7 0 0 1 2.3 1.5 2.8 2.8 0 0 1 1.6-.4.5.5 0 0 1 .5.5" fill="#ea596e"/></g></svg>