<svg xmlns="http://www.w3.org/2000/svg" viewBox="0 0 45 45"><defs><clipPath id="a"><path d="M0 36h36V0H0v36z"/></clipPath></defs><g clip-path="url(#a)" transform="matrix(1.25 0 0 -1.25 0 45)"><path d="M25 4a4 4 0 0 0-4-4h-6a4 4 0 0 0-4 4v28a4 4 0 0 0 4 4h6a4 4 0 0 0 4-4V4z" fill="#292f33"/><path d="M32 18a2 2 0 0 1-2 2h-1a2 2 0 0 1 0-4h1a2 2 0 0 1 2 2" fill="#99aab5"/><path d="M6 18a12 12 0 1 0 24 0 12 12 0 0 0-24 0" fill="#ccd6dd"/><path d="M10 18a8 8 0 0 0 8 8 8 8 0 0 0 8-8 8 8 0 1 0-16 0" fill="#f5f8fa"/><path d="M23 14a1 1 0 0 0-.5.1l-5 3a1 1 0 0 0-.5.9v7a1 1 0 0 0 2 0v-6.4l4.5-2.7A1 1 0 0 0 23 14" fill="#66757f"/></g></svg>