<svg xmlns="http://www.w3.org/2000/svg" viewBox="0 0 45 45"><defs><clipPath id="a"><path d="M0 36h36V0H0v36z"/></clipPath></defs><g clip-path="url(#a)" transform="matrix(1.25 0 0 -1.25 0 45)"><path d="M21 18c0 2 3.3 3.4 5 6 2 3 2 10 2 10H8s0-7 2-10c1.8-2.6 5-4 5-6s-3.3-3.4-5-6C8 9 8 2 8 2h20s0 7-2 10c-1.8 2.6-5 4-5 6" fill="#ffe8b6"/><path d="M21 12c-1 0-2 1-2 2v4c0 3.2 3 4.6 4.9 7H12.1c1.9-2.4 4.9-3.8 4.9-7v-4c0-1-1-2-2-2-2 0-3.6-1.8-4-3-1-3-1-7-1-7h16s0 4-1 7c-.4 1.2-2 3-4 3" fill="#ffac33"/><path d="M30 2a2 2 0 0 0-2-2H8a2 2 0 0 0 0 4h20a2 2 0 0 0 2-2m0 32a2 2 0 0 0-2-2H8a2 2 0 0 0 0 4h20a2 2 0 0 0 2-2" fill="#3b88c3"/></g></svg>