<svg xmlns="http://www.w3.org/2000/svg" viewBox="0 0 45 45"><defs><clipPath id="a"><path d="M0 36h36V0H0v36z"/></clipPath></defs><g clip-path="url(#a)" transform="matrix(1.25 0 0 -1.25 0 45)"><path d="M20 30a2 2 0 0 0-2-2 2 2 0 0 0-2 2v4c0 1 .9 2 2 2s2-.9 2-2v-4z" fill="#ffcc4d"/><path d="M9.2 0c-.2 0-.5 0-.7.2a1.5 1.5 0 0 0-.7 2l9 18.1a1.5 1.5 0 0 0 1.3.9c.6 0 1.1-.4 1.3-.9l9-18.1a1.5 1.5 0 0 0-.7-2 1.5 1.5 0 0 0-2 .6l-7.6 15.5L10.5.8A1.5 1.5 0 0 0 9.2 0" fill="#ffac33"/><path d="M18.1 15.6a1 1 0 0 0-.7.3L3.5 30a1 1 0 0 0 0 1.4 1 1 0 0 0 1.4 0L18.1 18l13.2 13.4a1 1 0 0 0 1.4 0 1 1 0 0 0 0-1.4L18.8 15.9a1 1 0 0 0-.7-.3" fill="#58595b"/><path d="M34 16.6A16 16 0 0 0 18.1.6a16 16 0 0 0-15.9 16 16 16 0 0 0 16 16.1 16 16 0 0 0 15.8-16" fill="#dd2e44"/><path d="M30 16.6a12 12 0 0 0-11.9-12 12 12 0 0 0-11.9 12 12 12 0 0 0 12 12.1 12 12 0 0 0 11.8-12" fill="#e6e7e8"/><path d="M30 34.7a5.9 5.9 0 0 1-4.2-1.7l8.5-8.6a6 6 0 0 1 1.7 4.3 6 6 0 0 1-6 6m-24 0a5.9 5.9 0 0 0 4.2-1.7l-8.4-8.6A6 6 0 0 0 0 28.7a6 6 0 0 0 6 6" fill="#ffcc4d"/><path d="M23 16h-5a1 1 0 0 0-1 1v9a1 1 0 0 0 2 0v-8h4a1 1 0 1 0 0-2" fill="#414042"/></g></svg>