<svg xmlns="http://www.w3.org/2000/svg" viewBox="0 0 45 45"><defs><clipPath id="a"><path d="M0 36h36V0H0v36z"/></clipPath></defs><path d="M20 10h5V6.2h-5V10z" fill="#292f33"/><g clip-path="url(#a)" transform="matrix(1.25 0 0 -1.25 0 45)"><path d="M22 35h-8c-1.1 0-2-.9-2-2s.9-2 2-2h8c1.1 0 2 .9 2 2s-.9 2-2 2m6.2-10.5l-1.5 1.3a2 2 0 0 0-.2 2.8 2 2 0 0 0 2.8.2l1.5-1.3a2 2 0 0 0 .2-2.8 2 2 0 0 0-2.8-.2" fill="#8899a6"/><path d="M18 26a11 11 0 1 1 11-11 11 11 0 0 1-11 11" fill="#f5f8fa"/><path d="M18 4a11 11 0 0 0 0 22 11 11 0 0 0 0-22m0 25a14 14 0 1 1 0-28 14 14 0 0 1 0 28" fill="#66757f"/><path d="M27 14H17a1 1 0 1 0 0 2h10a1 1 0 1 0 0-2m-8 10a1 1 0 1 0-2 0 1 1 0 0 0 2 0m0-18a1 1 0 1 0-2 0 1 1 0 0 0 2 0m-6.3 15.7a1 1 0 1 0-1.4-1.4 1 1 0 1 0 1.4 1.4m12-12a1 1 0 1 0-1.4-1.4 1 1 0 1 0 1.4 1.4M9 16a1 1 0 1 0 0-2 1 1 0 0 0 0 2m14.3 5.7a1 1 0 1 0 1.4-1.4 1 1 0 1 0-1.4 1.4" fill="#292f33"/><path d="M12 8a1 1 0 0 0-.7 1.7l7 7a1 1 0 1 0 1.4-1.4l-7-7A1 1 0 0 0 12 8" fill="#dd2e44"/></g></svg>