<svg xmlns="http://www.w3.org/2000/svg" viewBox="0 0 45 45"><defs><clipPath id="a"><path d="M0 36h36V0H0v36z"/></clipPath></defs><g clip-path="url(#a)" transform="matrix(1.25 0 0 -1.25 0 45)"><path d="M18 36A17 17 0 0 1 1 19V2C1 .9 2 0 3 0h30a2 2 0 0 1 2 2v17a17 17 0 0 1-17 17" fill="#aab8c2"/><path d="M18 5a14 14 0 1 0 0 28 14 14 0 0 0 0-28" fill="#fff"/><path d="M18 34a15 15 0 1 1 0-30 15 15 0 0 1 0 30m0-2a13 13 0 1 0 0-26 13 13 0 0 0 0 26" fill="#66757f"/><path d="M19 30a1 1 0 0 1-2 0v-1a1 1 0 0 1 2 0v1zm0-21a1 1 0 0 1-2 0V8a1 1 0 0 1 2 0v1zM8 20H7a1 1 0 0 1 0-2h1a1 1 0 0 1 0 2m21 0h-1a1 1 0 0 1 0-2h1a1 1 0 0 1 0 2m-2.3-8.3l-.7.7a1 1 0 1 1-1.4-1.4l.7-.7a1 1 0 1 1 1.4 1.4m-16.7.7l-.7-.7a1 1 0 1 1 1.4-1.4l.7.7a1 1 0 1 1-1.4 1.4m-.7 13.9l.7-.7a1 1 0 1 1 1.4 1.4l-.7.7a1 1 0 1 1-1.4-1.4m16.7-.7l.7.7a1 1 0 1 1-1.4 1.4l-.7-.7a1 1 0 1 1 1.4-1.4" fill="#292f33"/><path d="M9 22.2a1 1 0 0 0 1.2 1.3l8.2-3.6a1 1 0 1 0-.8-1.8l-8.2 3.5a1 1 0 0 0-.5.6" fill="#dd2e44"/></g></svg>