<svg xmlns="http://www.w3.org/2000/svg" viewBox="0 0 45 45"><defs><clipPath id="a"><path d="M0 36h36V0H0v36z"/></clipPath></defs><g clip-path="url(#a)" transform="matrix(1.25 0 0 -1.25 0 45)"><path d="M33.7 36c-1.2 0-6 .7-17.6-6.7C4.5 21.9-1.7 9.3 3.6 2.7 4.7 1.3 9.1-1.6 14.3 2c3.2 2.4 4.2 7.6 7.1 14.5 2 4.7 6.5 13.6 12.7 17.6 2 1 .2 1.7-.4 1.7" fill="#5dadec"/><path d="M16.6 22.4c-.2 1 1 4.2 1.3 5.1-6.4-3-12.5-11.6-12.4-13.2 0-.2.1-.3.4-.2 5.4 2.2 8.9-1 9.8-3.7.1-.3.2-.4.4-.4a57.4 57.4 0 0 0 11.8 21 48 48 0 0 1-11.3-8.7" fill="#8ccaf7"/><path d="M14.2 23a38 38 0 0 1-8.7-8.7c0-.2.1-.3.4-.2 5.4 2.2 8.9-1 9.8-3.7.1-.3.2-.4.4-.4 0 2.3-.2 7.6 2.1 11.5-4-3.7-5-3.6-4 1.5" fill="#bdddf4"/><path d="M8.7 12.3a5.3 5.3 0 1 1 0-10.6 5.3 5.3 0 0 1 0 10.6" fill="#f5f8fa"/></g></svg>