<svg xmlns="http://www.w3.org/2000/svg" viewBox="0 0 45 45"><defs><clipPath id="a"><path d="M0 36h36V0H0v36z"/></clipPath></defs><g clip-path="url(#a)" transform="matrix(1.25 0 0 -1.25 0 45)"><path d="M33.662 35.95c-1.148.078-5.869.75-17.522-6.664C4.488 21.87-1.646 9.39 3.604 2.67c1.104-1.413 5.518-4.283 10.682-.53 3.247 2.359 4.242 7.519 7.15 14.434 1.987 4.722 6.445 13.594 12.668 17.61 1.942.972.22 1.722-.442 1.766" fill="#5dadec"/><path d="M16.625 22.35c-.265 1.058.971 4.28 1.324 5.163-6.436-2.929-12.509-11.616-12.47-13.18.006-.227.139-.306.42-.192 5.399 2.166 8.883-1.07 9.808-3.75.094-.276.214-.416.338-.442.172-.035.352.15.495.558C18.565 16.325 23.112 26.945 27.835 31c-2.647-1.28-10.106-6.797-11.21-8.65" fill="#8ccaf7"/><path d="M14.242 23.011c-1.737-.827-7.275-6.192-8.762-8.678.006-.227.139-.306.42-.193 5.399 2.166 8.883-1.07 9.807-3.75.095-.275.215-.415.339-.44.058 2.327-.092 7.615 2.213 11.561-4.06-3.708-5.076-3.62-4.017 1.5" fill="#bdddf4"/><path d="M8.725 12.337a5.297 5.297 0 1 1 0-10.594 5.297 5.297 0 0 1 0 10.594" fill="#f5f8fa"/></g></svg>