<svg xmlns="http://www.w3.org/2000/svg" viewBox="0 0 45 45"><defs><clipPath id="a"><path d="M0 36h36V0H0v36z"/></clipPath></defs><g clip-path="url(#a)" transform="matrix(1.25 0 0 -1.25 0 45)"><path d="M27 7.5a1.5 1.5 0 0 1-3 0V7s0-3-3-3-3 3-3 3v25.5a1.5 1.5 0 1 1-3 0V7s0-6 6-6 6 6 6 6v.5z" fill="#66757f"/><path d="M16.5 32C7.4 32 0 26.2 0 19c0 0 0-2 1-2s3 2 3 2h25s2-2 3-2 1 2 1 2c0 7.2-7.4 13-16.5 13" fill="#744eaa"/><path d="M16.5 32C9.6 32 4 26.2 4 19c0 0 0-2 2-2s5 2 5 2h11s3-2 5-2 2 2 2 2c0 7.2-5.6 13-12.5 13" fill="#9266cc"/><path d="M16.5 32c-3.6 0-5.5-5.8-5.5-13 0 0 3-2 5-2h1c2 0 5 2 5 2 0 7.2-2 13-5.5 13" fill="#744eaa"/><path d="M5.6 31.5L3 36 .5 31.6a3 3 0 0 1 0-3.2 3 3 0 0 1 4-1 3 3 0 0 1 1.1 4.1m8-3L11 33l-2.4-4.3a3 3 0 0 1 0-3.2 3 3 0 0 1 4-1 3 3 0 0 1 1.1 4.1m12 3L22.9 36l-2.5-4.3a3 3 0 0 1 0-3.2 3 3 0 0 1 4.1-1 3 3 0 0 1 1 4.1m10-5.9L33 30l-2.5-4.3a3 3 0 0 1 0-3.2 3 3 0 0 1 4.1-1 3 3 0 0 1 1 4.1" fill="#5dadec"/></g></svg>