<svg xmlns="http://www.w3.org/2000/svg" viewBox="0 0 45 45"><defs><clipPath id="a"><path d="M0 36h36V0H0v36z"/></clipPath></defs><g clip-path="url(#a)" transform="matrix(1.25 0 0 -1.25 0 45)"><path d="M32.3 16.8c.2 1.5 2.7 2.2 2.7 4.5 0 2.4-5.7 6.5-14-1.3 3.8 5.3 6.5 14.5 2.2 14.5-1.5 0-2.6-1.3-4.3-1.3-2.4 0-2.7 2.8-4.9 2.8-2.6 0-5-6.3 1-15-1.5 1.6-11 6.6-13 1.3-.6-1.8 1.7-2.8 1.5-4.6-.1-1.6-2.6-2-2.6-4.3C1 10 9 8.5 17 15c-.3-4.5.6-10.5 3.9-14.2 1.3-1.4 2.4-.5 2.8-.1.4.3 1.6 1.4.2 2.8a19.3 19.3 0 0 0-5.7 11.4c2-2.3 12.4-8.8 15.6-2.8.8 1.7-1.7 3-1.5 4.7" fill="#77b255"/></g></svg>