<svg xmlns="http://www.w3.org/2000/svg" viewBox="0 0 45 45"><defs><clipPath id="a"><path d="M0 36h36V0H0v36z"/></clipPath></defs><g clip-path="url(#a)" transform="matrix(1.25 0 0 -1.25 0 45)"><path d="M4 13a1 1 0 1 0-2 .9l4.7 12.5a1 1 0 1 0 1.8-.8L4 13.1z" fill="#66757f"/><path d="M14 13.8a1 1 0 0 0-2-.7L7.6 25.6a1 1 0 0 0 1.8.8L14 13.9zm10-.7a1 1 0 0 0-2 .8l4.7 12.5a1 1 0 1 0 1.8-.8L24 13.1z" fill="#66757f"/><path d="M34 13.8a1 1 0 1 0-2-.7l-4.5 12.5a1 1 0 1 0 1.8.8L34 13.8z" fill="#66757f"/><path d="M14.9 14H1a1.1 1.1 0 0 1-1-1.1c0-2.6 3.6-4.6 8-4.6s8 2 8 4.6c0 .6-.5 1.1-1.1 1.1M24 2H12a1 1 0 0 0-1 1c0 2.2 3.1 4 7 4s7-1.8 7-4a1 1 0 0 0-1-1m10.9 12H21a1.1 1.1 0 0 1-1.1-1.1c0-2.6 3.6-4.6 8-4.6s8 2 8 4.6c0 .6-.5 1.1-1.1 1.1" fill="#ffac33"/><path d="M19 33a1 1 0 1 1-2 0V6a1 1 0 1 1 2 0v27z" fill="#ffac33"/><path d="M20 32a2 2 0 1 0-4 0 2 2 0 0 0 4 0m-10-6a2 2 0 1 0-4 0 2 2 0 0 0 4 0m20 0a2 2 0 1 0-4 0 2 2 0 0 0 4 0" fill="#ffac33"/><path d="M28 26c0-1.1 0 0-10 0S8 24.9 8 26s3 4 10 4 10-2.9 10-4" fill="#ffac33"/></g></svg>