<svg xmlns="http://www.w3.org/2000/svg" viewBox="0 0 45 45"><defs><clipPath id="a"><path d="M0 36h36V0H0v36z"/></clipPath></defs><g clip-path="url(#a)" transform="matrix(1.25 0 0 -1.25 0 45)"><path d="M29 19.5a13.5 13.5 0 1 0-27 0 13.5 13.5 0 0 0 27 0" fill="#e1e8ed"/><path d="M4 19a11.5 11.5 0 0 1 23 0H4z" fill="#8ccaf7"/><path d="M30 12a2 2 0 0 0-2-2H3a2 2 0 0 0 0 4h25a2 2 0 0 0 2-2" fill="#67757f"/><path d="M16 2a1 1 0 1 0-2 0v8a1 1 0 1 0 2 0V2zM3 1.7a1 1 0 1 0-2 .6l3 8.4a1 1 0 1 0 2-.6L3 1.7zm25 0a1 1 0 0 1 2 .6l-3.1 8.5a1 1 0 1 1-1.9-.7l3-8.4z" fill="#67757f"/><path d="M19 32.5l14.4-5c3.6-1.2 2.1-5-.4-4.5-5 1.3-14 4-15 4s1 5.5 1 5.5" fill="#e1e8ed"/><path d="M29 13a1 1 0 0 0-1-1H3a1 1 0 1 0 0 2h25a1 1 0 0 0 1-1" fill="#9aaab4"/></g></svg>