<svg xmlns="http://www.w3.org/2000/svg" viewBox="0 0 45 45"><defs><clipPath id="a"><path d="M0 36h36V0H0v36z"/></clipPath></defs><g clip-path="url(#a)" transform="matrix(1.25 0 0 -1.25 0 45)"><path d="M18 10a8 8 0 0 0-8 8 8 8 0 0 0 8 8 8 8 0 1 0 0-16m16 11h-3.4a12.9 12.9 0 0 1-1.5 3.8l2.3 2.4a2 2 0 0 1 0 2.8L30 31.4a2 2 0 0 1-2.8 0l-2.4-2.3a12.9 12.9 0 0 1-3.8 1.5V34a2 2 0 0 1-2 2h-2a2 2 0 0 1-2-2v-3.4a12.9 12.9 0 0 1-3.8-1.5l-2.4 2.3a2 2 0 0 1-2.8 0L4.6 30a2 2 0 0 1 0-2.8l2.3-2.4A13 13 0 0 1 5.4 21H2a2 2 0 0 1-2-2v-2a2 2 0 0 1 2-2h3.4a12.9 12.9 0 0 1 1.5-3.8L4.6 8.8a2 2 0 0 1 0-2.8L6 4.6a2 2 0 0 1 2.8 0l2.4 2.3A12.9 12.9 0 0 1 15 5.4V2a2 2 0 0 1 2-2h2a2 2 0 0 1 2 2v3.4c1.4.3 2.6.8 3.8 1.5l2.4-2.3a2 2 0 0 1 2.8 0L31.4 6a2 2 0 0 1 0 2.8l-2.3 2.4a12.9 12.9 0 0 1 1.5 3.8H34a2 2 0 0 1 2 2v2a2 2 0 0 1-2 2" fill="#66757f"/></g></svg>