<svg xmlns="http://www.w3.org/2000/svg" viewBox="0 0 45 45"><defs><clipPath id="a"><path d="M0 36h36V0H0v36z"/></clipPath><clipPath id="b"><path d="M18 36a18 18 0 1 1 0-36 18 18 0 0 1 0 36z"/></clipPath></defs><g clip-path="url(#a)" transform="matrix(1.25 0 0 -1.25 0 45)"><path d="M36 18a18 18 0 1 0-36 0 18 18 0 0 0 36 0" fill="#f5f8fa"/><path d="M18 25a1 1 0 0 0-1 1v7a1 1 0 0 0 2 0v-7a1 1 0 0 0-1-1m-6.6-4.5a1 1 0 0 0-.3 0l-8 2.6a1 1 0 0 0 .6 1.9l8-2.6a1 1 0 0 0-.3-1.9m13.6.3a1 1 0 0 0-.2 2l6.7 2a1 1 0 1 0 .6-2l-6.8-2a1 1 0 0 0-.3 0m2-15a1 1 0 0 0-.8.4l-5.4 7.4a1 1 0 1 0 1.6 1.2l5.4-7.4a1 1 0 0 0-.8-1.6M8.7 6A1 1 0 0 0 8 7.5l5.1 7.4a1 1 0 1 0 1.7-1.2L9.6 6.4a1 1 0 0 0-.8-.5" fill="#ccd6dd"/></g><g clip-path="url(#b)" transform="matrix(1.25 0 0 -1.25 0 45)"><path d="M3.5 9a1 1 0 0 0-1 .7l-2.1 8a1 1 0 1 0 1.9.6l2.2-8.1a1 1 0 0 0-1-1.3M22 2h-9a1 1 0 1 0 0 2h9a1 1 0 1 0 0-2m10.1 6.9a1 1 0 0 0-1 1.2l2.2 8.6a1 1 0 0 0 2-.4L33 9.6a1 1 0 0 0-1-.7m-1.8 19.4a1 1 0 0 0-.5.2l-7.6 4.3a1 1 0 0 0 1 1.8l7.6-4.4a1 1 0 0 0-.5-1.9m-24.8 0a1 1 0 0 0-.6 1.8l6.2 4.5a1 1 0 0 0 1.2-1.7L6 28.5a1 1 0 0 0-.6-.2" fill="#ccd6dd"/><path d="M25.5 22.5l-7.2 5a1 1 0 0 1-1.2 0l-7.1-5a1 1 0 0 1-.4-1.1l2.5-8.6a1 1 0 0 1 1-.7H22a1 1 0 0 1 1 .7l2.9 8.7a1 1 0 0 1-.4 1M6.8 30.7a1 1 0 0 1-.8.4H3a1 1 0 0 1-.6-.2l-4-3A1 1 0 0 1-2 27v-7.6a1 1 0 0 1 .3-.7l2.3-2a1 1 0 0 1 1.6.3l3.3 6 .1.3L7 29.8a1 1 0 0 1-.2.8m17 6.5a.8.8 0 0 1-.9.6l-10.3-1c-.3 0-.5-.2-.6-.5l-1.4-2.5a.8.8 0 0 1 .6-1.1l6.3-1a.7.7 0 0 1 .3 0l6 1a.8.8 0 0 1 .7.8l-.8 3.7zm13.9-17.8l-4.1 10.4a.8.8 0 0 1-.7.5l-3.3.2a.8.8 0 0 1-.6-.3.7.7 0 0 1-.2-.6l1.2-6.2a.7.7 0 0 1 .1-.2l3.4-5.8V17c.2-.2.5-.1.7-.1.3 0 .4-.1 3.2 1.6.3.2.4.4.3.8M14.3 3.2l-4.4 5a.8.8 0 0 1-.3.1l-6 3.2a.8.8 0 0 1-.3 0c-.6 0-.7-.1-1.6-4a.7.7 0 0 1 0-.1l-.1-4.1a.8.8 0 0 1 .4-.7l7.3-4.3a.8.8 0 0 1 .9.1l4.1 3.7.3.5a.8.8 0 0 1-.2.6M34 7.5l-1.2 3.3a.8.8 0 0 1-1 .4l-6.1-2.7a.7.7 0 0 1-.3-.2l-4.2-5a.8.8 0 0 1 0-1.1c4.9-4 5-4 5.3-4 .3 0 .4 0 6.5 4a.8.8 0 0 1 .3.4l.7 4.6a.8.8 0 0 1 0 .4" fill="#292f33"/></g></svg>