<svg xmlns="http://www.w3.org/2000/svg" viewBox="0 0 45 45"><defs><clipPath id="a"><path d="M0 36h36V0H0v36z"/></clipPath></defs><g clip-path="url(#a)" transform="matrix(1.25 0 0 -1.25 0 45)"><path d="M8 10a10 10 0 1 0 20 0 10 10 0 0 0-20 0" fill="#e1e8ed"/><path d="M12 25a6 6 0 1 0 12 0 6 6 0 0 0-12 0" fill="#e1e8ed"/><path d="M23 30a2 2 0 0 0-2-2h-6a2 2 0 0 0-2 2v4a2 2 0 0 0 2 2h6a2 2 0 0 0 2-2v-4z" fill="#414042"/><path d="M25 29a1 1 0 0 0-1-1H12a1 1 0 0 0 0 2h12a1 1 0 0 0 1-1" fill="#231f20"/><path d="M22.5 21h-9a1.5 1.5 0 1 1-.5-2.9V11a1 1 0 0 1 1-1h1a1 1 0 0 1 1 1v7h6.5a1.5 1.5 0 1 1 0 3" fill="#dd2e44"/><path d="M19 12a1 1 0 1 0-2 0 1 1 0 0 0 2 0m0-5a1 1 0 1 0-2 0 1 1 0 0 0 2 0" fill="#414042"/><path d="M19 24a1 1 0 1 0-2 0 1 1 0 0 0 2 0" fill="#f4900c"/><path d="M16 26a1 1 0 1 0-2 0 1 1 0 0 0 2 0m6 0a1 1 0 1 0-2 0 1 1 0 1 0 2 0" fill="#414042"/><path d="M10.4 16l-3.5 1.4-.5 2.9a1 1 0 0 1-2-.4l.3-1.6-1.3.6a1 1 0 1 1-.8-1.8l.7-.3-1-1a1 1 0 1 1 1.4-1.5l1.6 1.6 4.3-1.8a1 1 0 0 1 1.3.5 1 1 0 0 1-.5 1.3m23 3l-1.6.5.9.9a1 1 0 0 1-1.4 1.4l-.8-.7-.5 2.2a1 1 0 1 1-2-.4l.9-3.5-3.6-3.6a1 1 0 1 1 1.4-1.4l3.6 3.6 2.4-.8a1 1 0 0 1 .6 1.8" fill="#ffac33"/></g></svg>