<svg xmlns="http://www.w3.org/2000/svg" viewBox="0 0 45 45"><defs><clipPath id="a"><path d="M0 36h36V0H0v36z"/></clipPath></defs><g clip-path="url(#a)" transform="matrix(1.25 0 0 -1.25 0 45)"><path d="M14 34s0 2 2 2 2-2 2-2v-2s0-2-2-2-2 2-2 2v2zm16-12s2 0 2-2-2-2-2-2h-2s-2 0-2 2 2 2 2 2h2zM4 22s2 0 2-2-2-2-2-2H2s-2 0-2 2 2 2 2 2h2zm3.9 8s1.4-1.5 0-2.9-2.9 0-2.9 0l-1.4 1.4s-1.4 1.5 0 2.9 2.9 0 2.9 0L7.9 30zm19-2.9s-1.4-1.4-2.8 0 0 2.9 0 2.9l1.4 1.4s1.5 1.4 2.9 0 0-2.9 0-2.9L27 27.1zM25 20a9 9 0 0 1-9 9 9 9 0 1 1 9-9" fill="#ffac33"/><path d="M28 16a8 8 0 0 1-2.4-.4 6.5 6.5 0 0 1-6.1 4.4 6.5 6.5 0 0 1-6.3-5 4.5 4.5 0 0 1-2.7 1A4.5 4.5 0 0 1 6 11.5c0-.6.1-1.2.3-1.7A5 5 0 0 1 5 10a5 5 0 0 1-5-5 5 5 0 0 1 5-5h23a8 8 0 1 1 0 16" fill="#e1e8ed"/></g></svg>