<svg xmlns="http://www.w3.org/2000/svg" viewBox="0 0 45 45"><defs><clipPath id="a"><path d="M0 36h36V0H0v36z"/></clipPath></defs><g clip-path="url(#a)" transform="matrix(1.25 0 0 -1.25 0 45)"><path d="M29.2 2.7c1.2-1.1 3-1.2 4.1-.1s1 3-.1 4.1L9.9 30c-1.1 1.1-3 1.2-4.1.1s-1-3 .1-4.1L29.2 2.7z" fill="#f4900c"/><path d="M3.4 28.3a2 2 0 0 0 0 2.9l1.4 1.4a2 2 0 0 0 2.9-2.8l-1.5-1.5a2 2 0 0 0-2.8 0" fill="#f4900c"/><path d="M23 35c-1.9.7-11 3-18-4S.3 14.9 1 13c2-5 1.7 1 2 3 1 6 3.8 9.2 5.8 11.2S14.1 32 20 33c2 .3 8 0 3 2" fill="#66757f"/></g></svg>