<svg xmlns="http://www.w3.org/2000/svg" viewBox="0 0 45 45"><defs><clipPath id="a"><path d="M0 36h36V0H0v36z"/></clipPath></defs><g clip-path="url(#a)" transform="matrix(1.25 0 0 -1.25 0 45)"><path d="M18 5C11.9 5 7 9.9 7 14H5C5 8.7 10.3 3 18 3s13 5.8 13 11h-2c0-4.1-4.9-9-11-9" fill="#d99e82"/><path d="M22 4a2 2 0 0 0-2-2h-4a2 2 0 0 0-2 2c0 1.1.9 2 2 2h4a2 2 0 0 0 2-2z" fill="#c1694f"/><path d="M7 14H5v5h2v-5zm22 5h2v-5h-2v5z" fill="#d99e82"/><path d="M2 19c0 2.8 6.6 5 16 5s16-2.2 16-5-6.6-6-16-6-16 3.2-16 6" fill="#ea596e"/><path d="M3 20c0 7 6.2 14 15 14s15-7 15-14c0-1-6.2-4-15-4S3 19 3 20" fill="#dd2e44"/><path d="M25 17a1 1 0 0 0-1 1c0 7.7-2 13.6-2 13.7a1 1 0 0 0 2 .6c0-.2 1.8-5.7 2-13.2 1.1.2 3.1.6 5.5 1.8a1 1 0 0 0 1-1.8C28.2 17.1 25 17 25 17m-14 0c-.1 0-3.3 0-7.5 2.1a1 1 0 0 0 1 1.8c2.4-1.2 4.4-1.6 5.5-1.8a49 49 0 0 0 2 13.2 1 1 0 0 0 2-.6A48.3 48.3 0 0 1 12 18a1 1 0 0 0-1-1" fill="#a0041e"/><path d="M21 24h-2v2a1 1 0 0 1-2 0v-2h-2a1 1 0 0 1 0-2h2v-2a1 1 0 0 1 2 0v2h2a1 1 0 1 1 0 2" fill="#fff"/></g></svg>