<svg xmlns="http://www.w3.org/2000/svg" viewBox="0 0 45 45"><defs><clipPath id="a"><path d="M0 36h36V0H0v36z"/></clipPath></defs><g clip-path="url(#a)" transform="matrix(1.25 0 0 -1.25 0 45)"><path d="M33 2V0h-3v2a3 3 0 0 1-3 3v3a6 6 0 0 0 6-6" fill="#c6d5db"/><path d="M27.6 6H27V5a3 3 0 0 0 3-3V0h1v2.5c0 2-1.5 3.5-3.5 3.5M21 2V0h3v2a3 3 0 0 0 3 3v3a6 6 0 0 1-6-6" fill="#e1e8ed"/><path d="M26.5 6h.5V5a3 3 0 0 1-2.9-3V0h-1v2.5c0 2 1.5 3.5 3.4 3.5M33 34v2h-3v-2a3 3 0 0 0-3-3v-3a6 6 0 0 1 6 6" fill="#c6d5db"/><path d="M27.6 30H27v1a3 3 0 0 1 3 3v2h1v-2.5c0-2-1.5-3.5-3.5-3.5M21 34v2h3v-2a3 3 0 0 1 3-3v-3a6 6 0 0 0-6 6" fill="#e1e8ed"/><path d="M26.5 30h.5v1a3 3 0 0 0-2.9 3v2h-1v-2.5c0-2 1.5-3.5 3.4-3.5m.5-4v-3a3 3 0 0 0 3-3v-4a3 3 0 0 0-3-3v-3a6 6 0 0 1 6 6v4a6 6 0 0 1-6 6" fill="#c6d5db"/><path d="M27.6 24H27v-1a3 3 0 0 0 3-3v-4a3 3 0 0 0-3-3v-1h.5a3.5 3.5 0 0 1 3.6 3.5v5c0 2-1.6 3.5-3.6 3.5M24 20a3 3 0 0 0 3 3v3a6 6 0 0 1-6-6v-4a6 6 0 0 1 6-6v3a3 3 0 0 0-3 3v4z" fill="#e1e8ed"/><path d="M26.5 24a3.5 3.5 0 0 1-3.5-3.5v-5c0-2 1.6-3.5 3.5-3.5h.5v1a3 3 0 0 0-2.9 3v4a3 3 0 0 0 3 3v1h-.6M9 17v-3a3 3 0 0 0 3-3V7a3 3 0 0 0-3-3V1a6 6 0 0 1 6 6v4a6 6 0 0 1-6 6" fill="#c6d5db"/><path d="M9.5 15H9v-1a3 3 0 0 0 3-3V7a3 3 0 0 0-3-3V3h.5a3.5 3.5 0 0 1 3.6 3.5v5c0 2-1.6 3.5-3.6 3.5M6 11a3 3 0 0 0 3 3v3a6 6 0 0 1-6-6V7a6 6 0 0 1 6-6v3a3 3 0 0 0-3 3v4z" fill="#e1e8ed"/><path d="M8.5 15A3.5 3.5 0 0 1 5 11.5v-5A3.5 3.5 0 0 1 8.5 3H9v1a3 3 0 0 0-2.9 3v4a3 3 0 0 0 3 3v1h-.6M9 35v-3a3 3 0 0 0 3-3v-4a3 3 0 0 0-3-3v-3a6 6 0 0 1 6 6v4a6 6 0 0 1-6 6" fill="#c6d5db"/><path d="M9.5 33H9v-1a3 3 0 0 0 3-3v-4a3 3 0 0 0-3-3v-1h.5a3.5 3.5 0 0 1 3.6 3.5v5c0 2-1.6 3.5-3.6 3.5M6 29a3 3 0 0 0 3 3v3a6 6 0 0 1-6-6v-4a6 6 0 0 1 6-6v3a3 3 0 0 0-3 3v4z" fill="#e1e8ed"/><path d="M8.5 33A3.5 3.5 0 0 1 5 29.5v-5A3.5 3.5 0 0 1 8.5 21H9v1a3 3 0 0 0-2.9 3v4a3 3 0 0 0 3 3v1h-.6M29 3a2 2 0 0 0-4 0v12a2 2 0 0 0 4 0V3z" fill="#c6d5db"/><path d="M25 15V3a2 2 0 0 1 2-2v16a2 2 0 0 1-2-2" fill="#edf1f4"/><path d="M29 21a2 2 0 0 0-4 0v12a2 2 0 0 0 4 0V21z" fill="#c6d5db"/><path d="M25 33V21a2 2 0 0 1 2-2v16a2 2 0 0 1-2-2" fill="#edf1f4"/><path d="M11 0H7v6a2 2 0 0 0 4 0V0z" fill="#c6d5db"/><path d="M9 8a2 2 0 0 1-2-2V0h2v8z" fill="#edf1f4"/><path d="M11 12a2 2 0 0 0-4 0v12a2 2 0 0 0 4 0V12z" fill="#c6d5db"/><path d="M7 24V12a2 2 0 0 1 2-2v16a2 2 0 0 1-2-2" fill="#edf1f4"/><path d="M11 36H7v-6a2 2 0 0 1 4 0v6z" fill="#c6d5db"/><path d="M9 28a2 2 0 0 0-2 2v6h2v-8z" fill="#edf1f4"/></g></svg>