<svg xmlns="http://www.w3.org/2000/svg" viewBox="0 0 45 45"><defs><clipPath id="a"><path d="M0 36h36V0H0v36z"/></clipPath></defs><g clip-path="url(#a)" transform="matrix(1.25 0 0 -1.25 0 45)"><path d="M33 2V0h-3.021v2c0 1.657-1.353 3-3.021 3v3C30.295 8 33 5.313 33 2" fill="#c6d5db"/><path d="M27.546 6c-.173 0-.338-.026-.504-.051v-.958C28.67 4.946 29.98 3.629 29.98 2V0h1.09v2.5c0 1.933-1.58 3.5-3.524 3.5" fill="#e1e8ed"/><path d="M21 2V0h3.021v2c0 1.657 1.353 3 3.021 3v3C23.705 8 21 5.313 21 2" fill="#e1e8ed"/><path d="M26.538 6c.173 0 .338-.026.504-.051v-.958C25.414 4.946 24.104 3.629 24.104 2V0h-1.09v2.5c0 1.933 1.58 3.5 3.524 3.5M33 34v2h-3.021v-2c0-1.657-1.354-3-3.021-3v-3C30.294 28 33 30.687 33 34" fill="#c6d5db"/><path d="M27.545 30c-.172 0-.337.026-.503.051v.957c1.628.046 2.937 1.363 2.937 2.992v2h1.09v-2.5c0-1.933-1.578-3.5-3.524-3.5M21 34v2h3.021v-2c0-1.657 1.353-3 3.021-3v-3C23.705 28 21 30.687 21 34" fill="#e1e8ed"/><path d="M26.538 30c.172 0 .338.026.504.051v.957c-1.629.046-2.938 1.363-2.938 2.992v2h-1.09v-2.5c0-1.933 1.578-3.5 3.524-3.5M26.958 26v-3c1.668 0 3.021-1.343 3.021-3v-4c0-1.657-1.353-3-3.021-3v-3C30.295 10 33 12.687 33 16v4c0 3.313-2.705 6-6.042 6" fill="#c6d5db"/><path d="M27.546 24c-.173 0-.338-.026-.504-.051v-.957c1.628-.046 2.938-1.363 2.938-2.992v-4c0-1.629-1.31-2.946-2.938-2.991v-.958c.166-.025.33-.051.504-.051 1.945 0 3.524 1.567 3.524 3.5v5c0 1.933-1.58 3.5-3.524 3.5" fill="#e1e8ed"/><path d="M24.021 20c0 1.657 1.353 3 3.021 3v3C23.706 26 21 23.313 21 20v-4c0-3.313 2.706-6 6.043-6v3c-1.668 0-3.021 1.343-3.021 3v4z" fill="#e1e8ed"/><path d="M26.538 24c-1.945 0-3.524-1.567-3.524-3.5v-5c0-1.933 1.58-3.5 3.524-3.5.173 0 .338.026.504.051v.958c-1.628.045-2.938 1.362-2.938 2.991v4c0 1.629 1.31 2.946 2.938 2.992v.957c-.166.025-.33.051-.504.051M8.958 17v-3c1.668 0 3.021-1.343 3.021-3V7c0-1.657-1.353-3-3.021-3V1C12.295 1 15 3.687 15 7v4c0 3.313-2.705 6-6.042 6" fill="#c6d5db"/><path d="M9.545 15c-.172 0-.337-.026-.503-.051v-.958c1.628-.045 2.937-1.362 2.937-2.991V7c0-1.629-1.309-2.946-2.937-2.991v-.958c.166-.025.331-.051.503-.051 1.946 0 3.524 1.567 3.524 3.5v5c0 1.933-1.578 3.5-3.524 3.5M6.021 11c0 1.657 1.353 3 3.021 3v3C5.705 17 3 14.313 3 11V7c0-3.313 2.705-6 6.042-6v3C7.374 4 6.021 5.343 6.021 7v4z" fill="#e1e8ed"/><path d="M8.539 15c-1.946 0-3.524-1.567-3.524-3.5v-5c0-1.933 1.578-3.5 3.524-3.5.172 0 .337.026.503.051v.958C7.414 4.054 6.105 5.371 6.105 7v4c0 1.629 1.309 2.946 2.937 2.991v.958c-.166.025-.331.051-.503.051M8.958 35v-3c1.668 0 3.021-1.343 3.021-3v-4c0-1.657-1.353-3-3.021-3v-3C12.295 19 15 21.687 15 25v4c0 3.313-2.705 6-6.042 6" fill="#c6d5db"/><path d="M9.545 33c-.172 0-.337-.026-.503-.051v-.957c1.628-.046 2.937-1.363 2.937-2.992v-4c0-1.629-1.309-2.946-2.937-2.992v-.957c.166-.025.331-.051.503-.051 1.946 0 3.524 1.567 3.524 3.5v5c0 1.933-1.578 3.5-3.524 3.5M6.021 29c0 1.657 1.353 3 3.021 3v3C5.705 35 3 32.313 3 29v-4c0-3.313 2.705-6 6.042-6v3c-1.668 0-3.021 1.343-3.021 3v4z" fill="#e1e8ed"/><path d="M8.539 33c-1.946 0-3.524-1.567-3.524-3.5v-5c0-1.933 1.578-3.5 3.524-3.5.172 0 .337.026.503.051v.957c-1.628.046-2.937 1.363-2.937 2.992v4c0 1.629 1.309 2.946 2.937 2.992v.957c-.166.025-.331.051-.503.051M29 3a2 2 0 0 0-4 0v12a2 2 0 0 0 4 0V3z" fill="#c6d5db"/><path d="M25 15V3a2 2 0 0 1 2-2v16a2 2 0 0 1-2-2" fill="#edf1f4"/><path d="M29 21a2 2 0 0 0-4 0v12a2 2 0 0 0 4 0V21z" fill="#c6d5db"/><path d="M25 33V21a2 2 0 0 1 2-2v16a2 2 0 0 1-2-2" fill="#edf1f4"/><path d="M11 0H7v6a2 2 0 0 0 4 0V0z" fill="#c6d5db"/><path d="M9 8a2 2 0 0 1-2-2V0h2v8z" fill="#edf1f4"/><path d="M11 12a2 2 0 0 0-4 0v12a2 2 0 0 0 4 0V12z" fill="#c6d5db"/><path d="M7 24V12a2 2 0 0 1 2-2v16a2 2 0 0 1-2-2" fill="#edf1f4"/><path d="M11 36H7v-6a2 2 0 0 1 4 0v6z" fill="#c6d5db"/><path d="M9 28a2 2 0 0 0-2 2v6h2v-8z" fill="#edf1f4"/></g></svg>