<svg xmlns="http://www.w3.org/2000/svg" viewBox="0 0 45 45"><defs><clipPath id="a"><path d="M0 36h36V0H0v36z"/></clipPath></defs><g clip-path="url(#a)" transform="matrix(1.25 0 0 -1.25 0 45)"><path d="M34 5H2a2 2 0 0 1-2-2V0h36v3a2 2 0 0 1-2 2" fill="#ffac33"/><path d="M17 3.5a1.5 1.5 0 0 0-3 .6l6 30.4a1.5 1.5 0 1 0 3-.6L17 3.5z" fill="#66757f"/><path d="M21.4 33.7c-9 2-17.4-2.2-19-9.2 0 0-.3-2 .6-2.2 1-.2 3.4 1.3 3.4 1.3l24.4-5.3s1.5-2.3 2.5-2.6c1-.2 1.4 1.8 1.4 1.8 1.5 7-4.4 14.3-13.3 16.2" fill="#dd2e44"/><path d="M21.4 33.7c-6.8 1.4-13.5-3-15-10 0 0-.4-2 1.5-2.5 2-.4 5.3 1 5.3 1L24 19.8s2.5-2.6 4.5-3c2-.4 2.3 1.5 2.3 1.5 1.6 7-2.7 14-9.4 15.4" fill="#e1e8ed"/><path d="M21.4 33.7c-3.5.8-6.6-4.5-8.2-11.6 0 0 2.5-2.5 4.5-3l1-.2c2-.4 5.3 1 5.3 1 1.5 7 .9 13-2.6 13.8" fill="#dd2e44"/></g></svg>