<svg xmlns="http://www.w3.org/2000/svg" viewBox="0 0 45 45"><defs><clipPath id="a"><path d="M0 36h36V0H0v36z"/></clipPath></defs><g clip-path="url(#a)" transform="matrix(1.25 0 0 -1.25 0 45)"><path d="M1 13.077V6.538C1 2.928 8.611 0 18 0s17 2.927 17 6.538v6.54H1z" fill="#99aab5"/><path d="M35 13.077c0-3.61-7.611-6.539-17-6.539S1 9.466 1 13.078c0 3.61 7.611 6.537 17 6.537s17-2.927 17-6.538" fill="#e1e8ed"/><path d="M18 15.692c6.7 0 12.313-1.668 13.913-3.923.297.418.472.856.472 1.308 0 2.888-6.441 5.23-14.385 5.23s-14.385-2.342-14.385-5.23c0-.452.175-.89.472-1.308C5.686 14.024 11.3 15.692 18 15.692" fill="#aab8c2"/><path d="M18 7.846c6.7 0 12.313 1.669 13.913 3.924-1.6 2.255-7.213 3.923-13.913 3.923S5.686 14.025 4.087 11.77C5.686 9.515 11.3 7.846 18 7.846" fill="#3b88c3"/><path d="M18 13.872c-4.497 0-9.625-1.285-9.625-2.103 0-.818 5.129-2.102 9.625-2.102s9.625 1.284 9.625 2.102c0 .818-5.129 2.103-9.625 2.103" fill="#50a5e6"/><path d="M15 13.385V12c0-.552 1.343-1 3-1s3 .448 3 1v1.385h-6z" fill="#e1e8ed"/><path d="M21 13.385c0-.553-1.343-1-3-1s-3 .447-3 1c0 .553 1.343 1 3 1s3-.447 3-1" fill="#aab8c2"/><path d="M9 20.214a1 1 0 0 0-1 1V22.5c0 3.032 2.467 5.5 5.5 5.5s5.5-2.468 5.5-5.5a1 1 0 1 0-2 0c0 1.93-1.57 3.5-3.5 3.5S10 24.43 10 22.5v-1.286a1 1 0 0 0-1-1" fill="#1c6399"/><path d="M26 18a1 1 0 0 0-1 1v1.143c0 1.654-1.346 3-3 3s-3-1.346-3-3a1 1 0 1 0-2 0c0 2.757 2.243 5 5 5s5-2.243 5-5V19a1 1 0 0 0-1-1" fill="#88c9f9"/><path d="M32 24.875a1 1 0 0 0-1 1c0 3.309-2.691 6-6 6s-6-2.691-6-6a1 1 0 1 0-2 0c0 4.411 3.589 8 8 8s8-3.589 8-8a1 1 0 0 0-1-1" fill="#1c6399"/><path d="M17 13.34h2V28c0 4.41-3.589 8-8 8s-8-3.59-8-8a1 1 0 0 1 2 0c0 3.309 2.691 6 6 6s6-2.691 6-6V13.34z" fill="#3b94d9"/><path d="M33 22a1 1 0 1 0-2 0 1 1 0 0 0 2 0" fill="#1c6399"/><path d="M27 15a1 1 0 1 0-2 0 1 1 0 1 0 2 0M34 34a1 1 0 1 0-2 0 1 1 0 0 0 2 0" fill="#bbddf5"/><path d="M15 16a1 1 0 1 0-2 0 1 1 0 0 0 2 0" fill="#f2f9ff"/><path d="M27 27a1 1 0 1 0-2 0 1 1 0 0 0 2 0" fill="#50a5e6"/><path d="M21 35a1 1 0 1 0-2 0 1 1 0 0 0 2 0M10 18a1 1 0 1 0-2 0 1 1 0 0 0 2 0" fill="#1c6399"/><path d="M5 23a1 1 0 1 0-2 0 1 1 0 0 0 2 0" fill="#3b94d9"/><path d="M12 31a1 1 0 1 0-2 0 1 1 0 0 0 2 0" fill="#88c9f9"/></g></svg>