<svg xmlns="http://www.w3.org/2000/svg" viewBox="0 0 45 45"><defs><clipPath id="a"><path d="M0 36h36V0H0v36z"/></clipPath></defs><g clip-path="url(#a)" transform="matrix(1.25 0 0 -1.25 0 45)"><path d="M1 13V6.6C1 3 8.6 0 18 0s17 3 17 6.5v6.6H1z" fill="#99aab5"/><path d="M35 13c0-3.5-7.6-6.5-17-6.5s-17 3-17 6.6c0 3.6 7.6 6.5 17 6.5s17-3 17-6.5" fill="#e1e8ed"/><path d="M18 15.7c6.7 0 12.3-1.7 14-4 .2.5.4 1 .4 1.4 0 2.9-6.5 5.2-14.4 5.2S3.6 16 3.6 13.1c0-.5.2-1 .5-1.3 1.6 2.2 7.2 3.9 13.9 3.9" fill="#aab8c2"/><path d="M18 7.8c6.7 0 12.3 1.7 14 4-1.7 2.2-7.3 3.9-14 3.9S5.7 14 4 11.7C5.8 9.6 11.4 8 18 8" fill="#3b88c3"/><path d="M18 13.9c-4.5 0-9.6-1.3-9.6-2.1 0-.9 5.1-2.1 9.6-2.1s9.6 1.3 9.6 2c0 .9-5.1 2.2-9.6 2.2" fill="#50a5e6"/><path d="M15 13.4V12c0-.6 1.3-1 3-1s3 .5 3 1v1.4h-6z" fill="#e1e8ed"/><path d="M21 13.4c0-.6-1.3-1-3-1s-3 .4-3 1c0 .5 1.3 1 3 1s3-.5 3-1" fill="#aab8c2"/><path d="M9 20.2a1 1 0 0 0-1 1v1.3a5.5 5.5 0 0 0 11 0 1 1 0 1 0-2 0 3.5 3.5 0 0 1-7 0v-1.3a1 1 0 0 0-1-1" fill="#1c6399"/><path d="M26 18a1 1 0 0 0-1 1v1.1a3 3 0 0 1-6 0 1 1 0 1 0-2 0 5 5 0 0 0 10 0V19a1 1 0 0 0-1-1" fill="#88c9f9"/><path d="M32 24.9a1 1 0 0 0-1 1 6 6 0 0 1-12 0 1 1 0 1 0-2 0 8 8 0 0 0 16 0 1 1 0 0 0-1-1" fill="#1c6399"/><path d="M17 13.3h2V28a8 8 0 0 1-16 0 1 1 0 0 1 2 0 6 6 0 0 0 12 0V13.3z" fill="#3b94d9"/><path d="M33 22a1 1 0 1 0-2 0 1 1 0 0 0 2 0" fill="#1c6399"/><path d="M27 15a1 1 0 1 0-2 0 1 1 0 1 0 2 0m7 19a1 1 0 1 0-2 0 1 1 0 0 0 2 0" fill="#bbddf5"/><path d="M15 16a1 1 0 1 0-2 0 1 1 0 0 0 2 0" fill="#f2f9ff"/><path d="M27 27a1 1 0 1 0-2 0 1 1 0 0 0 2 0" fill="#50a5e6"/><path d="M21 35a1 1 0 1 0-2 0 1 1 0 0 0 2 0M10 18a1 1 0 1 0-2 0 1 1 0 0 0 2 0" fill="#1c6399"/><path d="M5 23a1 1 0 1 0-2 0 1 1 0 0 0 2 0" fill="#3b94d9"/><path d="M12 31a1 1 0 1 0-2 0 1 1 0 0 0 2 0" fill="#88c9f9"/></g></svg>