<svg xmlns="http://www.w3.org/2000/svg" viewBox="0 0 45 45"><defs><clipPath id="a"><path d="M0 36h36V0H0v36z"/></clipPath></defs><g clip-path="url(#a)" transform="matrix(1.25 0 0 -1.25 0 45)"><path d="M20 24.5c0-.8-.2-1.5-.5-1.5s-.5.7-.5 1.5.2 1.5.5 1.5.5-.7.5-1.5m6 0c0-.8-.2-1.5-.5-1.5s-.5.7-.5 1.5.2 1.5.5 1.5.5-.7.5-1.5" fill="#ea596e"/><path d="M22 24.5c0-.8-.2-1.5-.5-1.5s-.5.7-.5 1.5.2 1.5.5 1.5.5-.7.5-1.5m-3 0c0-.8-.2-1.5-.5-1.5s-.5.7-.5 1.5.2 1.5.5 1.5.5-.7.5-1.5" fill="#a6d388"/><path d="M23 24.5c0-.8-.2-1.5-.5-1.5s-.5.7-.5 1.5.2 1.5.5 1.5.5-.7.5-1.5m4 0c0-.8-.2-1.5-.5-1.5s-.5.7-.5 1.5.2 1.5.5 1.5.5-.7.5-1.5m4-5c0-.8-.2-1.5-.5-1.5s-.5.7-.5 1.5.2 1.5.5 1.5.5-.7.5-1.5m-27 0c0-.8-.2-1.5-.5-1.5s-.5.7-.5 1.5.2 1.5.5 1.5.5-.7.5-1.5" fill="#55acee"/><path d="M33 19.5c0-.8-.2-1.5-.5-1.5s-.5.7-.5 1.5.2 1.5.5 1.5.5-.7.5-1.5m-26 0c0-.8-.2-1.5-.5-1.5s-.5.7-.5 1.5.2 1.5.5 1.5.5-.7.5-1.5" fill="#a6d388"/><path d="M34 19.5c0-.8-.2-1.5-.5-1.5s-.5.7-.5 1.5.2 1.5.5 1.5.5-.7.5-1.5m-28 0c0-.8-.2-1.5-.5-1.5s-.5.7-.5 1.5.2 1.5.5 1.5.5-.7.5-1.5m18 4c0-.8-.2-1.5-.5-1.5s-.5.7-.5 1.5.2 1.5.5 1.5.5-.7.5-1.5" fill="#f4900c"/><path d="M29 19.5v2a.5.5 0 0 0 .5.5h1.9l-.4 2H7l-.4-2h.9a.5.5 0 0 0 .5-.5v-2a.5.5 0 0 0-.5-.5h21c-.3 0 .5.2.5.5" fill="#ccd6dd"/><path d="M14 19.5a.5.5 0 0 0-.5-.5h-4a.5.5 0 0 0-.5.5v2a.5.5 0 0 0 .5.5h4a.5.5 0 0 0 .5-.5v-2zm7 0a.5.5 0 0 0-.5-.5h-4a.5.5 0 0 0-.5.5v2a.5.5 0 0 0 .5.5h4a.5.5 0 0 0 .5-.5v-2zm7 0a.5.5 0 0 0-.5-.5h-4a.5.5 0 0 0-.5.5v2a.5.5 0 0 0 .5.5h4a.5.5 0 0 0 .5-.5v-2z" fill="#66757f"/><path d="M33.4 11.3S35 16 35 20H1c1-2 2.8-5.6 4.2-6.9 5-4.6 28.2-1.8 28.2-1.8" fill="#ccd6dd"/><path d="M3.8 15l1.4-1.9c5-4.6 28.2-1.8 28.2-1.8l1 3.7H3.8z" fill="#dd2e44"/><path d="M8 16.5a.5.5 0 0 0-.5-.5h-1a.5.5 0 0 0-.5.5v1a.5.5 0 0 0 .5.5h1a.5.5 0 0 0 .5-.5v-1zm4 0a.5.5 0 0 0-.5-.5h-1a.5.5 0 0 0-.5.5v1a.5.5 0 0 0 .5.5h1a.5.5 0 0 0 .5-.5v-1zm4 0a.5.5 0 0 0-.5-.5h-1a.5.5 0 0 0-.5.5v1a.5.5 0 0 0 .5.5h1a.5.5 0 0 0 .5-.5v-1zm4 0a.5.5 0 0 0-.5-.5h-1a.5.5 0 0 0-.5.5v1a.5.5 0 0 0 .5.5h1a.5.5 0 0 0 .5-.5v-1zm4 0a.5.5 0 0 0-.5-.5h-1a.5.5 0 0 0-.5.5v1a.5.5 0 0 0 .5.5h1a.5.5 0 0 0 .5-.5v-1zm4 0a.5.5 0 0 0-.5-.5h-1a.5.5 0 0 0-.5.5v1a.5.5 0 0 0 .5.5h1a.5.5 0 0 0 .5-.5v-1zm4 0a.5.5 0 0 0-.5-.5h-1a.5.5 0 0 0-.5.5v1a.5.5 0 0 0 .5.5h1a.5.5 0 0 0 .5-.5v-1z" fill="#66757f"/><path d="M15 23l-8.4-1 .9 6.2H15V23z" fill="#ccd6dd"/><path d="M14 28.5a.5.5 0 0 0-1 0v4a.5.5 0 0 0 1 0v-4zm-2-2a.5.5 0 0 0-1 0v4a.5.5 0 0 0 1 0v-4z" fill="#ccd6dd"/><path d="M15.5 28.3c0-.2-.2-.3-.5-.3H7.5c-.3 0-.5.1-.5.3v.4c0 .2.2.3.5.3H15c.3 0 .5-.1.5-.3v-.4z" fill="#269"/><path d="M13.5 27H7.3L7 25h6.5a.5.5 0 0 1 .5.5v1a.5.5 0 0 1-.5.5" fill="#66757f"/><path d="M12 24h-1v4h1v-4z" fill="#ccd6dd"/><path d="M36 12H0V0h36v12z" fill="#55acee"/></g></svg>