<svg xmlns="http://www.w3.org/2000/svg" viewBox="0 0 45 45"><defs><clipPath id="a"><path d="M0 36h36V0H0v36z"/></clipPath></defs><g clip-path="url(#a)" transform="matrix(1.25 0 0 -1.25 0 45)"><path d="M36 23V4s0-4-4-4H4C0 0 0 4 0 4v5s17 10 36 14" fill="#e1e8ed"/><path d="M14.8 11.5c.1-.1 0-.4-.1-.6a.5.5 0 0 0-.7 0l-6.6 7c-.2.2-.2.5 0 .7.2.2.5.2.7 0l6.7-7z" fill="#8899a6"/><path d="M26.8 18.2c.4-.5.1-1.3-.8-1.8L6.6 6.2c-1.8-.9-5 0-5.3.8-.4.8 1.2 1.1 2 1.6l20.4 10.6c.8.5 1.9.4 2.3 0l.8-1zm5-4.5c.5-.6.1-1.3-.8-1.8L11.6 1.7c-1.8-.9-5 0-5.3.8-.4.8 1.2 1 2 1.5l20.4 10.7c.9.5 2 .4 2.3-.1l.8-1z" fill="#aa8ed6"/><path d="M13.5 10.2c.3 0 .5.2.8.3l2.1 1.2c1.1.6.7 2 .6 2.4l-.6 2.8 2.6 3.3c.6.8.5 3.3-.3 4a1.8 1.8 0 0 1-2.6-.4l-3-4a1.8 1.8 0 0 1-.4-1.3l.6-4.3-1.1-.6a1.8 1.8 0 0 1 1.3-3.4" fill="#67757f"/><path d="M19.6 6.2l2.7 1.6c1 .7.4 2.4.2 2.8l-1.4 4 1.8 3.7a1.8 1.8 0 1 1-3.3 1.6l-2.2-4.4a1.9 1.9 0 0 1 0-1.5l1.4-4-1-.7a1.8 1.8 0 0 1 0-2.6 1.7 1.7 0 0 1 1.8-.5" fill="#67757f"/><path d="M9.6 16.6c3.7 1.3 5.4 6.5 5.6 7a2 2 0 0 1-3.8 1.3c-.5-1.6-1.8-4-3-4.5a2 2 0 0 1 1.2-3.8" fill="#bbddf5"/><path d="M34.8 14.7a.5.5 0 0 0 .2-.7.5.5 0 0 0-.7-.1l-9 6.2a.5.5 0 1 0 .5.8l9-6.2z" fill="#8899a6"/><path d="M27 18.5a2 2 0 0 1 1.3 1.9c0 3.4-1.6 6-4.4 7.3a9.8 9.8 0 0 1-4 .9 2 2 0 1 1 0-4c1 0 4.4-.3 4.4-4.3a2 2 0 0 1 2.7-1.8" fill="#bbddf5"/><path d="M15.1 19a3.5 3.5 0 0 1 6.6 2.4l-1.3 3.8a3.5 3.5 0 1 1-6.6-2.4l1.3-3.7z" fill="#67757f"/><path d="M11.4 23.6a2 2 0 0 1 2.6-1.2l6.6 2.3a2 2 0 1 1-1.4 3.8L12.6 26a2 2 0 0 1-1.2-2.5" fill="#bbddf5"/><path d="M17 18c-2.6.4-3.2 1.5-3.2 1.7L12.6 23c-.8 2.3 1.7 3.2 3.4 3.8 1.7.6 3.6 0 5.1-.9 2.8-1.8 2.3-6.3 2.3-6.3l-.1-1S21 17.4 17 18" fill="#bbddf5"/><path d="M30 32l-1.1 2.7a.5.5 0 0 1-.5.3c-.1 0-3.2-.2-7.2-3.1-3.7-2.8-4.6-2.8-6.6-3h-3a.5.5 0 0 1-.3-.2 1.5 1.5 0 0 1-.3-1.8c.4-.8 1.6-1.6 3.8-1.5 1.4 0 3.5 1.2 5.8 2.5 3 1.6 6.3 3.4 9 3.6a.5.5 0 0 1 .3.1.4.4 0 0 1 .1.5" fill="#1c6399"/><path d="M16.4 31.7a4 4 0 0 0-7.5-2.6c-.8 2 .7 3.4 2.7 4.1s4 .6 4.8-1.5" fill="#ffdc5d"/><path d="M10.4 29.6c1.8.6 3.4 2.2 3.7 1.3.4-1 1-2.8 3-2.2 1.8.7.4 7.6-5.2 5.6s-4.4-5.7-1.5-4.7" fill="#9aaab4"/><path d="M11.5 29.4a1.5 1.5 0 1 0-2.9-1 1.5 1.5 0 0 0 2.9 1" fill="#bdddf4"/><path d="M9.7 29.9a1 1 0 0 1 .7-1.9 1 1 0 0 1-.7 1.9m1-2.8a2 2 0 1 0 1.3 2.5 2 2 0 0 0-1.3-2.5" fill="#67757f"/><path d="M14.3 30.4a1.5 1.5 0 1 0-2.8-1 1.5 1.5 0 0 0 2.8 1" fill="#bdddf4"/><path d="M12.6 30.9a1 1 0 0 1 .6-1.9 1 1 0 0 1-.6 1.9m1-2.8a2 2 0 0 0-1.4 3.7 2 2 0 0 0 1.4-3.8" fill="#67757f"/></g></svg>