<svg xmlns="http://www.w3.org/2000/svg" viewBox="0 0 45 45"><defs><clipPath id="a"><path d="M0 36h36V0H0v36z"/></clipPath></defs><g clip-path="url(#a)" transform="matrix(1.25 0 0 -1.25 0 45)"><path d="M26 3c2-2-11-2-9 0 3 0 3 3 3 3h3s0-3 3-3M12 3c2-2-11-2-9 0 3 0 3 3 3 3h3s0-3 3-3" fill="#99aab5"/><path d="M30 0H2C.9 0-.1 3 1 3h28c3 0 3 3 4 4 5-3 2-7-3-7" fill="#99aab5"/><path d="M1 8c0 9 2 14 2 21 0 2.3 13 2 13 0s-1.5-10 5-13c6.3-2.9 15-2 15-8H1z" fill="#e6e7e8"/><path d="M36 8C12 8 17 9 11 9H1V8a2 2 0 0 1 2-2h8c2.3 0 .4 2 3 1 5-2 20-1 20-1a2 2 0 0 1 2 2" fill="#e6e7e8"/><path d="M16.3 15.3a1 1 0 0 0-.7 1.6l1.7 1.8a1 1 0 0 0 1.4-1.4L17 15.6a1 1 0 0 0-.7-.4M20 13a1 1 0 0 0-.9 1.4l1 2a1 1 0 1 0 1.8-.8l-1-2a1 1 0 0 0-.9-.6m4-1a1 1 0 0 0-1 1.1l.2 1.5a1 1 0 0 0 2-.3L25 13a1 1 0 0 0-1-.9" fill="#dd2e44"/></g></svg>