<svg xmlns="http://www.w3.org/2000/svg" viewBox="0 0 45 45"><defs><clipPath id="a"><path d="M0 36h36V0H0v36z"/></clipPath></defs><g clip-path="url(#a)" transform="matrix(1.25 0 0 -1.25 0 45)"><path d="M30.9 8.4h-.3L23.1 10a1 1 0 0 0-.8.8l-1.2 5a1.1 1.1 0 0 0 .8 1.3 1 1 0 0 0 1.3-.8l1-4.4 6.9-1.5a1 1 0 0 0 .7-.5 1 1 0 0 0-1-1.6M11.4 31.5c-1.1-.5.5-2.1.5-3.5 0-.9 1.7-.6 1.7-.6s1.1.6 1.4-1.4c.3-2 3.1-2 2.9 0-.3 2-2.1 2.7-1.6 4.4 1.2 4.2-4.9 1.1-4.9 1.1" fill="#ffdc5d"/><path d="M27.5 20.7a1 1 0 0 0-1 .3c-2.7 3.2-8.8 3.8-8.9 3.8a1 1 0 0 0 .2 2c.3 0 7-.6 10.3-4.4a1 1 0 0 0-.6-1.7m-10-20a1 1 0 0 0-1.2 1l-.4 8.6a1 1 0 0 0 .2.7l5.2 7.3a1 1 0 0 0 2-.5 1 1 0 0 0-.2-.8l-5-7 .4-8.2a1 1 0 0 0-1-1.1z" fill="#ffdc5d"/><path d="M15.3 11.6l5.2 7.3a2 2 0 1 0 3.4-2.5l-4.8-6.7s-4 1.5-3.8 1.9" fill="#2a6797"/><path d="M21.4 10.6L20 15.7a2 2 0 1 0 4 1l1-3.8s-3.6-3-3.8-2.3" fill="#357baa"/><path d="M18.3 0c.4 0 .6.4.6.8v.8c-.1.3-.4 1-.8 1-2.6 0-5.5-1-6.2-1.5-.4-.4-.1-1.1.4-1.1h6m7 17.2c-.3-.3-1.6.5-3-.3-2.2-1.1-3.4-.4-3.4-.4-3.5 5.6-6.3 8.1-2.8 11 1 1 2.4.5 3.6-.8 3-3 5.7-9.1 5.5-9.5" fill="#4289c1"/><path d="M11.5 31c-1.3-.6-1.4 1-.8 1.7.9 1.2 3.4 1.7 4.7 1a2.5 2.5 0 0 0 .8-3.5c-.6-.8-.6-2-1-.3-.5 1.8-1.1-.2-1.4.7-.2.9-2.3.3-2.3.3" fill="#b39155"/><path d="M15.2 24.7s-3.4-4.5-8.2-5a1 1 0 0 1-1-1 1 1 0 0 1 1-1.1h.2c5.7.6 9.5 5.6 9.6 5.9l-1.7 1.2z" fill="#ffdc5d"/><path d="M11 11.7a4 4 0 1 0-8 0 4 4 0 0 0 8 0" fill="#ffac33"/><path d="M8 11.9c1-.8 1.8-1.4 2.7-1.8l.2 1a9.2 9.2 0 0 0-2.1 1.5l1.4 1.4a4 4 0 0 1-.7.7l-1.4-1.4a9 9 0 0 0-1.6 2.3 4 4 0 0 1-1-.2v-.1a10 10 0 0 1 1.9-2.7l-1.5-1.4A10 10 0 0 1 3.2 13a4 4 0 0 1-.2-1 9.2 9.2 0 0 0 2.2-1.6L4 9.1l.8-.6L6 9.7a9.5 9.5 0 0 0 1.5-2 4 4 0 0 1 1 .2c-.4.9-1 1.8-1.8 2.5L8.1 12z" fill="#c1694f"/><path d="M17.3 30.5c-.3-2.3-2.3-3.3-4.3-4-1.9-.8-3.5 2.5-3.7 4.8-.3 2.4 2.4 4.1 4.6 4 2.1-.3 3.6-2.4 3.4-4.8" fill="#ffdc5d"/><path d="M10 34.4c2.7 2 4.6 1.8 6.3.6 1.7-1.1 2-3.5 1.6-5-.3-1.6-.8-1.6-.8-1.6s-2-.6-2.4 1.3c0 .7.6 1-.2 1.9-.5.5-1.6.2-1.5-.7 0-.8-.4-.7-.4-.7l-1.4 2.1s-1.1 0-1.7-1c-.3-.7-1.9 1.3.5 3" fill="#ffac33"/><path d="M18.4 1.3h-2l-.6.3.2 1.1c0 .2 0 .5.4.5l1-.2c.4 0 .6.5.9.5.2 0 .3 0 .3-.3l.2-1.6c0-.2-.3-.3-.5-.3M33 10.2c0 .4-.3.6-.7.7h-.9c-.3 0-1-.2-1-.5-.4-2.6 0-5.6.6-6.4.3-.5 1-.3 1 .2l1 6" fill="#4289c1"/><path d="M31.6 10.4l-.3-2-.4-.5-1 .3c-.3 0-.6.2-.5.5 0 .3.3.6.4 1 0 .3-.5.7-.4 1 0 .2.1.3.4.3h1.5c.2-.1.3-.4.3-.6" fill="#4289c1"/></g></svg>