<svg xmlns="http://www.w3.org/2000/svg" viewBox="0 0 45 45"><defs><clipPath id="a"><path d="M0 36h36V0H0v36z"/></clipPath></defs><g clip-path="url(#a)" transform="matrix(1.25 0 0 -1.25 0 45)"><path d="M30.852 8.366c-.08 0-.163.01-.243.028l-7.476 1.668a1.08 1.08 0 0 0-.808.805l-1.216 5.066c-.07.283-.024.573.128.82s.39.421.673.487a1.08 1.08 0 0 0 1.307-.801l1.06-4.415 6.82-1.516a1.08 1.08 0 0 0 .676-.484 1.084 1.084 0 0 0-.921-1.658M11.318 31.526c-1.158-.564.52-2.167.44-3.483-.052-.91 1.721-.595 1.721-.595s1.16.564 1.425-1.455c.262-2.017 3.141-2.05 2.877-.03-.266 2.016-2.13 2.69-1.612 4.435 1.24 4.176-4.85 1.128-4.85 1.128" fill="#ffdc5d"/><path d="M27.516 20.686a1.045 1.045 0 0 0-1.043.342c-2.682 3.19-8.798 3.763-8.86 3.769a1.043 1.043 0 0 0 .18 2.076c.287-.024 7.035-.649 10.277-4.503a1.043 1.043 0 0 0-.554-1.684M17.47.7a1.086 1.086 0 0 0-1.135 1.03l-.448 8.575a1.09 1.09 0 0 0 .203.684l5.246 7.272a1.086 1.086 0 0 0 1.95-.462 1.074 1.074 0 0 0-.191-.806l-5.024-6.966.43-8.195a1.089 1.089 0 0 0-.98-1.13L17.47.7z" fill="#ffdc5d"/><path d="M15.28 11.575l5.246 7.271a2.083 2.083 0 1 0 3.379-2.439l-4.82-6.68s-4.081 1.466-3.805 1.848" fill="#2a6797"/><path d="M21.352 10.634L20.136 15.7a2.084 2.084 0 1 0 4.054.973l.915-3.814s-3.568-2.994-3.753-2.225" fill="#357baa"/><path d="M18.334.013c.383 0 .59.365.572.757-.03.626-.072.88-.072.88-.062.3-.324.913-.687.913-2.643 0-5.54-.88-6.231-1.5-.41-.367-.147-1.062.396-1.061l6.022.01M25.208 17.219c-.208-.364-1.473.525-2.989-.281-2.157-1.146-3.339-.467-3.339-.467-3.486 5.595-6.243 8.149-2.809 11.024 1.097.918 2.454.522 3.663-.76 2.911-3.09 5.683-9.151 5.474-9.516" fill="#4289c1"/><path d="M11.456 30.955c-1.292-.498-1.38.954-.764 1.772.867 1.155 3.366 1.697 4.664 1.06 1.298-.636 1.728-2.431.86-3.587-.613-.817-.652-2.054-1.082-.26-.43 1.794-1.083-.26-1.3.636-.214.898-2.378.379-2.378.379" fill="#b39155"/><path d="M15.148 24.68c-.033-.046-3.381-4.532-8.152-5.032l.002-.02a1.027 1.027 0 0 1-.932-.92 1.04 1.04 0 0 1 .94-1.133c.072-.006.136.013.205.022l.002-.021c5.678.594 9.456 5.655 9.614 5.87l-1.68 1.234z" fill="#ffdc5d"/><path d="M11 11.68a4 4 0 1 0-8 0 4 4 0 0 0 8 0" fill="#ffac33"/><path d="M8.075 11.873c.85-.785 1.747-1.413 2.586-1.793.135.308.223.637.277.979-.697.336-1.44.862-2.156 1.521l1.447 1.448c-.197.272-.43.51-.69.724l-1.464-1.465c-.718.779-1.287 1.595-1.616 2.343a3.972 3.972 0 0 1-.976-.247c.014-.035.02-.066.034-.101.373-.871 1.03-1.814 1.851-2.702l-1.442-1.442c-.884.818-1.823 1.471-2.69 1.845a3.961 3.961 0 0 1-.206-1.014c.706-.336 1.462-.868 2.19-1.537L3.933 9.145c.214-.257.453-.492.724-.689l1.268 1.268c.657-.714 1.136-1.401 1.448-2.001a3.96 3.96 0 0 1 1.002.219c-.395.834-1.014 1.712-1.737 2.495l1.436 1.436z" fill="#c1694f"/><path d="M17.254 30.54c-.262-2.34-2.25-3.356-4.247-4.133-1.904-.741-3.484 2.589-3.74 4.915-.258 2.343 2.48 4.129 4.608 3.89 2.128-.239 3.641-2.33 3.38-4.672" fill="#ffdc5d"/><path d="M9.962 34.35c2.704 1.98 4.634 1.833 6.32.68 1.675-1.147 1.93-3.535 1.603-5.092-.326-1.556-.776-1.506-.776-1.506s-2.07-.636-2.373 1.306c-.096.615.567 1-.248 1.85-.525.546-1.574.176-1.516-.666.057-.84-.384-.716-.384-.716l-1.43 2.133s-1.095-.018-1.627-1.064c-.334-.656-1.93 1.344.431 3.074" fill="#ffac33"/><path d="M18.353 1.3h-1.977c-.185 0-.595.158-.595.35l.188 1.085c0 .192.096.5.376.5s.64-.235.999-.235.688.522.96.522c.212 0 .305-.084.337-.35l.192-1.521c0-.193-.295-.35-.48-.35M32.847 10.176c.056.379-.275.639-.665.677-.624.062-.882.058-.882.058-.305-.016-.95-.185-1.003-.546-.388-2.613.055-5.606.569-6.382.302-.458 1.027-.301 1.106.236l.875 5.957" fill="#4289c1"/><path d="M31.575 10.385l-.29-1.955c-.028-.183-.244-.566-.435-.537l-1.044.345c-.19.028-.48.168-.439.445.041.277.326.599.38.954.052.355-.416.758-.376 1.026.031.209.128.289.395.282l1.534-.034c.19-.028.302-.343.275-.526" fill="#4289c1"/></g></svg>