<svg xmlns="http://www.w3.org/2000/svg" viewBox="0 0 45 45"><defs><clipPath id="a"><path d="M0 36h36V0H0v36z"/></clipPath></defs><g clip-path="url(#a)" transform="matrix(1.25 0 0 -1.25 0 45)"><path d="M0 32V13h36v19a4 4 0 0 1-4 4H4a4 4 0 0 1-4-4" fill="#00557f"/><path d="M0 4a4 4 0 0 1 4-4h28a4 4 0 0 1 4 4v10H0V4z" fill="#3e721d"/><path d="M6.5 29A2.5 2.5 0 0 0 4 31.5a2.5 2.5 0 0 0 1.8 2.4 3 3 0 0 1-.8.1 3 3 0 1 1 0-6c1 0 1.8.5 2.4 1.2a2.5 2.5 0 0 0-.9-.2m4.5 4.5a.5.5 0 1 0-1 0 .5.5 0 0 0 1 0m16-9a.5.5 0 1 0-1 0 .5.5 0 0 0 1 0m-19 0a.5.5 0 1 0-1 0 .5.5 0 0 0 1 0M23 31a1 1 0 1 0-2 0 1 1 0 0 0 2 0M5 19a1 1 0 1 0-2 0 1 1 0 0 0 2 0m8 10a1 1 0 1 0-2 0 1 1 0 0 0 2 0m20-10a1 1 0 1 0-2 0 1 1 0 0 0 2 0m-11 4a1 1 0 1 0-2 0 1 1 0 0 0 2 0m5 7.5a.5.5 0 1 0-1 0 .5.5 0 0 0 1 0m-10-5a.5.5 0 1 0-1 0 .5.5 0 0 0 1 0m-4-3a.5.5 0 1 0-1 0 .5.5 0 0 0 1 0M32 33a1 1 0 1 0-2 0 1 1 0 0 0 2 0m0-4.5a.5.5 0 1 0-1 0 .5.5 0 0 0 1 0" fill="#fff"/><path d="M17 4a1 1 0 0 0-1 .7l-5 14a1 1 0 0 0 1 1.3h12a1 1 0 0 0 1-.6l6-14A1 1 0 0 0 30 4H17z" fill="#ffac33"/><path d="M6 4a1 1 0 0 0-1 1.4l6 14a1 1 0 0 0 2 0l6-14A1 1 0 0 0 18 4H6z" fill="#ffcc4d"/><path d="M12 19L10 4h4l-2 15z" fill="#292f33"/></g></svg>