<svg xmlns="http://www.w3.org/2000/svg" viewBox="0 0 45 45"><defs><clipPath id="a"><path d="M0 36h36V0H0v36z"/></clipPath></defs><g clip-path="url(#a)" transform="matrix(1.25 0 0 -1.25 0 45)"><path d="M29.9 13a27.6 27.6 0 0 0-1.1-1.4C27.8 10.3 27 9.4 27 8c0-2.5 1.6-3 3-3 .8 0 1.4.3 1.8.8a5 5 0 0 1 .3 3.9 11 11 0 0 1-2.2 3.4M30 3c-2.4 0-5 1.3-5 5 0 2 1.1 3.5 2.2 4.8l1.2 1.7C27 15.9 25.2 17 24 17v2c1.6 0 3.6-1.1 5.4-2.7.4 1 .6 2.2.6 3.7h2c0-2.2-.5-3.8-1-5.2 1.4-1.5 2.5-3.2 3-4.5.6-2 .4-4.2-.6-5.6A4 4 0 0 0 30 3" fill="#99aab5"/><path d="M21.3 26H9a3.7 3.7 0 0 1-3.7-4L6.4 4c.2-2.2 1.8-4 3.7-4h10c2 0 3.6 1.8 3.7 4L25 22a3.7 3.7 0 0 1-3.7 4" fill="#ffac33"/><path d="M26 3H4a1 1 0 0 1-1-1V0h24v2a1 1 0 0 1-1 1" fill="#aab8c2"/><path d="M31 26a1 1 0 0 0-1 1v3.2l2.1 4.2a1 1 0 0 0 1.8-.8L32 29.8V27a1 1 0 0 0-1-1" fill="#ffac33"/><path d="M33.5 20h-.8c.2.3.3.6.3 1v4a2 2 0 0 1-1 1.7v.3a1 1 0 1 1-2 0v-.3a2 2 0 0 1-1-1.7v-4c0-.4.1-.7.3-1h-.8a.5.5 0 0 1 0-1h5a.5.5 0 0 1 0 1" fill="#be1931"/><path d="M25 22a1 1 0 0 1 1-1h5a1 1 0 1 1 0 2h-5a1 1 0 0 1-1-1" fill="#99aab5"/><path d="M27 22a4 4 0 0 0-4-4H7a4 4 0 0 0-4 4v10a4 4 0 0 0 4 4h16a4 4 0 0 0 4-4V22z" fill="#e1e8ed"/><path d="M25 22a2 2 0 0 0-2-2H7a2 2 0 0 0-2 2v10a2 2 0 0 0 2 2h16a2 2 0 0 0 2-2V22z" fill="#66757f"/><path d="M22 28h-9v3h9v-3z" fill="#aab8c2"/></g></svg>