<svg xmlns="http://www.w3.org/2000/svg" viewBox="0 0 45 45"><defs><clipPath id="a"><path d="M0 36h36V0H0v36z"/></clipPath></defs><g clip-path="url(#a)" transform="matrix(1.25 0 0 -1.25 0 45)"><path d="M4.9 27.8c-1 2.2-.3 4.5 1.5 5.4 1.9.8 4.1-.3 5-2.4s.3-4.5-1.5-5.3c-1.8-.9-4 .2-5 2.3m12-2.5l-3.1 6.3-.1.2-.2.4v.1c-1.7 3-5.2 4.4-8 3-3-1.3-4.3-5.1-2.8-8.5 1.5-3.3 5.2-5 8.2-3.6l.3.2c2-.4 2-1.9 2-1.9s4.6 1.6 3.6 3.8" fill="#dd2e44"/><path d="M27 1.1c1.1.7 2.2 2.5 1.5 3.7L16.7 25.4a8.5 8.5 0 0 1-3.5-3.9L27 1.1z" fill="#99aab5"/><path d="M31.1 27.8c-1-2.1-3.2-3.2-5-2.4-1.8.9-2.5 3.3-1.6 5.4 1 2.1 3.2 3.2 5 2.4 1.9-.9 2.6-3.2 1.6-5.4m-.6 7.6c-2.8 1.3-6.3-.1-8-3v-.2l-.2-.4v-.2c-1.1-2.2-2.2-4.2-3.1-6.3-1-2.3 3.6-3.8 3.6-3.8s0 1.5 2 2l.3-.3c3-1.3 6.7.3 8.2 3.6 1.5 3.4.3 7.2-2.8 8.6" fill="#dd2e44"/><path d="M9 1.1c-1 .7-2.2 2.5-1.5 3.7l11.8 20.6a8.5 8.5 0 0 0 3.5-3.9L9 1.1z" fill="#ccd6dd"/><path d="M19.6 18.6a1.6 1.6 0 0 0-3.2 0 1.6 1.6 0 0 0 3.2 0" fill="#99aab5"/></g></svg>