<svg xmlns="http://www.w3.org/2000/svg" viewBox="0 0 45 45"><defs><clipPath id="a"><path d="M0 36h36V0H0v36z"/></clipPath></defs><g clip-path="url(#a)" transform="matrix(1.25 0 0 -1.25 0 45)"><path d="M18 26h11c1 0 2.3 0 3.2-1a4.5 4.5 0 0 1-3.7 2H28l-.2.2H22v4c0 .8.5 1.5.7 2A3.5 3.5 0 0 1 21 30v-3h-3a3.7 3.7 0 0 1-3-1.2V32c0 .7.5 1.4.7 2a4.1 4.1 0 0 1-1.7-3.5V30l-.2-1v-8c0-.8-.4-1.5-1-2a2.5 2.5 0 0 0-1.8-.7 2.9 2.9 0 0 0-2.9 3v9c0 .8.5 1.4.8 1.8a3.5 3.5 0 0 1-1.9-3V21c0-2-2-3-3-3-1.6.1-3 1.3-3 3v-2.6l.2-.3c.9-1 2.1-1 3-1 1.6 0 2.7.8 3.3 2 .7-1.2 2-2 3.4-2s3.7.7 4.1 3.3a4 4 0 0 1 3-1.3h2.8c-.5-.3-.7-.6-1.1-1-1.8-1.5-2.6-4-2.6-7.6 0-.3.3-.6.6-.6.2 0 .5.3.5.6 0 4 1 6.3 3.2 7.6 1.2.6 2.7 1 4.6 1h.5c.3 0 .6.3.6.6s-.3.5-.5.5H18a2.9 2.9 0 0 0-3 3c0 1.6 1.3 2.8 3 2.8" fill="#ef9645"/><path d="M4.1 17c1.5 0 2.8.9 3.4 2.1a4 4 0 0 1 3.5-2 3.9 3.9 0 0 1 3 1.2v.1l.5.7v.3l.3.6.2.5a4 4 0 0 1 .4-.5l.2-.1.4-.3a4 4 0 0 1 2-.5h3.2a6.4 6.4 0 0 1-1.5-1c-1.7-1.6-2.5-4.1-2.5-7.7a.5.5 0 1 1 1 0c0 4 1 6.4 3.2 7.7 1.2.6 2.7 1 4.6 1h.5a.5.5 0 0 1 0 1H18a3 3 0 1 0 0 6h11c1 0 2.3-.1 3.2-1 .3-.3.6-.7.8-1.3l1.7-5.5c.1-.5.7-2.8.6-3.3 0-7.4-8.7-15-19-15C6.3 0 1 8.1 1 18v.3c1-1 1.8-1.3 3-1.3z" fill="#ffdc5d"/><path d="M3.9 30H4a2.9 2.9 0 0 0 3-2.7V21a2.9 2.9 0 0 0-2.9-2.8H4a2.9 2.9 0 0 0-3 2.7v6.3A2.9 2.9 0 0 0 3.9 30M14 26.8V21a3 3 0 0 0-1-2.2 3 3 0 0 0-2-.8 3 3 0 0 0-3 3v9c0 .9.3 1.6.9 2.2a3 3 0 0 0 2.1.8 3 3 0 0 0 3-3v-3.2zm4 .3a4 4 0 0 1-3-1.4V32c0 .7.3 1.4.8 2a3 3 0 0 0 2.2 1 3 3 0 0 0 3-3v-5h-3zm4 4c0 .8.3 1.5.8 2a3 3 0 0 0 2.2 1 3 3 0 0 0 3-3v-4h-6v4z" fill="#ffdc5d"/></g></svg>