<svg xmlns="http://www.w3.org/2000/svg" viewBox="0 0 45 45"><defs><clipPath id="a"><path d="M0 36h36V0H0v36z"/></clipPath></defs><g clip-path="url(#a)" transform="matrix(1.25 0 0 -1.25 0 45)"><path d="M18 25.913l5.007.047h6.015c.973 0 2.266.038 3.196-.874a4.495 4.495 0 0 1-3.718 1.968H28l-.243.093H22.1l.016 4c0 .812.531 1.578.734 1.998A3.486 3.486 0 0 1 21 30.076l-.087-.272v-2.657L18 27.132c-1.201 0-2.182-.427-2.915-1.266l-.016 1.375.016 4.828c0 .758.406 1.438.668 1.954C14.71 33.331 14 32.054 14 30.576v-.522l-.181-.978.031-8.022c0-.892-.414-1.576-1.031-2.125-.53-.472-1.053-.657-1.819-.657-1.657 0-2.884 1.281-2.884 2.938L8.1 30.288c0 .816.453 1.391.757 1.861A3.486 3.486 0 0 1 7 29.076V27.19l-.072-.215v-6.058c0-1.988-1.89-2.785-2.828-2.785-1.718 0-3.1 1.203-3.1 2.785v-2.645s.185-.209.194-.312c.881-.883 2.156-1.016 2.984-1.016 1.594 0 2.684.851 3.338 2.063.677-1.213 1.912-2.016 3.428-2.016s3.685.738 4.056 3.344c.141-.167.506-.51.678-.64.704-.532 1.585-.735 2.322-.735l1.116.031h1.734c-.535-.27-.777-.552-1.203-.937-1.729-1.568-2.578-4.094-2.578-7.672 0-.277.317-.563.594-.563.276 0 .578.318.578.594 0 3.962.973 6.327 3.203 7.563 1.175.651 2.626.968 4.516.968.058 0 .562.032.562.032.277 0 .594.333.594.61 0 .275-.271.546-.547.546h-6.437L18 20.147c-1.657 0-2.915 1.281-2.915 2.938 0 1.657 1.258 2.828 2.915 2.828" fill="#ef9645"/><path d="M4.124 17.054c1.474 0 2.738.83 3.392 2.043.677-1.213 1.958-2.043 3.446-2.043h.076c1.153 0 2.169.51 2.889 1.298.023.025.051.043.073.068v.014c.185.212.343.448.481.695.039.073.069.152.105.227.093.194.176.394.236.606.052.173.107.344.134.526.141-.167.296-.32.46-.461.069-.06.147-.107.221-.162.116-.086.229-.177.355-.251a3.913 3.913 0 0 1 2.008-.56h3.166a6.44 6.44 0 0 1-1.425-1c-1.729-1.568-2.578-4.085-2.578-7.663a.499.499 0 1 1 1 0c0 3.962 1.01 6.427 3.24 7.663 1.174.65 2.682.967 4.571.967.059 0 .526.033.526.033a.5.5 0 0 1 0 1H18a3 3 0 1 0 0 6h11c.973 0 2.288-.056 3.218-.967.324-.318.604-.736.803-1.298l1.659-5.471c.156-.512.73-2.857.627-3.346C35.307 7.632 26.606 0 16.303 0 6.326 0 1 8.118 1 18.043v.23c.01-.011.021-.016.031-.027.881-.882 1.799-1.192 2.845-1.192h.248z" fill="#ffdc5d"/><path d="M3.864 30.054h.271A2.865 2.865 0 0 0 7 27.19v-6.272a2.865 2.865 0 0 0-2.865-2.864h-.27A2.864 2.864 0 0 0 1 20.918v6.272a2.864 2.864 0 0 0 2.864 2.864M14 26.778v-5.724c0-.892-.396-1.684-1.014-2.233A2.974 2.974 0 0 0 11 18.054a3 3 0 0 0-3 3v9c0 .816.328 1.554.857 2.094a2.983 2.983 0 0 0 2.143.906 3 3 0 0 0 3-3v-3.276zM18 27.054a3.974 3.974 0 0 1-3-1.38v6.38c0 .758.29 1.442.753 1.97A2.984 2.984 0 0 0 18 35.054a3 3 0 0 0 3-3v-5h-3zM22 31.06c0 .813.326 1.546.85 2.086a2.985 2.985 0 0 0 2.143.907h.014A2.993 2.993 0 0 0 28 31.061v-4.007h-6v4.007z" fill="#ffdc5d"/></g></svg>