<svg xmlns="http://www.w3.org/2000/svg" viewBox="0 0 45 45"><defs><clipPath id="a"><path d="M0 36h36V0H0v36z"/></clipPath></defs><g clip-path="url(#a)" transform="matrix(1.25 0 0 -1.25 0 45)"><path d="M10 31a2.5 2.5 0 0 0 2.5 2.5A2.5 2.5 0 0 0 15 31v2.2a2.3 2.3 0 0 0 2.3 2.3h.4a2.3 2.3 0 0 0 2.3-2.3V32a2.5 2.5 0 1 0 5 0v-9.3c0 1 .8 1.8 1.9 1.8h.3a1.9 1.9 0 0 0 1.8-1.9v-9.8c0-1-.8-1.8-1.9-1.8H27v-1h-2.1a7.5 7.5 0 0 0-7.4-6 7.5 7.5 0 0 0-7.5 7.5V31z" fill="#ef9645"/><path d="M6 28s0 2 2 2 2-2 2-2v-9.3c0 .2 1 .3 1 .4V32s0 2 2 2 2-2 2-2V19.9h1V34s0 2 2 2 2-2 2-2V20l1-.1V33s0 2 2 2 2-2 2-2V17c-6 0-10-5-10-10 0-1 1-1 1-1 0 6 4 10 10 10v7s0 2 2 2 2-2 2-2V12a12 12 0 0 0-24 0v16z" fill="#ffdc5d"/></g></svg>