<svg xmlns="http://www.w3.org/2000/svg" viewBox="0 0 45 45"><defs><clipPath id="a"><path d="M0 36h36V0H0v36z"/></clipPath></defs><g clip-path="url(#a)" transform="matrix(1.25 0 0 -1.25 0 45)"><path d="M10 31.035a2.465 2.465 0 0 0 2.465 2.465h.07A2.465 2.465 0 0 0 15 31.035v2.16a2.305 2.305 0 0 0 2.305 2.305h.39A2.305 2.305 0 0 0 20 33.195V32a2.5 2.5 0 1 0 5 0v-9.347c0 1.02.827 1.847 1.846 1.847h.308A1.847 1.847 0 0 0 29 22.653v-9.806c0-1.02-.827-1.847-1.846-1.847H27v-1h-2.15a7.503 7.503 0 0 0-7.35-6 7.499 7.499 0 0 0-7.5 7.5v6c0 .217.015.431.032.643-.013.106-.032.211-.032.322v12.57z" fill="#ef9645"/><path d="M6 28s0 2 2 2 2-2 2-2v-9.286c0 .147 1 .281 1 .398V32s0 2 2 2 2-2 2-2V19.878c0 .028 1 .052 1 .069V34s0 2 2 2 2-2 2-2V19.948c0-.017 1-.052 1-.081V33s0 2 2 2 2-2 2-2V17c-6 0-10-5-10-10 0-1 1-1 1-1 0 6 4 10 10 10v7s0 2 2 2 2-2 2-2V12c0-6.627-5.373-12-12-12S6 5.373 6 12v16z" fill="#ffdc5d"/></g></svg>