<svg xmlns="http://www.w3.org/2000/svg" viewBox="0 0 45 45"><defs><clipPath id="a"><path d="M0 36h36V0H0v36z"/></clipPath></defs><g clip-path="url(#a)" transform="matrix(1.25 0 0 -1.25 0 45)"><path d="M35.2 2.4c-.6 2.1-1.7 6-2.3 7.6-.5 1.2-1 2.4-1.6 3-.5.6-1.5.5-2 0 0 0-2.6-1.8-3.4-2.9-1.2-.8-2.8-3.3-2.8-3.3a1.5 1.5 0 0 1 0-2.2c.5-.5 1.7-1 3-1.5 1.4-.6 5.4-1.7 7.5-2.3.3-.1 1.7 1.2 1.6 1.6" fill="#d99e82"/><path d="M13.6 30.7a3 3 0 0 0 0-4.2l-4.1-4.1a3 3 0 0 0-4.2 0l-4.2 4.1a3 3 0 0 0 0 4.2l4.2 4.2a3 3 0 0 0 4.2 0l4.1-4.2z" fill="#ea596e"/><path d="M31.4 13l-4.2-4.2L23 4.6 7.4 20.4l8.3 8.3L31.4 13z" fill="#ffcc4d"/><path d="M32 1.2s2.8-1.5 3.5-.7c.7.7-.7 3.4-.7 3.4S32.2 4 32 1.2" fill="#292f33"/><path d="M10.5 33.8l-8.3-8.3 5.2-5.2 8.3 8.3-5.2 5.2z" fill="#ccd6dd"/><path d="M12.6 31.7l-8.3-8.3-1 1 8.3 8.4 1-1zm2-2l-8.3-8.4-1 1 8.3 8.4 1-1z" fill="#99aab5"/></g></svg>