<svg xmlns="http://www.w3.org/2000/svg" viewBox="0 0 45 45"><defs><clipPath id="a"><path d="M0 36h36V0H0v36z"/></clipPath></defs><g clip-path="url(#a)" transform="matrix(1.25 0 0 -1.25 0 45)"><path d="M34.4 19.1l-9 3.3-3.3 10.9a1 1 0 0 1-1.9 0L17 22.4l-9-3.3a1 1 0 0 1 0-1.9l8.9-3.3 3.3-11.2a1 1 0 0 1 2 0L25.3 14l9 3.3a1 1 0 0 1 0 1.8" fill="#ffac33"/><path d="M14.3 8.1L12 9l-.9 3.3a1 1 0 0 1-1.9 0L8.3 9 6 8a1 1 0 0 1 0-1.9l2.3-.8.9-3.6a1 1 0 0 1 2 0l.8 3.6 2.3.8a1 1 0 0 1 0 2M10 29.7l-2.4.8-.8 2.4a1 1 0 0 1-2 0L4 30.6l-2.4-.8a1 1 0 0 1 0-2L4 27l.9-2.4a1 1 0 0 1 1.9 0l.8 2.4 2.4.9a1 1 0 0 1 0 1.9" fill="#ffcc4d"/></g></svg>