<svg xmlns="http://www.w3.org/2000/svg" viewBox="0 0 45 45"><defs><clipPath id="a"><path d="M0 36h36V0H0v36z"/></clipPath></defs><g clip-path="url(#a)" transform="matrix(1.25 0 0 -1.25 0 45)" fill="#88c9f9"><path d="M19 8.4v19.2l4.8 4.8s.7.7 0 1.4-1.4 0-1.4 0L19 30.4V35s0 1-1 1-1-1-1-1v-4.6l-3.4 3.4s-.7.7-1.4 0 0-1.4 0-1.4l4.8-4.8V8.4l-4.8-4.8s-.7-.7 0-1.4 1.4 0 1.4 0L17 5.6V1s0-1 1-1 1 1 1 1v4.6l3.4-3.4s.7-.7 1.4 0 0 1.4 0 1.4L19 8.4z"/><path d="M34.6 15.1c-.2 1-1.2.7-1.2.7l-6.6-1.7-16.6 9.6-1.8 6.6s-.2 1-1.2.7c-1-.3-.7-1.3-.7-1.3l1.2-4.6-4 2.3s-.8.5-1.3-.4.4-1.4.4-1.4l4-2.3L2 22.1s-1-.3-.7-1.2 1.2-.7 1.2-.7l6.6 1.7 16.6-9.6 1.8-6.6s.2-1 1.2-.7c1 .3.7 1.3.7 1.3l-1.3 4.6 4-2.3s.9-.5 1.4.4c.5.9-.4 1.4-.4 1.4l-4 2.3 4.7 1.2s1 .3.7 1.2"/><path d="M34 22.1l-4.8 1.2 4 2.3s.9.5.4 1.4c-.5.9-1.4.4-1.4.4l-4-2.3 1.3 4.6s.3 1-.7 1.3c-1 .2-1.2-.7-1.2-.7l-1.8-6.6L9.2 14l-6.6 1.7s-1 .3-1.2-.7c-.4-.9.6-1 .6-1l4.6-1.2-4-2.3S2 9.9 2.5 9s1.4-.4 1.4-.4l4 2.3-1.3-4.6s-.3-1 .7-1.3a1 1 0 0 1 1.2.7l1.8 6.6L26.8 22l6.6-1.7s1-.3 1.2.7c.3 1-.7 1.2-.7 1.2"/></g></svg>